<svg xmlns="http://www.w3.org/2000/svg" viewBox="0 0 410 218.28"><defs><style>.cls-1,.cls-4{fill:#fff;}.cls-2,.cls-5{fill:#00529c;}.cls-2,.cls-3,.cls-4{fill-rule:evenodd;}.cls-3{fill:#ffcb05;}</style></defs><title>Asset 1</title><g id="Layer_2" data-name="Layer 2"><g id="Layer_1-2" data-name="Layer 1"><rect class="cls-1" width="410" height="218.28"/><path class="cls-2" d="M12,6.25a6.06,6.06,0,0,0-6,6V153.68a6.06,6.06,0,0,0,6,6H160.46V6.25Z"/><path class="cls-3" d="M398,6.25H165.67V159.67H398a6.05,6.05,0,0,0,6-6V12.24A6.05,6.05,0,0,0,398,6.25Z"/><polygon class="cls-4" points="91.44 131.29 91.44 131.53 91.44 131.53 91.44 131.53 91.44 131.53 91.69 131.53 91.69 131.53 91.69 131.53 91.69 131.53 91.44 131.29"/><polygon class="cls-2" points="192.23 24.74 211.25 24.74 211.25 124.24 251.37 124.24 251.37 141.18 192.23 141.18 192.23 24.74"/><rect class="cls-5" x="272.21" y="24.74" width="19.28" height="116.44"/><path class="cls-2" d="M358.42,100h19c0,13.54-2.33,24.22-7.29,32s-10.68,11.72-22.92,11.72c-14.33,0-21.1-3.64-26.56-11.19-5.48-7.3-8.34-19.55-8.34-36.73V71.11q0-27.75,8.59-38.29c6-7,12-10.68,24.49-10.68,12,0,18.75,3.13,24,9.63,5.2,6.25,7.82,15.9,7.82,29.17l-19.55.27c0-7.3-.78-12.76-2.33-16.16-1.31-3.39-4.18-5.19-8.35-5.19-10.16,0-15.12,8.07-15.12,24.21v37.78c0,8.86,1.32,15.1,3.92,18.75s6.51,5.47,11.46,5.47c3.91,0,6.51-1.83,8.34-5.74S358.42,109.66,358.42,100Z"/><polygon class="cls-2" points="5.99 197.44 8.86 197.44 8.86 209.17 14.85 209.17 14.85 211.77 5.99 211.77 5.99 197.44"/><rect class="cls-5" x="17.2" y="197.44" width="2.85" height="14.32"/><polygon class="cls-2" points="23.71 197.44 32.31 197.44 32.31 199.79 26.56 199.79 26.56 203.69 29.95 203.69 29.95 206.03 26.56 206.03 26.56 211.77 23.71 211.77 23.71 197.44"/><polygon class="cls-2" points="34.64 197.44 44.27 197.44 44.27 199.79 37.51 199.79 37.51 203.17 41.67 203.17 41.67 205.25 37.51 205.25 37.51 209.17 44.27 209.17 44.27 211.77 34.64 211.77 34.64 197.44"/><rect class="cls-5" x="52.88" y="197.44" width="2.86" height="14.32"/><polygon class="cls-2" points="59.4 197.44 62.24 197.44 67.99 207.08 67.99 197.44 70.86 197.44 70.86 211.77 67.99 211.77 61.98 201.87 61.98 211.77 59.4 211.77 59.4 197.44"/><path class="cls-2" d="M75.81,207.61a4.58,4.58,0,0,0,1.55,1.56,2.62,2.62,0,0,0,3.13,0c.51-.52.77-.79.77-1.32s-.26-.77-.52-1.3a5.56,5.56,0,0,0-2.34-.78A14.09,14.09,0,0,1,75,204.21a4,4,0,0,1-1-2.87,3.56,3.56,0,0,1,1-2.85,5.59,5.59,0,0,1,3.64-1.31,4.9,4.9,0,0,1,2.08.52,4.27,4.27,0,0,1,1.83,1,3.89,3.89,0,0,1,.79,1l-2.36,1a5.94,5.94,0,0,0-1-1.3,3.23,3.23,0,0,0-1.57-.27,2,2,0,0,0-1.3.53,1.43,1.43,0,0,0-.77,1.29,2.12,2.12,0,0,0,.51,1.06,6.07,6.07,0,0,0,2.34.77,17.31,17.31,0,0,1,2.87,1,7.8,7.8,0,0,1,1.31,1.56,6.39,6.39,0,0,1,.51,2.1,3.45,3.45,0,0,1-.79,2.08,2.32,2.32,0,0,1-1.55,1.55,5.2,5.2,0,0,1-2.87.79,7.69,7.69,0,0,1-2.6-.52,7.82,7.82,0,0,1-1.81-1.3,8,8,0,0,1-.79-1.56Z"/><path class="cls-2" d="M86.48,197.44h2.86V206a3.52,3.52,0,0,0,.78,2.62,2.58,2.58,0,0,0,2.09.78,11.26,11.26,0,0,0,1.3-.26,2.78,2.78,0,0,0,1-1.32,3,3,0,0,0,.52-1.82v-8.59h2.86v9.11a4.61,4.61,0,0,1-1.55,3.91A5.53,5.53,0,0,1,92.21,212a9.36,9.36,0,0,1-2.87-.52,5.8,5.8,0,0,1-1.3-.79c-.53-.26-.77-.78-1-1.55a6.38,6.38,0,0,1-.52-2.62Z"/><path class="cls-2" d="M106.28,203.69a4.9,4.9,0,0,0,2.08-.52c.25-.53.52-.78.52-1.3a1.45,1.45,0,0,0-.77-1.3c-.27-.52-1-.52-1.83-.52v-2.61a7,7,0,0,1,2.86.52,2.79,2.79,0,0,1,1.82,1.57,4.18,4.18,0,0,1,.79,2.34,5.09,5.09,0,0,1-.52,2.08,14.94,14.94,0,0,1-2.09,1.56l2.61,6.26h-2.87L106.54,206h-.26Zm-2.34-3.64v3.64h2.34V206h-2.34v5.74h-2.87V197.44h5.21v2.61h-2.34Z"/><path class="cls-2" d="M119,201.34h0v-3.9h1.58l4.69,14.33h-2.86l-1.06-3.39H119v-2.09h1.58Zm0,0-1.55,4.95H119v2.09H117l-1.3,3.39H113l4.44-14.33H119Z"/><polygon class="cls-2" points="127.11 197.44 130.25 197.44 135.98 207.08 135.98 197.44 138.83 197.44 138.83 211.77 135.98 211.77 129.98 201.87 129.98 211.77 127.11 211.77 127.11 197.44"/><path class="cls-2" d="M152.91,207.61a6,6,0,0,1-.79,1.82,4,4,0,0,1-1.83,1.81,5.13,5.13,0,0,1-2.85.79,6.82,6.82,0,0,1-3.13-.79,7.29,7.29,0,0,1-2.35-2.59,8.91,8.91,0,0,1-.78-3.92,8.82,8.82,0,0,1,.78-3.9,6.34,6.34,0,0,1,2.35-2.87,6.93,6.93,0,0,1,3.13-.78,7.58,7.58,0,0,1,2.59.52,3.52,3.52,0,0,1,1.83,1.56,13.65,13.65,0,0,1,.79,1.82l-2.62.79a3.93,3.93,0,0,0-.77-1.82,4.87,4.87,0,0,0-1.82-.52,2.76,2.76,0,0,0-2.36,1.3,8.69,8.69,0,0,0-.77,3.9,8.32,8.32,0,0,0,.25,2.6,7.89,7.89,0,0,0,1.05,1.57,3.58,3.58,0,0,0,1.56.53,3,3,0,0,0,2.09-.78,4.42,4.42,0,0,0,1-1.83Z"/><polygon class="cls-2" points="155.24 197.44 164.64 197.44 164.64 199.79 157.85 199.79 157.85 203.17 162.02 203.17 162.02 205.25 157.85 205.25 157.85 209.17 164.64 209.17 164.64 211.77 155.24 211.77 155.24 197.44"/><path class="cls-2" d="M183.9,207.61a6.34,6.34,0,0,1-.78,1.82,4,4,0,0,1-1.83,1.81,4.91,4.91,0,0,1-2.6.79,5.5,5.5,0,0,1-3.13-.79,7.25,7.25,0,0,1-2.34-2.59,8.76,8.76,0,0,1-.8-3.92,8.67,8.67,0,0,1,.8-3.9,6.32,6.32,0,0,1,2.34-2.87,7,7,0,0,1,3.13-.78,7.72,7.72,0,0,1,2.35.52,3.58,3.58,0,0,1,1.82,1.56,4.31,4.31,0,0,1,1,1.82l-2.61.79a4,4,0,0,0-1-1.82,3.77,3.77,0,0,0-1.83-.52,3.57,3.57,0,0,0-2.33,1.3,8.55,8.55,0,0,0-.78,3.9,7.7,7.7,0,0,0,.51,2.6c.27.52.52,1.32,1,1.57a2,2,0,0,0,1.3.53,3,3,0,0,0,2.09-.78,4.13,4.13,0,0,0,1-1.83Z"/><path class="cls-2" d="M191.71,209.43h0a2.5,2.5,0,0,0,2.34-1.05,5,5,0,0,0,1-3.65c0-2.09-.26-3.39-1-4.16a3.82,3.82,0,0,0-2.34-1v-2.35a4.16,4.16,0,0,1,2.86.78,4.74,4.74,0,0,1,2.62,2.35,10.48,10.48,0,0,1,.78,4.42,8.65,8.65,0,0,1-1.56,5.48,7.05,7.05,0,0,1-4.7,1.82h0Zm0-9.9a2.73,2.73,0,0,0-2.34,1.3,6.7,6.7,0,0,0-1.05,3.64,7,7,0,0,0,1.05,3.91,2.8,2.8,0,0,0,2.34,1.05V212a6.3,6.3,0,0,1-4.42-1.82c-1.31-1.31-1.82-3.13-1.82-5.74a10.24,10.24,0,0,1,.78-3.9,5.21,5.21,0,0,1,1-1.57,4,4,0,0,1,1.83-1.3,7.47,7.47,0,0,1,2.34-.52h.25v2.35Z"/><path class="cls-2" d="M205.79,203.69a3.86,3.86,0,0,0,1.82-.52c.52-.53.78-.78.78-1.3a1.42,1.42,0,0,0-.78-1.3c-.27-.52-1.05-.52-1.82-.52v-2.61a7,7,0,0,1,2.86.52,2.76,2.76,0,0,1,1.82,1.57,4.17,4.17,0,0,1,.78,2.34,4.94,4.94,0,0,1-.52,2.08,13.72,13.72,0,0,1-2.08,1.56l2.6,6.26h-2.86L206,206h-.25Zm-2.36-3.64v3.64h2.36V206h-2.36v5.74h-2.86V197.44h5.22v2.61h-2.36Z"/><path class="cls-2" d="M219.07,203.69a4.9,4.9,0,0,0,2.08-.52,2.83,2.83,0,0,0,.53-1.57c0-.52-.27-.77-.53-1.29a4.06,4.06,0,0,0-2.08-.52v-2.35a8.07,8.07,0,0,1,2.86.52,3.14,3.14,0,0,1,1.83,1.3,4.23,4.23,0,0,1,.27,4.43c0,.26-.53.78-.8,1a2.38,2.38,0,0,1-1.3.78,5.16,5.16,0,0,1-2.86.52Zm-2.35-3.9v3.9h2.35V206h-2.35v5.74h-2.86V197.44h5.21v2.35h-2.35Z"/><path class="cls-2" d="M232.61,209.43h0a2.53,2.53,0,0,0,2.35-1.05,5,5,0,0,0,1-3.65c0-2.09-.52-3.39-1.31-4.16a3.19,3.19,0,0,0-2.08-1v-2.35a4.72,4.72,0,0,1,2.87.78,5.71,5.71,0,0,1,2.6,2.35,10.18,10.18,0,0,1,.78,4.42c0,2.35-.52,4.17-1.82,5.48a6.32,6.32,0,0,1-4.43,1.82h0Zm0-9.9a2.77,2.77,0,0,0-2.35,1.3,5.07,5.07,0,0,0-1,3.64c0,1.82.25,3.14,1,3.91a2.56,2.56,0,0,0,2.35,1.05V212a6.36,6.36,0,0,1-4.43-1.82c-1.31-1.31-1.83-3.13-1.83-5.74a10.45,10.45,0,0,1,.79-3.9,5.62,5.62,0,0,1,1-1.57,3.07,3.07,0,0,1,1.83-1.3,7.66,7.66,0,0,1,2.34-.52h.26v2.35Z"/><path class="cls-2" d="M246.68,203.69a3.76,3.76,0,0,0,1.82-.52,1.44,1.44,0,0,0,.52-1.3c0-.53,0-1-.52-1.3-.26-.52-1-.52-1.82-.52v-2.61a7,7,0,0,1,2.86.52,3.57,3.57,0,0,1,1.83,1.57,4.25,4.25,0,0,1,.78,2.34,3,3,0,0,1-.78,2.08,4.78,4.78,0,0,1-2.09,1.56l2.6,6.26h-2.6L246.94,206h-.26Zm-2.36-3.64v3.64h2.36V206h-2.36v5.74h-2.85V197.44h5.21v2.61h-2.36Z"/><path class="cls-2" d="M259.44,206.29H261l-1.56-4.95v-3.9H261l4.43,14.33h-2.61l-1-3.39h-2.35Zm0-4.95-1.56,4.95h1.56v2.09h-2.35l-1,3.39h-2.61l4.43-14.33h1.56Z"/><polygon class="cls-2" points="264.91 197.44 275.59 197.44 275.59 199.79 271.69 199.79 271.69 211.77 268.81 211.77 268.81 199.79 264.91 199.79 264.91 197.44"/><rect class="cls-5" x="278.19" y="197.44" width="2.87" height="14.32"/><path class="cls-2" d="M289.92,209.43h.26a3.15,3.15,0,0,0,2.34-1.05,6.89,6.89,0,0,0,.79-3.65c0-2.09-.27-3.39-1.05-4.16a3.3,3.3,0,0,0-2.34-1v-2.35A5.57,5.57,0,0,1,293,198a5.1,5.1,0,0,1,2.35,2.35,10.33,10.33,0,0,1,.78,4.42,8.59,8.59,0,0,1-1.56,5.48,6.86,6.86,0,0,1-4.43,1.82h-.26Zm0-9.9a3.64,3.64,0,0,0-2.35,1.3,6.86,6.86,0,0,0-.78,3.64,7.32,7.32,0,0,0,.78,3.91,3.19,3.19,0,0,0,2.35,1.05V212a6.35,6.35,0,0,1-4.44-1.82,8.88,8.88,0,0,1-1.83-5.74,10.45,10.45,0,0,1,.79-3.9,6.94,6.94,0,0,1,1.31-1.57,3,3,0,0,1,1.82-1.3,4.9,4.9,0,0,1,2.08-.52h.27v2.35Z"/><polygon class="cls-2" points="298.78 197.44 301.89 197.44 307.63 207.08 307.63 197.44 310.24 197.44 310.24 211.77 307.63 211.77 301.63 201.87 301.63 211.77 298.78 211.77 298.78 197.44"/><path class="cls-2" d="M325.09,209.43h0a2.51,2.51,0,0,0,2.33-1.05,5.1,5.1,0,0,0,1.05-3.65,7.28,7.28,0,0,0-1.05-4.16,4.68,4.68,0,0,0-2.33-1v-2.35a4.64,4.64,0,0,1,2.85.78,5.69,5.69,0,0,1,2.61,2.35,10.33,10.33,0,0,1,.78,4.42c0,2.35-.51,4.17-1.82,5.48a6.33,6.33,0,0,1-4.42,1.82h0Zm0-9.9a2.72,2.72,0,0,0-2.35,1.3,5.07,5.07,0,0,0-1,3.64,7,7,0,0,0,1,3.91,2.52,2.52,0,0,0,2.35,1.05V212a6.32,6.32,0,0,1-4.43-1.82c-1.31-1.31-1.83-3.13-1.83-5.74a10.25,10.25,0,0,1,.79-3.9,5.21,5.21,0,0,1,1-1.57,4,4,0,0,1,1.81-1.3,7.66,7.66,0,0,1,2.34-.52h.28v2.35Z"/><polygon class="cls-2" points="333.93 197.44 342.54 197.44 342.54 199.79 336.8 199.79 336.8 203.69 340.19 203.69 340.19 206.03 336.8 206.03 336.8 211.77 333.93 211.77 333.93 197.44"/><rect class="cls-5" x="351.13" y="197.44" width="2.87" height="14.32"/><polygon class="cls-2" points="357.39 197.44 360.5 197.44 366.23 207.08 366.23 197.44 369.1 197.44 369.1 211.77 366.23 211.77 360.23 201.87 360.23 211.77 357.39 211.77 357.39 197.44"/><path class="cls-2" d="M378,209.17c.26-.27.79-.27,1.05-.52.51-.27.77-.8,1.3-1.57a8.06,8.06,0,0,0,.52-2.61,4.5,4.5,0,0,0-1.31-3.39c-.26-.51-1-.77-1.56-1v-2.61a5.41,5.41,0,0,1,2.87,1.05,4.55,4.55,0,0,1,2.08,2.34,8.3,8.3,0,0,1,.78,3.64,13.1,13.1,0,0,1-.52,3.38,5.75,5.75,0,0,1-1.82,2.36,4.26,4.26,0,0,1-1.83,1c-.51.27-1,.27-1.56.53Zm-2.86-9.38v9.38H378v2.6h-5.73V197.44H378v2.61c-.53,0-.77-.26-1.56-.26Z"/><rect class="cls-5" x="386.55" y="197.44" width="2.86" height="14.32"/><path class="cls-2" d="M397.75,206.29h1.57l-1.57-4.95v-3.9h1.57l4.43,14.33h-2.6l-1-3.39h-2.36Zm0-4.95-1.56,4.95h1.56v2.09h-2.34l-1,3.39h-2.86l4.68-14.33h1.56Z"/><path class="cls-4" d="M76.59,64.07c-3.91.79-6.78,2.34-6.78,4.16,0,2.62,2.87,7.06,6.78,9.64V69.8c-3.13-.52-5.22-1.57-5.22-2.33,0-1.06,2.09-2.08,5.22-2.89v-.51Zm7.55-.78a32,32,0,0,1,5.2.52v.77a33.64,33.64,0,0,0-5.47-.51c-.51,1.83-.79,3.12-.26,3.65.78,2.08,3.66,2.08,5.73,2.08v8.6A11.89,11.89,0,0,1,83.61,80a13,13,0,0,1-7-2.09V69.8c2.07.26,5.46.26,5.46-1.82a5.53,5.53,0,0,0-1.31-3.4c0-.25-.25-.25-.25-.51-1.56.26-2.61.26-3.9.51v-.51A15.13,15.13,0,0,1,80,63.55a24,24,0,0,0-1.57-2.61c-.52-1.56-1.3-3.12-.78-4.94.78-2.87,3.64-5.47,4.43-11.46,0,0,1.56,3.91,2.09,5.21s2.59,5.73,1.3,9.63c-.53,1.56-1,2.88-1.3,3.91Zm5.2,15.11c4.43-2.6,7.56-7.29,7.56-10.17,0-2.08-3.13-3.65-7.56-4.42v.77c3.66.54,6,1.83,6,2.89,0,.76-2.09,1.81-5.22,2.33h-.78Z"/><path class="cls-4" d="M53.4,47.14a22.18,22.18,0,0,0,.78-3.39c0-.52-.52-2.61,1.56-1.3s1.56,2.86,1,3.92c-.27,1-1.57,4.42-2.09,5.73l-2.34,6.5a2.67,2.67,0,0,0-.27.78c-.25,0-1,3.39-.78,7.3l.53,4.17s0,.26.52,0c0,0,.52-.27,0-2.35a40.59,40.59,0,0,1,.26-5.21,14.79,14.79,0,0,1,.78-4.16c.26-.53.26-.79.78-2.09A43.44,43.44,0,0,1,56,52.1a41.88,41.88,0,0,0,2.34-5.48,16,16,0,0,0,.79-5.21s-.26-.78,0-1c.52-.51,1.83,0,2.6.26A3.57,3.57,0,0,1,63,43.75a26.16,26.16,0,0,1-1.56,6,12,12,0,0,1-1.29,2.35c-.28.51-2.36,5.21-2.36,5.47-.25.25-.25.52-.52.77a23.76,23.76,0,0,0-1,4.17,28.13,28.13,0,0,0-.78,4.43A18.9,18.9,0,0,0,56,72.4s.26.54.52.54.27-1.31.27-1.31V69.8c-.27-.52,0-4.41,0-4.41a19.17,19.17,0,0,1,1-4.72c.26-.5.52-1.81,1-2.85A16.7,16.7,0,0,1,60.18,55s2.33-5.47,2.6-5.74c0-.52,1.29-3.64,1.29-5.47a6.25,6.25,0,0,1,.54-2.61s-.27-1.28,1.29-.51a4.84,4.84,0,0,1,2.61,3.12s.26,1.3-.25,1.56-.79-.26-1.06.27c0,0-.51,0-.51.79a6.24,6.24,0,0,1-.52,2.08,9.75,9.75,0,0,1-.27,2.34c-.53,1.31-1.83,5.21-1.83,5.47,0,0-1,2.6-1,2.87s-.25.52-.52.78c0,.26-1,4.42-1.29,5.48,0,1-.26,2.84-.26,3.89a16.16,16.16,0,0,0,.51,3.66.92.92,0,0,0,.51.25c.53-.25-.25-1.56,0-3.64a50.58,50.58,0,0,1,.8-5.48,37.65,37.65,0,0,1,1.29-4.69,50.3,50.3,0,0,0,1.83-5c.27-.52,1.3-4.16,1.57-4.94,0-.53,0-2.35,1.82-2.6,1.81.51,1.81,3.9,1.57,5.21a21.11,21.11,0,0,1-1.57,6.24l-1,2.6c0,.27.25,2.87.25,3.92A15.52,15.52,0,0,1,68,69c-.52,2.1-.26,2.35,0,2.62a23.52,23.52,0,0,1,1.56,2.88,19,19,0,0,0,.78,3.11,31.27,31.27,0,0,0,2.08,2.61c.27.77,1.84,3.12,1.84,3.39.26.26,4.68,6.24,6,8.32,1.31,2.34,2.35,4.44,2.35,6.51a9.38,9.38,0,0,1-1.83,4.44,4.32,4.32,0,0,1-1.56,1.56c-.25.25-1.3.53-1.3,1.29l-1,3.92H59.4L63,102.89s1.31-.8-1.3-4.18c-2.86-3.12-7.29-11.45-7.29-11.45s-4.18-7-4.94-8.6c-1.32-1.82-1-11.47-1-14.33A18.2,18.2,0,0,1,49.76,56C51.84,51.57,53.4,47.14,53.4,47.14Z"/><path class="cls-4" d="M113.31,47.14a32.38,32.38,0,0,1-.51-3.39c0-.52.24-2.61-1.84-1.3s-1.29,2.86-1,3.92c.54,1,1.57,4.42,2.36,5.73l2.34,6.5v.78c.26,0,1,3.39.78,7.3l-.52,4.17s0,.26-.26,0c0,0-.52-.27-.26-2.35V63.29c-.26-1-.52-3.91-.78-4.16A5.53,5.53,0,0,1,112.8,57c-.53-1.3-2.1-4.94-2.1-4.94a52,52,0,0,1-2.09-5.48,10.68,10.68,0,0,1-.77-5.21s.27-.78-.26-1c-.26-.51-1.83,0-2.34.26a4.41,4.41,0,0,0-1.57,3.12,29.27,29.27,0,0,0,1.83,6s.78,1.82,1,2.35c.52.51,2.34,5.21,2.6,5.47,0,.25.25.52.25.77,0,0,1.06,3.13,1.31,4.17,0,1,.53,2.07.78,4.43a27.68,27.68,0,0,1-.78,5.46.52.52,0,0,1-.52.54c-.27,0-.27-1.31-.27-1.31a4.92,4.92,0,0,1,.27-1.83V65.39a26.62,26.62,0,0,0-1.3-4.72,28.28,28.28,0,0,0-.77-2.85c-.79-1.56-1.57-2.86-1.57-2.86s-2.35-5.47-2.35-5.74a17.66,17.66,0,0,1-1.56-5.47,12.07,12.07,0,0,0-.26-2.61s.26-1.28-1.3-.51-2.61,2.08-2.61,3.12c0,0-.26,1.3.26,1.56s.78-.26,1,.27c0,0,.26,0,.26.79,0,.25.53,1.81.53,2.08.26.51,0,1,.26,2.34.52,1.31,1.82,5.21,2.09,5.47a19.08,19.08,0,0,0,1,2.87,1,1,0,0,0,.25.78,56.32,56.32,0,0,1,1.31,5.48,20.44,20.44,0,0,1,.52,3.89c-.27,1.3-.27,2.61-.52,3.66a.92.92,0,0,1-.53.25c-.52-.25,0-1.56,0-3.64a44.09,44.09,0,0,0-1-5.48,37.2,37.2,0,0,0-1.31-4.69,30.16,30.16,0,0,0-1.82-5,47.08,47.08,0,0,0-1.31-4.94c-.26-.53-.26-2.35-2.09-2.6-1.8.51-1.56,3.9-1.56,5.21a40.89,40.89,0,0,0,1.56,6.24c1.31,2.6,1,2.6,1,2.6a19.31,19.31,0,0,0,0,3.92A12.5,12.5,0,0,0,98.72,69c.78,2.1.26,2.35.26,2.62a22.89,22.89,0,0,0-1.82,2.88,24.41,24.41,0,0,0-.52,3.11,12.56,12.56,0,0,0-2.08,2.61c-.54.77-1.83,3.12-2.09,3.39,0,.26-4.69,6.24-6,8.32-1,2.34-2.09,4.44-2.09,6.51a7.31,7.31,0,0,0,1.84,4.44,3,3,0,0,0,1.55,1.56c.26.25,1,.53,1.31,1.29l.78,3.92h17.71l-3.64-6.77s-1.57-.8,1.3-4.18c2.6-3.12,7.28-11.45,7.28-11.45s4.18-7,5-8.6c1.31-1.82,1-11.47,1-14.33A20.82,20.82,0,0,0,117,56C115.12,51.57,113.31,47.14,113.31,47.14Z"/><path class="cls-4" d="M83.61,19.53H80.49c-11.47,0-22.92,5.21-31.78,14.85-7.81,8.33-12.49,18.5-12.49,26.83V104.7c0,8.08,4.68,18.5,12.23,26.83,8.59,9.4,19.81,14.86,31.26,14.86h3.9v-1.56h-3.9c-10.94,0-21.89-5-30.21-14.33a46.82,46.82,0,0,1-7.56-10.69c-2.08-4.15-1.57-10.67-1.57-15.63V60.67c0-4.67-.77-10.4,2.61-16.39,7-11.73,20.58-23.45,37.51-23.45h3.12v-1.3Zm0,126.86v-1.56h3.12c11.21,0,21.88-5,30.49-14.33a42.59,42.59,0,0,0,7.3-10.94c2.59-5.22,2.08-10.42,2.08-15.38V60.67c0-3.63.78-8.33-1.57-13.27C118.52,34.63,104.45,20.83,86,20.83H83.61v-1.3H86c11.72,0,22.92,5.21,32,14.85,7.55,8.33,12.5,18.5,12.5,26.29v43.51c0,8.6-4.69,19-12.24,27.35-8.87,9.4-19.8,14.86-31.53,14.86Z"/><path class="cls-4" d="M77.62,119a.82.82,0,0,1-.78.78.69.69,0,0,1-.78-.78c0-.26.27-.52.78-.52C77.1,118.51,77.62,118.77,77.62,119Z"/><path class="cls-4" d="M66.43,126.32V125l.77.78c-.25.27-.51.27-.77.52Zm0-3.12,1.83.51-1.06,5,1.82.24,1.58-7.55a3.65,3.65,0,0,0,1.81.51l-.51,2.62s-.8-.27-1,.78c-.26.78.77,1.82,1.29,2.33.79.8,1.31-.76,1.31-.76h1.29v-2.09h-1l.53-2.61h.5v-1.31h-1a8,8,0,0,0-2.62-.52l-1-2.09L68.26,118l1,1.82a2.07,2.07,0,0,0-.78-.25l-.25,1.29a.86.86,0,0,0,.51.27l-.26,1L67,121.89a2.61,2.61,0,0,0,1-1.82,2.29,2.29,0,0,0-1.56-1.83v5Zm12-2.08-.26,1.57h-.52L76.84,130l-1.57-.26v-2.86h-.52v-2.09h.78v-2.35a2.51,2.51,0,0,0-.78-.26v-1.31A26.15,26.15,0,0,0,78.4,121.12ZM65.9,118h0a2.06,2.06,0,0,0-2.08,2.08,2,2,0,0,0,.25,1.31c-.25,0-.78.26-.78.51A2.67,2.67,0,0,0,62,124.51a3.18,3.18,0,0,0,2.09,2.35h.27c.27,0,.27,1,.27,1l1.29.27v-3.38a1,1,0,0,1-.78.25c-.25.27-.78,0-1.05-.51-.78-.8.54-2.09,1.56-1.56h.27V120.6a.57.57,0,0,1-.53-.53.55.55,0,0,1,.53-.51V118Zm.53.25v5L65.9,123V120.6h.27c0-.27.26-.27.26-.53a.55.55,0,0,0-.53-.51V118a.92.92,0,0,1,.53.25Zm0,6.78v1.3a.26.26,0,0,1-.26.27v1.56H65.9v-3.38h.53Z"/><path class="cls-4" d="M50.26,111.75a8.09,8.09,0,0,1-1-.79l-1,1a4.79,4.79,0,0,1,1,.78c0,.26.27,1.84-1.56,1.3h-.78s-1.31,2.34.25,4.16a2.78,2.78,0,0,0,2.62,1.06l-1,1.82,1.55,1v-4.69c-.25.27-.76.27-1.55-.25-.77-.8-.26-1.31-.26-1.31,1,0,1.56-.25,1.81-.78v-3.38Zm13,7.81h-.78l-2.61,7-1.56-.52,2.62-7.3a2,2,0,0,1-1.06-.53,5.41,5.41,0,0,1-1.56,3.92c-1.55,1.55-2.6.53-2.86-.78a1.3,1.3,0,0,1,1-1.57s.78,0,1,.52c0,0,1-.52.25-2.86-.25-.25-.78-.25-1.3-.52l-3.64,6.76L51.31,123,55,116.18a3.59,3.59,0,0,0-1-.79l-3.66,6.5v-4.42a.92.92,0,0,0,.53-.25l1.57-2.6c-.52-.28-1-.79-1.57-.79a1.66,1.66,0,0,1-.53,1.3v-3.38a40.62,40.62,0,0,0,5,2.87l-.52-2.35,1.56.77.53,2.35a64.85,64.85,0,0,0,6.77,3.12Z"/><path class="cls-4" d="M83.61,123.47a2.93,2.93,0,0,0-3.12,2.6,3,3,0,0,0,3.12,2.86v-1.56c-.78-.26-1.3-.51-1.3-1.3,0-.53.52-.78,1.3-1v-1.55Zm0-2.09H81.26v1.31a15.52,15.52,0,0,0,2.35-.27v-1Zm20.84-4.16v1.29c-.51.26-.78.26-1.3.52a3,3,0,0,1,.79,1.82,3.7,3.7,0,0,1-.79,1.57,1.3,1.3,0,0,0,1.3.78V125c-.51,0-.78-.25-1.3-.25a5.47,5.47,0,0,1-2.86-2.08l.52-.53s.77,0,1-1.31c0-.52-.77-1-1-1-.52.26-1.31.26-1.83.52l.78,2.87.79-.25,1,1.82-1,.52a1.14,1.14,0,0,1-.79,1,6.74,6.74,0,0,1-2.08-.78.76.76,0,0,1-.27-1.3l.79-.53s-.79-2.33-1-2.86c-.52,0-1,.27-1.55.27l1.8,7.57-1.8.24-2.1-7.55a1.56,1.56,0,0,1-1,.26l.26,2.34-2.61.53a.92.92,0,0,0-.25.51c0,.27.78,0,.78,0a2.72,2.72,0,0,1,2.08,0c1,.78,2.35,1.3,1,3.91a3.27,3.27,0,0,1-.77.52l-1-1s1-1,0-1.56a1.33,1.33,0,0,0-1.84.76c-.25.26-.78,1.31.79,1.83l.78.27L91.43,131s-3.14-.25-3.39-2.32a3.26,3.26,0,0,1,.52-2.37s-1.29-1-.78-2.08c.26-.77.51-1.29,1.31-1.29a6.86,6.86,0,0,1,1.82-.26l-.26-.8c-1.56.27-3.14.27-4.42.53l.5,7.82H84.91v-1.55a2.49,2.49,0,0,1-1.3.24h0v-1.56h0c.53,0,.78-.26,1-.26l-.26-1.82c0-.27-.52-.27-.78-.27h0v-1.55h0a.92.92,0,0,0,.78-.27v-.78h-.78v-1a81.36,81.36,0,0,0,17.46-2.87,12.7,12.7,0,0,1,3.38-1.29Zm11.72-6.51a102.56,102.56,0,0,1-11.72,6.51v1.29l1.3,2.61c0,.77-.25,1.83-1.3,1.83V125a2.47,2.47,0,0,0,2.35-1.31l1,1.83,1.55-.52-3.11-7.28c1.3-.52,2.6-1.32,3.63-1.83l.27.27a9.51,9.51,0,0,1-1.3,1c-.77.25-1,.77-.77,1.81,0,1,1.56,1.57,1.56,1.57a4,4,0,0,0,.24,2.35c1,1.82,3.92,1,3.92,1l-.26-1.29-.77.26a1.58,1.58,0,0,1-1.32-1.83,1.31,1.31,0,0,1,1.56-1.31c1,0,.53,1.57.53,1.57l1,.51a2,2,0,0,0,.78-.77c0-2.61-1.3-2.88-2.35-3.13a2.63,2.63,0,0,0-2.08.78s-.51.26-.78,0a.94.94,0,0,1,.27-.53l2.35-1.55-1.32-2.07c.79,0,1-.54,1.56-.79.27.51,1.57,2.35,1.57,2.35,0,.24-.52.24-.26,1a2,2,0,0,0,1.82.77v-3.12l-1.56-2.09c.51-.26.78-.51,1.3-.78l.26.27v-1.56Zm4.69,7.28-2.07-2.33-1.31,1s.26,1.3-.78,1.3h-.53v-2.86l1.31-1-1.31-1.81v-1.56a17,17,0,0,0,1.57-1.32l.52.79a3.4,3.4,0,0,1-.78.53l4.43,6.24Z"/><path class="cls-4" d="M121.65,118l1.56-.77s.53-.27.53,0c.25.25,0,.25,0,.25s-1.3,1.3-1.57,1.3h-.52S121.38,118.24,121.65,118Z"/><path class="cls-2" d="M164.87,173h-1.8v2.34h5.46v15.11h3.39V175.3h18.23v7.56a5.79,5.79,0,0,1-2.08,1.3,2.36,2.36,0,0,1-1.31.26l-.78.25h-.51a5.29,5.29,0,0,1-1.83-.25,2.75,2.75,0,0,1-2.09-2.62c0-.52.27-.77.27-1a3.46,3.46,0,0,1,1.82-1.56,9.18,9.18,0,0,1,1.57-.26l1,.26,1.3.26h.26l1.31.78-.8-3.13H186.5l-.78-.26h-.78a7.23,7.23,0,0,0-4.69,1.56,4.92,4.92,0,0,0-2.09,3.65,6,6,0,0,0,.53,2.09,4.73,4.73,0,0,0,1.83,1.3,8,8,0,0,0,4.95,1.56l1.56-.26,1.56-.26,1-.51a.91.91,0,0,1,.52-.26v4.68h3.13V175.3h20.31v3.39H200.31c-1.05.52-1.05,1-1.05,1.56h0a2,2,0,0,0,.52,1,8.69,8.69,0,0,0,1.57,1.58l1.82,1.3a4.28,4.28,0,0,0,1.32.51H205l.51-.51.28-.53V181h7.8v9.38h3.13V175.3h3.91V173H171.12c-.25-.26-1.55-1.82-1.55-1.82l-1.3-1.32a14.19,14.19,0,0,0-3.63-2.86c-.53-.26-1.06-.26-1.57-.52V169a6,6,0,0,1,1.57,1c2.06,1.58,2.85,2.62,3.36,2.88Zm-1.8,0h-3.39v-.26l-.79-.53-.26-1-.26-.53v-.53a3.94,3.94,0,0,1,.77-1,2.06,2.06,0,0,1,1.83-.77,3.5,3.5,0,0,1,2.1.77v-2.6a5,5,0,0,0-2.1-.27,5.86,5.86,0,0,0-5.46,2.87,2.84,2.84,0,0,0-.52,1.84v.78l.52.77.26.53H134.41v2.34h23.44v3.12H146.13l1,.79.51.51L149,181c.25.25.75,1,1.28,1.56,0,.52.28,1,.28,1.57a2,2,0,0,1-.54,1.3,2.31,2.31,0,0,1-1.82.79,6.44,6.44,0,0,1-4.43-2.09,18.78,18.78,0,0,1-2.86-3.91l-.79-1.83v-1.3L137,178.69l.26,1.3,1,1.57a20.68,20.68,0,0,0,3.4,4.43,10.38,10.38,0,0,0,6.24,2.32,7.74,7.74,0,0,0,2.34-.24,5.06,5.06,0,0,0,3.13-2.34,3.27,3.27,0,0,0,.27-1.57v-1l-.53-1.31s-.77-1-1-1.29h5.73v9.9h3.38V175.3h1.84Z"/><path class="cls-2" d="M109.67,175.3h-5V173h11.72v2.34H113v15.11h-3.37v-4.68a10.14,10.14,0,0,1-5,1.29h0v-2.35a11.11,11.11,0,0,0,2.87-.51,5.67,5.67,0,0,0,1.3-.79l.79-.78Zm-5,0h-1.56l.26.25.78,1.31.26,1.3h0c0,1.56-1,2.87-2.87,3.64l-1.29.27a2.58,2.58,0,0,1-.79.28v.24h.26c.79,1.57,2.35,2.08,4.43,2.08h.52V187a13.55,13.55,0,0,1-6.25-1.82,5.27,5.27,0,0,1-3.12-4.69V180l1,.26h1c1,0,2.09,0,2.61-.53a1.41,1.41,0,0,0,1-1.56c0-.52-.26-1-1-2.09a11.57,11.57,0,0,1-1-.77H89.09v15.11H85.7V175.3H80.22V173h4.69a19.25,19.25,0,0,0-3.12-2.88,5.84,5.84,0,0,0-1.57-1v-2.6c.52.26,1,.26,1.31.52a16.07,16.07,0,0,1,3.91,2.86l1.29,1.32S88,172.7,88.29,173h16.42Zm-24.49-8.86V169a4.12,4.12,0,0,0-2.08-.77,2.57,2.57,0,0,0-2.08.77,1.41,1.41,0,0,0-.53,1v1.06l.53,1,.53.53.25.26h3.38v2.34H78.14v15.11H75V179.72H67a3.29,3.29,0,0,0-1.58.27c-.5,0-.76.26-1,.78a.86.86,0,0,1-.27.51,6.77,6.77,0,0,0,1.83,4.18c1.3,1.3,2.36,2.35,3.39,2.61l.52.24,1.29.27-2.59,1.83h-.25l-.79-.26-1.3-1.05-1.83-1.29s-.78-.79-.78-1.05l-.78-.77a7.55,7.55,0,0,1-2.09-4.71A3.67,3.67,0,0,1,62,178.69a2.24,2.24,0,0,1,1.58-.79,4.85,4.85,0,0,1,1.81-.53H75V175.3H55.48V179c0,1.56-1.3,2.85-3.64,3.4a4.84,4.84,0,0,1-1.83.24H49.5l2.34,2.34,1.3,1.06,2.34,1.82,1.56,1-2.34,1.56h-.26a9.37,9.37,0,0,1-2.6-1.83,60.73,60.73,0,0,1-4.7-4.16l-1.29-1.56-1.31-1.58-1-1-1.3-1.56,2.86-1.57,2.08,2.6c.26.53,1,.79,2.09.79a3.36,3.36,0,0,0,2.08-.52,1.38,1.38,0,0,0,.78-1V175.3H37v15.11H33.61V175.3H25.8v15.11H22.4v-8.06H16.15v3.11l-.79.27h-.51a2.27,2.27,0,0,1-1.3-.27,7.22,7.22,0,0,1-2.08-1.56l-1.84-1.31c-.5-.52-.77-.79-.77-1v-.28l.27-.51.5-.26.52-.26h2.62v-4.18a.83.83,0,0,0-.26-.52,2,2,0,0,0-1.31-.25h-.78l-.53.25-.51.52v.53a.92.92,0,0,0,.25.52h0c0,.25.79,1,.79,1H7l-.54-.52h0v-.27l-.25-.51v-.26a2.78,2.78,0,0,1,1.56-2.86A7.24,7.24,0,0,1,11.2,173c2.35,0,3.91.78,4.68,1.82a3.17,3.17,0,0,1,.27,1.55v3.92H22.4V175.3H18V173h55l-.53-.53-.26-.77v-.78c-.25-.53,0-1.06.26-1.84,1-1.81,2.86-2.87,5.73-2.87A6.24,6.24,0,0,1,80.22,166.44Z"/><path class="cls-2" d="M282.88,182.35V180h3.65V175.3h-3.65V173H304.5v2.34h-4.69v15.11h-3.13V175.3h-6.76v15.11h-3.39v-8.06Zm0-9.39v2.34h-3.63V180h3.63v2.36h-3.63v2.07h0v.25a.9.9,0,0,0-.27.53h-.53l-.78.26a3.13,3.13,0,0,1-2.08-1l-2.34-1.83c-.26-.52-.53-.79-.53-1.31h0v-.51h0l.27-.26.51-.26.27-.26h2.07V175.3h-9.11v15.11h-3.38V175.3h-5.47V173h4.94c-.51-.26-1.29-1.3-3.38-2.88a5.65,5.65,0,0,0-1.56-1v-2.6c.52.26,1,.26,1.56.52a10.76,10.76,0,0,1,3.65,2.86l1.56,1.32s1,1.56,1.3,1.82h16.93Zm-35.17,9.63c1.31.78,2.61,1.31,3.13,1.57v.26a11.66,11.66,0,0,0-1.3.25.91.91,0,0,1-.52.26h-.52a1,1,0,0,1-.79-.26V187h2.09l1.3-.26,1.3-.51a.26.26,0,0,0,.27-.26v4.42h3.39V175.3h1.82V173h-3.39v-.26l-.53-.53-.51-1-.26-.53v-.53a3.73,3.73,0,0,1,.77-1,2.37,2.37,0,0,1,1.83-.77,3.49,3.49,0,0,1,2.09.77v-2.6a5,5,0,0,0-2.09-.27,5.89,5.89,0,0,0-5.47,2.87,6.62,6.62,0,0,0-.52,1.84l.26.78.26.77.26.53h-2.87v2.34h5v7.29h0c-.52-.24-3.13-1.56-5-2.34v2.34Zm0-3.12v-2.35h2.61l.26.25h.52l.78,3.14-1-1h-.78l-1-.26h-1Zm-3.12,1.81V181c.26.25,1.58.77,3.12,1.56v-2.34a4.38,4.38,0,0,0-1.3-.53,2.58,2.58,0,0,0,.78-.25h.52v-2.35a7.57,7.57,0,0,0-2.34.25,5.37,5.37,0,0,0-2.08,1c-1.57,1.05-2.34,2.09-2.34,3.65a3.53,3.53,0,0,0,.77,2.09,4,4,0,0,0,1.83,1.57,7.31,7.31,0,0,0,4.16,1.29v-2.35h-.77a5.17,5.17,0,0,1-1.3-.77c-.79-.53-1.32-1-1.32-1.55v-.55a1,1,0,0,1,.27-.52Zm3.12-8.32v2.34h-9.63V173Z"/><path class="cls-2" d="M397,175.3V180h-3.64v2.36H397v8.06h3.39V175.3h3.39V173H393.33v2.34ZM393.33,180h-3.65V175.3h3.65V173H349.57l-1-.79-1.31-1-3.38-1.84c-1-.5-2.09-1-3.39-1.56a24.11,24.11,0,0,0-3.9-1.3v2.36a14,14,0,0,1,2.07.77l2.87,1.31,1.05.51,1.56,1,.77.53h-8.32v2.34h12.76v3.39H336.55v3.66c.25.24.51.24.51.51l1.83,1.3a4.12,4.12,0,0,0,1.3.51h.52l.51-.51.27-.53.26-.26V181h7.56v9.38h3.38V175.3h10.42v4.17H360l-.53.52h0l-.26.52c0,.52.26.77.79,1.29a6.94,6.94,0,0,0,3.38,2.62,2.6,2.6,0,0,0,1.56.51l.79-.26h0c.51,0,.51-.25.78-.77h0v-8.6h6.25v15.11h3.39V175.3H386.3V180h-2.09l-.26.26-.52.26-.26.26h0l-.26.51h0a3.5,3.5,0,0,0,.78,1.31l2.34,1.83a3.15,3.15,0,0,0,2.08,1l.79-.26h.51a.9.9,0,0,1,.27-.53v-.25h0v-2.07h3.65Zm-56.78-13.55v2.36c-.54,0-.79-.28-1.32-.28a13.76,13.76,0,0,0-2.86-.51c-.53,0-1.3.26-1.55.26a3.73,3.73,0,0,0-2.35,1.55,2.83,2.83,0,0,0-.27,1.32v1.29l.27.53h8.08v2.34H329v15.11h-3.38V175.3h-4.18V173h3.92v-.53l-.26-.77v-1a3.76,3.76,0,0,1,1-2.6,8.77,8.77,0,0,1,3.39-1.84,13.19,13.19,0,0,1,3.13-.25,10.91,10.91,0,0,1,3.91.52Zm0,12.25H336a1.85,1.85,0,0,0-1,1.56h0a1.34,1.34,0,0,0,.78,1,3.71,3.71,0,0,0,.79,1.07Z"/></g></g></svg>