<svg xmlns="http://www.w3.org/2000/svg" viewBox="0 0 283.46 69.61"><defs><style>.cls-1{fill:#231f20;}.cls-2{fill:#777c7f;}.cls-3{fill:#b01f2c;}.cls-4{fill:#18171b;}.cls-5{fill:#18181c;}.cls-6{fill:#6d6e71;}</style></defs><title>MetroPlus</title><g id="Layer_2" data-name="Layer 2"><g id="Layer_1-2" data-name="Layer 1"><path class="cls-1" d="M6,2.67c-.21-1.13-.57-2-2-2H3.73c0,.65,0,1.5,0,2.1V6.55c0,.79.31,1,1.22,1v.12l-1.86,0-1.87,0V7.6c.92-.07,1.21-.26,1.21-1V2.79c0-.6,0-1.33,0-2.1H2.15c-1.59,0-1.8.78-2,2H0C0,2.38,0,1.6,0,1.23S0,.65,0,.39A9,9,0,0,0,1.12.46l1.4,0h1.1L5,.46A9.61,9.61,0,0,0,6.13.39c0,.26,0,.55,0,.84s0,1.15,0,1.44Zm8.54,5.05-1.74,0-1.72,0V7.6c.81-.06,1.07-.16,1.07-1V4.05H8.88v2.5c0,.89.31,1,1.09,1v.12l-1.73,0c-.58,0-1.14,0-1.72,0V7.6c.78-.06,1.07-.16,1.07-1V1.64c0-.9-.28-1-1.07-1V.46c.58,0,1.14,0,1.72,0L10,.46V.59c-.8,0-1.09.16-1.09,1v2.2h1.4l1.88,0V1.64c0-.9-.26-1-1.07-1V.46l1.72,0,1.74,0V.59c-.79,0-1.08.16-1.08,1V6.55c0,.89.3,1,1.08,1Zm6.67-2c-.09.71-.15,1.42-.19,2.12a32.46,32.46,0,0,0-3.55-.11c-.75,0-1.51,0-2.26,0V7.6c.77-.06,1.06-.16,1.06-1V1.64c0-.9-.27-1-1.06-1V.46l2,0A29.2,29.2,0,0,0,20.84.37c0,.29,0,.58,0,.87s0,.84,0,1.27h-.11a3.42,3.42,0,0,0-.32-1C19.93.74,18.82.71,18.06.71H17.6V3.87h.6c.77,0,1.46-.25,1.53-1.19h.12q0,.63,0,1.26c0,.46,0,.92,0,1.4h-.12c-.07-1-.62-1.23-1.48-1.23H17.6V5.87c0,1.41.24,1.6,1.51,1.6s1.66-.58,2-1.79ZM47.09,7.93a8.08,8.08,0,0,1-1.18-.2.74.74,0,0,1-.55.2,3,3,0,0,1-1-.26,2.82,2.82,0,0,0-.6-.13h-.41c-.1.16-.68.26-.85.26a.5.5,0,0,1-.29-.07.47.47,0,0,1-.45.18.79.79,0,0,1-.67-.34c0,.19-.36.23-.51.23a1,1,0,0,1-.29,0c.1,0,.34,0,.34-.17a.24.24,0,0,0,0-.1A.53.53,0,0,1,40,7.28c.1,0,.35,0,.35-.11S40.26,7,40.15,7a1.51,1.51,0,0,0-.56.11.21.21,0,0,1,.13.19.28.28,0,0,1-.07.17.16.16,0,0,0-.19-.19h0l-.14,0c0,.19-.32.25-.48.25a1.08,1.08,0,0,1-.53-.15.3.3,0,0,1-.13,0,.51.51,0,0,1-.26.49A.6.6,0,0,0,38,7.73c0-.2-.23-.26-.41-.26,0,.23-.24.26-.41.26h-.19a.21.21,0,0,0,.24-.22.25.25,0,0,0,0-.17,1.18,1.18,0,0,1-.31,0,.65.65,0,0,1-.29-.07,2.08,2.08,0,0,1,0,.42,1.14,1.14,0,0,0-.85-.36.75.75,0,0,0-.32.06.56.56,0,0,1-.25.32c-.14.08-.34.13-.41.26-.11-.22-.55-.18-.68-.58a.56.56,0,0,0-.3-.06,1.22,1.22,0,0,0-.87.36,2.18,2.18,0,0,1,0-.42.62.62,0,0,1-.31.07h-.15a.09.09,0,0,0-.06.09c0,.08.13.14.21.14h0a.94.94,0,0,1-.27.06.49.49,0,0,1-.25-.06,2.07,2.07,0,0,1-.59.12c-.17,0-.32,0-.49,0a.63.63,0,0,0-.22,0,1.37,1.37,0,0,0-.13.2V7.8a.55.55,0,0,1,.13-.33L31,7.38l-.22,0a.67.67,0,0,0-.37.08.17.17,0,0,1,.07.12.07.07,0,0,1-.07.07,2.05,2.05,0,0,0-.2-.23l-.05.06a1.46,1.46,0,0,0,.16.21.3.3,0,0,1-.13,0,2.58,2.58,0,0,1-.29,0,.63.63,0,0,1-.43.16c-.22,0-.53,0-.68.17a.32.32,0,0,1-.17-.26h-.14a.56.56,0,0,1-.63-.57.59.59,0,0,1,.54-.57.54.54,0,0,1,.5.37.39.39,0,0,0-.26-.1.43.43,0,0,0-.23.07c.08,0,.15.08.15.15s-.22.17-.22.3.23.15.32.15h.11a.45.45,0,0,1,0-.18.27.27,0,0,1,.3-.3h.06a.18.18,0,0,0,0,.11c0,.16.17.23.32.23l.17,0v0s0,0,0-.06h-.1c-.1,0-.19,0-.19-.15A.18.18,0,0,1,29.31,7h0A1.14,1.14,0,0,0,29,6.39c-.23,0-.16-.17-.22-.32a.83.83,0,0,0-.3-.34.17.17,0,0,1-.16-.09H28.2c-.1.19-.57.23-.77.23V6c.13,0,.2.13.22.26a.06.06,0,0,1,.06,0c0,.07-.16.15-.22.16s0,.09-.07.09a.08.08,0,0,1-.09-.09c-.06,0-.21-.09-.21-.16a.08.08,0,0,1,.05,0A.3.3,0,0,1,27.36,6V5.87h-.14c-.06.17-.28.31-.42.43l-.22.17c0,.1.42.41.51.45a.19.19,0,0,1,.1,0,.12.12,0,0,1,.14.13.38.38,0,0,1,0,.1c.14,0,.46.27.46.42a.05.05,0,0,1,0,0c-.09,0-.17-.17-.27-.17l0,0a3.16,3.16,0,0,0,.27.2l-.3,0a.73.73,0,0,1-.29,0,1.23,1.23,0,0,0-.55-.1h-.06a1.21,1.21,0,0,0-.67.21.28.28,0,0,1,0-.13.17.17,0,0,1,.08-.17.22.22,0,0,0-.11,0,.23.23,0,0,0-.15,0s.09.08.09.14a.16.16,0,0,1-.17.15.25.25,0,0,1-.25-.25.23.23,0,0,1,.26-.23h0a1.27,1.27,0,0,1-.07-.38,1.09,1.09,0,0,0,.84.44.3.3,0,0,0,.15,0s.06,0,.06-.07A.31.31,0,0,0,26.52,7a1.36,1.36,0,0,0-.69-.41c-.07,0-.17,0-.17-.11v0a.64.64,0,0,1,.13-.26c-.06,0-.09-.15-.1-.2s0,.23-.12.23-.13-.16-.14-.25h0s0,.24-.14.24-.1-.2-.1-.27H25c-.3.1-.36.29-.36.6v.19h.09a.12.12,0,0,1,.11.13.26.26,0,0,1,0,.11A.15.15,0,0,1,25,7l.33.46h-.07c-.17,0-.23-.26-.29-.26s0,.06,0,.06a1,1,0,0,0,.15.23H25a1,1,0,0,1-.44-.07.27.27,0,0,1,.06.1,2.72,2.72,0,0,0-.42,0,2.22,2.22,0,0,0-.85.27c.13-.12.31-.25.42-.36l-.13,0a2.84,2.84,0,0,0-.68.21,2.22,2.22,0,0,1,.21-.27,2.75,2.75,0,0,0-.84.22,1.89,1.89,0,0,1,1.27-.51,1.53,1.53,0,0,1,.75.2.09.09,0,0,1,0-.1.11.11,0,0,1-.1-.11.22.22,0,0,1,0-.09s0-.06,0-.06h0c-.1,0-.21,0-.21-.13s.33-.65.33-.91c0-.07-.1-.12-.1-.2,0-.23.43-.15.43-.59a.57.57,0,0,0-.09-.32.82.82,0,0,1-.49.62c-.3.13-.73,0-.93.17,0,0,0,0,0,.06,0,.23.29.38.29.61s-.62.23-.62.49c0,.08.09.17.14.21-.13-.06-.34-.21-.34-.39s.33-.31.33-.46-.15-.16-.15-.36.32-.43.57-.46A1.46,1.46,0,0,0,24,5.15a.75.75,0,0,0,.31-.53,3.47,3.47,0,0,1,.31-.71,2.36,2.36,0,0,1-.67.09,1.6,1.6,0,0,1-1.58-.9.55.55,0,0,1,0-.17s0-.07,0-.09,0,0,0-.08a.08.08,0,0,1,0-.08.89.89,0,0,1,0-.14.17.17,0,0,1,.11-.15v-.1a.23.23,0,0,1,.24-.24,1,1,0,0,1,.17,0,.16.16,0,0,1,.12,0,.24.24,0,0,1,.17.07.26.26,0,0,1,.23.06h0c.09,0,.16.17.19.23a1.94,1.94,0,0,0,.78.94s-.06,0-.07,0-.08,0-.08,0v0s-.05,0-.05.07v0a.1.1,0,0,0-.06.09l0,0a.09.09,0,0,0,0,.07s0,.08,0,.09a.09.09,0,0,0,.09.1s0,0,0,0v0a.1.1,0,0,1-.05-.08s0-.06,0-.06a.08.08,0,0,1,0-.08.07.07,0,0,1,0-.07.09.09,0,0,1,.06-.13.08.08,0,0,1,.09-.08l0,0a.67.67,0,0,0,.31.1l0,0s0,.07,0,.1,0,.15.1.15l0,0a.26.26,0,0,1-.07-.15.13.13,0,0,1,0-.07,3.05,3.05,0,0,1,.52-.05,1.41,1.41,0,0,1,.45.07V3.39c-.12,0-.42,0-.42-.17v0c-.19,0-.46-.09-.46-.33a.39.39,0,0,1,0-.18.47.47,0,0,1-.51-.5.44.44,0,0,1,0-.17c-.17,0-.52-.09-.52-.34A.44.44,0,0,1,24,1.44c.83.39,1.7.72,2.53,1.09l.38.15c-.06,0-.07-.08-.07-.15a.34.34,0,0,1-.31-.11.18.18,0,0,1,0-.1c-.18,0-.37,0-.37-.24V2c-.15,0-.34-.11-.34-.31a1.29,1.29,0,0,1,0-.19c-.16,0-.37-.16-.37-.35a.46.46,0,0,1,.15-.29c.29.19.61.38.91.55a5.2,5.2,0,0,0,1,.49,3,3,0,0,1,1.13.58h0s0-.09.07-.13a.86.86,0,0,1-.23-.06.75.75,0,0,0,.06-.13.23.23,0,0,1-.17-.11A.25.25,0,0,1,28.59,2s0,0,0-.06a.34.34,0,0,1,.2-.09s.09,0,.1.05A.9.9,0,0,1,29.18,1a.49.49,0,0,1,.3-.43.27.27,0,0,0,0,.16.16.16,0,0,0,0,.09.86.86,0,0,1,.36-.07.83.83,0,0,1,.34.07.91.91,0,0,0,0-.21s0,0,0-.05c.22,0,.25.21.25.39a.15.15,0,0,1,.07.11v.06a.33.33,0,0,1,.09.24,1,1,0,0,0,0,.34,1.86,1.86,0,0,1,.19.31c0,.08-.12.06-.12.15h0s0,0,0,.06,0,0,0,0,0,.16-.12.18a.39.39,0,0,1,.05.14c0,.18-.34.15-.42.16L30,3a.79.79,0,0,1,.35.63.63.63,0,0,1-.09.33.27.27,0,0,1,.13.25.29.29,0,0,1,.08.14.22.22,0,0,1-.05.12.48.48,0,0,1,.09.26.32.32,0,0,1-.19.27L30.27,5a3.93,3.93,0,0,0,.55.09c.15,0,.33.06.33.25s-.28.44-.28.59h0a.22.22,0,0,1,.1.18.15.15,0,0,1-.15.15s0,0,0,0h-.07a.16.16,0,0,1-.07.07.52.52,0,0,1-.34.4,1.12,1.12,0,0,0,.08-.26.73.73,0,0,1-.31.24A.67.67,0,0,1,30,6.49a.39.39,0,0,1,.19-.32s-.07,0-.07-.1.09-.08.14-.08,0,0,0,0a.18.18,0,0,1,.14-.16h0a.79.79,0,0,0,.15-.12v0c-.35,0-.62.23-.95.23h-.16c0,.13.16.2.16.36a.13.13,0,0,1,0,.1,4.85,4.85,0,0,0,.21.45c.11,0,.25,0,.25.13A.32.32,0,0,1,30,7a.47.47,0,0,1,.19.11,2,2,0,0,1,.37-.08.64.64,0,0,1,.28.07.16.16,0,0,1,0-.1.61.61,0,0,1,0-.13.67.67,0,0,1,.12-.16.37.37,0,0,1,.37-.39h.15a.56.56,0,0,0-.23.42c0,.29.36.41.59.41a.9.9,0,0,0,.34-.09,2.49,2.49,0,0,1,.08-.32.74.74,0,0,0-.39-.16.22.22,0,0,0-.16,0A.72.72,0,0,1,32,6.13a1.53,1.53,0,0,0-.7-.16c-.12,0-.22,0-.33,0a1,1,0,0,1,.73-.26,2,2,0,0,1,.36,0l-.23-.3a.14.14,0,0,1-.1-.08.83.83,0,0,0-.56-.25.85.85,0,0,1,.31-.09,1.46,1.46,0,0,1,.22,0,1,1,0,0,0-.47-.37.5.5,0,0,1,.21,0,.6.6,0,0,1,.35.1,2.19,2.19,0,0,0-.61-.95.75.75,0,0,1,.65.36A7,7,0,0,0,31.17,3c.53.14.86.69,1.1,1.17A5.45,5.45,0,0,0,31.2,2.32a2.05,2.05,0,0,1,1.18,1.06V2.61a.28.28,0,0,1-.13,0,.31.31,0,0,1-.32-.33A.44.44,0,0,1,32.08,2c.17-.17.31-.37.5-.53a.25.25,0,0,1,.13-.06.42.42,0,0,1,.28.14,1.27,1.27,0,0,0,.52.29l0,0a1.35,1.35,0,0,1,1.18-.72,1.14,1.14,0,0,1,.41.07,1.46,1.46,0,0,1,.76.69,1.41,1.41,0,0,1,.22-.06,1.91,1.91,0,0,0,.52-.29.38.38,0,0,1,.26-.14.25.25,0,0,1,.15.06,6,6,0,0,1,.49.53.44.44,0,0,1,.15.32.31.31,0,0,1-.32.33.32.32,0,0,1-.14,0v.77a2.15,2.15,0,0,1,1.18-1.06,5.76,5.76,0,0,0-1,1.81A1.89,1.89,0,0,1,38.45,3a7.72,7.72,0,0,0-.7,1.22.89.89,0,0,1,.59-.36h.07a2.39,2.39,0,0,0-.61.95.62.62,0,0,1,.35-.1.54.54,0,0,1,.22,0,.82.82,0,0,0-.46.37.94.94,0,0,1,.2,0,.8.8,0,0,1,.31.09h-.11a1.24,1.24,0,0,0-.45.25s0,.07-.1.08l-.23.3a2.09,2.09,0,0,1,.35,0A1,1,0,0,1,38.6,6h-.36a1.31,1.31,0,0,0-.7.16.52.52,0,0,1,.25.41.22.22,0,0,1,0,.11.2.2,0,0,0-.15,0,.71.71,0,0,0-.39.16.94.94,0,0,1,.07.34v0a.46.46,0,0,0,.26.06c.3,0,.46-.26.53-.52a.85.85,0,0,1,.15.44v0A1.51,1.51,0,0,0,38.5,7a.91.91,0,0,0,.27-.7c0-.07,0-.12,0-.17a1.23,1.23,0,0,1,.28.43.54.54,0,0,0,.26-.21.16.16,0,0,1,0,.1,1.23,1.23,0,0,1-.1.42.21.21,0,0,1,.14.2h0l.07,0a1.15,1.15,0,0,1,.75-.28l.12,0c-.13,0-.48-.16-.48-.33s.13-.19.22-.22a.38.38,0,0,1,0-.1c0-.09.07-.13.14-.15l0,0c.13-.8,1.18-.8,1.33-1.32a.14.14,0,0,1-.11-.14.33.33,0,0,1,0-.16s0-.06,0-.1l0-.09s-.05,0-.05-.08A.19.19,0,0,1,41.42,4a.16.16,0,0,1,0-.12v0a1,1,0,0,1-.34.06c-.16,0-.31-.05-.47-.05s-.52.36-.57.36,0,0,0-.07,0-.13,0-.17a1.31,1.31,0,0,0-.52.89c0,.12,0,.23.17.23a.71.71,0,0,0,.38-.2c0-.09,0-.32.14-.32s.16.23.17.31h.07c.08,0,.23,0,.23.1s-.3.24-.43.31a.77.77,0,0,1-.63.37l-.15,0c-.5-.11-.65-.58-.65-1A2.39,2.39,0,0,1,39,3.78c-.09,0-.34-.16-.34-.28s.05-.07.09-.07.25.09.36.09A1.56,1.56,0,0,1,39.23,3s-.14,0-.14-.09.17-.26.24-.31a1.71,1.71,0,0,1,.1-.49c.15-.38.44-.5.65-.81a.83.83,0,0,1,.65-.44.9.9,0,0,1,.46.11A.65.65,0,0,1,41.5.92a.78.78,0,0,1,.65.42,1,1,0,0,1,.4.15,9.67,9.67,0,0,1,1.2.08A4.66,4.66,0,0,1,46.63,3a3.36,3.36,0,0,1,.61,1.5c0,.13,0,.24,0,.37a1.74,1.74,0,0,0,0,.51c.09.18.25.26.25.49a.71.71,0,0,1-.32.53l0,0a.36.36,0,0,0,.07-.18c0-.26-.3-.45-.3-.85,0-.22.06-.41.06-.62a1.28,1.28,0,0,0-.19-.7.92.92,0,0,1,0,.16,2.06,2.06,0,0,1,0,.42L46.7,5a4.43,4.43,0,0,0-.33.86c0,.25.27.51.41.72a1.65,1.65,0,0,1,.18.41A.24.24,0,0,1,47,7h0a.26.26,0,0,1,.14.18s0,0,0,.06a.33.33,0,0,1,.09.2c0,.2-.32.23-.46.23a1.18,1.18,0,0,0,.27,0c.22,0,.41-.1.41-.35s-.18-.29-.33-.33h.2a1,1,0,0,1,.3,0,.31.31,0,0,0-.22-.3c.31,0,.55.18.55.51S47.48,7.93,47.09,7.93ZM22.47,2.47a.12.12,0,0,0-.13.13.12.12,0,0,0,.13.1.12.12,0,1,0,0-.23Zm0,.24a.11.11,0,0,0-.09.09.11.11,0,0,0,.07.09.09.09,0,0,0,.09-.1S22.47,2.71,22.43,2.71Zm0,.19a.07.07,0,0,0-.05,0c0,.05,0,.08.06.08A.06.06,0,0,0,22.46,3,.07.07,0,0,0,22.39,2.9Zm.08.2s0,.06,0,.09c0,.19.31.31.47.33a.24.24,0,0,1,0-.16C22.82,3.33,22.51,3.1,22.47,3.1Zm.17-1a.18.18,0,0,0-.17.17.18.18,0,0,0,.17.18.18.18,0,0,0,.18-.18A.17.17,0,0,0,22.64,2.15Zm-.05.62c-.06,0-.12.16-.12.19s.36.3.48.36a.22.22,0,0,1,.1-.09A5,5,0,0,0,22.59,2.77Zm1,4.4a2,2,0,0,0-1,.3,2.2,2.2,0,0,1,.71-.11l-.17.2a1.86,1.86,0,0,1,.67-.18h.14l-.24.21a1.73,1.73,0,0,1,.48-.13.86.86,0,0,1,.39.06A1.42,1.42,0,0,0,23.57,7.17Zm-.78-4.66a.15.15,0,0,0-.15.16c0,.17.32.37.47.47A.12.12,0,0,1,23.24,3C23.16,2.93,22.9,2.51,22.79,2.51ZM27,5.66a.34.34,0,0,1,0-.14.79.79,0,0,1-.47-.24A4.85,4.85,0,0,1,26,4.18h-.1c.06,0,.1.06.1.1a.1.1,0,0,1-.1.09c-.06,0-.1,0-.1-.09a.15.15,0,0,1,.06-.1l-.28.09a.12.12,0,0,1,.13.12.11.11,0,0,1-.11.11.11.11,0,0,1-.1-.11s0-.09.05-.11a1.42,1.42,0,0,1-.57.15.46.46,0,0,1-.48-.32c-.14.36-.19.85-.5,1.08s-.45.09-.68.13-.52.19-.52.46.14.18.14.32-.11.15-.19.22c.09-.06.25-.09.25-.22s-.11-.19-.11-.32a.2.2,0,0,1,.1-.15.18.18,0,0,0-.05.11c0,.15.21.26.21.48,0,0,0,.07,0,.08a.14.14,0,0,0,.13-.15.13.13,0,0,0,0-.06.13.13,0,0,1,.05.11c0,.29-.44.13-.53.42.13-.16.58-.09.58-.37s-.28-.38-.28-.61v0a.41.41,0,0,0-.07.15.29.29,0,0,1,.23-.29,1.37,1.37,0,0,1,.29,0c.65,0,.91-.26,1-.92a.77.77,0,0,1,0,.26.54.54,0,0,1,.12.36c0,.4-.4.4-.4.55s.1.1.1.2c0,.27-.34.79-.34.91s.06.07.11.07.13,0,.14.09.36-.09.39-.22h0a.57.57,0,0,1,0-.22.77.77,0,0,1-.21,0,.3.3,0,0,0,.21,0v0H24.4a.63.63,0,0,0,.22-.08v0h-.19a.47.47,0,0,0,.21-.07A.33.33,0,0,1,24.76,6a1.08,1.08,0,0,1,.29-.13A1.36,1.36,0,0,0,26,5a.61.61,0,0,0-.05.18.18.18,0,0,0,.16-.1.24.24,0,0,1-.19.17l0,0h0a.25.25,0,0,0,.15-.06.24.24,0,0,1-.19.12h0a1.41,1.41,0,0,1-.76.53h.13c0,.05,0,.27.07.27s0-.23.14-.23.05.26.16.26,0-.32.12-.32,0,.26.13.26,0-.3.11-.3,0,.2.15.2,0-.09,0-.13a.38.38,0,0,0,0-.1s.08-.06.11-.07a.38.38,0,0,0,.22-.23.24.24,0,0,0,.08.16,2,2,0,0,0,.47.12A.25.25,0,0,1,27,5.66Zm-4-3.52a.11.11,0,0,0-.11.11.12.12,0,0,0,.11.12.12.12,0,0,0,.13-.12A.12.12,0,0,0,22.93,2.14Zm.35.37a.33.33,0,0,0-.2-.12c-.06,0-.1,0-.1.12s.17.33.28.43.11-.1.16-.1S23.38,2.6,23.28,2.51Zm.36.3a.13.13,0,0,0-.14.1.2.2,0,0,0-.24.16.19.19,0,0,0-.17.19s0,0,0,0a.16.16,0,0,0-.13.17.2.2,0,0,0,0,.15s0,.05,0,.08.08.09.14.12,0-.07,0-.1a.17.17,0,0,1-.06-.12c0-.07.07-.1.13-.11s.15-.26.15-.26,0-.19.15-.19h.05s.06-.1.11-.1a.08.08,0,0,1,.07,0,.15.15,0,0,1,.09,0A.31.31,0,0,0,23.64,2.81Zm-.46-.63a.1.1,0,0,0-.09.09.09.09,0,0,0,.09.08.08.08,0,0,0,.08-.08A.09.09,0,0,0,23.18,2.18Zm.88,1.73s0-.06,0-.07l-.23-.06c-.11,0-.5-.25-.54-.25s-.06.06-.06.09c0,.23.63.29.79.29Zm-.72-1.64s-.06,0-.06,0a.06.06,0,0,0,.06.06.06.06,0,0,0,.05-.06S23.37,2.27,23.34,2.27ZM24,3.68a1.27,1.27,0,0,1-.31-.15,1.45,1.45,0,0,1-.35-.25s-.07.12-.07.15.61.33.73.33A.11.11,0,0,1,24,3.68Zm-.62-1.26s0,.06,0,.09a.48.48,0,0,0,.17.3.14.14,0,0,1,.12,0h.06C23.64,2.68,23.54,2.42,23.39,2.42Zm.44.94c-.12-.08-.15-.19-.23-.26a.11.11,0,0,0-.18.09c0,.16.47.4.61.42a.12.12,0,0,1,0-.09A1.67,1.67,0,0,1,23.83,3.36Zm0-.36c-.06,0-.13,0-.13.06s.29.36.45.37c0,0,0-.08.05-.08Zm2.69-.14,0,0a.47.47,0,0,1,0-.16v0c-.86-.34-1.7-.73-2.53-1.11a.35.35,0,0,0,0,.13c0,.32.77.35,1,.38H24.5a.71.71,0,0,0,.52.23.82.82,0,0,0,.28-.05.54.54,0,0,1-.35.08h0a.5.5,0,0,0,.47.2,1.24,1.24,0,0,0,.31-.05.86.86,0,0,1-.35.09.49.49,0,0,0,.39.22.7.7,0,0,0,.33-.08,1,1,0,0,1-.24.11.36.36,0,0,0,.3.11,1.35,1.35,0,0,0,.35-.06.77.77,0,0,1-.29.1.39.39,0,0,0,.31.12h.15A.73.73,0,0,1,26.52,2.86Zm-1.86.8a.9.9,0,0,1-.24,0,.32.32,0,0,1-.17,0,0,0,0,0,0,0,0c0,.07,0,.09.08.09a1.05,1.05,0,0,0,.38-.09A0,0,0,0,1,24.66,3.66Zm-.24-.1a.66.66,0,0,0-.15,0s0,0,0,.06.19.08.23.08.19,0,.2-.07A.63.63,0,0,1,24.42,3.56Zm.3,3.18h-.07c0,.16-.25.25-.39.26a.17.17,0,0,0,0,.07s0,.06.07.06.49-.19.49-.33S24.76,6.74,24.72,6.74Zm0-3c-.07,0-.43.09-.43.13s.06,0,.09,0a.55.55,0,0,0,.36-.16Zm0-.26a2.31,2.31,0,0,1-.28,0s-.05,0-.06,0,.14.1.18.1.15,0,.16-.06ZM24.79,7a.79.79,0,0,1-.47.24v0a.08.08,0,0,0,0,0h.05c.11,0,.47-.17.47-.27A.09.09,0,0,0,24.79,7Zm.05-4.7A.68.68,0,0,1,24.43,2a.23.23,0,0,0,0,.07A.5.5,0,0,0,25,2.6a.42.42,0,0,0,.29-.09A.5.5,0,0,1,24.84,2.27ZM25.89,4c-.32,0-.65.23-1,.23A.33.33,0,0,1,24.56,4a1.33,1.33,0,0,1-.06.12.5.5,0,0,0,.44.29c.33,0,.63-.25,1-.25H26A1.3,1.3,0,0,1,25.89,4ZM28,4.85a1.26,1.26,0,0,1-.8.49.88.88,0,0,1-.65-.43c-.15-.25-.21-.52-.34-.77s-.13-.24-.2-.38a.14.14,0,0,1-.13-.14v0a.16.16,0,0,1-.1-.11.45.45,0,0,0-.16,0,1.22,1.22,0,0,0-.38.07,1.5,1.5,0,0,0-.6.38s0,0-.05.07a.37.37,0,0,0,.36.21c.32,0,.61-.2.93-.2h0a.63.63,0,0,0-.12-.11c.17,0,.31.33.38.47a6.08,6.08,0,0,0,.39.81.82.82,0,0,0,.65.33.94.94,0,0,0,.51-.14A2.35,2.35,0,0,0,28.05,5,.19.19,0,0,1,28,4.85Zm-3.13.31a.3.3,0,0,1-.19.24.68.68,0,0,0,.14-.25Zm0-.5a.12.12,0,0,1-.11-.13.1.1,0,0,1,.11-.1c.06,0,.13,0,.13.1A.14.14,0,0,1,24.85,4.66Zm0,.58h0a.36.36,0,0,1-.19.15c.06,0,.13-.11.13-.15Zm-.12-1.32a.67.67,0,0,1,.53-.3.3.3,0,0,1,.19,0A.89.89,0,0,0,24.78,3.92Zm0,.52a.06.06,0,0,0,0,.12.06.06,0,0,0,0-.12Zm.46-1.51A.36.36,0,0,1,25,2.74a.53.53,0,0,0,0,.12c0,.24.24.3.41.33,0-.06.06-.1.08-.15A.35.35,0,0,1,25.28,2.93ZM25,4c0-.12.23-.22.36-.22a.51.51,0,0,1,.17,0C25.33,3.78,25.08,3.79,25,4Zm1.7-1a.66.66,0,0,1-.15,0h-.07a.41.41,0,0,1-.34-.16c-.12,0-.28,0-.34-.14a.57.57,0,0,1-.49-.26.42.42,0,0,1-.28.17.24.24,0,0,0,.24.19,1.2,1.2,0,0,0,.33-.06l-.16.09a.34.34,0,0,0,.31.14A.6.6,0,0,0,26,3a.71.71,0,0,1-.18.08A.21.21,0,0,0,26,3.2a.76.76,0,0,0,.34-.06l-.21.08a.3.3,0,0,0,.28.11h.17c0-.09.15-.16.15-.22S26.68,3,26.67,3ZM25.24,4.63c-.08,0-.13,0-.13-.1a.12.12,0,0,1,.13-.13.12.12,0,0,1,.12.13A.11.11,0,0,1,25.24,4.63Zm0-.2s0,0,0,0,0,.06,0,.06a.05.05,0,0,0,.06-.06S25.24,4.43,25.2,4.43Zm.91-1.18H26a.29.29,0,0,1-.26-.16h-.26a.27.27,0,0,0-.07.14c0,.12.23.12.29.12a1.43,1.43,0,0,0,.42-.09ZM25.64,7.3c-.13,0-.24.07-.24.2a.16.16,0,0,0,.16.16.08.08,0,0,0,.08-.07s0,0-.05-.06l-.1,0a.38.38,0,0,1,.26-.17A.23.23,0,0,0,25.64,7.3Zm-.07-3s-.06,0-.06.06a.06.06,0,0,0,.06,0s0,0,0,0S25.59,4.3,25.57,4.3Zm1.7-2.38-.75-.38A6.09,6.09,0,0,1,25.63,1a.22.22,0,0,0-.09.16c0,.25.41.32.58.32h.2a.75.75,0,0,1-.31.05h-.09a.25.25,0,0,0,.24.19.91.91,0,0,0,.36-.09l.06,0-.06,0a1.14,1.14,0,0,1-.36.1h0v0c0,.07.09.08.15.08a.73.73,0,0,0,.25,0,1.89,1.89,0,0,1,.18-.06l-.18.09-.08,0a.25.25,0,0,0,.08.17.21.21,0,0,0,.13,0A1.73,1.73,0,0,0,27.17,2a1.78,1.78,0,0,1-.41.17c0,.09.1.12.17.12a1.56,1.56,0,0,0,.55-.15,3.26,3.26,0,0,1-.38.18c0,.08.15.07.22.07a.93.93,0,0,0,.43-.19,1,1,0,0,1-.32.22.34.34,0,0,0,.25.13.84.84,0,0,0,.45-.18.74.74,0,0,1-.51.23h-.06a.49.49,0,0,1-.23-.13h-.17a.93.93,0,0,1-.26.1.17.17,0,0,0,.19.17,1.11,1.11,0,0,0,.47-.14.88.88,0,0,1-.23.14.16.16,0,0,0,.15.06.5.5,0,0,0,.27-.11h.13a.47.47,0,0,0,.46-.22c-.1.23-.31.26-.55.26h0a.14.14,0,0,1-.07.06.12.12,0,0,0,.13.13c.11,0,.45-.06.49-.19l.14,0a.3.3,0,0,1,.15-.12C28.38,2.25,27.61,2.05,27.27,1.92Zm.09,5.26-.1,0a.39.39,0,0,1-.3.2.09.09,0,0,1-.1-.1v0s-.06,0-.1,0-.05,0-.08,0-.07,0-.08-.09a.28.28,0,0,1-.08.12.48.48,0,0,1-.18,0,1.32,1.32,0,0,1-.7-.27s0,.08,0,.14a.92.92,0,0,1,.35.14.29.29,0,0,0-.11.18v0a1.21,1.21,0,0,1,.58-.16h0a1.63,1.63,0,0,1,.57.13A.26.26,0,0,1,27,7.41a.09.09,0,0,0,.07.06c.08,0,.31-.26.31-.26S27.38,7.18,27.36,7.18Zm-.27-.26-.23-.08a.52.52,0,0,0-.1.11.28.28,0,0,1,.07-.16h0a.48.48,0,0,1-.1.12.28.28,0,0,1,.06-.16l0,0a.34.34,0,0,0-.1.13.31.31,0,0,1,.06-.16l-.1-.1h-.06a.24.24,0,0,1-.16,0h.19s0,0,0,0v0a.37.37,0,0,1-.16,0h.17l.15-.13A2.94,2.94,0,0,0,27.09,6c0-.13-.15-.13-.26-.16a2.82,2.82,0,0,0-.31-.07.41.41,0,0,0-.15,0h-.06l-.15.1c0,.08,0,.28-.1.28s-.08-.16-.13-.22h0c0,.1,0,.32-.12.32a2.58,2.58,0,0,0-.08.26c0,.08.2.08.27.11a1.88,1.88,0,0,1,.53.35c.13.13.1.22.15.36h0s.05-.06.06-.07a.34.34,0,0,0,.12,0c.11,0,.23-.2.23-.29ZM25.9,6.26a.28.28,0,0,1-.15.19.58.58,0,0,0,.1-.19Zm0-2s0,0,0,0a0,0,0,1,0,.08,0S25.89,4.21,25.86,4.21Zm.81-.63a.71.71,0,0,1,0-.15.3.3,0,0,1-.07-.1l-.09,0h-.2a.22.22,0,0,1-.2-.09l-.27.1s0,.06,0,.09.09.08.16.08a1.6,1.6,0,0,0,.29,0h0l0,0c0,.12.17.15.25.15h.16A.41.41,0,0,1,26.67,3.58Zm-.32-1.66h-.13c-.11,0-.2-.05-.2-.17h0a.46.46,0,0,1-.15-.16.45.45,0,0,0,0,.08c0,.25.36.32.53.35A.38.38,0,0,1,26.35,1.92Zm-.11,1.66a.22.22,0,0,1,0-.06,1.28,1.28,0,0,1-.32.09h0v0a.12.12,0,0,0,.13.12.77.77,0,0,0,.26-.07S26.24,3.62,26.24,3.58ZM28,4.77h0a.19.19,0,0,1-.11-.16.56.56,0,0,1,0-.07.18.18,0,0,1-.17-.19.17.17,0,0,1,0-.1c-.12,0-.26-.16-.26-.26a.33.33,0,0,1,.07-.16l0,0c-.09,0-.19-.09-.19-.19a.23.23,0,0,1,0-.14.24.24,0,0,1-.07-.19.53.53,0,0,1,0-.12A.16.16,0,0,1,27.2,3a.16.16,0,0,1,0-.1l-.62-.25a.24.24,0,0,0,0,.12c0,.16.2.25.2.33s-.15.13-.15.23.08.1.12.13a.17.17,0,0,0,0,.13c0,.13.13.17.23.17l0,0a.31.31,0,0,1-.2-.07.37.37,0,0,1-.18,0h0a.3.3,0,0,1-.19,0,.45.45,0,0,1-.19,0c0,.15.06.24.2.24a.33.33,0,0,0,.15,0,.15.15,0,0,0,.05.16.08.08,0,0,0,.06,0A.41.41,0,0,0,26.86,4a.14.14,0,0,0,.13.07c0,.16.07.19.21.19h.06v.06c-.1,0-.26,0-.3-.16s-.2.07-.2.13.21.11.24.11a.31.31,0,0,0,.17,0c0,.13.1.15.22.15h.12a.23.23,0,0,0,0,.11c0,.15.14.18.26.18l.23,0ZM26.15,6.2l.32,0,0,0Zm.37-.11h.15l-.06.06-.09,0L26.19,6Zm.13-3.95a.32.32,0,0,1-.13,0,.14.14,0,0,1-.11-.06h-.2v0c0,.18.17.19.31.19h.24A.2.2,0,0,1,26.65,2.14Zm-.13,3.75.31,0,0,.06-.26-.08-.2,0Zm.08-1.3s0,0-.06-.06v.24s0,.06.06.09Zm.4-2.3a.34.34,0,0,1-.22,0l-.21,0a.2.2,0,0,0,.2.18,1.43,1.43,0,0,0,.37-.09A.53.53,0,0,1,27,2.29Zm-.24,2.4-.09-.06V5l.09.1Zm0-1.83s0-.06.08-.06a.14.14,0,0,1,.09,0s-.12,0-.12,0S27,3,27,3,26.76,3,26.76,2.86Zm.08.43c0,.06.07.14.12.19s-.16-.1-.16-.19.1-.1.16-.1H27S26.84,3.23,26.84,3.29Zm0,1.85.07,0V4.77l-.07,0ZM27.17,7h0a.53.53,0,0,1-.27.33s0,.09.07.09.32-.26.32-.34S27.23,7,27.17,7ZM27,3.68c0,.06.09.13.09.17s-.15-.11-.15-.19.09-.1.15-.1a.22.22,0,0,1,.11,0S27,3.59,27,3.68Zm1.5-.42L28,3.1l-.45-.2a.54.54,0,0,0-.2-.1c-.06,0-.1,0-.13-.1a1.36,1.36,0,0,1-.17,0H27c.37.16.76.3,1.15.46a.94.94,0,0,1,.33.2A.28.28,0,0,1,28.47,3.26ZM27,5.22l.09,0V4.82L27,4.8Zm.32-1.35s-.23,0-.23.08.16.1.16.15S27,4.05,27,4s.15-.08.2-.08ZM27.17,5.8a1.86,1.86,0,0,1,0-.26h-.05a.45.45,0,0,0,0,.16s0,.08,0,.1Zm.15,0a.5.5,0,0,1-.07-.27h-.09a.55.55,0,0,0,.06.26Zm-.12-.53h.06V4.86h-.09v.43h0Zm.46,1h0a.42.42,0,0,1-.23.08.57.57,0,0,1-.25-.08.18.18,0,0,0,.08.07h-.06a.42.42,0,0,0,.23.08c.06,0,.26-.06.26-.13ZM27.42,6h-.09s0,0,.07,0a.29.29,0,0,1-.1,0l0,0,.08,0h-.1s0,0,.07,0h-.09a.08.08,0,0,0,.07,0h-.08s0,0,.05,0h-.05a.31.31,0,0,0,.39,0C27.59,6.15,27.53,6,27.42,6Zm.09-.53-.11,0-.11,0a.58.58,0,0,0,.09.27h.13a.49.49,0,0,1-.11-.29,1.58,1.58,0,0,0,.12.29h.17A.36.36,0,0,1,27.51,5.5Zm-.19-2.57a.15.15,0,0,0,0,.09c0,.08.1.12.19.12h0a.1.1,0,0,0,.09.13.44.44,0,0,0,.22-.12A2.57,2.57,0,0,1,27.32,2.93Zm1.34.65a.65.65,0,0,1,.1.36.87.87,0,0,1-.22.55,1.08,1.08,0,0,0,.2-.54.84.84,0,0,0-.57-.69.72.72,0,0,0-.07.27c0,.16.08.29.24.29.15.15-.08.35.23.45h-.05c-.25,0-.19-.22-.21-.37A.53.53,0,0,1,28,3.49a.34.34,0,0,1,.11-.23c-.1-.06-.2-.07-.3-.12s-.13.15-.22.15a.12.12,0,0,1-.13-.1H27.4a.33.33,0,0,0,0,.14c0,.1.1.12.19.12l.17,0a.54.54,0,0,1-.19.07.17.17,0,0,0,.15.11.4.4,0,0,0,.26-.08.35.35,0,0,1-.26.13.21.21,0,0,1-.22-.16h-.07a.34.34,0,0,0,0,.12c0,.05.07.1.14.11a.24.24,0,0,0,.2.12c.16,0,.15-.12.25-.12h0c-.13,0-.14.1-.23.13v0c0,.07,0,.1.09.1A.52.52,0,0,0,28,3.91a.42.42,0,0,1-.25.1c-.07,0-.1-.09-.1-.14l-.09,0s-.06.1-.06.16a.44.44,0,0,0,.15.2.27.27,0,0,0,.16-.08l-.06,0a.28.28,0,0,0,.19.09c.1,0,.14-.1.14-.19v0c0,.13-.06.2-.19.2a.28.28,0,0,1-.15,0,.15.15,0,0,0,0,.09c0,.1.09.14.17.14a.41.41,0,0,0,.23-.11l0,0a.2.2,0,0,0,.13.06s.1,0,.14-.08a.23.23,0,0,1-.17.12.16.16,0,0,1-.13-.07.27.27,0,0,1-.18.07.32.32,0,0,0,0,.09.15.15,0,0,0,.15.13.28.28,0,0,0,.17-.09.13.13,0,0,0,.1,0,.17.17,0,0,0,.13-.08.16.16,0,0,1-.16.13.25.25,0,0,1-.11,0,.13.13,0,0,1-.13.06s0,0,0,.07,0,.15.08.15c.23,0,.72-.61.82-.81A.86.86,0,0,0,29,3.94C29,3.75,28.82,3.65,28.66,3.58ZM27.38,5.24l.07,0V4.86h-.07Zm0,1.22a.09.09,0,0,0,0,0h0a.35.35,0,0,0,0-.06Zm.27-3.57a.29.29,0,0,1-.07-.12.26.26,0,0,1-.14,0Zm2.47,2h0a.24.24,0,0,1,0-.1H30a.13.13,0,0,1-.14-.13.19.19,0,0,1,0-.07.13.13,0,0,1-.14-.12.31.31,0,0,1,.09-.17c-.09,0-.11,0-.11-.12s0-.1,0-.14l0,0a.28.28,0,0,0-.07.17.2.2,0,0,0,.1.18.2.2,0,0,0-.06.14c0,.06.1.13.15.13s0,.06,0,.09.19.14.28.16c-.12,0-.31,0-.31-.16s0,0,0-.06a.2.2,0,0,1-.15-.17.22.22,0,0,1,0-.12.3.3,0,0,1-.1-.2.28.28,0,0,1,.08-.2,1.18,1.18,0,0,1-.24-.75V3.1a.32.32,0,0,1-.09-.16.84.84,0,0,0-.1.22.56.56,0,0,1,.1.24s0,.09-.06.09a.85.85,0,0,1,.09.38c0,.28-.19.31-.19.56s.35.19.35.45-.19.23-.19.31.26.15.26.36a.17.17,0,0,1-.07.16.38.38,0,0,0,0-.1c0-.26-.42-.21-.42-.45s.13-.18.13-.25-.36-.11-.36-.38c-.07.06-.15.13-.15.22S29,4.91,29,5s-.28.08-.28.19a.17.17,0,0,0,.09.15c-.09,0-.2-.09-.2-.18s.18-.16.18-.2-.11-.07-.15-.08l-.13-.15c-.09.09-.25.26-.39.26h-.05a1.34,1.34,0,0,1-.42.4.3.3,0,0,0,0,.1.33.33,0,0,0,.21.26l.13,0,0-.15.07.13,0,0a.49.49,0,0,1,0-.11.3.3,0,0,0,.07.1h0a.33.33,0,0,1,0-.13.3.3,0,0,0,.07.11h0A.39.39,0,0,1,28,5.54l.09.12a.64.64,0,0,1-.06-.16.64.64,0,0,0,.1.13s0,0,0,0a.28.28,0,0,1,0-.13v0a.19.19,0,0,0,.1.17h.07v0a.68.68,0,0,0-.06-.35.66.66,0,0,1,.12.33v.06c0,.06,0,.08.12.08s.31.3.34.38,0,.31.16.31a.27.27,0,0,0,.16-.06.21.21,0,0,1-.12.08,2.06,2.06,0,0,1,.15.16.19.19,0,0,0,.14,0l-.1.1v0s.09,0,.12-.06a.19.19,0,0,1-.1.08.22.22,0,0,0,0,.06.2.2,0,0,0,.13-.06.38.38,0,0,1-.11.11v0l.12-.06a.27.27,0,0,1-.1.09c0,.08,0,.14.14.14a.31.31,0,0,0,.26-.18,1.87,1.87,0,0,1-.26-.48.27.27,0,0,0,.06-.12c0-.1-.12-.2-.15-.28a.22.22,0,0,0-.11,0,.11.11,0,0,0-.07,0,1,1,0,0,1,.16,0l0,0s-.06,0-.09,0a.12.12,0,0,0-.07,0,.29.29,0,0,1,.16,0v0a.51.51,0,0,0-.17,0h0a.48.48,0,0,1,.18,0v0l-.17,0h-.05c.06,0,.13,0,.2,0s0,0,0-.06l-.17,0h-.05a.19.19,0,0,1,.12,0h.08v0l0,0c0,.09.08.16.12.25h.11a.77.77,0,0,0,.25-.14s-.07,0-.09-.06h.15l.06-.06a.45.45,0,0,1-.12-.06.22.22,0,0,0,.16,0l.06,0a.41.41,0,0,1-.13-.08.23.23,0,0,0,.11,0h0l0,0-.14-.07h.19v0a.31.31,0,0,1-.17-.07.2.2,0,0,0,.1,0,.16.16,0,0,0,.1,0h0A.18.18,0,0,1,30,5a.28.28,0,0,0,.18,0l0,0h-.12a.5.5,0,0,0,.13,0A.36.36,0,0,1,30.13,4.85ZM28.31,2.7c0,.14-.39.23-.53.23h0l.4.17c.11-.06.26-.13.26-.26s0-.11,0-.17A.53.53,0,0,0,28.31,2.7Zm.13,3.92a.5.5,0,0,0-.44.51.56.56,0,0,0,.62.54h.05s0-.08.09-.13c-.16,0-.46,0-.46-.2s.22-.2.22-.29S28.4,7,28.36,7a.39.39,0,0,0-.18.22v0c0-.2.23-.32.41-.32a.8.8,0,0,1,.26,0A.52.52,0,0,0,28.44,6.62Zm-.13-3s-.07-.05-.07-.11v0s.06.08.1.08a.16.16,0,0,0,.09,0A.16.16,0,0,1,28.31,3.66ZM28.59,2c-.05,0-.1,0-.13.09a.36.36,0,0,0,.11.1.21.21,0,0,1,.15-.07A.37.37,0,0,1,28.59,2Zm0,2.08S28.49,4,28.49,4V4a.1.1,0,0,0,.08.07l.09,0S28.59,4.07,28.56,4.07Zm0-1.79h.07a.25.25,0,0,0,.25-.17A.39.39,0,0,0,28.57,2.28Zm.17,1a1,1,0,0,1-.11-.56.78.78,0,0,0,0,.26.88.88,0,0,0,.3.62,2.7,2.7,0,0,1,.22.33C29.11,3.71,28.85,3.43,28.74,3.26Zm-.07,1.46V4.63a.13.13,0,0,0,0,.1c0,.15.13.12.2.19C28.82,4.79,28.67,4.86,28.67,4.72Zm.26-2.64a.53.53,0,0,1,0-.12.17.17,0,0,0-.13-.07.28.28,0,0,0-.13,0,.21.21,0,0,0,.12.17.59.59,0,0,1,.17,0ZM29.6,7.4a.49.49,0,0,1-.22.06.4.4,0,0,1-.4-.33.23.23,0,0,0-.13.21.26.26,0,0,0,.29.29.51.51,0,0,0,.27-.06.7.7,0,0,1-.33.1.26.26,0,0,1-.23-.1.2.2,0,0,0-.12.18.3.3,0,0,0,.06.13.51.51,0,0,1,.37-.13h.29a.67.67,0,0,0,.41-.13A.32.32,0,0,1,29.6,7.4Zm-.38-3.66c0-.32-.42-.58-.42-1.14a1.66,1.66,0,0,1,0-.22.77.77,0,0,0-.09.39c0,.33.38.68.48,1ZM29,7.52a.3.3,0,0,1-.1-.21.11.11,0,0,1,0,0,.27.27,0,0,0,.13.21ZM29,2.6a1.19,1.19,0,0,0,0-.33,1.1,1.1,0,0,0-.07.36c0,.31.23.49.27.75,0,0,0,0,0-.06C29.24,3.07,29,3,29,2.6Zm0,1.79c0-.08,0-.16,0-.24a.22.22,0,0,0,0-.11c0,.11-.06.23-.06.33s0,.26.18.32A.39.39,0,0,1,29.05,4.39Zm0-3a.79.79,0,0,0,.4-.19C29.35,1.27,29.12,1.33,29.05,1.43Zm0,.14h.06a.85.85,0,0,0,.51-.23C29.44,1.43,29.25,1.47,29.06,1.57Zm0,.21c.2-.14.65-.05.68-.37C29.52,1.67,29.19,1.59,29.09,1.78Zm0,.23c.22-.12.68-.06.69-.37C29.58,1.88,29.29,1.83,29.09,2Zm.09.2v.37c0,.09,0,.22.08.26C29.22,2.63,29.24,2.42,29.18,2.21ZM29.39.78a.18.18,0,0,1,0-.09.41.41,0,0,0-.17.31c0,.05,0,.13.08.15s.16,0,.16-.13A.46.46,0,0,1,29.39.78Zm.45,6h0a.49.49,0,0,1-.42.24h-.08a.15.15,0,0,0,0,.1c0,.08.06.11.14.11s.57-.16.57-.34S29.91,6.77,29.84,6.77Zm-.5-2.07a.3.3,0,0,1,.05.16c0,.09-.08.13-.08.22a.06.06,0,0,0,0,0c0-.1.12-.14.12-.24A.17.17,0,0,0,29.34,4.7Zm.11-1.87s-.06.06-.08.1a1.35,1.35,0,0,0,.4.3.18.18,0,0,1,.09-.07A3.28,3.28,0,0,1,29.45,2.83Zm1.1-1.26v0a.18.18,0,0,1-.05-.11.12.12,0,0,1,.08-.12.38.38,0,0,0-.08-.17h-.11a1.11,1.11,0,0,1-.24.2c-.06,0-.18.06-.22.13l-.07.15s.05.13.05.2,0,.11,0,.19a.1.1,0,0,0,.11.11h0a.11.11,0,0,1-.11.05c-.09,0-.13-.15-.33-.15s-.16,0-.16.11a.31.31,0,0,0,.29.3.3.3,0,0,0-.23.28.15.15,0,0,0,0,.06l.13-.09a.2.2,0,0,1,0-.13c0,.06.06.2.13.2s0-.19.09-.23,0,.17.1.16h0a.3.3,0,0,0-.23-.25h0c.18,0,.23.15.23.29v0l.08,0c.07,0,.46,0,.46-.13s-.06-.09-.06-.15,0-.06,0-.07-.13-.07-.14-.13a.28.28,0,0,0,.22-.07.28.28,0,0,1,0-.09s-.12,0-.12,0a0,0,0,0,0,0,0s0,.06.06.06h0s.09,0,.11-.09A1,1,0,0,1,30.55,1.57ZM30.27,3.4a.93.93,0,0,1-.21.57.79.79,0,0,1-.52-.78l-.09-.07a1.2,1.2,0,0,0,.38.86.31.31,0,0,0,.17.09c.23,0,.33-.25.33-.45A.35.35,0,0,0,30.27,3.4Zm-.4-.72s0,.11-.07.11a.13.13,0,0,1-.13-.08.35.35,0,0,1-.19.1,1.52,1.52,0,0,0,.39.29,1.57,1.57,0,0,0,.19-.26A.28.28,0,0,0,29.87,2.68Zm-.1.58-.22-.07a1,1,0,0,1,0,.17c0-.06.07-.08.1-.08h.09Zm-.2-2.21s0,.06,0,.06,0,0,0-.06.1-.13.15-.18S29.57,1,29.57,1.05Zm.37,6a.73.73,0,0,1-.36.21s0,0,0,0h0c.12,0,.38,0,.38-.15S30,7.07,29.94,7.05Zm-.17-3.73-.07,0s-.1,0-.1.06,0,0,.08,0,.07,0,.09,0Zm.42,0h-.07a.16.16,0,0,1,.05.1.06.06,0,0,1-.07.07.12.12,0,0,1-.09,0s0,.11-.08.11-.07,0-.07-.09a.2.2,0,0,1-.11.06.11.11,0,0,1-.07-.08.1.1,0,0,1,.05-.07c-.05,0-.12,0-.13,0A.75.75,0,0,0,30,3.9a.93.93,0,0,0,.15-.47Zm-.51-2.22s0,0,.06,0,.2-.24.23-.26S29.68,1,29.68,1.14Zm0,1.25s0,0,0,0,0,0,0,0a.07.07,0,0,1,.06,0S29.74,2.39,29.71,2.39Zm.07,1s-.07.07-.07.13l0,0c.06,0,.11-.07.12-.12A.12.12,0,0,1,29.78,3.39Zm0,.63a.28.28,0,0,0,0,.15.09.09,0,0,0,.09.09.15.15,0,0,0,.08,0A.2.2,0,0,1,30,4.08.2.2,0,0,1,29.81,4Zm1,1.17a1.46,1.46,0,0,1-.55-.11,2.3,2.3,0,0,1-.5.58s0,.07.07.07.41-.15.65-.15l.2,0h-.08l-.06.06a.51.51,0,0,1-.09.16c0,.08.1.21.2.21s.15,0,.16-.08c0-.33.26-.35.26-.59S30.92,5.21,30.82,5.19Zm-.92-2a.11.11,0,0,0-.09.09.09.09,0,0,0,.09.09.1.1,0,0,0,.1-.09A.12.12,0,0,0,29.9,3.2Zm0,1s0,0,0,0a.22.22,0,0,0-.07.16.09.09,0,0,0,.08.08.2.2,0,0,0,.16-.11A.17.17,0,0,1,29.94,4.24ZM30.12,1c-.09,0-.28.07-.28.17a.05.05,0,0,0,.06.06ZM30,3.43H29.9s0,0,0,.06h0s0,.11.06.11.07-.09.07-.13ZM30,3l-.09.13H30s0-.07.07-.08A.15.15,0,0,0,30,3Zm.26,1.33a.24.24,0,0,1-.14,0h0a.26.26,0,0,1-.16.15v0c0,.09,0,.1.1.1s.13-.08.16-.14V4.47a.2.2,0,0,0,.19.18s.07,0,.07-.06A.28.28,0,0,0,30.26,4.36Zm-.23-1,0,.07s.05.1.11.1a.06.06,0,0,0,0-.06A.14.14,0,0,0,30,3.35Zm.09.76a.12.12,0,0,0-.13.12.13.13,0,0,0,.13.13.13.13,0,1,0,0-.25Zm0-.91a.21.21,0,0,1,0-.07.2.2,0,0,0-.09.06.06.06,0,0,1,0,0l.09,0Zm.2,2a1,1,0,0,1-.32.37,1.26,1.26,0,0,0,.26-.4Zm-.14-1.89a.12.12,0,0,0,0-.1l0,0-.07,0s0,0,0,.07a.61.61,0,0,0,.13,0Zm.13-1.75a.32.32,0,0,0-.23.15.21.21,0,0,1,.2-.16c.06,0,.13,0,.14,0A.21.21,0,0,0,30.32,1.6Zm-.23.29a.17.17,0,0,0,.11,0,.13.13,0,0,1,.13-.1h.12s0,.05,0,.08a.46.46,0,0,0,0,.09C30.33,1.88,30.2,1.92,30.09,1.89Zm.11,2.74a.29.29,0,0,0-.07.16.09.09,0,0,0,.1.1s.12,0,.12-.09S30.27,4.66,30.2,4.63ZM30.27,4a.12.12,0,0,1-.08.1.21.21,0,0,1,.1.15s.07,0,.09,0S30.3,4,30.27,4Zm0,2.08s-.08,0-.08.06,0,0,0,.07a.15.15,0,0,1,.12,0S30.3,6,30.27,6Zm.55,1.15h0a.85.85,0,0,0-.29,0,.67.67,0,0,0-.33.08,1.63,1.63,0,0,0,.22.17,1,1,0,0,1,.37-.08H31A.4.4,0,0,1,30.82,7.18ZM30.39.85a.23.23,0,0,0-.14-.23.31.31,0,0,1,0,.1.76.76,0,0,1,0,.15l.14.05Zm0,.93s0,0-.05,0a.08.08,0,0,0-.08.09Zm0,.17h-.12l.12,0Zm0,2.23a.08.08,0,0,1-.07,0h0a.17.17,0,0,1,0,.12l.13,0s0,0,0-.07A.24.24,0,0,0,30.39,4.18ZM30.87,6s0,0-.05,0a.15.15,0,0,1-.11,0c-.19,0-.22-.26-.31-.3s-.11.07-.13.13a.55.55,0,0,0,.49.34h.06a.12.12,0,0,0,.1-.11A.16.16,0,0,0,30.87,6ZM30.39,4.7h0a.25.25,0,0,1,0,.08.16.16,0,0,1,0,.12c.09,0,.13-.13.15-.2Zm0,1.42h0a.34.34,0,0,0,.28.26h0a.1.1,0,0,0,.06-.09A.4.4,0,0,1,30.36,6.12Zm0-.6a1.73,1.73,0,0,0,.1-.24s0,0,.05,0S30.4,5.45,30.35,5.52Zm.26.35s-.09,0-.11,0l0,0a.18.18,0,0,0,.1.06Zm-.08-.09,0,0a.58.58,0,0,0,.12.1A.18.18,0,0,1,30.53,5.78Zm.09-.46.06,0a.83.83,0,0,1-.13.14Zm-.06.41,0-.06a.43.43,0,0,0,.1.09A.21.21,0,0,1,30.56,5.73Zm1.69,1.6h0v0l0,0a1.13,1.13,0,0,1,0-.18.94.94,0,0,1-.4.13c-.26,0-.59-.2-.59-.49a.53.53,0,0,1,.2-.36c-.24.09-.4.1-.42.44,0,0,0,0,0-.08a.44.44,0,0,0-.07.22c0,.35.54.42.8.42a2.18,2.18,0,0,0,.52-.1.7.7,0,0,1-.49.17,2,2,0,0,1-.59-.1.49.49,0,0,0-.29.22v0a.93.93,0,0,1,.22,0c.17,0,.33,0,.5,0a2.06,2.06,0,0,0,.91-.28ZM31,6.89l0,0Zm1.41-2.35A5.61,5.61,0,0,0,32,3.75,1.78,1.78,0,0,0,31.28,3a9.08,9.08,0,0,1,.93,1.84.18.18,0,0,1,.16,0c-.18-.45-.42-.89-.64-1.33a13.07,13.07,0,0,1,.65,1.23Zm0-.66a5.54,5.54,0,0,0-.63-1.08,5.59,5.59,0,0,1,.63,1V3.48a2.5,2.5,0,0,0-1-1.07,5.12,5.12,0,0,1,1,2Zm-.23,1c-.06-.17-.2-.49-.2-.49a1,1,0,0,0-.61-.52A2.7,2.7,0,0,1,32,5L32,5a2.3,2.3,0,0,0-.2-.48,2.85,2.85,0,0,1,.25.45Zm0,.94a1.49,1.49,0,0,0-.36,0,.77.77,0,0,0-.39.09,1.14,1.14,0,0,1,.72.25.72.72,0,0,1,.2-.09Zm-.26-1a.56.56,0,0,0-.39-.14H31.4a.88.88,0,0,1,.4.43s.06-.06.07-.1a1.88,1.88,0,0,0-.22-.26,1.94,1.94,0,0,1,.27.23Zm-.35.25h-.1a1.94,1.94,0,0,1,.34.21.53.53,0,0,1,0-.16A.64.64,0,0,0,31.51,5.11Zm5.3.92a1,1,0,0,0-.54.2,2.77,2.77,0,0,1-1.13.48h-.25a2.76,2.76,0,0,1-1.51-.45A1.1,1.1,0,0,0,32.8,6a1.33,1.33,0,0,0-1.1.59,2.7,2.7,0,0,1,.28,0,.38.38,0,0,1,.3.13.85.85,0,0,1,.63-.38,1,1,0,0,0-.7,1h.47a.68.68,0,0,0,.28,0,.68.68,0,0,1,.67-.62h0a1,1,0,0,0-.66.87,1.34,1.34,0,0,1,.71-.21,1,1,0,0,1,.33.06.84.84,0,0,1,.19-.55.84.84,0,0,0-.13.44c0,.47.46.4.63.73.12-.2.23-.2.41-.33a.47.47,0,0,0,.23-.4.78.78,0,0,0-.15-.44.75.75,0,0,1,.2.49v.06a.92.92,0,0,1,.33-.06,1.37,1.37,0,0,1,.71.21,1,1,0,0,0-.66-.87h0a.7.7,0,0,1,.71.62.55.55,0,0,0,.26,0h.48a1,1,0,0,0-.71-1,.83.83,0,0,1,.63.38.4.4,0,0,1,.31-.13c.08,0,.17,0,.26,0C37.69,6.2,37.17,6,36.81,6ZM32.27,5c-.18,0-.45.2-.45.37a.1.1,0,0,0,.11.1.41.41,0,0,0,.18,0A.67.67,0,0,1,32,5.18c.17,0,.33,0,.42-.17S32.31,5,32.27,5Zm5.42.55A.64.64,0,0,1,37.17,5c0-.11,0-.26,0-.43V2.53a.48.48,0,0,1,.35-.45A5.88,5.88,0,0,0,37,1.5a.12.12,0,0,0-.08,0,.32.32,0,0,0-.22.12,2.73,2.73,0,0,1-1.54.49h-.25a3.09,3.09,0,0,1-2-.5.35.35,0,0,0-.23-.12.32.32,0,0,0-.09,0,4.91,4.91,0,0,0-.51.58.47.47,0,0,1,.34.45V5h0c0,.23-.31.49-.51.49h0l.5.52.26,0c.67,0,1.2.64,2.11.64h.38C35.84,6.53,36.39,6,37,6a.8.8,0,0,1,.3.06Zm-5.31-3a.23.23,0,0,0-.16-.06h-.06l0-.07.1-.13a.3.3,0,0,0-.17-.08.31.31,0,0,0,0,.17.25.25,0,0,0,.24.26.28.28,0,0,0,.13,0ZM32.12,5.6l-.07-.06a.52.52,0,0,0,.2-.09C32.21,5.51,32.16,5.55,32.12,5.6Zm0-.34.06.06a.38.38,0,0,0,.11-.11Zm.07.41-.07-.06a.34.34,0,0,0,.22-.09Zm.08.09-.06-.06a.6.6,0,0,0,.18-.09A.79.79,0,0,1,32.27,5.76Zm0-3.44h.08l0,0Zm.3,4a.45.45,0,0,0-.3.1.34.34,0,0,1,.3-.18h.1Zm-.29-4.22L32.31,2a.32.32,0,0,1,.17.26A.29.29,0,0,0,32.25,2.05Zm.09,3.78-.06-.06a.85.85,0,0,0,.22-.09C32.48,5.73,32.38,5.8,32.34,5.83Zm0-3.88,0-.07a.31.31,0,0,1,.18.26A.28.28,0,0,0,32.34,2Zm.08-.1,0-.07a.35.35,0,0,1,.18.25A.31.31,0,0,0,32.42,1.85Zm4.33,3.88a4.6,4.6,0,0,0-.94.2,3.36,3.36,0,0,1-.67.24l-.09,0H35s-.07.06-.13.06a.24.24,0,0,1-.1,0,.22.22,0,0,1-.09,0l-.11,0a2.84,2.84,0,0,1-.74-.26,4.7,4.7,0,0,0-.95-.2.81.81,0,0,0-.36.1A.6.6,0,0,1,33,5.51c0-.13-.24-.2-.37-.23a.36.36,0,0,1,.26-.09H33a1.93,1.93,0,0,1,.08-2.06,1,1,0,0,0,.11-.45.91.91,0,0,0,0-.23l.2.09a.22.22,0,0,1,.13,0,.21.21,0,0,1,.18.09.21.21,0,0,1,.14-.12,1.57,1.57,0,0,1,.88-.21,2.8,2.8,0,0,1,.41,0c.15,0,.67.15.75.33,0-.07.1-.09.17-.09a.21.21,0,0,1,.13,0l.2-.09a1.81,1.81,0,0,0,0,.23.87.87,0,0,0,.12.45,2,2,0,0,1,.33,1.08,1.91,1.91,0,0,1-.26,1h.11a.35.35,0,0,1,.25.09.54.54,0,0,0-.36.23.58.58,0,0,1,.55.32A.6.6,0,0,0,36.75,5.73Zm-4.24-4,0-.06c.09.06.18.14.18.24A.34.34,0,0,0,32.51,1.75Zm.09-.11,0,0a.32.32,0,0,1,.17.26A.32.32,0,0,0,32.6,1.64Zm.72,3.93a.68.68,0,0,0-.2,0,.7.7,0,0,0-.5.16l.22,0a3.63,3.63,0,0,1,.81.16A1.7,1.7,0,0,1,33.32,5.57Zm-.64-4,0,0a.34.34,0,0,1,.17.25C32.87,1.64,32.78,1.59,32.68,1.54Zm.41,3.72-.16,0-.15,0a.65.65,0,0,1,.34.24h.15A.88.88,0,0,1,33.09,5.26Zm-.31,1.42c0-.13.12-.27.26-.27h.05S32.86,6.56,32.78,6.68Zm1.76-.79a1.74,1.74,0,0,1-1.45-1.68c0-.3.2-1.09.6-1.09l.1,0a.33.33,0,0,0-.27-.2.34.34,0,0,0-.23-.37.81.81,0,0,1-.12.6,1.89,1.89,0,0,0-.31,1,2,2,0,0,0,1.67,1.91.66.66,0,0,0,0-.15A.11.11,0,0,0,34.54,5.89Zm-1.28.62c-.06.07-.22.12-.3.26,0-.09.1-.26.2-.26Zm-.1-5.08.3.23,0,0-.3-.23Zm.42.1s-.42-.3-.42-.36,0,0,0,0v0a5.08,5.08,0,0,1,.41.39ZM34,4.15a.22.22,0,0,1-.17.09c-.16,0-.23-.1-.29-.24h0s0,0-.06-.06h-.33l0,.08.26,0-.26,0v.07h.46v0h-.46v.08h.23l-.23,0v.08H34a.15.15,0,0,1,0-.09s0,0,0-.07Zm-.78.54h.85V4.63s0-.19,0-.2h-.87s0,.06,0,.08l.26,0-.25,0Zm2.67-1.5c-.07,0-.12.06-.17.09a.86.86,0,0,1,0-.16.23.23,0,0,1-.1-.19.29.29,0,0,1,0-.09,2.28,2.28,0,0,0-.94-.21,1.46,1.46,0,0,0-.81.23.13.13,0,0,1,0,.07.23.23,0,0,1-.1.19.9.9,0,0,1,0,.16c-.07,0-.11-.09-.19-.09-.24,0-.42.43-.49.62,0,0,.09,0,.12,0h.06c.07,0,.1,0,.2.08a.09.09,0,0,0,.07.05s.06,0,.09,0,0,0,0,0-.1.07-.16.07a.24.24,0,0,0,.22.13s.13,0,.13-.07S34,4,34,4s0,.16.08.22-.06,0-.06.06.08.23.08.33v.06a1.24,1.24,0,0,1,.18.34.09.09,0,0,1,0,0c.07.06.23.24.23.33a.11.11,0,0,0,.06.11s0,.05.1.05,0,0,0,0,0-.1.13-.1.06-.1.13-.13V5.19c0-.07.06-.08.06-.13a.71.71,0,0,0,0-.21c0-.08.07-.13.16-.12s.08,0,.14-.06,0-.07,0-.08a1.65,1.65,0,0,0,.25-.15l.16-.14v0l.07,0a.13.13,0,0,0,.09-.1s0,0,0,0A.13.13,0,0,1,36,4.11h0l0-.06a.15.15,0,0,0,.09,0s.13,0,.14,0V4a.13.13,0,0,0,.09,0h0C36.39,3.81,36.2,3.19,35.9,3.19Zm-2.7.71h.07a.11.11,0,0,0-.07,0Zm1,1.05a.75.75,0,0,0-.13-.25h-.83l0,.07.24.05-.22,0a.27.27,0,0,0,.06.1Zm-.85,2.59a.8.8,0,0,1,.41-.1l.23,0c0,.16.14.26.26.33A4.32,4.32,0,0,0,33.36,7.54Zm.55-6.31c0-.08-.53-.75-.53-.8a.09.09,0,0,1,0-.06,7,7,0,0,1,.52.84Zm.48,4a.81.81,0,0,0-.16-.16l0,0V5l0,0h-.85s0,0,0,.1l.27,0-.23,0s.06.05.09.1Zm-.7,1.48c0,.06-.13.1-.17.13s-.09.09-.13.13a.3.3,0,0,1,.29-.26Zm0-3.93c0-.11,0-.21-.16-.21l-.05,0a.45.45,0,0,1,.11.29.29.29,0,0,1,.23.15.15.15,0,0,0,.06-.11C33.88,2.84,33.77,2.81,33.69,2.79Zm-.14-1.72.22.24-.05,0-.21-.26Zm1,4.47a.14.14,0,0,1-.07-.13s-.06-.1-.07-.13h-.82s.05.07.1.09l.26,0-.2,0,.14.1Zm-.93,1.51a.31.31,0,0,1,.26-.26h0S33.68,7,33.61,7.05Zm1.53-5.77a1.41,1.41,0,0,0-.41-.07,1.3,1.3,0,0,0-1.08.65A3.32,3.32,0,0,0,34.73,2h.41c.23,0,.46,0,.67-.09A1.39,1.39,0,0,0,35.14,1.28ZM33.87,2.55a.09.09,0,0,0-.09.1.1.1,0,0,0,.09.11S34,2.7,34,2.65A.1.1,0,0,0,33.87,2.55ZM34,.78l.15.3-.05,0L34,.81Zm1.16,1.56a2.8,2.8,0,0,0-.41,0,1.59,1.59,0,0,0-.78.17.17.17,0,0,1,.08.14.12.12,0,0,1,0,.08,1.48,1.48,0,0,1,.72-.18,1.21,1.21,0,0,1,.41.05,1,1,0,0,1,.44.13.22.22,0,0,1,0-.08.19.19,0,0,1,.07-.14A1.56,1.56,0,0,0,35.14,2.34Zm0,2.94H35c0,.19-.15,0-.15.23-.19,0-.09.1-.2.1s-.07,0-.1,0H34a.37.37,0,0,0,.1.06l.29,0-.16,0,.12,0c.19,0,.42,0,.6,0A2.53,2.53,0,0,0,35,5.45a.23.23,0,0,0,.1.07v0h.57l.16-.1-.23,0,.29,0L36,5.28ZM34.33,1a3.08,3.08,0,0,1-.16-.38s0-.05,0-.05.15.39.15.41Zm.81,3.27c0,.05-.08.09-.09.13-.19.21-.17.47-.35.58s0-.06-.06-.07-.17-.26-.2-.39-.26-.26-.26-.55a.35.35,0,0,1,.31-.39s-.05,0-.05-.09,0-.1.1-.11a.13.13,0,0,1,0-.06h0c0-.05.06-.05.1-.06a.06.06,0,0,1,0,0s0-.06,0-.06,0-.13.07-.13a.09.09,0,0,1,.1.08s0,0,0,0a.06.06,0,0,1,.06.06l0,0s.11,0,.11.07,0,0,0,.06.1,0,.1.1,0,.09,0,.1a.3.3,0,0,1,.14.06.38.38,0,0,1,.08.27A.58.58,0,0,1,35.14,4.31Zm0-.57a.23.23,0,0,0-.16-.1h-.46a.33.33,0,0,0-.28.34.81.81,0,0,0,.22.43c.06.09,0,.25.08.36s.05.14.1.16c-.07-.33.18-.54.18-.73,0,0,0-.07,0-.1a0,0,0,0,1,.05,0s0,.08,0,.1c0,.19-.22.34-.22.62a.3.3,0,0,0,0,.16c.08-.07.08-.34.2-.49a1.11,1.11,0,0,0,.22-.29c0-.07,0-.15,0-.23A.44.44,0,0,0,35.14,3.74Zm-.77,3.53h0a1.13,1.13,0,0,1,0-.18c0-.09,0-.25.13-.25A.66.66,0,0,0,34.37,7.27Zm0-1.49a.65.65,0,0,1,.16,0l.06,0Zm.53-2.35a.62.62,0,0,1-.2,0l-.17,0a.09.09,0,0,0-.09.1c0,.08,0,.08.07.08h.39A.08.08,0,0,0,35,3.52.12.12,0,0,0,34.93,3.43ZM34.54.65l.05.32h-.05l0-.33Zm.28,2.67c-.06,0-.26,0-.28,0s.22.06.34.06,0,0,0-.06S34.86,3.32,34.82,3.32Zm-.13,2.51s-.06,0-.06,0,0,.07,0,.1a.22.22,0,0,1,0,.16l0,0c.08,0,.15-.13.15-.2S34.75,5.83,34.69,5.83Zm.06-2.64c-.06,0-.09,0-.11,0s0,.06.09.06.1,0,.12,0S34.79,3.19,34.75,3.19Zm0-.09s-.06,0-.06,0,0,0,0,0,.07,0,.07,0S34.79,3.1,34.75,3.1Zm0,4.27a2.72,2.72,0,0,1,0-.3.48.48,0,0,1,0-.2.49.49,0,0,1,.05.2A1.45,1.45,0,0,1,34.73,7.37ZM34.79,1h-.06c0-.32,0-.63,0-.93,0,0,0-.07.06-.07s0,0,0,.09C34.8.39,34.79.69,34.79,1Zm.06,4.81H34.8a.36.36,0,0,1,.06.15.29.29,0,0,1-.07.17s0,0,0,0S35,6,35,6,34.93,5.81,34.85,5.81Zm0-5.16H35l0,.33h0Zm.32,5.12a.3.3,0,0,0-.08-.16.18.18,0,0,0-.08-.07.33.33,0,0,1-.06.1.4.4,0,0,1,0,.13s0,0,0,0a.35.35,0,0,0,.14,0Zm-.13,1.51A.65.65,0,0,0,35,6.85c.11,0,.14.16.14.25A.38.38,0,0,1,35.09,7.28Zm0-2.3h-.08v.08c0,.08-.06.1-.06.13a.12.12,0,0,1,0,0h1s0-.06.07-.1l-.23,0,.27,0s0-.06.06-.1Zm1.15-2.3a.41.41,0,0,1,0-.11.33.33,0,0,0-.23.37.3.3,0,0,0-.26.2l.09,0c.4,0,.6.79.6,1.09a1.72,1.72,0,0,1-1.36,1.66l-.1,0a.19.19,0,0,1,0,.08.25.25,0,0,1,0,.15h0l.1,0a1.9,1.9,0,0,0,1.58-1.89C36.72,3.43,36.29,3.2,36.29,2.68Zm-1,2s-.13,0-.16.09l0,0c-.06,0-.08,0-.09.08V5h1.2s0-.07,0-.1l-.24,0,.26-.05a.11.11,0,0,0,0-.07ZM35.14,1V1l0,0,0-.15s0-.26.08-.26.07,0,.07.05S35.15,1,35.14,1Zm0,4.56a1,1,0,0,1,.1.18l.13-.06-.15,0a.64.64,0,0,0,.39-.1Zm0,2.21c.11-.07.27-.17.26-.33l.23,0a.82.82,0,0,1,.4.1A4.6,4.6,0,0,0,35.21,7.79Zm.26-7,0,0-.13.3-.06,0Zm.21,3.63a.77.77,0,0,1-.33.22.08.08,0,0,0,0,0h1l0-.08-.24,0,.24,0a.42.42,0,0,1,0-.12Zm-.14-3.18,0,0A7,7,0,0,1,36,.37s0,0,0,.06S35.55,1.18,35.54,1.23Zm0,5.56h.05c.13,0,.24.15.26.26C35.78,7,35.57,6.82,35.55,6.79Zm.18-4.24a.1.1,0,0,0-.09.1c0,.05,0,.11.09.11s.08-.06.08-.11A.09.09,0,0,0,35.73,2.55Zm.17-1.48h0l-.21.26,0,0Zm.16,1.51c-.13,0-.16.1-.17.21s-.16,0-.16.14a.14.14,0,0,0,0,.11A.29.29,0,0,1,36,2.89a.41.41,0,0,1,.12-.29Zm.14,1.7h.23V4.15H36s-.07,0-.08,0a.17.17,0,0,1-.15.18.1.1,0,0,1-.07,0v0h.69v0Zm-.26,2.57s-.17-.07-.17-.13h0a.29.29,0,0,1,.28.26A.49.49,0,0,0,35.94,6.85Zm-.07-5.32v0s.33-.39.37-.39a.07.07,0,0,1,.06.06C36.29,1.23,35.9,1.5,35.87,1.53Zm.61,4a.75.75,0,0,0-.21,0,1.7,1.7,0,0,1-.33.27,3.75,3.75,0,0,1,.81-.16l.22,0A.68.68,0,0,0,36.48,5.55Zm-.19-4.12,0,0L36,1.69l0,0Zm.14,2.7v0a.17.17,0,0,1-.1,0c-.06,0-.22,0-.26,0ZM36.2,6.51h.1c.1,0,.19.17.2.26C36.4,6.63,36.25,6.58,36.2,6.51Zm.45-1.27-.15,0a.88.88,0,0,1-.18.25h.16c.05-.12.21-.19.33-.24Zm-.27,1.18h0c.14,0,.23.14.27.27C36.61,6.56,36.39,6.46,36.38,6.42ZM37,1.54c-.11.05-.2.1-.23.21a.29.29,0,0,1,.18-.25Zm.07.1a.32.32,0,0,0-.21.21A.32.32,0,0,1,37,1.59Zm.09.11a.3.3,0,0,0-.21.18.32.32,0,0,1,.17-.24Zm.09.1c-.1,0-.2.08-.22.18,0-.11.07-.18.18-.25Zm.08.1a.28.28,0,0,0-.23.19.36.36,0,0,1,.18-.26Zm.09.1c-.11,0-.2.07-.23.19A.32.32,0,0,1,37.31,2Zm-.09,3.78a.4.4,0,0,1-.14-.15.72.72,0,0,0,.2.09Zm.29-3.69a.3.3,0,0,0-.17.08l.1.13,0,.07a.2.2,0,0,0-.22.06v0a.29.29,0,0,0,.14,0,.26.26,0,0,0,.26-.26A.32.32,0,0,0,37.57,2.14Zm-.34,1.34v.27a6.37,6.37,0,0,1,.65-1,5.63,5.63,0,0,0-.65,1.08v.48a5.21,5.21,0,0,1,1.05-1.95A2.47,2.47,0,0,0,37.23,3.48Zm.39.27a4.82,4.82,0,0,0-.39.79v.25a11.31,11.31,0,0,1,.68-1.23,9.59,9.59,0,0,0-.65,1.33.45.45,0,0,1,.11,0l.06,0A8.44,8.44,0,0,1,38.32,3,1.77,1.77,0,0,0,37.62,3.75Zm-.26,2a.87.87,0,0,1-.13-.15.68.68,0,0,0,.17.09Zm0-.81s-.09,0-.1.06.18.17.33.17h.08a1.35,1.35,0,0,1-.16.19.41.41,0,0,0,.18,0,.1.1,0,0,0,.11-.1C37.8,5.15,37.53,5,37.36,5Zm.75,1.93c-.1.19-.23.4-.48.4a.71.71,0,0,1-.33-.1.76.76,0,0,1,0,.16c.22.06.78,0,.76.36v0a.32.32,0,0,0,.07-.23.29.29,0,0,0,0-.16.3.3,0,0,0,.1-.23A.43.43,0,0,0,38.11,6.88ZM37.3,2.32h.09l-.08,0Zm.14,3.35s-.13-.09-.14-.15a.25.25,0,0,0,.19.09Zm.8.2a.64.64,0,0,0-.36-.09,1.6,1.6,0,0,0-.39,0L37.3,6a.41.41,0,0,1,.19.09,1.08,1.08,0,0,1,.69-.25Zm-.74-.61c-.06,0-.11,0-.19,0l.13.11Zm0,.34a.66.66,0,0,1-.14-.15.52.52,0,0,0,.2.09Zm.15-1.2c-.07.16-.13.32-.19.49l.07,0a2.85,2.85,0,0,1,.25-.45,4.34,4.34,0,0,0-.2.48l.07,0a3,3,0,0,1,.62-1.11C38,3.94,37.66,4.4,37.66,4.4Zm.49.32a.62.62,0,0,0-.39.14L37.7,5A1.63,1.63,0,0,1,38,4.79a2.13,2.13,0,0,0-.26.26l.09.1a.84.84,0,0,1,.42-.43Zm0,.39a1.47,1.47,0,0,0-.29,0,.29.29,0,0,1,.06.16,1.63,1.63,0,0,1,.34-.21ZM39,6.63c0-.08-.1-.24-.16-.28a.9.9,0,0,1-.6.86.75.75,0,0,1-.09.15v.07a5.84,5.84,0,0,0,.59-.2,1,1,0,0,0,.51-.74A.71.71,0,0,1,39,6.63Zm-.72.67a0,0,0,0,1,0,0c.43-.11.43-.2.72-.51C38.94,7,38.51,7.3,38.28,7.3Zm.89-.41a1.18,1.18,0,0,1-.86.55.83.83,0,0,0,.43.1c.14,0,.49-.07.49-.26a.16.16,0,0,0-.07-.14.18.18,0,0,1,.09.06.22.22,0,0,0,0-.12A.24.24,0,0,0,39.17,6.89Zm-.6.57h-.06a2,2,0,0,0,.63-.22C39.12,7.41,38.67,7.46,38.57,7.46Zm1.6-4a1.93,1.93,0,0,1-.74.19h-.14c-.25,0-.45-.12-.55-.1h0c0,.1.37.24.47.26a.17.17,0,0,1,0-.1.16.16,0,0,0,0,.11s0,0,.08,0a.21.21,0,0,1,0-.11.15.15,0,0,0,0,.11l.07,0h0V3.75s0,.06,0,.1h.08a.15.15,0,0,1,0-.09.29.29,0,0,0,0,.09h.15a.34.34,0,0,1,0-.09.13.13,0,0,0,0,.09h.09V3.78a.08.08,0,0,0,0,.07H40c0-.09.17-.2.17-.32S40.18,3.46,40.17,3.43Zm.27,1.49c-.16,0-.23-.12-.24-.26l-.05,0s-.07.2-.07.24a.19.19,0,0,0,.05.1.08.08,0,0,1-.05,0,.74.74,0,0,1-.16.12.11.11,0,0,1,0,.08.13.13,0,0,1,0-.08l0,0a.24.24,0,0,0,0,.09.17.17,0,0,0-.06-.06h0a.13.13,0,0,1,0,.09.09.09,0,0,0-.06-.07l-.13,0-.06,0a.25.25,0,0,1-.13.12.32.32,0,0,0,.1-.13.15.15,0,0,1-.07,0,.09.09,0,0,1-.06,0s0,0-.08,0a.15.15,0,0,0,.08-.08l0,0s0,0,0,0V5s-.07,0-.1,0h-.06a.62.62,0,0,0,.16,0,.27.27,0,0,1,0-.12V4.77a.36.36,0,0,1-.15,0h.17v0a.29.29,0,0,1-.15-.1.28.28,0,0,0,.15.06v0a.15.15,0,0,1,0-.08h0a.29.29,0,0,1-.14-.08.19.19,0,0,0,.14,0h0a.14.14,0,0,0,0-.09l-.06,0-.08,0s.07,0,.08,0l.08,0,0,0-.12-.09a.26.26,0,0,0,.15,0l0-.07a.31.31,0,0,1-.13-.1.29.29,0,0,0,.16.07L39.84,4v0c-.15,0-.26,0-.41,0a2.23,2.23,0,0,1-.43-.1,2.69,2.69,0,0,0-.14.75c0,.43.13.86.57,1l.15,0a.69.69,0,0,0,.57-.33H40c.13,0,.52-.11.53-.27S40.47,4.92,40.44,4.92Zm2-3.16a1.05,1.05,0,0,0-.31,0,.07.07,0,0,0,0-.07.12.12,0,0,0,0-.05c-.66.06-.59.35-1.05.57-.3.14-.76.08-1.15.2a.13.13,0,0,1,.06.07c0,.06,0,.1-.09.1a.09.09,0,0,1-.09-.1l0,0-.24.1a.1.1,0,0,1,.09.1.09.09,0,0,1-.1.09.11.11,0,0,1-.1-.09s0,0,0-.07l-.1.07,0,0a.74.74,0,0,1,0,.14V3a.07.07,0,0,1-.07,0,0,0,0,0,1,0,0c-.07.16-.12.35-.2.49l.15,0,.16,0a1.93,1.93,0,0,0,.9-.27.28.28,0,0,1,0,.09c0,.3-.29.59-.29.69a.76.76,0,0,1,.49-.28h.05a.47.47,0,0,0,.13-.24.62.62,0,0,1-.08.24h.12a.51.51,0,0,0,.09-.18.78.78,0,0,1-.05.18l.09,0L41,3.61l0,.17H41a.87.87,0,0,0,.07-.17.86.86,0,0,1,0,.17h.09a.28.28,0,0,0,0-.16v.06a.34.34,0,0,1,0,.1l.07,0a.6.6,0,0,0,.09-.15s0,.08,0,.15l.08,0a1.2,1.2,0,0,0,.11-.2c0,.07,0,.12,0,.17a.29.29,0,0,0,.13-.08c0-.09.05-.18.06-.25v.07a.49.49,0,0,1,0,.12.69.69,0,0,0,.15-.41.67.67,0,0,1-.1-.31,1,1,0,0,1,.12-.41,1.18,1.18,0,0,0,0,.31c0,.63.47.47.61,1,0-.16.19-.26.25-.43a2.71,2.71,0,0,0,.11-.58h0a.8.8,0,0,0,.19-.32.22.22,0,0,0-.2-.15c0-.18-.29-.36-.29-.36a1.86,1.86,0,0,1,.1.25A.71.71,0,0,0,42.33,2l-.07,0a1.1,1.1,0,0,1,.17.29c0-.1-.16-.16-.24-.23l0,.07a.35.35,0,0,1,.19.29.36.36,0,0,0-.22-.2c0,.11-.12.3-.23.33.35-.26.09-.71.5-.71.22,0,.34.23.35.42a.45.45,0,0,1,.19.14c0-.05,0-.1,0-.15A.5.5,0,0,0,42.46,1.76ZM39.19,2.93h.11c0-.07,0-.14,0-.21A.44.44,0,0,0,39.19,2.93Zm1,3.86a1.71,1.71,0,0,0-.75.25l-.08,0s0,.1-.09.13l0,0,.14-.09A1.32,1.32,0,0,1,40.14,7c.13,0,.33,0,.33.2a.23.23,0,0,1-.21.22.65.65,0,0,0,.23.06.26.26,0,0,0,.26-.26C40.75,6.88,40.41,6.79,40.18,6.79Zm-.79-4.11,0,0V2.5c-.06,0-.06.07-.07.14Zm.16-.5a.07.07,0,0,0-.07.07.07.07,0,0,0,.07.06.06.06,0,0,0,.06-.06A.07.07,0,0,0,39.55,2.18Zm0,.17-.1.07,0,.18a.29.29,0,0,1,.12-.07Zm0,.26s0,0,0,0,0,0,0,0,.05,0,.05,0A0,0,0,0,0,39.58,2.61Zm0-.65a.06.06,0,0,0-.06,0,.07.07,0,0,0,.06.07A.07.07,0,0,0,39.69,2S39.66,2,39.62,2Zm.13.31-.09,0,.05.16.1,0Zm0-.19a.05.05,0,0,0-.06.06s0,0,.06,0,.07,0,.07,0S39.81,2.08,39.77,2.08Zm0-.28a.06.06,0,0,0-.06.05.07.07,0,0,0,.06.07s.06,0,.06-.07A.06.06,0,0,0,39.78,1.8Zm.17.38-.11.06,0,.17.12,0Zm0-.54s-.07,0-.07.06,0,.06.07.06A.05.05,0,0,0,40,1.7.06.06,0,0,0,39.94,1.64Zm0,.83a0,0,0,0,0,0,0s0,0,0,0a0,0,0,0,0,0,0S39.92,2.47,39.91,2.47Zm0,1.47,0,0,0,0ZM40,6.29c-.06,0-.1.08-.13.13a.65.65,0,0,0,.25.17.43.43,0,0,0,0-.11A.22.22,0,0,0,40,6.29ZM40,2s-.07,0-.07.05a.07.07,0,0,0,.07.06A.06.06,0,0,0,40,2.06S40,2,40,2Zm.1-.54s-.08,0-.08.07a.09.09,0,0,0,.08.08c.06,0,.09,0,.09-.08S40.14,1.47,40.08,1.47Zm.09.65-.13,0,0,.19.15,0Zm.92,4.3a1.21,1.21,0,0,1-1-.38s-.05,0-.05.08c.07.27.68.44.94.44.06,0,.09,0,.09,0S41.09,6.45,41.09,6.42Zm-.68-4.64c-.08,0-.17,0-.17-.14s0,0,0,0-.15.07-.15.15.13.13.2.13.18,0,.19-.12Zm-.15-.52c-.06,0-.12,0-.12.08s.06.09.12.09a.08.08,0,0,0,.08-.09A.07.07,0,0,0,40.26,1.26Zm-.06.67s-.06,0-.06.08a.07.07,0,0,0,.06,0,.06.06,0,0,0,.06,0S40.24,1.93,40.2,1.93Zm3.66,3.42h-.11a2.22,2.22,0,0,0-1.07.25A7.55,7.55,0,0,0,43,3.39a2.45,2.45,0,0,1-.76,1,1.22,1.22,0,0,1-.63.29h-.12c0,.5-1,.49-1.31,1.33a1.12,1.12,0,0,0,.81.33A.5.5,0,0,1,41.09,6a.45.45,0,0,1-.16-.35c0,.12.09.28.22.31l0,0a.43.43,0,0,1-.13-.28s0,0,0,0a.35.35,0,0,0,.17.3.52.52,0,0,1,.27-.07.45.45,0,0,1-.1-.29V5.52a.37.37,0,0,0,.21.32h0a.49.49,0,0,1-.08-.23V5.54a.41.41,0,0,0,.15.29s0,0,.06,0a.34.34,0,0,1-.07-.24v0a.3.3,0,0,0,.1.2h0A2.53,2.53,0,0,1,41.74,5V5a2.46,2.46,0,0,0,.17.63c.19.57,0,1.11.21,1.62a.2.2,0,0,1,.18.13A.9.9,0,0,0,43,7.07c-.05-.09-.08-.19-.12-.28a.58.58,0,0,1-.29.06.62.62,0,0,0,.27-.13v0a.93.93,0,0,1-.22,0h0a.45.45,0,0,0,.24-.12V6.52l-.24,0,.24-.1V6.37l-.24,0a.64.64,0,0,0,.23-.1V6.2a1.15,1.15,0,0,1-.26,0,2.58,2.58,0,0,0,.26-.08.27.27,0,0,1,0-.13,2.17,2.17,0,0,1-.25,0,.69.69,0,0,0,.26-.12l0,0c.14,0,.27-.28.27-.39v0l.57.09h.3c0-.09,0-.16.06-.24A1.14,1.14,0,0,0,43.86,5.35ZM40.59,6.69c0-.13-.07-.17-.18-.17a.17.17,0,0,0-.18.11c.11,0,.24.08.36.12Zm-.35-2a.14.14,0,0,0,.07.14A.46.46,0,0,0,40.24,4.69Zm.16-2.6a.3.3,0,0,0-.14,0l.05.2.13,0Zm.07-1a.12.12,0,0,0-.13.11.13.13,0,0,0,.13.11.12.12,0,0,0,.12-.11A.11.11,0,0,0,40.47,1Zm.36,1.38c0,.09,0,.15-.14.18a.08.08,0,0,1-.07.1l-.1,0h-.06a.13.13,0,0,1-.08,0,.08.08,0,0,1,0,0c0-.14.16-.23.28-.23s.17,0,.21,0Zm-.36-.54s-.1,0-.1.07.06.06.1.06.09,0,.09-.06S40.5,1.88,40.47,1.88Zm.29-.35c-.09,0-.19-.07-.17-.16v0a.17.17,0,0,0-.16.17c0,.1.13.17.23.17s.24-.08.23-.2A.25.25,0,0,1,40.76,1.53ZM40.44,2.6c.08-.06.16-.05.23-.1S40.46,2.51,40.44,2.6Zm.09-.32h.14l-.07-.23-.13,0ZM40.76,7a.34.34,0,0,1,.06.2.27.27,0,0,1-.19.27.14.14,0,0,1,.06.12c0,.08-.1.14-.19.17.22,0,.52,0,.52-.3A.52.52,0,0,0,40.76,7Zm-.14-4.43a0,0,0,0,0,0,0h.07ZM40.7.92s-.1,0-.1.08.07.05.1.05.09,0,.09-.05S40.73.92,40.7.92ZM42.1,7.2a6.56,6.56,0,0,1-.19-1.36.64.64,0,0,1-.17,0c-.33.05-.65.05-.7.46h.1a.39.39,0,0,1,0,.17.1.1,0,0,1-.06.1.52.52,0,0,1,.06.19c0,.08-.1.1-.17.1a2,2,0,0,1-.41-.07l.07,0A.59.59,0,0,1,41,7.2c.2.17.35.37.64.37.1,0,.32,0,.32-.19s-.07-.12-.16-.15a.42.42,0,0,1,.22,0ZM40.78,1.76c-.05,0-.11,0-.11.09a.11.11,0,0,0,.22,0C40.89,1.8,40.83,1.76,40.78,1.76ZM41,6.81a.19.19,0,0,0-.19-.18.21.21,0,0,0-.16.14,2,2,0,0,0,.35.07ZM40.92,1c-.09,0-.23,0-.23.17s.14.17.23.17.24,0,.24-.17S41,1,40.92,1Zm-.09,1-.14,0,.07.24a.44.44,0,0,0,.16,0ZM41,2,40.9,2l.09.23.1-.06Zm0-.37c-.06,0-.13,0-.13.1a.13.13,0,0,0,.26,0C41.18,1.62,41.11,1.59,41.05,1.59ZM42,7.24a.32.32,0,0,1,.06.17c0,.19-.22.23-.35.23a.85.85,0,0,1-.6-.3.6.6,0,0,1,0,.19,1,1,0,0,0,.66.3c.22,0,.52-.11.52-.37S42.1,7.24,42,7.24Zm-.81-5.36a.1.1,0,0,1-.07,0l.07.23.12-.07Zm.13-.55a.13.13,0,0,0-.14.13.14.14,0,0,0,.14.13.15.15,0,0,0,.16-.13C41.45,1.37,41.38,1.33,41.29,1.33Zm0,.43-.07.07.11.18s.07-.06.12-.09ZM41.44,1s-.1,0-.1.06.07.06.1.06.1,0,.1-.06S41.48,1,41.44,1Zm0,.66-.05.06.14.16a.47.47,0,0,0,.09-.06ZM43,3.3c0-.27,0-.53,0-.8-.06.1-.13.18-.21.29a2.55,2.55,0,0,1-.13.61c0,.21-.23.25-.31.42A.94.94,0,0,0,42,3.33h0c-.1,0-.25.33-.45.43a.45.45,0,0,0,0,.11.08.08,0,0,0,0,.07,1.72,1.72,0,0,0,.42-.23A.87.87,0,0,1,42,3.58a.72.72,0,0,1-.54.4.15.15,0,0,0-.06.1.09.09,0,0,0,.06.07c.18,0,.62-.17.7-.34-.11.29-.36.36-.66.39a.17.17,0,0,0,0,.13v0h0a1.11,1.11,0,0,0,.75-.46.78.78,0,0,1-.75.53.23.23,0,0,0-.06.11c0,.08.07.09.13.09a1.26,1.26,0,0,0,.54-.22,3.3,3.3,0,0,0,.9-1ZM41.64,1.08a.17.17,0,0,0-.17.16.16.16,0,0,0,.17.16.18.18,0,0,0,.19-.16A.19.19,0,0,0,41.64,1.08Zm-.06.45a.13.13,0,0,0-.08.06l.17.17.08,0Zm.19-.09-.12.06.19.17a.27.27,0,0,0,.12,0Zm.12-.29a0,0,0,0,0,0,0,.11.11,0,0,0,.1.14h0A.14.14,0,0,0,41.89,1.15ZM42,1.4a.8.8,0,0,0-.15,0l.18.2h.15Zm.29.23.12,0-.15-.25h-.15Zm.28,6.07a.17.17,0,0,0-.16-.11c-.1,0-.13,0-.16.08s.13,0,.17,0Zm-.31-4.56a.73.73,0,0,0,.06-.21c0-.06-.06-.09-.06-.12s0,0,0,0h0s.06.07.06.11A.34.34,0,0,1,42.27,3.14Zm.78,4c-.11.24-.49.27-.72.27a.53.53,0,0,1,0,.12h0c.16,0,.82-.06.82-.31C43.18,7.17,43.1,7.14,43.05,7.13Zm-.52-5.46.08,0a1,1,0,0,1-.13-.23l-.09,0Zm-.08,1.59a.35.35,0,0,0,0-.13s0-.06,0-.1h0c.06,0,.06,0,.06.07A.24.24,0,0,1,42.45,3.26Zm.39,4.28c-.08,0-.13.09-.15.13l.31,0C42.94,7.59,42.88,7.54,42.84,7.54Zm.06-2.23a.08.08,0,0,0-.08.07.07.07,0,0,0,.08.07A.08.08,0,0,0,43,5.38.09.09,0,0,0,42.9,5.31Zm0-.29s-.09.19-.09.23,0,0,0,0,.07-.18.07-.23S43,5,42.94,5Zm-.07-3.4v0a.34.34,0,0,0,.05.19s0-.05,0-.06A.28.28,0,0,0,42.87,1.62ZM44.7,5.71a2.44,2.44,0,0,1-.54,0v0a.27.27,0,0,1,.22.26.06.06,0,0,1,.06,0c0,.09-.16.16-.23.16s0,.09-.07.09-.06,0-.06-.09-.22-.07-.22-.16a.08.08,0,0,1,0,0,.27.27,0,0,1,.2-.26v0c-.13,0-.25,0-.36,0a2.08,2.08,0,0,1-.57-.15A.39.39,0,0,1,43,6V6a2.1,2.1,0,0,0,0,.43,1.62,1.62,0,0,0,.1.62c.08,0,.25.06.25.15h0c.1,0,.27-.14.27-.29a.16.16,0,0,0-.17-.17.21.21,0,0,0-.2.12V6.79c0-.18.07-.34.29-.34a.46.46,0,0,1,.29.11.44.44,0,0,1,.11.31.49.49,0,0,1-.11.31c-.06.06-.1.12-.15.16h.15a1.51,1.51,0,0,1,.3,0S44,7.3,44,7.23A.34.34,0,0,1,44.21,7a.15.15,0,0,1-.05-.08c0-.08.06-.19.15-.19s.06,0,.06,0a5.3,5.3,0,0,0,.33-1ZM43.26,3.1c0-.16.13-.3.13-.49s-.34-.32-.34-.62c0-.09.05-.16.05-.24a.14.14,0,0,0-.05-.11c0,.12-.07.22-.07.35,0,.36.33.38.33.64s-.13.3-.13.47.19.33.19.52-.22.32-.22.56.12.31.12.48-.19.32-.25.45c.11-.15.32-.28.32-.46s-.13-.31-.13-.47.23-.33.23-.56S43.26,3.29,43.26,3.1Zm-.21,1.43s0,0,0,.07,0,.07,0,.07.06,0,.06-.07S43.1,4.53,43.05,4.53ZM43.1,2.6s-.08,0-.08.07,0,.07.08.07a.07.07,0,0,0,0-.14Zm0,.42s0,.14,0,.15,0,.16,0,.16,0-.14,0-.16S43.1,3,43.08,3Zm0,1.31a.39.39,0,0,1,.11.27.43.43,0,0,1-.07.26.41.41,0,0,0,.1-.26A.3.3,0,0,0,43,4.33Zm.09.92s-.08,0-.08.06.05.07.08.07.08,0,.08-.07S43.18,5.25,43.13,5.25Zm0,2.15c-.08,0-.11.12-.13.19s.19-.06.23-.13A.11.11,0,0,0,43.18,7.4Zm-.07-3.59a.57.57,0,0,0,0,.16.58.58,0,0,0,0,.14s0-.13,0-.14S43.14,3.81,43.11,3.81Zm0-1.42a.4.4,0,0,1,.1.28.48.48,0,0,1-.07.26.36.36,0,0,0,.11-.26A.35.35,0,0,0,43.1,2.39Zm0,1.14s0,.05,0,.08,0,.07,0,.07.06,0,.06-.07S43.18,3.53,43.15,3.53Zm.05-1.61a.31.31,0,0,1,0-.17h0a.06.06,0,0,0,0,0,.37.37,0,0,0-.07-.19v0a.32.32,0,0,0,0,.16.33.33,0,0,0-.09.22.37.37,0,0,0,.18.3A.44.44,0,0,1,43.2,1.92Zm-.05,1.41a.46.46,0,0,1,.11.28.37.37,0,0,1-.08.24.31.31,0,0,0,.12-.24A.33.33,0,0,0,43.15,3.33Zm0,1.79a.25.25,0,0,0,0,.13.5.5,0,0,1,.21-.39A.28.28,0,0,0,43.18,5.12Zm.57,1.57a.39.39,0,0,0-.29-.17.29.29,0,0,0-.28.25.32.32,0,0,1,.21-.09.25.25,0,0,1,.23.27c0,.18-.19.25-.35.29a.17.17,0,0,1,.09.14l.2,0a1.09,1.09,0,0,0,.19-.27.59.59,0,0,0,0-.2A.44.44,0,0,0,43.75,6.69Zm-.38-1.55a.05.05,0,0,0-.06-.06.07.07,0,0,0-.07.06s0,.05,0,.05,0-.05.09-.05a0,0,0,0,0,0,0Zm0-3.22a.06.06,0,0,0-.07.07s0,.06.07.06A.06.06,0,0,0,43.39,2,.07.07,0,0,0,43.33,1.92Zm0,3.26s-.09,0-.09.07,0,.07.09.07a.07.07,0,1,0,0-.14Zm0-2a.09.09,0,0,0,.07,0,.07.07,0,0,0,.06-.07A.07.07,0,0,0,43.44,3s-.07,0-.07,0a.43.43,0,0,1,.06-.22.3.3,0,0,0-.1.23.34.34,0,0,0,.17.3A.53.53,0,0,1,43.37,3.14Zm0,1a.33.33,0,0,0,.1.26.51.51,0,0,1-.07-.24.41.41,0,0,1,.12-.28A.3.3,0,0,0,43.34,4.18ZM45,1.93l-.12,0a.3.3,0,0,1,0,.08s.09,0,.09.07-.07.11-.12.13.15,0,.15.09-.06.1-.1.12.16,0,.16.09-.06.1-.11.12.12,0,.12.08a.15.15,0,0,1-.09.13c.05,0,.15,0,.15.09A.18.18,0,0,1,45,3s.12,0,.12.07-.09.12-.12.15.12,0,.12.08-.08.1-.12.12.13,0,.13.08a.19.19,0,0,1-.1.15s.1,0,.1.07-.07.1-.1.13.11,0,.11.09a.15.15,0,0,1-.1.13c.06,0,.1,0,.1.08s-.11.1-.15.13.15.05.15.09-.11.13-.15.13.17,0,.17.07-.12.09-.16.15.16,0,.16.08S45,4.91,45,5s.14,0,.14.07,0,.11-.08.11-.07,0-.09-.09a.11.11,0,0,1-.1.09c-.06,0-.09-.09-.1-.13a.15.15,0,0,1-.1.07A.18.18,0,0,1,44.52,5s0,.11-.08.11S44.34,5,44.31,5s0,.11-.12.11-.08,0-.08-.11,0,.1-.1.1-.1-.06-.12-.1,0,.1-.1.1,0,0,0,0V5s.11-.09.11-.15,0,0-.06,0,0,0,0,0a.19.19,0,0,0-.09.11s0,0,0-.08.05-.08.1-.11-.09,0-.09-.1.07-.07.12-.08h0v0a.15.15,0,0,1-.09-.13s0-.05.09-.07h0a.15.15,0,0,1-.08-.12s0-.06.08-.07h0l0,0V4.07s.07,0,.11,0,.09,0,.09,0S43.86,4,43.83,4h-.08l0,0a.23.23,0,0,1,0,.11.17.17,0,0,1-.1-.13.12.12,0,0,1,.1-.07h0V3.85a.14.14,0,0,0,.11,0s.09,0,.09,0-.09-.07-.12-.07-.07,0-.08,0h0a.22.22,0,0,1,0,.1v0a.13.13,0,0,1-.1-.12c0-.06,0-.07.1-.08h0v0c-.06,0-.12-.06-.12-.11a.11.11,0,0,1,.1-.09s-.13-.07-.13-.12.09-.08.12-.11-.12-.06-.12-.1.06-.09.09-.1S43.57,3,43.57,3s.08-.09.12-.1-.15-.06-.15-.1.09-.11.13-.12-.13,0-.13-.1.06-.1.11-.12-.14-.07-.14-.11.08-.07.11-.09-.15,0-.15-.11.09-.09.13-.1-.16-.06-.16-.12.07-.09.12-.1-.13,0-.13-.12.08-.08.13-.1h-.2A14.64,14.64,0,0,1,43.6,4v.11a5.83,5.83,0,0,1-.09,1l.24,0H44a4.61,4.61,0,0,1,1.18.17c0-.36,0-.75,0-1.11A14.3,14.3,0,0,0,45,1.93Zm.94,5.64-.22,0a.58.58,0,0,0,.19-.38A.44.44,0,0,0,45.79,7a.73.73,0,0,1-.27.65.76.76,0,0,0,0-.14.43.43,0,0,0-.08-.2.37.37,0,0,1-.42.4h0a2,2,0,0,1-.42-.12c-.13,0-.24-.07-.36-.08l-.47-.08a1.7,1.7,0,0,0-.39,0,.33.33,0,0,1,0,.1,1,1,0,0,1,.31,0h.08a3.57,3.57,0,0,1,.72.16,3,3,0,0,0,.88.23.74.74,0,0,0,.6-.27ZM43.46,4.11s-.06,0-.06.07,0,.08.06.08a.07.07,0,0,0,.07-.08A.08.08,0,0,0,43.46,4.11Zm0,.4s0,.15,0,.16,0,.16,0,.16,0-.14,0-.16S43.49,4.51,43.46,4.51Zm.14-2.88s-.09,0-.09,0,.09.08.14.08.08,0,.08-.06S43.65,1.63,43.6,1.63Zm.17.29,0,0a.19.19,0,0,0-.12,0s-.09,0-.09,0,.09.06.13.06a.13.13,0,0,0,.08,0Zm-.14,3.23a.1.1,0,0,0-.09.09.12.12,0,0,0,.09.1.11.11,0,0,0,.1-.1A.09.09,0,0,0,43.63,5.15Zm.12-3.07-.09,0s-.09,0-.09,0,.09.07.12.07h.06a.11.11,0,0,0,0-.06S43.76,2.09,43.75,2.08Zm0,.21s-.16,0-.16,0,.08.05.11.05h0s0,0,0-.05A.06.06,0,0,0,43.75,2.29Zm0,.85s-.1,0-.1,0,.05.07.1.07.11,0,.11,0S43.77,3.14,43.75,3.14Zm0,1.51h0s-.06,0-.06,0a.07.07,0,0,0,.06,0,.1.1,0,0,0,.08,0s.09,0,.09-.06S43.83,4.65,43.79,4.65Zm.92-1.94a.28.28,0,0,0-.14.06s0-.09,0-.1l.06,0s.1,0,.17,0a.09.09,0,0,0,.08-.08c0-.07-.08-.12-.15-.12a.24.24,0,0,0-.17.09l0-.09c0-.11.24,0,.24-.14s0-.07-.08-.07a.28.28,0,0,0-.18.12l0-.07c0-.1.17,0,.17-.13s0-.07-.06-.07a.16.16,0,0,0-.14.13l0-.07c0-.09.1-.07.1-.12a.06.06,0,0,0,0,0h0s-.08.07-.1.11,0,0-.06,0a.19.19,0,0,0,0-.1c0-.05,0-.06,0-.06s0,0,0,.06,0,.07,0,.11a0,0,0,0,0,0,0S44.18,2,44.11,2s0,0,0,0,.08,0,.11.13a.35.35,0,0,0,0,.06c0-.06-.09-.12-.16-.12a.06.06,0,0,0-.06.06c0,.13.15,0,.18.16l0,.05A.21.21,0,0,0,44,2.28s-.09,0-.09.06.17,0,.23.16v.1a.24.24,0,0,0-.22-.12.11.11,0,0,0-.11.12s0,.08.1.08.08,0,.11,0,.06,0,.09,0v.09a.28.28,0,0,0-.14-.06.24.24,0,0,0-.16.06.14.14,0,0,0,0,.09s0,.05,0,.07,0,0,0,0,.1-.09.22-.09h.05s0,.06,0,.06-.23.06-.23.14.1.13.16.13.06-.16.17-.18h.08a.14.14,0,0,0,0,.26.13.13,0,0,0,.13-.13A.15.15,0,0,0,44.35,3l.07,0c.09,0,.1.18.16.18s.16-.08.16-.14-.13-.13-.22-.13a.13.13,0,0,0,0-.06h.07c.09,0,.13.09.2.09s.07,0,.07-.09A.17.17,0,0,0,44.71,2.71Zm-.89.87s0,0-.07,0h0l0,0s0,0,.1,0,.1,0,.1,0S43.86,3.58,43.82,3.58Zm0-.23a.09.09,0,0,0-.07,0l0,0,0,0s.07,0,.11,0,.09,0,.09,0S43.86,3.35,43.82,3.35Zm0,1.09a.08.08,0,0,0-.07,0l0,0,0,0a.18.18,0,0,0,.11,0s.09,0,.09,0S43.86,4.44,43.82,4.44Zm0-.23s-.1,0-.1.06.08.06.11.06.1,0,.1-.06S43.88,4.21,43.85,4.21Zm.06.94s-.11,0-.11.09a.13.13,0,0,0,.11.1s.08-.06.08-.1A.09.09,0,0,0,43.91,5.15ZM44,1.67a.14.14,0,0,0-.14.13.13.13,0,0,0,.14.13.13.13,0,0,0,.13-.13A.13.13,0,0,0,44,1.67ZM44.4,6h0a.34.34,0,0,1-.46,0h0A.14.14,0,0,0,44,6.1h-.06a.42.42,0,0,0,.23.08s.25,0,.25-.13ZM45,4.13l-.11,0a.4.4,0,0,0-.18,0,.24.24,0,0,0,.14-.1s.07,0,.1,0,.12,0,.12,0S45,3.94,45,3.94a.15.15,0,0,0-.11,0s0,0-.06,0a.33.33,0,0,0-.15,0,.4.4,0,0,0,.06-.16s0,0,0,0-.12.08-.16.12,0-.22,0-.22-.1.16-.11.18-.06-.16-.13-.16,0,.07,0,.08a.45.45,0,0,0,0,.12s-.13-.12-.17-.12v0h0a.38.38,0,0,0,.09.18A.77.77,0,0,0,44,4s0,0,0,0,.13.1.16.13-.19,0-.19.07.16.08.19.08-.16.1-.16.14h0a.72.72,0,0,0,.19,0c0,.06-.09.13-.09.17s0,0,0,0a.33.33,0,0,0,.17-.1s0,.19,0,.19.11-.13.12-.16.06.16.11.16,0-.09,0-.1v-.1s.1.11.16.11a0,0,0,0,0,0,0s0-.11-.09-.17a.32.32,0,0,0,.16,0c.06,0,.06,0,.06,0s-.12-.12-.15-.13a.66.66,0,0,0,.15,0s0,0,.08,0,.13,0,.13-.06S45,4.13,45,4.13Zm-1,.38v0h0s0,0,0-.06S44,4.49,44,4.51Zm.06.26c-.06,0-.06.08-.06.11S44,5,44,5s0-.07,0-.1S44,4.77,44,4.77Zm.13,1h-.09l.07,0a.24.24,0,0,1-.1,0v0s0,0,.07,0H44l.05,0H44L44,6l-.08,0V6S44,6,44,6H44a.48.48,0,0,0,.2.07.53.53,0,0,0,.2-.07C44.32,5.89,44.28,5.77,44.14,5.77ZM44,3.88s0-.06,0,0h0a.08.08,0,0,0,0,0Zm.08-.55a.1.1,0,0,0-.1.1.09.09,0,0,0,.1.1s.08,0,.08-.1A.09.09,0,0,0,44.11,3.33Zm.54.91s.09.1.12.12l-.13,0s0,0,0,0a.74.74,0,0,0,0,.14s-.1-.09-.13-.09,0,.12,0,.12v0s-.06-.12-.09-.12-.09.12-.1.13,0-.16,0-.16-.09,0-.12.08a.27.27,0,0,0,.05-.13,0,0,0,0,0,0,0c-.06,0-.09,0-.13,0s.11-.09.11-.12S44,4.18,44,4.18s.15,0,.15,0S44.06,4,44,4h.13s.05,0,.05,0a.18.18,0,0,0-.05-.12.21.21,0,0,0,.12.07s0-.05,0-.1V3.79s0,.13.09.13.07-.1.09-.13,0,.16,0,.16a.18.18,0,0,0,.13-.08.25.25,0,0,0,0,.14h.16s-.12.07-.12.12.13,0,.15,0S44.65,4.2,44.65,4.24Zm-.37,3c0-.08,0-.19-.07-.23s-.19.11-.19.18.2.12.26.15Zm0-4.24a.25.25,0,0,1-.25-.25c0-.1.12-.68.25-.68s.23.55.23.67S44.48,3,44.31,3Zm-.15,2.12a.09.09,0,0,0-.08.1.08.08,0,0,0,.08.08c.05,0,.11,0,.11-.08A.12.12,0,0,0,44.16,5.14Zm.15-3c-.12,0-.2.45-.2.53s0,.23.2.23.2-.1.2-.23S44.44,2.18,44.31,2.18Zm-.2,4s0,0,0,.06,0,0,0-.06Zm.07-.83a1.27,1.27,0,0,1,0,.26h.14a2.3,2.3,0,0,0,0-.26Zm0-1.63c0-.05,0-.06,0-.06v0s0,0,0,0Zm0,.86a.07.07,0,0,0,0,.06v0h0s.05,0,.05-.07A0,0,0,0,0,44.19,4.6Zm0,.15c-.05,0-.06.08-.06.11s0,.09.06.09.06-.07.06-.09S44.25,4.75,44.21,4.75Zm.2-.81a.23.23,0,0,0-.23.24.24.24,0,0,0,.23.25.26.26,0,0,0,.23-.25A.25.25,0,0,0,44.41,3.94Zm1,3.14a1.85,1.85,0,0,1-1.09-.34.16.16,0,0,0,0,.11v0a1.69,1.69,0,0,0,1,.31h.13s0,0,0,0Zm-1-3.78s-.06.09-.06.12,0,.1.06.1,0-.09,0-.1S44.38,3.3,44.35,3.3Zm.07,1.86a.09.09,0,0,0-.1.1.1.1,0,0,0,.2,0A.09.09,0,0,0,44.42,5.16ZM44.7,7.4c0-.09-.05-.26-.16-.26s-.16.16-.19.23.23,0,.35.06Zm-.29-2.74a0,0,0,0,0,0,0,.15.15,0,0,0,0,.06l0-.06ZM45,5.5a4.44,4.44,0,0,0-.62-.1c0,.08,0,.17,0,.24a4.83,4.83,0,0,0,.67,0Zm-.61-1.88s0,0,0,0,0,0,0,0,0,0,0,0S44.42,3.64,44.41,3.62Zm0,1.13s-.06.08-.06.11,0,.1.06.1,0-.08,0-.1S44.47,4.75,44.44,4.75Zm1.07,1.64a.9.9,0,0,1-.58-.19.82.82,0,0,0,.46.13h.06A1.31,1.31,0,0,1,45.2,6a.38.38,0,0,1-.33-.13.51.51,0,0,0,.22.09l.07,0c0-.07-.07-.16-.12-.24h-.31a.32.32,0,0,1,0,.16,3.15,3.15,0,0,1-.36.85,1.76,1.76,0,0,0,.85.29V7a.82.82,0,0,1-.54-.23.9.9,0,0,0,.54.16h0a.47.47,0,0,1,.06-.09,1.12,1.12,0,0,1-.53-.21,1.17,1.17,0,0,0,.53.14h0l.09-.1a1.13,1.13,0,0,1-.52-.2,1,1,0,0,0,.57.13l.08-.06Zm-1-4.63a.19.19,0,0,0,0,.09.13.13,0,0,0,.14.13.14.14,0,0,0,.13-.13Zm.14,1.59c-.07,0-.11,0-.11.08s0,.1.11.1a.09.09,0,0,0,.09-.1A.1.1,0,0,0,44.61,3.35Zm0,1.31s0-.06,0-.06v0s0,.06,0,.06Zm0,.11s0,.08,0,.11,0,.11,0,.11.06-.08.06-.11S44.7,4.77,44.64,4.77Zm0,.42a.08.08,0,0,0-.08.09c0,.06,0,.09.08.09a.09.09,0,0,0,.1-.09A.11.11,0,0,0,44.68,5.19Zm0-1.51s0,0,0,.06v0s.06,0,.06-.07ZM44.78,2s-.13,0-.13.06.06.06.09.06.12,0,.12-.06S44.81,2,44.78,2ZM44.9,3.1s-.13,0-.13.07.06.05.09.05.13,0,.13-.06S44.93,3.1,44.9,3.1Zm0,.22s-.13,0-.13.06.08.05.1.05.14,0,.14-.07S44.94,3.32,44.91,3.32Zm0,.42s-.13,0-.13.07l0,0s-.06,0-.06.06h0s.06,0,.06,0,.17,0,.17-.07S45,3.74,44.94,3.74Zm-.1.79s0,0-.06,0h0s0,0,.06,0Zm.28,2.93c0-.09,0-.19-.15-.19a.21.21,0,0,0-.19.17c.1,0,.24,0,.34,0Zm-.32.07a.6.6,0,0,0,.23.06.34.34,0,0,0,.17,0Zm.14-4s-.13,0-.13.07.06.05.09.05.13,0,.13-.08S45,3.52,44.94,3.52Zm0,1.74a.09.09,0,0,0-.1.09.1.1,0,0,0,.1.09c.05,0,.11,0,.11-.09A.1.1,0,0,0,44.91,5.26Zm0-1,0,0a.07.07,0,0,0,0,.06.06.06,0,0,0,0,0S44.88,4.28,44.86,4.28Zm.1.11s-.12,0-.12.05.06.06.09.06.11,0,.11-.07S45,4.39,45,4.39Zm0,.4c-.11,0-.15.06-.15.16s0,.1,0,.1.06-.09.06-.1v0s.13,0,.13-.06S45,4.79,45,4.79Zm0-.2s-.11,0-.11.07,0,0,.08,0,.13,0,.13-.06S45,4.59,45,4.59Zm0-.52a.06.06,0,0,0-.06,0H45ZM47,7a.36.36,0,0,1-.21.09c.07,0,.13-.09.18-.16h0A.39.39,0,0,1,46.7,7c.09,0,.18-.16.18-.16a1.14,1.14,0,0,1-.09-.16.54.54,0,0,1-.23.11.42.42,0,0,0,.19-.16l0,0a.27.27,0,0,1-.2.08h0a.32.32,0,0,0,.19-.14l-.06-.06a.26.26,0,0,1-.2.1.29.29,0,0,0,.17-.16l-.06,0a.4.4,0,0,1-.23.1.62.62,0,0,0,.21-.15A1.5,1.5,0,0,1,46.34,6a1.05,1.05,0,0,1-.21.12A.54.54,0,0,0,46.31,6a1.13,1.13,0,0,1,0-.18,1.11,1.11,0,0,1,.13-.36.83.83,0,0,1-.21.06c.08,0,.17-.1.26-.14a2.05,2.05,0,0,0,.08-.2l-.18,0,.23-.13,0-.07a1,1,0,0,1-.25.07,1.07,1.07,0,0,0,.27-.16l0-.09a.56.56,0,0,1-.23.06.63.63,0,0,0,.26-.16l0-.07a.55.55,0,0,1-.23.07.46.46,0,0,0,.26-.16l0-.08a.84.84,0,0,1-.31.08.67.67,0,0,0,.32-.17h0a1,1,0,0,1,0-.25h-.19s0,.06,0,.07,0,.05,0,.09,0,.09-.1.09a.1.1,0,0,1-.08-.09l-.07,0c-.06,0-.11-.1-.11-.1a.07.07,0,0,1-.07,0,.11.11,0,0,1-.1-.1h-.06A.09.09,0,0,1,46,4s0,0,0,0a.1.1,0,0,1-.09,0c0,.2,0,.41,0,.63,0,.38,0,.74-.07,1.11A4,4,0,0,0,45,5.5c.14.39.36.85.84.85h-.09a.62.62,0,0,1-.23,0,.68.68,0,0,0,.46.19h-.27a.54.54,0,0,0,.39.12.32.32,0,0,1-.13,0,.23.23,0,0,1-.12,0,.36.36,0,0,0,.36.21H46A.33.33,0,0,1,46,7a1.09,1.09,0,0,0,.52.11A.68.68,0,0,0,47,7,.16.16,0,0,0,47,7ZM45.17,5.32a.09.09,0,0,0-.08.1.08.08,0,0,0,.08.09.1.1,0,0,0,.1-.09A.11.11,0,0,0,45.17,5.32Zm0-3.26s-.07,0-.07.06,0,.06.07.06.06,0,.06-.06S45.2,2.06,45.19,2.06Zm.17,5.18h-.22c0,.09.06.17.08.25h.05a.3.3,0,0,0,.12-.25Zm-.11-4.56a.19.19,0,0,0,0,.13v.08a.24.24,0,0,0,0-.13A.19.19,0,0,0,45.25,2.68Zm0,.34a.08.08,0,0,0-.07.07.08.08,0,0,0,.07.07.09.09,0,0,0,.07-.06A.09.09,0,0,0,45.29,3Zm.19.53c0-.17.14-.32.14-.51s-.33-.3-.33-.62c0-.08,0-.15,0-.24a.24.24,0,0,0,0-.12c0,.13-.07.23-.07.36,0,.35.32.38.32.62s-.15.32-.15.51.21.32.21.5-.25.32-.25.55.12.32.12.48-.19.33-.25.44c.12-.12.32-.26.32-.44s-.1-.31-.1-.46.23-.35.23-.57S45.48,3.72,45.48,3.55Zm-.18-.12a.84.84,0,0,0,0,.18.66.66,0,0,0,0,.15s.05-.14.05-.15S45.35,3.43,45.3,3.43Zm0-.62a.4.4,0,0,1,.1.28.52.52,0,0,1-.06.26.42.42,0,0,0,.12-.26A.34.34,0,0,0,45.29,2.81ZM45.35,4a.06.06,0,0,0-.06,0c0,.05,0,.09.06.09A.09.09,0,0,0,45.42,4,.1.1,0,0,0,45.35,4Zm-.05.8a.48.48,0,0,1,.08.28.42.42,0,0,1-.09.27A.42.42,0,0,0,45.43,5,.4.4,0,0,0,45.3,4.77Zm0-.34a.13.13,0,0,0,0,.1.16.16,0,0,0,0,.1.35.35,0,0,0,0-.12S45.35,4.44,45.33,4.43Zm.09,1c-.06,0-.09,0-.09.08s0,.07.09.07a.08.08,0,0,0,.07-.07A.08.08,0,0,0,45.42,5.42Zm-.07-1.68a.59.59,0,0,1,.1.28.4.4,0,0,1-.07.29A.41.41,0,0,0,45.51,4,.34.34,0,0,0,45.35,3.74Zm.31,2.79a.86.86,0,0,0-.31.48h0a.14.14,0,0,1,.06.16.45.45,0,0,1,.16.2.53.53,0,0,0,.09-.3.89.89,0,0,0-.08-.35.69.69,0,0,1,.31.32H46A.9.9,0,0,0,45.66,6.53Zm-.24-4.11a.46.46,0,0,1,0-.21.44.44,0,0,0-.1.23.42.42,0,0,0,.17.3A.5.5,0,0,1,45.42,2.42Zm.11,0a.06.06,0,0,0-.05.06.06.06,0,0,0,.05.06s.08,0,.08-.06S45.58,2.42,45.53,2.42Zm0,3s-.05,0-.07.07h0Zm0-.74a.42.42,0,0,0,.12.26.39.39,0,0,1-.06-.26.39.39,0,0,1,.1-.27A.34.34,0,0,0,45.56,4.63Zm.06-1.15a.3.3,0,0,1,.06-.22.39.39,0,0,0-.1.24.34.34,0,0,0,.16.29A.43.43,0,0,1,45.62,3.48Zm.06,2c-.06,0-.09,0-.09.07s0,.07.09.07a.08.08,0,0,0,.07-.07A.07.07,0,0,0,45.68,5.5Zm0-2.07a.06.06,0,0,0-.06.06.06.06,0,0,0,.06.06.07.07,0,0,0,.07-.06S45.75,3.43,45.71,3.43Zm1.51,1.78V5a3.32,3.32,0,0,0-.5-1.78,2.88,2.88,0,0,0-1.06-1c.05.33.12.64.15,1a2.86,2.86,0,0,0,.94.69h0c-.3,0-.67-.46-.88-.66l0,.32a1.63,1.63,0,0,0,1,.5V4a1.13,1.13,0,0,1,.23.74c0,.2,0,.4,0,.61s.13.34.24.6c0,0,.06,0,.06-.06s-.19-.27-.19-.57c0,0,0-.08,0-.1,0,.36.13.34.21.62,0,0,.07,0,.07-.08S47.22,5.45,47.22,5.21Zm-1.54-2.4s0,0,0,.06,0,.25.06.23,0,0,0-.06S45.71,2.8,45.68,2.81Zm.06,1.75s-.08,0-.08.06a.09.09,0,0,0,.06.07.06.06,0,0,0,.07-.07S45.78,4.56,45.74,4.56Zm0,.46s0,.13,0,.14,0,.16,0,.16a.58.58,0,0,0,0-.14S45.74,5,45.71,5Zm0-1.1s0,.13,0,.15,0,.16,0,.16,0-.13,0-.16S45.77,3.92,45.74,3.92Zm.13,3.57a0,0,0,0,1,0,0,1.47,1.47,0,0,0-.1.13s.09,0,.11,0A.11.11,0,0,1,45.87,7.49Zm0-3.87v.23s.07,0,.07,0,0-.06,0-.07S45.89,3.68,45.87,3.62Zm0,.23h0v.06h0s0,0,0,0S45.94,3.85,45.91,3.85Zm1.72,3a.36.36,0,0,1,.08.2.16.16,0,0,1,0,.12.41.41,0,0,0-.23-.06.31.31,0,0,1,.11.25.47.47,0,0,1-.51.43A7.48,7.48,0,0,1,46,7.67l0,0c.16,0,.32,0,.46,0a5.28,5.28,0,0,0,.71.1c.33,0,.79-.14.79-.58A.5.5,0,0,0,47.63,6.85Zm-1.56.45c-.09,0-.12.13-.12.19h0a.46.46,0,0,0,.15-.09.26.26,0,0,1-.05.12h.09s0,0,0-.08S46.15,7.3,46.07,7.3Zm1-.17a1,1,0,0,1-.46.1A1.87,1.87,0,0,1,46,7.11v0c0,.15.59.21.73.21a.73.73,0,0,0,.41-.13S47.05,7.14,47,7.13ZM46,3.82v0h0ZM46,4h0V4h0a0,0,0,0,0,0,0s0,0,0,0S46.05,4,46,4Zm0,3.66h.17L46,7.6Zm.06-3.78s0,0,0,0A.11.11,0,0,1,46,4h0s0-.06,0-.09Zm0,.09,0,0h0Zm.12.11s0,0,0,0V4h0a.09.09,0,0,1-.08.06.05.05,0,0,1,0,0v0l.07,0Zm-.06,0h0v0a0,0,0,0,0,0,0,0,0,0,0,0,0,0S46.2,4.08,46.17,4.08ZM46.24,4h0Zm.3,3.58c0-.06,0-.22-.11-.22s-.15.11-.17.19l.28,0Zm-.18-3.53s0,0,0-.05h0s0,.05-.06.05h0s0,0,0,.07h0a.13.13,0,0,1,.07,0Zm0,.07s-.06,0-.06,0,0,0,.06,0a0,0,0,0,0,0,0S46.37,4.14,46.36,4.14Zm0,0,0,0,0,0,0,0Zm.11,0v0h0a.05.05,0,0,1-.05,0,.11.11,0,0,1,0,.07l.06,0S46.5,4.13,46.5,4.11Zm0,.07a.06.06,0,0,0-.05.06s0,0,.05,0a0,0,0,0,0,0,0A0,0,0,0,0,46.52,4.18Zm0,0v0h0Zm.26,3.3c-.11,0-.16.09-.17.2H47C47,7.53,46.9,7.43,46.8,7.43Zm.31-.12a.34.34,0,0,1-.18.07.27.27,0,0,1,.13.21s.06,0,.1,0A.78.78,0,0,0,47.11,7.31Zm9.52.41c-.58,0-1.17,0-1.75,0s-1.14,0-1.7,0V7.6c.79-.06,1-.16,1-1V4.05H51v2.5c0,.89.29,1,1.07,1v.12l-1.72,0-1.73,0V7.6c.78-.06,1.07-.16,1.07-1V1.64c0-.9-.27-1-1.07-1V.46l1.73,0L52,.46V.59c-.79,0-1.07.16-1.07,1v2.2h1.4l1.86,0V1.64c0-.9-.26-1-1-1V.46c.56,0,1.14,0,1.7,0s1.17,0,1.75,0V.59c-.78,0-1.09.16-1.09,1V6.55c0,.89.32,1,1.09,1Zm4.09,0L59,7.69c-.6,0-1.16,0-1.74,0V7.6c.78-.06,1.07-.16,1.07-1V1.64c0-.9-.27-1-1.07-1V.46c.58,0,1.14,0,1.74,0l1.71,0V.59c-.79,0-1.08.16-1.08,1V6.55c0,.89.3,1,1.08,1ZM69.25.59c-1,.06-1.06,1-1.06,1.92V7.8h-.75L62.71,2.12V5.67c0,1.1.21,1.86,1.33,1.93v.12c-.48,0-1,0-1.44,0s-.83,0-1.23,0V7.6c1.05-.07,1.05-1,1.05-1.93V2.41c0-.61-.05-1.46-.66-1.7a1.7,1.7,0,0,0-.63-.1V.48H63l4.89,5.84V2.51c0-1.14-.18-1.88-1.36-1.92V.46c.49,0,1,0,1.5,0s.81,0,1.2,0ZM73.6,7.7a6.74,6.74,0,0,1-1,0c-.4,0-.8,0-1.21,0-.6,0-1.18,0-1.76,0V7.6c.78-.06,1.07-.16,1.07-1V1.64c0-.9-.28-1-1.07-1V.46c.59,0,1.17,0,1.77,0s1,0,1.53,0C75.1.46,77,1.44,77,4.07,77,6.53,75.58,7.49,73.6,7.7Zm-.95-7A3.41,3.41,0,0,0,72,.78V6.36c0,.79.28,1.11,1,1.13a2.1,2.1,0,0,0,.59,0c1.5-.27,2-1.45,2-3.23C75.56,2.14,74.66.71,72.65.71ZM85,.59c-1.08.06-1.15.72-1.15,1.75v2.8a2.37,2.37,0,0,1-2.64,2.68c-1.4,0-2.92-.44-2.92-2.28V1.63c0-.89-.29-1-1.06-1V.46c.57,0,1.13,0,1.73,0l1.7,0V.59c-.78,0-1.07.16-1.07,1V5.12c0,1.47.39,2.41,1.85,2.41s2.1-.91,2.1-2.52V2.34c0-1.24-.29-1.69-1.45-1.75V.46l1.57,0c.45,0,.89,0,1.34,0Z"/><path class="cls-2" d="M283.43,36.46l-.05-.45c-.52-4.31-3.59-6.39-10-9.76-4.74-2.5-6.84-4.19-6.84-8.27s2.5-6.23,6.74-6.23c3.27,0,4.24.92,5.61,3.27a44.37,44.37,0,0,1,2.35,4.9h.51l-.56-7.86a19.08,19.08,0,0,0-7.5-1.32c-6.58,0-10.21,4.18-10.21,9.18,0,5.21,4,7.85,8.42,10.15,6.07,3.22,8.12,5,8.12,9s-2.66,7.05-7.15,7.05c-3.72,0-5.66-1.23-7.19-3.73a44,44,0,0,1-2.66-5.46h-.51l.61,8.37a21.89,21.89,0,0,0,9.39,1.83c7.61,0,10.92-5.1,10.92-9.69l0-1M260.66,11.71v-.47H250.45v.47l2.55.5c1.84.36,1.94,1.17,1.94,3.58V35.33c0,6.58-2.81,9.84-9.29,9.84s-9.74-2.85-9.74-9.63V14.92c0-2.3.15-2.51,2-2.86l2-.35v-.47h-12.1v.47l2.1.35c1.78.31,1.93.56,1.93,2.86V35.48c0,8.37,4.5,11.63,12.46,11.63,9,0,12.29-5,12.29-11.27V15.73c0-2.5.31-3.16,1.89-3.52l2.15-.5M226.92,36.45h-.51a40.92,40.92,0,0,1-2.65,6.33c-1.33,2.45-2.5,2.91-7.7,2.91-5.67,0-5.92-.62-5.92-3.57V14.92c0-2.3.2-2.55,2-2.86l2-.35v-.47h-12.1v.47l2.1.35c1.78.31,1.93.56,1.93,2.86v28c0,2.3-.2,2.55-1.93,2.86l-2.1.35v.47h24.24l.61-10.16m-27-15.51v-.57c-.24-5.78-4.16-9.13-11.78-9.13H174.77v.47l2.1.35c1.78.31,1.93.56,1.93,2.86v28c0,2.35-.15,2.55-1.93,2.86l-2.1.35v.47h12.76v-.47L185,45.79c-2-.25-2.14-.62-2.14-2.86V12.67a20.11,20.11,0,0,1,4.79-.51c5.77,0,8.07,2.91,8.07,9.34,0,7.09-3.53,10-11.28,9.54v.51a14.55,14.55,0,0,0,3.06.26c8.06,0,12.19-4,12.44-10.26v-.61"/><path class="cls-3" d="M155.38,45.89c-5.61,0-8.47-5-8.47-17.5,0-11.84,2.76-16.43,8.47-16.43,5.87,0,8.42,5.36,8.42,17.65,0,11.79-2.6,16.28-8.42,16.28m-.15,1.28c8.16,0,16.94-5,16.94-18.58,0-12.5-7.65-17.91-16.63-17.91-8.17,0-16.95,5.21-16.95,18.68,0,12.2,7.66,17.81,16.64,17.81m-50.11-.56h15.51V46L119,45.58c-1.84-.45-2-.6-2-3.52V30.28c1,0,2,.1,2.81.1a105.76,105.76,0,0,0,8.72,16.23h10.72V46l-.87-.26c-.87-.21-1.43-.46-2.45-1.89-2.55-3.42-6.38-10.46-8.57-14.85V28.8c4.64-1.48,7.09-4.08,7.09-8.78,0-5.92-4-8.78-12.91-8.78H105.12v.67l1.73.35c1.84.46,2.1.56,2.1,3.53V42.06c0,3-.26,3.07-2.1,3.52l-1.73.37ZM119.66,29a15.26,15.26,0,0,1-2.65-.2V13a17.58,17.58,0,0,1,3.62-.35c3.93,0,5.77,2.3,5.77,8.22,0,6.12-2.35,8.16-6.74,8.16M94.05,12.57c3.57,0,4.13.77,5.35,3,.87,1.63,2.1,4.39,3.27,7.25h.72l-.46-11.54H74.2l-.46,11.54h.76a75.9,75.9,0,0,1,3.32-7.25c1.07-2.09,1.84-3,5.31-3h1.48V42.06c0,2.92-.26,3.07-2.35,3.52L80.47,46v.66H96.7V46l-1.79-.37c-2.14-.45-2.34-.66-2.34-3.52V12.57ZM64.71,21.81H64a19,19,0,0,1-1.38,4.13c-.66,1.33-1.27,1.63-5.25,1.63H55V13a23,23,0,0,1,5-.41c4,0,5.26.41,6.69,2.76a38.12,38.12,0,0,1,2.85,5.77h.72l-.51-9.91H43.17v.67l1.74.35c1.83.46,2.09.62,2.09,3.53V42.06c0,2.92-.26,3.07-2.09,3.52L43.17,46v.66H70.78l.71-11.74h-.76a40.23,40.23,0,0,1-3.47,7.45c-1.59,2.29-2.3,2.91-6.84,2.91-5.15,0-5.41-.41-5.41-3.83V29h2.35c3.93,0,4.59.26,5.25,1.68A21.67,21.67,0,0,1,64,34.82h.72ZM0,46.61H9.54V46l-1.73-.47C5.72,45,5.56,44.41,5.56,40.94v-25h.21l11,29.75h1.68L29.5,15.94h.2V42.06c0,2.92-.25,3.11-2.14,3.52L25.82,46v.66H41.54V46l-1.68-.37c-1.89-.45-2.15-.6-2.15-3.52V15.79c0-2.91.26-3.07,2.15-3.53l1.68-.35v-.67h-12L21,34.1h-.2L12.15,11.24H.1v.67l1.64.35c1.73.41,2.09.67,2.09,3.53v25.3c0,3.37-.31,4-2,4.39L0,46Z"/><path class="cls-4" d="M282.89,60.2v6.46a4.25,4.25,0,0,1-2.86,1c-1.91,0-3.25-1.1-3.25-4.06v-.23c0-2.87,1.43-4,3.5-4a4.42,4.42,0,0,1,2.38.61l.23.17m-.23-.67-.26-.14a4.77,4.77,0,0,0-2.18-.47c-2.33,0-4,1.33-4,4.54v.47c.1,3.1,1.75,4.23,3.68,4.23a4.56,4.56,0,0,0,3-1h0l0,.84h.49V54.85h-.57v4.83l-.23-.15m-8.08,3.84v.27c0,2.7-1.43,4-3.37,4s-3.37-1.23-3.37-4v-.27c0-2.65,1.41-4,3.35-4s3.3,1.08,3.38,3.71v.26m-.07-2.71-.11-.17a3.63,3.63,0,0,0-3.21-1.57c-2.21,0-3.92,1.53-3.92,4.54v.19c0,3,1.61,4.51,3.92,4.51s4-1.57,4-4.58v-.17a5.69,5.69,0,0,0-.54-2.57l-.1-.18m-8.84,2.71v.27c0,2.7-1.43,4-3.37,4s-3.36-1.23-3.36-4v-.27c0-2.65,1.4-4,3.34-4s3.3,1.08,3.38,3.71v.26m-7.3-.19v.47c0,3,1.6,4.51,3.91,4.51s4-1.57,4-4.58v-.17c0-3-1.62-4.49-4-4.49-2.07,0-3.7,1.34-3.89,4l0,.27m0-7v-.5h-7V68H252V62h4.95v-.51H252V56.17"/><path class="cls-5" d="M42,68V61c-.11-1.46-1-2-2.59-2a6.59,6.59,0,0,0-3.44,1h0V54.85h-.57V68h.57V60.39a6.34,6.34,0,0,1,3.27-1c1.54,0,2.23.51,2.23,1.95V68H42m-8.16-.2v-.41a4,4,0,0,1-1.25.22c-1.17,0-1.51-.45-1.51-1.41V59.54H33.6v-.48H31V56.94h-.57v2.12H29.11v.48h1.35v6.77c0,1.21.64,1.8,2,1.8a3.38,3.38,0,0,0,1.12-.19l.25-.1m-6.73.2h.57V54.85h-.57m-2.78,8.52v3.4a3.88,3.88,0,0,1-2.62.93c-1.44,0-2.31-.73-2.31-2s.69-1.93,2.26-2.09l2.67-.28m-2.8-.14-.32,0c-1.59.26-2.38,1.07-2.38,2.5s1.1,2.39,2.77,2.39a3.88,3.88,0,0,0,2.73-.94h0l0,.8h.5V61.45c0-1.8-1-2.53-2.76-2.53a6.61,6.61,0,0,0-2.51.46v.45a6.68,6.68,0,0,1,2.33-.41c1.6,0,2.37.53,2.37,2.13v1.37l-2.8.31M11,62.92l0-.22c.23-2.28,1.59-3.3,3.24-3.3,2,0,2.91,1.3,2.91,3.52H11m6.12-2.61-.1-.15a3.11,3.11,0,0,0-2.74-1.24c-2.14,0-3.86,1.44-3.86,4.54v.19c0,2.94,1.4,4.51,4.18,4.51a6,6,0,0,0,2.83-.64v-.45a6.23,6.23,0,0,1-2.76.59c-2.51,0-3.68-1.33-3.68-4v-.23H17.8v-.33a5.5,5.5,0,0,0-.55-2.62l-.09-.15M8.64,68V55.67H8.05v5.67H.59V55.67H0V68H.59V61.85H8.05V68"/><path class="cls-4" d="M95.52,68V61.27c0-1.69-.92-2.35-2.6-2.35a6.59,6.59,0,0,0-3.44,1h0V54.85h-.57V68h.57V60.39a6.35,6.35,0,0,1,3.28-1c1.53,0,2.22.51,2.22,1.95V68h.57m-8.45-1-.23.13a4.75,4.75,0,0,1-2.13.46c-2.4,0-3.44-1.53-3.44-4v-.25c0-2.78,1.48-3.95,3.35-3.95a4.84,4.84,0,0,1,2.55.58v-.5a4.57,4.57,0,0,0-2.51-.58c-2.25,0-4,1.37-4,4.52v.2c0,2.78,1.29,4.52,3.94,4.52a4.49,4.49,0,0,0,2.64-.71V67l-.21.12M72.94,62.92V62.7c.23-2.28,1.59-3.3,3.25-3.3,2,0,2.9,1.3,2.9,3.52H72.94m.81-3.16-.14.13a4.78,4.78,0,0,0-1.26,3.57v.19c0,2.94,1.41,4.51,4.18,4.51a6.05,6.05,0,0,0,2.84-.64v-.45a6.26,6.26,0,0,1-2.76.59c-2.52,0-3.69-1.33-3.69-4v-.23h6.77v-.33c0-2.6-1.07-4.16-3.48-4.16a3.72,3.72,0,0,0-2.31.73l-.15.11m.15-3.59v-.5H64.81v.5h4.26V68h.57V56.17"/><path class="cls-5" d="M228,68h.57V54.85H228m-8.38,8.07,0-.22c.23-2.28,1.59-3.3,3.24-3.3,2,0,2.91,1.3,2.91,3.52h-6.17m6.12-2.61-.1-.15a3.11,3.11,0,0,0-2.74-1.24c-2.14,0-3.86,1.44-3.86,4.54v.19c0,2.94,1.4,4.51,4.18,4.51a6,6,0,0,0,2.83-.64v-.45a6.23,6.23,0,0,1-2.76.59c-2.51,0-3.68-1.33-3.68-4v-.23h6.77v-.33a5.5,5.5,0,0,0-.55-2.62l-.09-.15m-7.9-1.25-3.1,8.17h0l-3.12-8.17H211l3.44,9H215l3.44-9m-9.28,4.31v3.4a3.86,3.86,0,0,1-2.62.93c-1.44,0-2.31-.73-2.31-2s.69-1.93,2.26-2.09l2.67-.28m-2.8-.14-.32,0c-1.59.26-2.38,1.07-2.38,2.5s1.1,2.39,2.77,2.39a3.88,3.88,0,0,0,2.73-.94h0l0,.8h.5V61.45c0-1.8-1-2.53-2.76-2.53a6.61,6.61,0,0,0-2.51.46v.45a6.68,6.68,0,0,1,2.33-.41c1.6,0,2.37.53,2.37,2.13v1.37l-2.8.31M199.86,68V60.68a4,4,0,0,1,2.78-1.21,3.17,3.17,0,0,1,.53.05V59a2.27,2.27,0,0,0-.5,0,4.06,4.06,0,0,0-2.8,1.21h0v-1.1h-.55v9h.57m-.52-11.85v-.5h-9.08v.5h4.25V68h.57V56.17"/><path class="cls-4" d="M167.39,65.74v-.27c-.09-1.31-.85-1.79-2.3-2.21L164,62.94c-1.25-.37-1.7-.82-1.7-1.87s.75-1.65,2.27-1.65a5.51,5.51,0,0,1,2.35.51v-.48a5,5,0,0,0-2.39-.53c-1.82,0-2.76.89-2.76,2.19s.69,1.94,2.05,2.33l1,.32c1.39.41,1.94.8,1.94,2s-.62,1.89-2.46,1.89a5.83,5.83,0,0,1-2.72-.62v.48a5.89,5.89,0,0,0,2.78.64c2,0,2.86-.92,3-2.17v-.25M159.48,68h.57V54.85h-.57m-8.37,8.07,0-.22c.23-2.28,1.58-3.3,3.24-3.3,2,0,2.9,1.3,2.9,3.52h-6.16m6.12-2.61-.1-.15a3.11,3.11,0,0,0-2.74-1.24c-2.14,0-3.87,1.44-3.87,4.54v.19c0,2.94,1.41,4.51,4.19,4.51a6,6,0,0,0,2.83-.64v-.45a6.26,6.26,0,0,1-2.76.59c-2.51,0-3.69-1.33-3.69-4v-.23h6.77v-.33a5.38,5.38,0,0,0-.55-2.62l-.08-.15m-14.47,2.61V62.7c.23-2.28,1.59-3.3,3.25-3.3,2,0,2.9,1.3,2.9,3.52h-6.16m6.11-2.61-.09-.15A3.15,3.15,0,0,0,146,58.92c-2.13,0-3.86,1.44-3.86,4.54v.19c0,2.94,1.41,4.51,4.18,4.51a6.05,6.05,0,0,0,2.84-.64v-.45a6.26,6.26,0,0,1-2.76.59c-2.52,0-3.69-1.33-3.69-4v-.23h6.77v-.33a5.5,5.5,0,0,0-.55-2.62l-.09-.15M140.58,68V61.27c0-1.69-.92-2.35-2.6-2.35a6.59,6.59,0,0,0-3.44,1h0V54.85h-.57V68h.57V60.39a6.35,6.35,0,0,1,3.28-1c1.53,0,2.22.51,2.22,1.95V68h.57M132,55.67l-2.9,11.42h0l-3.3-11.42h-.51l-3.37,11.42h0L119,55.67h-.59L121.54,68h.64l3.3-11.28h0L128.75,68h.65l3.15-12.35"/><rect class="cls-6" x="53.24" y="53.4" width="0.28" height="16.21"/><rect class="cls-6" x="106.81" y="53.4" width="0.28" height="16.21"/><rect class="cls-6" x="178.68" y="53.4" width="0.28" height="16.21"/><rect class="cls-6" x="239.83" y="53.4" width="0.28" height="16.21"/></g></g></svg>