<svg xmlns="http://www.w3.org/2000/svg" viewBox="0 0 739.67 231.35"><defs><style>.cls-1,.cls-2{fill:#c6168d;}.cls-1,.cls-3{fill-rule:evenodd;}.cls-3{fill:#17479e;}</style></defs><title>TMB</title><g id="Layer_2" data-name="Layer 2"><g id="Layer_1-2" data-name="Layer 1"><path class="cls-1" d="M411.47,104.31h0v46H470c34.67-1.16,30.87-46.79,0-46Zm0-73.31h0V73.38h56C501,71.05,500.51,30.3,464.22,31ZM381,181.4c-1,0-1.54-.43-1.54-1.28V1.67A1.36,1.36,0,0,1,381,.14h86.31c67.12,0,69.12,73.24,33.33,87.69,14.36,6.18,26.74,19,27,41.56q0,24-15.29,38a50.58,50.58,0,0,1-35.69,14Z"/><path class="cls-1" d="M384.38,212.66h0v6.82h6.22a6.24,6.24,0,0,0,2.59-.45,3.23,3.23,0,0,0,1.68-3.19,2.72,2.72,0,0,0-1.63-2.74,6.24,6.24,0,0,0-2.56-.44Zm0-9.87h0v5.63h6.22a5.18,5.18,0,0,0,2.71-.62,2.44,2.44,0,0,0,1-2.25,2.3,2.3,0,0,0-1.37-2.36,9.81,9.81,0,0,0-3-.4Zm13.89-1.72a6.47,6.47,0,0,1,1.18,3.91,5.62,5.62,0,0,1-1.18,3.75,6,6,0,0,1-2,1.47,5.73,5.73,0,0,1,3,2.25,6.81,6.81,0,0,1,1,3.75,7.51,7.51,0,0,1-1.14,4.08,7.08,7.08,0,0,1-1.81,2,7,7,0,0,1-2.89,1.29,17.68,17.68,0,0,1-3.6.34H379.29V198.35h12.35C394.76,198.4,397,199.3,398.27,201.07Z"/><path class="cls-1" d="M408.85,209.66h0a5.18,5.18,0,0,0-1.32,2.94h8.52a4.13,4.13,0,0,0-1.31-3,4.37,4.37,0,0,0-2.94-1,3.94,3.94,0,0,0-2.95,1.08m7.39-4.27a7.73,7.73,0,0,1,3.27,2.8,9.52,9.52,0,0,1,1.52,3.9,28.48,28.48,0,0,1,.16,3.76H407.41a4.6,4.6,0,0,0,2,4,5,5,0,0,0,2.73.7,3.87,3.87,0,0,0,3.76-2.16h5.05a6.23,6.23,0,0,1-1.84,3.41,9.17,9.17,0,0,1-7.11,2.76,10.31,10.31,0,0,1-6.66-2.32q-2.9-2.34-2.89-7.58c0-3.28.87-5.78,2.61-7.54a9.18,9.18,0,0,1,6.76-2.61A10.73,10.73,0,0,1,416.24,205.39Z"/><path class="cls-1" d="M443,214.72h0a5.65,5.65,0,0,1-.95.48,8,8,0,0,1-1.34.34l-1.12.21a7.77,7.77,0,0,0-2.28.67,2.28,2.28,0,0,0-1.16,2.11,2.17,2.17,0,0,0,.71,1.82,2.78,2.78,0,0,0,1.74.57,5.24,5.24,0,0,0,3-.94,4,4,0,0,0,1.41-3.42Zm-3-2.31a7.65,7.65,0,0,0,2-.43,1.49,1.49,0,0,0,1.07-1.41,1.65,1.65,0,0,0-.82-1.6,5.26,5.26,0,0,0-2.4-.44,3.15,3.15,0,0,0-2.52.87,3.5,3.5,0,0,0-.69,1.74h-4.78a7.29,7.29,0,0,1,1.39-4.08q2-2.51,6.76-2.5a12.12,12.12,0,0,1,5.55,1.23c1.61.83,2.41,2.37,2.41,4.64v8.68c0,.6,0,1.33.05,2.18a2.6,2.6,0,0,0,.28,1.32,1.62,1.62,0,0,0,.74.57v.73h-5.38a5.93,5.93,0,0,1-.32-1.06c-.05-.34-.1-.73-.14-1.15a10.71,10.71,0,0,1-2.37,1.89,7.29,7.29,0,0,1-3.62.92,6.29,6.29,0,0,1-4.27-1.47,5.23,5.23,0,0,1-1.69-4.16,5.37,5.37,0,0,1,2.7-5,12.06,12.06,0,0,1,4.38-1.21Z"/><path class="cls-1" d="M464.88,217.88a3.28,3.28,0,0,0,.68,1.87,4.67,4.67,0,0,0,3.42,1,5.23,5.23,0,0,0,2.33-.44,1.43,1.43,0,0,0,.86-1.3,1.41,1.41,0,0,0-.7-1.27,30.1,30.1,0,0,0-5.16-1.49,10.55,10.55,0,0,1-4.55-2,4.31,4.31,0,0,1-1.32-3.4,6,6,0,0,1,2.06-4.51,8.31,8.31,0,0,1,5.8-1.87,10.66,10.66,0,0,1,5.78,1.41,6.12,6.12,0,0,1,2.57,4.88H471.7a3,3,0,0,0-.54-1.51,3.42,3.42,0,0,0-2.78-1,4.1,4.1,0,0,0-2.31.5,1.45,1.45,0,0,0-.69,1.18,1.32,1.32,0,0,0,.73,1.24,33.18,33.18,0,0,0,5.17,1.37,9.35,9.35,0,0,1,4.43,2.1,4.74,4.74,0,0,1,1.45,3.55,5.71,5.71,0,0,1-2.09,4.58q-2.1,1.78-6.48,1.79c-3,0-5.17-.62-6.6-1.88a6.14,6.14,0,0,1-2.12-4.8Z"/><path class="cls-1" d="M478.33,208.7v-3.51H481v-5.28h4.9v5.28h3.05v3.51h-3.05v10c0,.78.08,1.27.28,1.45s.79.3,1.8.3a3.87,3.87,0,0,0,.48,0h.49v3.69l-2.33.09q-3.51.12-4.8-1.22a3.66,3.66,0,0,1-.82-2.62V208.7Z"/><path class="cls-1" d="M496.5,209.66h0a5.05,5.05,0,0,0-1.32,2.94h8.51a4.09,4.09,0,0,0-1.31-3,4.33,4.33,0,0,0-2.93-1,3.94,3.94,0,0,0-2.95,1.08m7.39-4.27a7.79,7.79,0,0,1,3.27,2.8,9.36,9.36,0,0,1,1.5,3.9,23.81,23.81,0,0,1,.17,3.76H495.06a4.59,4.59,0,0,0,2,4,5.08,5.08,0,0,0,2.72.7,4.22,4.22,0,0,0,2.76-.87,4.44,4.44,0,0,0,1-1.29h5a6.1,6.1,0,0,1-1.84,3.41,9.15,9.15,0,0,1-7.1,2.76,10.29,10.29,0,0,1-6.66-2.32c-1.92-1.56-2.89-4.09-2.89-7.58,0-3.28.86-5.78,2.6-7.54a9.19,9.19,0,0,1,6.77-2.61A10.76,10.76,0,0,1,503.89,205.39Z"/><path class="cls-1" d="M522.89,210.6h0a3.51,3.51,0,0,0-3.26-1.69,3.7,3.7,0,0,0-3.73,2.55,9.44,9.44,0,0,0-.53,3.45c0,2.18.59,3.73,1.78,4.62a4,4,0,0,0,2.48.78,3.65,3.65,0,0,0,3.19-1.59,7.52,7.52,0,0,0,1.08-4.25,7.34,7.34,0,0,0-1-3.87m3.8-3.56c1.54,1.64,2.32,4,2.32,7.18q0,5-2.27,7.62a7.36,7.36,0,0,1-5.82,2.61,6.05,6.05,0,0,1-3.77-1.13,7.18,7.18,0,0,1-1.61-1.82v9.85h-4.88V205h4.73v2.8a7.71,7.71,0,0,1,1.71-1.94,6.29,6.29,0,0,1,3.94-1.28A7.44,7.44,0,0,1,526.69,207Z"/><path class="cls-1" d="M551.8,214.72h0a5,5,0,0,1-.95.48,8.13,8.13,0,0,1-1.33.34l-1.13.21a7.78,7.78,0,0,0-2.27.67,2.26,2.26,0,0,0-1.16,2.11,2.19,2.19,0,0,0,.7,1.82,2.8,2.8,0,0,0,1.75.57,5.21,5.21,0,0,0,3-.94,4,4,0,0,0,1.41-3.42Zm-3-2.31a7.75,7.75,0,0,0,2-.43,1.48,1.48,0,0,0,1.06-1.41A1.66,1.66,0,0,0,551,209a5.26,5.26,0,0,0-2.4-.44,3.16,3.16,0,0,0-2.52.87,3.51,3.51,0,0,0-.7,1.74h-4.77a7.22,7.22,0,0,1,1.39-4.08c1.32-1.67,3.57-2.5,6.77-2.5a12,12,0,0,1,5.53,1.23c1.62.83,2.42,2.37,2.42,4.64v8.68c0,.6,0,1.33,0,2.18a2.91,2.91,0,0,0,.3,1.32,1.64,1.64,0,0,0,.73.57v.73h-5.38a8.06,8.06,0,0,1-.31-1.06,11.49,11.49,0,0,1-.13-1.15,11.26,11.26,0,0,1-2.38,1.89,7.3,7.3,0,0,1-3.63.92A6.25,6.25,0,0,1,541.7,223a5.19,5.19,0,0,1-1.68-4.16,5.35,5.35,0,0,1,2.7-5,12,12,0,0,1,4.37-1.21Z"/><path class="cls-1" d="M574.11,205.12a5.46,5.46,0,0,1,2.34,1.86,5,5,0,0,1,1,2.17,30.53,30.53,0,0,1,.16,3.65v11.11h-5.05V212.4a5.06,5.06,0,0,0-.52-2.47,2.58,2.58,0,0,0-2.54-1.31,3.53,3.53,0,0,0-3,1.31,6.08,6.08,0,0,0-1,3.74v10.24h-4.94V198.43h4.94v9a6.2,6.2,0,0,1,2.48-2.28,7,7,0,0,1,3-.65,8.11,8.11,0,0,1,3.17.61"/><path class="cls-1" d="M586.62,209.66h0a5.12,5.12,0,0,0-1.32,2.94h8.51a4.09,4.09,0,0,0-1.32-3,4.31,4.31,0,0,0-2.93-1,3.93,3.93,0,0,0-2.94,1.08m7.39-4.27a7.92,7.92,0,0,1,3.27,2.8,9.36,9.36,0,0,1,1.5,3.9,22.87,22.87,0,0,1,.16,3.76H585.17a4.64,4.64,0,0,0,2,4,5.15,5.15,0,0,0,2.74.7,4.17,4.17,0,0,0,2.74-.87,4,4,0,0,0,1-1.29h5.05a6.16,6.16,0,0,1-1.84,3.41,9.17,9.17,0,0,1-7.11,2.76,10.27,10.27,0,0,1-6.65-2.32q-2.9-2.34-2.9-7.58c0-3.28.87-5.78,2.62-7.54a9.14,9.14,0,0,1,6.75-2.61A10.78,10.78,0,0,1,594,205.39Z"/><path class="cls-1" d="M611.42,214.72h0a5.3,5.3,0,0,1-.95.48,7.86,7.86,0,0,1-1.33.34l-1.13.21a7.78,7.78,0,0,0-2.27.67,2.27,2.27,0,0,0-1.17,2.11,2.17,2.17,0,0,0,.72,1.82,2.73,2.73,0,0,0,1.73.57,5.22,5.22,0,0,0,3-.94,4,4,0,0,0,1.41-3.42Zm-3-2.31a7.86,7.86,0,0,0,2-.43,1.49,1.49,0,0,0,1.07-1.41,1.66,1.66,0,0,0-.82-1.6,5.28,5.28,0,0,0-2.41-.44,3.14,3.14,0,0,0-2.51.87,3.51,3.51,0,0,0-.7,1.74h-4.77a7.15,7.15,0,0,1,1.39-4.08c1.31-1.67,3.57-2.5,6.76-2.5a12.15,12.15,0,0,1,5.55,1.23c1.6.83,2.41,2.37,2.41,4.64v8.68c0,.6,0,1.33,0,2.18a2.72,2.72,0,0,0,.28,1.32,1.73,1.73,0,0,0,.74.57v.73H612a5.13,5.13,0,0,1-.31-1.06,11.32,11.32,0,0,1-.14-1.15,11,11,0,0,1-2.37,1.89,7.28,7.28,0,0,1-3.63.92,6.29,6.29,0,0,1-4.27-1.47,5.22,5.22,0,0,1-1.68-4.16,5.36,5.36,0,0,1,2.71-5,11.94,11.94,0,0,1,4.38-1.21Z"/><path class="cls-1" d="M631.37,218.78h0a6.89,6.89,0,0,0,1.1-4c0-2.31-.58-4-1.77-5a3.69,3.69,0,0,0-2.48-.9,3.5,3.5,0,0,0-3.19,1.64,7.63,7.63,0,0,0-1,4.07,7.48,7.48,0,0,0,1,4.18,3.47,3.47,0,0,0,3.13,1.57,3.64,3.64,0,0,0,3.19-1.56m-1.21-13.47a6.11,6.11,0,0,1,2.17,2.09v-9h5v25.52h-4.79v-2.62a7,7,0,0,1-2.42,2.45,6.58,6.58,0,0,1-3.36.77,7,7,0,0,1-5.57-2.69,10.24,10.24,0,0,1-2.27-6.87,11.88,11.88,0,0,1,2.23-7.62,7.27,7.27,0,0,1,6-2.77A6.24,6.24,0,0,1,630.16,205.31Z"/><path class="cls-1" d="M662.45,218.87h0a8.85,8.85,0,0,0,0-8.76,4.39,4.39,0,0,0-6.66,0,8.72,8.72,0,0,0,0,8.76,4.39,4.39,0,0,0,6.66,0m4,2.73c-1.6,2-4,3-7.27,3s-5.68-1-7.27-3a10.89,10.89,0,0,1-2.4-7.1,11.05,11.05,0,0,1,2.4-7.11c1.6-2,4-3,7.27-3s5.67,1,7.27,3a11,11,0,0,1,2.39,7.11A10.89,10.89,0,0,1,666.41,221.6Z"/><path class="cls-1" d="M679.62,198.11l1,.08v4c-.28,0-.75-.06-1.4-.08a1.67,1.67,0,0,0-1.36.43,1.61,1.61,0,0,0-.36,1v1.6h3.23v3.49h-3.23v15.23h-4.92V208.68h-2.77v-3.49h2.7V204c0-2,.35-3.41,1-4.18q1.09-1.69,5.2-1.69h.84"/><rect class="cls-2" x="692.54" y="198.35" width="4.95" height="25.56"/><path class="cls-1" d="M701.85,205h5v18.9h-5Zm5-2.25h-5v-4.57h5Z"/><path class="cls-1" d="M718.94,198.11l1,.08v4c-.28,0-.74-.06-1.39-.08a1.64,1.64,0,0,0-1.35.43,1.56,1.56,0,0,0-.37,1v1.6h3.24v3.49h-3.24v15.23h-4.92V208.68h-2.76v-3.49h2.7V204c0-2,.34-3.41,1-4.18.72-1.13,2.44-1.69,5.19-1.69h.85"/><path class="cls-1" d="M727.34,209.66h0A5.19,5.19,0,0,0,726,212.6h8.52a4.05,4.05,0,0,0-1.31-3,4.33,4.33,0,0,0-2.93-1,3.93,3.93,0,0,0-2.95,1.08m7.38-4.27a7.73,7.73,0,0,1,3.27,2.8,9.38,9.38,0,0,1,1.52,3.9,26.83,26.83,0,0,1,.16,3.76H725.9a4.55,4.55,0,0,0,2,4,5,5,0,0,0,2.72.7,3.84,3.84,0,0,0,3.75-2.16h5.06a6.14,6.14,0,0,1-1.83,3.41,9.21,9.21,0,0,1-7.12,2.76,10.31,10.31,0,0,1-6.66-2.32c-1.93-1.56-2.88-4.09-2.88-7.58,0-3.28.86-5.78,2.61-7.54a9.15,9.15,0,0,1,6.76-2.61A10.68,10.68,0,0,1,734.72,205.39Z"/><path class="cls-1" d="M59.07,181.4c-1,0-1.53-.43-1.53-1.28v-149h-56A1.35,1.35,0,0,1,0,29.54V1.67A1.35,1.35,0,0,1,1.53.14H147.28a1.35,1.35,0,0,1,1.53,1.53V29.54a1.35,1.35,0,0,1-1.53,1.53H91.53V180.12c0,.85-.51,1.28-1.52,1.28Z"/><path class="cls-1" d="M145.43,180.12a1.9,1.9,0,0,1-1.79,1.31H109.91a1.31,1.31,0,0,1-1.3-1.31L179.55,1.3A1.59,1.59,0,0,1,180.87.17L215.07,0a1.31,1.31,0,0,1,1.31,1.3Z"/><path class="cls-3" d="M251.22,180.24a2,2,0,0,0,1.67,1.3h33.86c.71,0,1.54-.6,1.3-1.3L216.73,1.3A1.72,1.72,0,0,0,215,0H181.21a1.57,1.57,0,0,0-1.6,1.12Z"/><path class="cls-3" d="M326,179.93a1.8,1.8,0,0,0,1.54,1.3h34c.71,0,1.47-.58,1.3-1.3L291.63,1.3C291.22.54,291,.13,290.27.13L256.11,0a1.31,1.31,0,0,0-1.31,1.3Z"/><path class="cls-1" d="M239,43.19c.64,1.49,13.6,34.62,16.74,42.68.35.83,1.24,1.08,1.78-.06S291.43,1,291.43,1A1.53,1.53,0,0,0,290,0H255.73c-.49,0-1.07.64-1.31,1.3L238.85,40.37a3.53,3.53,0,0,0,.14,2.82"/><polygon class="cls-3" points="597.1 38.92 597.1 64.11 592.68 64.11 592.68 38.92 584.65 38.92 584.65 34.95 605.12 34.95 605.12 38.92 597.1 38.92"/><path class="cls-3" d="M616.62,54.93h-4.88c-2.45,0-3.71,1.11-3.71,3s1.18,2.95,3.8,2.95c1.6,0,2.79-.12,3.89-1.19a4.15,4.15,0,0,0,.9-3.07Zm.09,9.17V62.22a6.87,6.87,0,0,1-5.53,2.13c-2.58,0-4.31-.62-5.58-1.89A6.34,6.34,0,0,1,604,58c0-3.49,2.42-6,7.17-6h5.48V50.55c0-2.62-1.31-3.89-4.55-3.89-2.29,0-3.39.54-4.53,2L604.8,46.1c2-2.3,4-3,7.45-3,5.68,0,8.54,2.42,8.54,7.13V64.1Z"/><path class="cls-3" d="M651.09,64.1V51.45c0-3.23-1.83-4.63-4.18-4.63a4.12,4.12,0,0,0-4.29,4.43V64.1h-4.18V51.45c0-3.23-1.84-4.63-4.17-4.63S630,48.26,630,51.45V64.1h-4.19V43.35h4.1v2.09a7.49,7.49,0,0,1,5.52-2.34,6.63,6.63,0,0,1,5.9,3,7.87,7.87,0,0,1,6.51-3A7.5,7.5,0,0,1,653.06,45a7.69,7.69,0,0,1,2.22,5.85V64.1Z"/><path class="cls-3" d="M660.27,64.1h0V43.35h4.18V64.1Zm-.13-24.85V34.83h4.43v4.42Z"/><path class="cls-3" d="M675.22,64.1c-4,0-5.69-2.66-5.69-5.73V35h4.17V58.12c0,1.6.57,2.42,2.25,2.42h1.84V64.1Z"/><path class="cls-3" d="M693.59,64.1V51.45c0-3.23-1.83-4.63-4.17-4.63s-4.3,1.44-4.3,4.63V64.1H681V43.35H685v2.09a7.43,7.43,0,0,1,5.53-2.34A7.23,7.23,0,0,1,695.69,45a7.63,7.63,0,0,1,2.08,5.85V64.1Z"/><path class="cls-3" d="M713.86,54.93H709c-2.47,0-3.74,1.11-3.74,3s1.2,2.95,3.81,2.95c1.6,0,2.78-.12,3.89-1.19a4.15,4.15,0,0,0,.9-3.07ZM714,64.1V62.22a6.86,6.86,0,0,1-5.52,2.13c-2.6,0-4.31-.62-5.58-1.89A6.34,6.34,0,0,1,701.22,58c0-3.49,2.4-6,7.16-6h5.48V50.55c0-2.62-1.31-3.89-4.54-3.89-2.29,0-3.4.54-4.54,2L702,46.1c2-2.3,4-3,7.44-3,5.69,0,8.56,2.42,8.56,7.13V64.1Z"/><path class="cls-3" d="M730.57,46.82h0c-3.77,0-4.34,3.2-4.34,6.88s.57,6.92,4.34,6.92,4.3-3.23,4.3-6.92-.54-6.88-4.3-6.88M735,64.1V61.89a6.41,6.41,0,0,1-5.49,2.46,7.14,7.14,0,0,1-5.08-1.85c-2.08-2.08-2.32-5.64-2.32-8.8s.24-6.67,2.32-8.76a7.13,7.13,0,0,1,5-1.84,6.46,6.46,0,0,1,5.46,2.34V35H739V64.1Z"/><polygon class="cls-3" points="583.43 105.05 583.43 85.56 576.72 99.77 573.44 99.77 566.56 85.56 566.56 105.05 562.15 105.05 562.15 75.89 566.56 75.89 575.07 94.03 583.43 75.89 587.86 75.89 587.86 105.05 583.43 105.05"/><path class="cls-3" d="M605.33,90.14h0a4.27,4.27,0,0,0-4.08-2.61,4.32,4.32,0,0,0-4.14,2.61,6.59,6.59,0,0,0-.53,2.83h9.34a6.72,6.72,0,0,0-.59-2.83m-8.75,5.74c0,3.55,1.87,5.82,5.28,5.82a6.26,6.26,0,0,0,5-2.13l2.66,2.49a9.74,9.74,0,0,1-7.78,3.24c-5.19,0-9.33-2.75-9.33-10.65,0-6.72,3.47-10.61,8.81-10.61,5.56,0,8.8,4.1,8.8,10v1.85Z"/><path class="cls-3" d="M625.56,89.16a3.81,3.81,0,0,0-3.11-1.39c-2.25,0-4.14,1.8-4.14,4.67V105h-4.17V84.28h4.09v2.26a6.91,6.91,0,0,1,5.53-2.5,6.34,6.34,0,0,1,4.94,2Z"/><path class="cls-3" d="M637.6,105.3c-4.67,0-9.25-2.87-9.25-10.65S632.93,84,637.6,84A8.53,8.53,0,0,1,644.44,87l-2.87,2.78a4.84,4.84,0,0,0-4-2,4.67,4.67,0,0,0-3.85,1.84c-.9,1.15-1.23,2.62-1.23,5s.33,3.93,1.23,5.07a4.68,4.68,0,0,0,3.85,1.85,4.85,4.85,0,0,0,4-2l2.87,2.74a8.58,8.58,0,0,1-6.84,3"/><path class="cls-3" d="M658.75,95.88h-4.86c-2.45,0-3.73,1.1-3.73,3s1.19,3,3.81,3c1.59,0,2.78-.11,3.89-1.19a4.12,4.12,0,0,0,.89-3.06Zm.09,9.16v-1.88a6.82,6.82,0,0,1-5.52,2.14c-2.58,0-4.31-.62-5.57-1.89A6.35,6.35,0,0,1,646.11,99c0-3.48,2.41-6,7.16-6h5.48V91.49c0-2.61-1.3-3.88-4.53-3.88-2.3,0-3.4.53-4.55,2L646.92,87c2-2.31,4-3,7.47-3,5.68,0,8.55,2.42,8.55,7.12V105Z"/><path class="cls-3" d="M680.58,105V92.39c0-3.23-1.84-4.62-4.17-4.62s-4.31,1.43-4.31,4.62V105h-4.17V84.28H672v2.1A7.39,7.39,0,0,1,677.55,84a7.11,7.11,0,0,1,5.11,1.89,7.57,7.57,0,0,1,2.1,5.85V105Z"/><path class="cls-3" d="M695.94,105c-3.89,0-5.7-2.77-5.7-5.77V87.85h-2.37V84.66h2.37v-6.3h4.19v6.3h4v3.19h-4V99.07a2.11,2.11,0,0,0,2.29,2.42h1.72V105Z"/><path class="cls-3" d="M702.33,105h0V84.28h4.17V105Zm-.12-24.84V75.77h4.41V80.2Z"/><path class="cls-3" d="M717.27,105c-4,0-5.69-2.65-5.69-5.72V75.89h4.17V99.07c0,1.59.57,2.42,2.26,2.42h1.84V105Z"/><path class="cls-3" d="M733.8,90.14h0a4.27,4.27,0,0,0-4.1-2.61,4.34,4.34,0,0,0-4.13,2.61A6.59,6.59,0,0,0,725,93h9.34a6.72,6.72,0,0,0-.58-2.83M725,95.88c0,3.55,1.88,5.82,5.28,5.82a6.28,6.28,0,0,0,5-2.13l2.66,2.49a9.74,9.74,0,0,1-7.78,3.24c-5.2,0-9.33-2.75-9.33-10.65,0-6.72,3.47-10.61,8.79-10.61,5.58,0,8.81,4.1,8.81,10v1.85Z"/><path class="cls-3" d="M603.07,133.13h-7V142h7c3.08,0,4.78-1.89,4.78-4.46s-1.7-4.43-4.78-4.43m-.41-12.32h-6.55v8.35h6.55c2.83,0,4.75-1.47,4.75-4.17S605.49,120.81,602.66,120.81Zm.82,25.18H591.69V116.84H603c5.4,0,8.8,3.07,8.8,8A6.63,6.63,0,0,1,607.9,131a6.9,6.9,0,0,1,4.38,6.75C612.28,143.13,608.64,146,603.48,146Z"/><path class="cls-3" d="M628,136.82h-4.87c-2.47,0-3.73,1.1-3.73,3s1.19,2.94,3.8,2.94c1.6,0,2.78-.11,3.89-1.18a4.2,4.2,0,0,0,.91-3.07Zm.07,9.17v-1.88a6.83,6.83,0,0,1-5.52,2.12c-2.58,0-4.3-.62-5.57-1.87a6.42,6.42,0,0,1-1.63-4.48c0-3.47,2.41-6,7.16-6H628v-1.47c0-2.63-1.31-3.89-4.55-3.89-2.29,0-3.4.53-4.54,2L616.18,128c2-2.29,4-3,7.45-3,5.68,0,8.55,2.42,8.55,7.12V146Z"/><path class="cls-3" d="M649.83,146V133.34c0-3.24-1.84-4.63-4.17-4.63s-4.31,1.43-4.31,4.63V146h-4.17V125.23h4.09v2.08A7.47,7.47,0,0,1,646.8,125a7.24,7.24,0,0,1,5.12,1.88,7.67,7.67,0,0,1,2.08,5.85V146Z"/><polygon class="cls-3" points="672.07 145.99 666.25 136.41 663.17 139.88 663.17 145.99 659 145.99 659 116.84 663.17 116.84 663.17 134.81 671.25 125.23 676.32 125.23 669.11 133.38 677.22 145.99 672.07 145.99"/><polygon class="cls-3" points="688.89 145.99 688.89 116.84 693.31 116.84 693.31 142.02 707.36 142.02 707.36 145.99 688.89 145.99"/><path class="cls-3" d="M716.65,146c-3.9,0-5.69-2.78-5.69-5.77V128.79h-2.37V125.6H711v-6.3h4.18v6.3h4v3.19h-4V140c0,1.52.73,2.41,2.28,2.41h1.73V146Z"/><path class="cls-3" d="M730.57,128.71h0c-3.77,0-4.34,3.19-4.34,6.88s.57,6.92,4.34,6.92,4.3-3.24,4.3-6.92-.54-6.88-4.3-6.88M735,146v-2.21a6.37,6.37,0,0,1-5.48,2.45,7.14,7.14,0,0,1-5.09-1.84c-2.08-2.08-2.32-5.65-2.32-8.8s.24-6.67,2.32-8.76a7.13,7.13,0,0,1,5-1.84,6.45,6.45,0,0,1,5.46,2.32V116.84H739V146Z"/></g></g></svg>