<svg enable-background="new 0 0 1920 1080" viewBox="0 0 1920 1080" xmlns="http://www.w3.org/2000/svg"><path d="m488.9 138.2c.2-6.3-3.3-12.6-8.7-15.8s-13.5-2.6-18.9.6c1.4-4.8-.6-10.3-4.7-13.1s-9.6-1.5-13.6 1.5c-5.2-4.9-10.9-9.5-17.5-12.4-6.6-2.8-14.3-3.7-20.9-1.1-6.6 2.5-11.6 8.2-14.8 14.5s-5.1 14.1-6.8 21c-2.2-3.5-8-3.5-11.5-1.3-4.1-5.3-9.9-9.3-16.4-11.2-4.1-1.2-8.6-1.5-12.6 0s-7.2 4.4-7.4 8.7c-2.9-6.5-5.8-13-10.3-18.5s-10.9-9.8-18-10.2-13.8 4.7-15.6 11.5c-3-4.5-9.1-6.7-14.3-5 0 .7-1.2 1-1.2 1.8-6.4-8.6-19-12-28.9-7.9-9.9 4.2-15.4 16.2-13.7 26.8-4.6-4.4-12.4-5.1-17.7-1.5s-8.7 11.1-6.3 17c-6.9-4.1-15.5-5.3-23.2-3.1-10.4 2.8-17.4 8.5-28.1 8.5h11.7c19.9 0 37.9 8.8 46.1 9.3 8.2.6 16.8-.7 23.8-5 27.5 9.6 58.6 11.2 86.7 3.3 25.1 8.3 53.4 7.6 77.7-2.8 6.3 6.8 18.5 7.1 25.6 1.1 9.3 4.4 20.5 3.8 29.5-1.1 7.4 1.3 13.7 1.7 21.1.9s6.7-5.8 27.1-5.8h16.2c-23.4.1-23.4-12.8-34.4-10.7z" fill="#fff"/></svg>