<svg enable-background="new 0 0 1920 1080" viewBox="0 0 1920 1080" xmlns="http://www.w3.org/2000/svg"><path d="m255.1 272.8s-1 2.6-2.3 2.9c-1.2.4.6.8-4.6 2.4-5.1 1.6-10.3.7-12.6 1.6-2.4.9-11.4 3.7-11.4 3.7l-2.8 1.1 1.7.2-4.4 1.6 2.2.2-4.7 1.4 1.3.3-3.5 1.8 1.4.1-3.3 1 1.6.3s-5.9 4.3-7.5 3.7c0 0 3.2 1.2 4.2.4 0 0 2.4-.3.2 1.3s-9.4 5.8-9.4 5.8-1.6 1.9.4 1.4 6.8-2.8 6.8-2.8l-6.5 6.8s-.9 2.2 1.5.9c2.4-1.4 4.1-3 4.1-3s1.4-.1-.8 2.8-3.6 4.7-3.6 4.7-.3 1.4 1.4.3 5.6-5.1 5.6-5.1 2.5-1.3.9.9-3.1 3.9-3.1 3.9-.6 2.4 1.1 1.1 3.1-3.4 3.1-3.4 2.1-2.3 1.1.7.1 2.7.1 2.7l3.3-2.6 14.9-5.5 8.9-2.2s11.3.9 18.6-3.7c0 0 1.9-2.1 2.2 0s-.2 10.4-.2 10.4-1.1 8.2 6.6 7.2l2.1-.9 2.7-.4 2.1-1.1 2.8-.5c6.9-3.5 1.4-9.7 1.4-9.7s-5.1-6.7-6-8.6 1.9-1.3 1.9-1.3c8.7-.3 17.5-7.4 17.5-7.4l8.6-3.1 15.4-3.8 4.2.3s1.1-.4-1.4-2.3.6-1.2.6-1.2 2.3.9 4.5 1.1.3-1.5.3-1.5-2.2-.5-4.7-1.5.2-1.3.2-1.3 5.4 1.1 7.5 1.1 1-1 1-1-2.2-.6-5.6-1.8-2.2-1.9-2.2-1.9 2.3.4 5 .2.8-1.6.8-1.6l-9.2-2s5.3-.8 7.2-1.5-.4-1.4-.4-1.4-8.3.5-11.1.4-.6-1.2-.6-1.2c1.3.1 3.2-2.7 3.2-2.7-1 1.4-8.3 1.1-8.3 1.1l1.2-1.2-3.3 1 1.2-.9-4 .6.9-1-4.7 1.4 1.7-1.4-4.5 1.2 1.3-1.1-2.9.7s-9 2.8-11.5 3.3c-2.5.6-6.3 4.2-11.4 5.7-5.1 1.6-3.9.2-5.1.6s-3.5-1.2-3.5-1.2" fill="#6d4c41"/><path d="m262.4 270.6c-1.2-3.9-5.1-5.9-5.1-5.9l-1.2-1.5-.1 1.9s-2.6 3.9-.9 7.7c0 0-.5 1.3-1.1 2s1.8-.5 1.8-.5l1.4 1.2 1.4-1.4 2.3.3 1.2-1.4h2l-.2-1.6c.1 0-1.4-.5-1.5-.8z" fill="#fff"/></svg>