<svg enable-background="new 0 0 1920 1080" viewBox="0 0 1920 1080" xmlns="http://www.w3.org/2000/svg"><g fill="#fff"><path d="m1814.7 138.8c-1.3-7.9-8-14.6-15.8-16.1-7.9-1.5-16.5 3-20.6 9.9 2-4.9-.9-11.2-5.9-12.8s-11 2.5-12.3 7.6c-4.6-3.5-11.6-3.3-16.1.4-4.2 3.5-5.8 9.8-3.8 14.9-.8-1.3-2.6-1.9-4-1.3-1.7.8-2.3 3.3-1.2 4.8-2.8-1.6-6.5.9-8.4 3.6-1.7-4.6-6-8.1-10.8-9s-10.2.1-13.5 3.7c1-4.8-1.1-10.3-5.7-12.2 4-5 8.1-10.2 9.9-16.4 1.9-6.2 1-13.6-3.8-17.9s-12.2-3.3-14.9 2.5c.8-9.3-2.2-19.2-9.2-25.4s-18-8-26-3c-7.9 5-12.3 16.8-6.6 24.2-2.5-2.6-7.8-.6-8 3-2.1-2.3-6.9.5-8.3 3.4-2.6-6.3-10.2-9.5-16.8-8s-11.9 6.9-14.3 13.2c-2.5 6.3-2.7 14.9-1.5 21.6-1.5-2.9-5.3-4.2-8.2-2.9s-4.6 5-3.5 8c-.6-2.3-3.1-4-5.5-3.7s-5.8 2.6-5.9 5c-.3-5.9-6.4-10.4-12.4-10.4-5.9 0-11.4 3.4-15.5 7.7s-7.2 9.4-10.8 14.1c-3.3 4.3-6.1 10.2-11 11.2-.5.1-1 .1-1.6.2 7.9 5 36.3 5.4 45.5 3.4 7.7 2.3 16.6 2.4 24.2-.4 2.8 2.4 7.5 2.2 10.1-.4 8.8 2.6 18.8 2.5 27.3-.8 34.2 6.5 84.3 11.7 117.9 2.6 3.5 2.8 8.3 3.9 12.7 2.8 2-.5 3.8-1.4 5.8-1.8 2.7-.4 5.4.2 8.1.2s5.5-.8 6.8-3.2c5.4 3.6 12.5 4.5 18.6 2.3 3.3-1.2 6.3-3.3 8.6-5.9 5.5-3.2 7.5-12.3 6.4-18.7z"/><path d="m320.8 477.6c-2.6-1.1-6.4 0-7.3 2.7-1.2-1.2-3.8-.7-4.6.8.5-1.5-.4-3.2-1.9-3.7-1.5-.4-3.4.2-3.8 1.7.9-2.3 1.5-4.8 1.5-7.3s-.8-5-2.5-6.9c-1.7-1.8-4.3-2.9-6.7-2.2-2.4.6-4.3 2.8-4 5.3-1.3-1.4-3.5-1.7-5.2-.9-1.7.9-2.7 2.9-2.3 4.7-.4-.6-1.2-1-1.9-.9-.8.1-1.1.7-1.4 1.5-.1-1.5-.3-2.9-1.1-4.2-.8-1.2-2.2-2.1-3.7-1.8-1.4.3-2.6 1.7-2 3-2.4-1.8-5.8-2.3-8.6-1.2s-4.9 3.8-5.4 6.8c-.1-1.5-1-3-2.3-3.7-1.4-.7-3.1-1-4.4-.2.2-.9-.1-1.8-.7-2.4-.7-.6-1.6-.8-2.5-.6.4-1.6-.1-3.5-1.5-4.5.6-1.3.5-3-.4-4.1-.9-1.2-2.5-2.2-4-1.9.2-2.4-1.2-4.9-3.4-5.9-2.2-1.1-5.2-.5-6.9 1.1-.9-4.1-5.4-6.8-9.6-6.5s-8 2.9-10.6 6.3c-2.5 3.3-3.9 7.4-2.2 11.2-1.8-.7-4 .9-4 2.8-.9-.4-2.3 1-1.9 2-2.8-1.4-6.4-1-8.7 1.1-2.3 2-3.1 5.5-2.2 8.4-1.1-1.3-3.1-1.8-4.7-1.3s-3 2.2-3.2 3.9c-.8-.7-2-.8-3-.4s-1.7 1.8-1.8 2.8c-1.5-6.1-9.5-8.6-15.4-6.5s-10.7 7.5-14.6 12.4h6.9c9.7 2.5 19.8 3.1 29.8 2 1.2 1.2 3.5.9 4.8 0 .6-.4 1.1-1 1.7-1.2 1.2-.4 2.4.3 3.5.8 2.8 1.2 6.3.6 8.6-1.4 4.8 4.3 12.6 5.5 18 2 .9 1 3.5.7 4.8.5 1.4-.3 2.7-.8 4-.9 1.6-.1 3.1.5 4.6.8s3.3.3 4.4-.7c4.9 2.7 11.5 2.5 16.5-.1 2.6 1.1 5.6.9 8.2-.3 1.4 1.4 3.9 1.7 5.4.5 1.1.9 2.9.9 4-.1 6.6 3.5 15.5 3.1 22.1-.4 4.2 2.5 9.9 2.9 14.5 1.2.8-.3 1.7-.8 2.3-1.5.7.3 1.5.5 2.6.1 2.7-.9 4.9-3.1 5.5-5.9s-.7-5.7-3.3-6.8z"/></g></svg>