<svg enable-background="new 0 0 1920 1080" viewBox="0 0 1920 1080" xmlns="http://www.w3.org/2000/svg"><g fill="#fff"><path d="m877.8 259.1c-.3-.2-.6-.3-1-.3 1.3-2.5 1.5-5.8 0-7.8-2.1-2.8-6.1-4.4-8.8-2.2.9-1.3.6-3.2-.5-4.2s-2.7-1.6-3.8-.6c2.8-3.5.5-9.1-3.7-10.7-.1-3.9-4-7.2-7.8-6.6-3.6.5-6.4 4.4-6 7.9-.4-1.1-1.4-2-2.6-2.1-1.4-.1-2.8 1.9-3.1 3.3.4-1-.2-2.3-1.2-2.7s-2.5 2.2-2.9 3.3c0-3.7-3.6-6.9-7.3-7s-7.2 2.3-9.1 5.6c-1.8 3.2-2.3 8.1-1.7 11.8 0-1.1-1.1-2-2.2-1.9-.8.1-1.6 1.6-1.8 2.8-.2-.8-.7-1.5-1.5-1.8-1.1-.4-3 .7-3.3 1.8.5-4.3-4.2-7.7-8.4-7.5-4.3.2-8 3-10.9 6.1-4.3 4.4-5.4 11.4-17.2 14.9 1.6 1 11.6 1.6 13.2.7 2.7 1.9 6.7 1.9 9.7.7 12 3.2 24.9 3.2 37.1 1 7.9.1 15.9.1 23.8.2 2.9 0 5.9-.5 8.8-.9 2.7 2.8 7.5 3.4 10.9 1.3.9-.5 1.7-1.3 2-2.2.3-1.1.1-2.3-.7-2.9z"/><path d="m1781.1 99.2c.1-4.7-2.4-9.4-6.5-11.8-4-2.4-10-1.9-14.1.4 1-3.6-.5-7.7-3.5-9.8s-7.1-1.1-10.1 1.1c-3.9-3.7-8.1-7.1-13-9.2s-10.6-2.8-15.6-.8c-4.9 1.9-8.6 6.1-11 10.8s-3.8 10.5-5 15.6c-1.6-2.6-6-2.6-8.6-1-3.1-4-7.4-6.9-12.2-8.3-3.1-.9-6.4-1.1-9.4 0s-5.3 3.3-5.5 6.5c-2.1-4.8-4.3-9.7-7.7-13.8s-8.1-7.3-13.4-7.6-10.3 3.5-11.6 8.6c-2.2-3.4-6.8-5-10.6-3.7 0 .5-.9.8-.9 1.3-4.8-6.4-14.1-9-21.5-5.8-7.4 3.1-11.4 12.1-10.2 20-3.4-3.3-9.2-3.8-13.2-1.1-3.9 2.7-6.5 8.2-4.7 12.7-5.1-3.1-11.5-3.9-17.3-2.3-7.7 2.1-12.9 6.4-20.9 6.4h8.7c14.8 0 28.2 6.5 34.3 6.9s12.5-.5 17.7-3.7c20.5 7.2 43.6 8.4 64.5 2.5 18.7 6.2 39.8 5.6 57.9-2.1 4.7 5.1 13.8 5.3 19.1.9 6.9 3.3 15.2 2.8 22-.8 5.5 1 10.2 1.3 15.7.7s5-4.3 20.2-4.3h12c-17.4-.3-17.4-9.9-25.6-8.3z"/><path d="m341.2 159c-5.3-2.3-10.3-3.3-16.1-2.8-5.9-4.9-12.8-9.1-20.4-10.3s-15.8 1.1-20.3 7.3c-4.4-4.5-11.1-5.5-17-3.3-11.5-9.4-26.8-14-41.6-12.6s-30.4 8.2-40 19.6c-6.4-1.4-13-2.9-19.5-1.8-5.7 1-10.4 4-16.2 4 21.3 3.3 31 5.6 44.4 2.2 4.8 1.5 10.1 2.4 15.1 2.5 6.5.2 13.3.3 19.2-2.3 4.5 3.6 11.9 3.4 16.7.3 18.1 6.5 38.6 6.7 57 1.2 6.2 2.4 13.5 2 19.3-1.2 5.4 3.6 5.3-2.5 21.1-2.5z"/><path d="m478.5 914.2c-3.6-1.5-8.9 0-10 3.7-1.6-1.7-5.3-1-6.4 1.1.7-2-.6-4.5-2.6-5.1s-4.8.3-5.3 2.4c1.2-3.2 2.1-6.6 2-10.1 0-3.4-1.1-7-3.4-9.5s-6-3.9-9.3-3.1c-3.3.9-5.9 3.9-5.5 7.3-1.8-1.9-4.8-2.4-7.2-1.2-2.3 1.2-3.7 4-3.2 6.5-.6-.9-1.7-1.4-2.7-1.3s-1.6 1-1.9 2c-.1-2-.4-4.1-1.5-5.8s-3.1-2.9-5.1-2.5-3.6 2.3-2.7 4.1c-3.3-2.6-8-3.2-11.9-1.6s-6.8 5.3-7.4 9.5c-.1-2.1-1.3-4.2-3.2-5.2s-4.3-1.4-6.1-.2c.3-1.2-.1-2.5-1-3.4s-2.3-1.1-3.4-.8c.5-2.2-.2-4.9-2-6.2.9-1.8.7-4.1-.6-5.7-1.2-1.6-3.5-3-5.5-2.6.3-3.3-1.7-6.7-4.7-8.2s-7.1-.8-9.6 1.5c-1.3-5.7-7.5-9.4-13.3-9s-11.1 4.1-14.6 8.7c-3.5 4.5-5.4 10.2-3 15.5-2.5-.9-5.5 1.3-5.5 3.9-1.3-.6-3.2 1.4-2.7 2.8-3.8-1.9-8.8-1.3-12 1.5s-4.3 7.6-3 11.7c-1.6-1.8-4.2-2.5-6.5-1.8s-4.1 3-4.4 5.4c-1.1-.9-2.8-1.1-4.1-.6-1.3.6-2.4 2.4-2.5 3.9-2-8.5-13.1-11.9-21.3-9s-14.8 10.4-20.2 17.2h9.6c13.4 3.4 27.4 4.3 41.2 2.7 1.6 1.6 4.8 1.3 6.7 0 .8-.6 1.5-1.4 2.4-1.7 1.6-.6 3.3.5 4.9 1.1 3.9 1.7 8.7.9 11.9-1.9 6.7 5.9 17.4 7.6 24.9 2.8 1.3 1.4 4.8 1 6.7.7 1.9-.4 3.7-1.2 5.6-1.2 2.2-.1 4.2.7 6.3 1.1s4.5.4 6.2-1c6.8 3.7 15.9 3.4 22.8-.1 3.6 1.6 7.8 1.3 11.3-.4 1.9 2 5.3 2.4 7.5.7 1.6 1.2 4 1.2 5.5-.1 9.2 4.8 21.4 4.3 30.5-.6 5.8 3.4 13.7 4.1 20 1.6 1.1-.4 2.3-1.1 3.2-2 1 .5 2.1.7 3.6.2 3.7-1.2 6.8-4.3 7.5-8.1s-1.4-8.1-5-9.6z"/></g></svg>