<svg enable-background="new 0 0 1920 1080" viewBox="0 0 1920 1080" xmlns="http://www.w3.org/2000/svg"><path d="m1018.4 913.6c-5.4-3-10.9-6-16.9-6.9-6.1-.9-13-.2-16.6 4.8-8.2-5.1-19.7-5.4-28.6-1.7-1.7-5.1-9.2-7.5-13.9-5 .5-5.5-2.9-11.2-8-13.3s-11.6-.6-15.1 3.7c-1.3-1.9-3.8-2.8-6-2.2s-3.2 1.3-3.4 3.6c-3.1-6.8-8.7-12.6-15.7-15.3s-15.5-1.6-21.2 3.2-8.5 13.2-5.1 19.9c-4.7-5.7-12.1-9-19.5-8.5-7.3.4-14.6 4.9-18.5 11.1-3.2-3.9-9.5-4.7-13.6-1.7-1.7-3.7-7.1-4.8-9.9-1.9 1.4-4.4.3-9.6-2.9-13s-7.1-4.1-11.6-2.9c.4-2.7.9-5.4.3-8s-2.4-5.2-5-5.8-4.1 1.1-4 3.8c-4.1-6.9-12.3-11.2-20.3-10.8-8 .5-15.6 5.7-19 13-2.4 5.4-2.3 11.5-.1 16.9-1.4-2.1-3-3.9-5.1-5.3-3.8-2.5-9.6-2.6-12.5.9-1.9 2.4-2.1 5.9-1.2 8.8s2.4 5.8 4.2 8.3c-1.3-2.1-3.9-3.3-6.3-3.1-2.5.2-4.6 1.6-5.6 3.9-2.9-2.2-6.8-1.7-10.4-1.2-12.9 2-25.3 5.7-38.1 7.2h-.2.1c-3.4.4-6.9.6-10.4.6h19.2c35.6 2.4 71.2 3 106.9 1.7 11.4-.4 22.8 3 33.9.1 26.2 8.9 55.4 8.8 81.5-.4 17.1 4 34.8 5 52.3 3.2 11.3-1.2 22.7 2.4 32.8-2.9 6.1 2.4 13.3 2.3 19.1-.9 3.9 2.5 13.4-.8 32-.8-6.6-1.9-11.6.2-17.6-3.1z" fill="#fff"/></svg>