<svg enable-background="new 0 0 1920 1080" viewBox="0 0 1920 1080" xmlns="http://www.w3.org/2000/svg"><path d="m381.1 90.5c-2.8-1.2-7 0-8 2.9-1.3-1.3-4.2-.8-5 .9.6-1.6-.4-3.5-2.1-4-1.6-.5-3.8.2-4.2 1.9.9-2.6 1.6-5.3 1.6-8s-.9-5.5-2.7-7.5-4.8-3.1-7.4-2.4-4.7 3.1-4.3 5.8c-1.4-1.5-3.8-1.9-5.7-1s-2.9 3.1-2.5 5.2c-.4-.7-1.3-1.1-2.1-1s-1.2.8-1.5 1.6c-.1-1.6-.3-3.2-1.2-4.6-.9-1.3-2.5-2.3-4-2-1.6.3-2.9 1.9-2.2 3.3-2.6-2-6.4-2.5-9.5-1.3s-5.4 4.2-5.9 7.5c-.1-1.7-1.1-3.3-2.5-4.1-1.5-.8-3.4-1.1-4.9-.2.2-.9-.1-2-.8-2.7s-1.8-.9-2.7-.6c.4-1.7-.2-3.9-1.6-4.9.7-1.4.5-3.3-.5-4.5-1-1.3-2.8-2.4-4.4-2.1.2-2.6-1.3-5.3-3.7-6.5s-5.6-.6-7.6 1.2c-1-4.5-5.9-7.5-10.6-7.2-4.6.3-8.8 3.2-11.6 6.9-2.8 3.6-4.3 8.1-2.4 12.3-2-.7-4.4 1-4.4 3.1-1-.5-2.5 1.1-2.1 2.2-3-1.5-7-1-9.5 1.2-2.6 2.2-3.4 6-2.4 9.2-1.2-1.4-3.4-2-5.2-1.4s-3.3 2.4-3.5 4.3c-.9-.7-2.2-.9-3.2-.4s-1.9 1.9-2 3.1c-1.6-6.7-10.4-9.5-16.9-7.2s-11.7 8.2-16 13.6h7.6c10.6 2.7 21.7 3.4 32.6 2.2 1.3 1.3 3.8 1 5.3 0 .6-.4 1.2-1.1 1.9-1.4 1.3-.5 2.6.4 3.9.9 3.1 1.3 6.9.7 9.4-1.5 5.3 4.7 13.8 6.1 19.7 2.2 1 1.1 3.8.8 5.3.5s2.9-.9 4.4-1c1.7-.1 3.4.5 5 .9 1.7.3 3.6.3 4.9-.8 5.4 2.9 12.6 2.7 18.1-.1 2.8 1.2 6.2 1 9-.3 1.5 1.6 4.2 1.9 5.9.6 1.2 1 3.2.9 4.4-.1 7.3 3.8 16.9 3.4 24.2-.4 4.6 2.7 10.9 3.2 15.9 1.3.9-.4 1.8-.9 2.5-1.6.8.4 1.7.6 2.9.2 2.9-1 5.4-3.4 6-6.5.7-3.1-.9-6.5-3.7-7.7z" fill="#fff"/></svg>