<svg enable-background="new 0 0 1920 1080" viewBox="0 0 1920 1080" xmlns="http://www.w3.org/2000/svg"><path d="m1782.7 260.1c-1.9-1.4-4.4-1.3-6.7-1-5.8.9-11.3 3.5-15.6 7.4-.5-2.5-2.5-4.6-4.9-5.3-2.5-.6-5.3-.4-6.9 1.5 3.1-4.7 6.3-9.5 7.4-15 1-5.5-.6-11.9-5.4-14.9-4.6-2.8-10.6-1.7-15.7.1-15.9 5.6-28.8 17.7-37.5 32.2.7-6.1-3.5-12.3-9.3-14s-14 .8-16.7 6.3c-8.8-3.3-18.7-3.6-27.6-.6-7 2.3-13.5 6.5-20.8 7.8-6.6 1.2-13.3-.1-19.9-.2-15.9-.2-29.7 11.5-45.6 11.5h39.4c9.1.7 18.3 1.5 27 3.9 27.8 7.8 58.4 6.9 86.2-1.4 10.4 6.7 24.3 7.6 35.4 2.3 7.9.8 15.7 1.6 23.6 2.5 2.8.3 5.8.6 8.5-.2s5.3-3 5.6-5.9c.2-1.6-.6-3.2-1.8-4.2 1.3-1.4 2.4-2.9 3.1-4.7 1-2.6.6-6.3-1.8-8.1z" fill="#fff"/></svg>