<svg viewBox="0 0 1920 1080" xmlns="http://www.w3.org/2000/svg" xmlns:xlink="http://www.w3.org/1999/xlink"><clipPath id="a"><path d="m0 0h1920v1080h-1920z"/></clipPath><g clip-path="url(#a)"><path d="m-30-12.11h1976v1110.24h-1976z" fill="#d31d21"/><path d="m-4 750h1924v329h-1924z" fill="#95051d"/><path d="m536 0c105.34 142 257.61 231.25 427 231.25s321.69-89.25 427-231.25z" fill="#f73d2f"/><g fill="#662c22" opacity=".3"><path d="m258.67 196.81c-31.93-14.08-60.32-34.73-79.48-63.89-32.19-48.98-72.19-84.69-72.19-84.69s-65.59-56.42-98.92-67.55l-17.7 37.63-8.61 18.49s116.58 28.72 189.44 124.2c10.94 14.32 27.14 23.74 43.06 32.16 46.81 24.75 91.29 32.17 91.29 32.17 70 15.19 90.79 10.88 123.12 8.43 35.44-2.69 74.32-18.86 74.32-18.86s-118.12 37.56-244.33-18.09z"/><path d="m245.42 207.5s11 40.5 75.41 67.46c0 0-53.26-31.28-63.28-62.89z"/><path d="m301.37 216.83s33.5 5.91 56.55-14c0 0-21.62 24.16-46.18 18.36z"/><path d="m139.72 92.66 87.43-.77a88.55 88.55 0 0 1 48.21 13.77c16.76 10.64 38.73 26.68 50.46 35.39a63.17 63.17 0 0 0 18.18 9.39l85 27.56-79-19.46a110.89 110.89 0 0 1 -31-12.89l-44.39-27a71.77 71.77 0 0 0 -40.94-10.35l-75.38 7.41"/><path d="m189.44 96.71 44.8 26.35a91.91 91.91 0 0 0 45.21 12.68l94.47 1.41-82 8a107.82 107.82 0 0 1 -66.49-15.23l-48.43-29.58z"/><path d="m361.29 157.58a86.79 86.79 0 0 1 39.13-5s-23.6 1.56-34.85 7z"/><path d="m348.77 156.88 8.43 11.91a50.2 50.2 0 0 0 14.07 13.37l27.06 17.19-23.45-11.79a70.4 70.4 0 0 1 -24.94-21l-8.57-11.56z"/><path d="m433.06 228.45 9.31 6.07a38.54 38.54 0 0 0 13.71 5.48l24 4.57-19.91-1.77a53.72 53.72 0 0 1 -23.57-7.8l-9.3-5.79z"/><path d="m268.93 206.63s23.92-24.51 72.86-18.11c0 0-36.13-1.69-65 19.85z"/><path d="m180.47 96.68s23.91-24.51 72.85-18.11c0 0-36.12-1.69-65 19.85z"/><path d="m25.83 52.32s1 58.43 80.63 111.25c0 0-64.49-44.44-63.47-104z"/><path d="m70 22.65s36 .12 68.75 12.46l-52.9.71z"/><path d="m1788 134.28-75.21-4.84a68.51 68.51 0 0 1 -15.6-3.12l-35.76-11.66 33.46 16.41a67.86 67.86 0 0 0 20.85 6.33l49.28 5.69z"/><path d="m1696.4 152.78s-39.09 22.58-90.53 19c0 0 44.88 12.09 103.08-16.14z"/><path d="m1801.17 112-83.44 33.28a113.42 113.42 0 0 1 -51.15 5.72l-134.58-20 119.56 27.6q6.75 1.56 13.57 2.59a169.89 169.89 0 0 0 90.11-11.19c35.26-14.54 118.86-45 164.76-28.5v-34.08s-66.37 2.27-118.83 24.58z"/><path d="m1827.74 103.54s-25.61 67.32-96.87 79c0 0 72.21 6.64 118.27-74.59z"/><path d="m1910.66 90.5s-23.24-17.16-64.17-27.93c-23.18-6.1-62.92-7.9-96.44-5.61l72.57 10.82a122.07 122.07 0 0 1 37.6 12l27.87 14.22 25.68-4.92"/><path d="m1847.52 64.87s-11.29-22.44-41.89-31.35c0 0 38.34 8.36 49.79 34.16z"/></g><path d="m-67.87 700.26h73.32l64.63-64.63h80.19l31.77-31.76h52.53 76.23 72.8l18.45-18.45h37.87l28.46-28.46h36.38l27.55 67.55h44.85l14.11-14.11h25.94v-58.11h41.33 194.84l69.41 69.41h65.61l42.95 42.94h57.02l62.66 62.67h42.81l89.29-89.29v-57.93l83.87-56.53h42.64 184.3l30.32-30.33 35.21 35.21h44.94 54.04l52.38 52.37h44.89l108.91 108.91h21.38v179.28h-2053.88z" fill="#95051d"/><path d="m-5.16 687.26a2 2 0 0 1 -2-2v-66.84a2 2 0 0 1 .59-1.42l35.86-35.86v-34a2 2 0 0 1 .58-1.41l22.13-22.19v-39.91a2 2 0 0 1 .59-1.42l36.84-36.84v-48.17a2 2 0 0 1 4 0v49a2 2 0 0 1 -.59 1.42l-36.84 36.83v39.92a2 2 0 0 1 -.58 1.42l-22.13 22.21v34a2 2 0 0 1 -.59 1.41l-35.86 35.84v66a2 2 0 0 1 -2 2.01z" fill="#662c22"/><path d="m99.3 526.37h-45.3a2 2 0 1 1 0-4h44.47l11.44-11.44a2 2 0 0 1 1.42-.59h32.85l17.68-17.67a2 2 0 0 1 2.83 2.82l-18.27 18.27a2 2 0 0 1 -1.41.58h-32.86l-11.44 11.44a2 2 0 0 1 -1.41.59z" fill="#662c22"/><path d="m120.66 537.68h-10a2 2 0 0 1 -1.41-.59l-11.31-11.3a2 2 0 0 1 2.82-2.83l10.73 10.72h9.22a2 2 0 0 1 0 4z" fill="#662c22"/><path d="m31.29 549.12a2 2 0 0 1 -1.42-.58l-18.48-18.48h-29.12a2 2 0 0 1 -1.42-.59l-20.07-20.08a2 2 0 0 1 -.59-1.41 2 2 0 0 1 .59-1.42l14.87-14.87v-13h-19.76a2 2 0 0 1 -2-2v-38.44a2 2 0 0 1 2-2 2 2 0 0 1 2 2v36.48h19.76a2 2 0 0 1 2 2v15.79a2 2 0 0 1 -.59 1.42l-14 14 18.08 18.08h29.07a2 2 0 0 1 1.42.58l19.07 19.11a2 2 0 0 1 0 2.83 2 2 0 0 1 -1.41.58z" fill="#662c22"/><path d="m-17.73 530.06a2 2 0 0 1 -1.42-.59 2 2 0 0 1 0-2.83l30.67-30.64v-19.27a2 2 0 0 1 4 0v20.07a2 2 0 0 1 -.59 1.42l-31.25 31.25a2 2 0 0 1 -1.41.59z" fill="#662c22"/><path d="m1839.91 598a2 2 0 0 1 -2-2v-53.94l-29.28-29.27a2 2 0 0 1 -.58-1.42v-27.73l-18.05-18.06a2 2 0 0 1 -.58-1.41v-32.55l-30.09-30.08a2 2 0 0 1 -.58-1.42v-40.12a2 2 0 0 1 4 0v39.32l30.08 30.08a2 2 0 0 1 .59 1.42v32.55l18 18.06a2 2 0 0 1 .59 1.42v27.72l29.28 29.28a2 2 0 0 1 .58 1.41v54.74a2 2 0 0 1 -1.96 2z" fill="#95051d"/><path d="m1791.41 466.17h-37.09a2 2 0 0 1 -1.41-.59l-9.27-9.26h-26.77a2 2 0 0 1 -1.41-.59l-15-15a2 2 0 0 1 2.83-2.83l14.38 14.38h26.77a2 2 0 0 1 1.41.58l9.27 9.27h36.26a2 2 0 0 1 0 4z" fill="#95051d"/><path d="m1745.05 475.44h-8.24a2 2 0 0 1 0-4h7.42l8.68-8.68a2 2 0 1 1 2.82 2.82l-9.26 9.27a2 2 0 0 1 -1.42.59z" fill="#95051d"/><path d="m1810.05 484.82a2 2 0 0 1 -1.42-3.42l15.63-15.62a2 2 0 0 1 1.42-.59h23.71l14.45-14.45-11.25-11.25a2 2 0 0 1 -.59-1.41v-12.95a2 2 0 0 1 2-2h15.83v-29.53a2 2 0 1 1 4 0v31.53a2 2 0 0 1 -2 2h-15.83v10.12l12.08 12.07a2 2 0 0 1 .59 1.42 2 2 0 0 1 -.59 1.41l-16.45 16.45a2 2 0 0 1 -1.42.59h-23.71l-15 15a2 2 0 0 1 -1.45.63z" fill="#95051d"/><path d="m1850.21 469.19a2 2 0 0 1 -1.41-.59l-25.6-25.6a2 2 0 0 1 -.59-1.42v-16.45a2 2 0 1 1 4 0v15.62l25 25a2 2 0 0 1 -1.42 3.41z" fill="#95051d"/><path d="m1211.38 753.76a2 2 0 0 1 -2-2v-88.09l-47.9-47.9a2 2 0 0 1 -.58-1.41v-45.54l-29.69-29.68a2 2 0 0 1 -.58-1.42v-53.38l-49.21-49.2a2 2 0 0 1 -.59-1.41v-65.19a2 2 0 1 1 4 0v64.36l49.17 49.2a2 2 0 0 1 .59 1.41v53.38l29.68 29.68a2 2 0 0 1 .59 1.42v45.54l47.9 47.9a2 2 0 0 1 .58 1.41v88.92a2 2 0 0 1 -1.96 2z" fill="#95051d"/><path d="m1132.63 539.72h-60.21a2 2 0 0 1 -1.42-.59l-15.41-15.41h-44a2 2 0 0 1 -1.42-.59l-24.3-24.29a2 2 0 1 1 2.82-2.83l23.72 23.71h44a2 2 0 0 1 1.41.59l15.42 15.41h59.38a2 2 0 0 1 0 4z" fill="#95051d"/><path d="m1057.37 554.76h-13.37a2 2 0 0 1 0-4h12.54l14.46-14.45a2 2 0 1 1 2.83 2.83l-15 15a2 2 0 0 1 -1.46.62z" fill="#95051d"/><path d="m1162.9 570a2 2 0 0 1 -1.42-3.42l25.37-25.36a2 2 0 0 1 1.42-.59h39l24.73-24.72-19.14-19.14a2 2 0 0 1 -.59-1.42v-21a2 2 0 0 1 2-2h27v-49.21a2 2 0 1 1 4 0v51.21a2 2 0 0 1 -2 2h-27v18.17l20 20a2 2 0 0 1 0 2.83l-26.74 26.65a2 2 0 0 1 -1.42.59h-39l-24.78 24.78a2 2 0 0 1 -1.43.63z" fill="#95051d"/><path d="m1228.11 544.62a2 2 0 0 1 -1.41-.59l-41.58-41.57a2 2 0 0 1 -.58-1.41v-26.7a2 2 0 1 1 4 0v25.87l41 41a2 2 0 0 1 0 2.82 2 2 0 0 1 -1.43.58z" fill="#95051d"/><path d="m1697.55 428.76a8.34 8.34 0 0 0 0-11.78c-7.3-7.29-18.62-6.84-18.62-6.84s.44 12.23 6.83 18.62a8.33 8.33 0 0 0 11.79 0z" fill="#d20c17"/><path d="m1697.55 428.76a8.34 8.34 0 0 1 11.78 0c7.29 7.3 6.84 18.63 6.84 18.63s-12.22-.45-18.62-6.85a8.34 8.34 0 0 1 0-11.78z" fill="#d20c17"/><path d="m1697.55 428.76a8.32 8.32 0 0 0 11.78 0c7.29-7.29 6.84-18.62 6.84-18.62s-12.22.45-18.62 6.84a8.34 8.34 0 0 0 0 11.78z" fill="#d20c17"/><path d="m1697.55 428.76a8.34 8.34 0 0 1 0 11.78c-7.3 7.3-18.62 6.85-18.62 6.85s.44-12.23 6.83-18.63a8.35 8.35 0 0 1 11.79 0z" fill="#d20c17"/><path d="m1697.55 428.76a8.33 8.33 0 0 0 8.33-8.33c0-10.31-8.33-18-8.33-18s-8.33 9-8.33 18a8.33 8.33 0 0 0 8.33 8.33z" fill="#ed0c17"/><path d="m1697.55 428.76a8.34 8.34 0 0 1 8.33 8.34c0 10.31-8.33 18-8.33 18s-8.33-9-8.33-18a8.34 8.34 0 0 1 8.33-8.34z" fill="#ed0c17"/><path d="m1697.55 428.76a8.33 8.33 0 0 0 8.33 8.34c10.31 0 18-8.34 18-8.34s-9-8.33-18-8.33a8.33 8.33 0 0 0 -8.33 8.33z" fill="#ff1c2b"/><path d="m1697.55 428.76a8.33 8.33 0 0 1 -8.33 8.34c-10.32 0-18-8.34-18-8.34s9-8.33 18-8.33a8.33 8.33 0 0 1 8.33 8.33z" fill="#ff1c2b"/><path d="m1871.83 379a8.35 8.35 0 0 0 0-11.79c-7.3-7.28-18.62-6.84-18.62-6.84s.44 12.23 6.83 18.63a8.35 8.35 0 0 0 11.79 0z" fill="#d20c17"/><path d="m1871.83 379a8.32 8.32 0 0 1 11.78 0c7.29 7.29 6.84 18.62 6.84 18.62s-12.22-.45-18.62-6.85a8.32 8.32 0 0 1 0-11.77z" fill="#d20c17"/><path d="m1871.83 379a8.34 8.34 0 0 0 11.78 0c7.29-7.3 6.84-18.63 6.84-18.63s-12.22.45-18.62 6.84a8.35 8.35 0 0 0 0 11.79z" fill="#d20c17"/><path d="m1871.83 379a8.32 8.32 0 0 1 0 11.77c-7.3 7.3-18.62 6.85-18.62 6.85s.44-12.23 6.83-18.62a8.33 8.33 0 0 1 11.79 0z" fill="#d20c17"/><path d="m1871.83 379a8.33 8.33 0 0 0 8.33-8.34c0-10.31-8.33-18-8.33-18s-8.33 9-8.33 18a8.33 8.33 0 0 0 8.33 8.34z" fill="#ed0c17"/><path d="m1871.83 379a8.33 8.33 0 0 1 8.33 8.33c0 10.31-8.33 18-8.33 18s-8.33-9-8.33-18a8.33 8.33 0 0 1 8.33-8.33z" fill="#ed0c17"/><path d="m1871.83 379a8.33 8.33 0 0 0 8.33 8.33c10.31 0 18-8.33 18-8.33s-9-8.34-18-8.34a8.33 8.33 0 0 0 -8.33 8.34z" fill="#ff1c2b"/><path d="m1871.83 379a8.33 8.33 0 0 1 -8.33 8.33c-10.32 0-18-8.33-18-8.33s9-8.34 18-8.34a8.33 8.33 0 0 1 8.33 8.34z" fill="#ff1c2b"/><path d="m1760.83 362a8.35 8.35 0 0 0 0-11.79c-7.3-7.28-18.62-6.84-18.62-6.84s.44 12.23 6.83 18.63a8.35 8.35 0 0 0 11.79 0z" fill="#d20c17"/><path d="m1760.83 362a8.32 8.32 0 0 1 11.78 0c7.29 7.29 6.84 18.62 6.84 18.62s-12.22-.45-18.62-6.85a8.32 8.32 0 0 1 0-11.77z" fill="#d20c17"/><path d="m1760.83 362a8.34 8.34 0 0 0 11.78 0c7.29-7.3 6.84-18.63 6.84-18.63s-12.22.45-18.62 6.84a8.35 8.35 0 0 0 0 11.79z" fill="#d20c17"/><path d="m1760.83 362a8.32 8.32 0 0 1 0 11.77c-7.3 7.3-18.62 6.85-18.62 6.85s.44-12.23 6.83-18.62a8.33 8.33 0 0 1 11.79 0z" fill="#d20c17"/><path d="m1760.83 362a8.33 8.33 0 0 0 8.33-8.34c0-10.31-8.33-18-8.33-18s-8.33 9-8.33 18a8.33 8.33 0 0 0 8.33 8.34z" fill="#ed0c17"/><path d="m1760.83 362a8.33 8.33 0 0 1 8.33 8.33c0 10.31-8.33 18-8.33 18s-8.33-9-8.33-18a8.33 8.33 0 0 1 8.33-8.33z" fill="#ed0c17"/><path d="m1760.83 362a8.33 8.33 0 0 0 8.33 8.33c10.31 0 18-8.33 18-8.33s-9-8.34-18-8.34a8.33 8.33 0 0 0 -8.33 8.34z" fill="#ff1c2b"/><path d="m1760.83 362a8.33 8.33 0 0 1 -8.33 8.33c-10.32 0-18-8.33-18-8.33s9-8.34 18-8.34a8.33 8.33 0 0 1 8.33 8.34z" fill="#ff1c2b"/><path d="m1824.83 422a8.35 8.35 0 0 0 0-11.79c-7.3-7.28-18.62-6.84-18.62-6.84s.44 12.23 6.83 18.63a8.35 8.35 0 0 0 11.79 0z" fill="#d20c17"/><path d="m1824.83 422a8.32 8.32 0 0 1 11.78 0c7.29 7.29 6.84 18.62 6.84 18.62s-12.22-.45-18.62-6.85a8.32 8.32 0 0 1 0-11.77z" fill="#d20c17"/><path d="m1824.83 422a8.34 8.34 0 0 0 11.78 0c7.29-7.3 6.84-18.63 6.84-18.63s-12.22.45-18.62 6.84a8.35 8.35 0 0 0 0 11.79z" fill="#d20c17"/><path d="m1824.83 422a8.32 8.32 0 0 1 0 11.77c-7.3 7.3-18.62 6.85-18.62 6.85s.44-12.23 6.83-18.62a8.33 8.33 0 0 1 11.79 0z" fill="#d20c17"/><path d="m1824.83 422a8.33 8.33 0 0 0 8.33-8.34c0-10.31-8.33-18-8.33-18s-8.33 9-8.33 18a8.33 8.33 0 0 0 8.33 8.34z" fill="#ed0c17"/><path d="m1824.83 422a8.33 8.33 0 0 1 8.33 8.33c0 10.31-8.33 18-8.33 18s-8.33-9-8.33-18a8.33 8.33 0 0 1 8.33-8.33z" fill="#ed0c17"/><path d="m1824.83 422a8.33 8.33 0 0 0 8.33 8.33c10.31 0 18-8.33 18-8.33s-9-8.34-18-8.34a8.33 8.33 0 0 0 -8.33 8.34z" fill="#ff1c2b"/><path d="m1824.83 422a8.33 8.33 0 0 1 -8.33 8.33c-10.32 0-18-8.33-18-8.33s9-8.34 18-8.34a8.33 8.33 0 0 1 8.33 8.34z" fill="#ff1c2b"/><path d="m1072.83 362.13a8.35 8.35 0 0 0 0-11.79c-7.3-7.29-18.62-6.84-18.62-6.84s.45 12.23 6.84 18.63a8.34 8.34 0 0 0 11.78 0z" fill="#d20c17"/><path d="m1072.83 362.13a8.32 8.32 0 0 1 11.78 0c7.29 7.29 6.84 18.62 6.84 18.62s-12.22-.45-18.62-6.85a8.32 8.32 0 0 1 0-11.77z" fill="#d20c17"/><path d="m1072.83 362.13a8.34 8.34 0 0 0 11.78 0c7.29-7.3 6.84-18.63 6.84-18.63s-12.22.45-18.62 6.84a8.35 8.35 0 0 0 0 11.79z" fill="#d20c17"/><path d="m1072.83 362.13a8.32 8.32 0 0 1 0 11.77c-7.3 7.3-18.62 6.85-18.62 6.85s.45-12.23 6.84-18.62a8.32 8.32 0 0 1 11.78 0z" fill="#d20c17"/><path d="m1072.83 362.13a8.34 8.34 0 0 0 8.33-8.34c0-10.31-8.33-18-8.33-18s-8.33 9-8.33 18a8.34 8.34 0 0 0 8.33 8.34z" fill="#ed0c17"/><path d="m1072.83 362.13a8.33 8.33 0 0 1 8.33 8.33c0 10.31-8.33 18-8.33 18s-8.33-9-8.33-18a8.33 8.33 0 0 1 8.33-8.33z" fill="#ed0c17"/><path d="m1072.83 362.13a8.33 8.33 0 0 0 8.33 8.33c10.32 0 18-8.33 18-8.33s-9-8.34-18-8.34a8.33 8.33 0 0 0 -8.33 8.34z" fill="#ff1c2b"/><path d="m1072.83 362.13a8.33 8.33 0 0 1 -8.33 8.33c-10.31 0-18-8.33-18-8.33s9-8.34 18-8.34a8.33 8.33 0 0 1 8.33 8.34z" fill="#ff1c2b"/><path d="m976.5 493.11a8.33 8.33 0 0 0 0-11.79c-7.29-7.29-18.62-6.84-18.62-6.84s.45 12.23 6.84 18.63a8.34 8.34 0 0 0 11.78 0z" fill="#d20c17"/><path d="m976.5 493.11a8.32 8.32 0 0 1 11.78 0c7.29 7.29 6.84 18.62 6.84 18.62s-12.22-.45-18.62-6.85a8.32 8.32 0 0 1 0-11.77z" fill="#d20c17"/><path d="m976.5 493.11a8.35 8.35 0 0 0 11.79 0c7.28-7.3 6.83-18.63 6.83-18.63s-12.22.45-18.62 6.84a8.35 8.35 0 0 0 0 11.79z" fill="#d20c17"/><path d="m976.5 493.11a8.3 8.3 0 0 1 0 11.77c-7.29 7.3-18.62 6.85-18.62 6.85s.45-12.23 6.84-18.62a8.32 8.32 0 0 1 11.78 0z" fill="#d20c17"/><path d="m976.5 493.11a8.35 8.35 0 0 0 8.34-8.34c0-10.31-8.34-18-8.34-18s-8.33 9-8.33 18a8.34 8.34 0 0 0 8.33 8.34z" fill="#ed0c17"/><path d="m976.5 493.11a8.34 8.34 0 0 1 8.34 8.33c0 10.31-8.34 18-8.34 18s-8.33-9-8.33-18a8.33 8.33 0 0 1 8.33-8.33z" fill="#ed0c17"/><path d="m976.5 493.11a8.33 8.33 0 0 0 8.34 8.33c10.31 0 18-8.33 18-8.33s-9-8.34-18-8.34a8.33 8.33 0 0 0 -8.34 8.34z" fill="#ff1c2b"/><path d="m976.5 493.11a8.33 8.33 0 0 1 -8.33 8.33c-10.31 0-18-8.33-18-8.33s9-8.34 18-8.34a8.33 8.33 0 0 1 8.33 8.34z" fill="#ff1c2b"/><path d="m1044 555.87a8.34 8.34 0 0 0 0-11.78c-7.3-7.29-18.62-6.84-18.62-6.84s.44 12.22 6.83 18.62a8.35 8.35 0 0 0 11.79 0z" fill="#d20c17"/><path d="m1044 555.87a8.32 8.32 0 0 1 11.77 0c7.3 7.3 6.85 18.62 6.85 18.62s-12.22-.45-18.62-6.84a8.32 8.32 0 0 1 0-11.78z" fill="#d20c17"/><path d="m1044 555.87a8.34 8.34 0 0 0 11.78 0c7.29-7.29 6.84-18.62 6.84-18.62s-12.22.45-18.62 6.84a8.32 8.32 0 0 0 0 11.78z" fill="#d20c17"/><path d="m1044 555.87a8.34 8.34 0 0 1 0 11.78c-7.3 7.29-18.62 6.84-18.62 6.84s.44-12.22 6.83-18.62a8.35 8.35 0 0 1 11.79 0z" fill="#d20c17"/><path d="m1044 555.87a8.33 8.33 0 0 0 8.33-8.33c0-10.32-8.33-18-8.33-18s-8.33 9-8.33 18a8.33 8.33 0 0 0 8.33 8.33z" fill="#ed0c17"/><path d="m1044 555.87a8.33 8.33 0 0 1 8.33 8.33c0 10.31-8.33 18-8.33 18s-8.33-9-8.33-18a8.33 8.33 0 0 1 8.33-8.33z" fill="#ed0c17"/><path d="m1044 555.87a8.33 8.33 0 0 0 8.33 8.33c10.31 0 18-8.33 18-8.33s-9-8.33-18-8.33a8.33 8.33 0 0 0 -8.33 8.33z" fill="#ff1c2b"/><path d="m1044 555.87a8.33 8.33 0 0 1 -8.33 8.33c-10.32 0-18-8.33-18-8.33s8.95-8.33 18-8.33a8.33 8.33 0 0 1 8.33 8.33z" fill="#ff1c2b"/><path d="m86 382.85a8.33 8.33 0 0 0 0-11.79c-7.29-7.29-18.62-6.84-18.62-6.84s.45 12.23 6.84 18.63a8.34 8.34 0 0 0 11.78 0z" fill="#d20c17"/><path d="m86 382.85a8.32 8.32 0 0 1 11.78 0c7.29 7.29 6.84 18.62 6.84 18.62s-12.21-.47-18.62-6.85a8.32 8.32 0 0 1 0-11.77z" fill="#d20c17"/><path d="m86 382.85a8.34 8.34 0 0 0 11.78 0c7.29-7.3 6.84-18.63 6.84-18.63s-12.22.45-18.62 6.84a8.35 8.35 0 0 0 0 11.79z" fill="#d20c17"/><path d="m86 382.85a8.3 8.3 0 0 1 0 11.77c-7.29 7.3-18.62 6.85-18.62 6.85s.45-12.23 6.84-18.62a8.32 8.32 0 0 1 11.78 0z" fill="#d20c17"/><path d="m86 382.85a8.34 8.34 0 0 0 8.33-8.34c0-10.31-8.33-18-8.33-18s-8.33 9-8.33 18a8.34 8.34 0 0 0 8.33 8.34z" fill="#ed0c17"/><path d="m86 382.85a8.33 8.33 0 0 1 8.33 8.33c0 10.31-8.33 18-8.33 18s-8.33-9-8.33-18a8.33 8.33 0 0 1 8.33-8.33z" fill="#ed0c17"/><path d="m86 382.85a8.33 8.33 0 0 0 8.33 8.33c10.32 0 18-8.33 18-8.33s-9-8.34-18-8.34a8.33 8.33 0 0 0 -8.33 8.34z" fill="#ff1c2b"/><path d="m86 382.85a8.33 8.33 0 0 1 -8.33 8.33c-10.31 0-18-8.33-18-8.33s9-8.34 18-8.34a8.33 8.33 0 0 1 8.33 8.34z" fill="#ff1c2b"/><path d="m163.27 484a8.33 8.33 0 0 0 0-11.79c-7.29-7.28-18.62-6.83-18.62-6.83s.45 12.22 6.84 18.62a8.34 8.34 0 0 0 11.78 0z" fill="#d20c17"/><path d="m163.27 484a8.32 8.32 0 0 1 11.78 0c7.29 7.29 6.84 18.62 6.84 18.62s-12.22-.45-18.62-6.85a8.32 8.32 0 0 1 0-11.77z" fill="#d20c17"/><path d="m163.27 484a8.34 8.34 0 0 0 11.78 0c7.29-7.3 6.84-18.62 6.84-18.62s-12.22.44-18.62 6.83a8.35 8.35 0 0 0 0 11.79z" fill="#d20c17"/><path d="m163.27 484a8.3 8.3 0 0 1 0 11.77c-7.29 7.3-18.62 6.85-18.62 6.85s.45-12.22 6.84-18.62a8.32 8.32 0 0 1 11.78 0z" fill="#d20c17"/><path d="m163.27 484a8.33 8.33 0 0 0 8.33-8.33c0-10.32-8.33-18-8.33-18s-8.33 8.95-8.33 18a8.33 8.33 0 0 0 8.33 8.33z" fill="#ed0c17"/><path d="m163.27 484a8.33 8.33 0 0 1 8.33 8.33c0 10.31-8.33 18-8.33 18s-8.33-9-8.33-18a8.33 8.33 0 0 1 8.33-8.33z" fill="#ed0c17"/><path d="m163.27 484a8.33 8.33 0 0 0 8.33 8.33c10.32 0 18-8.33 18-8.33s-8.95-8.33-18-8.33a8.33 8.33 0 0 0 -8.33 8.33z" fill="#ff1c2b"/><path d="m163.27 484a8.33 8.33 0 0 1 -8.33 8.33c-10.31 0-18-8.33-18-8.33s9-8.33 18-8.33a8.33 8.33 0 0 1 8.33 8.33z" fill="#ff1c2b"/><path d="m13.52 462.74a8.34 8.34 0 0 0 0-11.78c-7.3-7.29-18.62-6.84-18.62-6.84s.44 12.22 6.83 18.62a8.33 8.33 0 0 0 11.79 0z" fill="#d20c17"/><path d="m13.52 462.74a8.32 8.32 0 0 1 11.77 0c7.3 7.3 6.85 18.62 6.85 18.62s-12.22-.45-18.62-6.84a8.32 8.32 0 0 1 0-11.78z" fill="#d20c17"/><path d="m13.52 462.74a8.32 8.32 0 0 0 11.78 0c7.29-7.29 6.84-18.62 6.84-18.62s-12.22.45-18.62 6.84a8.32 8.32 0 0 0 0 11.78z" fill="#d20c17"/><path d="m13.52 462.74a8.34 8.34 0 0 1 0 11.78c-7.3 7.29-18.62 6.84-18.62 6.84s.44-12.22 6.83-18.62a8.35 8.35 0 0 1 11.79 0z" fill="#d20c17"/><path d="m13.52 462.74a8.33 8.33 0 0 0 8.33-8.33c0-10.31-8.33-18-8.33-18s-8.33 9-8.33 18a8.33 8.33 0 0 0 8.33 8.33z" fill="#ed0c17"/><path d="m13.52 462.74a8.33 8.33 0 0 1 8.33 8.33c0 10.32-8.33 18-8.33 18s-8.33-8.95-8.33-18a8.33 8.33 0 0 1 8.33-8.33z" fill="#ed0c17"/><path d="m13.52 462.74a8.33 8.33 0 0 0 8.33 8.33c10.31 0 18-8.33 18-8.33s-9-8.33-18-8.33a8.33 8.33 0 0 0 -8.33 8.33z" fill="#ff1c2b"/><path d="m13.52 462.74a8.33 8.33 0 0 1 -8.33 8.33c-10.32 0-18-8.33-18-8.33s9-8.33 18-8.33a8.33 8.33 0 0 1 8.33 8.33z" fill="#ff1c2b"/><path d="m125.28 540.45a8.34 8.34 0 0 0 0-11.78c-7.3-7.29-18.62-6.84-18.62-6.84s.44 12.22 6.83 18.62a8.33 8.33 0 0 0 11.79 0z" fill="#d20c17"/><path d="m125.28 540.45a8.34 8.34 0 0 1 11.78 0c7.29 7.3 6.84 18.62 6.84 18.62s-12.22-.45-18.62-6.84a8.34 8.34 0 0 1 0-11.78z" fill="#d20c17"/><path d="m125.28 540.45a8.32 8.32 0 0 0 11.78 0c7.29-7.29 6.84-18.62 6.84-18.62s-12.22.45-18.62 6.84a8.34 8.34 0 0 0 0 11.78z" fill="#d20c17"/><path d="m125.28 540.45a8.34 8.34 0 0 1 0 11.78c-7.3 7.29-18.62 6.84-18.62 6.84s.44-12.22 6.83-18.62a8.35 8.35 0 0 1 11.79 0z" fill="#d20c17"/><path d="m125.28 540.45a8.33 8.33 0 0 0 8.33-8.33c0-10.31-8.33-18-8.33-18s-8.33 9-8.33 18a8.33 8.33 0 0 0 8.33 8.33z" fill="#ed0c17"/><path d="m125.28 540.45a8.33 8.33 0 0 1 8.33 8.33c0 10.32-8.33 18-8.33 18s-8.33-8.95-8.33-18a8.33 8.33 0 0 1 8.33-8.33z" fill="#ed0c17"/><path d="m125.28 540.45a8.33 8.33 0 0 0 8.33 8.33c10.31 0 18-8.33 18-8.33s-9-8.33-18-8.33a8.33 8.33 0 0 0 -8.33 8.33z" fill="#ff1c2b"/><path d="m125.28 540.45a8.33 8.33 0 0 1 -8.33 8.33c-10.32 0-18-8.33-18-8.33s9-8.33 18-8.33a8.33 8.33 0 0 1 8.33 8.33z" fill="#ff1c2b"/><path d="m1193.84 462.74a8.34 8.34 0 0 0 0-11.78c-7.3-7.29-18.62-6.84-18.62-6.84s.44 12.22 6.83 18.62a8.33 8.33 0 0 0 11.79 0z" fill="#d20c17"/><path d="m1193.84 462.74a8.34 8.34 0 0 1 11.78 0c7.29 7.3 6.84 18.62 6.84 18.62s-12.22-.45-18.62-6.84a8.34 8.34 0 0 1 0-11.78z" fill="#d20c17"/><path d="m1193.84 462.74a8.32 8.32 0 0 0 11.78 0c7.29-7.29 6.84-18.62 6.84-18.62s-12.22.45-18.62 6.84a8.34 8.34 0 0 0 0 11.78z" fill="#d20c17"/><path d="m1193.84 462.74a8.34 8.34 0 0 1 0 11.78c-7.3 7.29-18.62 6.84-18.62 6.84s.44-12.22 6.83-18.62a8.35 8.35 0 0 1 11.79 0z" fill="#d20c17"/><path d="m1193.84 462.74a8.33 8.33 0 0 0 8.33-8.33c0-10.31-8.33-18-8.33-18s-8.33 9-8.33 18a8.33 8.33 0 0 0 8.33 8.33z" fill="#ed0c17"/><path d="m1193.84 462.74a8.33 8.33 0 0 1 8.33 8.33c0 10.32-8.33 18-8.33 18s-8.33-8.95-8.33-18a8.33 8.33 0 0 1 8.33-8.33z" fill="#ed0c17"/><path d="m1193.84 462.74a8.33 8.33 0 0 0 8.33 8.33c10.31 0 18-8.33 18-8.33s-9-8.33-18-8.33a8.33 8.33 0 0 0 -8.33 8.33z" fill="#ff1c2b"/><path d="m1193.84 462.74a8.33 8.33 0 0 1 -8.33 8.33c-10.32 0-18-8.33-18-8.33s9-8.33 18-8.33a8.33 8.33 0 0 1 8.33 8.33z" fill="#ff1c2b"/><path d="m1269.85 410.72a8.32 8.32 0 0 0 0-11.78c-7.29-7.29-18.62-6.84-18.62-6.84s.45 12.22 6.84 18.62a8.34 8.34 0 0 0 11.78 0z" fill="#d20c17"/><path d="m1269.85 410.72a8.34 8.34 0 0 1 11.78 0c7.29 7.3 6.84 18.62 6.84 18.62s-12.22-.45-18.62-6.84a8.34 8.34 0 0 1 0-11.78z" fill="#d20c17"/><path d="m1269.85 410.72a8.34 8.34 0 0 0 11.78 0c7.29-7.29 6.84-18.62 6.84-18.62s-12.22.45-18.62 6.84a8.34 8.34 0 0 0 0 11.78z" fill="#d20c17"/><path d="m1269.85 410.72a8.32 8.32 0 0 1 0 11.78c-7.29 7.29-18.62 6.84-18.62 6.84s.45-12.22 6.84-18.62a8.34 8.34 0 0 1 11.78 0z" fill="#d20c17"/><path d="m1269.85 410.72a8.33 8.33 0 0 0 8.33-8.33c0-10.31-8.33-18-8.33-18s-8.33 9-8.33 18a8.33 8.33 0 0 0 8.33 8.33z" fill="#ed0c17"/><path d="m1269.85 410.72a8.33 8.33 0 0 1 8.33 8.33c0 10.32-8.33 18-8.33 18s-8.33-9-8.33-18a8.33 8.33 0 0 1 8.33-8.33z" fill="#ed0c17"/><path d="m1269.85 410.72a8.33 8.33 0 0 0 8.33 8.33c10.32 0 18-8.33 18-8.33s-9-8.33-18-8.33a8.33 8.33 0 0 0 -8.33 8.33z" fill="#ff1c2b"/><path d="m1269.85 410.72a8.33 8.33 0 0 1 -8.33 8.33c-10.31 0-18-8.33-18-8.33s9-8.33 18-8.33a8.33 8.33 0 0 1 8.33 8.33z" fill="#ff1c2b"/><path d="m1186.54 623.51a8.34 8.34 0 0 0 0-11.78c-7.3-7.29-18.62-6.84-18.62-6.84s.44 12.22 6.83 18.62a8.35 8.35 0 0 0 11.79 0z" fill="#d20c17"/><path d="m1186.54 623.51a8.34 8.34 0 0 1 11.78 0c7.29 7.3 6.84 18.62 6.84 18.62s-12.22-.45-18.62-6.84a8.32 8.32 0 0 1 0-11.78z" fill="#d20c17"/><path d="m1186.54 623.51a8.34 8.34 0 0 0 11.78 0c7.29-7.29 6.84-18.62 6.84-18.62s-12.22.45-18.62 6.84a8.32 8.32 0 0 0 0 11.78z" fill="#d20c17"/><path d="m1186.54 623.51a8.34 8.34 0 0 1 0 11.78c-7.3 7.29-18.62 6.84-18.62 6.84s.44-12.22 6.83-18.62a8.35 8.35 0 0 1 11.79 0z" fill="#d20c17"/><path d="m1186.54 623.51a8.33 8.33 0 0 0 8.33-8.33c0-10.31-8.33-18-8.33-18s-8.33 9-8.33 18a8.33 8.33 0 0 0 8.33 8.33z" fill="#ed0c17"/><path d="m1186.54 623.51a8.33 8.33 0 0 1 8.33 8.33c0 10.32-8.33 18-8.33 18s-8.33-9-8.33-18a8.33 8.33 0 0 1 8.33-8.33z" fill="#ed0c17"/><path d="m1186.54 623.51a8.33 8.33 0 0 0 8.33 8.33c10.31 0 18-8.33 18-8.33s-9-8.33-18-8.33a8.33 8.33 0 0 0 -8.33 8.33z" fill="#ff1c2b"/><path d="m1186.54 623.51a8.33 8.33 0 0 1 -8.33 8.33c-10.32 0-18-8.33-18-8.33s9-8.33 18-8.33a8.33 8.33 0 0 1 8.33 8.33z" fill="#ff1c2b"/><path d="m315.36 723.38-101.61 4.56 8.95-13.71 82.53-3.7z" fill="#e33d41"/><path d="m220.32 730.09 1.68 37.35 28.7-1.29-.57-12.75a15.67 15.67 0 0 1 14.94-16.4 15.68 15.68 0 0 1 16.35 15l.57 12.76 28.7-1.29-1.69-37.36zm14.45 15a5.23 5.23 0 1 1 5-5.46 5.23 5.23 0 0 1 -5 5.43zm61.23-2.78a5.22 5.22 0 1 1 5-5.45 5.22 5.22 0 0 1 -5 5.45z" fill="#e33d41"/><path d="m99.5 787.28q46.22-10 93.44-15.83c84.84-10.45 228.22-16.13 272.06 8.19 97 53.82 308 26.05 365 0 125.45-57.31 284.29 35.09 345 46 82 14.76 363-103.3 486-96.35 125.67 7.09 259 68.57 259 68.57v314.25s-662 1.73-821 0-900-25.18-982-22.57-119.2-2.49-119.2-2.49l2.2-282.23s15.06.69 99.5-17.54z" fill="#890622"/><path d="m341.27 547.78h5.81v-5.47h11.92l-12.54-36h-19.97v-30h5.16l21.79-29.15h-6.66a42.68 42.68 0 0 1 -32.66-15.16l-.1-.11a11.7 11.7 0 0 0 2.27-13.3 7.77 7.77 0 0 1 -1.93 5.18 9.4 9.4 0 0 1 -7.22 3.23h-66.69a9.43 9.43 0 0 1 -7.22-3.23 7.81 7.81 0 0 1 -1.92-5.18 11.68 11.68 0 0 0 2.39 13.41 42.72 42.72 0 0 1 -32.7 15.17h-6.66l21.79 29.15h5.16v30h-20l-12.55 36h11.9v5.47h5.81v44.31h-21.12v8.39h191.55v-8.39h-35.61zm-4.12 44.31h-19.88v-44.31h19.88zm-63.24-37.94a13.75 13.75 0 0 0 -13.75 13.76v24.18h-25.49v-44.31h78.48v44.31h-25.49v-24.18a13.76 13.76 0 0 0 -13.75-13.76zm47.73-77.83v30h-17v-30zm-21.81 0v30h-51.83v-30zm-73.65 0h17v30h-17zm-15.51 71.46h19.88v44.31h-19.88z" fill="#95051d"/><g fill="#e33d41"><path d="m442.52 887.47c-5.23 10.64-23.08 10.41-25.82 10.3h-165.28s-20.55 1.24-26.21-10.29c0 0-9.45 35.66 26.21 35.66h165.28c35.19-.29 25.82-35.67 25.82-35.67z"/><path d="m409.72 846.92c-3.65 7.43-16.12 7.26-18 7.19h-115.41s-14.31.89-18.31-7.19c0 0-6.6 24.9 18.3 24.9h115.39c24.57-.2 18.03-24.9 18.03-24.9z"/><path d="m387.56 813.47c-2.58 5.26-11.41 5.14-12.76 5.09h-81.68s-10.15.62-12.95-5.08c0 0-4.67 17.63 12.95 17.63h81.68c17.39-.11 12.76-17.64 12.76-17.64z"/><path d="m374.58 822.28-40.72-40.71-40.71 40.71z"/><path d="m311.93 827.86h47.41v37.38h-47.41z"/><path d="m283.16 863h104.96v51.32h-104.96z"/><path d="m246.65 912.09v140.57h29.26v-56.57a59.73 59.73 0 1 1 119.46 0v56.57h29.26v-140.57z"/><path d="m336.54 808.3a2.68 2.68 0 0 1 -2.68 2.68 2.69 2.69 0 0 1 -2.68-2.68v-51.73a2.69 2.69 0 0 1 2.68-2.68 2.68 2.68 0 0 1 2.68 2.68z"/><path d="m288.38 946.98h5.05v105.69h-5.05z"/><path d="m380.25 946.98h5.05v105.69h-5.05z"/><path d="m614.34 989.65c-4.2 8.54-18.54 8.35-20.74 8.27h-132.77s-16.51 1-21.06-8.26c0 0-7.59 28.64 21.06 28.64h132.77c28.27-.23 20.74-28.65 20.74-28.65z"/><path d="m588 957.07c-2.93 6-12.94 5.84-14.48 5.78h-92.7s-11.52.7-14.7-5.77c0 0-5.3 20 14.7 20h92.69c19.73-.17 14.49-20.01 14.49-20.01z"/><path d="m570.19 930.2c-2.07 4.22-9.16 4.13-10.25 4.09h-65.61s-8.16.5-10.41-4.08c0 0-3.75 14.16 10.41 14.16h65.61c13.97-.12 10.25-14.17 10.25-14.17z"/><path d="m559.76 937.28-32.71-32.71-32.7 32.71z"/><path d="m494.81 941.76h67.34v53.09h-67.34z"/><path d="m486.32 969.99h84.32v41.23h-84.32z"/><path d="m487.08 1052.66a48 48 0 0 1 82.81 0h30.11v-43.23h-143v43.23z"/><path d="m529.21 939.61a2.16 2.16 0 0 1 -2.16 2.15 2.15 2.15 0 0 1 -2.15-2.15v-41.56a2.15 2.15 0 0 1 2.15-2.15 2.16 2.16 0 0 1 2.16 2.15z"/><path d="m727.17 877.78c-2.44 5-10.77 4.86-12 4.81h-77.17s-9.59.58-12.23-4.8c0 0-4.41 16.64 12.23 16.64h77.15c16.39-.14 12.02-16.65 12.02-16.65z"/><path d="m701.52 843.24c-1.21 2.45-5.33 2.4-6 2.37h-38.08s-4.74.29-6.05-2.37c0 0-2.18 8.22 6.05 8.22h38.12c8.12-.06 5.96-8.22 5.96-8.22z"/><path d="m695.46 847.35-19.01-19-19 19z"/><path d="m661.93 849.96h30.71v41.44h-30.71z"/><path d="m635.75 889.27v163.39h13.66v-124.18a27.88 27.88 0 1 1 55.75 0v124.18h13.66v-163.39z"/><path d="m677.71 840.82a1.27 1.27 0 0 1 -1.26 1.26 1.26 1.26 0 0 1 -1.25-1.26v-24.14a1.25 1.25 0 0 1 1.25-1.25 1.26 1.26 0 0 1 1.26 1.25z"/><path d="m809.39 935.63c-1.64 3.32-7.21 3.25-8.07 3.22h-51.62s-6.42.39-8.19-3.21c0 0-3 11.14 8.19 11.14h51.62c10.99-.1 8.07-11.15 8.07-11.15z"/><path d="m792.22 912.52c-.81 1.63-3.56 1.6-4 1.58h-25.5s-3.17.2-4-1.58c0 0-1.46 5.5 4 5.5h25.52c5.43-.02 3.98-5.5 3.98-5.5z"/><path d="m788.16 915.27-12.71-12.72-12.72 12.72z"/><path d="m765.73 917.01h20.55v27.73h-20.55z"/><path d="m748.21 943.32v109.34h9.14v-83.1a18.66 18.66 0 1 1 37.31 0v83.1h9.14v-109.34z"/><path d="m776.29 910.9a.85.85 0 0 1 -.84.84.85.85 0 0 1 -.84-.84v-16.16a.85.85 0 0 1 .84-.84.85.85 0 0 1 .84.84z"/><path d="m199.3 1024.79 13.64 13.63h16.92l11.14 11.15h106.79 62.72l14.6-9.92 11.09 11.09h31.02l17.42 2.92h87.88l22.79-.94 11.05-6.39h32.85l10.2 7.33h58.91l6.87-10.28h21.87l11.15 10.28h9.14 43.84l14.75-14.76h54.73l140.33 40.51-811.54 1.03z"/><path d="m1538.47 831.16h119.52v12.86h-119.52z"/><path d="m1547.34 790.8v46.79h101.79v-46.79zm70.75 42.53h-39.71v-14a19.86 19.86 0 1 1 39.71 0z"/><path d="m1547.34 847v45.57h101.79v-45.57zm70.75 42.54h-39.71v-14a19.86 19.86 0 1 1 39.71 0z"/><path d="m1510.53 782a10.32 10.32 0 0 0 10.33 10.21h154.75a10.35 10.35 0 0 0 10.39-10.21z"/><path d="m1510.53 841.88a10.32 10.32 0 0 0 10.33 10.2h154.75a10.34 10.34 0 0 0 10.34-10.2z"/><path d="m1538.47 889.52h119.52v12.86h-119.52z"/><path d="m1547.34 905.34h101.8v42.53h-101.8z"/><path d="m1522.92 900.24a10.34 10.34 0 0 0 10.33 10.2h130a10.34 10.34 0 0 0 10.33-10.2z"/><path d="m1664.83 781.95-66.6-52.55-66.58 52.55 61.53 5.11 2-2.02 8.11 2.02z"/><path d="m1611.68 749.06-13.45-85.06-13.43 85.06 12.41 1.03.41-.41 1.64.41z"/><path d="m1534.22 907.54h4.25v40.34h-4.25z"/><path d="m1658 907.54h4.25v40.34h-4.25z"/><path d="m1295.96 968.09h47.27v5.09h-47.27z"/><path d="m1299.46 952.13v16.87h12.28v-5.54a7.86 7.86 0 0 1 15.71 0v5.54h12.27v-16.87z"/><path d="m1299.46 974.35v17.65h40.26v-17.65zm28 16.82h-15.71v-5.54a7.86 7.86 0 0 1 15.71 0z"/><path d="m1284.9 948.63a4.09 4.09 0 0 0 4.09 4h61.21a4.08 4.08 0 0 0 4.08-4z"/><path d="m1284.9 972.33a4.09 4.09 0 0 0 4.09 4h61.21a4.08 4.08 0 0 0 4.08-4z"/><path d="m1295.96 991.17h47.27v5.09h-47.27z"/><path d="m1299.46 997.43h40.26v16.82h-40.26z"/><path d="m1289.81 995.42a4.08 4.08 0 0 0 4.08 4h51.41a4.08 4.08 0 0 0 4.08-4z"/><path d="m1345.93 948.63-26.34-20.79-26.33 20.79 24.33 2.02.8-.8 3.2.8z"/><path d="m1324.91 935.62-5.32-33.64-5.31 33.64 4.91.41.16-.16.65.16z"/><path d="m1294.28 998.3h1.68v15.96h-1.68z"/><path d="m1343.23 998.3h1.68v15.96h-1.68z"/><path d="m1839.92 935.88h40.26v18.51h-40.26z"/><path d="m1836.41 951.85h47.27v5.09h-47.27z"/><path d="m1860.05 939.31a7.85 7.85 0 0 0 -7.85 7.85v5.55h15.71v-5.55a7.86 7.86 0 0 0 -7.86-7.85z"/><path d="m1839.92 958.11h40.26v19.37h-40.26z"/><path d="m1860.05 961.54a7.84 7.84 0 0 0 -7.85 7.85v5.54h15.71v-5.54a7.85 7.85 0 0 0 -7.86-7.85z"/><path d="m1825.36 932.39a4.08 4.08 0 0 0 4.09 4h61.2a4.08 4.08 0 0 0 4.09-4z"/><path d="m1825.36 956.09a4.08 4.08 0 0 0 4.09 4h61.2a4.08 4.08 0 0 0 4.09-4z"/><path d="m1836.41 974.93h47.27v5.09h-47.27z"/><path d="m1839.92 981.19h40.26v29.69h-40.26z"/><path d="m1830.26 979.17a4.1 4.1 0 0 0 4.09 4h51.4a4.1 4.1 0 0 0 4.09-4z"/><path d="m1886.39 932.39-26.34-20.79-26.34 20.79 24.34 2.01.79-.79 3.21.79z"/><path d="m1865.37 919.38-5.32-33.65-5.31 33.65 4.91.4.16-.16.64.16z"/><path d="m1834.73 982.06h1.68v15.96h-1.68z"/><path d="m1883.69 982.06h1.68v44.68h-1.68z"/><path d="m1925 1028.33h-25.48l-30.31-30.32h-35.95l-24.14-24.14h-63.46l-32-32h-201.82l-24.6 24.6h-84.38l-45.08 45.07h-63.84l-38.21 38.43h-238.01l-36.79 29.91h944.07z"/><path d="m1143.67 1010c-43.45 0-83.18 11.72-113.89 31.1v11.11h19.39a20.29 20.29 0 0 1 38.69 0h24.86a33.24 33.24 0 0 1 61.9 0h23.77a20.29 20.29 0 0 1 38.69 0h20.48v-11.11c-30.71-19.4-70.44-31.1-113.89-31.1z"/><path d="m1257.56 1033.27a2.15 2.15 0 0 1 -1-.27c-65.41-35.5-123.28-33.62-160.31-25.78-40.08 8.48-64.94 25.49-65.18 25.66a2.18 2.18 0 0 1 -2.49-3.59c1-.72 25.84-17.68 66.77-26.34 37.74-8 96.71-9.92 163.29 26.22a2.18 2.18 0 0 1 -1 4.1z"/><path d="m1037.55 1025.99h1.45v14.6h-1.45z"/><path d="m1247.27 1025.99h1.45v14.6h-1.45z"/><path d="m1142.94 1001.11h1.45v14.6h-1.45z"/><path d="m1069.17 1013.1h1.45v14.6h-1.45z"/><path d="m1218.31 1013.1h1.45v14.6h-1.45z"/><path d="m18.87 930.76h32.38v3.48h-32.38z"/><path d="m21.27 919.83v11.52h8.41v-3.79a5.38 5.38 0 0 1 10.76 0v3.79h8.41v-11.52z"/><path d="m21.27 935.05v11.52h8.41v-3.79a5.38 5.38 0 0 1 10.76 0v3.79h8.41v-11.52z"/><path d="m11.3 917.43a2.8 2.8 0 0 0 2.8 2.77h41.9a2.81 2.81 0 0 0 2.8-2.77z"/><path d="m11.3 933.67a2.79 2.79 0 0 0 2.8 2.76h41.9a2.8 2.8 0 0 0 2.8-2.76z"/><path d="m18.87 946.57h32.38v3.49h-32.38z"/><path d="m21.27 950.86h27.58v11.52h-27.58z"/><path d="m14.66 949.48a2.79 2.79 0 0 0 2.8 2.76h35.21a2.8 2.8 0 0 0 2.8-2.76z"/><path d="m53.1 917.43-18.04-14.24-18.04 14.24 16.67 1.39.55-.55 2.19.55z"/><path d="m38.7 908.52-3.64-23.05-3.64 23.05 3.37.28.11-.11.44.11z"/><path d="m17.72 951.46h1.15v10.93h-1.15z"/><path d="m51.25 951.46h1.15v10.93h-1.15z"/><path d="m-.85 925.02 26.15 36.68h28.5l19.32 19.32h42.01l11.74 50.1h21.91l47.4 48.76h-197.18z"/></g><path d="m1528.63 424.74v-13.27h-10.43v-47.47c13.64-2.22 25.68-7.47 28.46-18.73a63.49 63.49 0 0 1 -23.63 8.17v-11.9h-9.4v-42.84c12.29-2 23.15-6.74 25.66-16.89a57.28 57.28 0 0 1 -21.86 7.44v-10.25h-8.38v-42c4.83-1.91 8.52-4.93 9.67-9.59 0 0-15.21 9.7-30 3.09 0 0 11.18-5.73 12.53-10.14 0 0-12.43 8.53-25.89-6.07a4.81 4.81 0 0 0 1.23-3.22 4.86 4.86 0 0 0 -4-4.78v-38.46a.89.89 0 0 0 -.5-.8v-14.03h-.79v14a.91.91 0 0 0 -.5.8v38.38a4.85 4.85 0 0 0 -2.74 8c-13.45 14.6-25.88 6.07-25.88 6.07 1.34 4.41 12.52 10.14 12.52 10.14-14.76 6.61-30-3.09-30-3.09 1.15 4.66 4.84 7.68 9.66 9.59v42h-8.37v10.3a57.37 57.37 0 0 1 -21.87-7.44c2.52 10.15 13.37 14.89 25.67 16.89v42.84h-9.41v11.85a63.49 63.49 0 0 1 -23.63-8.17c2.79 11.26 14.83 16.51 28.47 18.73v47.52h-10.43v13.27a72.49 72.49 0 0 1 -28.76-9.54c3.18 12.87 16.95 18.88 32.54 21.42v54.2h-4.23l-7.11 19.65h128.86l-7.12-19.65h-4.22v-54.2c15.59-2.54 29.35-8.55 32.54-21.42a72.49 72.49 0 0 1 -28.66 9.6zm-96.65-11v8h-5.92v-8zm39.78-44.5a10.61 10.61 0 0 1 10.61 10.61v31.64h-21.23v-31.66a10.62 10.62 0 0 1 10.62-10.61zm45.69 44.5v8h-5.91v-8zm-59.83 0v8h-5.92v-8zm34.19 0v8h-5.92v-8zm-8.55 0v8h-5.91v-8zm-8.54 8h-5.92v-8h5.92zm-8.55 0h-5.92v-8h5.92zm42.74 0h-5.91v-8h5.92zm-8.55 0h-5.92v-8h5.92zm-51.29-8v8h-5.91v-8zm-8.54 8h-5.92v-8h5.92zm85.47 0h-5.92v-8h5.92zm-31.54-10.3v-26a9 9 0 1 1 18 0v26zm-58.56-67.9v7.26h-5.34v-7.26zm35.86-40.13a9.58 9.58 0 0 1 9.57 9.57v28.53h-19.14v-28.51a9.57 9.57 0 0 1 9.57-9.56zm41.24 40.16v7.26h-5.33v-7.26zm-53.94 0v7.26h-5.33v-7.26zm30.83 0v7.26h-5.34v-7.26zm-7.71 0v7.26h-5.33v-7.26zm-7.7 7.26h-5.34v-7.26h5.34zm-7.71 0h-5.34v-7.26h5.34zm38.53 0h-5.34v-7.26h5.34zm-7.71 0h-5.33v-7.26h5.33zm-46.23-7.26v7.26h-5.36v-7.26zm-7.71 7.26h-5.33v-7.26h5.33zm77.06 0h-5.33v-7.26h5.33zm-28.43-9.29v-23.48a8.12 8.12 0 1 1 16.24 0v23.48zm-52.42-60.78v6.47h-4.75v-6.47zm32-35.74a8.52 8.52 0 0 1 8.52 8.52v25.46h-17v-25.46a8.53 8.53 0 0 1 8.38-8.54zm36.69 35.74v6.47h-4.75v-6.47zm-48 0v6.47h-4.76v-6.47zm27.45 0v6.47h-4.75v-6.47zm-6.86 0v6.47h-4.75v-6.47zm-6.87 6.47h-4.75v-6.47h4.75zm-6.86 0h-4.75v-6.47h4.75zm34.32 0h-4.75v-6.47h4.75zm-6.86 0h-4.87v-6.47h4.76zm-41.19-6.47v6.47h-4.75v-6.47zm-6.86 6.47h-4.75v-6.47h4.75zm68.64 0h-4.76v-6.47h4.76zm-25.46-8.23v-21a7.24 7.24 0 1 1 14.47 0v21zm-50.95-21a7.24 7.24 0 1 1 14.48 0v21h-14.48zm-10.85 22.72h4.8v6.47h-4.75zm6.84 37.3a8.13 8.13 0 1 1 16.25 0v23.48h-16.29zm-12.19 25.51h5.34v7.26h-5.34zm8.18 41.86a9 9 0 0 1 18 0v26h-18zm-13.51 28.29h5.91v8h-5.91zm66.37 77.1h-24.27v-36.01a12.15 12.15 0 0 1 12.14-12.14 12.14 12.14 0 0 1 12.13 12.14zm-58.69-29.65a10.3 10.3 0 1 1 20.6 0v29.65h-20.6zm72.51 29.65v-29.61a10.3 10.3 0 1 1 20.6 0v29.65z" fill="#95051d"/><path d="m1394.5 513.55h154.52v9.42h-154.52z" fill="#95051d"/><path d="m815.94 435.12h1.87l11.37-15.22h-3.47a22.28 22.28 0 0 1 -17.05-7.9v-.06a6.11 6.11 0 0 0 1.14-6.94 4.09 4.09 0 0 1 -1 2.71 4.91 4.91 0 0 1 -3.77 1.68h-34.8a4.91 4.91 0 0 1 -3.77-1.68 4.09 4.09 0 0 1 -1-2.71 6.1 6.1 0 0 0 1.25 7 22.28 22.28 0 0 1 -11.34 7.18v-17.8h1.87l11.38-15.21h-3.48a22.27 22.27 0 0 1 -17-7.93l-.06-.06a6.08 6.08 0 0 0 1.19-6.93 4.08 4.08 0 0 1 -1 2.7 4.91 4.91 0 0 1 -3.76 1.68h-34.88a4.91 4.91 0 0 1 -3.77-1.68 4.13 4.13 0 0 1 -1-2.7 6.09 6.09 0 0 0 1.25 7 22.3 22.3 0 0 1 -17.05 7.93h-3.47l11.41 15.18h3.51v18.16a22.28 22.28 0 0 1 -13-7.54v-.06a6.11 6.11 0 0 0 1.19-6.94 4.09 4.09 0 0 1 -1 2.71 4.91 4.91 0 0 1 -3.77 1.68h-34.8a4.91 4.91 0 0 1 -3.77-1.68 4.09 4.09 0 0 1 -1-2.71 6.1 6.1 0 0 0 1.25 7 22.26 22.26 0 0 1 -17 7.92h-3.61l11.37 15.22h3.51v12.61h-6.83v20.5h7.66v67.61h-7.66v13.58h64.67v-81.19h58.74v81.19h91.54v-13.58h-34.53v-67.61h7.66v-20.5h-5.19zm-2.53 0v12.61h-8.86v-12.61zm-11.38 0v12.61h-27.03v-12.61zm-29.59 0v12.61h-8.86v-12.61zm-14.9 0h3.52v12.61h-5.71v-15.55zm-4.72-33.76v18.31a22.21 22.21 0 0 1 -3.17.23h-3.48l6.65 8.9v18.93h-8.82v-46.37zm-11.38 0v46.37h-27.06v-46.37zm-38.44 0h8.85v46.37h-8.85v-21.12l5-6.71h-3.48c-.51 0-1 0-1.53 0zm-2.53 28.64v17.74h-5.71v-12.62h1.88zm-8.23 5.13v12.61h-8.86v-12.62zm-11.39 0v12.61h-27.06v-12.62zm-38.44 0h8.85v12.61h-8.85zm45.72 100.72h-37.83v-67.62h37.83zm115.76 0h-37.84v-67.62h37.84z" fill="#95051d"/><path d="m971.76 746.38h-3.37v-29.58h3.37l14.24-19h-4.35a27.9 27.9 0 0 1 -21.34-9.92l-.06-.07a7.65 7.65 0 0 0 1.48-8.69 5.13 5.13 0 0 1 -1.26 3.39 6.16 6.16 0 0 1 -4.71 2.11h-43.56a6.19 6.19 0 0 1 -4.72-2.11 5.13 5.13 0 0 1 -1.26-3.39 7.63 7.63 0 0 0 1.57 8.76 27.92 27.92 0 0 1 -21.34 9.92h-4.35l14.24 19h3.36v29.58h-3.36v11.4h-10.09v5.7h95.6v-5.7h-10.09zm-6.53-29.58v29.58h-11.08v-29.58zm-14.25 0v29.58h-33.87v-29.58zm-48.11 0h11.13v29.58h-11.13z" fill="#e33d41"/></g></svg>