<svg viewBox="0 0 1920 1080" xmlns="http://www.w3.org/2000/svg" xmlns:xlink="http://www.w3.org/1999/xlink"><clipPath id="a"><path d="m0 0h1920v1080h-1920z"/></clipPath><g clip-path="url(#a)"><path d="m0 0h1920v1072.15h-1920z" fill="#fabe46"/><path d="m1926.86 301.91a306.29 306.29 0 0 0 1.93-31.19c-43.61 4.74-79.61 32.13-114.7 68.92-16.29 17.08-42.45 25.36-62.8 21.84-55.34-9.58-97.74 33.29-139.89 68.21-50.22 41.58-94.5 42.73-139.85-5-14.87-15.65-27.92-3.92-40.47.79-15.6 5.86-27.82 5.16-38.68-12.37-15.27-15.41-29.79-32.09-50.64-29.32-19.84 2.64-39.11-.19-57.74-14-12.94-9.59-28.47-8-42-.63-39.82 21.58-76.86 9.86-115-11.41-30.3-16.91-59.49-36.38-93.53-42.74-61.1-11.41-114.05 25.65-162.6 59.86-61.18 43.13-122.58 53.07-187.14 58.28-18.65 1.51-35.2-11.73-55.19-5.67-70.9 21.45-129 90.23-202.41 104.83-42.8 8.51-86.18 29.35-124.94-2-33.37-27-64.88-58.82-101.29-77.41-10.09-5.16-17-12.34-21.91-26-21.93-60.52-58.9-86.31-104.56-91.21-61.92-20.3-100.38 54.82-151.63 78.8-40.52 18.95-79.11 39-122 50.22-47.82 12.49-105.75 4.12-141.32 72.62-8.94 17.2-15 10.06-22.12-4-5-10-12.8-17.1-19.35-25.49 0 18.13 20.6 44.61 41 55.31l-51.86 190.85 2322.62-41.87 10.86-417.32z" fill="#f38720"/><path d="m1225.39 731.92c-.21.18.68 1.88 1.21 1.93a29.74 29.74 0 0 0 5.14-.22l-2.62-3.92a27.16 27.16 0 0 0 -3.73 2.21z" fill="#ee542a"/><path d="m1294.08 788.39c11.53 13.26 19.5 25.08 36 30.21-4.24-14.79-10.27-28.13-36-30.21z" fill="#ee542a"/><path d="m1330 818.6a.31.31 0 0 0 0 .08h.08z" fill="#ee542a"/><path d="m1269.31 765.84c.88 9.69 8.52 11 16.7 11.68l2.67 1.19c-.86-.43-1.72-.84-2.59-1.26-3.68-5.37-7.21-10.9-16.78-11.61z" fill="#ee542a"/><path d="m1781.81 632.46-1.28 10.92a43.26 43.26 0 0 0 6.27-2.65c4.49-2.37 5.54-4.84 4.65-7.41z" fill="#ee542a"/><path d="m1924.78 568c-26.1 14.71-51.61-48.85-81.72-63.64-23-11.32-49.44 50.19-75.31 45-14.36-14.07-43.49-36-76.33-23.39-46.65 17.87-193.25-17.88-253.35-64.15-37.32-28.74-95 30.6-133.45 79.7-49.35 5.25-133.59-60.87-148-59.31-43 4.61-95.3 84.3-157.25 95.92s-154-91.31-154-91.31-100.37-69.05-138.58-47.09c-61.54 35.42-205 75.84-205 75.84l-88.75 29-21.41-.43c0 2.48 0 5-.05 7.45l-20.51 6.7-108.52 32.89h-34.78c-9.4-3.27-18.09-7.54-24.81-14.89a111.28 111.28 0 0 1 -21.18 14.89h-10.52l-97.51-52.65c-33.75-25.99-84.21 20.07-121.96 65.47-40.34-16.24-82.33-29.31-129.5-22.24-18.44 2.76-31.52-7.12-47.13-11l-8.37 5.43c-15.79 21.75-33.24 42.9-34.17 69.81q-1 2.43-1.9 4.88.3 15.15.59 30.31c9.42.26 18.95-.17 28.24.87 52.17 5.85 105.77 6.1 149.6 37.65 20.7 14.9 47.27 21.58 75.94 20.35 24.06-1 49-1.53 70 10.31 29.63 16.78 63.47 26.16 94.41 40.39 13.13 6 24.22 6.38 38.51 4 38.52-6.28 72-34.77 116.08-18.27 7.45 2.79 14.65-5.31 21.36-9.45 11.82-7.3 24-15.59 39.09-15.54 24.42.07 47.77-2.39 70.46-10.35 8.93-3.14 18.51-.9 27.56 2 39.89 12.85 77.57 5.36 115.49-7.43 22.18-7.48 42.79-18.6 67-21.7 69.88-8.93 130.8 15.47 190.48 39.24 54.66 21.77 112.39 27.14 169.83 25.28 41.42-1.33 78.37.7 113.87 18.81 60.38 30.8 127.2 40.95 196.74 41.75 0-1.32 0-2.63 0-3.94h-.08s0-.06 0-.09c-16.45-5.26-24.42-17.39-36-31 25.73 2.13 31.76 15.82 36 31h.09a.06.06 0 0 1 0 0c6.68-.2 13.4-.51 18.31 4.44 13 2.69 22-4 31-9.84a311.91 311.91 0 0 1 85.36-38.35c10.23-2.9 18.72-7.46 23.61-16.13 17.55-31.09 51.35-42.35 88-48.58 22.32-3.8 49.8-10.44 67 1.84 38.9 27.8 89.63 33.09 131.2 54.88 10.22 5.36 23.45 8.28 35.61 9.14 61.15 4.31 121.41 10.5 173.38 41.54 3.71-27.83 8-55.62 11-83.5 7.55-68.85 16.29-137.63 18.67-206.81-28.9-.64-51.56 11.43-74.34 24.3zm-712.41 180.13c-.53-.06-1.42-1.8-1.21-2a26.09 26.09 0 0 1 3.73-2.27l2.62 4a28.76 28.76 0 0 1 -5.14.27zm59.41 44.81c-8.18-.74-15.82-2-16.69-12 9.56.73 13.09 6.41 16.78 11.92l2.58 1.28zm500.8-140.38a41.38 41.38 0 0 1 -6.28 2.72l1.28-11.21 9.64.89c.89 2.64-.16 5.17-4.64 7.6z" fill="#ee542a"/><path d="m2083.42 746.05h2.25c3.52-34.88 10.59-69.7 8.42-104.71-26.31-.82-51.73-2.93-73.67-11.41-13.33-5.16-27.37-5.21-44.63-4.08-66.39 4.32-131.37 11.92-196.46 19.39-28.07 3.22-57.51 7.52-76.39 18.14-42.38 23.85-94.42 21.11-147.75 18.43-10.13-.51-20.31-1.76-30.36-1.51-66 1.61-122.92-12.65-179.91-26.82-4-1-8.36-4.07-11.15-3.66-54.41 8-95.36-17.4-147.65-15.34-31 1.21-57.68-6.34-80.4-16.38-12.78-5.66-26.46-9.75-42.3-9.81-56-.2-113.17-4.23-165.05 11.65-20 6.13-43.58 5.45-65.59 7.37-37.32 3.25-72.31 9-104.62 19.37-34.21 11-70.82 17.84-112.34 13.42-13.74-1.46-23.09 3.18-33.94 6.38-52 15.32-103.46 22.23-165.71 11.37-43.52-7.59-89.63-16-137.86-15.28-50.72.74-99.71-1.21-141.38-18.75-7.42-3.12-17.66-7-28.09-3.93-30.08 8.8-53.19 2.46-76.13-7.57-23.44-10.24-53.33-1.58-79-6.22-58.03-10.48-119.71-15.3-175.61-29.16-13.7-3.39-27.52-5.44-42.77-4.21 14.52 38.51 23.54 77.52-2.94 115.14-11.6 16.47-24.14 50.52-16.6 60.56l-2.29 12.26h127.5c16.2 3.54 32.08 7.61 47.82 11.67 34.62 8.93 66.54 10.94 98.66.06a128 128 0 0 1 51.13-6.93q35.17 2.28 63.67-4.8h1992.22z" fill="#b72025"/><path d="m1955.29 823c-43.5-3.15-89-1.79-130-11-10.5-2.34-26-1.54-39-1.22-20 .48-38.8-.4-54.06-6.12a51 51 0 0 0 -35.52-.63c-26.35 9.48-57.72 7.56-87.35 6-35.63-1.88-69.43-3.09-104.59 2.29-20.48 3.13-44.12 1.59-65.9-1.56-7.15-1-18-4.73-20.19 2.39l-.55.23c-39.67-12.69-81.91-5.11-123.51-2.67-3 .18-7.28-.3-9 .37-39 15.53-95 6.66-138.06 16.3-43.61 9.78-94.41 3.62-139.53 10.86-54.81 8.79-111 13.2-171.09 14.08-33.32.48-68.27 8.58-105.17 8.72-16.87.07-31.27-1-44.52-6.17-17.12-6.67-41.79-7.72-63-7.94-38.08-.37-72.34-8.36-110.24-7.55-8 .17-10.29-1.89-13.57-4-19.62-12.46-47.26-16.86-80.62-11.33-40.3 6.69-88.55 6.14-119.31 21.94-4.43 2.28-14.25 3.07-22 3.94-34 3.8-65.92 7.78-95.51 17.41-19.88 6.47-51.76 7.22-74 14.84-9.48 3.24-16.07-.38-21.28-3.91-5.51-3.71-6.42-9.22-20.78-9.82l-.85-12.45c7.62-2 7.92-4.63 3.88-9.12l-8.46 9.31c-.3 2.38-.61 4.75-.91 7.13-12-1.18.7-10.94-13.41-8.73-17.83 2.83-31.19-1.59-46.68-1.38l-18.51-5.21c2.36-8.91-8-14.17-25.84-19.18-27.44-7.73-64.33-11.61-74.36-27.52-.76-1.2-5.78-2.76-8.84-2.77-38.88-.08-60.92-10.52-82.31-21.76-6.87-3.61-17.38-5.62-28.94-6.19 3.14-21.63 18.13-42.28 30.79-63.13 9.16.12 18.42-.09 27.45.41 50.71 2.78 102.81 2.9 145.42 17.9 20.12 7.09 46 10.26 73.82 9.68 23.38-.49 47.65-.73 68 4.9 28.81 8 61.7 12.44 91.77 19.21 12.77 2.87 23.55 3 37.44 1.92 37.44-3 70-16.53 112.84-8.68 7.24 1.32 14.23-2.53 20.76-4.5 11.49-3.47 23.31-7.41 38-7.39 23.74 0 46.44-1.13 68.49-4.92 8.68-1.49 18-.43 26.79 1 38.77 6.11 75.4 2.55 112.26-3.54 21.56-3.55 41.59-8.84 65.14-10.31 67.92-4.25 127.15 7.35 185.16 18.66 53.13 10.35 109.24 12.9 165.08 12 40.27-.64 76.18.33 110.69 8.94 58.69 14.65 123.65 19.47 191.24 19.86l17.76.23c12.65 1.28 21.35-1.89 30.13-4.68q37.77-12 83-18.23c9.94-1.39 18.2-3.55 23-7.68 17.06-14.78 49.92-20.13 85.54-23.1 21.7-1.8 48.41-5 65.12.88 37.81 13.22 87.13 15.73 127.53 26.09 9.94 2.55 22.8 3.94 34.62 4.35 59.44 2 118 5 168.53 19.76z" fill="#6f464d" fill-rule="evenodd"/><path d="m467.86 827.89 6.08 2c-1.08-2.04-3.55-2.19-6.08-2z" fill="#533438"/><path d="m2053.07 950.45-53.73-155.45c-44.55-3.11-91.11-1.76-133.1-10.81-10.76-2.32-26.59-1.53-40-1.21-20.52.47-39.74-.4-55.37-6.05a54 54 0 0 0 -36.38-.62c-27 9.37-59.12 7.47-89.46 5.92-36.49-1.86-71.11-3.05-107.12 2.26-21 3.09-45.18 1.58-67.49-1.54-7.31-1-18.43-4.68-20.67 2.36l6.25 2.43 6.24 2.5 6.22 2.5 6.26 2.48-.84.1-6-2.36-6.31-2.47-6.28-2.47-6.12-2.49c-40.63-12.53-83.9-5-126.5-2.63-3.09.18-7.45-.3-9.18.36-40 15.36-97.34 6.58-141.39 16.11-44.66 9.66-96.69 3.58-142.9 10.73-56.13 8.69-113.63 13.05-175.22 13.92-34.12.48-69.92 8.48-107.71 8.62-17.28.06-32-1-45.6-6.1-17.53-6.59-42.8-7.64-64.49-7.84-39-.37-74.09-8.27-112.91-7.47-8.23.17-10.54-1.87-13.9-3.93-20.1-12.31-48.4-16.65-82.57-11.19-41.27 6.61-90.69 6.06-122.19 21.68l-1.63.67c-5 1.75-13.8 2.46-20.88 3.22-34.79 3.76-67.51 7.69-97.81 17.21-20.36 6.39-53 7.13-75.83 14.66a22.24 22.24 0 0 1 -9 1.17l-7.27-1.9a41 41 0 0 1 -5.57-3.12c-5.52-3.7-6.45-9.16-21.16-9.7l-12.74 2.47-96.13-39.83a18.58 18.58 0 0 0 -4.59-1.97l-68-19.62a25.88 25.88 0 0 1 -8.23-7.57c-.78-1.18-5.93-2.73-9.06-2.74a195.93 195.93 0 0 1 -22.94-1.32l-49.07-14.17c-4.18-1.94-8.25-4-12.29-6-7-3.56-17.8-5.56-29.64-6.11-17.51 19.31-31.49 39.42-23.43 59.62 3.37 8.45-10.83 17 3.95 24.77l.1 77.64v32.83l420 2.26c4.13 1.33 8.28 2.65 12.5 3.92a88.63 88.63 0 0 0 12.71-3.79l18.1.1c-5.72 2.44-12.5 4.6-13.22 8.33 51.84 5.29 97.88-1 145.81-7.62zm-1579.13-120.61-6.08-2c2.53-.14 5 .01 6.08 2z" fill="#533438"/><path d="m519.74 901.7c-.4-.2-.82-.4-1.29-.6a21.07 21.07 0 0 0 -3.06 1.22z" fill="#422a29"/><path d="m1932.23 952.52c7.15-1.71 8.86-4.75 6.84-8.48-2.32-4.3-4.93-8.59-7.66-12.88l-.93-24.24h-24.31c-43.89-5.32-88.22-9.93-140.58-8.1-12 .42-26.8-1.86-38.79-3.52-11.12-1.54-21.8-3.75-34.67-2.64-74 6.38-156.9 5.47-228.18 14.26h-255.52c-8.19-.86-16.24-1.86-24.11-3-37.69-5.68-79.62-8.28-123.51-10.14-20.43-.87-43.81-.27-62.24-4.32-66.91-14.72-139.06-20.6-230.82-11.6-35.64 3.49-78.9 4.83-115.42 8.36-40.31 3.9-81.6 9.38-121.09 5.55-56.34-5.47-48.92 11.46-85.72 11.44-14.12 0-29.43 1.25-42.17.32-48.24-3.49-79.22 6.37-117 9.5-79.13 6.56-153.79 13.68-238.72 8.45l-14.81.37.81-1.3-13.74-.1 1.11-3.24c-32.39-5.89-62.18-12.59-94.47-18.51-15.39-2.82-47.56-5.76-48.17-13.13l-.25-.07c-25.06 3-52.48 5.29-74.6 9.24-29.24 5.24-40.32 3.12-43-6.36-7.77 6.79-11.91 12.71-32.94 14.58l-8.56-.7.14 1.2c-4.22.14-9 .16-14.35 0-9.8-.22-2.81 10.24 15.72 11.36l9.08 75.95c-1.65 1-2.7 2.12-2.94 3.36l3.29-.44 5.24 43.79h762.73c0 .41 0 .82-.08 1.23a14.6 14.6 0 0 1 .82-1.23h1436.85zm-1413.78-51.42c.47.2.89.4 1.29.6l-4.35.62a21.07 21.07 0 0 1 3.06-1.22z" fill="#422a29"/><path d="m1066.33 947.76a240 240 0 0 1 -35.83-7.08 2.35 2.35 0 0 1 -.37-.14 5.28 5.28 0 0 1 -.39 5.18c-.24.41.23 1.27.78 1.35 13.85 2.13 7.67 7.82 10.34 11.94 6.73 10.42-.45 24.28-1.16 19.87-7.62 2.4-5.63 5.17-4.52 7.53s3.55 4.67 1.19 7.45c-17.54-9.18-20-20.45-22.54-32.41-4.45 3.45-1.16 6.53-3.53 9.95l-6.68-5.18c-7 8.22-12.55 16.23-15.35 25.55-4.92-3.34-6.66-5.87-6.54-8.67h-3.22c-1.48 8 7.48 16.2-2.76 24-1.59 1.22-1.3 3.36-5.19 3.36-5.15 0-4.44-2.24-5.26-3.88-3.43-6.84-5.28-13.66.05-20.5-9.07-.88-6.35-3.61-4.73-6.23 2.75-4.42 5.36-8.86 8-13.29-8.55 3.65-15.9 7.61-16.4 13.34-.23 2.65 1 5.51-5.69 8-1.26-7.49-2.42-14.44 2.36-21.32h-3.26c-3.74-1.09-3.19-2.83-3.31-4.48h-3.18q0 5.25 0 10.5c-2.8 4.21-5.59 8.42-8.62 13-7.42-1.55-1.86-5.64-7.8-7-2.25 3.5 5.58 8.31-6.51 10.53l5.5 7.75c-15-1.44-15-1.44-25.12-15.14-3 14.38 2.88 28.9-1 43.29-3.46-.23-4.88-1.57-4.76-2.63 1.38-12.74-7.5-25-7.33-37.7.07-5.54 9.2-11.07-.11-16.61v-11.8c-6.47 9.77 1.43 20.13-8.64 29.67a56.34 56.34 0 0 0 -6.14-22.84c-6.91 14.81 10 29.32-4.94 43.76-7.18-7.12-6.83-14-6.46-20.79l-9.9-1.5c-3 7.09 7.71 14.27-1 21.49-5.31-5.54-12-10.75-12.17-17-12.46-.45-9.14 4.14-11 7.35.19-9.06-18.39-14.1-20.69-23.23-1.46-5.81-9.55.8-14.29 2.35-3.43 6.52 7.4 13.41-1.85 20.06-6.76-1.95-4.45-5.18-7-7.56-2.84-2.7-1.93-5.12-13.06-4.11-10.77 1-11-4.91-9.94-8.76s4-7.54 6.39-11.77c-6.37.72-6.47 2.56-7.08 4.07-.89 2.2-1.16 5.25-6.19 5.5-5.67.28-5.78-2.81-7.28-4.88s-16.49-4.25-19.5-3.07c4.74 4.7 14.45 8 17.83 13.08.88 1.34 5.67 3 3.15 3.84-5.36 1.77-1.84 7.1-10.6 6.4-6.69-.53-2-4.46-4.14-6.48-2.82-2.66 8.87-9.23-9.55-7.8-.64 1.48 1 4.23-4.37 3.68-7.47-.77-5-4.19-5.58-6.68h-3.18-6.6c-1.26 5.88 4.28 11.52 8.37 16.43 5.48 6.56 6 11.87-1.13 18.46a44.08 44.08 0 0 0 -.81-6.79 8.43 8.43 0 0 0 -2.36-3.22c-25 2.92-11.45-10.12-24-11.67-4.07-.51-2.16 6.53-7.7 9.35-5.77-1.34-3.42-4.42-6.13-6.15-3.26-2.07 2.48-6.58-11.45-6.47-7.78.07.38-6.43-.75-9.94-3.53-1.2-3.18-3-3.32-4.69s.71-3.41-2.77-5.23c-6.28 2.06-3 5.51-5.93 7.93-2.06 1.73-2.81 3.1-7.65 2 2.15 3 4.63 6 6.29 9 .68 1.27 1.13 3.26-3.15 3.6-4 .33-5.87-1.31-5.89-2.77-.05-3.32-3.12-6.88 2.75-9.87-5.35-5.43-1.8-11.58-5.35-18.92-9.62 14.05-15.5 26.65-28.48 39.32-13.23-13.74-19.42-27.54-26.57-42.67-3.93 6.47.66 11.79-4 16.65-1.21 1.27-.78 3.32-5.11 3.34-3.88 0-5-1.57-5.78-3.08-1.35-2.64-2.8-5.28-4.49-8.46-4.41 3.17-3 7-8.8 9.33-.85.91-3 2.12-2.36 2.68 8.29 7.45-3.4 12.28-13.19 15.52-10.93 3.61-17.09 8.06-22.36 14.47-2.33-9.84-14.54-17-30.91-19.15.07 7.5-2.24 14.71-10.83 21.69-7.24-5.51-4.4-10.62-2.36-15.7-21.21-.86 0-6.73-6-9.63l-10.46 2.11c-6.7 2.07 4.41 8.24-5.59 7.84-8.94-.36-2.52-5.88-4.13-9-.73-1.4-.12-2.95-.12-5.14-12.3 4.34-2.49 9-2.9 13a25.45 25.45 0 0 1 -6.1 13.82c-3.52 4.3-6.39 8.71-11.19 12.85-2.7-7.52 6.57-14.15 6.7-21.57-7.72 1.29-3.87 5.23-10.07 7.14-8.3-8.63 3.89-16.47 1.7-24.88l-8.64 10.43c-12.42-7.15.5-14.79-3.64-23.86-4.57 10.58-8.4 19.42-12.22 28.26l-3.06-.2q5.32-19.17 10.63-38.35c-8 9-6.59 19.14-20 27.45-6.75 4.18-8.84 1.91-13.52-.75 5.63 10.87 2.32 21-10.21 32.14-7.8-14.32 3.85-26.77 3.84-39.76-18.15 11.52-16.8 24.75-17.29 39.21-8.93-5.31-8.93-5.31-9-15.13-4.18-.11-6.37-1.11-6.48-3.05-.52-1.62.81-3.95-4.76-4s-5 2.22-5 3.88c0 4.61 3.25 8.33 8.09 12.7 6.25 5.63 1.52 13.82-.47 20.91-6.4-5-4.86-10.18-2.79-15.34.71-1.76 2.58-3.9-2.81-4.18-5.56-.28-7.65 2.1-6.48 4.13 3.56 6.11-2.46 11.7-4.28 17.55.7-13.88-5-27.79 2-41.61-6.81-.22-10.19 1.11-9.82 4.36.25 2.28-.4 4.49-4.27 6.23-4.49-.95-.45-3.33-4.56-4.8l-7.31 9.67c-5.11-4.58 1.76-7.77-.26-11l-3.38-1.46c-8.48.48-10.58-2.48-13.74-5.11-2.38-2-1.48-5.25-9.1-5.42-1.13 4.68-2.22 9.37-3.43 14.06-.32 1.24-1.87 1-2.64.17s-.43-1.46-.6-2.2l-6.45-1.52a2.52 2.52 0 0 1 -3.32 0h-3.33c3.34 8.33 2.29 16.48-4.1 25.42-15-7.56-11.88-15.92-12.2-23.91h-3.26c-.11.74.21 1.57-.41 2.22a2.25 2.25 0 0 1 -3.81-.26c-1.87-4.47-11.84-8.1-6.56-13.3 4.91-4.84-7.85-4.22-10.14-6.83-4.39 1.46-10.63 1.53-12.1 5-2.69 6.34-10.11 11.89-18.17 19.57-.92-4.84-1.48-7.75-2.37-12.47-3.18 5-1.63 8.83-7.29 12-5.12-7.76 2.27-15.35-.1-23-7.91 4.48-15.25 8.9-6.5 15.87-24.87-6.19-8.22 7.2-21.12 7 0-12.37 8.54-24.89.07-37.31-.09.47-.17.94-.22 1.41l-4.94 34.16c-8.49-2.68-8-5.39-8.11-8-.11-2.21.84-5.34-5-5.68-7.27-.42-3.39 3.55-6.51 5.08-1.44.7-2.55 1.54-4.5 2.74-7.44-4.38-.41-9.57-7.71-15.61l-26.24 53.43-3.2-.23c1.95-13 3.9-26 5.95-39.69-9.93 4-17.15 8.75-28.14 11.41a59 59 0 0 1 -.29 6.64c-.16 1.19-.84 2.54-4.26 2.57-13.48.1-13.49.07-16.42 4.4-13.21-2.48 1.29-6.21-2-9.12 1-1.53-.49-4.23 6.56-3 9.89-1 5.71-4.67 6.59-7.3 2.57-6.96 4.57-14.06 6.67-21.15h-3.22q-3.33 9-6.64 18c-.31 1.81-1.72 4.22-5.71 3.72-6.51-.81-5.6-4.27-7.35-6.71v-15.16c-6 1.76-.69 4.6-4.78 6-3.29-.37-.1-2.71-5.4-2.7 3.41 11.36 4.83 22.61 1.46 34.07-2.28 7.73-2.35 9.61-22.13 14.56l-10.09 62.27h1117.76l-21.89-131.1a20.1 20.1 0 0 1 -2.78-3.26z" fill="#271916" fill-rule="evenodd"/><path d="m1943.13 1020.25c-15.51-5-15.57-6.83-17.36-14.56-2.64-11.46-1.53-22.71 1.15-34.08-4.16 0-1.66 2.34-4.24 2.71-3.21-1.45.93-4.29-3.75-6.05v15.17c-1.37 2.44-.65 5.89-5.76 6.71-3.13.5-4.24-1.91-4.49-3.72q-2.6-9-5.2-18h-2.48c1.68 7.09 3.25 14.18 5.1 21.25.69 2.64-2.59 6.34 5.16 7.31 5.53-1.25 4.34 1.45 5.14 3-2.58 2.9 8.8 6.64-1.57 9.12-2.3-4.34-2.3-4.3-12.88-4.4-2.68 0-3.21-1.39-3.34-2.57-.25-2.21-.17-4.43-.23-6.65-8.62-2.66-14.29-7.37-22.07-11.4 1.61 13.68 3.14 26.68 4.66 39.69l-2.5.23c-6.65-17.26-13.29-34.51-20.59-53.44-5.72 6.05-.21 11.24-6 15.62-1.52-1.2-2.4-2-3.52-2.75-2.45-1.52.59-5.49-5.11-5.07-4.59.34-3.85 3.46-3.93 5.68-.1 2.61.3 5.32-6.36 8-1.37-12-2.62-23.1-3.87-34.16 0-.47-.11-1-.18-1.42-6.64 12.43 0 24.95.06 37.32-10.12.19 2.93-13.2-16.57-7 6.86-7 1.11-11.38-5.1-15.86-1.86 7.61 3.94 15.2-.08 23-4.44-3.14-3.23-7-5.71-12-.7 4.72-1.14 7.63-1.86 12.46-6.33-7.67-12.15-13.22-14.26-19.57-1.15-3.47-6-3.55-9.49-5-1.8 2.62-11.8 2-8 6.84 4.14 5.19-3.68 8.83-5.15 13.29-.29.89-1.69 2-3 .26-.48-.64-.23-1.47-.32-2.22h-2.55c-.26 8 2.22 16.36-9.58 23.92-5-8.94-5.83-17.09-3.21-25.42h-2.61a1.67 1.67 0 0 1 -2.61 0l-5.06 1.52c-.13.74 0 1.56-.47 2.2s-1.82 1.06-2.07-.18c-1-4.68-1.8-9.37-2.69-14.06-6 .17-5.27 3.44-7.14 5.43-2.48 2.62-4.12 5.58-10.78 5.11l-2.65 1.46c-1.58 3.2 3.81 6.39-.2 11-2.33-3.92-4-6.72-5.73-9.67-3.22 1.47-.06 3.85-3.58 4.8a5.91 5.91 0 0 1 -3.35-6.24c.29-3.24-2.36-4.57-7.7-4.36 5.55 13.83 1 27.74 1.61 41.62-1.43-5.85-6.16-11.45-3.37-17.56.93-2-.71-4.41-5.08-4.12s-2.76 2.42-2.2 4.18c1.63 5.16 2.83 10.35-2.19 15.33-1.56-7.08-5.27-15.27-.37-20.91 3.8-4.36 6.33-8.08 6.35-12.69 0-1.66.42-3.94-3.93-3.88s-3.33 2.39-3.74 4c-.07 1.93-1.79 2.93-5.08 3-.05 9.83-.05 9.83-7.06 15.14-.38-14.47.68-27.69-13.56-39.21 0 13 9.13 25.44 3 39.76-9.82-11.13-12.42-21.27-8-32.14-3.66 2.65-5.31 4.92-10.6.75-10.52-8.31-9.37-18.42-15.69-27.45l8.34 38.35-2.4.19-9.59-28.25c-3.24 9.07 6.9 16.71-2.85 23.86l-6.82-10.47c-1.72 8.41 7.84 16.24 1.33 24.88-4.86-1.91-1.84-5.85-7.89-7.14.1 7.42 7.37 14.05 5.25 21.57-3.76-4.14-6-8.55-8.77-12.85a29.28 29.28 0 0 1 -4.79-13.83c-.32-4.09 7.37-8.7-2.27-13 0 2.18.47 3.73-.1 5.14-1.27 3.13 3.77 8.64-3.24 9-7.84.41.88-5.76-4.39-7.84l-8.2-2.1c-4.67 2.89 12 8.76-4.67 9.63 1.6 5.08 3.83 10.18-1.85 15.69-6.74-7-8.55-14.19-8.5-21.68-12.84 2.2-22.41 9.31-24.25 19.14-4.13-6.4-9-10.85-17.53-14.46-7.69-3.25-16.85-8.08-10.35-15.52.5-.57-1.18-1.78-1.85-2.69-4.54-2.32-3.45-6.16-6.91-9.33-1.32 3.18-2.45 5.82-3.52 8.47a4.22 4.22 0 0 1 -4.53 3.08c-3.4 0-3.06-2.07-4-3.35-3.64-4.86 0-10.18-3.13-16.65-5.61 15.13-10.46 28.93-20.84 42.68-10.18-12.67-14.79-25.27-22.34-39.33-2.78 7.35 0 13.49-4.2 18.93 4.61 3 2.2 6.54 2.16 9.86 0 1.46-1.48 3.11-4.62 2.78-3.36-.35-3-2.33-2.47-3.61a96.39 96.39 0 0 1 4.93-9c-3.79 1.11-4.38-.26-6-2-2.25-2.42.28-5.87-4.65-7.93-2.73 1.82-2.06 3.58-2.17 5.23s.16 3.48-2.61 4.69c-.88 3.51 5.52 10-.59 9.94-10.93-.11-6.42 4.4-9 6.47-2.12 1.72-.28 4.81-4.8 6.14-4.35-2.81-2.85-9.85-6-9.35-9.81 1.56.84 14.6-18.79 11.67a8.86 8.86 0 0 0 -1.85 3.23 55.35 55.35 0 0 0 -.64 6.79c-5.55-6.59-5.18-11.9-.88-18.46 3.21-4.91 7.55-10.55 6.56-16.43h-5.17-2.49c-.45 2.49 1.48 5.91-4.38 6.68-4.2.54-2.93-2.21-3.43-3.69-14.45-1.42-5.28 5.14-7.49 7.8-1.69 2 2 6-3.25 6.49-6.87.69-4.11-4.63-8.31-6.41-2-.84 1.78-2.49 2.47-3.83 2.65-5.12 10.27-8.38 14-13.08-2.36-1.18-14.09 1-15.29 3.07s-1.27 5.15-5.72 4.88c-3.94-.25-4.15-3.3-4.85-5.5-.48-1.51-.55-3.35-5.55-4.07 1.87 4.23 4.16 7.94 5 11.77s.65 9.73-7.8 8.76c-8.73-1-8 1.4-10.24 4.11-2 2.37-.15 5.61-5.45 7.56-7.26-6.65 1.23-13.54-1.45-20.06-3.72-1.55-10.07-8.16-11.22-2.35-1.79 9.13-16.38 14.17-16.22 23.22-1.42-3.21 1.18-7.79-8.59-7.34-.12 6.22-5.38 11.42-9.55 17-6.85-7.23 1.53-14.41-.8-21.49l-7.76 1.49c.28 6.84.56 13.68-5.07 20.8-11.74-14.44 1.54-29-3.88-43.77a69 69 0 0 0 -4.81 22.84c-7.9-9.53-1.71-19.89-6.78-29.67v11.78c-7.3 5.54-.14 11.08-.08 16.62.13 12.65-6.84 25-5.75 37.69.09 1.06-1 2.41-3.74 2.63-3-14.38 1.6-28.9-.78-43.29-8 13.71-8 13.71-19.7 15.15 1.48-2.67 2.89-5.21 4.31-7.75-9.49-2.23-3.34-7-5.11-10.53-4.66 1.36-.29 5.44-6.11 7l-6.77-13v-10.5h-2.5c-.09 1.64.34 3.39-2.59 4.47h-2.56c3.75 6.88 2.84 13.83 1.85 21.31-5.28-2.48-4.28-5.33-4.46-8-.39-5.73-6.16-9.69-12.86-13.34 2.09 4.43 4.14 8.87 6.29 13.29 1.28 2.62 3.41 5.34-3.71 6.23 4.19 6.83 2.73 13.66 0 20.5-.64 1.64-.08 3.88-4.13 3.88-3 0-2.82-2.15-4.07-3.36-8-7.81-1-16-2.16-24h-2.55c.1 2.8-1.26 5.33-5.13 8.66-2.19-9.31-6.52-17.32-12-25.54l-5.24 5.18c-1.86-3.43.72-6.5-2.76-10-2 12-3.93 23.23-17.68 32.41-1.86-2.78 0-5.05.93-7.46s2.43-5.12-3.55-7.52c-.55 4.41-1 8-1.47 11.62.28-10.52-4.72-21.07.57-31.49 1.46-2.89-.47-6.54 2-9.21-7-1.51-14-2.87-21-4.21a18 18 0 0 1 -3.13 5.47l-17.16 131.1h876.62z" fill="#271916"/><path d="m1426.88 774.48v-150.61c3.43-2.24 13.08.94 9.43-7-4.45-9.65.35-13.85 5.11-19.69 4.11 6 11.32 10.81 4.41 19.59-.43.54 2.22 5.48 3.94 5.87a29.55 29.55 0 0 0 12.56 0c1.82-.4 4.65-5.22 4.31-5.65-7.05-9-.16-13.72 3.68-18.79 12.24 5.6 6.32 15.41 4.85 24.71 6.43 0 11.64.5 16.68-.26 1.86-.28 4.87-5.07 4.72-5.24-7.54-8.67-.82-13.94 3.68-19.47 11 5.75 7.67 15.09 3.75 25 7.29 0 12.9.74 18.17-.36 2.13-.45 5.25-7 5-7.25-9.61-9-1.32-14.1 3.32-20.16l6 5.78c17-91.3 33.66-181 50.31-270.57 8 3.6 11.05 19.45 26.51 14.21-5.18-8.93-6-17.44 3.33-23.16 9.33 5.87 8.43 14.2 2 24.54 8 0 13.48.47 18.81-.27 1.71-.24 4.64-4.93 4.3-5.42-6.17-8.69-.29-13.86 4.63-19.56 4.93 5.68 10.79 10.82 4.64 19.51-.46.66 1.93 5.21 3.32 5.41a55.45 55.45 0 0 0 14.56 0c1.23-.16 3.38-4.39 3-4.84-7.09-8.69-.7-13.95 3.67-19.54 10.8 5.74 7.72 14.79 4.31 23.49 15.06 5.29 18.12-11.54 26-14.28l50.21 269.77 2.81 1.47c.86-2.54 1.72-5.09 2.67-7.93 5.81 7.88 13.25 13.39 4 21.6-.2.18 2.9 6.76 5.05 7.22 5.26 1.1 10.86.36 18.17.36-4-10-7.31-19.27 5-25.59 1.77 4.8 6.58 11.71 5 14.53-7.37 12.91 1.09 11 8 11.09 3.19.06 6.38 0 11 0-2.41-9.84-6.71-19.67 4.59-25.31 3.59 5.71 10.83 10.72 3.67 19.29-.56.67 1.36 5.4 2.37 5.5a80.43 80.43 0 0 0 16.49-.05c.92-.09 2.7-4.87 2-5.69-7-8.75.26-13.54 5.64-21.41 2.24 6.63 6.79 13.22 5.21 16.61-5.25 11.2 1.42 11 8.06 11.93v150.62h-46.17v-92.37h-17.65v90.89h-13.76c1.19-30.79-2.09-60.84 2.39-90.83h-19.67c6 30.48 1.65 60.6 3.11 91h-14v-91.17h-17.78v91.07h-68v-109.07h-56.27v109h-67.59v-90.75h-17.78v90.75h-14.07c1.41-30.8-2.19-60.85 2.61-90.79h-18.39v90.79h-12v-90.85h-17.8v92.33zm213.12-318.48h12.49v-21.2h-12.49zm.16 104.34v21.29h12.5v-21.25zm.11-188v20.25h12.5v-20.23zm0 125.78v20.68h12.42v-20.66zm-142.48 180.7h31l-9.41-10.67c-4.31 1-7.67 3-10.07 2.11-6.19-2.26-9.92-.13-11.52 8.58zm278.21-8.5c-.76-.94-1.51-1.89-2.26-2.83l-9.35 11.56h31.61c-1.68-6.73-4.42-11-10.6-11-3.15.05-6.29 1.48-9.4 2.27zm-285.62-2.25c-4.88.94-7.81 1.73-10.77 2-2.28.21-5.29-1.24-6.76-.14-2.41 1.81-3.83 5.09-6.75 9.31h31.3zm45 1.84-1.63-2.72c-2.09 3.59-4.17 7.18-7 12.11h28.1c.06-7.17-4.82-12.74-9.38-11.34a91.18 91.18 0 0 1 -10.16 1.95zm202.24 9.32h29.38c-3.54-5.17-6-8.69-7.56-11.06-4.61.9-8 2.75-10.4 1.79-6.34-2.54-10.38.04-11.49 9.27zm86.87 0c-.88-9.27-4.31-11.47-11.81-8.46a5.92 5.92 0 0 1 -4.2-.45c-6.57-3-10.05-.29-10.49 8.91z" fill="#6f464d" fill-rule="evenodd"/><path d="m1416.44 810.24c-.09-1.56-7.16-13-9.85-18.42s-3.44-5.41-3.44-5.41a25.36 25.36 0 0 1 -.65-2.6 33.18 33.18 0 0 0 -1.3-4.17l.93-1.35a12.62 12.62 0 0 0 .65-2.71 2.1 2.1 0 0 0 -.93-1.45 26 26 0 0 0 -.37-2.71c-.19-.62-1.31-1.46-1.31-1.46a8.7 8.7 0 0 0 -.55-1.35c-.37-.73-2.23-.52-2.23-.52s-1.3-.1-1.58-.1a3.38 3.38 0 0 0 -1.68 1.35 3.19 3.19 0 0 1 -1 1l-4.92-9.89s-6.7-12.07-10.51-18.21-10.22-14.89-12.27-17-8.64-11.66-10.87-14.15-8.92-11.66-8.92-11.66-2.61-1.56-3.91-2.5-2.69-2.39-2.78-4.06-4.57-6.28-4.57-6.28a39.2 39.2 0 0 1 -.16-5.75c.21-1.93-1-6-1.62-8.92s-.89-5-.89-5 1.1-1.4 1-2.23a5.66 5.66 0 0 1 0-1.58s.58-.35.84-1.7a5.31 5.31 0 0 0 -.21-2.59 4 4 0 0 0 .47-1.93 4.34 4.34 0 0 0 -.57-2.29 13.51 13.51 0 0 0 .68-3 4.8 4.8 0 0 0 -.63-2.58 3.84 3.84 0 0 0 1.36-2.52 3 3 0 0 0 -1.15-2.35 10.41 10.41 0 0 0 .68-2.46 3.14 3.14 0 0 0 -1.2-2.53 9.36 9.36 0 0 0 1.15-3.34 4.12 4.12 0 0 0 -.79-2.47 6.91 6.91 0 0 0 .89-2.58 5.73 5.73 0 0 0 -1-3.29c1.41-.82.26-3.22.26-3.22s4.82 6.81 6.55 9.27 12.79 10.1 17 12.79 16.88 8.92 16.88 8.92a24.17 24.17 0 0 1 0 2.53c0 1.29 2 2 2 2s2 1.35 2.83 1.76 1.84-.41 1.84-.41a3 3 0 0 0 1.41 1.18 2.18 2.18 0 0 0 2-.3 6 6 0 0 0 2.57 1.35c1.25.17 1.57-2 1.57-2a1.54 1.54 0 0 0 1.1.53c.57-.06.63-1.53.63-1.53a2.35 2.35 0 0 0 1.88.47c1-.23-.78-2.87-.78-2.87 1.57 0 4.14-2.35 5.19-3.11s7.18.17 9.59.35 2.3-.87 2.3-.87c1.25 1 4.41.09 4.47-.18s-4.58-2.75-6.16-4.09-4.57-3.59-3.92-4 6.29-1 8.52-1.25 2.37-2 2.15-2.29-3.45-.12-3.45-.12a17.24 17.24 0 0 0 2-2.68c.33-.79-.46-1.77-.46-1.77s-2 1.68-2.62 2.41-2.8 2.16-4 2a18.51 18.51 0 0 1 -2.53-.67 28.36 28.36 0 0 0 2-4c.13-.79-.52-1.83-1.28-1.49s-2.81 4.91-3.71 5.3c0 0-3.3-.27-4.24-.27s-7.42 6.79-7.42 6.79-1.1 1.06-1.41 0-5.51-1.76-7.71-1.76-14.15-10.39-18.71-15.32-9.43-7.22-11.32-9.5-9.11-15.67-10.22-17.79a11.7 11.7 0 0 1 -1.72-5.63c0-1.94.47-4-1-7.22a42.08 42.08 0 0 1 -2.2-6.52 28 28 0 0 0 .47-5.28c-.16-1.76-3.14-3.87-3.14-3.87l-.79-2.29a15.5 15.5 0 0 0 1.1-2.11c.63-1.41-.94-5.46-.94-5.46 1.57-1.76.31-2.82.31-2.82l.32-1h.78l2.36-1.76-.16-1.41-.31-.53c-.31-.53.31-1.06.31-1.06l3.62 1.23 1.26.71 1.1-2.64.63-1.59 1.1-1.58.16-2.29-.48-1.06 1.26-4.57a35.25 35.25 0 0 0 3.78-6.34c2-4.23.47-7.05.47-7.05l1.57-1.4-.32-1.77-.47-1.58-.15-3.35-.63-1.23-1.26-.7-2.52.35a4.39 4.39 0 0 0 -1.41-.53l-.79-1.05-1.88-1.76c-5.51-7.57-15.88-8.28-18.71-8.1s-2.68 1.4-2.68 1.4c-3.93 1.59-4.72 3.53-5.81 4.76a3 3 0 0 0 -1 2.29h-1.26s0 1.93-.94 1.93-5.5 1.59-6 2.82 1.57 3.17 1.57 3.17l-1 .7-.47 1.77-.94.7a2 2 0 0 1 .31 1.94c-.47.88-2.2 1.58-2.83 2.29s-1.41 1.93.32 3a24.65 24.65 0 0 1 5.66 5.1 9.78 9.78 0 0 1 1.26 5.64c0 1.76-1.1 2.82-2.68 4.58a22.46 22.46 0 0 1 -3 2.81l-2.2-.35-1.73-1.41-.79-2.11a2.92 2.92 0 0 1 -1.73-1.06c-.63-.88-2.83.36-2.83.36l-2.51-3.35s-.95-2.11-4.56-5.11-9.44-8.09-9.44-8.09c-1.1-2.82-7.23-12.68-8.8-16.91s-4.51-14-5.1-15.32-4.31-8.89-4.31-8.89a9.93 9.93 0 0 0 -.25-1.75c-.17-.47-.55-3.07-.55-3.07a29.88 29.88 0 0 0 -1.35-5.91 5.6 5.6 0 0 0 -2.83-3.17s-.26-3-.21-5.44 2.36-4.78 3.29-5.77a26.19 26.19 0 0 1 5.32-3.26c1.18-.57 2.62-1 1.82-2.08s-3.59 1-4.27 1-.76-.28-.76-.28c.47-.85 1.35-4.44 2-5.91a44.45 44.45 0 0 1 3.84-5.34s-.29-.71-1.65-.62-4 4.92-4 4.92a7.9 7.9 0 0 1 1-4 20.21 20.21 0 0 1 2.32-2.89c-2-1.79-4.26 1.33-5.49 2.89a11.87 11.87 0 0 0 -1.68 4.49s-1.1-1.75-2-3.12-.38-5-.38-5c-2.94.38-1.89 3.78-1.89 3.78l-.65.2c-.65.21-1.4 3.23-1.67 4.69s-2.23 4.16-2.79 7.81a22.12 22.12 0 0 0 .83 9.88c.84 2.4.19 7.71.19 7.71s-.84 1.45-1.58 2.49 3.16 10.31 3.16 10.31 2.32 9.88 3.25 12.59 2.7 10.2 4.37 12.7 6.14 12.38 8.55 17.8 3.81 6.55 5.58 8.43 4.27 7.07 6.23 9.36 1.11 6.77 1.11 6.77a66 66 0 0 0 -6.13 12.18c-2.23 6.24.46 19.56.46 19.56a65.1 65.1 0 0 0 -3.95 11.01c-1.48 5.94-.09 15.72-.09 15.72a14.07 14.07 0 0 0 -1.49 1.56c-.56.73 0 3.85-.37 4.27s-1.49 7.39-1.49 7.39l-2 4.79s-1.77 4.89-3.07 7.39-.93 4.78-1.58 6.35-8.08 17.27-8.08 17.27l3.62 3.44.09 1.25c.1 1.25 3.35 4.89 5.39 7.59a13.65 13.65 0 0 1 2.33 6.36s-.56 3.53-1 6.65-1 31.65-1 31.65l2 8.74a44.05 44.05 0 0 0 .18 12.49c1.12 6.24 2.79 15 2.79 15s.28 12.28.09 14.36-3.62 12.49-3.62 12.49l3 1.25s6.32 2.91 6.6 3a23.13 23.13 0 0 0 3.07-.3s.84.51 2.14 1.45 4.18.21 4.18.21 2.23-.73 2.79 0a16.63 16.63 0 0 0 3.34 2.81c.28 0 3-1.56 3.26-1.56s7.71-.31 7.71-.31l4.28-.53-.47.32c-.46.31-.74 1.77-.74 1.77a2.66 2.66 0 0 0 -1.49-.11c-.65.21.46 2.5.46 2.5s.66.94 1.59 2.4a5.06 5.06 0 0 0 1.57 1.77 3.32 3.32 0 0 0 .1 1.87c.37.62.46 0 .83 1.14s-5.94 6.77-7.62 8.64-4 1.25-5.39 2.4a10.14 10.14 0 0 0 -3.25 4.89c-.28 1.56.74.83.74.83l2 1.46c1.39 1 8.17-1.25 8.17-1.25 3.26 0 8.37-3.85 12-5.1s10.41-.94 12.09-2.5.92-6.35.46-8.64-2.88-5.83-2.88-5.83l.19-1h.83a3.92 3.92 0 0 0 1.67-2 5.78 5.78 0 0 0 -.18-2.61c.65-.83-.19-3.22-.19-3.22a4 4 0 0 0 4-2.08c6 .83 11.06-6.15 11.06-6.15 4.83 0 8.74-5.82 8.74-5.82 5.48-1.46 8.36-9.48 8.36-9.48a16.59 16.59 0 0 0 8-2.7c1.86-1.25 6-4.27 6-4.27a63.1 63.1 0 0 0 9.67 9.16 11.12 11.12 0 0 0 9.11 2l.65 1-.83.83-2 1.77a4.45 4.45 0 0 0 -1.12 3.23c.19 1.87 2.23 1.14 2.23 1.14s-.46.42.38 2.08a2.69 2.69 0 0 0 2.23 1.67 3.07 3.07 0 0 0 1.76 2.19c1.4.41 1.49-.73 1.49-.73h1.77s4.27 9.36 6.32 12.9 4.74 13.74 5.2 15.51 1.3 2.6 3.16 5 2.51 3.54 4.83 4.89a2 2 0 0 0 3.16-.94c1.4 1.77 2.89-.21 2.89-.21 1-.1.37-3.54.37-3.54 1-.83-.19-4.78-.19-4.78 2.28-.38.23-5.38.14-6.94zm-167.44-349.61c-.84-.52-.09-2.81.56-4.47 0 0 1.39 1.66 1.3 2.6s-1.07 2.39-1.86 1.87zm70.6 98.8c.13-1.55 2.19-5.19 2.78-6.38a3.84 3.84 0 0 1 2.39-1.56c-1.06 1.71.13 2.16-.66 3.86s-.2 5.27-.2 5.27a8.08 8.08 0 0 0 -1.46 3.78c-.2 2.16 1.19 2.68 1.26 3.05s.07 2.67.07 2.67-3.39-3.12-3.91-4.45-.44-4.67-.31-6.24zm9.4 109.15-.27 1.93a4.6 4.6 0 0 1 -.59-.56c-.09-.15-.68-2.54-1.63-3.25a5.39 5.39 0 0 0 -1.86-.91s-1.77-6.89-3.22-9.74a31.74 31.74 0 0 0 -4.75-6.18s-.41-7-1.81-10-5-9-5-9 1.91-5.83 1.27-7.1c0 0-3.12.56-5.16-1s-4.57-3.19-4.16-4.56 5.7.15 8.15-.81 11.23-5.63 12-7a12.3 12.3 0 0 1 2.12-2.53s1.28 3.24 2.36 5.22 2.44 4.46 2.44 4.46a10.82 10.82 0 0 0 -.67 4.46 23.49 23.49 0 0 0 .58 3.1 2.44 2.44 0 0 0 -1 2 7.55 7.55 0 0 0 .91 2.69 5.15 5.15 0 0 0 -1 2.59 2.79 2.79 0 0 0 .77 2.33 6.93 6.93 0 0 0 -.81 3.24 6.25 6.25 0 0 0 .86 2.59 7.17 7.17 0 0 0 -.77 3.2 5.36 5.36 0 0 0 1 2.89 5.66 5.66 0 0 0 -.72 2.73 4.57 4.57 0 0 0 .59 2.44 2.72 2.72 0 0 0 -1 2 6.56 6.56 0 0 0 .63 2.38 10.14 10.14 0 0 0 -.18 2.89 4.69 4.69 0 0 0 .59 1.77 7.78 7.78 0 0 0 -.13 2.59 9 9 0 0 0 .54 1.52 5.39 5.39 0 0 0 -.54 1.67c.18.48.46 1.95.46 1.95z" fill="#533438"/><g fill="#422a29"><path d="m1184.68 809.67a.22.22 0 0 0 0 .08z"/><path d="m1182.32 673.34a1.55 1.55 0 0 1 .27.38l.24-.17z"/><path d="m1184.62 906.52a.12.12 0 0 0 .13 0h-.12z"/><path d="m1175.86 851.18c.1-.51.18-1 .25-1.52a2.58 2.58 0 0 0 -.25 1.52z"/><path d="m1191.07 679.55v-.01z"/><path d="m1175.82 851.94a.77.77 0 0 1 0-.15 2.58 2.58 0 0 1 -.08.26c.16.09.33-.1.2 0s-.11-.05-.12-.11z"/><path d="m1186.7 703.71s0 0 0 0a.07.07 0 0 1 0 0z"/><path d="m1193.82 692.41-.43-.34z"/><path d="m1208.39 706.35-.17-.06.12.11z"/><path d="m1207.38 703.19h-.09s0 0 0 0 .14-.01.09 0z"/><path d="m1207.05 685.72h-.05z"/><path d="m1170.43 781-.14.2a.22.22 0 0 0 .14-.2z"/><path d="m1146.75 752.44a.17.17 0 0 1 0 .07.17.17 0 0 0 0-.07z"/><path d="m1202.55 790.52a.65.65 0 0 0 .25.05l-.25-.05.24-58.25-.25 58.25z"/><path d="m1166.15 807.59s0 0 0-.05.01.03 0 .05z"/><path d="m1174.85 865h.07l-.06-.05s-.01.05-.01.05z"/><path d="m1156.07 750.59s0-.08 0-.11z"/><path d="m1137.22 711.5a7.18 7.18 0 0 1 -2.86-4.26 5.69 5.69 0 0 1 -2.39 3.3h-.2l-.24.26a1.15 1.15 0 0 1 0 .19c-1.16 1.18-1 2.33 0 3.54a1.48 1.48 0 0 1 .47 1.47 3.76 3.76 0 0 0 2.1-.43 2.6 2.6 0 0 1 2.13-.43.47.47 0 0 1 .41-.2c.27-.53.8-.66 1.29-.86 1.12-.47 1.15-.64.3-1.56a7.7 7.7 0 0 0 -1.01-1.02z"/><path d="m1141.05 719.18a.57.57 0 0 0 -.23-.12 2.53 2.53 0 0 1 .23.12z"/><path d="m1146.61 751.39a.16.16 0 0 0 -.15 0z"/><path d="m1175.78 850v1.32c.07-.56.12-1.13.14-1.7a.5.5 0 0 0 -.14.38z"/><path d="m1207.82 805.13-.01.01z"/><path d="m1213 852.33a1.23 1.23 0 0 0 0 .2s0 .05 0 .07a2.26 2.26 0 0 1 0-.27z"/><path d="m1224.05 750.59-.16.12a.31.31 0 0 0 .16-.12z"/><path d="m1243.14 811.09.24-.23-.21.2z"/><path d="m1224.09 750.48a.08.08 0 0 1 0 0 .14.14 0 0 1 0 0z"/><path d="m1199 817.45v-.06s0 .04 0 .06z"/><path d="m1199.04 817.38h.01z"/><path d="m1203 852.53v-.11h-.21z"/><path d="m1203.52 861.28a0 0 0 0 0 0 0z"/><path d="m1200.64 775.87s0-.09 0-.14h-.12a.75.75 0 0 1 .12.14z"/><path d="m1264.29 811.46a108.82 108.82 0 0 0 -12.23-3.55 5.34 5.34 0 0 0 -3.13.22c-1.87.68-3.78 1.23-5.68 1.83-.12-.05-.34-.11-.34-.15.08-1.12-.47-2.21-.34-3.34a5 5 0 0 0 .12-.53c.37-1.41.73-2.83 1.1-4.25 1.36-1.14 1.37-1.32 0-2.36-.3-.22-.29-.5-.38-.78 1-4.34 2-8.69 2.78-13.09.31-.29.23-.69.26-1.05q1.3-6.21 2.6-12.42a4.36 4.36 0 0 0 -1.33-4.1 1.86 1.86 0 0 0 -.77-1.09 9.5 9.5 0 0 0 -1.6-1.92c-5.55-5.64-11.82-10.45-17.86-15.53l-1.06-.92a.36.36 0 0 0 0-.23c.54-.53 0-.77-.31-1-1.16-1-2.37-2-3.5-3-2-1.86-4.29-3.36-6.06-5.46-1.16-1.58-1.95-2-3.2-1.59a1.31 1.31 0 0 0 -1-.67c-.23-.62-.91-.67-1.34-1l-4.52-1.07a1.26 1.26 0 0 0 -1.11-.81c0-.15 0-.31 0-.47-.39-.44-.71-.53-.93-.08a1 1 0 0 0 -1.24-.75 1.58 1.58 0 0 0 -.37.11l-.07-.09-.24 58.25.25.05a.65.65 0 0 1 -.25-.05l.25-58.25c1.6 0 1.63-1.52 2.27-2.45l1.21-.53c.18.44.36.89 1 .91s.67-.57.89-1a3.44 3.44 0 0 0 .22-2c-.95-.59-1.37.13-1.84.74l-.67.37a8.47 8.47 0 0 0 0-3.91c-.2-.86-1.2-1.61-.83-2.4.27-.6 1.12-.68 1.8-1a5.86 5.86 0 0 0 -.46 1.76c-.41 2.15.31 3.05 2.58 3.27a.52.52 0 0 0 .31-.22h.42a.37.37 0 0 0 .12.2 20.87 20.87 0 0 0 7.86-.68c1.75-.58 2-1.13 1.32-2.84-.57-1.38-1.18-2.75-1.78-4.12h-.22l-.24-.52v-.5a7.59 7.59 0 0 0 -1.36-3.15l-.12-.17a.74.74 0 0 0 .15-.42v-.07l.22-.06c2.69-3.25 4.28-8.68 2.46-12.89-.14-.59-.3-1.19-.42-1.8a54.24 54.24 0 0 0 -5.3-13.63c0-.27-.19-.39-.39-.51l-.19-.08a1.05 1.05 0 0 1 -.1-.72l-.29-.08c.08-.62-.22-1.28.24-1.85-.09-.25-.17-.51-.25-.76h-.52a1.43 1.43 0 0 0 -.51.59.83.83 0 0 0 -.38-.55l-4.28-5.08-.9-.56.18-1.28c-.54-.42-1-.48-1.48.14-.35-.88-1.26-1.06-2-1.47 2.24-1 5.54-2.85 6.61-5.26.75-1.7 3-9.69 3-9.69l-3.78-7.89a5.49 5.49 0 0 0 .39-.71c.76-1.7 3.06-9.69 3.06-9.69l-13.06-27.26h-13.33l-13.06 27.26s2.3 8 3.06 9.69a5.3 5.3 0 0 0 .79 1.26l-3.52 7.34s2.3 8 3.06 9.69c1.16 2.61 4.93 4.55 7.15 5.5a2.12 2.12 0 0 0 -.91.55c-.07.26-.15.53-.22.8a1.26 1.26 0 0 0 -.28.39 2.87 2.87 0 0 0 -.14.81.49.49 0 0 0 0-.11 33.25 33.25 0 0 0 -4.2 4.19l-.63.74a.88.88 0 0 0 -1.16-.19l-.28.26c-.09.36-.17.71-.25 1.07a1.61 1.61 0 0 0 .46 1.38c-.77.37-.66 1.32-1.22 1.83a3.29 3.29 0 0 0 -.81 1.34c-1.29 2.89-2.22 5.92-3.25 8.9a39.57 39.57 0 0 0 -1.57 7.14 3.14 3.14 0 0 0 .2 2.31c.15.7.29 1.41.43 2.11a13.94 13.94 0 0 0 3.33 7.08.75.75 0 0 0 .64.27 65 65 0 0 0 -4.58 9.92 3.36 3.36 0 0 0 2.43 1.63 20.26 20.26 0 0 0 9.42 0c.08.52-.29 1 0 1.55-.55 0-1 .24-.92.86.15 1 .27 2.07 1.54 2.35a12.7 12.7 0 0 0 2.8 3.26 11.29 11.29 0 0 0 -1.57.65c-.08.07-.17.12-.25.18a11.08 11.08 0 0 0 -2.5.5 5.79 5.79 0 0 0 -1.18.17 1.09 1.09 0 0 0 -.77.35c-.52.51-1.27.5-1.9.77-1.32.58-2.13 1.77-3.24 2.58l-.11-.09c-.46-.09-.92-.21-1.19.35-4.51 3.4-9 6.81-13.53 10.19-.7.53-1.29 1-.54 1.89l-.06.22-4.49 3.45a35.15 35.15 0 0 0 -4.5 3.46l-.52-.22a19.49 19.49 0 0 0 .58-4.51 13.94 13.94 0 0 0 .2-3.47c0-.36 0-.71 0-1.06s0-.71 0-1.06c0-.62 0-1.24 0-1.86v-.8-2.69l.79-1c.58-.38 1.13-.79 1-1.62a2.76 2.76 0 0 0 .34-1.29 5.73 5.73 0 0 0 0-3.5c0-.29 0-.59-.28-.78a2.43 2.43 0 0 0 -1.58-2.41 1.9 1.9 0 0 1 -.29-1.39q0-6.69-.05-13.38a2.4 2.4 0 0 0 -.18-1.42 3.46 3.46 0 0 0 -2.09-2.73 3.35 3.35 0 0 0 -1.17-1l-.74-.59c-2.36-1.92-4.72-3.83-7.07-5.76a1.25 1.25 0 0 0 -1.22-.27c-.33-.17-.57 0-.84.17a25.28 25.28 0 0 0 -4 2.92c-3.58 3.2-4.36 2.67-1.67 8.23 0 0 .06.07.08.1-.09.83-.7.47-1.1.42a19.29 19.29 0 0 0 -3.13-.2 14.13 14.13 0 0 0 -4.81 0c-.38 0-.78-.1-1.1.21-.42.07-.95 0-1.15.48s.24.4.47.48a55.05 55.05 0 0 0 6 1.82 4.89 4.89 0 0 0 2.06.54 24.69 24.69 0 0 0 4.7 1.25 3.82 3.82 0 0 0 2.83-.28l6.4-2.13c1.58-.4 1.58-.4 1.55 1.1l-2.1 11.76a3.07 3.07 0 0 0 -2 1.08c-1.43 1.46-1.68 3.43-2.25 5.26a4.85 4.85 0 0 0 1.49 5.15 2 2 0 0 1 .69.92c-.09.53-.18 1-.26 1.57-.51 3.39-1.17 6.76-1.38 10.2-.44.57-.18 1.24-.25 1.87a5.53 5.53 0 0 0 0 1.86v.81a2.62 2.62 0 0 0 .09 1.3 30.05 30.05 0 0 0 4.82 9.36c1.22 1.72 1.79 1.85 3.82 1.17a27.83 27.83 0 0 0 6.45-3.29 1.38 1.38 0 0 0 .84-.53c.2-.1.4-.18.59-.29 4.37-2.72 8.47-5.82 12.61-8.87l1.79.82a.87.87 0 0 0 1.19-.17 67.15 67.15 0 0 0 4.79-5.45c-.06-.22 0-.31.09-.33l-.09.33c.35.2.25.51.2.81-.31 1.8-.61 3.6-.92 5.41a5.79 5.79 0 0 0 -1.15 5 7.68 7.68 0 0 0 -.11 1.35 5.58 5.58 0 0 0 .13 1.72c.12.31-.87.56-.35 1s.91.14 1.35-.11l.57.52a2.48 2.48 0 0 1 .42 2.34 16.67 16.67 0 0 0 -.74 3.77 3.77 3.77 0 0 0 -.51 2.05 4.47 4.47 0 0 0 -.52 2.21l.14-.2a.22.22 0 0 1 -.15.21c-.27.42.09 1-.26 1.35a.1.1 0 0 0 0 .16c-.52 1.41.18 2.22 1.36 2.79a1.16 1.16 0 0 0 .8.55 12.16 12.16 0 0 0 3.46 1.85c.45.45 1.1.47 1.62.76a10.51 10.51 0 0 1 0 2.69c-.4 1.61-1 3.17-1.57 4.75-.17.19-.34.37-.5.56a14.33 14.33 0 0 0 -3.24 3.17 3 3 0 0 0 -1.06 1.07l-1.79 2.04a1.38 1.38 0 0 0 -.81 1.07c-.45.37-1.13.55-1.06 1.33a1.4 1.4 0 0 0 -.83 1.33.83.83 0 0 0 -.22 0c-.45 1.06-.89 2.12-1.33 3.18-.5 1.36-.94 2.76-1.47 4.1a147.64 147.64 0 0 0 -4.55 14.31c-1 3.55-1.83 7.16-2.65 10.76-1.56 6.92-3 13.85-4.11 20.86a14.17 14.17 0 0 0 -.54 4.25 38.68 38.68 0 0 0 -.79 8.52 33.17 33.17 0 0 0 0 6.38 9 9 0 0 0 4.16 6.4 46.94 46.94 0 0 0 6.71 4.26 9.71 9.71 0 0 0 2.42 1.58c1.73 1.21 3.7 2.06 5.31 3.46v.53a10.78 10.78 0 0 0 -.61 2.92 15.2 15.2 0 0 0 -.71 4.18 15.92 15.92 0 0 0 -.71 3.81c0 .35-.07.7-.1 1.06a.63.63 0 0 0 .18 1.08c1.36.74 2.75 1.43 4.12 2.14l1.31.66c.14.19.27.41.56.36a20.92 20.92 0 0 0 2.83 1.14c1 .78 2.26.9 3.31 1.51.08.24.28.29.49.33l-.23.51a24.74 24.74 0 0 0 -1.82 4l-.9 2.11c-2.16.13-2.5 2.07-3.41 3.44a.3.3 0 0 0 0 .21c-1 1.34-.08 2.68 0 4a6.21 6.21 0 0 0 -.79 3.28 23.91 23.91 0 0 1 -.26 4.47c-.09 2.07-.17 4.14-.26 6.22 0 1 .44 1.46 1.5 1.54 2.91.21 5.82.23 8.74.2s3.09-.37 1.72-2.89a1.37 1.37 0 0 0 -.79-.81c-.76-.74-1.91-.83-2.66-1.58a10.78 10.78 0 0 1 -.48-2.71c-.09-.3-.19-.6-.29-.9a1.27 1.27 0 0 0 .2-.34 5.34 5.34 0 0 0 -.36-2.68 1.92 1.92 0 0 0 1.28-.78 7 7 0 0 0 1-2.27 2.73 2.73 0 0 0 -.68-3.41l.07-.12a2.09 2.09 0 0 0 .32-1.08c1.43-.15 2.29-1.24 3.31-2 3.35-2.57 6.37-5.55 9.78-8a.71.71 0 0 1 .07-.09l.94.52c.33.22.59.68 1.07.25a5.33 5.33 0 0 0 3-.57h.47a5.63 5.63 0 0 1 1.85 1l5.11 3.85.63.48c.41 1.37 1.79 1.74 2.68 2.61a1.93 1.93 0 0 0 2 .51c.18 1 1.06 1.52 1.54 2.32.15.27.21.78.67.75a6.18 6.18 0 0 1 .81 3.67c-.41 2.21-.54 4.46-1 6.67a2.32 2.32 0 0 1 -1.78 2.41 3.08 3.08 0 0 0 -2 2c.07.85-.66 1.62-.26 2.5a.55.55 0 0 0 .3.24 1.32 1.32 0 0 0 .62 0 40 40 0 0 1 4.38 0c2.21.11 4.4-.32 6.6-.19.93-.22.76-.92.7-1.58 0-.33 0-.66-.08-1a8.32 8.32 0 0 0 -.14-3.22c0-.14 0-.28 0-.43 0-1 0-2 0-3 0-.34-.07-.69-.1-1-.13-3.11.26-6.32-1.85-9l-1.33-1.86-.73-1.14c-.21-.79-.94-1.21-1.32-1.87l-.85-1.32c-.34-.77-.24-1.68-.79-2.37-.85-.78-1.11-2-2.08-2.71l-.31-.49c-.26-1.11-1.35-1.64-1.8-2.61.64-.3 1.4-.42 1.81-1.1a17.1 17.1 0 0 0 4.45-3 3.31 3.31 0 0 0 1.65-3.65c-.16-1.07-.17-2.17-.24-3.26a7.32 7.32 0 0 0 -.23-2.91l-.33-4.25c.06-.6 0-1.2.5-1.71a50.34 50.34 0 0 0 5.37-6.3c.3-.33.74-.55.81-1a76.34 76.34 0 0 0 6.65-9.6 3 3 0 0 0 .8-1.59c.48-.2.55-.61.53-1.06a33 33 0 0 0 1.42-3.23c.77-2.44 1.24-4.93.2-7.44a9.33 9.33 0 0 0 -.82-4.23 2.44 2.44 0 0 1 0-.27l-.78-2.67a111.61 111.61 0 0 0 -3.87-13.29 80.86 80.86 0 0 0 -3.07-8.52c.21-1.09-.56-1.92-.85-2.86a33.66 33.66 0 0 0 -2-4.35 6.61 6.61 0 0 0 -.76-2.24 103.65 103.65 0 0 0 -5.9-12.64 2.85 2.85 0 0 0 -1.07-2.11 61.67 61.67 0 0 0 -7.73-8.5c-.59-.49-.9-1.26-1.64-1.59l-.24-.27c0-.81.29-1.68-.28-2.39a4.92 4.92 0 0 1 -.78-4.26.43.43 0 0 0 .31-.5c0-.06 0-.12 0-.17a9.32 9.32 0 0 0 .49-2.72 1.9 1.9 0 0 0 .21-1.17l.3-1.55c.55-2.93.64-6 1.67-8.78a9.8 9.8 0 0 0 3.81-2.9c.55-.61 1.22-1.14 1.22-2.1a27.08 27.08 0 0 0 -.09-3.82c-.33-1.69-.09-3.47-.71-5.12-.29-1.74-.59-3.49-.88-5.23.08-.27 0-.59.25-.78l1.07.82 1.83 2.06a.94.94 0 0 0 1.5.48 2.54 2.54 0 0 1 1.14-.26l3.46 2.73.82.48 1.28.87a2.9 2.9 0 0 0 1.1.79 1.85 1.85 0 0 0 1 .81l2.36 1.61c2.31 1.63 4.55 3.36 7 4.85 1.75 1.08 2.74 2.25 1.86 4.34-.34.32-.21.74-.22 1.12a26.22 26.22 0 0 0 -1.11 7.82v15.89c-.48.27-1.06.3-1.47.76-.82.93-.57 1.78.67 2.15v2.11c-.35.53-.16 1.12-.22 1.67-.19 2 .61 4-.71 5.88-.18.24 0 .77.1 1.15.2.92.55.58.89.08l.5-.2c.07.26.15.52.22.78.28 1.9 1.88 2.58 3.23 3.49 2.4 2.32 5.07 4.31 7.6 6.47a1.56 1.56 0 0 0 1.47.38c2-.53 3.4-2 4.91-3.2 3.79-3.12 3.88-3.7 1.58-8a1.59 1.59 0 0 0 -.15-.21c.09-.41.34-.4.7-.36 1 .12 1.94.21 2.91.26a22.46 22.46 0 0 0 6.75-.16c.37-.09.93-.09 1-.52s-.54-.48-.88-.6zm-55.9-105.11h-.05l-.12-.11zm-1.1-3.17h.09s0 0-.12 0 .03.01.03 0zm-.24-17.46v.06zm-60.3 66.72a.17.17 0 0 1 0 .07.17.17 0 0 0 0-.07zm-.14-1.05h-.15a.16.16 0 0 1 .15 0zm-8.61-37.33c-.49.2-1 .33-1.29.86a.47.47 0 0 0 -.41.2 2.6 2.6 0 0 0 -2.13.43 3.76 3.76 0 0 1 -2.1.43 1.48 1.48 0 0 0 -.49-1.42c-1-1.21-1.15-2.36 0-3.54a1.15 1.15 0 0 0 0-.19l.24-.26h.2a5.69 5.69 0 0 0 2.39-3.3 7.18 7.18 0 0 0 2.86 4.26 7.7 7.7 0 0 1 1.06 1c.8.89.77 1.06-.33 1.53zm2.84 5a.57.57 0 0 1 .23.12 2.53 2.53 0 0 0 -.25-.12zm15.25 31.53v-.08s0 .07 0 .11zm10.08 57s0 0 0-.06-.01.04-.02.06zm8.7 57.43s0-.06 0-.09l.06.05zm.93-15a.5.5 0 0 1 .12-.38c0 .57-.07 1.14-.14 1.7-.04-.48 0-.92 0-1.34zm-.06 2.07a2.58 2.58 0 0 0 .08-.26.77.77 0 0 0 0 .15c0 .09 0 .12.1.09s-.04.07-.2-.02zm.14-.87a2.58 2.58 0 0 1 .25-1.52c-.13.47-.13.97-.27 1.48zm8.83-41.56a.22.22 0 0 1 0-.08zm-2.11-135.9a1.55 1.55 0 0 0 -.27-.38l.51.21zm2 232.8h.12a.12.12 0 0 1 -.1-.04zm2.08-202.8a.07.07 0 0 0 0 0s.03-.03.02-.05zm7.12-11.25-.38-.32.43.34zm5.27 124.97s0-.05 0-.06zm1.58-41.58a.75.75 0 0 0 -.08-.18h.12s-.04.1-.05.15zm2.39 76.66-.18-.12h.21zm.52 8.77a0 0 0 0 1 0 0zm9.44-9a2.26 2.26 0 0 0 0 .27s0-.05 0-.07a1.23 1.23 0 0 1 0-.2zm11.05-101.78a.31.31 0 0 1 -.16.12l.16-.12a.14.14 0 0 0 0 .07.08.08 0 0 0 0 0zm19.09 60.5.21-.2z"/><path d="m1213.87 764.9v-2.55h-.14v2.54z"/><path d="m1163.15 743.4c-.7-.4-1.08-.2-1.55.41.64.19 1.01-.12 1.55-.41z"/><path d="m1208.54 776.61c-.14.32.27.47.68.78a3 3 0 0 0 -.19-.64c-.12-.18-.38-.42-.49-.14z"/><path d="m1174.18 912.75c-.14-.12-.22-.24-.32-.26s-.17.1-.26.16c.08.08.15.19.24.22s.16-.06.34-.12z"/><path d="m1218.48 726.58c-.79.31-.44 1.1-.34 1.75a3.89 3.89 0 0 0 .63 1.72c.73.16 1.09-.11 1.06-.89 0-.48 0-1 0-1.45-.37-.52-.46-1.48-1.35-1.13z"/><path d="m1215.88 727.21c-.8-.12-.87.72-.88 1.34 0 .86.19 1.67 1.2 1.75.66.06.71-.52.67-1.19-.21-.61.13-1.74-.99-1.9z"/><path d="m1210.29 727.69c-.89-.05-.83.74-.94 1.33a7.08 7.08 0 0 0 -.16.9c0 .42.07.81.55.94s.81-.15 1-.58a2.42 2.42 0 0 0 .22-1.22c-.04-.49.28-1.31-.67-1.37z"/><path d="m1212.14 729.25c0 .6 0 1.38.83 1.34s.71-.83.76-1.45c-.11-.53.18-1.41-.72-1.4s-.86.86-.87 1.51z"/><path d="m1197.2 916.3a3.21 3.21 0 0 0 1.93-.2c-.89.07-1.42-.1-1.93.2z"/><path d="m1167.5 730.05c.53.05.75-.39.92-.81a4.08 4.08 0 0 0 .32-1.8c0-1-.45-1.29-1.35-.78l-.28.51c0 .46.13 1-.26 1.34a4.52 4.52 0 0 0 0 .52c.09.43.09.97.65 1.02z"/><path d="m1170.59 730.34c1-.1 1.15-.93 1.31-1.71-.11-.66-.2-1.55-1-1.41-1.08.2-.79 1.38-1 2.16a.68.68 0 0 0 .69.96z"/><path d="m1176.88 730.85c.74-.06.58-.74.62-1.3-.09-.76 0-2-1.06-1.87s-.49 1.29-.53 2 .24 1.22.97 1.17z"/><path d="m1174.63 729.1c-.16-.47.13-1.35-.76-1.36s-.85.82-.89 1.47.12 1.35.87 1.36c.9.02.65-.84.78-1.47z"/><path d="m1032.63 769.54a8 8 0 0 1 3.69 1.59 8.13 8.13 0 0 0 -3.69-1.59z"/><path d="m1047.27 691.47v-.13a5 5 0 0 1 .55-2.18 5 5 0 0 0 -.55 2.18z"/><path d="m1034.75 749.88a.41.41 0 0 1 .28.42.41.41 0 0 0 -.28-.42z"/><path d="m1080.74 805.35a.45.45 0 0 1 .45-.23.45.45 0 0 0 -.45.23z"/><path d="m1034.48 775a.47.47 0 0 0 -.38.29.47.47 0 0 1 .38-.29z"/><path d="m1032.62 769.54.04.03z"/><path d="m1046.44 710.2s0 0 0 0z"/><path d="m1117.25 892.13a20.38 20.38 0 0 1 -1 3c-.33.78-.63 1.58-1 2.37l.45-2.34a33.52 33.52 0 0 0 1.55-3.03z"/><path d="m963.07 787.23c0-1.32-.08-1.9-.54-2.21.46.31.51.89.54 2.21a5.62 5.62 0 0 1 -1.7 4.41 5.62 5.62 0 0 0 1.7-4.41z"/><path d="m967.2 885.26c0-1.41 0-2.83 0-4.24z"/><path d="m968.07 892.82a32.79 32.79 0 0 1 -.87-7.56l.94 7.78c-.02-.04-.05-.15-.07-.22z"/><path d="m1047.32 904.41a2.39 2.39 0 0 0 -.38-.16c.58-.06 1.15-.14 1.72-.23-.19.72-.66.77-1.34.39z"/><path d="m1030.08 903.75a13.4 13.4 0 0 0 -1.9 0 .84.84 0 0 1 -1-.55h.18c.91.19 1.81.38 2.72.55z"/><path d="m1031.76 907.07c1.08-.11 1.37-1.16 1.13-2.08a1.74 1.74 0 0 0 -.52-.87c.66.09 1.33.17 2 .24-.09.15-.17.31-.27.46a1.61 1.61 0 0 0 .25 1.9 1.31 1.31 0 0 0 1.72.35c.71-.33 1 0 .86.65-.56 2.57-.49 5.23-1.24 7.77a41.53 41.53 0 0 1 -1.22 4.76c-.22.5-.37 1-.94 1.07s-.59-.53-.76-.9a32.76 32.76 0 0 1 -2.55-11c-.09-1.08-.12-2.18 1.54-2.35z"/><path d="m945.39 775c-1.75 1.7-1.08 5.06 1.17 6.52 1.38.89 1.38.89.33 2a1.07 1.07 0 0 0 -.21 1.3c1 1.87 1.92 3.77 3 5.58.79 1.31 1.33 1.35 2.6.56a5.4 5.4 0 0 1 .65-.4c.23-.12.5-.17.68.08a.45.45 0 0 1 -.11.58c-1.11 1.15-.54 1.76.56 2.57 1.82 1.33 3.7 2.55 5.61 3.73 1.39.85 2.15.53 2.45-1.05a4.45 4.45 0 0 1 1.94-2.86c1.12-.82 2.15-1.77 3.22-2.68a2.12 2.12 0 0 0 .69-1.72 15.22 15.22 0 0 0 -.15-2.79c-.27-1.35.32-1.94 1.55-2a37.48 37.48 0 0 0 4.77-.64c2.3-.42 4.76-.25 6.92-1.4a2.41 2.41 0 0 1 .47-.18c.42-.13.86-.23 1.19.14s.06.8-.16 1.15a39.78 39.78 0 0 1 -4.7 6c-3.3 3.58-7.1 6.71-9.8 10.84a20.55 20.55 0 0 0 -3.43 12.13 17.86 17.86 0 0 0 1.9 7.69c.71 1.38.94 3 2 4.21.28.31.09.71-.23 1-2.25 2.1-2.77 4.92-3 7.76-.1 1.61-.17 3.23-.25 4.84a47.24 47.24 0 0 0 -2.28 26.14v1.7a30.11 30.11 0 0 1 -1.31 8.77 14.61 14.61 0 0 0 -.42 6.44c.26 2 .19 4 1 5.87 1 2.27 2 4.58 3.88 6.32a3.63 3.63 0 0 0 .82.59c.41.21.89.52 1.3.18a.55.55 0 0 0 .13-.14l.73 6a.91.91 0 0 0 1.08.83 1 1 0 0 0 1-1.22 1 1 0 0 0 -.17-.46l2-.89c.09.57.57.77 1.14.71s1.09-.37 1-1a1.37 1.37 0 0 0 -.18-.55l1.87-.82a2.11 2.11 0 0 0 0 .25c.09.62.13 1.34 1 1.28a1.43 1.43 0 0 0 1.36-1.44 1.08 1.08 0 0 0 -.46-.9l3.52-1.55a50.22 50.22 0 0 0 5.33 3.47 1.27 1.27 0 0 0 -.16.58c.12.57.37 1.06 1.06 1a.77.77 0 0 0 .81-.69 54 54 0 0 0 15.6 5.31 1.66 1.66 0 0 0 1.36.86 1 1 0 0 0 .88-.51c1 .14 2 .25 3 .33a2.33 2.33 0 0 0 1.13.66 1.07 1.07 0 0 0 .94-.53h2.46a56.7 56.7 0 0 0 8.19-.59 3.59 3.59 0 0 0 .19.82 2.71 2.71 0 0 1 .21.86c-.13 3 .66 5.92 1.25 8.79.92 4.45 1.41 9.25 5.28 12.52.19.16.43.36.31.64s-.44.23-.68.2c-.55-.06-1.1-.21-1.64-.22s-1.49-.27-1.55.38a1.85 1.85 0 0 0 1 1.87 8.11 8.11 0 0 0 4.67 1c1.06-.08 2.21.24 3.07-.78a1.54 1.54 0 0 0 .41-1.85c-.35-.68-1-.69-1.66-.48h-.13c-.47 0-1.12.56-1.37 0s.55-.77.95-1.1a8.46 8.46 0 0 0 2.57-3.11 54 54 0 0 0 3.94-15.47c.13-1.17.34-2.33.49-3.5h.09 1.54a1.73 1.73 0 0 0 -.41.94c.13.63.2 1.36 1 1.34a1.26 1.26 0 0 0 1.28-1.18 1.12 1.12 0 0 0 -.61-1.15c1.08-.05 2.14-.14 3.2-.25a1.62 1.62 0 0 0 -.62.92c-.27.82.46 1.24 1.1 1.2 1.72-.1 1.72 1 1.82 2.21.45 5.15.89 10.3 2.49 15.26.55 1.7 1.11 3.36 2.78 4.4a3 3 0 0 0 2.63.42c3-.87 4.8-3.17 6.07-5.8a70.76 70.76 0 0 0 5.44-15.43c.2-.88.47-1.38 1.53-1.09a1 1 0 0 0 1.27-.95s0-.05 0-.07h1c.48.36 1 .71 1.46 1a1.39 1.39 0 0 0 .43.28 28.55 28.55 0 0 0 30.23.78c.13.69.35 1.38 1.19 1.4s1.42-.73 1.44-1.6a1.55 1.55 0 0 0 -.46-1.19 31.3 31.3 0 0 0 2.86-2.27c1.17.27 2.19.53 3 .74-.16.44.18.84.63 1.06a1 1 0 0 0 1.39-.53c.57-1.09 1-2.23 1.6-3.32 2.41-4.67 3.27-9.77 4.28-14.85.83-4.18.73-8.44 1.48-12.63a26.49 26.49 0 0 0 .12-5.71 47.24 47.24 0 0 0 -4.19-37.08.56.56 0 0 1 .43-.38c.67-.18.84.37 1 .88a16.81 16.81 0 0 0 4.53 7.69 22.4 22.4 0 0 0 8.37 4.4c.68.23 1.92.62 2.25-.38s-.88-1-1.49-1.39a22.47 22.47 0 0 1 -6.26-6.07c-.16-.24-.38-.55-.11-.81s.72-.12 1 .11a27.9 27.9 0 0 0 5 2.37c2.77 1.25 5.31.37 7.88-.53a25.17 25.17 0 0 0 2.35-1c.33-.16.73-.44.52-.89s-.71-.47-1.1-.26c-3.85 2.06-10.24-1.33-11.84-4.94a11.16 11.16 0 0 1 -1.08-4.26c-.17-4.41 1.09-8.45 2.75-12.44a23.09 23.09 0 0 0 1.27-14.84 13.6 13.6 0 0 0 -6.21-8.57c-5.64-3.35-10.83-3.27-15.4.42a12.43 12.43 0 0 0 -4.31 6.17 1 1 0 0 1 -1.39.86 78.3 78.3 0 0 0 -13.16-1.24c-3.44 0-7 0-10.32-1.24-.67-.24-1.37-.43-2.05-.68a3.45 3.45 0 0 1 -2.49-3.58c0-1.74-.06-3.48-.13-5.22 0-.84.23-1.16 1.12-1a31 31 0 0 0 5.44.5c1.16 0 1.92.47 2.1 1.6a14.77 14.77 0 0 0 1.78 3.92c.42.85 1.11.86 1.75.18s1.08-1.19 1.6-1.81a5 5 0 0 1 3.86-1.92 3 3 0 0 0 2.33-1.13c1.25-1.55 2.44-3.15 3.6-4.77.57-.8.23-1.48-.76-1.64a4.9 4.9 0 0 0 -1.27 0c-3.85.4-7.12-.93-10.19-3.14a67.37 67.37 0 0 1 -8.66-8.05 15.4 15.4 0 0 0 -3.58-2.84 2.15 2.15 0 0 1 -1.27-1.92 16.13 16.13 0 0 0 -.48-3.53c-.07-.32-.2-.72.1-1s.7 0 1 .22a44.2 44.2 0 0 1 12.08 10 16.74 16.74 0 0 0 5.06 4.2 6.07 6.07 0 0 0 2.7.59 34.48 34.48 0 0 1 5.19.14c4.3.71 7.75 2.77 9.86 6.76a13.16 13.16 0 0 1 1.63 3.27c.23.94 1 .57 1.53.17a9.63 9.63 0 0 0 3.36-4.38c1.31-3.77 2.3-7.64 3.38-11.48.6-2.12 1.47-4.14 2.25-6.19a28.34 28.34 0 0 1 1.86-4.44 1 1 0 0 0 -.42-1.44c-2.46-1.14-5-2.37-7.77-2a18.87 18.87 0 0 0 -6.75 2.51c-1.73 1-3.48 1.95-5.2 2.95a9.86 9.86 0 0 1 -4.64 1.17c-2.64.11-4.11-1.59-5.42-3.46-1.06-1.53-1.69-3.34-2.62-4.94-1.84-3.16-3.67-6.36-6.86-8.51-4.72-3.15-9.78-3.47-15.12-2.25-.7.16-1.54.81-2.14.1s.4-1.17.59-1.79a6.94 6.94 0 0 1 .85-1.7c.5-.78 1-1.54 2.11-.68.38.3.88.22 1-.36s0-1.4.83-1.49a2.56 2.56 0 0 1 2.31 1.09c.21.27.38.57.61.82s.58.58 1 .31.34-.71.16-1.12-.67-.77-.16-1.1.89.1 1.22.43.72.83 1.1 1.24a.7.7 0 0 0 .9.23c.37-.2.35-.55.26-.9-.16-.61-.35-1.22-.49-1.84-.37-1.61.29-2.23 1.9-1.72 1 .31 2 .69 3 1.1 1.78.72 3 .19 4.11-1.39 1.52-2.11 2.45-4.53 3.78-6.73 1.11-1.85 1.52-3.87-.2-5.72a2.07 2.07 0 0 1 -.19-2.79 14.81 14.81 0 0 0 .88-1.84c.67-1.45.75-2.63-.65-3.93-1.67-1.56-2.5-3.82-3.72-5.75a119.08 119.08 0 0 0 -6.54-10.09c-2.34-3-5.24-5.43-7.76-8.25a15.32 15.32 0 0 0 -5.27-4.32 2.24 2.24 0 0 0 -.71-.28c-5.66-.1-11-2.33-16.75-2.09a8.81 8.81 0 0 1 -3.27-.31c-.81-.28-1-.68-.59-1.43a5 5 0 0 1 1.88-2 1.51 1.51 0 0 0 .83-1.69c-.14-.86.53-1.8-.28-2.63-.2-.21.05-.57.32-.73s.67-.38.93-.06c.64.78.89.32 1.28-.26a16.31 16.31 0 0 1 1.51-1.72 3.32 3.32 0 0 0 .58-.67 1.27 1.27 0 0 0 -.13-1.54c-.47-.41-.82.14-1.21.37-3.48 2.07-5 5.53-6.36 9.08l-.09.24c-.12.36-.2.76-.63.88-.07 0-.25-.1-.28-.19a.94.94 0 0 1 .32-1 1.68 1.68 0 0 0 .37-1.17c.2-2.27-.65-4.55.12-6.82a.43.43 0 0 0 -.26-.62c-.32-.07-.39.24-.51.46-1.7 3-1.58 6.09-1 9.28a2.75 2.75 0 0 0 .14.49c.79 2 .72 1.91-1.24 3-4 2.25-6.8 5.44-7.08 10.31a8.69 8.69 0 0 1 -.07.88 7.2 7.2 0 0 0 1.13 5.59 4.09 4.09 0 0 1 .71 3.73 10.08 10.08 0 0 0 -.16 2.15 2.56 2.56 0 0 0 1.63 2.84 4.93 4.93 0 0 1 2 1.92 1.4 1.4 0 0 1 0 1.78c-.56.57-1.16.21-1.71-.19a8.23 8.23 0 0 0 -1.31-.78 2.15 2.15 0 0 0 -3.3 1.6 11.71 11.71 0 0 0 1.59 8 3.34 3.34 0 0 1 .6 3.06c-.51 1.77-.26 3.63-.33 5.45a2.18 2.18 0 0 0 1.31 1.79 8.48 8.48 0 0 1 3.27 4.27 14.94 14.94 0 0 0 3.92 5.56 1.38 1.38 0 0 1 -.27 2.74 84.31 84.31 0 0 0 -11.28 3.87 3.84 3.84 0 0 1 -.6.2c-1.59.4-2.67 1.22-2.63 3.05a2 2 0 0 1 -1.39 1.94 17.07 17.07 0 0 0 -6.69 4.51.91.91 0 0 1 -1.6 0 14.13 14.13 0 0 1 -3.33-8.09c0-.58.16-1.29-.54-1.56s-1.18.26-1.68.67-.63 1.54-1.47 1.42-.87-1.08-1.3-1.64a22.49 22.49 0 0 0 -2.89-3 2.23 2.23 0 0 1 -.77-2.6 2.06 2.06 0 0 0 -.75-2.38c-2.77-2.5-5.52-5-8.32-7.51a25.91 25.91 0 0 0 -2.45-1.82c-.86-.6-1.49-.39-1.86.63a3.85 3.85 0 0 1 -.66 1.49c-.18.19-.35.41-.64.31a.62.62 0 0 1 -.38-.61 5.52 5.52 0 0 1 .2-1.89c.21-.83-.19-1.44-1-1.43a69.22 69.22 0 0 1 -9-.93 1.77 1.77 0 0 0 -2.08 1.23c-.51 1.19-.92 1.23-1.86.28a2 2 0 0 0 -2.52-.54c-1.86.92-4 .63-5.89 1.51-3.28 1.56-6.93 1.91-10.32 3.12-.82.29-1.08.74-.77 1.54.48 1.23.37 2.61 1.07 3.78a.86.86 0 0 1 -.08 1.08 17.09 17.09 0 0 0 -2.1 3.17 2.62 2.62 0 0 1 -3.57.91 10.23 10.23 0 0 1 -2.81-2.17c-.24-.24-.5-.53-.88-.31s-.27.6-.18.92c1 3.28 2.13 6.48 5.55 8.09.92.44 1.09 1 .48 1.81a32.18 32.18 0 0 1 -3.49 4.19 5.45 5.45 0 0 0 -1.64 3.83 19.33 19.33 0 0 1 -3.69 9.34 44.75 44.75 0 0 1 -4.8 5.59zm101.06-64.8s0 .01 0 .02zm-12.35 65.1a.47.47 0 0 1 .38-.29.47.47 0 0 0 -.38.31zm.9-25a.41.41 0 0 0 -.28-.42.41.41 0 0 1 .28.42zm1.29 20.83a8.13 8.13 0 0 0 -3.69-1.59 8 8 0 0 1 3.72 1.59zm11.5-82a5 5 0 0 0 -.55 2.18 5 5 0 0 1 .58-2.15zm33.37 116a.45.45 0 0 0 -.45.23.45.45 0 0 1 .48-.24zm34.11 92.42.45-2.34a33.52 33.52 0 0 0 1.5-3.07 20.38 20.38 0 0 1 -1 3c-.3.86-.6 1.61-.92 2.4zm-68.36 6.71c.58-.06 1.15-.14 1.72-.23-.19.72-.65.77-1.34.39a2.39 2.39 0 0 0 -.35-.17zm-15.18 2.82c1.08-.11 1.37-1.16 1.13-2.08a1.74 1.74 0 0 0 -.52-.87c.66.09 1.33.17 2 .24-.09.15-.17.31-.27.46a1.61 1.61 0 0 0 .25 1.9 1.31 1.31 0 0 0 1.72.35c.71-.33 1 0 .86.65-.56 2.57-.49 5.23-1.24 7.77a41.53 41.53 0 0 1 -1.22 4.76c-.22.5-.37 1-.94 1.07s-.59-.53-.76-.9a32.76 32.76 0 0 1 -2.55-11c-.06-1.09-.09-2.19 1.57-2.36zm-4.57-3.85h.18c.9.21 1.8.4 2.71.57a13.4 13.4 0 0 0 -1.9 0 .84.84 0 0 1 -.96-.58zm-60-22.2v4.24l.94 7.78c0-.08 0-.15-.07-.22a32.79 32.79 0 0 1 -.87-7.56c.02-1.42.02-2.84.04-4.27zm-5.83-89.38a5.62 5.62 0 0 0 1.7-4.41c0-1.32-.08-1.9-.54-2.21.46.31.51.89.54 2.21a5.62 5.62 0 0 1 -1.66 4.4z"/><path d="m1109.85 906.39a1.69 1.69 0 0 1 1.48 1.64 1.31 1.31 0 0 1 -1.35 1.4c-1 0-1.24-.86-1.49-1.63.13-.8.51-1.49 1.36-1.41z"/><path d="m963.51 921.11c.58.5.21 1-.1 1.39s-.41 1.61-1.09 1.23.17-1.07.47-1.59c.21-.34.21-.85.72-1.03z"/><path d="m942.65 667c.84-.08 1.67-.07 2.05.93-.68-.11-1.23-.87-2-.17-.19.18-.4 0-.45-.21a.42.42 0 0 1 .4-.55z"/><path d="m946.23 671c-.64 0-.44-.59-.58-.91s-.15-.74.25-.75.66.46.74.88.02.78-.41.78z"/></g><path d="m804.07 931.33c-6.53-4.12-9-10.4-8.16-18.83.77-8.11-.15-16.39.27-24.56.28-5.43-1.47-9.15-5-12.79-8.44-8.59-16.53-17.59-25.85-27.61 7 1.52 12.24 3 17.55 3.72 7.91 1.08 13.18-2.88 14.77-10.26 1.38-6.37-2.07-10.3-6.07-13.66-5.3-4.46-11.15-8.17-16.34-12.76-5.73-5.05-5.64-13.47-.15-16.52 2.73-1.52 5.52-2.45 5.42 2.94-.14 6.71 3.64 9.83 9.36 10.13s11.27 1.54 17.23 6.13c-1.49-5.54-2.27-9.65-3.69-13.5-4.36-11.85-23.37-16.59-32.42-8.2a12.13 12.13 0 0 0 -3.79 7.15 16 16 0 0 0 6 16c5.2 4.23 10.7 8 15.8 12.38 3.33 2.82 6 6.37 3.64 11.48-2.27 4.83-6.33 5.15-10.61 4.53-9.4-1.38-17.75-5.84-26.22-10.11-29.26-14.74-58-30.78-88.38-42.8-23.55-9.31-45.59-7-66.24 8.52q-10.7 8-21.14 16.41c-2.1 1.7-4.1 3.54-6.67 4.23-17.48 4.72-32 14.94-43.25 29.67-6.12 8-12.66 9-21.09 7.68-6.49-1-9.66-4.6-10.4-11.25-.22-2-.25-4-.38-6.38-5.34 6.39-6.92 16.43-3.5 22 4.16 6.82 11.36 9.17 17.94 13.09l-16.7 5.39c4.95 6.1 10.11 9.69 17 8.41 2.77-.52 3.7.94 5.18 2.85 8.21 10.63 10.55 23.4 11.54 36.55.82 10.76 6.21 16.27 16.28 15.71 12.39-.69 16.42-4.1 20.79-17.05 1.25-3.69 3.59-6.71 7.65-6.34 3.76.35 6 2.28 6.45 7.09.63 6.89 4 12.94 8.26 18 3.3 3.9 2.87 6.72.59 10.87-5.25 9.61-12 18.37-14.69 29.52-.92 3.82-.94 5.84 3.37 5.79 8.92-.09 17.84 0 26.75 0 2.34 0 4.9-.36 4.46-3.56-.93-6.62 2.9-10.56 6.62-14.37 4.58-4.68 6.19-10 6-16.79-.41-18 .23-36.07-.35-54.08-.18-5.77 3.44-9.46 6.1-9.4 9.14.19 9.32-1 13.82-.35 4.18.59 8.41 2.87 8.15 9.75-.53 13.56-.3 27.16-.09 40.74a24.8 24.8 0 0 1 -3.19 12.52c-5.15 9.7-12 18.44-14.72 29.54-1 4.13-.46 6.16 4 6 8.47-.21 17-.19 25.44 0 3.81.08 5.91-1.11 5.28-5.55-.52-3.61 1-6.21 3.2-8.71 3.14-3.57 6.1-7.32 9.11-11 9.21-11.35 9.19-11.36 2.07-24.1-.53-1-1.38-1.87-.48-3.77h17.8a4.1 4.1 0 0 1 3.9 1.93c7 10.75 16.86 17.4 27.81 22.36 4 1.82 3 3.39.64 5.77-3 3-5.88 6.25-8.75 9.45s-2.44 7.55-1.57 11.28c.93 4 4.66 2.53 7.27 2.57 8.49.15 17 .08 25.45.05 8.17 0 8.77-.72 8.77-9.8v-26.5c4.46 4.26 7.54 8.62 11.63 10.69s9.58-.61 16.23 2c-4.15 3.75-7.4 6.51-10.44 9.51-3.4 3.34-2.67 8-1.87 11.87.86 4.14 4.8 2.07 7.31 2.13 9.56.25 19.14-.13 28.7.19 4.7.15 6.09-1.76 5.89-6.56-.29-6.78-.84-13.7.07-20.35 2.33-16.18-1.94-28.6-15.36-37.08z" fill="#271916"/><circle cx="338.92" cy="224.86" fill="#fac770" r="214.05"/><path d="m376.94 271.29c0 51.65-21.53 93.51-48.09 93.51s-48.1-41.86-48.1-93.51 21.53-93.5 48.1-93.5 48.09 41.86 48.09 93.5z" fill="#b72025"/><path d="m305.68 180.72a5.67 5.67 0 0 0 -.62.23 6.56 6.56 0 0 1 .62-.23z" fill="none"/><path d="m307.71 178.37v.19c-.03-.06-.01-.12 0-.19z" fill="none"/><path d="m308.1 177.46.14-.23a1.2 1.2 0 0 0 -.14.23z" fill="none"/><path d="m308.38 177 .16-.23z" fill="none"/><path d="m307.72 178.36a1.83 1.83 0 0 1 .06-.25 2.68 2.68 0 0 0 -.07.27z" fill="none"/><path d="m307.87 177.9.11-.23c-.04.07-.08.15-.11.23z" fill="none"/><path d="m307.87 177.9c0 .07-.05.13-.08.19z" fill="none"/><path d="m260.19 336.06v-.13z" fill="none"/><path d="m260.19 336.06a1.45 1.45 0 0 0 0 .28 1.45 1.45 0 0 1 0-.28z" fill="none"/><path d="m307.76 179.4a1.81 1.81 0 0 1 -.09-.31 2.14 2.14 0 0 0 .09.31z" fill="none"/><path d="m308.76 176.51-.2.26z" fill="none"/><path d="m260.15 336.34s0 0 0 0z" fill="none"/><path d="m368.79 283.28-1.2-.19a38 38 0 0 1 5.66 6c-.24-1.15-.5-2.29-.78-3.43-.47-1.9-2.03-2.17-3.68-2.38z" fill="none"/><path d="m260.22 335.92a2.64 2.64 0 0 1 .19-.5 4.51 4.51 0 0 0 -.19.5z" fill="none"/><path d="m308.11 180.13a2.74 2.74 0 0 1 -.3-.55 2.74 2.74 0 0 0 .3.55z" fill="none"/><path d="m308.38 177c0 .07-.09.13-.13.19l.15-.21z" fill="none"/><path d="m308 177.65.12-.21z" fill="none"/><path d="m307.92 180.18-.52.1.73-.14z" fill="none"/><path d="m307.67 178.85a1.22 1.22 0 0 1 0-.27 1.4 1.4 0 0 0 0 .29z" fill="none"/><path d="m307.12 180.34-.46.1.5-.11z" fill="none"/><path d="m298 238.45a4.47 4.47 0 0 0 2.54 2.16l.79.29c0 .06-.11.11-.16.16-1.67 1.86-5.87 3-1.67 6.41.34.28.19 1.42 0 2.07-1.2 3.68 1.72 8.14-2.12 11.33-.13.11-.05.58.05.83 1.7 4.13.35 8.23 0 12.35-.17 1.88-.81 3.84.4 5.95l3.85-2.93c.19.33.39.66.59 1a55.23 55.23 0 0 1 14.2-5.57l.13-.18a16.06 16.06 0 0 1 18.18-6.64c2.16.65 4.21 1.68 6.8 2.74-7.77-11.06-19.3-7.39-29.88-8.59 2.14-2.77 5-3.22 7.65-3.83 12.76-2.86 25.86 3.43 30.2 14.38a6 6 0 0 1 .6 3.19 56.19 56.19 0 0 1 6.44 2.49 3.14 3.14 0 0 1 0-1 41.38 41.38 0 0 1 6.13-14.65c.77-1.16 2.16-3.16 3.25-2.25 3.79 3.19 6.41 0 9.37-1.2 1.68-.68 3.83-1.68.25-3-1.88-.71-2.46-2.34-2.52-4.18s.26-3.81-.12-5.62c-.89-4.28-.41-9.09-3.91-12.86-1.23 1.71-.28 3.95-2.16 4.54-1.45.45-1.81-1.11-2.29-2.09-2.91-5.9-2.89-5.9-9.67-5-2.29.3-4.58.68-6.88.81-6 .34-12.11 1-18.11.68a21.27 21.27 0 0 0 -7 1.13 3.9 3.9 0 0 0 -1.93-3.19 17.86 17.86 0 0 0 -8.29-2.83c-1.09-.41-2.18-.8-3.28-1.17-11-3.72-15.09-.78-15 10.75.02 4.66.1 5.07 3.57 3.52z" fill="none"/><path d="m307.14 180.33h.19z" fill="none"/><path d="m307.67 178.88a1.08 1.08 0 0 0 0 .18 1.33 1.33 0 0 1 0-.2z" fill="none"/><path d="m306.38 180.51-.46.13.47-.13z" fill="none"/><path d="m307.77 179.42a.94.94 0 0 0 0 .16c0-.06 0-.12-.05-.18z" fill="none"/><path d="m305.68 180.71.23-.07z" fill="none"/><path d="m306.38 180.51.25-.07z" fill="none"/><path d="m541.58 600.9c10.29-9.48 21.66-17.68 31.66-27.5 2.39-2.35 1.86-3.59-.1-5.54-4-4-7.83-8.1-11.77-12.14-4.33-4.44-4.33-4.4-9.54-.65a332.28 332.28 0 0 0 -40.66 34.42c-1.71 1.71-2.87 2.82-4.12-.49-5.47-14.45-11.62-28.63-16.53-43.32-2.1-6.29-2.2-13-4.8-19-6.12-14.35-12.06-28.79-18.44-43-8.17-18.22-13.34-36.88-10.83-57.13a63 63 0 0 0 -.14-14.71c-1.22-10.75-3.6-21.36-3.39-32.28.08-4.35-.6-8.69-5.16-11.18-1.56-.85-2.14-2.63-2.59-4.36-1.5-5.74-5.41-9.52-9.85-13.28s-10.37-4.22-14.69-7.84a26.9 26.9 0 0 0 -13.74-5.94c-6.28-.9-12.57-1.79-18.87-2.56-2.71-.33-4.36-1.27-4-4.38a9.33 9.33 0 0 0 -1.78-6.15c-2.68-4.13-2.91-8.26-1.88-13.08 1.85-8.74-1-17.16-2.94-25.6-.87-3.86-1.05-7.6.67-11.4 2.83-6.23 1.55-13.43 4.4-19.73.37-.81-.51-2.19-.86-3.29-1.57-5-3.2-9.9-4.71-14.87-.28-.92-1-1.71.27-3 5.19-5.11 4.79-12-.26-17.13-2.67-2.75-6.61-5.28-7.64-8.45-2.71-8.25-6.9-15-12.37-21.81-5.05-6.31-9.77-13-14.9-19.35-9.94-12.39-22.46-19.27-37.28-23.76-8.65-2.62-16.39-3.9-25.5-1.17-17.08 5.1-28.55 15-32.34 32.54-3.08 14.27 0 26.3 14.87 32.46 1.6.66 3.1 1.59 4.73 2.15 2.61.87 3.28 2.34 2.31 4.94-3.2 8.53-3.55 17.41-3.52 26.43a286.25 286.25 0 0 1 -3.48 46.6c-2.5 15.34-6.33 30.28-15 43.53-1.08 1.67-1.84 3.87-4 4.35-10.92 2.44-20.36 9.12-31.44 11-10.18 1.7-17 7.64-22.51 16.06a210.25 210.25 0 0 0 -27.69 62.3c-1.83 7.12-2.17 14.61-5.21 21.41q-8.31 18.6-16.85 37.1a13.41 13.41 0 0 0 -1.25 8.34c4 22.46 7.45 45 13.09 67.17 1.62 6.36 1.69 6.67-4.88 8.24-16 3.81-30.07 11.66-43.62 20.67a35.87 35.87 0 0 0 -14.11 16.98 234.44 234.44 0 0 0 -9.73 29.6c-3 12.49-.74 24.1 6 34.89a63.74 63.74 0 0 0 12.09 14.13c2.17 1.9 2.79 3.22 1.31 4.82a24.41 24.41 0 0 1 6.13 3.64l.36.15a8.49 8.49 0 0 1 12.5 2c8.38 12.39 17.73 23.9 30 32.78a11 11 0 0 0 6.88 2c11.2 0 22.41.06 33.61 0 7.87-1 15.76-2.19 23.65-2.71a13 13 0 0 0 2-1.89c2.27-2.71 4.36-2.47 7.23-1.39a286.79 286.79 0 0 0 28.92 9.07c10.42 2.72 20.68 5.44 31.39 1.73 1.74-.6 3 .36 4.42 1.19 8.67 5.24 17.62 6.11 26.83 1.51 1.7-.85 3.14-1.18 4.75.16 6.73 5.6 13.92 3.61 17.82-5.54 3-7 4.35-14.34 5.16-21.83.5-4.6 1.61-5.26 5.87-3.57 6.71 2.66 13.36 5.5 20.15 7.95 12.88 4.66 26.19 8.51 39.84 5.5 15.05-3.32 29.36 0 43.69 3a110.16 110.16 0 0 0 13.9 2c5.65-.31 11.31-.25 17-.14 3-.28 6-.69 9.07-1.27 9.43-1.79 18.61-4.86 28.58-4.34 6.28.33 12.46-4.37 15.58-8.87 8.69-12.56 15.86-26.24 19.32-41.4 3.63-15.89-.12-29.74-11.83-41.3a63.75 63.75 0 0 0 -9.57-8.12c-2.24-1.47-2.38-2.79-.7-4.87a108.57 108.57 0 0 1 11.02-11.48zm-281.39-264.85v-.14zm0 0a1.45 1.45 0 0 0 0 .28 1.45 1.45 0 0 1 0-.27zm0 .28s0 0 0 0-.04.02-.04.01zm.07-.42a4.51 4.51 0 0 1 .17-.46 2.64 2.64 0 0 0 -.21.47zm107.37-52.83 1.2.19c1.65.21 3.21.48 3.68 2.39.28 1.14.54 2.28.78 3.43a38 38 0 0 0 -5.7-6zm-58.87-106.57-.2.27zm-3.08 4.21a6.56 6.56 0 0 0 -.62.23 5.67 5.67 0 0 1 .62-.23zm2-2.34v.2c0-.07.02-.14.03-.2zm.68-1.37.18-.25zm-.29.44a1.2 1.2 0 0 1 .15-.24zm-.23.44c0-.08.07-.16.11-.25zm0 0-.09.21c.06-.1.08-.1.11-.19zm-.08.2a1.83 1.83 0 0 0 -.06.25 2.68 2.68 0 0 1 .07-.27zm0 1.27a2.14 2.14 0 0 1 -.09-.34 1.81 1.81 0 0 0 .09.36zm.35.75a2.74 2.74 0 0 1 -.3-.55 2.74 2.74 0 0 0 .3.57zm-.3-.55a.94.94 0 0 1 0-.16c0 .06 0 .12.05.18zm-.14-.52a1.08 1.08 0 0 1 0-.18 1.33 1.33 0 0 0 0 .2zm-.5 1.26.24-.05zm-.78.19.27-.07zm-.71.2.23-.07zm.24-.07.46-.13-.47.13zm.74-.2.46-.1-.5.11zm.74-.16.52-.1h.19l-.73.14zm.58-2.62.11-.19zm.27-.45c0-.06.09-.12.13-.19l-.15.21zm-.58 1.36a1.22 1.22 0 0 0 0 .27 1.4 1.4 0 0 1 0-.25zm1.71 45.65c1.1.37 2.19.76 3.28 1.17a17.86 17.86 0 0 1 8.29 2.83 3.9 3.9 0 0 1 1.93 3.19 21.27 21.27 0 0 1 7-1.13c6 .36 12.08-.34 18.11-.68 2.3-.13 4.59-.51 6.88-.81 6.78-.9 6.76-.9 9.67 5 .48 1 .84 2.54 2.29 2.09 1.88-.59.93-2.83 2.16-4.54 3.5 3.77 3 8.58 3.91 12.86.38 1.81.06 3.75.12 5.62s.64 3.47 2.52 4.18c3.58 1.34 1.43 2.34-.25 3-3 1.19-5.58 4.39-9.37 1.2-1.09-.91-2.48 1.09-3.25 2.25a41.38 41.38 0 0 0 -6.13 14.65 3.14 3.14 0 0 0 0 1 56.19 56.19 0 0 0 -6.44-2.49 6 6 0 0 0 -.6-3.19c-4.34-10.95-17.44-17.24-30.2-14.38-2.68.61-5.51 1.06-7.65 3.83 10.58 1.2 22.11-2.47 29.88 8.59-2.59-1.06-4.64-2.09-6.8-2.74a16.06 16.06 0 0 0 -18.18 6.64l-.13.18a55.23 55.23 0 0 0 -14.2 5.57c-.2-.33-.4-.66-.59-1l-3.9 2.91c-1.21-2.11-.57-4.07-.4-5.95.38-4.12 1.73-8.22 0-12.35-.1-.25-.18-.72-.05-.83 3.84-3.19.92-7.65 2.12-11.33.21-.65.36-1.79 0-2.07-4.2-3.44 0-4.55 1.67-6.41.05-.05.11-.1.16-.16l-.79-.29a4.47 4.47 0 0 1 -2.54-2.16c-3.42 1.58-3.5 1.14-3.54-3.55-.07-11.53 4.02-14.47 15.02-10.75z" fill="#b72025"/><path d="m260.44 335.41-.02-.02" fill="none"/></g></svg>