<svg height="1080" viewBox="0 0 1920 1080" width="1920" xmlns="http://www.w3.org/2000/svg" xmlns:xlink="http://www.w3.org/1999/xlink"><defs><path id="a" d="m0 724h1920v356h-1920z"/><filter id="b" height="101.1%" width="100.2%" x="-.1%" y="-.6%"><feGaussianBlur in="SourceAlpha" result="shadowBlurInner1" stdDeviation="1.5"/><feOffset dx="0" dy="1" in="shadowBlurInner1" result="shadowOffsetInner1"/><feComposite in="shadowOffsetInner1" in2="SourceAlpha" k2="-1" k3="1" operator="arithmetic" result="shadowInnerInner1"/><feColorMatrix in="shadowInnerInner1" type="matrix" values="0 0 0 0 0   0 0 0 0 0   0 0 0 0 0  0 0 0 0.5 0"/></filter><path id="c" d="m170.1875 435.09375h-8.4375v-13.546875h-2.4375v13.546875h-8.4375v-32.25h8.4375v11.53125h2.4375v-11.53125h8.4375zm21.481875-13.5c0 2.937515-.046874 5.007806-.140625 6.210938-.09375 1.203131-.328123 2.210933-.703125 3.023437-.687503 1.500007-1.77343 2.585934-3.257812 3.257813-1.484383.671878-3.335927 1.007812-5.554688 1.007812s-4.070305-.335934-5.554687-1.007812c-1.484383-.671879-2.585934-1.757806-3.304688-3.257813-.343752-.718754-.570312-1.773431-.679687-3.164063-.109376-1.390631-.164063-3.414049-.164063-6.070312v-5.484375c0-2.937515.046875-5.007806.140625-6.210937.093751-1.203132.328123-2.210934.703125-3.023438.718754-1.468757 1.796868-2.515622 3.234375-3.140625s3.312488-.9375 5.625-.9375 4.17968.304684 5.601563.914063c1.421882.609378 2.492183 1.664055 3.210937 3.164062.343752.750004.570312 1.820306.679688 3.210938.109375 1.390631.164062 3.398424.164062 6.023437zm-8.390625 5.4375v-16.734375c0-1.000005-.070312-1.718748-.210937-2.15625-.140626-.437502-.492185-.65625-1.054688-.65625s-.921874.242185-1.078125.726563c-.156251.484377-.234375 1.42968-.234375 2.835937v16.546875c0 .843754.078124 1.499998.234375 1.96875s.499997.703125 1.03125.703125c.875004 0 1.3125-1.078114 1.3125-3.234375zm26.02875 7.96875h-15.984375v-32.25h8.390625v25.828125h7.59375zm16.56 0h-15.984375v-32.25h8.390625v25.828125h7.59375zm19.56-32.25-6.09375 20.578125v11.671875h-7.828125v-11.671875l-5.859375-20.578125h7.734375c.750004 4.09377 1.15625 6.374998 1.21875 6.84375.343752 2.250011.609374 4.203117.796875 5.859375.406252-2.843764.843748-5.484363 1.3125-7.921875.312502-1.593758.640624-3.187492.984375-4.78125zm31.27875 0-3.5625 32.25h-10.03125c-.406252-2.156261-.835935-4.828109-1.289062-8.015625s-.835936-6.140611-1.148438-8.859375c-.250001 2.125011-.515623 4.249989-.796875 6.375-.875004 6.406282-1.343749 9.906247-1.40625 10.5h-9.9375l-3.65625-32.25h7.921875l1.546875 22.078125c0-4.06252.281247-8.265603.84375-12.609375.437502-3.156266.890623-6.312484 1.359375-9.46875h8.390625l1.6875 22.875 2.25-22.875zm19.700625 18.84375c0 2.937515-.046874 5.007806-.140625 6.210938-.09375 1.203131-.328123 2.210933-.703125 3.023437-.687503 1.500007-1.77343 2.585934-3.257812 3.257813-1.484383.671878-3.335927 1.007812-5.554688 1.007812s-4.070305-.335934-5.554687-1.007812c-1.484383-.671879-2.585934-1.757806-3.304688-3.257813-.343751-.718754-.570312-1.773431-.679687-3.164063-.109376-1.390631-.164063-3.414049-.164063-6.070312v-5.484375c0-2.937515.046875-5.007806.140625-6.210937.093751-1.203132.328123-2.210934.703125-3.023438.718754-1.468757 1.796868-2.515622 3.234375-3.140625 1.437508-.625003 3.312489-.9375 5.625-.9375 2.312512 0 4.179681.304684 5.601563.914063 1.421882.609378 2.492184 1.664055 3.210937 3.164062.343752.750004.570312 1.820306.679688 3.210938.109375 1.390631.164062 3.398424.164062 6.023437zm-8.390625 5.4375v-16.734375c0-1.000005-.070311-1.718748-.210937-2.15625s-.492185-.65625-1.054688-.65625c-.562502 0-.921874.242185-1.078125.726563-.15625.484377-.234375 1.42968-.234375 2.835937v16.546875c0 .843754.078125 1.499998.234375 1.96875.156251.468752.499998.703125 1.03125.703125.875005 0 1.3125-1.078114 1.3125-3.234375zm29.919375-5.4375c0 2.937515-.046874 5.007806-.140625 6.210938-.09375 1.203131-.328123 2.210933-.703125 3.023437-.687503 1.500007-1.77343 2.585934-3.257812 3.257813-1.484382.671878-3.335926 1.007812-5.554688 1.007812-2.218761 0-4.070305-.335934-5.554687-1.007812-1.484382-.671879-2.585934-1.757806-3.304688-3.257813-.343751-.718754-.570312-1.773431-.679687-3.164063-.109376-1.390631-.164063-3.414049-.164063-6.070312v-5.484375c0-2.937515.046875-5.007806.140625-6.210937.093751-1.203132.328124-2.210934.703125-3.023438.718754-1.468757 1.796868-2.515622 3.234375-3.140625 1.437508-.625003 3.312489-.9375 5.625-.9375 2.312512 0 4.179681.304684 5.601563.914063 1.421882.609378 2.492184 1.664055 3.210937 3.164062.343752.750004.570312 1.820306.679688 3.210938.109375 1.390631.164062 3.398424.164062 6.023437zm-8.390625 5.4375v-16.734375c0-1.000005-.070311-1.718748-.210937-2.15625s-.492185-.65625-1.054688-.65625c-.562502 0-.921874.242185-1.078125.726563-.15625.484377-.234375 1.42968-.234375 2.835937v16.546875c0 .843754.078125 1.499998.234375 1.96875.156251.468752.499998.703125 1.03125.703125.875005 0 1.3125-1.078114 1.3125-3.234375zm29.919375-1.5c0 2.218761-.015624 3.515623-.046875 3.890625-.15625 1.718759-.648433 2.999996-1.476562 3.84375s-1.898431 1.390624-3.210938 1.640625c-.875004.156251-2.265615.234375-4.171875.234375h-10.546875v-32.25h6.28125c3.375017 0 5.789056.101561 7.242188.304687 1.453132.203127 2.695307.773433 3.726562 1.710938 1.000005.843754 1.640624 1.906244 1.921875 3.1875.187501.843754.28125 2.296865.28125 4.359375zm-8.4375-.5625v-14.109375c0-1.093755-.19531-1.773436-.585937-2.039063-.390627-.265626-1.070308-.398437-2.039063-.398437v21.140625c1.468758 0 2.296875-.48437 2.484375-1.453125.093751-.500002.140625-1.546867.140625-3.140625z"/><filter id="d" height="143.2%" width="107.4%" x="-4.8%" y="-21.6%"><feOffset dx="-2" dy="0" in="SourceAlpha" result="shadowOffsetOuter1"/><feGaussianBlur in="shadowOffsetOuter1" result="shadowBlurOuter1" stdDeviation="2"/><feColorMatrix in="shadowBlurOuter1" type="matrix" values="0 0 0 0 0   0 0 0 0 0   0 0 0 0 0  0 0 0 0.5 0"/></filter></defs><g fill="none" fill-rule="evenodd"><path d="m0 0h1920v1080h-1920z" fill="#fff"/><path d="m-.56748322 485.512271c103.40878622-80.738555 162.80482322-125.905475 178.18811222-135.50076 23.074934-14.392927 50.551934-22.919432 68.28273-18.234754s183.681962 70.696049 229.520825 130.659926c45.838864 59.963877 128.757663 118.898545 159.719125 134.287002s210.377528 120.318144 241.722282 134.890332c20.896503 9.714792-271.581189 9.714792-877.43307422 0z" fill="#70a69c"/><path d="m0 483.319418 137.767445-106.73221c40.778677-31.404842 70.929092-47.11574 90.451245-47.132694 29.283229-.025432 121.993774 88.577488 145.75867 99.347676 23.764897 10.770188 85.759169 86.819544 85.759169 97.799541 0 7.319998 28.147008 49.212894 84.441024 125.678688 43.010442 57.892412 72.813907 86.838618 89.410397 86.838618 16.596489 0-194.599494-2.706323-633.58795-8.118967z" fill="#baece3"/><use fill="#b0dcdd" fill-rule="evenodd" xlink:href="#a"/><use fill="#000" filter="url(#b)" xlink:href="#a"/><g fill="#7bcec0" opacity=".7" transform="translate(475 47)"><path d="m165.041808 432.585704v-51.04805h-8.953296v-57.771434h-7.636946v-49.732757h-9.690876v-27.033463h-3.271464v27.033463h-9.687347v49.732757h-7.636946v57.771434h-8.956825v51.04805h-14.208108v210.145997h84.249916v-210.145997z"/><path d="m334.175264 640.133853v-47.186127h-14.27869v-19.662926h-5.554784v-30.668009h-8.727435v-204.479044h-1.612793v-42.768002h-3.977282v-22.6888h-3.169121v-8.727807h-4.930136v-8.377994h-5.635953v-3.840935h-3.52203v-3.141311h-2.816212v-3.491123h-2.816212s-3.723188-39.262886-3.536146-49.008646h1.323408v-1.161375h-1.171657v-4.379645h1.171657v-1.161376h-1.210477c-.176455-2.889446-2.4386-5.198204-5.325394-5.481552v-8.804765h1.962173v-41.882978h-1.962173v-25.221438h-1.171657v25.221438h-1.962173v41.882978h1.962173v8.804765c-2.886794.283348-5.152469 2.592106-5.328923 5.481552h-1.210477v1.161376h1.175186v4.379645h-1.175186v1.161375h1.323408c.187042 9.74576-3.536146 49.008646-3.536146 49.008646h-2.816212v3.491123h-2.816213v3.141311h-3.522029v3.840935h-5.635954v8.377994h-4.930136v8.727807h-3.16912v22.6888h-3.977283v42.768002h-1.612793v204.479044h-8.727434v30.668009h-5.554785v19.662926h-14.278689v47.186127h-21.421564v22.807735h175.600357v-22.807735z"/><path d="m1011.03111 156.330935-14.225751-3.221767v-14.716587h-20.680455v-138.392581h-3.881997v138.392581h-20.680455v14.398258l-12.927049 6.104217-11.635403 427.991354 9.990848 66.628672h74.040262l10.3367-66.628672z"/><path d="m472 652.208435h59.412195v-542.208435h-59.412195z"/><path d="m413.994495 297.370339v-105.370339h-7.058176v108.959409l-26.46816 13.474754v17.490594h-26.468159v307.834467h91.756286v-358.557191z"/><path d="m894.872638 450.305524v-18.571513h-12.351808l-33.526335-29.734011-33.526336 29.734011h-12.351807v18.571513h-14.116352v238.540229h119.988989v-238.540229z"/><path d="m546 687.047786v-41.977428h14.116352v-334.070358l35.290879 41.977427v68.213319l10.587264 13.992476v111.939806l12.351807 12.243416v127.681342z"/><path d="m79.3833037 569.374761v-43.537589h-3.3032263l-8.5862709-63.837172-7.5945972 63.837172h-2.9750211v43.537589h-4.6231052l-10.67902-11.785163-10.8978236 11.785163h-4.6266342v-43.537589h-2.971492l-7.5945973-63.837172-8.58979996 63.837172h-3.2996972v43.537589h-3.64201874v72.676919h83.0253225v-72.676919z"/><path d="m1366.07066 464.47515v-4.830902h-.97403v4.830902h-7.79928l-6.33824-17.878886h-.48702v-8.213583h-.97403v8.213583h-5.85475l-2.43507-4.348162h-8.77332v-7.248102h-.97755v7.248102l-4.38666 11.596265h-73.60972l-4.38665-11.596265v-7.248102h-.97756v7.248102h-8.77331l-2.4386 4.348162h-5.85123v-8.213583h-.9705v8.213583h-.49054l-6.33825 17.878886h-7.79928v-4.830902h-.97403v4.830902h-1.46104v186.519702h154.5317v-186.519702z"/><path d="m1105.19086 378.384397v-42.813478h-11.99537v-16.651046h-9.59912v-30.919873h-4.80309v30.919873h-9.59559v16.651046h-11.9989v42.813478h-13.19879v267.588608h74.38964v-267.588608z"/><path d="m1142 649.504983h52.93632v-298.504983h-52.93632z"/></g><path d="m109 269v17.272727h-18.4693252v-8.2959h-8.4596844v23.023173h-27.0709904v-32zm-99-3h1v-11h-1zm47 0h9v-11h-9zm12 0h9v-11h-9zm11 0h9v-11h-9zm12 0h9v-11h-9zm12 0h5v-11h-5zm17 16.07459v4.92541h-7v-12zm-7-27.07459h7v5.809259l-5.233316 5.190741h-1.766684zm0-8 6 6h-6zm0-28 11 10.474826-11 10.525174zm0-28 11 10.5-11 10.5zm0-28 11 10.48303-11 10.51697zm0-28 11 10.496486-11 10.503514zm1.853797-4h22.286477l.859726.84506-11.998221 12.15494h-.003558l-11.998221-12.15494zm24.146203 25-11-10.503514 11-10.496486zm87.585604 64.514652c20.587946 11.6524 42.709236 22.184355 66.414396 31.485348h-24.652191v-1.631877h-30.80672v1.631877h-19.603315v-34.705601h-29.685793v34.705601h-22.963749v-15.085456h-21.288232v-76.914544c24.168101 22.733409 51.644936 42.950812 82.585604 60.514652zm-82.585604-89.514652c24.199028 25.08505 51.708201 47.972369 82.68178 68.509699 30.111599 19.969602 63.506258 37.750917 100.31822 53.244797v.245504h-25.601512c-26.293923-9.932278-50.667231-21.371806-73.19529-34.171048-31.656568-17.976065-59.66503-38.740013-84.203198-62.199781zm181 135h2v-11h-2zm-12 0h9v-11h-9zm-12 0h9v-11h-9zm-11 0h9v-11h-9zm-12 0h9v-11h-9zm-47 0h6v-11h-6zm37 0h7v-11h-7zm-48 0h9v-11h-9zm-2 23.458856v-20.458856h20v35h-11.674658v-14.541144zm-33-23.458856h3v-11h-3zm-12 0h9v-11h-9zm-8 15.303842v-12.303842h23v27h-13.792468v-14.696158zm0-15.303842h6v-11h-6zm-28.688698-28-8.311302-8.199085 11-10.800915v19zm-16.311302 31v8l-6-5.859634 2.183717-2.140366zm-.181-3.178h-.819l.819-.822zm6.209126-34.822 5.971874 5.919503h-11.854615v12.080497l-6.145385-6.08089 12.024561-11.91911zm-.026347-28 11.998221 11.990515-11.998221 12.009485h-.003558l-11.998221-12.009485 11.998221-11.990515zm12.998221-12v21l-11-10.493564zm-12.998221-16 11.998221 12.025505-11.998221 11.974495h-.003558l-11.998221-11.974495 11.998221-12.025505zm12.998221-12v21l-11-10.51697zm-12.998221 8h-.003558l-11.998221-12.025505 11.998221-11.974495h.003558l11.998221 11.974495zm188.164232 111.09653v14.90347h-5.454281v-24.957407h-27.886798v15.173405h-12.824932v-18.215998h58v13.09653zm52.833989-16.09653h3v-11h-3zm6 5.232806-6 5.767194v-8h3.686066zm-1-5.232806h9v-11h-9zm11 0h9v-11h-9zm12 0h7v-11h-7zm-24 39 2-2v2zm-4-15.424962v-8.175841l6-6.399197v21zm0 14.424962v-11l6 5.639547-5.717213 5.360453zm21.694149-12.901143v13.901143h-10.694149v-36h23v22.098857zm53.305851-25.098857h9v-11h-9zm11-11h.217344l4.782656 4.306802v6.693198h-5zm209-79h3v-10h-3zm0-13h3v-6h-3zm6 13h3v-10h-3zm0-13h3v-6h-3zm976.83964 167.270586v-22.974843h-11.32607v-13.425662h-18.15v12.987216h-5.28v-5.44994h-8.1675v5.44994h-3.11143v3.089163h-2.32178v.507985h-12.96429v-21.585249h-3.41786v-49.477296h-23.6775v49.477296h-45.42214v-46.24552h-11.22v-90.437883h-18.88071v10.806769h-29.07536v-7.557313h-9.26357v-32.681958h-.9075v1.373092c-3.18214 2.503389-7.30714.202723-9.405 4.080383v4.804056c2.52214-4.70623 6.25821-2.761507 9.405-4.213567v26.637994h-6.11679v7.557313h-4.69071v81.023065h-17.11286v24.347935h-2.60464v43.895351h-4.33714v-85.957948h-21.88608v62.523443h-5.775v-12.844602h-29.19321v-52.106798h-24.9975v-30.566336h-33.69536v121.688997h-3.37071v-15.001478h.47143l-1.65-8.198481-1.59107 7.854324v-15.41753h.73071l-1.65-8.181981-1.44964 7.136545h-.40072v-6.60263h-1.19035v-11.119103h.66l-3.3-16.37457-3.31179 16.37457h.66v11.119103h-1.17857v6.60263h-.4125l-1.42607-7.136545-1.67357 8.181981h.7425v15.630861h-.21215l-1.62643-8.067655-1.67357 8.198481h.7425v6.863106l-8.26178-7.492489-4.05429 3.683188h-6.5175v-3.053805h.45964l-1.65-8.198481-1.5675 7.854324v-15.41753h.71893l-1.65-8.181981-1.44964 7.136545h-.40071v-6.60263h-1.19036v-11.119103h.66l-3.31179-16.37457-3.3 16.37457h.66v11.119103h-1.17857v6.60263h-.4125l-1.43786-7.136545-1.66178 8.181981h.73071v15.630861h-.22393l-1.61464-8.067655-1.66178 8.198481h.73071v10.561616h-6.39964v-39.447239h-10.04143v-88.992894h-10.19464v-2.615358h-7.84929v2.615358h-14.6025v-19.898644h-1.10786v19.898644h-8.13685v-4.487007h-14.60368v4.487007h-7.85754v94.547731h-4.41728v-20.750786h-19.81768v-40.72722h-22.6934v-201.851669h-8.88171v-13.33373h-78.55179v13.33373h-8.88407v198.994693h-28.500211v2.726149h-15.274286v4.136957h-5.704286v2.637752h-4.650643v8.970478h1.947v99.470827h-5.506285v-50.51566h-12.5895v-102.74032h-5.925858v-3.13513h-42.613607v3.13513h-5.927035v124.384501h-20.739322v-22.997237h-10.171071l-7.304786-57.131255v-116.722292l-13.775143-10.1043103-6.974786-94.05035356-6.977142 94.05035356-13.778679 10.1043103v116.722292l-8.902929 69.681203v-128.302235h-19.474714v-5.704521h-14.146393v-16.891985h-3.594643v-23.868237h-2.535107v46.464743h-7.060821v-46.464743h-2.531572v23.868237h-3.587571v16.891985h-14.155821v5.704521h-25.671643v106.022778h-14.908929v37.806599h-5.110286v23.791626h-2.407821v-27.992229h-3.816214v-123.557109h-1.942286v-24.127534h-17.320286v24.127534h-1.93875v123.557109h-10.360821v-45.987401h-6.49275v-102.793358h-91.191964v-7.28623h-3.932893v-1.687784h-23.590286v-6.177149h-1.127893v6.177149h-10.676678v1.687784h-8.42325v125.695126h-9.234108v-54.426322h-30.205607v38.248582l-3.724285-3.02434-.413679-.35005h-12.608357v-36.475937h-40.44975v36.475937h-34.8315v-28.046445h-39.894643v24.654376c-36.22575-15.281989-69.1185-32.819857-98.798464-52.445061-31.72125-20.985332-59.781857-44.40923-84.357429-70.17976v-4.400967h-5.135036v3.426249h-25.260321v-3.426249h-5.138571v4.400967c-24.5720361 25.77053-52.6385361 49.194428-84.3538933 70.17976-8.0142857 5.293183-16.2560357 10.428431-24.7370357 15.41753v3.389712c9.04317857-5.302612 17.8258929-10.761981 26.3410714-16.383999 31.0035-20.507991 58.53375-43.362615 82.7498576-68.411829v25.592558c-24.5496433 23.426255-52.5843219 44.160541-84.2655004 62.110926-8.0413929 4.59544-16.3196786 8.964585-24.8254286 13.149865v3.241205c9.01371429-4.43279 17.7646071-9.040016 26.2550357-13.832286 31.0329643-17.607407 58.5938572-37.874959 82.8358933-60.664759v92.228207h-53.7900004v-19.057109h-43.824v19.057109h-11.4769286v2.917085h8.00721429v10.794982h-8.00721429v2.913549h11.4769286v23.634871h-7.1456786v37.655735h-4.33125v87.729414h1650v-87.729414z" fill="#48ad9b" transform="translate(0 317)"/><path d="m915 735.041562v-46.059756h16.614519v-39.479791h26.31986v32.301259h15.5542v-81.349575h63.401101v74.76961h7.18281v-7.477817h18.53849v-9.269242h35.88838v9.269242h13.15993v6.280682h18.54277v-52.036878h28.71413v-14.955632h49.04831v81.349575h5.37856v-20.637747h23.3313v-8.67495h8.96996v-9.568527h17.3499v-92.115235h33.49839v-7.7771h11.36423v10.171369h16.14849v13.758497h19.73562v-8.375667h10.17137v5.382831h14.95135v-28.709855h58.62112v22.12989h7.7771v-49.048317h5.37856v-8.375667h5.98567v-18.542761h23.92987v21.535597h7.17426v45.461189l2.98856 2.988561v25.122726h4.78853v35.888386h12.55709v-90.918101h6.57997v-8.974234h14.36134v7.178532h20.93275v45.461188h4.18997v-13.15993h52.63545v12.561363h5.97712v113.047991h7.17853v16.152766h5.98568v-29.308421h4.18569v-22.732732h4.78427v-8.371392h9.5728v7.178533h7.17425v40.672649h9.57281v-37.684088h8.37566v-9.568526h7.17426v6.579965h22.73273v-10.171369h7.17426v10.171369h10.76994v32.89555h20.33846v-20.334187h40.66837v12.561362h8.37567v-8.375667h26.32414v-5.981397h16.74705v38.282656h7.17426v-7.7771h7.17853v-8.974235h40.07836v14.357065h10.76566v11.364228h10.76566v-4.185695h23.92559v34.09696z" fill="#2f9f8b"/><g transform="translate(0 471)"><path d="m69.2274074 208.916307-.4169444-173.6128751h12.5119907v-13.3556812h28.3577083v14.1901825h16.264491v46.3239734h8.757662v-4.1725066h8.340717v5.4242586h8.340718v3.3398353h27.106875v60.5141561h2.781458v-2.225337h2.918611v-2.642588h6.67294v2.642588h2.77963v2.642588h6.533958v-5.007008l2.501667-1.670833h8.340717v-2.225337h2.781459v-1.808086h8.201736v3.477089h32.112037v62.602239h3.613518v-68.582832l2.223704-2.227167 36.28331-.417251v-5.563342h14.872848v5.563342h6.811921v-2.086253h6.811921v2.920755h23.493357v71.227249h13.206898v-19.753524l2.223704-2.922585v-36.586295h5.420277v-7.095091h1.94757v-28.658532h1.528796v28.519449h1.945741v6.67784h3.337384v-15.998269l5.698241-2.644417h2.501666v-18.501773l5.839051-2.225337h13.901806v20.866193h8.201736v46.325804h7.923773v-2.364421h6.533959v2.364421h3.057592v-5.147922h18.210232v3.200752l3.89331-1.669002.694907-41.316966 3.7525-2.088083h4.727199v-8.20776l6.115185-2.781671h4.032292v-18.9190234l5.70007-2.3644204h18.627175v22.3265708h8.757663v10.224471s10.008495 0 9.59155 0c-.416944 0 0 44.23955 0 44.23955l16.820417-169.16403163h2.640648l16.959398 178.34537563h46.291806v6.816925h14.596713v69.139166h42.537477v-15.581018h15.430602v-5.843339h2.084722v-.834502h10.842384v.973585h14.040787v7.373258h4.449236v11.130345l15.706736-1.670833h11.539121v-14.88377h13.901805l1.87625-1.879458h6.186505v1.462207h17.09838v6.119677h14.872847v6.538757h5.978032v105.588207h-789.44956v-161.929857l15.0136574-7.512342h22.9374306v6.886466h7.1922916v21.285274h16.5771991v-5.530401h2.5034954v2.399191z" fill="#197e6d"/><path d="m881.940357 70s-19.949031 123.580268-276.940357 149m310.580367-149s-162.722194 149-310.580367 149m301.713115-149c65.747024 83.909776 215.775875 138.713366 458.286885 5.2118214m-480.71173-1.3006719c56.008212 91.9001395 291.11005 169.5111565 451.08967 0" opacity=".8" stroke="#197e6d"/><g transform="translate(604 69)"><path d="m757.814262 123.797123-8.608539-13.828363 8.608539-12.6546709zm-1.043625 16.045947h-21.389753v-9.914227l10.955326-15.395114 10.434427 15.263485zm-1.825888 53.357299-6.261753-9.131766 7.173783-9.784426zm-9.781933 29.87431-10.564194-16.828409.782262-4.305367 9.781932-15.393286 9.781933 15.784517.91203 4.175566zm9.781933 13.17753-5.739026-10.307286 5.739026-8.087873zm0 12.393241h-19.042966v-2.608814l9.261033-13.698563 9.781933 13.828364zm-19.563865-13.175702v-17.612698l6.651056 9.263394zm19.563865 25.960174-7.30355 1.956154v4.436996h-5.609259v-4.305367l-6.130157-3.522905v-4.043937l19.042966.782461zm-19.563865-99.538986h19.563865l-9.781933 15.131857zm-.782262 12.393241 6.389693 8.479105-6.389693 11.089747zm1.303161-76.9700879 7.826277 12.6546709-8.347176 12.652842zm9.84773-22.7005268 11.021124 14.7424538-10.695791 15.9161459-10.173063-15.9161459zm-9.84773-13.8283632 5.868794 10.3712724-5.868794 10.3712723zm.652494-36.9201208 5.2163 6.6527517v3.2614754l-5.2163 8.3493038s-.129768-17.8723001 0-18.2635309zm17.60821-8.3493038-8.608539 12.6546707-7.564914-12.6546707zm.91203 27.2654955-5.868794-8.087874v-3.5229053l5.868794-7.3054124zm-10.043296 23.0917576-7.694682-11.3493493v-5.2194576l8.412974-12.1318109 8.412974 12.5230417v4.5667968zm10.043296-4.5667968 1.69612 21.5268345-8.60854-11.6765938zm-448.486622 62.4908922-8.608539-13.828363 8.608539-12.6546709zm-1.043625 16.045947h-21.389753v-9.914227l10.955326-15.395114 10.434427 15.263485zm-1.825888 53.357299-6.259925-9.131766 7.173783-9.784426zm-9.781933 29.87431-10.564194-16.828409.782262-4.305367 9.781932-15.393286 9.781933 15.784517.913858 4.175566zm9.781933 13.17753-5.739026-10.307286 5.739026-8.087873zm0 12.393241h-19.042966v-2.608814l9.261033-13.698563 9.781933 13.828364zm-19.563865-13.175702v-17.612698l6.651056 9.263394zm19.563865 25.960174-7.303551 1.956154v4.436996h-5.609258v-4.305367l-6.130157-3.522905v-4.043937l19.042966.782461zm-19.563865-99.538986h19.563865l-9.781933 15.131857zm-.782262 12.393241 6.389693 8.479105-6.389693 11.089747zm1.303161-76.9700879 7.826277 12.6546709-8.347176 12.652842zm9.84773-22.7005268 11.021124 14.7424538-10.693963 15.9161459-10.174891-15.9161459zm-9.84773-13.8283632 5.870621 10.3712724-5.870621 10.3712723zm.652494-36.9201208 5.218127 6.6527517v3.2614754l-5.218127 8.3493038s-.129768-17.8723001 0-18.2635309zm17.60821-8.3493038-8.608539 12.6546707-7.564914-12.6546707zm.91203 27.2654955-5.868794-8.087874v-3.5229053l5.868794-7.3054124zm-10.041468 23.0917576-7.69651-11.3493493v-5.2194576l8.412974-12.1318109 8.412974 12.5230417v4.5667968zm10.041468-4.5667968 1.69612 21.5268345-8.60854-11.6765938zm462.572824 79.3193012-3.911311-140.50304385h-8.869903v3.00004546h-4.956764v-3.00004546h-5.998562v3.00004546h-6.259925v-3.00004546h-7.564913l-2.739746 140.11181285-410.923416.391231-3.913138-140.50304385h-8.869903v3.00004546h-4.954936v-3.00004546h-6.00039v3.00004546h-6.259925v-3.00004546h-7.564914l-2.739745 140.11181285-274.28341558 9.001964v20.612744l273.11002258-8.610733-4.434038 99.930216c-4.956764 1.826353-6.259925 9.393195-6.259925 9.393195l-15.391191 3.914137v9.654625h92.0803v-9.916055l-14.345738-5.21763c-.261363-3.652706-3.39224-7.043982-6.261753-7.828272-2.869513-.782462-4.6954-100.453076-4.6954-100.453076l410.534112.52286-4.434038 99.930216c-4.956764 1.826353-6.261752 9.393195-6.261752 9.393195l-15.389364 3.914137v9.654625h92.0803v-9.916055l-14.347566-5.21763c-.259535-3.652706-3.390412-7.043982-6.259925-7.828272-2.869513-.782462-4.6954-100.453076-4.6954-100.453076l92.67979-1.254133v-21.221528z" fill="#197e6d"/><path d="m753.63976.12248815s40.756225 29.87065385 106.36024 61.07039545m-128.793618-57.15625935s37.557723 31.22899245 128.79179 63.14172475" stroke="#197e6d"/></g></g><path d="m1461.01642 506.191537 13.39746 2.038233c-.51739 1.740338-.7369 3.410122-.81529 4.805527l-8.88983.556595c-1.48164-2.798651-3.84913-1.967679-4.28813-2.406683.41549-1.426764.58795-3.127904.59579-4.993672zm15.10644 19.488646-3.62178 10.26956-4.22541-3.025993s-1.81873-6.036306-2.42237-14.494974c-.12542-1.669783-.38412-2.924081-.72906-3.896161l8.48219 1.073992c.04704.627149.10191 1.011277.10191 1.011277zm213.33247 537.388037-4.1235-41.12527h-71.29113v-28.793966h-32.90179l-7.95694-55.447785-12.08046-20.53128-2.42236-86.969846 10.87319-13.287713v-21.738542h-14.49497l-6.03631-13.287713 8.45867-10.865351h-22.74198l-1.23862-26.716535 4.82905-1.207261 1.20726-23.557273-1.81089-11.468982 4.22541-6.647776-6.03631-48.313968s5.43268 2.414523 8.45867-1.207261c3.01815-3.621784 6.02847-26.575426 6.02847-26.575426l6.04414-.603631s10.26172-13.891343 10.87319-16.909497c.60364-3.018153-3.01815-5.432675-3.01815-5.432675l3.62179-13.287713-20.53129-8.458668s-8.45866 13.891343-9.06229 12.684082-10.26172-12.072612-10.26172-12.072612-1.2151-12.080452-5.44052-18.728228c-4.23325-6.639937-7.24357-3.621784-7.24357-3.621784l-7.85503-15.702236 1.81089-6.036306v-6.647776l-.60363-13.891344s7.16517-1.22294 21.49552-3.66882l-20.89973-.61147c.03136-1.269976-.07056-2.712418-.38413-4.201896l16.78407-9.04662-18.03053 5.605142c-.76042-1.434603-1.81873-2.798651-3.36308-3.958876l9.97166-13.444501-13.56993 11.523858c-1.7325-.666346-3.82561-1.136707-6.30284-1.34837l-3.17494-19.167232-2.15583 19.096678c-2.32829.188144-4.31164.642827-6.00495 1.301333l-17.31714-11.594411 12.62137 14.455777c-1.30917 1.22294-2.24206 2.610507-2.9476 4.03727-4.13918.015679-10.90455.133269-14.4401.195984-.07839-11.641448-6.54586-30.220728-6.03631-40.505967 1.2151-10.26956-4.82904-30.80084-4.82904-30.80084l7.25141-6.044146-1.20727-10.26172h-7.85503s4.22541-6.647776 4.22541-12.080452c0-5.440515-10.86535-15.098605-10.86535-15.098605s0 0 .59579 2.414522c.60363 2.414523 1.2151 9.66593-2.40668 13.287714-3.62962 3.621783-.61147 10.26172-.61147 10.26172l-10.26172 1.818731v8.458668l6.0363 4.829045 1.8109 7.243568-.60363 6.647776s1.81089 7.243568 2.41452 9.054459c.60363 1.810892 2.42236 14.494975 2.42236 14.494975l-.60363 22.350011s7.24357 27.171218 6.6321 26.567587c-9.05446 7.251407-9.35236 22.044277-9.35236 22.044277l3.62179 17.215232 9.05445 8.152933-.90152 8.152933-1.81089 7.251407s9.0623 13.585608 8.15293 16.305866c-3.62178 3.621784-9.0623 27.171217-9.0623 30.793001 0 3.629623 9.0623 3.629623 9.0623 3.629623l-3.62178 28.982109 3.62178 34.430464-2.72026 10.87319-.90152 44.38645-1.40325 20.374493h-21.27602l8.45867 10.865351-6.03631 13.287713h-14.49497v21.738542l10.87319 13.287713-2.42236 86.969846-12.08045 20.53128-7.95695 55.447785h-32.90963v28.793966h-71.29113l-4.10782 41.12527h-46.62067v16.93178h485.06032v-16.93178z" fill="#0c5d4f"/><g fill="#117187" transform="translate(635 169)"><path d="m390.920932 143.448254-23.460466 21.214701-23.460466-21.214701s4.631184.664889 11.357428 7.517992c3.780558 3.846857 8.227966 7.285281 12.890654 7.285281 6.479458 0 12.145045-6.63464 16.198644-11.797026 4.048348-5.167135 6.474206-3.006247 6.474206-3.006247"/><path d="m745.915681 226.448254-23.455215 21.21945-23.460466-21.21945s4.625933.664889 11.352177 7.517992c3.785809 3.851606 8.227966 7.285281 12.890655 7.285281 6.474206 0 12.145044-6.62989 16.193392-11.797026 4.048348-5.167135 6.479457-3.006247 6.479457-3.006247"/><path d="m46.9156813 71.4461978-23.4552153 21.21945-23.460466-21.21945s4.62593343.669638 11.3521772 7.5179923c3.7858093 3.8516056 8.2332163 7.2852811 12.8959052 7.2852811 6.4742065 0 12.1450443-6.6298908 16.1933924-11.7922771 4.0483481-5.1671356 6.4742065-3.0109963 6.4742065-3.0109963"/><path d="m291.232727 2.07996897s14.113275 1.59777752 19.993807 4.25504387c.784071-.70917398 16.073452-6.3825658 19.993806-5.84854925-.98245-.17942956-10.192921-.88860354-19.209735 3.54586989.585691 0-15.681417-3.72529945-20.777878-1.95236451"/><path d="m454.226534 41.6396688s19.058823 2.1576678 27 5.7518578c1.058823-.9634506 21.705882-8.6249021 27-7.9037565-1.326719-.2423049-13.764706-1.1999864-25.941177 4.7884072.790929 0-21.17647-5.0307121-28.058823-2.6365085"/></g><circle cx="116" cy="115" fill="#fff8c4" r="54"/><use fill="#000" filter="url(#d)" xlink:href="#c"/><use fill="#fff" fill-rule="evenodd" xlink:href="#c"/><path d="m1055.06032 809.870004c-138.509343 13.725-204.173032 7.4-285.325032-10.717-81.166054-18.116-129.682975-7.554-223.824354 16.052-94.139974 23.607-223.721755-16.403-321.108371-16.403-97.38521 0-155.9343958 23.98-224.802563 23.98v50.245h1054.65273z" fill="#b0dcdd"/></g></svg>