<svg enable-background="new 0 0 1920 1080" viewBox="0 0 1920 1080" xmlns="http://www.w3.org/2000/svg"><path d="m745.4 158.1-2.5 19.7-3.1 1.1-10.4-8.8-3.6-7.2-8.8-11.9-1.1 4.1 3.1 6.2 2.1 6.8 10.4 8.3 1.1 6.8 11.3 18.1s6.2 16.5 8.8 16.5c2.5 0 3.6 8.8 6.2 8.3 2.5-.5 7.7 7.2 7.7 7.2l-3.1.5 4.1 10.9 16.5 15s-4.7 3.1.5 4.7 6.8 18.6 6.8 18.6.5 21.2 5.2 20.1 2.5 6.2 10.4 6.8c7.7.5 14.5 28.5 14.5 28.5l2.1 3.1 5.2 9.3 2.5.5 2.1-1.6 4.1 7.2 2.5-2.5 6.2 6.2 3.1-1.1 3.6 3.1 8.3 7.7 7.2 5.2.2 4.2h4.3l8.2 7.2v8.1l-7.5 7.2 7.5 2.1 16.5 13.7h9.3l7.7-6.9s4.1.4 7.7.4 12.4-5.2 12.4-5.2l14-1.1 2.5-3.1 6.2-2.1 5.2-2.1 8.8.5 11.3-5.2 4.1.1v5.3 2.7 4 8.7l-3.4 3.6s2.9 16.5.2 16c-2.5-.5-5.7 9.8-5.7 9.8-4.7 1.1-17 42.3-17 42.3-2.5 0-15 21.7-15 21.7l-16.2 14.2v3.7l-18.1 14.4-18.6 18.1-31.5 33c-3.1-.5-8.3 8.8-8.3 8.8l-7.8 6.8c-3.3 8.3-13.9 25.8-13.9 25.8l-5.7 12.4c-4.7 7.7 2.1 11.9 2.1 11.9l6.2 9.8-3.6 6.2 1.1 7.7-2.5 2.1 3.1 3.6 5.7 16 .5 5.2 7.1 6.8v8.2l-5.7 8.8 2.7 15.6-3.1 1.6 3.1 3.1-2.5 10.9 2.5 9.8-4.1 7.2 2.1 5.7-6.8 3.6s-6.2 4.1-5.7 5.7-5.2 5.7-5.2 5.7l-7.7 7.2s-4.7-4.1-8.8-.5-19.2 8.2-19.2 8.2v4.7l-2.7.6v2.5l-8 6.8v-4.3l-6.9 7.2-11.5 11.3c-4.1 4.1.5 10.4.5 10.4l2.5 9.8c-4.7 8.3 2.7 9.3 2.7 9.3l-2.5 18.1c-2.5 5.7 2.5 7.2 2.5 7.2l-12.7 11.4-25.8 10.3-2.1 7.7 4.1-1.1-.5 1.7-2.5 8.2-9.3 24.2-73.9 67.5h-13.4l1.6 4.5s-8.8-.7-11.3.8-6.2-1.1-6.2-1.1-14 1.6-17.6-.5-12.4 2.5-12.4 2.5l-16 .5-3.6 4.7c-9.8 1.1-7.7-2.5-11.9-2.5s-10.4-10.4-10.4-10.4l-5.7-9.8 1-6h4.1l-1.6-11.7-19.6-43.5-18.1-17.6-2.1-12.9-2.5-9.3.5-12.4-4.7-7.2-1.6-25.3-32.6-59-3.1-9.8s1.6-7.7 0-10.4 2.5-12.9 2.5-12.9 8.8-26.9 8.8-28.9c0-2.1 3.1-.5 3.6-6.2s10.4-11.3 10.4-11.3l2.1-15.6s5.2-7.7.5-8.8-8.8-18.6-8.8-18.6l3.6-3.6-2.5-15-10.4-16-.2-10.5h-4.5s-.5-9.5-1.1-11c-.5-1.6-38.7-43.1-38.7-43.1l-1.6-7.7-3.1-6.2 5.7-5.4.8-5.9h6.4l-1.1-4.1c-4.7.5-3.1-4.1-3.1-4.1l3-6.4h-3.6l-2.1-2.4 5.7-10.4-.5-9.3 2.4-2.4v-5.9l-3.9-4.7 1.8-3.4h-5.1c-5.7-1.3-5.2-7.4-7.2-5.8-2.1 1.6-4.1-5.3-4.1-5.3-3.1-6.8-4.7 3.1-4.7 3.1l-9.3-1.1c-1.1-2.5-8.8 1.9-8.8 1.9-14.5 6-20.1-12.8-20.1-12.8-1.1-5.7-11.9-11.9-11.9-11.9l-43.9 1.6-2.5 4.1-14 2.5c-7.2-.5-27.4 11.3-27.4 11.3l-16.5-6.2c-9.8-2.5-39.8 7.7-39.8 7.7-24.8 10.4-38.2-5.7-38.2-5.7l-33-26.9-11.3-6.8c-3.1-5.2-7.7-8.3-8.3-9.8-.5-1.6-5.7-7.2-5.7-7.2 2.1-8.3-6.2-19.7-6.2-19.7l-8.3-6.8.8-7.4h-4l-4.1-3.3-4.1-4.8-2.3-6.4h-5.3-2.2l-3.1-6.6h-4.3v-13.3l4.7-6.8-5.7-12.4c-4.1.5-2.7-6.3-2.7-6.3l10.3-9.6v-7.3l3.9-8.3 3.5-4.7 3.1-7.2.5-22.2-2.5-4.1 3.1-6.8 1.1-9.8h-3.7l-1.6-8h-3c-1.1-6.6 12.9-23.8 12.9-23.8l3.6-6.2 21.2-25.8c-3.1-8.3 9.8-17 9.8-17 4.1-1.1 8.3-5.2 12.9-10.4 4.7-5.2 5.7-9.3 9.8-9.8.6-.1 1.2-.1 2.1-.2 4.8-.6 13-1.8 16.5-4.9 4.1-3.6 10.9-8.3 10.9-8.3.5-.4 1-.6 1.4-1 17.2-11.9 9.9-20.7 9.9-20.7 2.5-10.9 8.3-18.6 8.3-18.6s3.4.2 3.6-5.2c.4-9.4 34.6-21.7 34.6-21.7 8.4-21.1 19.2-27.1 21-21.8s7.5 7.8 7.5 7.8l19.2 1.1 5.2 4.1 10.9-.5 6.2-8.3 13.4-.5c-1.6-4.7 12.9-8.3 12.9-8.3l14.5.5 3.1-2.1 10.4-1.1 25.3-.5s9.3-3.6 12.4-1.6c3.1 2.1 7.2 2.5 7.7 0s15 2.1 15 2.1l5.7-4.2 9.8.1c2.5-1.1 5.7 6.8 5.7 6.8 3.6-3.1 6.8-3.1 6.8-3.1 3.6 2.1-4.1 7.7-4.1 7.7-5.7 1.6 3.6 12.4 3.6 12.4 5.2 3.6-14 19.2-14 19.2-1.6 6.2 6.8 5.7 6.8 5.7-.5-5.2 6.2-2.1 6.2-2.1-1.1 7.7 2.5 9.8 2.5 9.8 1.1 3.6 20.1 3.1 20.1 3.1 4.7.5 28.9 9.3 28.9 9.3-.5 13.4 25.1 19.2 25.1 19.2 6-1.1 17.7 6.8 17.7 6.8 15 2.5 15-14 15-14-8.8-12.4 13.4-19.7 13.4-19.7 5.7-4.7 23.3 2.5 22.2 3.1-1.1.5 3 6.2 3 6.2h17.6c5.7 2.7 7.7 8 7.7 8 10.4-4.9 47 6.6 47 6.6s14-5.2 14-8.7 10.4 2.1 10.4-.6c0-4 11.3 0 11.3 0 4.1 6.6 26.1 1.6 26.1 1.6 7.5 3.9 12.7 24.7 12.7 24.7zm211 586.3-3.4 2.1-2.2 9.8-2.9 3-1.9 3h-6.4v8h-4v7.2l-2.6 2.5v-3.9l-5.3 3.9v8.7h-4v-4.6l-7.1 4.7 2.5 5.3h-4.7v-3.3l-9.3.6v3.3l-4.7-2.8-6.2 2.8-5.1 2.9v6.4l-7.8 9.2 2.1 7.2 2.5 24.8-1.1 3.1-8.8 15.6-8.2 5.7-2.5 8.8v11.8 5.3l4.3 4.6-1.7 4.1v13.8l13.3 11.2h7.2s6.2-6.4 8.8-3.4l10.4-2.1 40.9-81.2 5.5-25.8 6.6-10.9v-15.1l3.9 1.2 2.5 4.7 2.5-4.1-2.1-6.8 2.1-14.5-3.1-2.1-1.1-18.1c.4.1-8.4-12.1-8.9-6.6zm-570.4-183.4h-4v4h4zm9.3-21.3h-4v4h4z" fill="#9ccc65"/></svg>