<?xml version="1.0" encoding="utf-8"?>
<!-- Generator: Adobe Illustrator 22.0.0, SVG Export Plug-In . SVG Version: 6.00 Build 0)  -->
<svg version="1.1" xmlns="http://www.w3.org/2000/svg" xmlns:xlink="http://www.w3.org/1999/xlink" x="0px" y="0px"
	 viewBox="0 0 1920 1080" style="enable-background:new 0 0 1920 1080;" xml:space="preserve">
<style type="text/css">
	.st0{display:none;fill:#B2EBF2;}
	.st1{display:none;}
	.st2{display:inline;}
	.st3{fill:#5CA4AA;}
	.st4{fill:none;stroke:#5CA4AA;stroke-width:3;stroke-linecap:round;stroke-miterlimit:10;}
	.st5{fill:none;stroke:#5CA4AA;stroke-width:2.8409;stroke-linecap:round;stroke-miterlimit:10;}
	.st6{fill:none;stroke:#5CA4AA;stroke-width:2.3654;stroke-linecap:round;stroke-miterlimit:10;}
	.st7{fill:none;stroke:#5CA4AA;stroke-width:2.0192;stroke-linecap:round;stroke-miterlimit:10;}
	.st8{fill:#9CCC65;}
	.st9{fill:#FFE082;}
	.st10{fill:none;stroke:#FFCA28;stroke-width:2;stroke-linecap:round;stroke-miterlimit:10;}
	.st11{fill:#605D69;}
	.st12{fill:#524C61;}
	.st13{fill:#FFFFFF;}
	.st14{fill:#DDE8F5;}
	.st15{fill:#184070;}
	.st16{opacity:0.5;fill:#FFFFFF;}
	.st17{fill:#1B2956;}
	.st18{fill:url(#sky_2_);}
	.st19{fill:#9E9E9E;}
	.st20{fill:#E0E0E0;}
	.st21{fill:#BDBDBD;}
	.st22{fill:url(#ground_2_);}
	.st23{fill:#CCCCCC;}
	.st24{fill:#E6E6E6;}
	.st25{fill:#808080;}
	.st26{fill:#EF5350;}
	.st27{fill:#FFCC80;}
	.st28{fill:none;stroke:#4D4D4D;stroke-width:3;stroke-miterlimit:10;}
	.st29{fill:#4D4D4D;}
	.st30{fill:#F2D1B3;}
	.st31{fill:none;}
	.st32{fill:#26A69A;}
	.st33{fill:#80CBC4;}
	.st34{fill:#00897B;}
	.st35{fill:#00695C;}
	.st36{fill:#009688;}
	.st37{fill:#2D5F73;}
	.st38{display:none;fill:none;stroke:#000000;stroke-miterlimit:10;}
	.st39{fill-rule:evenodd;clip-rule:evenodd;fill:#9CCC65;}
	.st40{fill:#E0F7FA;}
	.st41{fill:#F7A63B;}
	.st42{fill:#DF8F2F;}
	.st43{fill:url(#SVGID_1_);}
	.st44{fill:none;stroke:#26A69A;stroke-width:5;stroke-miterlimit:10;}
	.st45{fill:none;stroke:#4D4D4D;stroke-width:3.9423;stroke-miterlimit:10;}
	.st46{fill:#FFFFFF;stroke:#1A1A1A;stroke-width:0.8793;}
	.st47{fill:url(#SVGID_6_);}
	.st48{fill:none;stroke:#000000;stroke-width:0.8284;stroke-linecap:round;stroke-linejoin:bevel;stroke-miterlimit:10;}
	.st49{fill:#6D4C41;}
	.st50{fill:none;stroke:#5CA4AA;stroke-width:2.25;stroke-linecap:round;stroke-miterlimit:10;}
	.st51{display:inline;fill:#FFFFFF;}
	.st52{opacity:0.6;fill:#FFFFFF;}
	.st53{opacity:0.6;}
	.st54{fill:#3B97D2;}
	.st55{fill:#4EB96F;}
	.st56{fill:#E64D3C;}
	.st57{fill:#F19B20;}
	.st58{fill:#FFFFFF;stroke:#2D5F73;stroke-width:1.7039;stroke-miterlimit:10;}
	.st59{fill:#B2DFDB;stroke:#2D5F73;stroke-width:1.7039;stroke-miterlimit:10;}
	.st60{fill:#466584;stroke:#466584;stroke-width:0.7572;stroke-linecap:round;stroke-linejoin:round;stroke-miterlimit:10;}
	.st61{fill:#80CBC4;stroke:#2D5F73;stroke-width:1.7039;stroke-miterlimit:10;}
	.st62{fill:url(#XMLID_209_);stroke:#2D5F73;stroke-width:1.75;stroke-miterlimit:10;}
	.st63{fill:none;stroke:#2D5F73;stroke-width:1.75;stroke-miterlimit:10;}
	.st64{fill:none;stroke:#2D5F73;stroke-width:3.5;stroke-miterlimit:10;}
	.st65{fill:#757575;stroke:#2D5F73;stroke-width:1.75;stroke-miterlimit:10;}
	.st66{fill:#FFFFFF;stroke:#2D5F73;stroke-width:1.75;stroke-miterlimit:10;}
	.st67{fill:#B2DFDB;stroke:#2D5F73;stroke-width:1.75;stroke-miterlimit:10;}
	.st68{fill:#80CBC4;stroke:#2D5F73;stroke-width:1.75;stroke-miterlimit:10;}
	.st69{fill:#FFFFFF;stroke:#2D5F73;stroke-width:1.7949;stroke-miterlimit:10;}
	.st70{opacity:0.2;}
	.st71{fill:#80CBC4;stroke:#2D5F73;stroke-width:1.7949;stroke-miterlimit:10;}
	.st72{fill:#80CBC4;stroke:#2D5F73;stroke-width:1.761;stroke-miterlimit:10;}
	.st73{fill:#E0F2F1;stroke:#2D5F73;stroke-width:1.761;stroke-miterlimit:10;}
	.st74{fill:#E0F2F1;}
	.st75{fill:#B2DFDB;}
	.st76{fill:#2D5F73;stroke:#2D5F73;stroke-width:1.7949;stroke-miterlimit:10;}
	.st77{fill:url(#sky_3_);}
	.st78{fill:url(#ground_3_);}
	.st79{fill:#466584;}
	.st80{fill:#FFAB56;}
	.st81{fill:#F5FAFF;stroke:#466584;stroke-width:2.2716;stroke-linejoin:round;stroke-miterlimit:10;}
	.st82{fill:#AED581;stroke:#466584;stroke-width:2.2716;stroke-linecap:round;stroke-linejoin:round;stroke-miterlimit:10;}
	.st83{fill:#EF9A9A;stroke:#466584;stroke-width:2.2716;stroke-linecap:round;stroke-linejoin:round;stroke-miterlimit:10;}
	.st84{fill:#90CAF9;stroke:#466584;stroke-width:2.2716;stroke-linecap:round;stroke-linejoin:round;stroke-miterlimit:10;}
	.st85{fill:#F5FAFF;stroke:#466584;stroke-width:2.2716;stroke-linecap:round;stroke-linejoin:round;stroke-miterlimit:10;}
	.st86{fill-rule:evenodd;clip-rule:evenodd;fill:#39B54A;}
	.st87{fill-rule:evenodd;clip-rule:evenodd;fill:#65C8D0;stroke:#466584;stroke-width:0.7572;stroke-miterlimit:10;}
	.st88{fill-rule:evenodd;clip-rule:evenodd;fill:#FFFFFF;}
	.st89{clip-path:url(#SVGID_8_);}
	.st90{display:none;fill:#F4B8DC;}
	.st91{fill:url(#SVGID_9_);}
	.st92{opacity:0.5;fill:url(#SVGID_10_);}
	.st93{fill:url(#SVGID_11_);}
	.st94{opacity:0.7;fill:url(#SVGID_12_);}
	.st95{fill:url(#SVGID_13_);}
	.st96{fill:#282222;}
	.st97{opacity:0.6;fill:#A21C5C;}
	.st98{opacity:0.85;}
	.st99{fill:#A21C5C;}
	.st100{opacity:0.7;fill:#1C1C1C;}
	.st101{opacity:0.4;fill:#A21C5C;}
	.st102{opacity:0.8;fill:#1C1C1C;}
	.st103{opacity:0.3;fill:#1C1C1C;}
	.st104{fill:#201C1D;}
	.st105{opacity:0.5;}
	.st106{opacity:0.4;}
	.st107{fill:#E756B4;}
	.st108{fill:#231F20;}
	.st109{fill-rule:evenodd;clip-rule:evenodd;fill:#231F20;}
	.st110{fill-rule:evenodd;clip-rule:evenodd;fill:none;}
	.st111{fill:#F6F6F6;}
	.st112{fill-rule:evenodd;clip-rule:evenodd;fill:#F6F6F6;}
	.st113{fill:#F1E0D2;}
	.st114{fill:#C4AD99;}
	.st115{fill:#A68466;}
	.st116{fill:#885B33;}
	.st117{fill:#6A3200;}
	.st118{fill:#502500;}
	.st119{display:inline;filter:url(#Adobe_OpacityMaskFilter);}
	.st120{fill:url(#SVGID_15_);}
	.st121{display:inline;mask:url(#SVGID_14_);}
	.st122{opacity:0.8;fill:#4D4D4D;}
	.st123{opacity:0.3;fill:#FFFFFF;}
	.st124{fill:none;stroke:#FFFFFF;stroke-miterlimit:10;}
	.st125{fill:none;stroke:#FFFFFF;stroke-width:6.3;stroke-miterlimit:10;}
	.st126{clip-path:url(#SVGID_17_);}
	.st127{fill:url(#SVGID_18_);}
	.st128{fill:#FFC972;}
	.st129{fill:#FCB642;}
	.st130{fill:#806537;}
	.st131{fill:#A57A2B;}
	.st132{fill:#F79D5B;}
	.st133{fill:#F58B39;}
	.st134{fill:#F37F4C;}
	.st135{fill:#F9B7A4;}
	.st136{fill:#A66F29;}
	.st137{fill:#FBB02A;}
	.st138{fill:#FAAC31;}
	.st139{fill:#E99D22;}
	.st140{fill:#EFB34E;}
	.st141{fill:#EBB362;}
	.st142{fill:#D7A256;}
	.st143{fill:#B7A592;}
	.st144{fill:#A59786;}
	.st145{fill:#806A50;}
	.st146{fill:#6F5D47;}
	.st147{fill:#DC9528;}
	.st148{fill:#C7872B;}
	.st149{fill:#9F9487;}
	.st150{fill:#91877C;}
	.st151{fill:#C7852B;}
	.st152{fill:#E09627;}
	.st153{fill:#B97B2B;}
	.st154{fill:#E6B168;}
	.st155{fill:#FDD168;}
	.st156{fill:url(#SVGID_19_);}
	.st157{fill:url(#SVGID_20_);}
	.st158{fill:url(#SVGID_21_);}
	.st159{fill:url(#SVGID_22_);}
	.st160{fill:url(#SVGID_23_);}
	.st161{opacity:0.3;fill:#B0592A;enable-background:new    ;}
	.st162{fill:url(#SVGID_24_);}
	.st163{fill:url(#SVGID_25_);}
	.st164{fill:url(#SVGID_26_);}
	.st165{fill:url(#SVGID_27_);}
	.st166{fill:#B86A3F;}
	.st167{fill:url(#SVGID_28_);}
	.st168{fill:url(#SVGID_29_);}
	.st169{fill:url(#SVGID_30_);}
	.st170{fill:url(#SVGID_31_);}
	.st171{fill:url(#SVGID_32_);}
	.st172{fill:url(#SVGID_33_);}
	.st173{fill:url(#SVGID_34_);}
	.st174{fill:url(#SVGID_35_);}
	.st175{fill:url(#SVGID_36_);}
	.st176{fill:url(#SVGID_37_);}
	.st177{fill:url(#SVGID_38_);}
	.st178{fill:url(#SVGID_39_);}
	.st179{fill:url(#SVGID_40_);}
	.st180{fill:url(#SVGID_41_);}
	.st181{fill:url(#SVGID_42_);}
	.st182{fill:url(#SVGID_43_);}
	.st183{fill:url(#SVGID_44_);}
	.st184{fill:url(#SVGID_45_);}
	.st185{fill:url(#SVGID_46_);}
	.st186{fill:url(#SVGID_47_);}
	.st187{fill:url(#SVGID_48_);}
	.st188{fill:url(#SVGID_49_);}
	.st189{fill:url(#SVGID_50_);}
	.st190{fill:url(#SVGID_51_);}
	.st191{fill:url(#SVGID_52_);}
	.st192{fill:url(#SVGID_53_);}
	.st193{fill:url(#SVGID_54_);}
	.st194{fill:url(#SVGID_55_);}
	.st195{fill:url(#SVGID_56_);}
	.st196{fill:url(#SVGID_57_);}
	.st197{fill:url(#SVGID_58_);}
	.st198{fill:url(#SVGID_59_);}
	.st199{fill:url(#SVGID_60_);}
	.st200{fill:url(#SVGID_61_);}
	.st201{fill:url(#SVGID_62_);}
	.st202{fill:url(#SVGID_63_);}
	.st203{fill:url(#SVGID_64_);}
	.st204{fill:url(#SVGID_65_);}
	.st205{fill:url(#SVGID_66_);}
	.st206{fill:url(#SVGID_67_);}
	.st207{fill:url(#SVGID_68_);}
	.st208{fill:url(#SVGID_69_);}
	.st209{fill:url(#SVGID_70_);}
	.st210{fill:url(#SVGID_71_);}
	.st211{fill:url(#SVGID_72_);}
	.st212{fill:url(#SVGID_73_);}
	.st213{fill:url(#SVGID_74_);}
	.st214{fill:url(#SVGID_75_);}
	.st215{fill:url(#SVGID_76_);}
	.st216{fill:url(#SVGID_77_);}
	.st217{fill:url(#SVGID_78_);}
	.st218{fill:url(#SVGID_79_);}
	.st219{fill:url(#SVGID_80_);}
	.st220{fill:url(#SVGID_81_);}
	.st221{fill:url(#SVGID_82_);}
	.st222{fill:url(#SVGID_83_);}
	.st223{fill:#F5CE9C;}
	.st224{fill:url(#SVGID_84_);}
	.st225{fill:url(#SVGID_85_);}
	.st226{fill:url(#SVGID_86_);}
	.st227{fill:url(#SVGID_87_);}
	.st228{fill:#B0592A;}
	.st229{fill:none;stroke:#B0592A;stroke-miterlimit:10;}
	.st230{fill:#F48547;}
	.st231{fill:#CA6C32;}
	.st232{fill:#3C8376;}
	.st233{fill:#2F6F63;}
	.st234{fill:#6DC0D3;}
	.st235{fill:#A6DEF2;}
	.st236{fill:url(#_Path_295_1_);}
	.st237{fill:#C2805C;}
	.st238{fill:#B36033;}
	.st239{fill:url(#_Path_298_1_);}
	.st240{fill:url(#_Path_300_1_);}
	.st241{fill:#DA9A72;}
	.st242{fill:#CD916B;}
	.st243{font-family:'LoguetownDemo';}
	.st244{font-size:56px;}
	.st245{display:inline;fill:none;}
	.st246{font-family:'Cabin-Regular';}
	.st247{font-size:28px;}
	.st248{display:inline;fill:#2D5F73;}
	.st249{font-family:'GoodVibes';}
	.st250{font-size:130px;}
	.st251{fill:url(#XMLID_210_);stroke:#2D5F73;stroke-width:1.75;stroke-miterlimit:10;}
	.st252{fill:url(#XMLID_211_);stroke:#2D5F73;stroke-width:1.75;stroke-miterlimit:10;}
	.st253{fill:url(#XMLID_212_);stroke:#2D5F73;stroke-width:1.75;stroke-miterlimit:10;}
	.st254{fill:#2D5F73;stroke:#2D5F73;stroke-width:1.75;stroke-miterlimit:10;}
	.st255{fill:#FFFFFF;stroke:#2D5F73;stroke-width:1.6565;stroke-miterlimit:10;}
	.st256{fill:#B2DFDB;stroke:#2D5F73;stroke-width:1.6565;stroke-miterlimit:10;}
	.st257{fill:#466584;stroke:#466584;stroke-width:0.7167;stroke-linecap:round;stroke-linejoin:round;stroke-miterlimit:10;}
	.st258{fill:#80CBC4;stroke:#2D5F73;stroke-width:1.6565;stroke-miterlimit:10;}
	.st259{fill:#B2DFDB;stroke:#2D5F73;stroke-width:1.6861;stroke-miterlimit:10;}
	.st260{fill:#80CBC4;stroke:#2D5F73;stroke-width:1.6861;stroke-miterlimit:10;}
	.st261{fill:#2D5F73;stroke:#2D5F73;stroke-width:1.6861;stroke-miterlimit:10;}
	.st262{fill:#FFFFFF;stroke:#2D5F73;stroke-width:1.6861;stroke-miterlimit:10;}
	.st263{fill:#80CBC4;stroke:#2D5F73;stroke-width:1.7034;stroke-miterlimit:10;}
	.st264{fill:#E0F2F1;stroke:#2D5F73;stroke-width:1.7034;stroke-miterlimit:10;}
	.st265{fill:#80CBC4;stroke:#466584;stroke-width:2;stroke-linecap:square;stroke-miterlimit:10;}
</style>
<g id="Layer_1">
	<rect id="ocean" y="-2160" class="st0" width="1920" height="6480"/>
	<g id="waves" class="st1">
		<g class="st2">
			<line class="st4" x1="1148" y1="909" x2="1247" y2="909"/>
			<line class="st4" x1="1192.5" y1="921.5" x2="1294.5" y2="921.5"/>
			<line class="st4" x1="1268.5" y1="908.5" x2="1309.5" y2="908.5"/>
			<line class="st4" x1="1166.5" y1="921.5" x2="1180.5" y2="921.5"/>
			<line class="st4" x1="1210.5" y1="895.5" x2="1268.5" y2="895.5"/>
		</g>
		<g class="st2">
			<line class="st4" x1="274.5" y1="730.5" x2="322.5" y2="730.5"/>
			<line class="st4" x1="233.5" y1="758.5" x2="293.5" y2="758.5"/>
			<line class="st4" x1="211.5" y1="744.5" x2="262.5" y2="744.5"/>
			<line class="st4" x1="272.5" y1="744.5" x2="290.5" y2="744.5"/>
			<line class="st4" x1="301.5" y1="758.5" x2="348.5" y2="758.5"/>
		</g>
	</g>
	<polyline class="st38" points="1920.5,1078.5 0.5,1078.5 0.5,-1.5 1920.5,-1.5 	"/>
	<polyline class="st38" points="1920.5,2158.5 0.5,2158.5 0.5,1078.5 1920.5,1078.5 	"/>
	<polyline class="st38" points="1920.5,2158.5 0.5,2158.5 0.5,1078.5 1920.5,1078.5 	"/>
	<path id="africa" class="st8" d="M745.4,158.1l-2.5,19.7l-3.1,1.1l-10.4-8.8l-3.6-7.2l-8.8-11.9l-1.1,4.1l3.1,6.2l2.1,6.8l10.4,8.3
		l1.1,6.8l11.3,18.1c0,0,6.2,16.5,8.8,16.5c2.5,0,3.6,8.8,6.2,8.3c2.5-0.5,7.7,7.2,7.7,7.2l-3.1,0.5l4.1,10.9l16.5,15
		c0,0-4.7,3.1,0.5,4.7c5.2,1.6,6.8,18.6,6.8,18.6s0.5,21.2,5.2,20.1s2.5,6.2,10.4,6.8c7.7,0.5,14.5,28.5,14.5,28.5l2.1,3.1l5.2,9.3
		l2.5,0.5l2.1-1.6l4.1,7.2l2.5-2.5l6.2,6.2l3.1-1.1l3.6,3.1l8.3,7.7l7.2,5.2l0.2,4.2h4.3l8.2,7.2v8.1l-7.5,7.2l7.5,2.1l16.5,13.7
		h9.3l7.7-6.9c0,0,4.1,0.4,7.7,0.4c3.6,0,12.4-5.2,12.4-5.2l14-1.1l2.5-3.1l6.2-2.1l5.2-2.1l8.8,0.5l11.3-5.2l4.1,0.1v5.3v2.7v4v8.7
		l-3.4,3.6c0,0,2.9,16.5,0.2,16c-2.5-0.5-5.7,9.8-5.7,9.8c-4.7,1.1-17,42.3-17,42.3c-2.5,0-15,21.7-15,21.7l-16.2,14.2v3.7
		l-18.1,14.4l-18.6,18.1l-31.5,33c-3.1-0.5-8.3,8.8-8.3,8.8l-7.8,6.8c-3.3,8.3-13.9,25.8-13.9,25.8l-5.7,12.4
		c-4.7,7.7,2.1,11.9,2.1,11.9l6.2,9.8l-3.6,6.2l1.1,7.7l-2.5,2.1l3.1,3.6l5.7,16l0.5,5.2l7.1,6.8v8.2l-5.7,8.8l2.7,15.6l-3.1,1.6
		l3.1,3.1l-2.5,10.9l2.5,9.8l-4.1,7.2l2.1,5.7l-6.8,3.6c0,0-6.2,4.1-5.7,5.7c0.5,1.6-5.2,5.7-5.2,5.7l-7.7,7.2c0,0-4.7-4.1-8.8-0.5
		c-4.1,3.6-19.2,8.2-19.2,8.2v4.7l-2.7,0.6v2.5l-8,6.8V825l-6.9,7.2l-11.5,11.3c-4.1,4.1,0.5,10.4,0.5,10.4l2.5,9.8
		c-4.7,8.3,2.7,9.3,2.7,9.3l-2.5,18.1c-2.5,5.7,2.5,7.2,2.5,7.2L751,909.7L725.2,920l-2.1,7.7l4.1-1.1l-0.5,1.7l-2.5,8.2l-9.3,24.2
		l-73.9,67.5h-13.4l1.6,4.5c0,0-8.8-0.7-11.3,0.8s-6.2-1.1-6.2-1.1s-14,1.6-17.6-0.5c-3.6-2.1-12.4,2.5-12.4,2.5l-16,0.5l-3.6,4.7
		c-9.8,1.1-7.7-2.5-11.9-2.5c-4.2,0-10.4-10.4-10.4-10.4l-5.7-9.8l1-6h4.1l-1.6-11.7L518,955.7l-18.1-17.6l-2.1-12.9l-2.5-9.3
		l0.5-12.4l-4.7-7.2l-1.6-25.3l-32.6-59l-3.1-9.8c0,0,1.6-7.7,0-10.4c-1.6-2.7,2.5-12.9,2.5-12.9s8.8-26.9,8.8-28.9
		c0-2.1,3.1-0.5,3.6-6.2c0.5-5.7,10.4-11.3,10.4-11.3l2.1-15.6c0,0,5.2-7.7,0.5-8.8c-4.7-1.1-8.8-18.6-8.8-18.6l3.6-3.6l-2.5-15
		l-10.4-16l-0.2-10.5h-4.5c0,0-0.5-9.5-1.1-11c-0.5-1.6-38.7-43.1-38.7-43.1l-1.6-7.7l-3.1-6.2l5.7-5.4l0.8-5.9h6.4l-1.1-4.1
		c-4.7,0.5-3.1-4.1-3.1-4.1l3-6.4h-3.6l-2.1-2.4l5.7-10.4l-0.5-9.3l2.4-2.4v-5.9l-3.9-4.7l1.8-3.4h-5.1c-5.7-1.3-5.2-7.4-7.2-5.8
		c-2.1,1.6-4.1-5.3-4.1-5.3c-3.1-6.8-4.7,3.1-4.7,3.1l-9.3-1.1c-1.1-2.5-8.8,1.9-8.8,1.9c-14.5,6-20.1-12.8-20.1-12.8
		c-1.1-5.7-11.9-11.9-11.9-11.9l-43.9,1.6l-2.5,4.1l-14,2.5c-7.2-0.5-27.4,11.3-27.4,11.3l-16.5-6.2c-9.8-2.5-39.8,7.7-39.8,7.7
		c-24.8,10.4-38.2-5.7-38.2-5.7l-33-26.9l-11.3-6.8c-3.1-5.2-7.7-8.3-8.3-9.8c-0.5-1.6-5.7-7.2-5.7-7.2c2.1-8.3-6.2-19.7-6.2-19.7
		l-8.3-6.8l0.8-7.4h-4l-4.1-3.3l-4.1-4.8l-2.3-6.4h-5.3h-2.2l-3.1-6.6h-4.3v-13.3l4.7-6.8l-5.7-12.4c-4.1,0.5-2.7-6.3-2.7-6.3
		l10.3-9.6V334l3.9-8.3l3.5-4.7l3.1-7.2l0.5-22.2l-2.5-4.1l3.1-6.8l1.1-9.8h-3.7l-1.6-8h-3c-1.1-6.6,12.9-23.8,12.9-23.8l3.6-6.2
		l21.2-25.8c-3.1-8.3,9.8-17,9.8-17c4.1-1.1,8.3-5.2,12.9-10.4c4.7-5.2,5.7-9.3,9.8-9.8c0.6-0.1,1.2-0.1,2.1-0.2
		c4.8-0.6,13-1.8,16.5-4.9c4.1-3.6,10.9-8.3,10.9-8.3c0.5-0.4,1-0.6,1.4-1c17.2-11.9,9.9-20.7,9.9-20.7c2.5-10.9,8.3-18.6,8.3-18.6
		s3.4,0.2,3.6-5.2c0.4-9.4,34.6-21.7,34.6-21.7c8.4-21.1,19.2-27.1,21-21.8s7.5,7.8,7.5,7.8l19.2,1.1l5.2,4.1l10.9-0.5l6.2-8.3
		l13.4-0.5c-1.6-4.7,12.9-8.3,12.9-8.3l14.5,0.5l3.1-2.1l10.4-1.1l25.3-0.5c0,0,9.3-3.6,12.4-1.6c3.1,2.1,7.2,2.5,7.7,0
		c0.5-2.5,15,2.1,15,2.1l5.7-4.2l9.8,0.1c2.5-1.1,5.7,6.8,5.7,6.8c3.6-3.1,6.8-3.1,6.8-3.1c3.6,2.1-4.1,7.7-4.1,7.7
		c-5.7,1.6,3.6,12.4,3.6,12.4c5.2,3.6-14,19.2-14,19.2c-1.6,6.2,6.8,5.7,6.8,5.7c-0.5-5.2,6.2-2.1,6.2-2.1c-1.1,7.7,2.5,9.8,2.5,9.8
		c1.1,3.6,20.1,3.1,20.1,3.1c4.7,0.5,28.9,9.3,28.9,9.3c-0.5,13.4,25.1,19.2,25.1,19.2c6-1.1,17.7,6.8,17.7,6.8c15,2.5,15-14,15-14
		c-8.8-12.4,13.4-19.7,13.4-19.7c5.7-4.7,23.3,2.5,22.2,3.1c-1.1,0.5,3,6.2,3,6.2h17.6c5.7,2.7,7.7,8,7.7,8c10.4-4.9,47,6.6,47,6.6
		s14-5.2,14-8.7c0-3.5,10.4,2.1,10.4-0.6c0-4,11.3,0,11.3,0c4.1,6.6,26.1,1.6,26.1,1.6C740.2,137.3,745.4,158.1,745.4,158.1z
		 M956.4,744.4l-3.4,2.1l-2.2,9.8l-2.9,3l-1.9,3h-6.4v8h-4v7.2L933,780v-3.9l-5.3,3.9v8.7h-4v-4.6l-7.1,4.7l2.5,5.3h-4.7v-3.3
		l-9.3,0.6v3.3l-4.7-2.8l-6.2,2.8l-5.1,2.9v6.4l-7.8,9.2l2.1,7.2l2.5,24.8l-1.1,3.1l-8.8,15.6l-8.2,5.7l-2.5,8.8v11.8v5.3l4.3,4.6
		l-1.7,4.1V918l13.3,11.2h7.2c0,0,6.2-6.4,8.8-3.4l10.4-2.1l40.9-81.2l5.5-25.8l6.6-10.9v-15.1l3.9,1.2l2.5,4.7l2.5-4.1l-2.1-6.8
		l2.1-14.5l-3.1-2.1l-1.1-18.1C965.7,751.1,956.9,738.9,956.4,744.4z M386,561h-4v4h4V561z M395.3,539.7h-4v4h4V539.7z"/>
	<g id="clouds" class="st1">
		<path id="XMLID_39_" class="st51" d="M381.1,90.5c-2.8-1.2-7,0-8,2.9c-1.3-1.3-4.2-0.8-5,0.9c0.6-1.6-0.4-3.5-2.1-4
			c-1.6-0.5-3.8,0.2-4.2,1.9c0.9-2.6,1.6-5.3,1.6-8c0-2.7-0.9-5.5-2.7-7.5c-1.8-2-4.8-3.1-7.4-2.4c-2.6,0.7-4.7,3.1-4.3,5.8
			c-1.4-1.5-3.8-1.9-5.7-1s-2.9,3.1-2.5,5.2c-0.4-0.7-1.3-1.1-2.1-1c-0.8,0.1-1.2,0.8-1.5,1.6c-0.1-1.6-0.3-3.2-1.2-4.6
			c-0.9-1.3-2.5-2.3-4-2c-1.6,0.3-2.9,1.9-2.2,3.3c-2.6-2-6.4-2.5-9.5-1.3c-3.1,1.2-5.4,4.2-5.9,7.5c-0.1-1.7-1.1-3.3-2.5-4.1
			c-1.5-0.8-3.4-1.1-4.9-0.2c0.2-0.9-0.1-2-0.8-2.7c-0.7-0.7-1.8-0.9-2.7-0.6c0.4-1.7-0.2-3.9-1.6-4.9c0.7-1.4,0.5-3.3-0.5-4.5
			c-1-1.3-2.8-2.4-4.4-2.1c0.2-2.6-1.3-5.3-3.7-6.5c-2.4-1.2-5.6-0.6-7.6,1.2c-1-4.5-5.9-7.5-10.6-7.2c-4.6,0.3-8.8,3.2-11.6,6.9
			c-2.8,3.6-4.3,8.1-2.4,12.3c-2-0.7-4.4,1-4.4,3.1c-1-0.5-2.5,1.1-2.1,2.2c-3-1.5-7-1-9.5,1.2c-2.6,2.2-3.4,6-2.4,9.2
			c-1.2-1.4-3.4-2-5.2-1.4c-1.8,0.6-3.3,2.4-3.5,4.3c-0.9-0.7-2.2-0.9-3.2-0.4c-1,0.5-1.9,1.9-2,3.1c-1.6-6.7-10.4-9.5-16.9-7.2
			s-11.7,8.2-16,13.6h7.6c10.6,2.7,21.7,3.4,32.6,2.2c1.3,1.3,3.8,1,5.3,0c0.6-0.4,1.2-1.1,1.9-1.4c1.3-0.5,2.6,0.4,3.9,0.9
			c3.1,1.3,6.9,0.7,9.4-1.5c5.3,4.7,13.8,6.1,19.7,2.2c1,1.1,3.8,0.8,5.3,0.5c1.5-0.3,2.9-0.9,4.4-1c1.7-0.1,3.4,0.5,5,0.9
			c1.7,0.3,3.6,0.3,4.9-0.8c5.4,2.9,12.6,2.7,18.1-0.1c2.8,1.2,6.2,1,9-0.3c1.5,1.6,4.2,1.9,5.9,0.6c1.2,1,3.2,0.9,4.4-0.1
			c7.3,3.8,16.9,3.4,24.2-0.4c4.6,2.7,10.9,3.2,15.9,1.3c0.9-0.4,1.8-0.9,2.5-1.6c0.8,0.4,1.7,0.6,2.9,0.2c2.9-1,5.4-3.4,6-6.5
			C385.5,95.1,383.9,91.7,381.1,90.5z"/>
		<path id="XMLID_3637_" class="st51" d="M1018.4,913.6c-5.4-3-10.9-6-16.9-6.9c-6.1-0.9-13-0.2-16.6,4.8
			c-8.2-5.1-19.7-5.4-28.6-1.7c-1.7-5.1-9.2-7.5-13.9-5c0.5-5.5-2.9-11.2-8-13.3c-5.1-2.1-11.6-0.6-15.1,3.7c-1.3-1.9-3.8-2.8-6-2.2
			c-2.2,0.6-3.2,1.3-3.4,3.6c-3.1-6.8-8.7-12.6-15.7-15.3s-15.5-1.6-21.2,3.2c-5.7,4.8-8.5,13.2-5.1,19.9c-4.7-5.7-12.1-9-19.5-8.5
			c-7.3,0.4-14.6,4.9-18.5,11.1c-3.2-3.9-9.5-4.7-13.6-1.7c-1.7-3.7-7.1-4.8-9.9-1.9c1.4-4.4,0.3-9.6-2.9-13
			c-3.2-3.4-7.1-4.1-11.6-2.9c0.4-2.7,0.9-5.4,0.3-8c-0.6-2.6-2.4-5.2-5-5.8c-2.6-0.6-4.1,1.1-4,3.8c-4.1-6.9-12.3-11.2-20.3-10.8
			c-8,0.5-15.6,5.7-19,13c-2.4,5.4-2.3,11.5-0.1,16.9c-1.4-2.1-3-3.9-5.1-5.3c-3.8-2.5-9.6-2.6-12.5,0.9c-1.9,2.4-2.1,5.9-1.2,8.8
			c0.9,2.9,2.4,5.8,4.2,8.3c-1.3-2.1-3.9-3.3-6.3-3.1c-2.5,0.2-4.6,1.6-5.6,3.9c-2.9-2.2-6.8-1.7-10.4-1.2
			c-12.9,2-25.3,5.7-38.1,7.2l-0.2,0c0,0,0.1,0,0.1,0c-3.4,0.4-6.9,0.6-10.4,0.6h19.2c35.6,2.4,71.2,3,106.9,1.7
			c11.4-0.4,22.8,3,33.9,0.1c26.2,8.9,55.4,8.8,81.5-0.4c17.1,4,34.8,5,52.3,3.2c11.3-1.2,22.7,2.4,32.8-2.9
			c6.1,2.4,13.3,2.3,19.1-0.9c3.9,2.5,13.4-0.8,32-0.8C1029.4,914.8,1024.4,916.9,1018.4,913.6z"/>
	</g>
</g>
<g id="menu-expanded">
</g>
<g id="events">
</g>
<g id="tagline">
</g>
<g id="Layer_2" class="st1">
	<g class="st2">
		<text transform="matrix(1 0 0 1 456.631 411.4336)" class="st13 st243 st244">Accomodation</text>
	</g>
	<rect x="329.3" y="456" class="st245" width="478" height="213"/>
	<text transform="matrix(1 0 0 1 329.2572 477)" class="st2"><tspan x="0" y="0" class="st29 st246 st247">Lorem ipsum dolor sit amet, consec</tspan><tspan x="420" y="0" class="st29 st246 st247">-</tspan><tspan x="0" y="33.6" class="st29 st246 st247">tetuer adipiscing elit, sed diam nonum</tspan><tspan x="448.1" y="33.6" class="st29 st246 st247">-</tspan><tspan x="0" y="67.2" class="st29 st246 st247">my nibh euismod tincidunt ut laoreet </tspan><tspan x="0" y="100.8" class="st29 st246 st247">dolore magna aliquam erat volutpat. Ut </tspan><tspan x="0" y="134.4" class="st29 st246 st247">wisi enim ad minim veniam, quis nos</tspan><tspan x="431.8" y="134.4" class="st29 st246 st247">-</tspan><tspan x="0" y="168" class="st29 st246 st247">trud exerci tation ullamcorper suscipit </tspan></text>
	<g class="st2">
		<text transform="matrix(1 0 0 1 1303.9648 411.4336)" class="st34 st243 st244">Bus Routes</text>
	</g>
	<rect x="1163.3" y="456" class="st245" width="478" height="213"/>
	<text transform="matrix(1 0 0 1 1163.312 477)" class="st2"><tspan x="0" y="0" class="st29 st246 st247">Lorem ipsum dolor sit amet, consec</tspan><tspan x="420" y="0" class="st29 st246 st247">-</tspan><tspan x="0" y="33.6" class="st29 st246 st247">tetuer adipiscing elit, sed diam nonum</tspan><tspan x="448.1" y="33.6" class="st29 st246 st247">-</tspan><tspan x="0" y="67.2" class="st29 st246 st247">my nibh euismod tincidunt ut laoreet </tspan><tspan x="0" y="100.8" class="st29 st246 st247">dolore magna aliquam erat volutpat. Ut </tspan><tspan x="0" y="134.4" class="st29 st246 st247">wisi enim ad minim veniam, quis nos</tspan><tspan x="431.8" y="134.4" class="st29 st246 st247">-</tspan><tspan x="0" y="168" class="st29 st246 st247">trud exerci tation ullamcorper suscipit </tspan></text>
	<text transform="matrix(1 0 0 1 760.0247 222.4414)" class="st248 st249 st250">Hospitality</text>
</g>
<g id="sponsors">
</g>
<g id="Isolation_Mode">
</g>
</svg>
