<svg enable-background="new 0 0 1920 1080" viewBox="0 0 1920 1080" xmlns="http://www.w3.org/2000/svg"><path clip-rule="evenodd" d="m822.7 703.6c-.3-.6-1.1-1.2-1.8-1.4-1.3-.4-2.7-1-4.1-.9-2.5.2-4.5-.5-6.2-1.8-2.2-1.5-5.3-2-6.9-4.1-2.6-3.4-6.9-4.8-10.8-6.6-1.8-.9-3.7-1.2-5.7-1.2-6.9.2-13.6-.8-20.2-2.2-.8-.2-1.7 0-2.5.2-1.1.3-2 .8-3.1 1.2-.8.3-1.6 0-1.9-.8-.5-1.1-.8-2.3-1.5-3.3-.5-.7-1.6-1.7-2.5-1.8-3.9-.2-6.8-2.1-10.2-3.3-2.6-.9-5.3-1.6-8.2-1.7-2.5-.1-4.5.3-5.7 2.2-.1.2-.4.4-.7.4-.6 0-.7-.4-.6-.9.1-.4.3-.9.4-1.4.5-1.9-.9-3-2.2-3.4-2.1-.7-4.2-1.2-6.4-1.7-.1.4-.2.8-.3 1.2h.1l.3.2-.4-.1v-.1c-2.4-.3-4.7-.2-6.6 1.3-.7-1.1-1.9-1.2-3.2-1.3 1.8-1.5 4.1-2.3 6.5-2.8.6-1.8 1.2-3.5 1.7-5.3.3-1.1.2-2.3-.8-3.3-1.1-1.1-1.7-2.4-2.9-3.4-2.3-2.1-4-4.5-4.6-7.4-.3-1.4-1.1-2.7-2.3-3.7-4.6-3.8-9.1-7.8-16-8.8-.8-.1-1.6-.4-2.4-.8-2.9-1.2-5.9-1.4-9.1-1.4-3.1.1-6.2 0-9.4-.1-.8 0-1.7-.3-2.4-.6-2.9-1.4-5.2-3.6-8.8-4.2-.4-.1-.8-.6-1-1-.4-1.1-1-2.2-2.1-3-1.8-1.5-3.5-3.1-5.5-4.4-1.3-.9-2.9-1.5-4.5-2-1.3-.4-2.8-.3-4.2-.4-.9-.1-1.6-.5-1.6-1.3.1-2.2-1.3-3.5-3.6-4.3-2.1-.7-4.2-1.5-6.2-2.4-.7-.3-1.6-.8-1.7-1.3-.3-.8.9-.9 1.6-1.1.3-.1.5-.1.8-.2.6-.2.8-.6.6-1-.1-.2-.4-.3-.7-.4-2.5-.7-5.1-.4-7.6-.3-1.5.1-2.7-.4-3.7-1.3-.4-.4-1.2-.2-1.5.3-.4.6-.4 1.5-.9 1.9-2.6 1.9-6.8 3.4-10.1 1.3-2-1.2-4.1-1.3-6.5-1.1-2.5.2-5.1.3-7.6.4-1.2 0-2-.4-2.5-1.5-.1-.2-.1-.5-.2-.7-.4-1.5-1.5-2.5-3.3-2.8-1.1-.2-2.2-.4-3.3-.5-2.2-.2-3.6-1.2-4.2-2.9-.2-.7-.8-1.2-1.8-1.3-.9-.1-2.3.6-2.8 1.4-.2.4-.5.9-.5 1.3-.1 1.6-1.2 2.5-3 3-1.4.3-2.6.9-3.9 1.3-.8.3-1.4 0-2-.8-.4-.6-.9-1.3-.1-1.9 1.2-1 2.4-1.9 3.6-2.9.6-.5.1-2-.8-2.4-.7-.3-1.6-.5-2.4-.4-2 .3-3.8 1-5.2 2.2-1.8 1.5-4 2.7-6.5 3.2-2.7.6-5.6.5-7.9 2.2-.3.2-1.1 0-1.7 0-1.9-.2-3.3.6-4.5 1.6-1.5 1.4-3 2.9-3.3 4.8-.3 1.8-1.1 3-2.9 4-1.6.9-3.2 2-4.5 3.2-.6.6-.8 1.5-1 2.4h.1v.4l-.2-.3c0-.1 0-.1.1-.2-.5-.1-1-.2-1.4-.4-1.5-1.1-3-2.2-4.4-3.3-1.9-1.6-4.2-2.3-6.7-2.8-3.4-.6-6.7-.6-9.9.9-1 .5-2.1.8-3 1.2-2.3 1.1-4.6 1.8-7.1.5-4.7-.4-7.6-2.9-10.1-5.7-1.5-1.6-2.8-3.5-4-5.3-.4-.6-.6-1.3-.7-2-.1-2.3-.1-4.6 1.8-6.7.6-.7.9-1.7 1-2.6.1-2.4.8-4.5 1.7-6.8.8-2.2.6-4.6.7-6.9 0-.4-.4-.9-.9-1.1-1-.4-2.1-.7-3.1-1 .1.1.1.1.2.2l-.5.1.3-.3c-1.8-1.4-3.8-2.4-6.5-2.5-2.5-.1-5.1-.3-7.6-.8-2.9-.6-5.5.7-8.4.6-2.2-.1-4.5.3-6.8.3-1.4 0-2.8-.3-4.2-.5-.7-.1-1-.7-.5-1 2.6-2.1 3.8-4.5 3.5-7.6-.1-1.4.3-2.8.5-4.2.1-.7.6-1.3 1.6-1.4 2.1-.1 3.1-1.1 3.4-2.6.4-1.6.9-3.2.7-4.8-.2-2.3.7-4.1 2.5-5.7 1.1-1 2.2-2.2 3.1-3.3.5-.6.7-1.3 1-1.9.5-1.2-1-3-2.6-3.1-3.4-.1-6.8-.5-10.1.6-2.7 1-5.5 1.1-8.3 1.2-2.6.1-4.2 1.2-5.2 3.1-.6 1.1-1.1 2.1-1.5 3.3-1.1 3.4-2.6 6.6-6 9-1 2.8-3.1 2.7-6 1.8-1.2-.4-2.8-.2-4.2.1-2.7.6-5.3 1.6-8.1 2.1-2.2.4-4.5.5-6.3-1.2-1.3-1.3-3.1-2-5-2.5-2.3-.6-3.8-2.1-4.7-3.8-1.2-2.4-2.7-4.6-4.8-6.6-1-.9-1.4-2-1.7-3.2-.4-2.1-1-4.1-1.3-6.2-.2-1.4-.4-2.8-.3-4.2.3-4.9.9-9.8 2.2-14.6.2-.9.5-1.9 1.2-2.6 2-1.9 2.5-4.1 2.2-6.5-.4-3.3.5-6.5 1.8-9.6 1.2-2.8 3.4-5.2 6.9-5.7 4.1-.6 7.6-1.9 10.5-4.1 2.2-1.7 5.1-1.9 7.6-2.8 2.1-.7 4.5-.3 6.7.4 1.6.5 3.4.8 5 .2 1.9-.7 3.6-.4 4.5.9 2 2.8 5.1 2.7 8.2 2.3 1.6-.2 3.1-1 4.6-1.5.4-1.3 1-2.6 1.2-4 .1-1.5 1.3-2 2.6-2.3 1-.3 2.2-.3 3.3-.5 4-.6 7.9.3 11.9.1 4.5-.2 8.4.6 11.5 3.5 1 1 2.6.8 4 .4 1-.3 2.1-.8 3.1-1.1 1.2-.3 2.4-.1 3.1.7 1.8 1.8 3.6 3.6 5.3 5.5.9 1 1.1 2.1.5 3.3-.3.7-.5 1.4-.8 2-.8 1.4-.8 2.7.5 3.9 1.2 3.9 3.8 7.2 5.6 10.9.8 1.7 2.5 3.1 4 4.5 1.3 1.3 4.1 1 5.2-.4 2.1-2.8 3.4-5.9 3.7-9.3.1-.5.1-1-.1-1.4-.7-1.8-1.6-3.5-2.1-5.3s-.5-3.7-.8-5.5c0-.2-.1-.5-.3-.7-2.6-5.4-2.3-11-1.6-16.6.1-.9.4-1.9 1.1-2.6 3-2.8 5.8-5.9 10.5-6.8.6-.1 1.1-.3 1.6-.5 1.7-.4 3-1.4 4.1-2.4.9-.9 1.7-1.9 2.6-2.8.8-.7 1.6-1.5 2.6-1.7 2-.5 3.5-1.5 5-2.6 2.3-1.8 4.9-3.1 8.1-3.7 1.5-.2 2.4-1.2 2.5-2.5 0-.9.8-1.1 1.5-1.5.9-.5 1.9-1 2.7-1.7.6-.5 1.1-1.2.6-1.9-.8-1-1.4-1.8-.6-3.2 1-1.7 1.4-3.5 0-5.4-.4-.6-.7-1.3-.7-2 .1-2.1.4-4.2.6-6.2 0-.1.4-.3.7-.3.2 0 .5.1.7.2 1.3.9.9 2.1 1 3.2 0 .3.6.7 1 .9.1.1.6-.1.7-.3 1.5-1.7 3-3.4 4.3-5.2.6-.8.7-1.8.9-2.7.1-.7 0-1.4.1-2.1 0-.6.5-.8 1.2-.8 1.6.1 2.6-.7 3.6-1.6 2.4-2.1 4.3-4.5 4.8-7.3.5-2.5 2.2-3 4.7-3.1 1.7-.1 3.4-.4 5-.7.8-.2 1.5-.6 2.2-.9.2-.1.4-.4.4-.6s-.2-.5-.4-.6c-.5-.2-1.1-.3-1.6-.4-.8 0-1.1-.3-.9-.7 0-.1.5-.1.8-.1h.8c4.9.6 9.4-1.4 14.3-1.3.7 0 1.5-.7 2.1-1.1 1.8-1.1 1.7-1.6-.4-2.8-1.6-.9-2.5-2.3-2.1-3.4.6-1.6 1.1-3.2 2-4.6 1.5-2.6 3.7-4.7 7-5.8 1.8-.6 3.7-1.2 5.2-2.4 1.1-.9 2.5-1.3 3.9-1.2 3.8.3 7.2-1.2 10.8-1.7 1.3-.2 1.5-1.1 1.9-2 .2-.6 1.1-1.2 1.8-1.3 2.7-.6 5.5-1 8.3-1.5.2 0 .7.2.7.2-.1.4-.2 1-.5 1.1-1 .4-2.1.7-3.1 1.1-2.4 1-4.2 2.4-5.2 4.5-.4.8-.6 1.9-.4 2.7.3 1.4 1.4 2.6 2.9 3.3.4.2 1.2.4 1.6.2 3.4-1.2 6.6-2.8 8.8-5.3 1.3-1.5 2.8-2.2 5-1.8 4.3-1.2 8.6-2.3 12.9-3.5 1.3-.4 2.7-.8 4-1.1.7-2.5 3.7-1.7 5.5-2.7.7-.4 1.6-.6 2.3-.9.5-.2.9-.5 1.4-.8s.9-1.6.5-1.9c-1.8-1.3-3.3-2.6-2.2-4.8.1-.2-.2-.4-.3-.7-.2-.5-1.7-1-2.2-.6-2.8 2-5 4.4-7.1 6.9-.8 1-1.5 1.2-2.7.9-.8-.2-1.6-.3-2.5-.4-.3.5-.8.8-1.5.6-.6-.1-1.2-.4-1.8-.7-.8-.1-1.6-.2-2.4-.3-2-.1-2.7-1.1-2.9-2.6-3.1-.2-4.7-1.6-5.1-4.3-.4-2.4-.5-4.5.8-6.7.5-.9-.1-1.6-1.6-1.9-.5-.1-1.1-.1-1.7-.1-.3 0-.5-.2-.7-.3.5-.1 1-.3 1.5-.4 2.1-.7 4.1-1.5 5.8-2.8.9-.7 1.4-2.2.7-3.2-.5-.8-1.1-1.7-2-2.2-2.3-1.4-5.1-2.2-8-1.6-7.5 1.6-15.3 2.8-21.8 6.6v.3c-.2 0-.3 0-.5.1-.9.8-1.8 1.6-2.8 2.4 0 .1 0 .2-.1.4-1.2.4-2.5.8-3.7 1.1-.7.4-1.3.9-2 1.3l-.2.4.2-.5c.6-.4 1.2-.8 1.8-1.3 1.2-.4 2.4-.7 3.7-1.1.1-.1.2-.2.3-.3.3-1.9.5-2.1 2.8-2.4.1-.1.2-.1.3-.2.1 0 .1-.1.2-.1-.1-1.2.6-2.1 1.6-2.8 2.8-2 6-3.5 9.5-4.5 2.2-.6 4.2-1.3 5.2-3.3.2-.4.6-.8 1-1.1 1.7-1.2 3.3-2.6 5.2-3.6 1.8-.9 3.9.1 5.8.1 7.9.1 15.8 1 23.6 1.9 3.4.4 6.7-.9 10.1-.4.8.1 1.7-.2 2.5-.4s1.6-.5 2.3-.8c2.2-1 4.2-2.3 5.7-4.1 1.2-1.4 2.9-2.1 5-2.4 1.4-.2 2.8-.5 4.2-.5 4.2-.1 7.5-1.9 10.7-3.8 1.7-1 2.7-2.5 1.8-4.3-.6-1.1-.8-2.1-.1-3.3.5-.8.9-1.7 1.1-2.6.1-.6 0-1.5-.4-2-1.3-1.8-3.1-3.2-6-2.9l-.5.2.4-.3h.1c-.1-.7-.2-1.4-.4-2-.4-1.2-1.3-2.1-2.9-2.3-.8-.1-1.7-.1-2.5-.2-.3 0-.5-.1-.8-.2.3-.2.6-.5 1-.7.8-.3 1.6-.4 2.4-.7 1-.4 1.2-1.5.5-2.4-.8-1-1.6-1.9-3.3-1.8-.5 0-1.4.1-1.7-.1-2-2.2-5.1-2.8-7.8-4-.5-.2-1-.6-1.1-1-.6-2.5-2.9-3.9-5-5.5-1-.8-1.8-1.8-2.7-2.7s-.9-1.8-.1-2.5c1-.9 2-1.7 3-2.5.9-.8 1-1.7.3-2.5-1.3-1.6-2.1-3.2-1.6-5.2.1-.5-.6-1.3-1.2-1.7-1.1-.8-.3-2.3-1.8-3-1.1-.6-.1-1.7-.5-2.6-.4-1.1-.2-2.3-.4-3.4-.3-1.4-.7-2.8-1.3-4.1-1.4-3.1-2.1-6.3-2.6-9.5-.1-.9-.3-1.9-.6-2.8-.1-.3-.8-.5-1.3-.7-.2-.1-.7 0-.8.2-2.1 2.8-4.8 5.2-6.5 8.1-1.7 3-3.8 5.7-7.8 7-1 .3-1.7 1.2-2.7 1.7-1.2.6-2.5 1.1-3.8 1.5-1.5.5-2.7 0-3.9-.8-.9-.6-1.6-1.3-1.9-2.2-.5-1.2-1.5-1.9-2.8-2.5-1.8-.8-2-2.2-1.9-3.6.2-2.3 2-4.4.8-6.8-.2-.5.5-1.3.8-1.9 1-2.2 1.9-4.4 3.5-6.3.4-.5-.1-1.6-.9-1.7-2.5-.3-4.1-2.3-6.9-2.3-1 0-2-.8-3-1.2-.9-.4-1.1-1-1.1-1.7s.3-1.4-.4-2c-1.5-1.4-2.7-3-3.4-4.8-.4-1.1-1.4-2-2.3-2.9-1.5-1.6-3.2-2.6-5.8-1.7-1 .3-2.3.5-3.3.3-3.3-.6-6.8-.5-9.6-2.4-1.1-.7-2.6-1-3.9-1.3-3.3-.8-7 .9-8.2 3.6-.7 1.6-.9 3.2.2 4.7.8 1.1 1 2.2 0 3.3-1.3 1.5-3.1 2.9-3.9 4.5-1 1.9 1.2 4 .6 6.1-.2.9 0 1.9.4 2.8.7 1.7-.4 2.6-2 3.4-.7.4-1.8.6-2.1 1.2-1.6 2.9-4.7 4.6-7.1 6.9-1.2 1.1-1.2 2.5 0 3.8.8.9 1.9 1.8 2.6 2.8.6.8 1.2 1.6 1.4 2.5.6 2.5.8 5.1 1.4 7.6.7 2.8-1.8 5.5-.5 8.3.1.2-.4.8-.8 1.1-1.1.7-2.5 1.2-3.5 2-3.5 2.9-7.7 4.8-12.2 6.3-2.1.7-4.2 1.4-6.3 2.1-1.5.5-2.2 1.5-2.1 2.7.1 2.8.5 5.6-.1 8.4-.4 1.8-.7 3.7-.7 5.6-.1 1.8.3 3.7.3 5.5 0 .7-.1 1.4-.4 2-.7 1.3-1.6 2.5-2.4 3.7-.2.3-.9.7-1.3.6-2.1-.4-3 .9-4.4 1.7-.8.5-2.6.2-3-.5-.4-.6-.6-1.3-1-1.9-.6-1.1-.8-2.4-1.8-3.1-2.9-2.1-3.8-5.2-5.7-7.7-.7-.9-.5-1.8.1-2.6 1.9-3.2 3.7-6.3 3.5-10-.1-1.1.8-2.2 1.2-3.3s.8-2.2 1.2-3.3c.2-.5-.6-1.7-1.1-1.7-4.5-.3-8.8-1.8-13.4-1.7-1.1 0-2.2-.4-3-1.2-2-2.3-4.6-4.1-7.8-5.3-2.9-1.2-5.1-2.9-6.6-5.3-1.6-2.6-4.1-4.5-7.1-5.9-2.7-1.3-5.4-2.6-8.1-3.8-1.3-.6-2.7-.8-4.1-.5-2.4.5-4.6 1.4-7.2 1.1 0 .1-.1.1-.1.2l-.3.2.1-.4h.3c1.3-1.7 2.3-3.5 2.1-5.7-.3-2.5-.2-5.1-.3-7.7 0-.9-.2-1.9-.5-2.7-.1-.4-.7-.8-1.2-.9-1.1-.2-2.2-.2-3.3-.3-1.3-.1-2.1-.6-2.4-1.5-.2-.7-.4-1.4-.2-2 .4-1.3 1.3-2.6 1.6-4 1.5-5.8 4.3-11 10-14.9 1.3-.9 2.2-2.1 3.2-3.2 3.1-3.3 5.8-6.9 11.1-8.3 2.2-1.7 5-3 5.8-5.7.2-.7.9-1.2 1.9-1 1.1.2 2.2.4 3.3.5 2.7.1 5-1.6 5.1-3.7 0-1.1-.1-2.2-.2-3.3-.1 0-.2 0-.2 0-.1-.1-.3-.2-.4-.3.2 0 .4.1.6.1v.2c3.8.2 7-.5 8.6-3.9.3-.7 1.3-.9 2.1-.6 1.3.4 2.6.9 3.9 1.3 1.4.4 2.8.4 4-.4 4.3-3.3 8.6-6.6 12.9-10 .3-.3.5-.9.5-1.3-.1-1 .3-1.8 1.2-2.4 2-1.3 3.9-2.6 5.8-3.9.5-.4 1-.9 1.6-1.3 0 0 .1-.1.1-.1.4-.3.7-.6 1.1-.9 2.2-1.7 2.2-1.8.7-4.1-.1-.2-.3-.4-.4-.6-.3-.5 0-1 .6-1.1 2.6-.3 5.1-.4 6.2 2.2.1.2.4.4.6.4 4.1 1.4 8.1 1.8 12.3.2 2.8-1.1 5.5-2.4 7.8-4.2.8-.6 1.8-1.3 2.8-1.5 2.3-.4 3.2-1.8 4.2-3.2.8-1 1.1-2.2.6-3.3-.3-.9-.6-1.8-1.1-2.7-.8-1.4-.8-2.6-.3-4.1.5-1.3.7-2.7 1-4-.1 0-.1 0-.2 0l-.4-.1.6.1v.1c1 .1 2.1.4 3.1.3 3.2-.2 4.3-1.1 4.5-3.8.1-1 .2-1.8.9-2.5 1.4-1.3.4-2.5-.4-3.6-2.2-.7-3.4-2-3.3-4 0-1.6-.8-2.5-3-2.4-1.7 0-2.1-1-2.3-2.1-1.9.1-3.6-.4-5.1-1.4v-.1c-.1 0-.1 0-.2 0l.3.2c-.5.1-1.1.4-1.6.3-2.6 0-4.2 1-4.8 3.1-.6 2-2.2 3.8-1.4 6 .2.5.2.9-.3 1.3-1 .8-2 1.6-2.9 2.4-2.7.2-3.7 1.8-4.6 3.5-.6 1-1.3 2.1-2 3-.6.8-1.6 1.1-2.8 1.2 0 .1.1.1.1.2-.1.1-.2.2-.3.3.1-.2.1-.3.2-.5h.1c-.4-.8-.7-1.6-1.9-1.9-1-.2-1.8.8-2.3 2.5-.3.9-.3 1.8.1 2.7.5 1 0 1.8-.7 2.6-.5.7-2.1 1.2-3 .9-.7-.3-1.6-.8-1.8-1.3-.6-1.3-.8-2.7-1.1-4.1-.4-2.7.2-5.1 2.9-6.9.9-.6 1.2-1.5 1.4-2.5.6-3.2-.7-6-2.5-8.7-.3-.5-1.7-.5-2.3 0-1.7 1.6-3.5 3.1-4.3 5.2-.4 1.2-1.4 2-2.5 2.7-.2.1-.5.3-.8.3-.6 0-1-.3-.8-.8.9-2.2 1.7-4.4 1.4-6.8-.2-1.3 1.1-1.3 2.1-1.7 1.6-.6 1.7-1.9.4-2.7-1.3-.9-2.6-1.9-4.4-2-1.5-.1-2.6-.7-3.8-1.4-.6-.4-.8-.7-.4-1.2 1.5-1.4 3-2.7 4.6-4.1.3-.3 1-.3 1.5-.4 2.1-.6 2.6-1.1 2.3-2.3-1.3-4.4-2-8.7.1-13.1.3-.6.3-1.4.1-2.1-1.1-2.7-.7-5.6-2.2-8.2-.6-1 0-1.7 1.1-2.3 2.1-1.2 4-2.6 6.1-3.8 1.5-.9 2.2-2.1 2.4-3.6.1-.4.3-.9.6-1.3.3-.3 1-.7 1.3-.6 1.3.4 2.6.9 3.8 1.5 1.7.8 3.3.5 4.8-.3.9-.5 1.9-1.1 2.7-1.7 3.9-3 7.8-6.1 11.7-9.2.8-.6 1.4-1.5 2-2.2.8-1 0-3.2-1.3-3.7-.3-.1-.5-.3-.8-.3-3.5-.2-6.3-1.7-9-3.4-.9-.5-2-.9-3.1-1-2.5-.4-5.1-.5-7.6 0-.8.1-1.7.5-2.2.9-1.3 1.2-2.1 2.8-4.2 3.2-1 1.4-2.1 2.8-3.1 4.2-1.5 2.2-3 4.5-4.4 6.8-.7 1.2-1.5 2.6-1.5 4 0 3.2-1.8 5.8-3 8.7-.3.7-.8 1.1-1.5 1.6-1.7.9-3.2 1.9-4.9 2.8-1.4.8-1.2 1.9-1.1 3h.2v.3c.1.1.2.1.3.2-.2.2-.3.1-.3-.2-.1 0-.2-.1-.2-.1v-.1c-1.3.3-2.7.4-3.7.9-3.7 2-5.9 4.9-6.5 8.5-.3 1.4-.5 2.7-1.9 3.7-.4.3-.8.7-1.2 1-1.3 1.3-1.9 2.8-1.6 4.5.2 1.6.5 3.2 1.8 4.5.6.6.9 1.5 1.3 2.3.7.2 1.5.3 2.1.6 1.7.8 3.2 1.8 4.8 2.7.2.1.5.3.5.5 0 .4-.4.6-1.1.7-.8.1-1.7.2-2.2.7-1.3 1.2-2.4 2.5-3.6 3.8-.7.7-.3 1.6 1.1 2.2.4.2.9.2 1.4.3v-.1l.7-.2-.4.3c-.1 0-.1 0-.2 0 .2.9.2 1.8-.6 2.5-1.4 1.2-2.8 2.3-4.4 3.3-1.7 1.2-3.6 2.2-6.1 2.2-3.2 0-4.4 1.8-5.1 4-.5 1.6-.6 3.2-1 4.8-.1.3-.5.6-.7.9-.2-.2-.4-.3-.6-.5-.6-.8-1.3-1.5-1.9-2.3-1-1.3-1-1.9.1-3.1 1.5-1.7 3-3.4 4.5-5 .4-.5 0-1.6-.8-1.7-2.9-.2-3.7-1.7-4-3.8-.2-.2-.5-.4-.7-.6.2.2.5.4.7.6.1.1.2.1.3.2l-.3-.2c1.1.2 2.2.4 3.3.7s2.2.4 3.3 0c1.8-.7 3.6-1.3 5.4-2 .4-.2.8-.7.8-1.1 0-1.6-.2-3.2-.3-4.9-.1-1.3-.1-1.5 1.8-1.7 2.7-.4 2.7-1.9 2.8-3.4-.5 0-.9 0-1.4 0-3.8.2-6.6-.9-7.9-4-.2-.4-.5-.8-.8-1.2-.4-.4-1.8-.6-2.3-.3-1 .8-2.2 1.5-3 2.4-2.2 2.5-4.7 4.5-8.7 4.9-.5.1-1 .4-1.5.7-.2.1-.4.3-.6.5-.6.4-.6 1.5 0 1.9 2.9 1.8 6.1 3.3 7.6 6.3l-.3-.2c.1.1.2.1.2.2-1.4.2-2.7.6-4.1.6-1.5 0-2.6.1-3.4 1.4-.4.8-1.4 1.4-2.2 2-.6.5-1.2.9-1.2 1.7 0 .7 0 1.4-.9 1.8-1.1.5-2.2.4-3.3 0-1-.4-2-.8-3.1-1.2-1.9-.6-3.8-.9-5.8-.2-.7.3-1.6.4-2.4.5-1.1.2-2.3 0-3.3-.4-1.8-.8-3.6-1.6-4.4-3.1-1.1-2.2-3.2-3.1-5.9-3.6-1.1-.2-2-.9-2.4-1.9-.8-2.2-2.3-4.3-1.8-6.7.1-.7 0-1.4-.1-2.1-.2-1.6-2.3-3.2-4.1-2.9-3.9.5-7.8 1-11.8 1.2-1.7.1-2.9 1.3-3.6 2.7-.5.9 0 2.3 1.3 3.1.7.5 1.5.6 2.4.2.5-.2.9-.7 1.4-.8 1.7-.3 3.4-.3 5-.6s3.2-.9 4.8-1.3c.3-.1.8.4 1.1.7.1.1-.2.5-.4.6-1.6.5-3.3.8-4.6 1.6-1.9 1.1-3.9 1.9-6.2 2.2-1.1.1-2.2.5-3.2.9-1.6.5-2.9 1.4-3.4 2.9-.8 2.2-1.5 4.5-1.8 6.8-.1.6-.6 1.3-1.2 1.8-.6.4-1.6 1-2.1.8-1-.3-.5-1.2-.1-1.8.8-1.1.7-2.2 0-3.3-.9-1.5-1.7-3-2.5-4.4-.7-1.3-1.5-2.5-2.3-3.8-.4-.7-2-1.4-2.8-1.2-1.1.2-2.2.5-3.3.7-8.5 1.6-16.3.2-23.2-4.3-.5-.3-.5-1.3-.1-1.9.9-1.3 2.1-2.2 4-2.2h2.5c3.6 0 5.2-1.5 4.5-4.3-.3-1.3-1-2.7-1.8-3.9-1.1-1.8-3.1-3-5.5-2.8-3.1.3-5.5-.7-7.8-2.1-3.1-2-6.1-4.2-9.3-6.1-2.2-1.3-3.9-2.7-4.3-5-.5-2.9-3-4.3-6-5.4-2.7-.9-4.9-.7-6.8 1.2-.7.7-1.6 1.4-2.6 1.8-.7.3-1.6.3-2.4.4-.9 0-1.9-.9-1.4-1.4 2.2-2.3 2.8-5 3.3-7.7 0-.2-.2-.4-.4-.5s-.5-.3-.7-.2c-.8.3-1.6.5-2.2 1-2.4 1.6-4.7 3.3-7.1 5-.4.3-1.1.3-1.6.2-.4-.1-.9-.6-1-1-.4-1.9-.3-3.7.3-5.6 1.1-3.2 1.2-6.5 1-9.7-.1-.7-.3-1.4-.7-2-.1-.2-1.1-.3-1.4-.2-1.3.7-1.7 1.8-1.8 3s-.7 2.2-2 2.9c-1.7.8-3.4 1.7-5.1 2.5-1.1.5-2.2.2-3.1-.5-.3-.3-.7-.5-1.1-.8-.2 0-.4 0-.6.1-.5.3-.9.6-1.4.8-.2.1-.6.1-.8 0-.6-.3-.4-.5.5-.6.6 0 1.1-.1 1.7-.2.2-.1.3-.2.5-.3.1 0 .1.1.2.1.2-.7.5-1.3.7-2 .2-.8-.3-1.5-1-1.7-1.9-.5-3.9-.8-5.8-.2-4.2 1.4-8.4 2.5-13 2.7-1.3 0-2.9.4-3.9 1.1-2.4 1.6-5.1 1.5-7.8 1.2-.1 0-.1.1-.2.1l-.2.3.2-.5h.2c.1-.1.3-.2.4-.4.8-.8.9-1.6.1-2.5-.7-.8-1.4-.9-2.9-.2-1 .4-1.8 1-3 1.1-1.9.2-3.9.6-5.7 1.1-2.2.7-3.9 1.8-4.3 3.9-.2.9-1.1 1.2-1.7.9-1.2-.7-2.3-1.3-3.5-2-1.7-1-2.8-2.2-3.4-3.9-.5-1.6-1.1-3.1-1.8-4.6-.5-1.1-1.2-2-1.8-3.1-1.9-1.7-4.4-2.8-6.8-4-3.6-1.9-7-4-8.5-7.6-.2-.4-.6-.8-.9-1.2-.7-.8-1.6-1.3-2.8-1.4-1.1-.1-2.3-.1-3.4-.1-2.4.1-4.4-.7-6.2-2-2.6-1.8-5.1-3.6-8.5-4.6-1.5-.4-2.8-1.6-4-2.5-1.4-1.1-2.5-2.4-3.4-4s-2.7-2.3-5-2c-1.4.2-2.7.6-4.1.8-.9.1-1.7-.2-2.1-.8-1.3-1.8-1.2-4-2.6-5.8-.2-.2.2-.9.6-1.2.6-.6.9-1.3.6-1.9s-.9-1.2-1.6-1.5c-1.2-.5-2.6-.9-3.9-1.2-.8-.2-1.7-.2-2.5-.3-1.3-.2-1.6-.5-1.3-2 .2-1.2.3-2.2-1.3-2.8v.1c-.2 0-.4 0-.6 0-.8.2-1.6.5-2.5.7-.3.2-.6.3-.9.5-.1 0-.2 0-.2 0-.1.4-.1.8-.3 1.2-.6 1-1.5 1.3-2.7.6-.4-.2-.5-.8-.7-1.2 0-.1.4-.4.6-.4 1-.1 2.1-.2 3.1-.3 0-.1 0-.1 0-.2.4-.1.8-.2 1.1-.3.8-.4 1.5-.7 2.5-.7.2 0 .3-.1.4-.1s.1.1.1.1c-.6-1.8-1.7-3.4-3.4-4.7-.9-.7-1.9-.9-3.1-.6-1.9.5-3.8 1-5.4 2.1-2.5 1.6-5.2 1.7-8.1 1-1.6-.4-3.3-.8-4.9-1.2-2.8-.7-5 .3-6.9 1.8-.6.5-.7 1.3-1.3 1.8-.5.5-1.2 1.2-1.9 1.3-2.2.3-4.4 1.1-6.7.6-3.3-.8-6.3.1-8.9 1.5-5 2.7-10.4 4.9-14.6 8.4-.6.5-1.2 1-2 1.3-5.5 2.6-11.1 5-17.6 2-.2-.1-.5-.2-.8-.3-2.6-.8-4-.5-6 1.4-1.3 1.2-2.3 2.7-3.8 3.8-2.3 1.6-2.9 3.3-1.8 5.5.7 1.5 1 3.2 1.7 4.7 1.9 4.4 2.5 8.6-.5 12.9-.6.9.1 2.4 1.3 3.1 1.4.8 2.9 1.3 4.3 2.1.3.2.3.8.4 1.2 0 0-.5.2-.7.2-.9.1-1.8.3-1.9 1.1-.3 1.8-.4 3.7-.5 5.6 0 .3.7.8 1.2.9.7.1 1.4.1 2.1.1 0-.1.1-.2.1-.3.1 0 .2.1.3.1.1-.4.1-.8.2-1.2h-.1l-.3-.3.5.2v.1c2.4-.5 4.8-.2 7.1.6.6.2 1.1 1.2.6 1.8-.3.3-.8.7-1.2.6-2.4-.1-4.5-1-6.7-1.7v.2c-.1 0-.2 0-.4 0-.3.8-.2 1.8-1.5 1.9-1.7.2-3.3.6-4.7 1.5-1.5 1-3.2.8-4.8.2-1.8-.7-3.5-1.6-5.2-2.4-1.2-.5-1.4-1.5-.8-2.3s1.3-1.5 1.9-2.3c1.2-1.6-.6-3.5-2.5-3.5-2.3 0-4.5 0-6.7.3-1.3.2-3 .7-3.8 1.5-1.3 1.4-2.7 1.3-4.5 1.1-1.4-.1-2.8.3-4.1.5-4 .5-7.1 2.8-10.8 3.9-1.4.4-1.8 1.9-1 2.9 1.3 1.5 2.7 3 4 4.5.5.5.1.9-1.2 1.4-.5.2-1.3.3-1.4.6-.5 2.3-2.1 4.3-2.9 6.5-.3.8-.1 2 .5 2.7 2 2.4 4.4 4.4 8.3 3.8 3.3-.5 6.2-.2 8.8 1.6 1.4.9 2.9 1.1 4.7.4 2.8-1.1 5.7-2.1 8.6-3 .7-.2 1.6.1 2.5.2.2 0 .4.3.5.5s.1.5-.1.6c-.4.3-.9.6-1.4.7-1.5.3-2.7.7-2.2 2.3.2.6.2 1.5-.1 2-1.2 1.9-2.2 3.7-2.6 5.9-.5 2.3-4.7 4.7-7.6 4.7-.5 0-1.1-.2-1.6-.4-1-.5-1.9-1-2.7-1.6-.6-.4-1.1-1.4-1.7-1.4-.9 0-.8 1-1 1.6-1.2 2.7-3.8 4-7.1 4.4-.5.1-1.1-.2-1.5-.5s-.6-.8-1-1.1c-1.5-1.8-3.1-2.2-4.9-1.4-3.2 1.5-6.5 3-7.6 6.3-.1.4-.5.9-1 1.1-5 2.3-8.4 6.2-13 8.9-3.2 1.9-4.1 4.3-3.2 7.4.3 1.1.6 2.3 1 3.4.4 1.2.3 2.4-.8 3.3-2.6 2.1-2.8 4.5-1.8 7.1.6 1.6.9 3.2 1.5 4.8.3 1 1.3 1.6 2.4 1.9s2.3.6 3.3.4c2.2-.4 4.3-.8 6.5-.6 0-.1 0-.1 0-.2.1-.1.1-.3.2-.4 0-.5.1-1 .1-1.4 0-.2 0-.6.1-.7.5-.3.8 0 .5.6-.2.5-.5 1-.7 1.5v.6c-.1 0-.1 0-.2 0-.2 1.1-.6 2.2-.6 3.3 0 1.8-1.1 3.1-2.6 4.2-1.2.9-1.3 2-.6 3.2.6 1 .3 1.8-.2 2.7-.4.6-.9 1.1-1.4 1.7-.6.8-.4 1.4.5 1.6 2.5.7 5 1.2 6.6-1.3.1-.2.7-.3.7-.3 2.2 1.8 5.2 2.9 5.9 5.7.2.8 1.2.8 1.9.2.2-.2.3-.4.5-.6 1.4-1.4 1.4-1.3 4-.5.7.2 1.6.3 2.4.3s1.7-.3 2.5-.4c.3 0 .6 0 .8.1.5.3.5.7-.1 1.1-2.4 1.4-3.8 3.2-5.2 5.4-3 4.8-6.8 9.1-13 11.7-2 .8-3.6 2.1-5.8 2.8-3.4 1.1-6.5 2.9-9.8 4.2-2.1.9-3.8 2-5.1 3.6-.7.9-1.8 1-3 .6-2.6-.8-5.1-.2-7.3 1-1.9 1-3.8 2.1-5.5 3.3-2.9 2.1-6.1 3.4-10 3.5-1.4.1-2.8.3-4.2.4-2.9.2-4.4 1.9-6 3.5-.2.3-.1.9.1 1.3.3.3.9.7 1.3.7.8 0 1.7-.1 2.5-.3 1.7-.6 3.4-.1 5.1-.4 1.1-.2 2.4-.4 3.1-1 1.9-1.7 4.1-2.3 6.8-2.3 3.7-.1 6.4-1.6 8-4.3 0-.1-.1-.1-.1-.2l.5-.2-.3.3v.1c.7.9 1.4 1.9 2.1 2.8.5.7.5.7 1.4-.6.3-.4.5-1.1.9-1.1 2.5-.3 4.8-1.4 7.3-1.1 1.1.1 2.1.5 3.1-.2 1.3-1 2.9-1.4 4.5-1.9 2.5-.9 5.6-1.3 6.7-3.8 1.9-.9 3.8-2 5.8-2.8.6-.3 1.6.1 2.4.2.4-.6.7-1.4 1.3-1.5 2-.4 3.6-1.4 5.4-2 2-.6 3.4-1.6 4.2-3.2.3-.6 1-1.1 1.7-1.5 3.8-2 7.7-4 12.1-4.9 3.3-.7 5.6-1.9 7.5-4.1.8-.9 2.2-1.4 3.4-2 .9-.5 2-.9 3-1.4 1.6-.8 2.1-2.2 1.3-3.6-.4-.6-.9-1.2-1.3-1.8-.6-1-.4-1.8.5-2.5 1.7-1.5 3.7-2.2 6.1-1.8 1.5.3 2.7 0 3.9-.8 1.7-1.2 3.7-2.1 4.2-4.2.3-1.1 1.7-1.8 3.2-1.9 1.2-.1 2.3-.4 2.9-1.3 2.9-4.2 8.1-5.6 12.9-7.5 1.5-.6 3.4.5 3.6 2 .1.7.1 1.4-.1 2.1-.1.3-1 .7-1.2.6-3.3-1.5-6.5-1.2-9.6.5-.7.4-1.5.8-1.8 1.4-1.6 3.4-4.7 5.8-7.5 8.4-1 .9-1.2 2.1.1 3.1.6.5.7.8-.1 1.1-1.5.6-3 1.3-4.5 1.9-.6.3-1 1.4-.5 1.9s1.2 1.2 1.8 1.2c1.4 0 2.9-.2 4.1-.8 2.5-1.2 5.1-2 7.8-2.6 1.1-.3 2.2-.6 3.2-1 2.5-1.1 4.9-2.2 8-1.7.7.1 1.6-.4 2.3-.7 1.3-.5 2.2-1.4 3.1-2.3.8-.9 1.8-.6 2.7.1h1.7c.4-1 .8-1.9-.6-2.8-.8-.5-1.4-1.4-1.8-2.2-.7-1.4-.1-2.6 1.3-3.6.8-.6 1.7-.6 2 .1.6 1.4 1.4 2.4 3.5 2 1.3-.2 2.7-.2 4-.3v-.1l.4-.2-.2.4h-.1c0 .7-.1 1.3.1 2 .7 2.6 1.9 4.9 5.4 5.8 2 .5 3.2 1.9 4.1 3.4.4.6.5 1.3.9 2 .6.8 1.4 1.4 2.6 1.6 1.1.2 2.3.3 3.4.3 2.7 0 5 .7 7 2.2.6.4 1.4.7 2.1 1.1 0 0-.1-.1-.1-.1l.4-.2-.2.3s0 0-.1 0c.5.5.9 1.1 1.5 1.5 1.8 1.6 3.9 2.7 6.8 2 .2-.1.6 0 .8.1.6.2.9.8.5 1.1-1.8 1.5-1.7 2.8 0 4.2.8.7 1.3 1.6 2.2 2 1.3.6 2.4 1.1 2.3 2.5 0 .9.3 1.8.4 2.8.4 2.1 1.6 4 3.3 5.6 1 .9 2.3 1.4 3.8 1.2 1.2-.1 2.1-1 1.9-1.9-.2-.7-.5-1.3-.7-2-.1-.2-.1-.5.1-.7.3-.5.7-.3 1 .3.4.9 1.1 1.7 1.2 2.6.1 1.6 1.3 2.5 2.4 3.6.1.1.3.5.2.6-.3.5-.8.6-1.4.2-.5-.3-1-.5-1.5-.7-1.8-.4-3.6.3-4.2 1.5-.7 1.3-1.3 2.6-.9 4.1.3 1.4.6 2.8.9 4.1l-.2-.2v.4c.1-.1.1-.1.2-.2 1 1.1 1.7 2.3 1 3.7-1 2.2-1.2 4.5-.8 6.9 0 .2.3.6.5.5.5-.1 1.2-.1 1.4-.4 1-1.5 1.9-3 2.8-4.5 0-.2 0-.4.1-.7h.4c.8-.9 1.9-1.1 3.2-1.1 0-.1.1-.1.2-.2h.2c0-.2 0-.4.2-.5 2.3-2.6 4.6-5.1 5.9-8.2.1-.2.9-.2 1.3-.2.2 0 .5.3.5.5 0 .7.1 1.4-.2 2-.6 1.5-1.3 3-2.1 4.5-.6 1.2.2 2 .8 2.9h.4v.4c.7.7 1 1.5 1.2 2.4.1.1.1.1.3.2l.2.3 0-.9c0-.1-.1-.2-.1-.3-1.1-.6-1.1-1.5-1.2-2.4-.1-.1-.1-.2-.2-.3 0-.1-.1-.1-.2-.2-.9-.1-1.9-.2-2.8-.5-1.2-.4-2.5-.5-3.7-.5v.1c-.1 0-.2 0-.3 0-.8 1-2 1.1-3.2 1.1-.1.1-.1.1-.2.2-.1.2-.2.3-.3.5-.2 2 .1 4.1-1 6-.4.7.5 1.7 1.6 2 .4.1.9.1 1.4.2v-.1c.2-.1.3-.3.5-.4.1-.3.3-.6.5-1 .1.2.2.4.1.5-.2.2-.4.3-.6.5-.1.2-.2.4-.3.6-.1 0-.2 0-.3 0-.1.7-.5 1.4-.2 1.9.8 1 1.4 1.9.9 3.2-.4.9-.6 1.8-.8 2.7-.1.7-.5 1.5-.1 2 1.3 1.6 1.1 3.6 2.2 5.2.2.3.9.6 1.3.6.5 0 1.1-.3 1.3-.7 1.1-2 2.4-4.1 2.4-6.4-.1 0-.1 0-.2 0 0-.1 0-.2-.1-.4-.2-.1-.3-.2-.5-.3.2 0 .4.1.4.1v.2c.1.1.2.1.3.2v.2h1.6c0-.1-.1-.1-.1-.2.1-.1.2-.2.4-.3-.1.2-.1.3-.1.5h-.1c.6.8 1.2 1.6 1.8 2.5.1 0 .1-.1.2-.1 0 .2.1.4.1.5.2.3.4.6.5.9 0 .6-.3.6-.4 0-.1-.2 0-.5 0-.7v-.1c-.1-.1-.2-.2-.3-.4-1.3.6-1.5 1.6-1.3 2.8.2 1 .9 1.7 1.9 2.2.7.3 1.6.3 2.4.4 1.1.2 1.4.8.8 1.4-1.5 1.4-2.7 2.9-2.8 4.9 0 .9-1.2.8-2 1.1-1.1.4-1.2.9-.5 1.5 1.9 1.7 1.8 2.5-.6 3.4-.6.2-1.1.3-1 .9.4 1.6 2.1 2.7 3.5 2.3 1.9-.5 3.7-1.3 5.7-1.2.3 0 .7.1.7.3 0 .4.1.9-.1 1.2-.7.7-1.6 1.3-2.5 1.9-1.6 1.2-2.2 2.7-2.1 4.4 0 .4.6.7 1 1-.1-.1-.1-.1-.2-.2h.4c.1-.1.2-.2.3-.3.3.2.1.3-.3.3-.1.1-.1.2-.2.2 1.4 1.2 2.8 2.5 4.2 3.7.8.7 1 1.6.6 2.5-.3.8-.9 1.5-1.3 2.2 0 0-.1 0-.1-.1v.2l.2-.1c-.1.7-.4 1.4-.1 2.1.5 1.2.5 2.2-.5 3.2-.2.2-.2.4-.3.6l2.4 4.1c1.6.6 3 1.3 4 2.5s2.4 1.9 4 2.5c1.3.4 2.6 1 3.8 1.6.8.4 1.3 1 1 1.7-.6 1.4-.9 2.7-.4 4.1.2.5.8 1 1.2 1.5l.4-.1-.3.2c-.1-.1-.1-.1-.2-.2.1.5.2.9.3 1.4.8.1 1.5.2 2.3.3 1.1.2 2.1.6 2.5 1.6.6 1.5 1.2 3.1 2.2 4.5 1 1.5.2 2.7-.5 4-.2.4-.6.8-1.1 1.1-.7.4-1.6.9-2.2.8-2.4-.6-5-.8-6.8-2.5l.3.2c-.1-.1-.1-.1-.2-.2.8.1 1.6.3 2.4.3 1.6 0 2.5-.8 2.6-2.1.3-2.7-.4-5.3-1.6-7.9-1.2-.5-2.4-.9-2.8-2.2-.4-1.1-.9-2.2-1.2-3.4-.7-2.5-2.6-4.2-5.6-4.8-2.3-.5-4.1-1.5-5.9-2.7-1.1-.7-2.1-1.6-3.3-2.2-.7-.3-1.6-.4-2.4-.5-.7-.1-1.8.7-1.7 1.2.3 1.4.8 2.7.7 4.1-.1.6.4 1.4.9 1.9 1.2 1.3 2.7 2.4 3.7 3.8 3.3 4.1 7.7 7.5 10.9 11.6.4.6 1.3.9 1.9 1.4l-.2-.1c.1 0 .1.1.2.1-2.3.8-3.7 2.1-3.7 4.2-.1 3-.2 6.1.1 9.1.3 3.8-.7 7.4-2.3 11-1.7 3.7-3.8 7.3-5 11.2-1 3.6-2.6 7.2-5.2 10.3-2.4 2.8-3 6-3 9.3 0 .7.1 1.4.1 2.1.2 3.8-.4 7.5-3.2 10.7-.9 1-1 2.2-.4 3.4 1.5 2.4 1.9 4.8 1 7.5-.3 1.1-.1 2.3-.1 3.5 0 .7.1 1.4.4 2 .9 1.9 1.9 3.9 3.1 5.7.3.6 1.2 1 1.9 1.3 1.6.8 1.6.8 1.1 1.9-.3.7-.8 1.3-1 1.9-.2.7-.3 1.4-.1 2.1.8 2 2.2 3.8 1.1 6-.3.5.1 1.4.5 2 1.4 2.6 2.8 5.1 4.2 7.7.8 1.3 1.2 2.6 1 4-.2 1.6.4 2.5 1.9 2.7 5 .6 8.7 3.3 12.8 5.4 3.4 1.7 5.4 4 5.6 7.4.1 2.6 1.1 5 1.9 7.5 1.4 4.3 3.9 8.3 4.6 12.7.2 1.4 1.3 2.6 2.6 3.5 2.7 1.8 4.3 4.3 6 6.8.9 1.4.6 2.7-.3 4-.6 1-1.7 1.1-2.9 1.1-.3 0-.6.1-.8.1-.8.2-1.2 1.2-.9 1.7 1.4 2.1 3.3 3.9 5.9 4.9 3.5 1.3 5.9 3.6 8.6 5.6 1.1.8 1.6 2 1.5 3.2 0 1.2-.1 2.3-.4 3.5-.4 1.5.2 2.6 1.5 3.7 4.1 3.5 9.1 6.3 11.9 10.9.5.8 2 .8 3 .1 1.3-.8 1.8-2.1 1.5-3.1-.5-1.6-1.6-3-2.9-4.2-1.2-1.1-4.5-5.9-5-7.3-.4-1.1-1.1-2.2-1.4-3.3-.5-1.8-.7-3.7-1.1-5.5-.5-2.1-3.2-3.2-4-5.3-1.2-3.1-2.9-6.1-5-8.8-2.3-3-3.8-6.3-6.6-9-.5-.5-.9-1.2-1-1.9-.5-3.5-1.2-7-.1-10.4.2-.6.6-.8 1.3-.6 1.5.6 3.1 1.1 4.6 1.7 1.6.6 2.6 1.5 3 3.1.6 3 1.1 6 2.4 8.9 2.1 4.4 4.9 8.5 8.5 12.1.7.7 1.8 1.4 2 2.2.6 2.2 2.5 3.6 4.4 5 1.3.9 2.6 1.8 3.8 2.8.6.5.8 1.2.2 1.9-.3.4-.6.8-.9 1.2-.8 1.1-.7 2.4.6 3.2 1.6 1 3.2 2 4.9 2.7 2 .8 3.1 1.8 3.3 3.7.1.8 1.1 1.6 1.8 2.2 8.7 7.5 11.1 11.3 13.7 19.7.2.6.1 1.4-.1 2.1-.3.9-.8 1.8-1.4 2.5-2 2.3-1.2 4.3.3 6.5 1.3 1.9 2.9 3.5 5.5 4.2 2.5.7 4.5 2 6 3.7 1.6 1.9 3.8 2.7 6.4 3.2 1.1.2 2.3.3 3.3.6 1.1.3 2.2.6 3 1.2 3.7 2.7 7.7 4.7 12.5 5.8 2.4.5 4.8 1.5 7 2.6 2.5 1.2 5.2 1.9 7.9 2.6 9.4 2.4 9.4 2.4 18.8-.5 2.7-.8 5.3-.6 7.2.9 4.3 3.4 9.6 5.9 13.3 9.8 1.6 1.7 4 2.7 6.6 2.9 3.7.3 7.2 1.3 10.7 2.2 4 1.1 8 2.5 12.4 2.2.9-.1 1.6.4 1.9 1.1.9 2 2.9 3.5 4.5 5.1 1.8 1.8 3.8 3.5 5.5 5.4 1 1.1 1.7 2.4 1.1 3.9-.9 2.3.6 3.5 3.1 4.1 1.1.3 2.2.6 3.3.6.9 0 1.7 0 2.4.4 2 1.3 4.2 2.4 4.8 4.7.7 2.5 3.1 3.1 5.7 3.5.8.1 1.7 0 2.5-.2 2.8-.8 5.2 0 6.9 1.6 1.5 1.5 3.7 2.1 5.4 3.4 1.8 1.4 2.9 1.2 5.2-.3 1-.6 1.3-1.5.8-2.5-.3-.6-.8-1.5 0-1.9 2.2-1.2 3.5-3 5.1-4.6.3-.3 1.7-.3 2.3 0 2.4.9 4.2 2.5 4.5 4.8.2 1.7.8 3.2 2.1 4.5 1.6 1.6 1.9 3.9 3.9 5.4.5.4.6 1.3.6 1.9 0 3 .2 6.1-.2 9.1-.2 1.8-.1 3.2 1.2 4.6.6.6.3 1.4-.1 2-1.7 2.2-3.3 4.4-6.4 5.5s-5 3-5.8 5.7c-.5 1.5-1.5 2.5-3.1 3.1-1.5.6-3 1.3-4.5 2-.4.2-.7.7-.8 1.2-1.6 5.8-1.6 5.8-4.3 9.7-.3.4-.8.8-.9 1.2-.2 2.3-.7 4.7-.2 6.9.4 1.8 2.6 2.9 4.6 3.7.1 0 .5-.2.7-.4.4-.3.7-.7 1-1.1.2.4.4.7.4 1.1 0 1.2-.5 2.3-1.7 3.1-1.6 1-3.3 1.8-4.8 2.8-2.3 1.6-3.7 3.5-2.7 6.2.4 1.1.8 2.3 1 3.4.1.7 0 1.4-.3 2-.6 1.4.1 2.3 1.3 2.9 1.7.9 3.4 1.6 5.2 2.4 2.1.9 3.9 2 4.8 3.9.8 1.6 1.9 2.8 3.4 3.9.8.6 1.7 1.4 1.9 2.2 1 3 3.3 5.5 4.5 8.3 1.6 3.8 4.2 7.1 6.9 10.4 2.8 3.5 5.4 7.1 8 10.8.4.6.8 1.4.7 2-.6 2.2.9 3.6 2.4 5 4.8 4.4 11.3 7 16.9 10.6 1.1.7 2.7.8 3.9 1.3 3.1 1.2 6.3 2.3 8.7 4.3 3.2 2.7 6.7 5 10.1 7.5.9.7 1.3 1.5 1.5 2.4.2 1.2.2 2.4.5 3.5.6 2.3 1.1 4.6.2 6.9-.3.8 0 1.9.3 2.8 1.8 4.6 1.3 9.2-.1 13.8-.2.7-.4 1.4-.2 2 2 6.9.9 14 1.2 20.9.1 1.9-.3 3.7-.7 5.6-.5 2.3-1 4.6-1.7 6.9-.4 1.4-.6 2.7 0 4.1 1 2.1.8 4.2-.1 6.2-1 2.1-1.1 4.1-.1 6.1 1.3 2.7.5 5.6 1.8 8.3.6 1.2-.1 2.8 0 4.1.1 1.2.3 2.3.6 3.5.4 1.2.3 2.3-.2 3.4-.7 1.5-1.1 3.1-1.6 4.7-1.5 5.2-3 10.5-4.4 15.7-.3.9-.6 1.8-1.5 2.5-1.9 1.3-1.9 3-.8 4.4 1.9 2.4 2 5.4 3.9 7.8 1.7 2.2 1.6 4.5.1 6.7-.9 1.3-1.1 2.6-.9 4s.1 2.8.1 4.2c0 1.7.7 3.2 1.9 4.6.7.8 1.4 1.5 2.1 2.2-3.1-.1-3.6.2-4.2 2.1-.2.7-.6 1.3-.5 2 .4 2.2.9 4.5 1.4 6.7.2.7 2.1 1.1 2.8.6 1.1-.8 2-1.7 1.9-2.9-.1-1.6 0-3.2.3-4.8.2-1.4-.6-2.7-1.6-3.8 1.5.4 2.7-.1 4-.6 1-.4 1.2-.2 1.5.9.2.7.7 1.3.7 2-.2 3-.9 6-.7 8.9.2 3-.3 5.9-.9 8.9-.2.9-.3 1.9.3 2.7 2 2.7 1.3 5.3-.2 7.9-.3.5-.7.7-1.3.5-.2-.1-.6-.2-.6-.4-.4-.8-.7-1.6-1.1-2.4-2.5-.1-4.5 1.1-5 2.9-.6 2.3-2.2 4.2-3.4 6.2-.2.3.2.9.5 1.2s1 .5 1.4.4c.8-.2 1.4-1 2.1-1 1.6.1 3.3.4 4.9.7.9.2 1.7 1.4 1.5 2.2-.5 1.8-1 3.5-.6 5.3h.2c0 .1.1.2.1.3.2.1.4.1.3.1-.1.3-.2.2-.3-.1-.1 0-.2-.1-.3-.1v-.1c-1.6.2-3.1.4-4.3 1.4-.9.7-1.4 1.4-1.2 2.4.2.9.4 1.8.8 2.6.3.6 1.2 1.1 1.3 1.7.1.9-.2 1.8.6 2.6.3.3.7.5 1.1.7l.4-.1-.2.3c-.1 0-.1-.1-.2-.1 0 .7 0 1.3-.2 1.9-.4 2-.4 2 1.7 3 1.3.6 2.5 1.3 3.8 2v.2h.1c1.1 1.5 1.1 1.7 0 2.7-.1 0-.1 0-.2 0v.2l.3-.2c0 2.3 1 4.5.1 6.8-.3.9.6 1.6 1.9 1.7 1.2 0 1.9-.5 2-1.7.2-1.7.1-3.5.9-5.1 0 0 0-.1-.1-.1l-.3-.4.5.2c-.1.1-.1.2-.1.3.8.7 1.3 1.4 1.3 2.4s.4 1.8 1.2 2.5c.8.8 1.3 1.5.4 2.4-.7.7-1.3 1.5-2.6 1.5-.6 0-1.2-.2-1.7-.1s-1 .5-1.2.8c-.3.5 0 .9.6 1.1.8.2 1.6.5 2.4.6 2.8.1 3.5 2 4.6 3.5-.6 1.3.1 2.2 1.5 2.9 1.8 1 3.5 2.1 5.2 3.1h.4c0 .1.1.2.2.3.5.2.8.5 1.1.9.1 0 .2.1.4.1l.2.3-.4-.2c0-.1-.1-.2-.2-.3-.5-.2-.9-.5-1.1-.9-.1 0-.2-.1-.4-.2-.1-.1-.2-.1-.2-.1-2.4.2-4.7-.1-6.8-1.2-.4-.2-1-.3-1.6-.3-.2 0-.6.3-.6.4.1.4.1 1 .5 1.2 3.4 2 6.9 3.8 9.8 6.4 1 1 2.8 1.5 4.4 1.9 1 .3 2.1 0 3.2 0 .3-.5.6-1.1.9-1.6.1-.2.4-.4.6-.4.7 0 .7.3.5.9-.2.3-.1.7-.1 1.1.5.1 1 .3 1.5.4 1.8.4 3.1 1 2.6 2.8-.2.5.1.9.8 1.1 2.1.4 3.3 1.5 4.1 3.1.5.9 1.7 1.1 2.8 1.1 1-1 1.7-2.3 3.2-2.8.6-.2 1.2-.1 1.4.4.2.4.2.9.1 1.3-.1.9-.3 1.9.8 2.5.9.5 2 .8 3.1 1 .8.1 1.6-.2 2.4-.2 1.1 0 2.2.1 3.3.2 1.8.1 1.8.1 1.3-2-.1 0-.2 0-.2.1 0-.2 0-.2-.1-.3s-.2-.1-.3-.2c.2-.2.3-.1.3.2.1 0 .2.1.3.1v.1c1.5-.4 3.1-.8 4.6-1.1 1.2-.3 1.8-.9 2-2 .1-.6.7-.6 1.4-.5 1.1.2 2.4.6 3.2.3 1.9-.8 3.6-2 5.4-3.1.1-.1 0-.5-.1-.6-.8-.9-2.1-.4-3.1-.7-3.6-1.3-7.2-2.6-10.8-3.9-.5-.2-1-.5-1.4-.8-1.6-1.6-3.9-2.6-5.4-4.3-.9-1-1.3-1.8-1.6-3-.7-3-2.6-4.3-6.3-4.5-1 0-2 0-3 .1 0 .1-.1.1-.1.2-.1 0-.2.1-.3.1-.1.6-.2 1.4-.6 1.6-2.8 1.1-2.8 3.2-3 5.3 0 .2-.1.5-.2.7s-.4.4-.5.3c-.2-.1-.5-.3-.5-.5 0-.9-.1-1.8 0-2.7.4-2.4 2-4 4.9-4.6 0-.1.1-.2.1-.3h.4c.7-1.2 1.4-2.4 3.5-1.8.3.1.6.2.8.1.5-.1 1.1-.3 1.4-.6.2-.3.3-.9 0-1.2-1.2-1.6-2.8-2.9-3.8-4.6-1-1.6-1.4-3.5-2.1-5.3-.7-2-.3-3.7 1.3-5.2.7-.7 1.5-1.4 2.4-2 2.2-1.4 3.2-3.2 3-5.4-.2-2 .6-3.6 2.3-5 1.8-1.5 3.3-3.2 4.9-4.8.9-.9 1.2-2.1 1-3.3-.1-.7-.2-1.4-.4-2.1-.5-1.9-1.4-3.6-4.3-3.6-1.4 0-2.7-.5-3.9-1.3-1.3-.9-2.7-1.7-4-2.6-2.7-2-3-4.4-.8-6.8.8-.9 1.8-1.8 3-2.4 1.7-.8 3.6-1.3 5.4-2 .5-.2 1.1-.6 1.2-.9.3-2 2.3-3.8 1.1-6-.3-.6-.4-1.4-.5-2.1-.2-2 .3-3.6 2.1-5.1 1.1-.9 2-2 2.9-3-.1-.1-.1-.2-.2-.2-.7 0-1.4-.1-2-.3s-.5-.7.1-1c.2-.1.7-.2.7-.1.4.4.8.9 1.2 1.4h.5c-.1.1-.1.2-.2.2.5.1 1.1.2 1.6.2 2-.1 3.3-1.3 3-2.7-.3-1.1-.7-2.3-1.1-3.4-.2-.6-1.4-.9-2.2-.7-.5.2-1 .5-1.5.7-2.7 1-5.3 0-5.9-2.3-.4-1.4-.7-2.7-1.1-4.1-.1-.4-.4-.9-.5-1.3-.2-.8 1.3-1.8 2.3-1.4 1.6.5 3.2.9 4.7 1.6 2.1 1 4.3 1.1 6.6.9 2.4-.3 5.1-2.4 5-4.2 0-1.4-.7-2.8-.6-4.1 0-1.6.5-3.2.8-4.8 0-.2-.2-.4-.2-.7-.2-.4-.4-.9-.5-1.3-.3-1.5.5-2.4 2.1-2.1 6.3 1.1 12.4.7 18.4-1.3 1.6-.5 3.2-.9 4.8-1.5 2.7-1 4.9-2.2 5.6-4.9.4-1.6 1.6-3 2.4-4.5.4-.9.7-1.8.9-2.7.3-1-.5-2.4-1.6-3-.7-.4-1.5-.6-2.3-.9-.8-.4-1.1-1.1-1-1.8 0-.7.2-1.4.5-2 .9-1.9-.1-3.1-1.7-4.3-1.8-1.4-4.2-2.1-5.8-3.6-.2 0-.3 0-.5 0 0-.1 0-.3-.1-.4s-.3-.2-.4-.3c.1 0 .3.1.4.2v.1c.1.1.2.2.3.2.1.1.2.1.2.2 4 .4 8.2.4 11.9 2.2.7.3 1.6.4 2.5.4 1.7.1 3.4.1 5.1.1 4.3 0 7.7-1.2 9.9-4.4 1.1-1.6 1.7-3.5 3.5-4.7 2.1-1.4 3.1-3.3 3.8-5.4.7-2.3 1.4-4.5 2.1-6.8l.2.2c0-.1.1-.2.1-.2h-.1c-.7-1.9-.4-2.8 1.3-3.7.6-.3 1.3-.4 2-.5.5-1.8 1.1-3.5 2.4-5 .3-.3.9-.7 1.3-.6.3 0 .7.5.9.9.3.6.4 1.2.6 1.9 1.6-.2 2.3-1.2 2.9-2.2 2.3-4.5 4.8-8.9 8.3-13 2.3-2.7 3.7-5.9 1.5-9.3-.3-.4-.3-.9-.4-1.4-.8-4.2.1-7.9 4.2-10.8 1.7-1.2 3.4-2.5 5-3.8 2.6-2.2 5.9-3.8 9.3-4.8 1.9-.6 3.6-1.1 5-2.3 1.2-1 2.7-1.7 3.2-3.2.1-.3 1-.6 1.3-.5 1.7.3 3.3 0 5-.2 1.6-.2 3.4.1 5 .1 3.2-.1 6.1-.5 8.2-2.9 1-1 2.9-1.5 4.2-2.3.9-.6 1.5-1.4 1.2-2.5-.3-1.2-.2-2.3.6-3.4 1.7-2.4 3.2-5 5-7.3 1.5-1.9 2.2-3.7 1.9-5.9-.3-1.6-.3-3.4.9-4.8 2.3-2.7 2.7-5.7 2.8-8.7.2-3.7.2-7.5.2-11.2 0-2.6-.3-5.1-.2-7.7 0-1.2.5-2.4 1.9-3 3.9-1.4 6.2-4 7.5-7.3.3-.7.8-1.2 1.1-1.9 1.1-2 2.5-3.6 4.5-5.1 2.4-1.7 4.5-3.6 6.7-5.4 2.1-1.9 3.8-4 5-6.5 1.1-2.3 2-7.8 1.2-9.6-1.1-4-2.5-7-3.9-10.1zm-130.2-390.7c.1 0 .4.4.4.5-.7 1.9-2.9 1.9-4.4 2.8-.4-.5-.7-.7-.7-.8 1-1.5 2.8-2.1 4.7-2.5zm-36.4 9.3.2-.4.2.5zm-2.1-13.4c1.4-.2 2.8.3 4.1-.3 2.8-1.2 5.4-.3 8.1.4.3.1.4.7.5 1.1 0 .2-.3.4-.5.5-1 .3-2.1.6-2.9.8-2.4-1-4.6-.7-6.9-.7-.7 0-1.5-.5-2.2-.8-.2-.1-.4-.4-.4-.6-.1 0 .1-.4.2-.4zm-2.2 12 .3.2-.5-.1zm-20.4-18.7s.2.2.4.3c.1.3.3.7.4 1.1-.2-.4-.4-.7-.6-1.1-.5.1-.6 0-.2-.3zm-5.6 2.2c.4-.6 1-1 1.5-1.5.2.4.4.8.5 1.3.1.4.2.9.4 1.9 0 .1-.1.8-.3 1.4 0 .1-.5.2-.7.2-1.8-.5-2.4-1.9-1.4-3.3zm-15.7-6.9c.8.2.7.3-.1.3-.2-.1-.4-.2-.5-.2.2 0 .4-.1.6-.1zm-13.5 33.6c.2 0 .5.1.7.2.1.1.1.4 0 .5-1.2.6-2.4 1.1-3.6 1.6 0 0-.2-.3-.3-.5.7-1.1 1.7-1.8 3.2-1.8zm-14.8 19.6c.2 0 .4.1.6.2 0 .1 0 .4-.1.4-.2.1-.4.1-.6.1-.2-.1-.3-.2-.5-.4zm-34.2-169.3c.2-.1.6 0 .8.1 2.1 1.5 3.4 3.6 4.7 5.6.1.1 0 .4-.1.6-.2.1-.5.4-.7.3-.8-.2-1.6-.4-2.2-.8-1.7-1.2-2.6-2.9-3.3-4.7-.1-.6.2-1 .8-1.1zm-44.7 11.2c0-.1.5-.2.7-.2 1.3.3 2.4.7 3 1.8.1 0 .2 0 .3-.1.1.1.2.2.3.2 1.1.1 2.1.3 2.9 1h.5l.1.4-.3-.3c-.1-.1-.2-.1-.2-.2-1.1 0-2.1-.3-2.9-1-.2 0-.3 0-.5-.1 0 0-.1-.1-.1-.1-2.3.7-2.8.7-3.8-.5-.3 0-.1-.5 0-.9zm-16.3-4.9c.2 0 .3.2.5.3-.2.1-.4.2-.6.1-.7-.2-.7-.4.1-.4zm62 159.9c.1-.1.4-.1.6-.1.2.1.5.2.6.4.3.4 0 .7-.7.6-.2 0-.5-.2-.6-.3-.1-.2 0-.5.1-.6zm-5.8 41.4c.1-.2.4-.3.7-.4 1.3-.4 2.6-1 3.9-1.2 2.8-.3 5.6-.4 8.4-.5 1.8 0 3.3-.5 4.5-1.5.4-.3 1-.3 1.5-.4.2.1.5.3.6.4 1.1 1.3.8 2.7-.2 3.9-1.8 1.9-4.2 3.4-7.3 2.3-3.9-1.3-7.8-.3-11.7-.6-.4 0-.9-.5-1-.9 0-.2.4-.7.6-1.1zm-1.3 6.5c-.1.4-.3.9-.7 1.1-3 1.3-5.9 2.7-9 3.8-2.3.8-4.7 1.5-6.9 2.5s-4.7 1.5-7.5 1.6c-.8-.4-1.7-.8-2.7-1.3-.8-.4-.5-2.1.3-2.4.2-.1.4-.4.7-.4 4.1-.3 7.5-1.9 10.8-3.7 1.3-.7 2.6-.8 4-.4 1.7.5 3.3.3 4.9-.4 1.2-.5 2.6-.8 3.9-1.2.9-.1 2.3.4 2.2.8zm-26-90.2c.1-.1.1-.2.2-.3 0-.5-.1-1 0-1.5 0-.6.4-.8.9-.5.1.1.2.5.1.6-.3.5-.6.9-1 1.3v.5l-.7.1zm-21.1 29.1c.2-.1.5-.1.8-.1.4.3 1 .5 1.1.8.4 1.1.4 2.2-.6 3.1-.1.1-.4.3-.6.3-.6.2-1.1 0-1.4-.5-.8-1.4-.5-2.6.7-3.6zm-8-10.2v.4l-.7-.2zm-5.3-115.8c.3-.3 1-.5 1.4-.5.5.1 1.1.4 1.3.7.3.6.3 1.3.4 1.8-.4.7-.9.9-1.5.5s-1.3-.9-1.7-1.4c-.2-.2-.2-.9.1-1.1zm-5.7-4.5c.1.2.2.3.2.5-.1.1-.3.3-.4.4-.1-.2-.2-.3-.2-.5 0-.1.2-.3.4-.4zm-2.9 86.5c.2 0 .4.1.7.1-.1.1-.1.4-.2.4-.2 0-.4-.1-.7-.2.1 0 .1-.2.2-.3zm-3.2 38.6s.2.2.3.3c0 0 .1 0 .1.1 1.6.1 3.2.2 4.8.4.5.1.6.6.1 1.1-.2.2-.5.4-.7.3-1.6-.3-3-.9-4.2-1.8-.1 0-.2 0-.3 0-.5 0-.6-.2-.1-.4zm-2.3-29.8c-.7-.1-.9-.5-.5-.9.1-.1.5-.2.6-.1.3.3.5.6.7.9-.3 0-.6.1-.8.1zm-3.9-100c1-.4 2.1-.5 3.2-.6.4 0 .8.4 1.2.7-2 1.4-1.3 3.4-2.2 5.1-.6 1.3-2.1 1.6-3.3.7-2.9-2.5-2.6-4.4 1.1-5.9zm-2.4 34.2c.1-.1.2-.2.3-.3.1-.3.2-.6.3-.8.1.1.3.1.4.2-.3.2-.5.4-.7.6-.1.1-.1.3-.2.4-.6.6-1.2 1.1-1.9 1.7-.1.1-.3.2-.4.3.1-.2.1-.3.2-.5.8-.5 1.4-1.1 2-1.6zm-1.7-23.3v.4l-.6-.2zm-4.1 54.2.2.5h-.5zm-2.9 75c.6-.9.7-2.1 1.9-2.7 0-.1-.1-.2-.1-.3.1-.1.3-.2.4-.3-.1.2-.1.3-.2.5-.1 0-.1.1-.1.1.3.8.5 1.6.7 2.4.1.2.1.5 0 .7-.4.3-.8.6-1.3.8-.2.1-.5 0-.8-.1-.5-.3-.8-.7-.5-1.1zm-1.6-50.2.6.2-.6.2zm-2.4-22.2c.6-.2 1 .1 1.2.6 0 .5-.3.8-1 .8-.5 0-.9-.3-1.3-.5.4-.3.6-.7 1.1-.9zm-1.2 53.5c.4 2.4-.3 4.5-2.8 5.9v.3l-.4.1.2-.2c.1 0 .1-.1.2-.1-.5-2.3.4-4.4 1.8-6.4.1-.1.5-.2.6-.2.2.2.4.4.4.6zm-1-28.4c.2 0 .3.2.5.3-.1.2-.1.4-.3.5-.1.1-.5 0-.6-.1-.4-.4-.3-.7.4-.7zm-15.3 15.7c-.5 1-1.5 1.9-2.3 2.9-.4.5-.8.6-1.1.2-.1-.2-.1-.4-.1-.6s.1-.5.2-.7c.6-1.3 1.5-2.4 1.1-3.9-.5-1.7-2.6-1.5-3.9-2.2-.2-.1-.3-.5-.2-.6.3-.3.7-.7 1.1-.7.5-.1 1.1.1 1.6.2 1 .1 2 .3 3.1.4 0-.1-.1-.1-.1-.2h.1c-.8-1.1-1.7-2.2-2.5-3.3-1.2-1.7-1.1-3.6-.2-5.4.3-.6 1-1.2 1.7-1.4.6-.1 1.7.3 2.1.7.9.8 1.6 1.8 2.3 2.7 0 0 .1-.1.1-.1l.2-.4-.2.5s-.1-.1-.1-.1c-2.2 1.7-2.2 3.3.1 5 .4.3.1.9-.5 1.1-1 .2-2.1.4-3.1.5.1.1.1.2.2.2-.1 0-.1 0-.2 0 .3.8.8 1.6.9 2.4.2 1 .1 2-.3 2.8zm4 18.9c0 .2-.3.5-.5.5-.5 0-1.3 0-1.3-.1-.5-1.5-1-3-1.3-4.5-.1-.3.5-.8.7-1.1 0-.1-.1-.1-.1-.2.1-.4.2-.7.3-1.1 0-.2.1-.3.1-.5-.1.2-.1.4-.2.5-.1.4-.1.8-.2 1.2.8 1.3 1.6 2.6 2.3 4 .3.4.2.9.2 1.3zm-2.9-141.4c.1-.1.4-.2.7-.2.6.2.8.6.4 1.1-.1.1-.4.2-.6.2-.6-.2-.8-.6-.5-1.1zm-4.6 65.5c.3-1 1.2-1.6 2.3-1.8.4-.1 1 .2 1.5.4.1.1.1.5 0 .6-1 1.4-2.3 2.4-4 3.1v.3c-.1 0-.3 0-.4.1s-.3.3-.4.4c.1-.1.1-.3.2-.4h.2c.1-.1.2-.2.2-.2.1 0 .1-.1.2-.1 0-.8 0-1.6.2-2.4zm-1.1-67.5c.8 0 1 .3.5.7-.2.1-.5 0-.8 0-.1-.1-.3-.3-.4-.4.2-.2.4-.4.7-.3zm-3.1 85c1-.2 2.1-.3 3.1-.4.2-.1.4-.2.6-.3.7-.5 1.3-1 2-1.6 0 0 .1 0 .1-.1-.1-.2-.1-.3-.2-.5-1.5-5.7-2.3-6.2 5.5-9.9.3-.2 1.1 0 1.5.2.3.3.4.8.5 1.2 0 .2-.1.5-.3.6-1.3 1.2-2.8 2.3-3.8 3.6-.9 1.1-1.3 2.5-2.1 3.8-.2.3-.7.6-1.1.9 0 .1.1.1.1.2-.7.5-1.3 1.1-2 1.6-.3 0-.5.1-.8.1-.9.4-1.9.9-2.8 1.3-.1 0-.5-.2-.5-.4 0 0 .1-.3.2-.3zm-.3-106.5-.2.4-.2-.4zm-5.3 13.8c.1-.1.4 0 .7-.1.5.3.6.7.2 1.1-.1.1-.6.2-.7.1-.5-.3-.6-.7-.2-1.1zm-190.1 58.4-.4.1.2-.3c.1-.1.2-.2.2-.3zm4.8-10.1c0-.1 0-.2 0-.3-.3-.2-.6-.4-.9-.6-.1-.1.1-.3.2-.5.7.2.7.6.7 1.1.1 0 .2.1.2.2l.4.4c-.2-.1-.4-.2-.6-.3zm1.3-9c0 .1-.2.1-.4.1 0-.4.1-.7.1-1.1.1.1.3.3.3.4zm1 37.3c-.5.3-.9.2-1.3-.2-.6-.8-1.4-1.5-1.8-2.3-.5-1.1-.2-2.2 1.1-2.8 0-.1-.1-.2-.1-.3l.2-.2c-.1-.4-.1-.9.4-1.2.1.1.3.3.2.4-.2.3-.4.5-.7.8 0 .1.1.2.1.4 0 0-.1 0-.1.1.7 1.6 1.5 3.2 2.2 4.8.2 0 0 .3-.2.5zm2.3-4.9c-.2 0-.5-.3-.5-.4 0-.4.2-.7.3-1 .3.3.7.5 1 .8.1.4-.2.7-.8.6zm76.1-148.3c-.1 0-.3-.3-.3-.5 0-.7 0-1.3 0-1.1.1-1.3.1-1.8.2-2.2 0-.2.3-.4.4-.5 0 0 .4.1.4.2.1 1.1.1 2.2.2 3.3-.1.6-.3.9-.9.8zm11.8-3.1c-.2.1-.3.3-.5.4.1-.2.2-.4.3-.6l.3-.1zm3.2 116.9-.3.2.2-.3.4-.3zm12.9 57.1c-.2 0-.5-.1-.7-.2.3-.1.6-.3.9-.3.1 0 .3.2.5.3-.2.1-.4.2-.7.2zm1.9-178.8c-.2.1-.5.3-.7.3-2.8 0-5.5 0-8.3-.1-.2.1-.4.1-.5.2-.6.5-1.2 1.1-1.8 1.6-.1 0-.3 0-.4.1-.2.2-.5.5-.7.7-.1.1-.4-.1-.6-.2.3-.6.8-.5 1.4-.6.1-.1.1-.1.2-.2.6-.5 1.2-1.1 1.8-1.6h.7c2.8-1.2 5.9-.9 8.9-.6 0 .1.1.4 0 .4zm62 190.1c-.2 0-.4-.2-.6-.4.2-.4.2-.8.5-1.1.5-.5 1.3-.7 2.1-.3.2.1.4.3.3.5-.2.8-1.3 1.4-2.3 1.3zm-.8-22.8c-.2 0-.5-.2-.6-.3-.1-.2 0-.5.1-.6.9-.9 1.9-1.4 3.4-1.2.1 0 .2.3.3.5-.7 1.1-1.7 1.7-3.2 1.6zm3.1-48.4.2-.5.2.5zm4.8-55.9c.5 0 1 .1 1.4.3.2.1.3.3.4.5 0 .2 0 .5-.1.5-.4.1-1 .2-1.3 0-1-.5-1.2-1.3-.4-1.3zm-65.1-26c.2 0 .2-.1.3-.1 0-.1.1-.2.1-.3.4.1.2.2-.1.3 0 .1-.1.2-.1.3l-.6.2zm6.9 77.6c-.2-.1-.3-.2-.5-.4.2.1.5.1.7.2l.1.3zm21.5-43.3c-.3.2-.7.4-1 .5 0 .1 0 .2-.1.3 0 .1-.1.2-.3.3 0 .3-.1.5-.1.8-.5-.4-.2-.6.1-.8 0-.2 0-.3.1-.5.1-.1.2-.1.3-.2.1-.5 0-1 .9-1.1 0 .1.2.6.1.7zm-6.9 21.6c-.4.3-.6.6-.8.6-2.3-.3-3.3-1.7-3.9-3.3-.1-.2.5-.8 1-.9.5-.2 1.4-.2 1.5 0 .8 1.1 1.5 2.4 2.2 3.6zm-6.2 36.6v-.4l.7.3zm13.3 21.2c-.1.1-.4.2-.6.2-.1-.4-.3-.8-.3-1.2 0-.1.4-.2.6-.2.2.1.3.3.4.5 0 .3 0 .5-.1.7zm9.1 28.9c-.1-.1-.2-.3-.3-.4-.2-.4-.4-.7-.6-1.1.2.3.5.7.7 1 .6.1.6.2.2.5zm1.3-29.2c-.4.1-1-.1-1.5-.3-.1 0-.1-.5.1-.6.7-.7 1.2-1.7 2.1-2.1 3.1-1.6 6.2-3 9.4-4.4.4-.2 1.2 0 1.6.2 1.5 1.1 3.1 1.9 5.1 1.9.2 0 .5.7.6 1 0 .1-.3.5-.5.5-1.9.2-3.9.4-5.8.5 0-.1 0-.2 0-.3-.8 0-1.7 0-2.5 0-2.7-.1-4.9.7-6.7 2.3-.5.5-1.2 1-1.9 1.3zm88.4 362.6c-.2.2-.4.4-.6.5-1.6.4-3.4-.8-3.2-2.2 0-.2.4-.5.6-.5 1.5-.1 2.6.4 3.3 1.6 0 .2-.1.4-.1.6zm95.8 11.7c-.1.5-1.3 1.4-1.7 1.2-.5-.2-.9-.5-1.2-.8-1.4-1.8-1.2-2.4 1.2-4.6.3-.3.9-.3 1.4-.3.1 0 .3.4.3.6.1.7.2 1.3.3 2.2-.1.4-.2 1-.3 1.7zm16.8 376.3c-.1-.1-.3-.1-.4-.2-.1-.2-.1-.4 0-.6.2-.5.5-.4.5.3.2.1 0 .3-.1.5zm2.2-223.7c0-.1-.1-.1-.1-.2-2.6 0-4.3-1.3-5.6-3-.2-.2.1-.8.3-1.2 0-.1.5-.1.7 0 1.7 1.2 3.9 2.2 4.6 4.2h.3c.1.1.3.2.4.3-.2 0-.4 0-.6-.1zm15.9 250.2c0 .1-.1.2-.1.3l-.5.2.3-.4c.1 0 .1-.1.3-.1 0-.1.1-.2.1-.3.3.1.2.2-.1.3zm4.5 7c-.5.2-.9.4-1.4.5-.2 0-.5-.1-.7-.3-.4-.5-.2-.9.5-.9.5 0 1.1.1 1.6.2zm1.5 8.3c-.1 0-.1-.2-.2-.4.2 0 .4-.1.6-.1.1.1.1.3.2.4-.2 0-.4.1-.6.1zm4.2-5.5c0 .1-.1.1-.1.2-.1 0-.2.1-.4.2-.2.5-.5.8-1.1.9-.1.1-.2.2-.2.3l-.4.3.2-.4c.2 0 .3-.1.4-.1.2-.4.6-.7 1.1-.9 0-.1.1-.2.2-.3s.1-.1.3-.2c.1-.1.1-.2.2-.4.3.3.2.4-.2.4zm12.2 3.6c.6-.3 1.1-.2 1.4.3.1.1-.1.4-.3.5-.4.3-.9.5-1.3.8-.2 0-.5 0-.7-.1-.5-.2 0-1 .9-1.5zm-5.5 5c0 .1.1.2.1.3 1.1.5 2.1.9 3.2 1.4.1 0 .1 0 .2-.1.1 0 .1 0 .2-.1 0-.3-.1-.7 0-1 .1-.5.5-.8 1.1-.7.2 0 .5.2.6.3.4.4.3.8-.4 1-.4.1-.9.3-1.3.4v.2c-.1 0-.2-.1-.3-.1-.4.1-.8.3-1.3.4-.9.2-1.4-.2-1.7-.9-.1-.3-.2-.6-.2-.9-.1 0-.2-.1-.3-.1-.1-.1-.1-.2-.2-.3-.5 0-1.1 0-1.2-.7 0 0 .6-.2.6-.1.2.2.4.5.6.8.1.2.2.2.3.2zm7.3-407.6.3-.4.1.5zm12.8 230.1c-.5-.1-.9-.3-1.4-.4.2-.1.4-.3.7-.3.2-.1.6-.1.8 0s.4.3.6.4c-.3.1-.5.2-.7.3zm39.3-216.9c-.1-.1-.1-.3-.2-.5.4-.1.8-.3 1.2-.4.1.2.3.4.2.5-.2.5-.7.7-1.2.4zm33.2 33c-.6.7-2 .9-2.8.4-.8-.4-.8-1.1-.5-1.7.2-.5.7-1 1-1.4.1.3.1.7.3 1 .3.7 1 1 1.9.8.4-.1.7-.2 1-.4-.3.5-.6.9-.9 1.3zm8.5 7.7c0-.1 0-.4.1-.4.5-.2.9-.4 1.4-.5.1 0 .4.3.4.4 0 .2-.2.4-.4.4-.5.2-1 .1-1.5.1zm2.2 15.8s-.4 0-.5 0c-.4-.5-.8-1.1-1.3-1.7-.4-.5-.3-.9.4-1.1.1 0 .5.2.6.4.4.6.7 1.2 1 1.6-.1.4-.1.6-.2.8zm5.8 81.3-.6-.2.6-.2z" fill="#9ccc65" fill-rule="evenodd"/></svg>