<svg enable-background="new 0 0 1920 1080" viewBox="0 0 1920 1080" xmlns="http://www.w3.org/2000/svg"><path d="m1548 749h35c.5 0 .9-.5.9-1s-.4-1-.9-1h-35c-.5 0-.9.5-.9 1s.4 1 .9 1z" fill="#5ca4aa"/><path d="m1601.3 749h29.1c.5 0 .9-.5.9-1s-.4-1-.9-1h-29.1c-.5 0-.9.5-.9 1s.4 1 .9 1z" fill="#5ca4aa"/><path d="m1643.6 749h19c.5 0 .9-.5.9-1s-.4-1-.9-1h-19c-.5 0-.9.5-.9 1s.4 1 .9 1z" fill="#5ca4aa"/><path d="m1594.7 755h20c.5 0 .9-.5.9-1 0-.6-.4-1-.9-1h-20c-.5 0-.9.5-.9 1 0 .6.4 1 .9 1z" fill="#5ca4aa"/><path d="m1539.2 742.6h138.9c.5 0 .9-.5.9-1 0-.6-.4-1-.9-1h-138.9c-.5 0-.9.5-.9 1s.4 1 .9 1z" fill="#5ca4aa"/><path d="m1526.9 742.6h5.8c.5 0 .9-.5.9-1 0-.6-.4-1-.9-1h-5.8c-.5 0-.9.5-.9 1s.4 1 .9 1z" fill="#5ca4aa"/><g fill="none" stroke="#5ca4aa" stroke-linecap="round" stroke-miterlimit="10"><path d="m253.4 715.8h105" stroke-width="2.0192"/><path d="m373.9 715.8h18.2" stroke-width="2.0192"/><path d="m310 724.5h39" stroke-width="2.0192"/><path d="m272.3 707h20.8" stroke-width="2.0192"/><path d="m237.9 715.8h6.1" stroke-width="2.0192"/><path d="m727.2 965.6h74.2" stroke-width="2.25"/><path d="m760.6 975h76.5" stroke-width="2.25"/><path d="m817.6 965.3h30.7" stroke-width="2.25"/><path d="m741.1 975h10.5" stroke-width="2.25"/><path d="m774.1 955.5h43.5" stroke-width="2.25"/></g><path clip-rule="evenodd" d="m794.6 703.6c-.3-.6-1-1.2-1.7-1.4-1.2-.4-2.6-1-3.9-.9-2.4.2-4.3-.5-6-1.8-2.1-1.5-5.1-2-6.6-4.1-2.5-3.4-6.6-4.8-10.4-6.6-1.7-.9-3.6-1.2-5.5-1.2-6.6.2-13.1-.8-19.5-2.2-.7-.2-1.6 0-2.4.2-1 .3-2 .8-2.9 1.2-.8.3-1.5 0-1.9-.8-.5-1.1-.8-2.3-1.5-3.3-.5-.7-1.5-1.7-2.4-1.8-3.7-.2-6.6-2.1-9.9-3.3-2.5-.9-5.1-1.6-7.9-1.7-2.4-.1-4.3.3-5.5 2.2-.1.2-.4.4-.6.4-.5 0-.7-.4-.5-.9.1-.4.2-.9.4-1.4.5-1.9-.9-3-2.1-3.4-2-.7-4.1-1.2-6.1-1.7-.1.4-.2.8-.3 1.2h.1l.2.2-.4-.1v-.1c-2.3-.3-4.5-.2-6.4 1.3-.6-1.1-1.8-1.2-3.1-1.3 1.8-1.5 3.9-2.3 6.3-2.8.6-1.8 1.2-3.5 1.6-5.3.3-1.1.2-2.3-.7-3.3-1-1.1-1.6-2.4-2.8-3.4-2.2-2.1-3.9-4.5-4.4-7.4-.3-1.4-1-2.7-2.2-3.7-4.5-3.8-8.8-7.8-15.5-8.8-.8-.1-1.6-.4-2.3-.8-2.8-1.2-5.7-1.4-8.8-1.4-3 .1-6 0-9-.1-.8 0-1.6-.3-2.3-.6-2.8-1.4-5-3.6-8.4-4.2-.4-.1-.8-.6-.9-1-.4-1.1-1-2.2-2-3-1.7-1.5-3.4-3.1-5.3-4.4-1.2-.9-2.8-1.5-4.3-2-1.3-.4-2.7-.3-4.1-.4-.9-.1-1.6-.5-1.5-1.3.1-2.2-1.2-3.5-3.5-4.3-2-.7-4-1.5-5.9-2.4-.7-.3-1.5-.8-1.7-1.3-.3-.8.8-.9 1.6-1.1.3-.1.5-.1.8-.2.6-.2.8-.6.5-1-.1-.2-.4-.3-.7-.4-2.4-.7-4.9-.4-7.3-.3-1.5.1-2.6-.4-3.6-1.3-.4-.4-1.1-.2-1.4.3-.4.6-.4 1.5-.9 1.9-2.5 1.9-6.5 3.4-9.7 1.3-2-1.2-4-1.3-6.2-1.1-2.4.2-4.9.3-7.4.4-1.2 0-2-.4-2.5-1.5-.1-.2-.1-.5-.2-.7-.4-1.5-1.5-2.5-3.2-2.8-1.1-.2-2.1-.4-3.2-.5-2.1-.2-3.5-1.2-4.1-2.9-.2-.7-.8-1.2-1.7-1.3-.8-.1-2.3.6-2.7 1.4-.2.4-.5.9-.5 1.3-.1 1.6-1.1 2.5-2.9 3-1.3.3-2.5.9-3.8 1.3-.8.3-1.4 0-2-.8-.4-.6-.9-1.3-.1-1.9 1.1-1 2.4-1.9 3.5-2.9.6-.5.1-2-.8-2.4-.7-.3-1.6-.5-2.3-.4-1.9.3-3.7 1-5.1 2.2-1.8 1.5-3.9 2.7-6.3 3.2-2.6.6-5.4.5-7.6 2.2-.3.2-1.1 0-1.6 0-1.8-.2-3.2.6-4.3 1.6-1.5 1.4-2.9 2.9-3.2 4.8-.3 1.8-1.1 3-2.8 4-1.6.9-3 2-4.3 3.2-.6.6-.7 1.5-1 2.4h.1v.4l-.2-.3c0-.1 0-.1.1-.2-.5-.1-1-.2-1.4-.4-1.4-1.1-2.9-2.2-4.2-3.3-1.8-1.6-4-2.3-6.5-2.8-3.3-.6-6.5-.6-9.5.9-.9.5-2 .8-2.9 1.2-2.2 1.1-4.4 1.8-6.9.5-4.5-.4-7.3-2.9-9.8-5.7-1.5-1.6-2.7-3.5-3.9-5.3-.4-.6-.6-1.3-.6-2-.1-2.3-.1-4.6 1.7-6.7.6-.7.9-1.7.9-2.6.1-2.4.8-4.5 1.6-6.8.8-2.2.6-4.6.7-6.9 0-.4-.4-.9-.8-1.1-.9-.4-2-.7-3-1l.2.2-.5.1.3-.3c-1.8-1.4-3.7-2.4-6.3-2.5-2.4-.1-4.9-.3-7.3-.8-2.8-.6-5.3.7-8.1.6-2.2-.1-4.4.3-6.5.3-1.3 0-2.7-.3-4-.5-.7-.1-.9-.7-.5-1 2.5-2.1 3.6-4.5 3.3-7.6-.1-1.4.3-2.8.5-4.2.1-.7.6-1.3 1.5-1.4 2-.1 2.9-1.1 3.3-2.6.4-1.6.8-3.2.7-4.8-.2-2.3.6-4.1 2.4-5.7 1.1-1 2.1-2.2 3-3.3.4-.6.7-1.3.9-1.9.5-1.2-1-3-2.5-3.1-3.3-.1-6.6-.5-9.7.6-2.6 1-5.3 1.1-8 1.2-2.5.1-4.1 1.2-5 3.1-.6 1.1-1.1 2.1-1.4 3.3-1 3.4-2.5 6.6-5.8 9-1 2.8-3 2.7-5.7 1.8-1.2-.4-2.7-.2-4 .1-2.6.6-5.2 1.6-7.8 2.1-2.1.4-4.4.5-6.1-1.2-1.3-1.3-3-2-4.9-2.5-2.3-.6-3.6-2.1-4.5-3.8-1.2-2.4-2.7-4.6-4.7-6.6-.9-.9-1.4-2-1.6-3.2-.4-2.1-.9-4.1-1.3-6.2-.2-1.4-.4-2.8-.3-4.2.3-4.9.9-9.8 2.2-14.6.2-.9.5-1.9 1.2-2.6 2-1.9 2.4-4.1 2.1-6.5-.4-3.3.5-6.5 1.7-9.6 1.1-2.8 3.3-5.2 6.6-5.7 4-.6 7.3-1.9 10.2-4.1 2.1-1.7 4.9-1.9 7.3-2.8 2-.7 4.3-.3 6.4.4 1.6.5 3.2.8 4.8.2 1.8-.7 3.4-.4 4.3.9 2 2.8 4.9 2.7 7.9 2.3 1.5-.2 3-1 4.4-1.5.4-1.3 1-2.6 1.1-4 .1-1.5 1.3-2 2.5-2.3 1-.3 2.1-.3 3.2-.5 3.8-.6 7.7.3 11.5.1 4.3-.2 8.1.6 11.1 3.5 1 1 2.5.8 3.8.4 1-.3 2-.8 3-1.1 1.1-.3 2.3-.1 3 .7 1.8 1.8 3.4 3.6 5.1 5.5.9 1 1.1 2.1.5 3.3-.3.7-.5 1.4-.8 2-.7 1.4-.8 2.7.5 3.9 1.1 3.9 3.7 7.2 5.4 10.9.8 1.7 2.4 3.1 3.8 4.5 1.3 1.3 4 1 5-.4 2-2.8 3.3-5.9 3.6-9.3.1-.5.1-1-.1-1.4-.6-1.8-1.5-3.5-2-5.3s-.5-3.7-.7-5.5c0-.2-.1-.5-.2-.7-2.5-5.4-2.2-11-1.6-16.6.1-.9.4-1.9 1.1-2.6 2.9-2.8 5.6-5.9 10.1-6.8.5-.1 1-.3 1.6-.5 1.6-.4 2.9-1.4 3.9-2.4.9-.9 1.6-1.9 2.5-2.8.7-.7 1.6-1.5 2.5-1.7 2-.5 3.4-1.5 4.8-2.6 2.2-1.8 4.7-3.1 7.8-3.7 1.5-.2 2.3-1.2 2.4-2.5 0-.9.8-1.1 1.5-1.5.9-.5 1.8-1 2.6-1.7.6-.5 1-1.2.6-1.9-.7-1-1.3-1.8-.6-3.2 1-1.7 1.3-3.5 0-5.4-.4-.6-.7-1.3-.6-2 .1-2.1.3-4.2.6-6.2 0-.1.4-.3.6-.3s.5.1.7.2c1.3.9.9 2.1 1 3.2 0 .3.6.7.9.9.1.1.6-.1.7-.3 1.4-1.7 2.9-3.4 4.2-5.2.5-.8.6-1.8.8-2.7.1-.7 0-1.4.1-2.1 0-.6.4-.8 1.1-.8 1.5.1 2.5-.7 3.5-1.6 2.3-2.1 4.1-4.5 4.6-7.3.5-2.5 2.1-3 4.5-3.1 1.6-.1 3.3-.4 4.8-.7.8-.2 1.5-.6 2.2-.9.2-.1.4-.4.4-.6s-.2-.5-.4-.6c-.5-.2-1-.3-1.6-.4-.8 0-1.1-.3-.9-.7 0-.1.5-.1.8-.1h.8c4.7.6 9.1-1.4 13.8-1.3.7 0 1.4-.7 2.1-1.1 1.7-1.1 1.6-1.6-.4-2.8-1.5-.9-2.4-2.3-2-3.4.6-1.6 1.1-3.2 1.9-4.6 1.4-2.6 3.5-4.7 6.8-5.8 1.8-.6 3.6-1.2 5-2.4 1.1-.9 2.4-1.3 3.8-1.2 3.7.3 6.9-1.2 10.4-1.7 1.3-.2 1.5-1.1 1.8-2 .2-.6 1.1-1.2 1.7-1.3 2.6-.6 5.3-1 8-1.5.2 0 .7.2.7.2-.1.4-.2 1-.5 1.1-.9.4-2 .7-3 1.1-2.3 1-4.1 2.4-5 4.5-.4.8-.6 1.9-.4 2.7.3 1.4 1.3 2.6 2.8 3.3.4.2 1.1.4 1.5.2 3.3-1.2 6.4-2.8 8.5-5.3 1.3-1.5 2.7-2.2 4.8-1.8 4.2-1.2 8.3-2.3 12.5-3.5 1.3-.4 2.6-.8 3.8-1.1.6-2.5 3.6-1.7 5.3-2.7.7-.4 1.5-.6 2.2-.9.5-.2.9-.5 1.4-.8s.9-1.6.5-1.9c-1.7-1.3-3.2-2.6-2.1-4.8.1-.2-.2-.4-.2-.7-.2-.5-1.6-1-2.1-.6-2.7 2-4.8 4.4-6.8 6.9-.8 1-1.4 1.2-2.6.9-.8-.2-1.6-.3-2.4-.4-.3.5-.8.8-1.5.6-.6-.1-1.1-.4-1.7-.7-.8-.1-1.5-.2-2.3-.3-1.9-.1-2.6-1.1-2.8-2.6-3-.2-4.5-1.6-4.9-4.3-.4-2.4-.4-4.5.8-6.7.5-.9-.1-1.6-1.5-1.9-.5-.1-1.1-.1-1.6-.1-.2 0-.5-.2-.7-.3.5-.1 1-.3 1.4-.4 2-.7 4-1.5 5.6-2.8.9-.7 1.3-2.2.7-3.2-.5-.8-1.1-1.7-1.9-2.2-2.3-1.4-4.9-2.2-7.7-1.6-7.3 1.6-14.7 2.8-21.1 6.6v.3c-.2 0-.3 0-.4.1-.9.8-1.8 1.6-2.7 2.4 0 .1 0 .2-.1.4-1.2.4-2.4.8-3.6 1.1-.6.4-1.3.9-1.9 1.3l-.2.4.1-.5c.6-.4 1.2-.8 1.8-1.3 1.2-.4 2.4-.7 3.5-1.1.1-.1.2-.2.3-.3.3-1.9.5-2.1 2.7-2.4.1-.1.2-.1.3-.2.1 0 .1-.1.2-.1-.1-1.2.5-2.1 1.5-2.8 2.7-2 5.8-3.5 9.2-4.5 2.1-.6 4.1-1.3 5-3.3.2-.4.5-.8.9-1.1 1.6-1.2 3.2-2.6 5-3.6 1.7-.9 3.7.1 5.6.1 7.6.1 15.2 1 22.8 1.9 3.3.4 6.4-.9 9.7-.4.7.1 1.6-.2 2.4-.4s1.5-.5 2.2-.8c2.1-1 4.1-2.3 5.5-4.1 1.1-1.4 2.8-2.1 4.8-2.4 1.4-.2 2.7-.5 4.1-.5 4.1-.1 7.2-1.9 10.3-3.8 1.6-1 2.6-2.5 1.7-4.3-.6-1.1-.8-2.1-.1-3.3.5-.8.9-1.7 1.1-2.6.1-.6 0-1.5-.4-2-1.3-1.8-3-3.2-5.8-2.9l-.5.2.4-.3h.1c-.1-.7-.1-1.4-.4-2-.4-1.2-1.3-2.1-2.8-2.3-.8-.1-1.6-.1-2.5-.2-.3 0-.5-.1-.8-.2.3-.2.6-.5 1-.7.7-.3 1.6-.4 2.3-.7 1-.4 1.2-1.5.5-2.4-.8-1-1.6-1.9-3.2-1.8-.5 0-1.4.1-1.6-.1-1.9-2.2-4.9-2.8-7.6-4-.5-.2-1-.6-1.1-1-.6-2.5-2.8-3.9-4.8-5.5-1-.8-1.8-1.8-2.6-2.7s-.9-1.8-.1-2.5c.9-.9 1.9-1.7 2.9-2.5.8-.8.9-1.7.3-2.5-1.2-1.6-2-3.2-1.5-5.2.1-.5-.6-1.3-1.1-1.7-1.1-.8-.3-2.3-1.7-3-1.1-.6-.1-1.7-.5-2.6-.4-1.1-.2-2.3-.4-3.4-.3-1.4-.6-2.8-1.2-4.1-1.4-3.1-2-6.3-2.5-9.5-.1-.9-.3-1.9-.6-2.8-.1-.3-.8-.5-1.2-.7-.2-.1-.6 0-.7.2-2 2.8-4.6 5.2-6.3 8.1-1.6 3-3.7 5.7-7.6 7-1 .3-1.6 1.2-2.6 1.7-1.2.6-2.4 1.1-3.7 1.5-1.4.5-2.7 0-3.8-.8-.9-.6-1.5-1.3-1.9-2.2-.5-1.2-1.5-1.9-2.7-2.5-1.8-.8-2-2.2-1.9-3.6.1-2.3 1.9-4.4.8-6.8-.2-.5.5-1.3.8-1.9 1-2.2 1.8-4.4 3.4-6.3.4-.5-.1-1.6-.9-1.7-2.5-.3-4-2.3-6.6-2.3-1 0-2-.8-2.9-1.2-.8-.4-1.1-1-1-1.7 0-.7.2-1.4-.4-2-1.4-1.4-2.6-3-3.3-4.8-.4-1.1-1.4-2-2.2-2.9-1.4-1.6-3.1-2.6-5.6-1.7-1 .3-2.2.5-3.2.3-3.2-.6-6.5-.5-9.3-2.4-1-.7-2.5-1-3.8-1.3-3.2-.8-6.7.9-7.9 3.6-.7 1.6-.9 3.2.2 4.7.8 1.1.9 2.2 0 3.3-1.3 1.5-3 2.9-3.8 4.5-.9 1.9 1.1 4 .6 6.1-.2.9 0 1.9.4 2.8.6 1.7-.4 2.6-1.9 3.4-.7.4-1.7.6-2 1.2-1.6 2.9-4.6 4.6-6.9 6.9-1.2 1.1-1.2 2.5 0 3.8.8.9 1.8 1.8 2.5 2.8.6.8 1.2 1.6 1.3 2.5.5 2.5.8 5.1 1.4 7.6.7 2.8-1.7 5.5-.5 8.3.1.2-.4.8-.8 1.1-1.1.7-2.4 1.2-3.3 2-3.3 2.9-7.4 4.8-11.8 6.3-2 .7-4.1 1.4-6.1 2.1-1.5.5-2.1 1.5-2.1 2.7.1 2.8.5 5.6-.1 8.4-.4 1.8-.7 3.7-.7 5.6-.1 1.8.3 3.7.3 5.5 0 .7-.1 1.4-.4 2-.7 1.3-1.5 2.5-2.4 3.7-.2.3-.9.7-1.3.6-2-.4-2.9.9-4.2 1.7-.8.5-2.5.2-2.9-.5-.4-.6-.6-1.3-1-1.9-.5-1.1-.8-2.4-1.7-3.1-2.8-2.1-3.7-5.2-5.5-7.7-.6-.9-.5-1.8.1-2.6 1.8-3.2 3.6-6.3 3.4-10-.1-1.1.7-2.2 1.1-3.3s.8-2.2 1.2-3.3c.2-.5-.6-1.7-1.1-1.7-4.4-.3-8.5-1.8-12.9-1.7-1.1 0-2.2-.4-2.9-1.2-2-2.3-4.5-4.1-7.5-5.3-2.8-1.2-4.9-2.9-6.3-5.3-1.5-2.6-4-4.5-6.9-5.9-2.6-1.3-5.2-2.6-7.8-3.8-1.2-.6-2.6-.8-4-.5-2.3.5-4.5 1.4-6.9 1.1 0 .1-.1.1-.1.2l-.3.2.1-.4h.3c1.3-1.7 2.3-3.5 2-5.7-.3-2.5-.2-5.1-.3-7.7 0-.9-.2-1.9-.5-2.7-.1-.4-.7-.8-1.1-.9-1-.2-2.1-.2-3.2-.3-1.2-.1-2.1-.6-2.3-1.5-.2-.7-.4-1.4-.2-2 .4-1.3 1.2-2.6 1.6-4 1.5-5.8 4.1-11 9.7-14.9 1.2-.9 2.1-2.1 3.1-3.2 2.9-3.3 5.6-6.9 10.7-8.3 2.1-1.7 4.8-3 5.6-5.7.2-.7.8-1.2 1.8-1 1.1.2 2.1.4 3.2.5 2.6.1 4.8-1.6 4.9-3.7 0-1.1-.1-2.2-.2-3.3-.1 0-.1 0-.2 0-.1-.1-.3-.2-.4-.3.2 0 .4.1.6.1v.2c3.7.2 6.8-.5 8.3-3.9.3-.7 1.2-.9 2.1-.6 1.3.4 2.5.9 3.8 1.3s2.7.4 3.8-.4c4.2-3.3 8.3-6.6 12.4-10 .3-.3.5-.9.5-1.3-.1-1 .3-1.8 1.2-2.4 1.9-1.3 3.8-2.6 5.6-3.9.5-.4 1-.9 1.5-1.3 0 0 .1-.1.1-.1.4-.3.7-.6 1.1-.9 2.1-1.7 2.1-1.8.7-4.1-.1-.2-.2-.4-.3-.6-.2-.5 0-1 .6-1.1 2.5-.3 4.9-.4 5.9 2.2.1.2.4.4.6.4 3.9 1.4 7.9 1.8 11.8.2 2.7-1.1 5.3-2.4 7.5-4.2.8-.6 1.7-1.3 2.7-1.5 2.2-.4 3.1-1.8 4-3.2.7-1 1-2.2.6-3.3-.3-.9-.5-1.8-1-2.7-.8-1.4-.8-2.6-.3-4.1.4-1.3.7-2.7 1-4-.1 0-.1 0-.2 0l-.4-.1.6.1v.1c1 .1 2 .4 3 .3 3.1-.2 4.2-1.1 4.3-3.8.1-1 .2-1.8.9-2.5 1.3-1.3.4-2.5-.4-3.6-2.1-.7-3.3-2-3.2-4 0-1.6-.8-2.5-2.9-2.4-1.6 0-2-1-2.2-2.1-1.9.1-3.5-.4-4.9-1.4v-.1c-.1 0-.1 0-.2 0l.2.2c-.5.1-1 .4-1.6.3-2.5 0-4.1 1-4.7 3.1-.5 2-2.1 3.8-1.3 6 .2.5.2.9-.3 1.3-1 .8-1.9 1.6-2.8 2.4-2.6.2-3.6 1.8-4.5 3.5-.5 1-1.2 2.1-2 3-.6.8-1.6 1.1-2.7 1.2 0 .1.1.1.1.2-.1.1-.2.2-.3.3.1-.2.1-.3.1-.5h.1c-.4-.8-.7-1.6-1.8-1.9-.9-.2-1.8.8-2.2 2.5-.3.9-.3 1.8.1 2.7.5 1 0 1.8-.6 2.6-.5.7-2 1.2-2.9.9-.7-.3-1.5-.8-1.7-1.3-.5-1.3-.8-2.7-1-4.1-.4-2.7.2-5.1 2.8-6.9.9-.6 1.1-1.5 1.3-2.5.6-3.2-.7-6-2.5-8.7-.3-.5-1.6-.5-2.2 0-1.6 1.6-3.4 3.1-4.1 5.2-.4 1.2-1.4 2-2.5 2.7-.2.1-.5.3-.7.3-.6 0-1-.3-.8-.8.9-2.2 1.7-4.4 1.4-6.8-.1-1.3 1.1-1.3 2-1.7 1.5-.6 1.7-1.9.4-2.7-1.3-.9-2.5-1.9-4.2-2-1.4-.1-2.6-.7-3.7-1.4-.6-.4-.8-.7-.3-1.2 1.4-1.4 2.9-2.7 4.4-4.1.3-.3 1-.3 1.4-.4 2-.6 2.5-1.1 2.2-2.3-1.2-4.4-2-8.7.1-13.1.3-.6.3-1.4.1-2.1-1.1-2.7-.6-5.6-2.1-8.2-.6-1 0-1.7 1.1-2.3 2-1.2 3.9-2.6 5.8-3.8 1.4-.9 2.1-2.1 2.3-3.6.1-.4.3-.9.6-1.3.3-.3 1-.7 1.3-.6 1.3.4 2.5.9 3.7 1.5 1.7.8 3.2.5 4.6-.3.9-.5 1.8-1.1 2.6-1.7 3.8-3 7.6-6.1 11.3-9.2.8-.6 1.4-1.5 2-2.2.8-1 0-3.2-1.2-3.7-.2-.1-.5-.3-.7-.3-3.4-.2-6.1-1.7-8.7-3.4-.8-.5-1.9-.9-3-1-2.4-.4-4.9-.5-7.3 0-.8.1-1.6.5-2.1.9-1.3 1.2-2 2.8-4.1 3.2-1 1.4-2 2.8-3 4.2-1.5 2.2-2.9 4.5-4.2 6.8-.7 1.2-1.5 2.6-1.5 4 0 3.2-1.7 5.8-2.9 8.7-.3.7-.7 1.1-1.4 1.6-1.6.9-3.1 1.9-4.7 2.8-1.4.8-1.1 1.9-1.1 3h.2v.3c.1.1.2.1.3.2-.2.2-.3.1-.3-.2-.1 0-.2-.1-.2-.1v-.1c-1.2.3-2.6.4-3.6.9-3.6 2-5.7 4.9-6.3 8.5-.2 1.4-.5 2.7-1.8 3.7-.4.3-.8.7-1.1 1-1.3 1.3-1.8 2.8-1.6 4.5.2 1.6.5 3.2 1.8 4.5.6.6.9 1.5 1.3 2.3.7.2 1.5.3 2.1.6 1.6.8 3.1 1.8 4.7 2.7.2.1.5.3.5.5 0 .4-.4.6-1 .7-.8.1-1.7.2-2.2.7-1.3 1.2-2.3 2.5-3.5 3.8-.7.7-.2 1.6 1 2.2.4.2.9.2 1.4.3v-.1l.6-.2-.4.3c-.1 0-.1 0-.2 0 .2.9.2 1.8-.6 2.5-1.3 1.2-2.8 2.3-4.2 3.3-1.7 1.2-3.5 2.2-5.9 2.2-3 0-4.3 1.8-4.9 4-.5 1.6-.6 3.2-1 4.8-.1.3-.5.6-.7.9-.2-.2-.4-.3-.6-.5-.6-.8-1.2-1.5-1.8-2.3-1-1.3-1-1.9.1-3.1 1.5-1.7 2.9-3.4 4.4-5 .4-.5 0-1.6-.7-1.7-2.8-.2-3.6-1.7-3.8-3.8-.2-.2-.5-.4-.7-.6.2.2.5.4.7.6.1.1.2.1.3.2l-.3-.2c1.1.2 2.1.4 3.2.7s2.1.4 3.2 0c1.7-.7 3.5-1.3 5.2-2 .4-.2.7-.7.7-1.1 0-1.6-.2-3.2-.3-4.9-.1-1.3-.1-1.5 1.7-1.7 2.6-.4 2.6-1.9 2.7-3.4-.4 0-.9 0-1.3 0-3.7.2-6.4-.9-7.6-4-.2-.4-.5-.8-.8-1.2s-1.8-.6-2.2-.3c-1 .8-2.1 1.5-2.9 2.4-2.1 2.5-4.6 4.5-8.4 4.9-.5.1-1 .4-1.4.7-.2.1-.4.3-.6.5-.5.4-.6 1.5 0 1.9 2.8 1.8 5.9 3.3 7.4 6.3l-.3-.2c.1.1.2.1.2.2-1.3.2-2.6.6-3.9.6-1.5 0-2.6.1-3.3 1.4-.4.8-1.4 1.4-2.1 2-.6.5-1.2.9-1.2 1.7 0 .7 0 1.4-.8 1.8-1 .5-2.1.4-3.1 0s-2-.8-3-1.2c-1.8-.6-3.7-.9-5.6-.2-.7.3-1.6.4-2.4.5-1.1.2-2.2 0-3.2-.4-1.7-.8-3.5-1.6-4.3-3.1-1.1-2.2-3.1-3.1-5.6-3.6-1.1-.2-1.9-.9-2.3-1.9-.8-2.2-2.2-4.3-1.8-6.7.1-.7 0-1.4-.1-2.1-.2-1.6-2.2-3.2-4-2.9-3.8.5-7.5 1-11.4 1.2-1.7.1-2.8 1.3-3.5 2.7-.5.9 0 2.3 1.3 3.1.7.5 1.5.6 2.3.2.5-.2.8-.7 1.3-.8 1.6-.3 3.3-.3 4.9-.6s3.1-.9 4.6-1.3c.3-.1.7.4 1 .7.1.1-.2.5-.4.6-1.5.5-3.2.8-4.5 1.6-1.8 1.1-3.7 1.9-5.9 2.2-1.1.1-2.1.5-3.1.9-1.6.5-2.8 1.4-3.3 2.9-.8 2.2-1.5 4.5-1.8 6.8-.1.6-.6 1.3-1.2 1.8-.5.4-1.5 1-2 .8-1-.3-.5-1.2-.1-1.8.7-1.1.7-2.2 0-3.3-.8-1.5-1.6-3-2.4-4.4-.7-1.3-1.4-2.5-2.2-3.8-.4-.7-1.9-1.4-2.8-1.2-1.1.2-2.1.5-3.2.7-8.2 1.6-15.7.2-22.4-4.3-.5-.3-.5-1.3-.1-1.9.9-1.3 2-2.2 3.9-2.2h2.5c3.4 0 5-1.5 4.3-4.3-.3-1.3-1-2.7-1.7-3.9-1.1-1.8-3-3-5.3-2.8-3 .3-5.3-.7-7.5-2.1-3-2-5.9-4.2-9-6.1-2.1-1.3-3.7-2.7-4.1-5-.5-2.9-2.9-4.3-5.8-5.4-2.6-.9-4.7-.7-6.6 1.2-.7.7-1.5 1.4-2.5 1.8-.7.3-1.6.3-2.4.4-.9 0-1.8-.9-1.3-1.4 2.2-2.3 2.7-5 3.2-7.7 0-.2-.2-.4-.4-.5s-.5-.3-.7-.2c-.7.3-1.5.5-2.1 1-2.3 1.6-4.6 3.3-6.9 5-.3.3-1.1.3-1.5.2s-.9-.6-1-1c-.4-1.9-.3-3.7.3-5.6 1-3.2 1.2-6.5.9-9.7-.1-.7-.3-1.4-.7-2-.1-.2-1-.3-1.3-.2-1.3.7-1.6 1.8-1.7 3s-.6 2.2-2 2.9c-1.7.8-3.3 1.7-4.9 2.5-1.1.5-2.1.2-3-.5-.3-.3-.7-.5-1-.8-.2 0-.4 0-.6.1-.5.3-.9.6-1.4.8-.2.1-.6.1-.7 0-.5-.3-.4-.5.5-.6.6 0 1.1-.1 1.6-.2.1-.1.3-.2.4-.3.1 0 .1.1.2.1.2-.7.5-1.3.7-2 .2-.8-.3-1.5-1-1.7-1.8-.5-3.7-.8-5.6-.2-4 1.4-8.1 2.5-12.6 2.7-1.3 0-2.8.4-3.8 1.1-2.3 1.6-4.9 1.5-7.5 1.2-.1 0-.1.1-.2.1l-.2.3.2-.5h.2c.1-.1.3-.2.4-.4.7-.8.9-1.6.1-2.5-.7-.8-1.4-.9-2.8-.2-.9.4-1.7 1-2.9 1.1-1.9.2-3.7.6-5.5 1.1-2.1.7-3.7 1.8-4.1 3.9-.2.9-1 1.2-1.6.9-1.1-.7-2.2-1.3-3.4-2-1.6-1-2.7-2.2-3.3-3.9-.5-1.6-1.1-3.1-1.8-4.6-.5-1.1-1.1-2-1.7-3.1-1.8-1.7-4.3-2.8-6.5-4-3.4-1.9-6.8-4-8.2-7.6-.2-.4-.6-.8-.9-1.2-.7-.8-1.6-1.3-2.7-1.4s-2.2-.1-3.3-.1c-2.3.1-4.2-.7-6-2-2.5-1.8-4.9-3.6-8.2-4.6-1.5-.4-2.7-1.6-3.9-2.5-1.4-1.1-2.4-2.4-3.2-4s-2.6-2.3-4.8-2c-1.3.2-2.7.6-4 .8-.9.1-1.6-.2-2.1-.8-1.3-1.8-1.2-4-2.5-5.8-.2-.2.2-.9.5-1.2.6-.6.9-1.3.6-1.9s-.9-1.2-1.6-1.5c-1.2-.5-2.5-.9-3.8-1.2-.8-.2-1.6-.2-2.4-.3-1.2-.2-1.5-.5-1.3-2 .2-1.2.3-2.2-1.2-2.8v.1c-.2 0-.4 0-.6 0-.8.2-1.6.5-2.4.7-.3.2-.6.3-.9.5-.1 0-.2 0-.2 0-.1.4-.1.8-.3 1.2-.6 1-1.5 1.3-2.6.6-.4-.2-.5-.8-.7-1.2 0-.1.4-.4.6-.4 1-.1 2-.2 3-.3 0-.1 0-.1 0-.2.4-.1.7-.2 1.1-.3.7-.4 1.5-.7 2.4-.7.1 0 .3-.1.4-.1s.1.1.1.1c-.6-1.8-1.6-3.4-3.3-4.7-.9-.7-1.8-.9-3-.6-1.8.5-3.6 1-5.2 2.1-2.4 1.6-5 1.7-7.8 1-1.6-.4-3.2-.8-4.7-1.2-2.7-.7-4.8.3-6.6 1.8-.6.5-.7 1.3-1.2 1.8s-1.2 1.2-1.8 1.3c-2.1.3-4.2 1.1-6.5.6-3.2-.8-6.1.1-8.6 1.5-4.8 2.7-10 4.9-14.1 8.4-.6.5-1.2 1-1.9 1.3-5.3 2.6-10.7 5-17 2-.2-.1-.5-.2-.8-.3-2.5-.8-3.9-.5-5.8 1.4-1.2 1.2-2.2 2.7-3.7 3.8-2.2 1.6-2.8 3.3-1.7 5.5.7 1.5 1 3.2 1.7 4.7 1.8 4.4 2.4 8.6-.5 12.9-.6.9.1 2.4 1.3 3.1 1.3.8 2.8 1.3 4.2 2.1.3.2.3.8.4 1.2 0 0-.4.2-.7.2-.9.1-1.7.3-1.9 1.1-.3 1.8-.4 3.7-.5 5.6 0 .3.7.8 1.1.9.6.1 1.4.1 2.1.1 0-.1.1-.2.1-.3.1 0 .2.1.3.1.1-.4.1-.8.2-1.2h-.1l-.3-.3.5.2v.1c2.3-.5 4.6-.2 6.8.6.6.2 1 1.2.6 1.8-.2.3-.8.7-1.2.6-2.3-.1-4.4-1-6.4-1.7v.2c-.1 0-.2 0-.4 0-.3.8-.2 1.8-1.5 1.9-1.7.2-3.2.6-4.5 1.5-1.5 1-3.1.8-4.7.2-1.7-.7-3.4-1.6-5-2.4-1.1-.5-1.4-1.5-.7-2.3.6-.8 1.3-1.5 1.9-2.3 1.2-1.6-.6-3.5-2.4-3.5-2.2 0-4.4 0-6.5.3-1.3.2-2.9.7-3.6 1.5-1.3 1.4-2.6 1.3-4.3 1.1-1.3-.1-2.7.3-4 .5-3.9.5-6.9 2.8-10.5 3.9-1.3.4-1.8 1.9-.9 2.9 1.2 1.5 2.6 3 3.9 4.5.4.5.1.9-1.2 1.4-.5.2-1.3.3-1.3.6-.5 2.3-2 4.3-2.8 6.5-.3.8-.1 2 .4 2.7 1.9 2.4 4.3 4.4 8.1 3.8 3.1-.5 6-.2 8.5 1.6 1.4.9 2.8 1.1 4.6.4 2.7-1.1 5.5-2.1 8.3-3 .7-.2 1.6.1 2.4.2.2 0 .4.3.5.5s.1.5-.1.6c-.4.3-.9.6-1.4.7-1.4.3-2.6.7-2.1 2.3.2.6.2 1.5-.1 2-1.1 1.9-2.1 3.7-2.6 5.9-.5 2.3-4.6 4.7-7.4 4.7-.5 0-1.1-.2-1.5-.4-.9-.5-1.8-1-2.6-1.6-.6-.4-1.1-1.4-1.7-1.4-.9 0-.7 1-1 1.6-1.2 2.7-3.7 4-6.8 4.4-.5.1-1.1-.2-1.5-.5s-.6-.8-.9-1.1c-1.4-1.8-3-2.2-4.7-1.4-3.1 1.5-6.3 3-7.3 6.3-.1.4-.5.9-.9 1.1-4.9 2.3-8.1 6.2-12.5 8.9-3 1.9-4 4.3-3 7.4.3 1.1.6 2.3 1 3.4.4 1.2.3 2.4-.8 3.3-2.5 2.1-2.7 4.5-1.7 7.1.5 1.6.9 3.2 1.4 4.8.3 1 1.2 1.6 2.3 1.9 1 .3 2.2.6 3.2.4 2.1-.4 4.1-.8 6.3-.6 0-.1 0-.1 0-.2.1-.1.1-.3.2-.4 0-.5.1-1 .1-1.4 0-.2 0-.6.1-.7.5-.3.8 0 .5.6-.2.5-.5 1-.7 1.5v.6c-.1 0-.1 0-.2 0-.2 1.1-.5 2.2-.6 3.3 0 1.8-1.1 3.1-2.6 4.2-1.2.9-1.2 2-.5 3.2.6 1 .3 1.8-.2 2.7-.3.6-.9 1.1-1.3 1.7-.6.8-.4 1.4.4 1.6 2.4.7 4.8 1.2 6.3-1.3.1-.2.6-.3.7-.3 2.1 1.8 5 2.9 5.7 5.7.2.8 1.2.8 1.8.2.2-.2.3-.4.5-.6 1.3-1.4 1.3-1.3 3.8-.5.7.2 1.6.3 2.3.3.8 0 1.6-.3 2.4-.4.2 0 .5 0 .8.1.5.3.5.7-.1 1.1-2.3 1.4-3.7 3.2-5 5.4-2.9 4.8-6.6 9.1-12.5 11.7-1.9.8-3.5 2.1-5.6 2.8-3.3 1.1-6.3 2.9-9.4 4.2-2 .9-3.7 2-4.9 3.6-.7.9-1.7 1-2.9.6-2.5-.8-4.9-.2-7.1 1-1.9 1-3.7 2.1-5.3 3.3-2.8 2.1-5.9 3.4-9.6 3.5-1.4.1-2.7.3-4.1.4-2.8.2-4.3 1.9-5.8 3.5-.2.3-.1.9.1 1.3.3.3.8.7 1.3.7.8 0 1.7-.1 2.4-.3 1.6-.6 3.3-.1 4.9-.4 1.1-.2 2.4-.4 3-1 1.8-1.7 4-2.3 6.6-2.3 3.5-.1 6.2-1.6 7.8-4.3 0-.1-.1-.1-.1-.2l.5-.2-.3.3v.1c.7.9 1.3 1.9 2 2.8.5.7.5.7 1.4-.6.3-.4.5-1.1.8-1.1 2.4-.3 4.7-1.4 7.1-1.1 1.1.1 2.1.5 2.9-.2 1.2-1 2.8-1.4 4.3-1.9 2.4-.9 5.4-1.3 6.5-3.8 1.9-.9 3.7-2 5.6-2.8.6-.3 1.5.1 2.3.2.4-.6.7-1.4 1.2-1.5 1.9-.4 3.4-1.4 5.2-2 1.9-.6 3.3-1.6 4-3.2.3-.6 1-1.1 1.6-1.5 3.7-2 7.5-4 11.7-4.9 3.2-.7 5.4-1.9 7.2-4.1.8-.9 2.1-1.4 3.3-2 .9-.5 1.9-.9 2.9-1.4 1.6-.8 2.1-2.2 1.3-3.6-.3-.6-.9-1.2-1.2-1.8-.6-1-.4-1.8.5-2.5 1.6-1.5 3.6-2.2 5.9-1.8 1.5.3 2.6 0 3.7-.8 1.7-1.2 3.5-2.1 4.1-4.2.3-1.1 1.7-1.8 3.1-1.9 1.2-.1 2.2-.4 2.8-1.3 2.8-4.2 7.8-5.6 12.4-7.5 1.5-.6 3.3.5 3.4 2 .1.7.1 1.4-.1 2.1-.1.3-.9.7-1.1.6-3.2-1.5-6.3-1.2-9.2.5-.7.4-1.4.8-1.7 1.4-1.5 3.4-4.5 5.8-7.2 8.4-1 .9-1.2 2.1.1 3.1.6.5.6.8-.1 1.1-1.5.6-2.9 1.3-4.3 1.9-.6.3-.9 1.4-.5 1.9s1.2 1.2 1.8 1.2c1.3 0 2.8-.2 3.9-.8 2.4-1.2 4.9-2 7.6-2.6 1-.3 2.1-.6 3.1-1 2.4-1.1 4.8-2.2 7.7-1.7.7.1 1.5-.4 2.2-.7 1.3-.5 2.1-1.4 3-2.3.8-.9 1.8-.6 2.6.1h1.6c.4-1 .8-1.9-.6-2.8-.8-.5-1.3-1.4-1.7-2.2-.7-1.4-.1-2.6 1.2-3.6.8-.6 1.6-.6 1.9.1.6 1.4 1.3 2.4 3.4 2 1.3-.2 2.6-.2 3.9-.3v-.1l.3-.2-.2.4h-.1c0 .7-.1 1.3.1 2 .7 2.6 1.9 4.9 5.2 5.8 2 .5 3.1 1.9 4 3.4.4.6.5 1.3.9 2 .5.8 1.4 1.4 2.6 1.6 1.1.2 2.2.3 3.3.3 2.6 0 4.8.7 6.7 2.2.6.4 1.4.7 2.1 1.1 0 0-.1-.1-.1-.1l.3-.2-.2.3s0 0-.1 0c.5.5.9 1.1 1.4 1.5 1.8 1.6 3.8 2.7 6.6 2 .2-.1.5 0 .8.1.6.2.9.8.5 1.1-1.7 1.5-1.6 2.8 0 4.2.8.7 1.3 1.6 2.2 2 1.2.6 2.3 1.1 2.2 2.5 0 .9.2 1.8.4 2.8.4 2.1 1.5 4 3.2 5.6 1 .9 2.2 1.4 3.7 1.2 1.1-.1 2-1 1.8-1.9-.2-.7-.5-1.3-.7-2-.1-.2-.1-.5.1-.7.3-.5.7-.3 1 .3.4.9 1.1 1.7 1.1 2.6.1 1.6 1.3 2.5 2.3 3.6.1.1.3.5.2.6-.3.5-.8.6-1.4.2-.5-.3-.9-.5-1.4-.7-1.7-.4-3.4.3-4.1 1.5-.7 1.3-1.2 2.6-.9 4.1.3 1.4.6 2.8.9 4.1l-.2-.2v.4c.1-.1.1-.1.2-.2 1 1.1 1.6 2.3 1 3.7-1 2.2-1.1 4.5-.8 6.9 0 .2.3.6.4.5.5-.1 1.2-.1 1.3-.4 1-1.5 1.8-3 2.7-4.5 0-.2 0-.4.1-.7h.4c.8-.9 1.9-1.1 3.1-1.1 0-.1.1-.1.2-.2h.2c0-.2 0-.4.1-.5 2.2-2.6 4.5-5.1 5.7-8.2.1-.2.8-.2 1.3-.2.2 0 .4.3.4.5 0 .7.1 1.4-.2 2-.6 1.5-1.2 3-2 4.5-.6 1.2.1 2 .8 2.9h.3v.4c.6.7 1 1.5 1.1 2.4.1.1.1.1.3.2l.2.3-.3-.2c0-.1-.1-.2-.1-.3-1-.6-1.1-1.5-1.1-2.4-.1-.1-.1-.2-.2-.3 0-.1-.1-.1-.2-.2-.9-.1-1.8-.2-2.7-.5-1.2-.4-2.4-.5-3.6-.5v.1c-.1 0-.2 0-.3 0-.8 1-1.9 1.1-3.1 1.1-.1.1-.1.1-.2.2-.1.2-.2.3-.3.5-.2 2 .1 4.1-1 6-.4.7.4 1.7 1.6 2 .4.1.9.1 1.3.2v-.1c.2-.1.3-.3.5-.4.1-.3.3-.6.4-1 .1.2.2.4.1.5-.2.2-.4.3-.6.5-.1.2-.2.4-.3.6-.1 0-.2 0-.2 0-.1.7-.5 1.4-.2 1.9.8 1 1.4 1.9.8 3.2-.4.9-.6 1.8-.8 2.7-.1.7-.4 1.5-.1 2 1.3 1.6 1 3.6 2.1 5.2.2.3.9.6 1.3.6.5 0 1.1-.3 1.3-.7 1.1-2 2.3-4.1 2.4-6.4-.1 0-.1 0-.2 0 0-.1 0-.2-.1-.4-.2-.1-.3-.2-.5-.3.1 0 .4.1.4.1v.2c.1.1.2.1.3.2v.2h1.5c0-.1-.1-.1-.1-.2l.3-.3c0 .2-.1.3-.1.5h-.1c.6.8 1.1 1.6 1.7 2.5.1 0 .1-.1.2-.1 0 .2.1.4.1.5.2.3.4.6.4.9 0 .6-.3.6-.4 0-.1-.2 0-.5 0-.7v-.1c-.1-.1-.2-.2-.3-.4-1.2.6-1.5 1.6-1.2 2.8.2 1 .9 1.7 1.9 2.2.7.3 1.6.3 2.3.4 1 .2 1.4.8.7 1.4-1.5 1.4-2.6 2.9-2.7 4.9 0 .9-1.2.8-1.9 1.1-1 .4-1.1.9-.4 1.5 1.9 1.7 1.8 2.5-.6 3.4-.6.2-1.1.3-.9.9.4 1.6 2 2.7 3.4 2.3 1.8-.5 3.5-1.3 5.5-1.2.2 0 .7.1.7.3 0 .4.1.9-.1 1.2-.7.7-1.6 1.3-2.4 1.9-1.6 1.2-2.1 2.7-2.1 4.4 0 .4.6.7.9 1-.1-.1-.1-.1-.2-.2h.4c.1-.1.2-.2.3-.3.3.2.1.3-.3.3-.1.1-.1.2-.2.2 1.3 1.2 2.7 2.5 4 3.7.8.7 1 1.6.6 2.5-.3.8-.8 1.5-1.3 2.2 0 0-.1 0-.1-.1v.2l.2-.1c-.1.7-.4 1.4-.1 2.1.5 1.2.5 2.2-.5 3.2-.2.2-.2.4-.3.6l2.3 4.1c1.5.6 2.9 1.3 3.9 2.5s2.3 1.9 3.9 2.5c1.3.4 2.5 1 3.7 1.6.7.4 1.2 1 .9 1.7-.6 1.4-.9 2.7-.4 4.1.2.5.7 1 1.2 1.5l.4-.1-.2.2c-.1-.1-.1-.1-.2-.2.1.5.2.9.3 1.4.7.1 1.5.2 2.2.3 1.1.2 2 .6 2.4 1.6.6 1.5 1.2 3.1 2.1 4.5 1 1.5.2 2.7-.5 4-.2.4-.6.8-1 1.1-.6.4-1.5.9-2.1.8-2.3-.6-4.9-.8-6.6-2.5l.3.2c-.1-.1-.1-.1-.2-.2.8.1 1.5.3 2.3.3 1.6 0 2.4-.8 2.6-2.1.3-2.7-.4-5.3-1.6-7.9-1.2-.5-2.3-.9-2.7-2.2-.3-1.1-.9-2.2-1.2-3.4-.7-2.5-2.5-4.2-5.4-4.8-2.2-.5-4-1.5-5.7-2.7-1.1-.7-2.1-1.6-3.2-2.2-.7-.3-1.5-.4-2.3-.5-.7-.1-1.8.7-1.7 1.2.3 1.4.8 2.7.7 4.1-.1.6.4 1.4.8 1.9 1.1 1.3 2.6 2.4 3.6 3.8 3.1 4.1 7.4 7.5 10.5 11.6.4.6 1.2.9 1.8 1.4l-.2-.1c.1 0 .1.1.2.1-2.2.8-3.6 2.1-3.6 4.2-.1 3-.2 6.1.1 9.1.3 3.8-.7 7.4-2.3 11-1.6 3.7-3.7 7.3-4.8 11.2-1 3.6-2.5 7.2-5.1 10.3-2.3 2.8-2.9 6-2.9 9.3 0 .7.1 1.4.1 2.1.2 3.8-.4 7.5-3.1 10.7-.8 1-1 2.2-.3 3.4 1.4 2.4 1.8 4.8 1 7.5-.3 1.1-.1 2.3-.1 3.5 0 .7.1 1.4.4 2 .9 1.9 1.9 3.9 3 5.7.3.6 1.1 1 1.8 1.3 1.5.8 1.6.8 1.1 1.9-.3.7-.7 1.3-.9 1.9-.2.7-.3 1.4-.1 2.1.8 2 2.1 3.8 1.1 6-.2.5.1 1.4.5 2 1.3 2.6 2.7 5.1 4.1 7.7.7 1.3 1.1 2.6.9 4-.2 1.6.4 2.5 1.9 2.7 4.8.6 8.4 3.3 12.3 5.4 3.3 1.7 5.2 4 5.4 7.4.1 2.6 1 5 1.9 7.5 1.4 4.3 3.8 8.3 4.4 12.7.2 1.4 1.2 2.6 2.5 3.5 2.6 1.8 4.2 4.3 5.8 6.8.9 1.4.6 2.7-.2 4-.6 1-1.6 1.1-2.8 1.1-.3 0-.5.1-.8.1-.7.2-1.2 1.2-.9 1.7 1.3 2.1 3.2 3.9 5.7 4.9 3.3 1.3 5.7 3.6 8.3 5.6 1.1.8 1.5 2 1.5 3.2s-.1 2.3-.4 3.5c-.4 1.5.1 2.6 1.4 3.7 4 3.5 8.8 6.3 11.4 10.9.4.8 2 .8 2.9.1 1.2-.8 1.7-2.1 1.4-3.1-.5-1.6-1.6-3-2.8-4.2-1.1-1.1-4.4-5.9-4.9-7.3-.4-1.1-1-2.2-1.3-3.3-.5-1.8-.6-3.7-1.1-5.5-.5-2.1-3-3.2-3.9-5.3-1.2-3.1-2.8-6.1-4.8-8.8-2.2-3-3.7-6.3-6.3-9-.5-.5-.9-1.2-1-1.9-.5-3.5-1.2-7 0-10.4.2-.6.6-.8 1.2-.6 1.5.6 3 1.1 4.4 1.7 1.5.6 2.5 1.5 2.9 3.1.6 3 1 6 2.3 8.9 2 4.4 4.7 8.5 8.2 12.1.7.7 1.7 1.4 1.9 2.2.6 2.2 2.4 3.6 4.3 5 1.2.9 2.5 1.8 3.7 2.8.6.5.8 1.2.2 1.9-.3.4-.6.8-.9 1.2-.7 1.1-.6 2.4.6 3.2 1.5 1 3.1 2 4.8 2.7 1.9.8 3 1.8 3.2 3.7.1.8 1 1.6 1.8 2.2 8.4 7.5 10.7 11.3 13.3 19.7.2.6.1 1.4-.1 2.1-.3.9-.7 1.8-1.4 2.5-1.9 2.3-1.1 4.3.3 6.5 1.2 1.9 2.8 3.5 5.3 4.2 2.4.7 4.4 2 5.8 3.7 1.6 1.9 3.7 2.7 6.1 3.2 1.1.2 2.2.3 3.2.6s2.1.6 2.9 1.2c3.5 2.7 7.4 4.7 12.1 5.8 2.4.5 4.6 1.5 6.7 2.6 2.4 1.2 5 1.9 7.6 2.6 9.1 2.4 9.1 2.4 18.2-.5 2.6-.8 5.1-.6 6.9.9 4.1 3.4 9.2 5.9 12.9 9.8 1.6 1.7 3.8 2.7 6.4 2.9 3.6.3 6.9 1.3 10.3 2.2 3.9 1.1 7.7 2.5 12 2.2.9-.1 1.6.4 1.9 1.1.9 2 2.8 3.5 4.4 5.1 1.8 1.8 3.7 3.5 5.3 5.4.9 1.1 1.6 2.4 1.1 3.9-.9 2.3.6 3.5 3 4.1 1 .3 2.1.6 3.1.6.9 0 1.7 0 2.3.4 1.9 1.3 4.1 2.4 4.7 4.7.6 2.5 3 3.1 5.5 3.5.8.1 1.7 0 2.4-.2 2.7-.8 5.1 0 6.7 1.6 1.5 1.5 3.5 2.1 5.2 3.4 1.8 1.4 2.8 1.2 5-.3 1-.6 1.3-1.5.8-2.5-.3-.6-.7-1.5 0-1.9 2.1-1.2 3.3-3 4.9-4.6.3-.3 1.6-.3 2.2 0 2.3.9 4.1 2.5 4.3 4.8.2 1.7.7 3.2 2 4.5 1.6 1.6 1.9 3.9 3.7 5.4.5.4.6 1.3.6 1.9 0 3 .2 6.1-.2 9.1-.2 1.8-.1 3.2 1.2 4.6.6.6.3 1.4-.1 2-1.6 2.2-3.2 4.4-6.1 5.5-3 1.1-4.8 3-5.6 5.7-.4 1.5-1.5 2.5-3 3.1s-2.9 1.3-4.3 2c-.4.2-.7.7-.8 1.2-1.5 5.8-1.5 5.8-4.2 9.7-.3.4-.8.8-.8 1.2-.2 2.3-.7 4.7-.2 6.9.4 1.8 2.5 2.9 4.5 3.7.1 0 .5-.2.6-.4.3-.3.6-.7.9-1.1.1.4.4.7.4 1.1 0 1.2-.5 2.3-1.6 3.1-1.5 1-3.2 1.8-4.7 2.8-2.2 1.6-3.6 3.5-2.6 6.2.4 1.1.7 2.3.9 3.4.1.7 0 1.4-.3 2-.6 1.4.1 2.3 1.3 2.9 1.6.9 3.3 1.6 5 2.4 2 .9 3.7 2 4.6 3.9.7 1.6 1.8 2.8 3.3 3.9.8.6 1.6 1.4 1.9 2.2 1 3 3.2 5.5 4.3 8.3 1.6 3.8 4 7.1 6.6 10.4 2.7 3.5 5.2 7.1 7.7 10.8.4.6.8 1.4.7 2-.5 2.2.9 3.6 2.4 5 4.6 4.4 10.9 7 16.3 10.6 1 .7 2.6.8 3.8 1.3 3 1.2 6.1 2.3 8.4 4.3 3.1 2.7 6.5 5 9.8 7.5.9.7 1.3 1.5 1.4 2.4.2 1.2.2 2.4.5 3.5.6 2.3 1.1 4.6.2 6.9-.3.8 0 1.9.3 2.8 1.7 4.6 1.3 9.2-.1 13.8-.2.7-.4 1.4-.2 2 2 6.9.9 14 1.2 20.9.1 1.9-.3 3.7-.7 5.6-.5 2.3-1 4.6-1.7 6.9-.4 1.4-.6 2.7 0 4.1.9 2.1.8 4.2-.1 6.2-1 2.1-1 4.1-.1 6.1 1.3 2.7.5 5.6 1.7 8.3.5 1.2-.1 2.8 0 4.1.1 1.2.3 2.3.6 3.5.4 1.2.3 2.3-.2 3.4-.6 1.5-1.1 3.1-1.5 4.7-1.5 5.2-2.9 10.5-4.3 15.7-.2.9-.5 1.8-1.4 2.5-1.8 1.3-1.8 3-.8 4.4 1.8 2.4 2 5.4 3.7 7.8 1.6 2.2 1.5 4.5.1 6.7-.9 1.3-1.1 2.6-.9 4s.1 2.8.1 4.2c0 1.7.7 3.2 1.9 4.6.7.8 1.4 1.5 2 2.2-3-.1-3.5.2-4.1 2.1-.2.7-.5 1.3-.4 2 .4 2.2.9 4.5 1.3 6.7.2.7 2 1.1 2.7.6 1-.8 1.9-1.7 1.9-2.9-.1-1.6 0-3.2.3-4.8.2-1.4-.6-2.7-1.6-3.8 1.4.4 2.6-.1 3.8-.6 1-.4 1.2-.2 1.5.9.2.7.7 1.3.6 2-.2 3-.9 6-.7 8.9.2 3-.3 5.9-.8 8.9-.2.9-.3 1.9.3 2.7 1.9 2.7 1.3 5.3-.2 7.9-.3.5-.7.7-1.3.5-.2-.1-.5-.2-.6-.4-.4-.8-.7-1.6-1-2.4-2.4-.1-4.4 1.1-4.8 2.9-.6 2.3-2.1 4.2-3.2 6.2-.2.3.2.9.5 1.2s1 .5 1.4.4c.7-.2 1.4-1 2-1 1.6.1 3.2.4 4.7.7.9.2 1.7 1.4 1.5 2.2-.5 1.8-1 3.5-.6 5.3h.2c0 .1.1.2.1.3.2.1.3.1.3.1-.1.3-.2.2-.3-.1-.1 0-.2-.1-.3-.1v-.1c-1.5.2-3 .4-4.2 1.4-.8.7-1.4 1.4-1.2 2.4.2.9.4 1.8.8 2.6.3.6 1.2 1.1 1.2 1.7.1.9-.2 1.8.6 2.6.3.3.7.5 1.1.7l.3-.1-.2.3c-.1 0-.1-.1-.2-.1 0 .7 0 1.3-.1 1.9-.4 2-.4 2 1.6 3 1.2.6 2.4 1.3 3.6 2v.2h.1c1 1.5 1 1.7 0 2.7-.1 0-.1 0-.2 0v.2l.3-.2c0 2.3.9 4.5.1 6.8-.3.9.6 1.6 1.9 1.7 1.2 0 1.8-.5 2-1.7.2-1.7.1-3.5.9-5.1 0 0 0-.1-.1-.1l-.3-.4.5.2c-.1.1-.1.2-.1.3.8.7 1.3 1.4 1.2 2.4 0 1 .4 1.8 1.1 2.5.8.8 1.2 1.5.4 2.4-.7.7-1.3 1.5-2.5 1.5-.5 0-1.1-.2-1.6-.1s-.9.5-1.2.8c-.3.5 0 .9.5 1.1.8.2 1.5.5 2.3.6 2.7.1 3.3 2 4.4 3.5-.6 1.3.1 2.2 1.4 2.9 1.7 1 3.3 2.1 5 3.1h.4c0 .1.1.2.2.3.5.2.8.5 1 .9.1 0 .2.1.4.1l.2.3-.4-.2c0-.1-.1-.2-.2-.3-.5-.2-.9-.5-1-.9-.1 0-.2-.1-.4-.2-.1-.1-.2-.1-.2-.1-2.3.2-4.5-.1-6.6-1.2-.4-.2-1-.3-1.5-.3-.2 0-.6.3-.6.4.1.4.1 1 .4 1.2 3.3 2 6.7 3.8 9.4 6.4 1 1 2.7 1.5 4.2 1.9.9.3 2.1 0 3.1 0 .3-.5.6-1.1.9-1.6.1-.2.4-.4.6-.4.6 0 .7.3.4.9-.1.3-.1.7-.1 1.1.5.1.9.3 1.4.4 1.7.4 3 1 2.5 2.8-.1.5.1.9.8 1.1 2 .4 3.2 1.5 3.9 3.1.5.9 1.6 1.1 2.7 1.1 1-1 1.6-2.3 3.1-2.8.6-.2 1.2-.1 1.4.4.2.4.2.9.1 1.3-.1.9-.3 1.9.7 2.5.9.5 1.9.8 3 1 .7.1 1.6-.2 2.4-.2 1.1 0 2.1.1 3.2.2 1.7.1 1.8.1 1.2-2-.1 0-.2 0-.2.1 0-.2 0-.2-.1-.3s-.2-.1-.3-.2c.2-.2.3-.1.3.2.1 0 .2.1.3.1v.1c1.5-.4 3-.8 4.4-1.1 1.2-.3 1.7-.9 1.9-2 .1-.6.7-.6 1.3-.5 1 .2 2.3.6 3.1.3 1.9-.8 3.5-2 5.2-3.1.1-.1 0-.5-.1-.6-.8-.9-2-.4-3-.7-3.5-1.3-6.9-2.6-10.4-3.9-.5-.2-1-.5-1.3-.8-1.6-1.6-3.7-2.6-5.3-4.3-.9-1-1.3-1.8-1.6-3-.7-3-2.5-4.3-6.1-4.5-1 0-1.9 0-2.9.1 0 .1-.1.1-.1.2-.1 0-.2.1-.3.1-.1.6-.2 1.4-.6 1.6-2.7 1.1-2.7 3.2-2.9 5.3 0 .2-.1.5-.2.7s-.4.4-.5.3c-.2-.1-.5-.3-.5-.5 0-.9-.1-1.8 0-2.7.4-2.4 2-4 4.7-4.6 0-.1 0-.2.1-.3h.4c.6-1.2 1.3-2.4 3.4-1.8.3.1.6.2.8.1.5-.1 1.1-.3 1.4-.6.2-.3.3-.9 0-1.2-1.2-1.6-2.7-2.9-3.7-4.6-1-1.6-1.3-3.5-2-5.3-.7-2-.3-3.7 1.3-5.2.7-.7 1.4-1.4 2.3-2 2.1-1.4 3.1-3.2 2.9-5.4-.2-2 .6-3.6 2.3-5 1.7-1.5 3.2-3.2 4.7-4.8.9-.9 1.2-2.1 1-3.3-.1-.7-.2-1.4-.3-2.1-.5-1.9-1.3-3.6-4.1-3.6-1.4 0-2.6-.5-3.7-1.3-1.3-.9-2.6-1.7-3.8-2.6-2.6-2-2.9-4.4-.8-6.8.8-.9 1.8-1.8 2.9-2.4 1.6-.8 3.5-1.3 5.2-2 .5-.2 1.1-.6 1.1-.9.3-2 2.2-3.8 1.1-6-.3-.6-.4-1.4-.5-2.1-.2-2 .3-3.6 2-5.1 1.1-.9 1.9-2 2.8-3-.1-.1-.1-.2-.2-.2-.6 0-1.3-.1-1.9-.3-.5-.2-.5-.7.1-1 .2-.1.6-.2.7-.1.4.4.8.9 1.1 1.4h.4c-.1.1-.1.2-.2.2.5.1 1.1.2 1.6.2 2-.1 3.2-1.3 2.9-2.7-.3-1.1-.7-2.3-1.1-3.4-.2-.6-1.4-.9-2.1-.7-.5.2-.9.5-1.4.7-2.6 1-5.1 0-5.7-2.3-.4-1.4-.7-2.7-1.1-4.1-.1-.4-.3-.9-.5-1.3-.2-.8 1.2-1.8 2.3-1.4 1.5.5 3.1.9 4.5 1.6 2 1 4.1 1.1 6.4.9 2.3-.3 4.9-2.4 4.8-4.2 0-1.4-.6-2.8-.6-4.1 0-1.6.5-3.2.8-4.8 0-.2-.2-.4-.2-.7-.2-.4-.3-.9-.4-1.3-.3-1.5.5-2.4 2.1-2.1 6.1 1.1 12 .7 17.7-1.3 1.5-.5 3.1-.9 4.6-1.5 2.6-1 4.7-2.2 5.4-4.9.4-1.6 1.6-3 2.3-4.5.4-.9.7-1.8.9-2.7.3-1-.5-2.4-1.6-3-.7-.4-1.5-.6-2.2-.9-.8-.4-1-1.1-1-1.8s.2-1.4.5-2c.8-1.9-.1-3.1-1.7-4.3-1.7-1.4-4-2.1-5.6-3.6-.1 0-.3 0-.4 0 0-.1 0-.3-.1-.4s-.3-.2-.4-.3c.1 0 .3.1.4.2v.1c.1.1.2.2.3.2.1.1.2.1.2.2 3.9.4 7.9.4 11.5 2.2.7.3 1.6.4 2.4.4 1.6.1 3.3.1 4.9.1 4.1 0 7.4-1.2 9.6-4.4 1.1-1.6 1.6-3.5 3.4-4.7 2-1.4 3-3.3 3.7-5.4.7-2.3 1.4-4.5 2-6.8l.2.2c0-.1.1-.2.1-.2h-.1c-.6-1.9-.4-2.8 1.3-3.7.6-.3 1.3-.4 2-.5.4-1.8 1.1-3.5 2.3-5 .3-.3.9-.7 1.3-.6.3 0 .7.5.9.9.3.6.4 1.2.6 1.9 1.5-.2 2.3-1.2 2.8-2.2 2.3-4.5 4.7-8.9 8-13 2.2-2.7 3.5-5.9 1.4-9.3-.3-.4-.3-.9-.4-1.4-.8-4.2.1-7.9 4.1-10.8 1.7-1.2 3.3-2.5 4.8-3.8 2.5-2.2 5.7-3.8 9-4.8 1.9-.6 3.5-1.1 4.8-2.3 1.1-1 2.6-1.7 3-3.2.1-.3.9-.6 1.3-.5 1.7.3 3.2 0 4.9-.2 1.6-.2 3.2.1 4.9.1 3.1-.1 5.9-.5 7.9-2.9.9-1 2.8-1.5 4.1-2.3.9-.6 1.4-1.4 1.1-2.5-.3-1.2-.2-2.3.6-3.4 1.6-2.4 3-5 4.8-7.3 1.4-1.9 2.2-3.7 1.8-5.9-.3-1.6-.3-3.4.8-4.8 2.2-2.7 2.6-5.7 2.7-8.7.2-3.7.2-7.5.2-11.2 0-2.6-.2-5.1-.2-7.7 0-1.2.4-2.4 1.8-3 3.8-1.4 5.9-4 7.2-7.3.3-.7.8-1.2 1.1-1.9 1-2 2.4-3.6 4.3-5.1 2.3-1.7 4.4-3.6 6.4-5.4 2.1-1.9 3.7-4 4.8-6.5 1.1-2.3 1.9-7.8 1.2-9.6-.6-4.7-1.9-7.7-3.3-10.8zm-125.6-390.7c.1 0 .4.4.3.5-.7 1.9-2.8 1.9-4.2 2.8-.4-.5-.7-.7-.7-.8 1.1-1.5 2.8-2.1 4.6-2.5zm-35.2 9.3.2-.4.2.5zm-2-13.4c1.3-.2 2.7.3 4-.3 2.7-1.2 5.2-.3 7.8.4.3.1.4.7.5 1.1 0 .2-.3.4-.5.5-1 .3-2 .6-2.8.8-2.3-1-4.5-.7-6.6-.7-.7 0-1.4-.5-2.1-.8-.2-.1-.4-.4-.4-.6-.1 0 0-.4.1-.4zm-2.1 12 .3.2-.5-.1zm-19.6-18.7s.2.2.4.3c.1.3.3.7.4 1.1-.2-.4-.4-.7-.6-1.1-.6.1-.7 0-.2-.3zm-5.5 2.2c.3-.6 1-1 1.5-1.5.2.4.4.8.5 1.3.1.4.2.9.4 1.9 0 .1-.1.8-.3 1.4 0 .1-.5.2-.7.2-1.7-.5-2.3-1.9-1.4-3.3zm-15.1-6.9c.8.2.7.3-.1.3-.2-.1-.4-.2-.5-.2.2 0 .4-.1.6-.1zm-13 33.6c.2 0 .5.1.7.2.1.1.1.4 0 .5-1.1.6-2.3 1.1-3.4 1.6 0 0-.2-.3-.3-.5.6-1.1 1.5-1.8 3-1.8zm-14.4 19.6c.2 0 .4.1.6.2 0 .1 0 .4-.1.4-.2.1-.4.1-.6.1-.2-.1-.3-.2-.5-.4.2-.1.4-.2.6-.3zm-32.9-169.3c.2-.1.6 0 .8.1 2 1.5 3.2 3.6 4.6 5.6.1.1 0 .4-.1.6-.2.1-.5.4-.6.3-.7-.2-1.5-.4-2.1-.8-1.7-1.2-2.5-2.9-3.2-4.7-.3-.6 0-1 .6-1.1zm-43.2 11.2c0-.1.4-.2.7-.2 1.2.3 2.3.7 2.9 1.8.1 0 .2 0 .3-.1.1.1.2.2.3.2 1 .1 2 .3 2.8 1h.4l.1.4-.3-.3c-.1-.1-.2-.1-.2-.2-1.1 0-2-.3-2.8-1-.2 0-.3 0-.5-.1 0 0-.1-.1-.1-.1-2.2.7-2.7.7-3.6-.5-.3 0-.1-.5 0-.9zm-15.7-4.9c.2 0 .3.2.5.3-.2.1-.4.2-.6.1-.7-.2-.7-.4.1-.4zm59.8 159.9c.1-.1.4-.1.6-.1.2.1.5.2.6.4.3.4 0 .7-.7.6-.2 0-.5-.2-.6-.3 0-.2 0-.5.1-.6zm-5.5 41.4c.1-.2.4-.3.7-.4 1.3-.4 2.5-1 3.8-1.2 2.7-.3 5.4-.4 8.1-.5 1.8 0 3.1-.5 4.4-1.5.3-.3 1-.3 1.5-.4.2.1.5.3.6.4 1 1.3.8 2.7-.2 3.9-1.7 1.9-4 3.4-7 2.3-3.7-1.3-7.6-.3-11.3-.6-.4 0-.9-.5-1-.9-.3-.2.1-.7.4-1.1zm-1.3 6.5c-.1.4-.3.9-.6 1.1-2.9 1.3-5.7 2.7-8.7 3.8-2.2.8-4.5 1.5-6.7 2.5-2.1 1-4.5 1.5-7.2 1.6-.8-.4-1.7-.8-2.6-1.3-.8-.4-.5-2.1.3-2.4.2-.1.4-.4.7-.4 3.9-.3 7.2-1.9 10.4-3.7 1.2-.7 2.5-.8 3.9-.4 1.6.5 3.1.3 4.7-.4 1.2-.5 2.5-.8 3.8-1.2.7-.1 2.1.4 2 .8zm-25.1-90.2c.1-.1.1-.2.2-.3 0-.5-.1-1 0-1.5 0-.6.4-.8.9-.5.1.1.2.5.1.6-.3.5-.6.9-.9 1.3v.5l-.7.1zm-20.4 29.1c.2-.1.5-.1.7-.1.4.3 1 .5 1.1.8.4 1.1.4 2.2-.5 3.1-.1.1-.4.3-.6.3-.6.2-1.1 0-1.3-.5-.8-1.4-.6-2.6.6-3.6zm-7.7-10.2v.4l-.7-.2zm-5.1-115.8c.3-.3.9-.5 1.4-.5.5.1 1.1.4 1.3.7.3.6.3 1.3.4 1.8-.4.7-.9.9-1.4.5-.6-.4-1.3-.9-1.7-1.4-.3-.2-.3-.9 0-1.1zm-5.6-4.5c.1.2.2.3.2.5-.1.1-.3.3-.4.4-.1-.2-.2-.3-.2-.5.1-.1.3-.3.4-.4zm-2.7 86.5c.2 0 .4.1.6.1-.1.1-.1.4-.2.4-.2 0-.4-.1-.6-.2.1 0 .1-.2.2-.3zm-3.1 38.6s.2.2.3.3c0 0 .1 0 .1.1 1.5.1 3.1.2 4.6.4.5.1.5.6.1 1.1-.2.2-.5.4-.7.3-1.5-.3-2.9-.9-4.1-1.8-.1 0-.2 0-.3 0-.4 0-.5-.2 0-.4zm-2.2-29.8c-.6-.1-.8-.5-.5-.9.1-.1.5-.2.5-.1.3.3.4.6.7.9-.3 0-.5.1-.7.1zm-3.8-100c.9-.4 2-.5 3.1-.6.3 0 .8.4 1.2.7-1.9 1.4-1.3 3.4-2.1 5.1-.6 1.3-2 1.6-3.1.7-3-2.5-2.7-4.4.9-5.9zm-2.3 34.2c.1-.1.2-.2.3-.3.1-.3.2-.6.3-.8.1.1.3.1.4.2-.2.2-.5.4-.7.6-.1.1-.1.3-.2.4-.6.6-1.2 1.1-1.8 1.7-.1.1-.2.2-.4.3.1-.2.1-.3.2-.5.7-.5 1.3-1.1 1.9-1.6zm-1.6-23.3v.4l-.6-.2zm-4 54.2.2.5h-.4zm-2.8 75c.6-.9.6-2.1 1.8-2.7 0-.1-.1-.2-.1-.3.1-.1.3-.2.4-.3-.1.2-.1.3-.2.5-.1 0-.1.1-.1.1.2.8.5 1.6.7 2.4.1.2.1.5 0 .7-.3.3-.8.6-1.2.8-.2.1-.5 0-.8-.1-.5-.3-.8-.7-.5-1.1zm-1.5-50.2.6.2-.6.2zm-2.4-22.2c.5-.2 1 .1 1.2.6 0 .5-.3.8-.9.8-.4 0-.9-.3-1.3-.5.3-.3.6-.7 1-.9zm-1.1 53.5c.4 2.4-.3 4.5-2.7 5.9v.3l-.4.1.2-.2c.1 0 .1-.1.2-.1-.5-2.3.4-4.4 1.8-6.4.1-.1.5-.2.5-.2.2.2.4.4.4.6zm-1-28.4c.2 0 .3.2.5.3-.1.2-.1.4-.3.5-.1.1-.5 0-.6-.1-.4-.4-.3-.7.4-.7zm-14.7 15.7c-.5 1-1.4 1.9-2.2 2.9-.4.5-.8.6-1 .2-.1-.2-.1-.4-.1-.6s.1-.5.2-.7c.6-1.3 1.5-2.4 1-3.9-.5-1.7-2.5-1.5-3.7-2.2-.2-.1-.3-.5-.2-.6.3-.3.6-.7 1-.7.5-.1 1 .1 1.6.2 1 .1 2 .3 3 .4 0-.1-.1-.1-.1-.2h.1c-.8-1.1-1.6-2.2-2.4-3.3-1.2-1.7-1.1-3.6-.2-5.4.3-.6 1-1.2 1.7-1.4.6-.1 1.6.3 2.1.7.9.8 1.5 1.8 2.3 2.7 0 0 .1-.1.1-.1l.2-.4-.2.5s-.1-.1-.1-.1c-2.2 1.7-2.1 3.3.1 5 .4.3.1.9-.5 1.1-1 .2-2 .4-3 .5.1.1.1.2.2.2-.1 0-.1 0-.2 0 .3.8.8 1.6.9 2.4-.2 1-.2 2-.6 2.8zm3.8 18.9c0 .2-.3.5-.5.5-.4 0-1.2 0-1.3-.1-.5-1.5-1-3-1.3-4.5-.1-.3.4-.8.7-1.1 0-.1-.1-.1-.1-.2.1-.4.2-.7.3-1.1 0-.2.1-.3.1-.5-.1.2-.1.4-.2.5-.1.4-.1.8-.2 1.2.7 1.3 1.5 2.6 2.2 4 .4.4.3.9.3 1.3zm-2.8-141.4c.1-.1.4-.2.7-.2.6.2.8.6.4 1.1-.1.1-.4.2-.6.2-.6-.2-.8-.6-.5-1.1zm-4.4 65.5c.2-1 1.1-1.6 2.2-1.8.4-.1 1 .2 1.4.4.1.1.1.5 0 .6-.9 1.4-2.2 2.4-3.9 3.1v.3c-.1 0-.3 0-.4.1s-.3.3-.4.4c.1-.1.1-.3.2-.4h.2c.1-.1.2-.2.2-.2.1 0 .1-.1.2-.1.1-.8.1-1.6.3-2.4zm-1.1-67.5c.8 0 1 .3.5.7-.2.1-.5 0-.8 0-.1-.1-.3-.3-.4-.4.2-.2.4-.4.7-.3zm-3 85c1-.2 2-.3 3-.4.2-.1.4-.2.6-.3.6-.5 1.3-1 1.9-1.6 0 0 .1 0 .1-.1-.1-.2-.1-.3-.2-.5-1.4-5.7-2.2-6.2 5.3-9.9.3-.2 1.1 0 1.4.2.3.3.4.8.4 1.2 0 .2-.1.5-.3.6-1.2 1.2-2.7 2.3-3.7 3.6-.9 1.1-1.3 2.5-2 3.8-.2.3-.7.6-1.1.9 0 .1.1.1.1.2-.6.5-1.3 1.1-1.9 1.6-.2 0-.5.1-.7.1-.9.4-1.8.9-2.7 1.3-.1 0-.4-.2-.5-.4.1 0 .2-.3.3-.3zm-.2-106.5-.2.4-.2-.4zm-5.2 13.8c.1-.1.4 0 .7-.1.5.3.6.7.2 1.1-.1.1-.5.2-.7.1-.5-.3-.6-.7-.2-1.1zm-183.4 58.4-.4.1.2-.3c.1-.1.2-.2.2-.3zm4.6-10.1c0-.1 0-.2 0-.3-.3-.2-.6-.4-.8-.6-.1-.1.1-.3.2-.5.7.2.6.6.7 1.1.1 0 .2.1.2.2l.4.4c-.3-.1-.5-.2-.7-.3zm1.2-9c0 .1-.2.1-.4.1 0-.4.1-.7.1-1.1.1.1.2.3.3.4zm1 37.3c-.5.3-.9.2-1.2-.2-.6-.8-1.3-1.5-1.7-2.3-.5-1.1-.2-2.2 1.1-2.8 0-.1-.1-.2-.1-.3l.2-.2c-.1-.4-.1-.9.4-1.2.1.1.3.3.2.4-.2.3-.4.5-.7.8 0 .1 0 .2.1.4 0 0-.1 0-.1.1.7 1.6 1.5 3.2 2.1 4.8 0 0-.2.3-.3.5zm2.2-4.9c-.2 0-.5-.3-.5-.4 0-.4.2-.7.3-1 .3.3.7.5 1 .8.1.4-.2.7-.8.6zm73.4-148.3c-.1 0-.3-.3-.3-.5 0-.7 0-1.3 0-1.1.1-1.3.1-1.8.2-2.2 0-.2.2-.4.4-.5 0 0 .4.1.4.2.1 1.1.1 2.2.2 3.3-.1.6-.3.9-.9.8zm11.4-3.1c-.2.1-.3.3-.5.4.1-.2.2-.4.3-.6l.3-.1zm3.1 116.9-.3.2.2-.3.4-.3zm12.5 57.1c-.2 0-.4-.1-.7-.2.3-.1.6-.3.9-.3.1 0 .3.2.4.3-.1.1-.4.2-.6.2zm1.8-178.8c-.2.1-.5.3-.7.3-2.7 0-5.3 0-8-.1-.2.1-.4.1-.5.2-.6.5-1.2 1.1-1.8 1.6-.1 0-.3 0-.4.1-.2.2-.4.5-.7.7-.1.1-.4-.1-.6-.2.3-.6.8-.5 1.3-.6.1-.1.1-.1.2-.2.6-.5 1.2-1.1 1.8-1.6h.7c2.7-1.2 5.7-.9 8.6-.6.1.1.2.4.1.4zm59.8 190.1c-.2 0-.4-.2-.6-.4.1-.4.2-.8.5-1.1.5-.5 1.3-.7 2-.3.2.1.4.3.3.5-.1.8-1.2 1.4-2.2 1.3zm-.7-22.8c-.2 0-.5-.2-.6-.3-.1-.2 0-.5.1-.6.8-.9 1.9-1.4 3.3-1.2.1 0 .2.3.3.5-.7 1.1-1.7 1.7-3.1 1.6zm3-48.4.2-.5.2.5zm4.6-55.9c.5 0 .9.1 1.4.3.2.1.3.3.4.5 0 .2 0 .5-.1.5-.4.1-.9.2-1.3 0-1-.5-1.2-1.3-.4-1.3zm-62.8-26c.2 0 .2-.1.3-.1 0-.1.1-.2.1-.3.3.1.2.2-.1.3 0 .1-.1.2-.1.3l-.5.2zm6.6 77.6c-.1-.1-.3-.2-.4-.4.2.1.4.1.7.2l.1.3zm20.8-43.3c-.3.2-.6.4-1 .5 0 .1 0 .2-.1.3 0 .1-.1.2-.3.3 0 .3-.1.5-.1.8-.5-.4-.2-.6.1-.8 0-.2 0-.3.1-.5.1-.1.2-.1.3-.2.1-.5 0-1 .9-1.1 0 .1.2.6.1.7zm-6.7 21.6c-.4.3-.6.6-.8.6-2.2-.3-3.1-1.7-3.8-3.3-.1-.2.5-.8 1-.9.4-.2 1.4-.2 1.5 0 .8 1.1 1.4 2.4 2.1 3.6zm-5.9 36.6v-.4l.7.3zm12.8 21.2c-.1.1-.4.2-.5.2-.1-.4-.2-.8-.3-1.2 0-.1.4-.2.6-.2.2.1.3.3.4.5-.1.3-.1.5-.2.7zm8.7 28.9c-.1-.1-.2-.3-.3-.4-.2-.4-.4-.7-.6-1.1.2.3.4.7.7 1 .6.1.7.2.2.5zm1.3-29.2c-.3.1-1-.1-1.4-.3-.1 0-.1-.5.1-.6.6-.7 1.2-1.7 2-2.1 3-1.6 6-3 9.1-4.4.4-.2 1.2 0 1.5.2 1.4 1.1 3 1.9 5 1.9.2 0 .5.7.6 1 0 .1-.3.5-.5.5-1.9.2-3.7.4-5.6.5 0-.1 0-.2 0-.3-.8 0-1.6 0-2.4 0-2.6-.1-4.7.7-6.5 2.3-.6.5-1.2 1-1.9 1.3zm85.3 362.6c-.2.2-.4.4-.6.5-1.6.4-3.3-.8-3.1-2.2 0-.2.3-.5.5-.5 1.4-.1 2.5.4 3.2 1.6.2.2 0 .4 0 .6zm92.5 11.7c-.1.5-1.3 1.4-1.6 1.2-.4-.2-.9-.5-1.2-.8-1.3-1.8-1.2-2.4 1.1-4.6.3-.3.9-.3 1.4-.3.1 0 .3.4.3.6.1.7.2 1.3.3 2.2-.2.4-.2 1-.3 1.7zm16.2 376.3c-.1-.1-.3-.1-.4-.2-.1-.2-.1-.4 0-.6.2-.5.5-.4.5.3.2.1 0 .3-.1.5zm2.2-223.7c0-.1-.1-.1-.1-.2-2.5 0-4.1-1.3-5.4-3-.2-.2.1-.8.2-1.2 0-.1.5-.1.6 0 1.7 1.2 3.8 2.2 4.5 4.2h.3c.1.1.3.2.4.3-.2 0-.3 0-.5-.1zm15.2 250.2c0 .1-.1.2-.1.3l-.5.2.3-.4c.2 0 .2-.1.3-.1 0-.1.1-.2.1-.3.4.1.3.2-.1.3zm4.4 7c-.5.2-.9.4-1.4.5-.2 0-.5-.1-.6-.3-.4-.5-.2-.9.5-.9.5 0 1 .1 1.5.2.1.1 0 .4 0 .5zm1.5 8.3c-.1 0-.1-.2-.2-.4.2 0 .4-.1.6-.1.1.1.1.3.2.4-.3 0-.5.1-.6.1zm4-5.5c0 .1-.1.1-.1.2-.1 0-.2.1-.4.2-.2.5-.5.8-1.1.9-.1.1-.2.2-.2.3l-.4.3.2-.4c.2 0 .2-.1.4-.1.2-.4.6-.7 1.1-.9 0-.1.1-.2.2-.3s.2-.1.3-.2.1-.2.2-.4c.3.3.2.4-.2.4zm11.8 3.6c.5-.3 1-.2 1.3.3.1.1-.1.4-.3.5-.4.3-.8.5-1.3.8-.2 0-.5 0-.7-.1-.4-.2.1-1 1-1.5zm-5.3 5c0 .1.1.2.1.3 1 .5 2 .9 3.1 1.4.1 0 .1 0 .2-.1.1 0 .1 0 .1-.1 0-.3-.1-.7 0-1 .1-.5.5-.8 1-.7.2 0 .5.2.6.3.4.4.3.8-.4 1-.4.1-.8.3-1.3.4v.2c-.1 0-.2-.1-.3-.1-.4.1-.8.3-1.2.4-.8.2-1.4-.2-1.6-.9-.1-.3-.2-.6-.2-.9-.1 0-.2-.1-.3-.1-.1-.1-.1-.2-.2-.3-.5 0-1 0-1.1-.7 0 0 .5-.2.6-.1.2.2.4.5.5.8.2.2.3.2.4.2zm7.1-407.6.3-.4.1.5zm12.3 230.1c-.4-.1-.9-.3-1.3-.4.2-.1.4-.3.6-.3.2-.1.5-.1.8 0 .2.1.4.3.5.4-.2.1-.4.2-.6.3zm37.9-216.9c-.1-.1-.1-.3-.2-.5.4-.1.8-.3 1.1-.4.1.2.3.4.2.5-.2.5-.6.7-1.1.4zm32 33c-.6.7-2 .9-2.7.4-.7-.4-.8-1.1-.5-1.7.2-.5.6-1 1-1.4.1.3.1.7.3 1 .3.7 1 1 1.8.8.3-.1.7-.2 1-.4-.3.5-.5.9-.9 1.3zm8.2 7.7c0-.1 0-.4.1-.4.4-.2.9-.4 1.4-.5.1 0 .4.3.4.4 0 .2-.2.4-.4.4-.5.2-1 .1-1.5.1zm2.2 15.8h-.4c-.4-.5-.8-1.1-1.2-1.7-.3-.5-.2-.9.3-1.1.1 0 .5.2.6.4.4.6.7 1.2.9 1.6-.1.4-.2.6-.2.8zm5.6 81.3-.6-.2.6-.2z" fill="#9ccc65" fill-rule="evenodd"/></svg>