<?xml version="1.0" encoding="utf-8"?>
<!-- Generator: Adobe Illustrator 22.0.0, SVG Export Plug-In . SVG Version: 6.00 Build 0)  -->
<svg version="1.1" xmlns="http://www.w3.org/2000/svg" xmlns:xlink="http://www.w3.org/1999/xlink" x="0px" y="0px"
	 viewBox="0 0 1920 1080" style="enable-background:new 0 0 1920 1080;" xml:space="preserve">
<style type="text/css">
	.st0{display:none;fill:#B2EBF2;}
	.st1{display:none;}
	.st2{display:inline;}
	.st3{fill:#5CA4AA;}
	.st4{fill:none;stroke:#5CA4AA;stroke-width:3;stroke-linecap:round;stroke-miterlimit:10;}
	.st5{fill:none;stroke:#5CA4AA;stroke-width:2.8409;stroke-linecap:round;stroke-miterlimit:10;}
	.st6{fill:none;stroke:#5CA4AA;stroke-width:2.3654;stroke-linecap:round;stroke-miterlimit:10;}
	.st7{fill:none;stroke:#5CA4AA;stroke-width:2.0192;stroke-linecap:round;stroke-miterlimit:10;}
	.st8{fill:none;stroke:#5CA4AA;stroke-width:2.25;stroke-linecap:round;stroke-miterlimit:10;}
	.st9{fill:#9CCC65;}
	.st10{fill:#FFE082;}
	.st11{fill:none;stroke:#FFCA28;stroke-width:2;stroke-linecap:round;stroke-miterlimit:10;}
	.st12{fill:#605D69;}
	.st13{fill:#524C61;}
	.st14{fill:#FFFFFF;}
	.st15{fill:#DDE8F5;}
	.st16{fill:#184070;}
	.st17{opacity:0.5;fill:#FFFFFF;}
	.st18{fill:#1B2956;}
	.st19{fill:url(#sky_2_);}
	.st20{fill:#9E9E9E;}
	.st21{fill:#E0E0E0;}
	.st22{fill:#BDBDBD;}
	.st23{fill:url(#ground_2_);}
	.st24{fill:#CCCCCC;}
	.st25{fill:#E6E6E6;}
	.st26{fill:#808080;}
	.st27{fill:#EF5350;}
	.st28{fill:#FFCC80;}
	.st29{fill:none;stroke:#4D4D4D;stroke-width:3;stroke-miterlimit:10;}
	.st30{fill:#4D4D4D;}
	.st31{fill:#F2D1B3;}
	.st32{fill:none;}
	.st33{fill:#26A69A;}
	.st34{fill:#80CBC4;}
	.st35{fill:#00897B;}
	.st36{fill:#00695C;}
	.st37{fill:#009688;}
	.st38{fill:#2D5F73;}
	.st39{display:none;fill:none;stroke:#000000;stroke-miterlimit:10;}
	.st40{fill-rule:evenodd;clip-rule:evenodd;fill:#9CCC65;}
	.st41{fill:#E0F7FA;}
	.st42{fill:#F7A63B;}
	.st43{fill:#DF8F2F;}
	.st44{fill:url(#SVGID_1_);}
	.st45{fill:none;stroke:#4D4D4D;stroke-width:3.9423;stroke-miterlimit:10;}
	.st46{fill:#FFFFFF;stroke:#1A1A1A;stroke-width:0.8793;}
	.st47{fill:url(#SVGID_2_);}
	.st48{fill:none;stroke:#000000;stroke-width:0.8284;stroke-linecap:round;stroke-linejoin:bevel;stroke-miterlimit:10;}
	.st49{fill:#6D4C41;}
	.st50{display:inline;fill:#6D4C41;}
	.st51{display:inline;fill:#FFFFFF;}
	.st52{display:inline;fill:#F7A63B;}
	.st53{display:inline;fill:#DF8F2F;}
	.st54{display:inline;fill:#5CA4AA;}
	.st55{display:inline;fill:#184070;}
	.st56{display:inline;fill:#1B2956;}
	.st57{display:inline;fill:#DDE8F5;}
	.st58{opacity:0.6;fill:#FFFFFF;}
	.st59{opacity:0.6;}
	.st60{fill:#3B97D2;}
	.st61{fill:#4EB96F;}
	.st62{fill:#E64D3C;}
	.st63{fill:#F19B20;}
	.st64{fill:#FFFFFF;stroke:#2D5F73;stroke-width:1.7039;stroke-miterlimit:10;}
	.st65{fill:#B2DFDB;stroke:#2D5F73;stroke-width:1.7039;stroke-miterlimit:10;}
	.st66{fill:#466584;stroke:#466584;stroke-width:0.7572;stroke-linecap:round;stroke-linejoin:round;stroke-miterlimit:10;}
	.st67{fill:#80CBC4;stroke:#2D5F73;stroke-width:1.7039;stroke-miterlimit:10;}
	.st68{fill:url(#XMLID_209_);stroke:#2D5F73;stroke-width:1.75;stroke-miterlimit:10;}
	.st69{fill:none;stroke:#2D5F73;stroke-width:1.75;stroke-miterlimit:10;}
	.st70{fill:none;stroke:#2D5F73;stroke-width:3.5;stroke-miterlimit:10;}
	.st71{fill:#757575;stroke:#2D5F73;stroke-width:1.75;stroke-miterlimit:10;}
	.st72{fill:#FFFFFF;stroke:#2D5F73;stroke-width:1.75;stroke-miterlimit:10;}
	.st73{fill:#B2DFDB;stroke:#2D5F73;stroke-width:1.75;stroke-miterlimit:10;}
	.st74{fill:#80CBC4;stroke:#2D5F73;stroke-width:1.75;stroke-miterlimit:10;}
	.st75{fill:#FFFFFF;stroke:#2D5F73;stroke-width:1.7949;stroke-miterlimit:10;}
	.st76{opacity:0.2;}
	.st77{fill:#80CBC4;stroke:#2D5F73;stroke-width:1.7949;stroke-miterlimit:10;}
	.st78{fill:#80CBC4;stroke:#2D5F73;stroke-width:1.761;stroke-miterlimit:10;}
	.st79{fill:#E0F2F1;stroke:#2D5F73;stroke-width:1.761;stroke-miterlimit:10;}
	.st80{fill:#E0F2F1;}
	.st81{fill:#B2DFDB;}
	.st82{fill:#2D5F73;stroke:#2D5F73;stroke-width:1.7949;stroke-miterlimit:10;}
	.st83{fill:url(#sky_3_);}
	.st84{fill:url(#ground_3_);}
	.st85{fill:#466584;}
	.st86{fill:#FFAB56;}
	.st87{fill:#F5FAFF;stroke:#466584;stroke-width:2.2716;stroke-linejoin:round;stroke-miterlimit:10;}
	.st88{fill:#AED581;stroke:#466584;stroke-width:2.2716;stroke-linecap:round;stroke-linejoin:round;stroke-miterlimit:10;}
	.st89{fill:#EF9A9A;stroke:#466584;stroke-width:2.2716;stroke-linecap:round;stroke-linejoin:round;stroke-miterlimit:10;}
	.st90{fill:#90CAF9;stroke:#466584;stroke-width:2.2716;stroke-linecap:round;stroke-linejoin:round;stroke-miterlimit:10;}
	.st91{fill:#F5FAFF;stroke:#466584;stroke-width:2.2716;stroke-linecap:round;stroke-linejoin:round;stroke-miterlimit:10;}
	.st92{fill-rule:evenodd;clip-rule:evenodd;fill:#39B54A;}
	.st93{fill-rule:evenodd;clip-rule:evenodd;fill:#65C8D0;stroke:#466584;stroke-width:0.7572;stroke-miterlimit:10;}
	.st94{fill-rule:evenodd;clip-rule:evenodd;fill:#FFFFFF;}
	.st95{clip-path:url(#SVGID_4_);}
	.st96{display:none;fill:#F4B8DC;}
	.st97{fill:url(#SVGID_5_);}
	.st98{opacity:0.5;fill:url(#SVGID_6_);}
	.st99{fill:url(#SVGID_7_);}
	.st100{opacity:0.7;fill:url(#SVGID_8_);}
	.st101{fill:url(#SVGID_9_);}
	.st102{fill:#282222;}
	.st103{opacity:0.6;fill:#A21C5C;}
	.st104{opacity:0.85;}
	.st105{fill:#A21C5C;}
	.st106{opacity:0.7;fill:#1C1C1C;}
	.st107{opacity:0.4;fill:#A21C5C;}
	.st108{opacity:0.8;fill:#1C1C1C;}
	.st109{opacity:0.3;fill:#1C1C1C;}
	.st110{fill:#201C1D;}
	.st111{opacity:0.5;}
	.st112{opacity:0.4;}
	.st113{fill:#E756B4;}
	.st114{fill:#231F20;}
	.st115{fill-rule:evenodd;clip-rule:evenodd;fill:#231F20;}
	.st116{fill-rule:evenodd;clip-rule:evenodd;fill:none;}
	.st117{fill:#F6F6F6;}
	.st118{fill-rule:evenodd;clip-rule:evenodd;fill:#F6F6F6;}
	.st119{fill:#F1E0D2;}
	.st120{fill:#C4AD99;}
	.st121{fill:#A68466;}
	.st122{fill:#885B33;}
	.st123{fill:#6A3200;}
	.st124{fill:#502500;}
	.st125{display:inline;filter:url(#Adobe_OpacityMaskFilter);}
	.st126{fill:url(#SVGID_11_);}
	.st127{display:inline;mask:url(#SVGID_10_);}
	.st128{opacity:0.8;fill:#4D4D4D;}
	.st129{opacity:0.3;fill:#FFFFFF;}
	.st130{fill:none;stroke:#FFFFFF;stroke-miterlimit:10;}
	.st131{fill:none;stroke:#FFFFFF;stroke-width:6.3;stroke-miterlimit:10;}
	.st132{clip-path:url(#SVGID_13_);}
	.st133{fill:url(#SVGID_14_);}
	.st134{fill:#FFC972;}
	.st135{fill:#FCB642;}
	.st136{fill:#806537;}
	.st137{fill:#A57A2B;}
	.st138{fill:#F79D5B;}
	.st139{fill:#F58B39;}
	.st140{fill:#F37F4C;}
	.st141{fill:#F9B7A4;}
	.st142{fill:#A66F29;}
	.st143{fill:#FBB02A;}
	.st144{fill:#FAAC31;}
	.st145{fill:#E99D22;}
	.st146{fill:#EFB34E;}
	.st147{fill:#EBB362;}
	.st148{fill:#D7A256;}
	.st149{fill:#B7A592;}
	.st150{fill:#A59786;}
	.st151{fill:#806A50;}
	.st152{fill:#6F5D47;}
	.st153{fill:#DC9528;}
	.st154{fill:#C7872B;}
	.st155{fill:#9F9487;}
	.st156{fill:#91877C;}
	.st157{fill:#C7852B;}
	.st158{fill:#E09627;}
	.st159{fill:#B97B2B;}
	.st160{fill:#E6B168;}
	.st161{fill:#FDD168;}
	.st162{fill:url(#SVGID_15_);}
	.st163{fill:url(#SVGID_16_);}
	.st164{fill:url(#SVGID_17_);}
	.st165{fill:url(#SVGID_18_);}
	.st166{fill:url(#SVGID_19_);}
	.st167{opacity:0.3;fill:#B0592A;enable-background:new    ;}
	.st168{fill:url(#SVGID_20_);}
	.st169{fill:url(#SVGID_21_);}
	.st170{fill:url(#SVGID_22_);}
	.st171{fill:url(#SVGID_23_);}
	.st172{fill:#B86A3F;}
	.st173{fill:url(#SVGID_24_);}
	.st174{fill:url(#SVGID_25_);}
	.st175{fill:url(#SVGID_26_);}
	.st176{fill:url(#SVGID_27_);}
	.st177{fill:url(#SVGID_28_);}
	.st178{fill:url(#SVGID_29_);}
	.st179{fill:url(#SVGID_30_);}
	.st180{fill:url(#SVGID_31_);}
	.st181{fill:url(#SVGID_32_);}
	.st182{fill:url(#SVGID_33_);}
	.st183{fill:url(#SVGID_34_);}
	.st184{fill:url(#SVGID_35_);}
	.st185{fill:url(#SVGID_36_);}
	.st186{fill:url(#SVGID_37_);}
	.st187{fill:url(#SVGID_38_);}
	.st188{fill:url(#SVGID_39_);}
	.st189{fill:url(#SVGID_40_);}
	.st190{fill:url(#SVGID_41_);}
	.st191{fill:url(#SVGID_42_);}
	.st192{fill:url(#SVGID_43_);}
	.st193{fill:url(#SVGID_44_);}
	.st194{fill:url(#SVGID_45_);}
	.st195{fill:url(#SVGID_46_);}
	.st196{fill:url(#SVGID_47_);}
	.st197{fill:url(#SVGID_48_);}
	.st198{fill:url(#SVGID_49_);}
	.st199{fill:url(#SVGID_50_);}
	.st200{fill:url(#SVGID_51_);}
	.st201{fill:url(#SVGID_52_);}
	.st202{fill:url(#SVGID_53_);}
	.st203{fill:url(#SVGID_54_);}
	.st204{fill:url(#SVGID_55_);}
	.st205{fill:url(#SVGID_56_);}
	.st206{fill:url(#SVGID_57_);}
	.st207{fill:url(#SVGID_58_);}
	.st208{fill:url(#SVGID_59_);}
	.st209{fill:url(#SVGID_60_);}
	.st210{fill:url(#SVGID_61_);}
	.st211{fill:url(#SVGID_62_);}
	.st212{fill:url(#SVGID_63_);}
	.st213{fill:url(#SVGID_64_);}
	.st214{fill:url(#SVGID_65_);}
	.st215{fill:url(#SVGID_66_);}
	.st216{fill:url(#SVGID_67_);}
	.st217{fill:url(#SVGID_68_);}
	.st218{fill:url(#SVGID_69_);}
	.st219{fill:url(#SVGID_70_);}
	.st220{fill:url(#SVGID_71_);}
	.st221{fill:url(#SVGID_72_);}
	.st222{fill:url(#SVGID_73_);}
	.st223{fill:url(#SVGID_74_);}
	.st224{fill:url(#SVGID_75_);}
	.st225{fill:url(#SVGID_76_);}
	.st226{fill:url(#SVGID_77_);}
	.st227{fill:url(#SVGID_78_);}
	.st228{fill:url(#SVGID_79_);}
	.st229{fill:#F5CE9C;}
	.st230{fill:url(#SVGID_80_);}
	.st231{fill:url(#SVGID_81_);}
	.st232{fill:url(#SVGID_82_);}
	.st233{fill:url(#SVGID_83_);}
	.st234{fill:#B0592A;}
	.st235{fill:none;stroke:#B0592A;stroke-miterlimit:10;}
	.st236{fill:#F48547;}
	.st237{fill:#CA6C32;}
	.st238{fill:#3C8376;}
	.st239{fill:#2F6F63;}
	.st240{fill:#6DC0D3;}
	.st241{fill:#A6DEF2;}
	.st242{fill:url(#_Path_295_1_);}
	.st243{fill:#C2805C;}
	.st244{fill:#B36033;}
	.st245{fill:url(#_Path_298_1_);}
	.st246{fill:url(#_Path_300_1_);}
	.st247{fill:#DA9A72;}
	.st248{fill:#CD916B;}
	.st249{display:inline;fill:#2D5F73;}
	.st250{font-family:'GoodVibes';}
	.st251{font-size:130px;}
	.st252{fill:none;stroke:#26A69A;stroke-width:5;stroke-miterlimit:10;}
	.st253{fill:url(#XMLID_210_);stroke:#2D5F73;stroke-width:1.75;stroke-miterlimit:10;}
	.st254{fill:url(#XMLID_211_);stroke:#2D5F73;stroke-width:1.75;stroke-miterlimit:10;}
	.st255{fill:url(#XMLID_212_);stroke:#2D5F73;stroke-width:1.75;stroke-miterlimit:10;}
	.st256{fill:#2D5F73;stroke:#2D5F73;stroke-width:1.75;stroke-miterlimit:10;}
	.st257{fill:#FFFFFF;stroke:#2D5F73;stroke-width:1.6565;stroke-miterlimit:10;}
	.st258{fill:#B2DFDB;stroke:#2D5F73;stroke-width:1.6565;stroke-miterlimit:10;}
	.st259{fill:#466584;stroke:#466584;stroke-width:0.7167;stroke-linecap:round;stroke-linejoin:round;stroke-miterlimit:10;}
	.st260{fill:#80CBC4;stroke:#2D5F73;stroke-width:1.6565;stroke-miterlimit:10;}
	.st261{fill:#B2DFDB;stroke:#2D5F73;stroke-width:1.6861;stroke-miterlimit:10;}
	.st262{fill:#80CBC4;stroke:#2D5F73;stroke-width:1.6861;stroke-miterlimit:10;}
	.st263{fill:#2D5F73;stroke:#2D5F73;stroke-width:1.6861;stroke-miterlimit:10;}
	.st264{fill:#FFFFFF;stroke:#2D5F73;stroke-width:1.6861;stroke-miterlimit:10;}
	.st265{fill:#80CBC4;stroke:#2D5F73;stroke-width:1.7034;stroke-miterlimit:10;}
	.st266{fill:#E0F2F1;stroke:#2D5F73;stroke-width:1.7034;stroke-miterlimit:10;}
	.st267{fill:#80CBC4;stroke:#466584;stroke-width:2;stroke-linecap:square;stroke-miterlimit:10;}
</style>
<g id="Layer_1">
	<rect id="ocean" y="-4320" class="st0" width="1920" height="6480"/>
	<g id="waves" class="st1">
		<g class="st2">
			<g>
				<path class="st3" d="M1548,749h35c0.5,0,0.9-0.5,0.9-1s-0.4-1-0.9-1h-35c-0.5,0-0.9,0.5-0.9,1S1547.5,749,1548,749z"/>
			</g>
			<g>
				<path class="st3" d="M1601.3,749h29.1c0.5,0,0.9-0.5,0.9-1s-0.4-1-0.9-1h-29.1c-0.5,0-0.9,0.5-0.9,1S1600.8,749,1601.3,749z"/>
			</g>
			<g>
				<path class="st3" d="M1643.6,749h19c0.5,0,0.9-0.5,0.9-1s-0.4-1-0.9-1h-19c-0.5,0-0.9,0.5-0.9,1S1643.1,749,1643.6,749z"/>
			</g>
			<g>
				<path class="st3" d="M1594.7,755h20c0.5,0,0.9-0.5,0.9-1c0-0.6-0.4-1-0.9-1h-20c-0.5,0-0.9,0.5-0.9,1
					C1593.8,754.6,1594.2,755,1594.7,755z"/>
			</g>
			<g>
				<path class="st3" d="M1539.2,742.6h138.9c0.5,0,0.9-0.5,0.9-1c0-0.6-0.4-1-0.9-1h-138.9c-0.5,0-0.9,0.5-0.9,1
					C1538.3,742.1,1538.7,742.6,1539.2,742.6z"/>
			</g>
			<g>
				<path class="st3" d="M1526.9,742.6h5.8c0.5,0,0.9-0.5,0.9-1c0-0.6-0.4-1-0.9-1h-5.8c-0.5,0-0.9,0.5-0.9,1
					C1526,742.1,1526.4,742.6,1526.9,742.6z"/>
			</g>
		</g>
		<g class="st2">
			<line class="st7" x1="253.4" y1="715.8" x2="358.4" y2="715.8"/>
			<line class="st7" x1="373.9" y1="715.8" x2="392.1" y2="715.8"/>
			<line class="st7" x1="310" y1="724.5" x2="349" y2="724.5"/>
			<line class="st7" x1="272.3" y1="707" x2="293.1" y2="707"/>
			<line class="st7" x1="237.9" y1="715.8" x2="244" y2="715.8"/>
		</g>
		<g class="st2">
			<line class="st8" x1="727.2" y1="965.6" x2="801.4" y2="965.6"/>
			<line class="st8" x1="760.6" y1="975" x2="837.1" y2="975"/>
			<line class="st8" x1="817.6" y1="965.3" x2="848.3" y2="965.3"/>
			<line class="st8" x1="741.1" y1="975" x2="751.6" y2="975"/>
			<line class="st8" x1="774.1" y1="955.5" x2="817.6" y2="955.5"/>
		</g>
	</g>
	<polyline class="st39" points="1920.5,1078.5 0.5,1078.5 0.5,-1.5 1920.5,-1.5 	"/>
	<path id="america" class="st40" d="M822.7,703.6c-0.3-0.6-1.1-1.2-1.8-1.4c-1.3-0.4-2.7-1-4.1-0.9c-2.5,0.2-4.5-0.5-6.2-1.8
		c-2.2-1.5-5.3-2-6.9-4.1c-2.6-3.4-6.9-4.8-10.8-6.6c-1.8-0.9-3.7-1.2-5.7-1.2c-6.9,0.2-13.6-0.8-20.2-2.2c-0.8-0.2-1.7,0-2.5,0.2
		c-1.1,0.3-2,0.8-3.1,1.2c-0.8,0.3-1.6,0-1.9-0.8c-0.5-1.1-0.8-2.3-1.5-3.3c-0.5-0.7-1.6-1.7-2.5-1.8c-3.9-0.2-6.8-2.1-10.2-3.3
		c-2.6-0.9-5.3-1.6-8.2-1.7c-2.5-0.1-4.5,0.3-5.7,2.2c-0.1,0.2-0.4,0.4-0.7,0.4c-0.6,0-0.7-0.4-0.6-0.9c0.1-0.4,0.3-0.9,0.4-1.4
		c0.5-1.9-0.9-3-2.2-3.4c-2.1-0.7-4.2-1.2-6.4-1.7c-0.1,0.4-0.2,0.8-0.3,1.2c0,0,0.1,0,0.1,0l0.3,0.2l-0.4-0.1c0,0,0-0.1,0-0.1
		c-2.4-0.3-4.7-0.2-6.6,1.3c-0.7-1.1-1.9-1.2-3.2-1.3c1.8-1.5,4.1-2.3,6.5-2.8c0.6-1.8,1.2-3.5,1.7-5.3c0.3-1.1,0.2-2.3-0.8-3.3
		c-1.1-1.1-1.7-2.4-2.9-3.4c-2.3-2.1-4-4.5-4.6-7.4c-0.3-1.4-1.1-2.7-2.3-3.7c-4.6-3.8-9.1-7.8-16-8.8c-0.8-0.1-1.6-0.4-2.4-0.8
		c-2.9-1.2-5.9-1.4-9.1-1.4c-3.1,0.1-6.2,0-9.4-0.1c-0.8,0-1.7-0.3-2.4-0.6c-2.9-1.4-5.2-3.6-8.8-4.2c-0.4-0.1-0.8-0.6-1-1
		c-0.4-1.1-1-2.2-2.1-3c-1.8-1.5-3.5-3.1-5.5-4.4c-1.3-0.9-2.9-1.5-4.5-2c-1.3-0.4-2.8-0.3-4.2-0.4c-0.9-0.1-1.6-0.5-1.6-1.3
		c0.1-2.2-1.3-3.5-3.6-4.3c-2.1-0.7-4.2-1.5-6.2-2.4c-0.7-0.3-1.6-0.8-1.7-1.3c-0.3-0.8,0.9-0.9,1.6-1.1c0.3-0.1,0.5-0.1,0.8-0.2
		c0.6-0.2,0.8-0.6,0.6-1c-0.1-0.2-0.4-0.3-0.7-0.4c-2.5-0.7-5.1-0.4-7.6-0.3c-1.5,0.1-2.7-0.4-3.7-1.3c-0.4-0.4-1.2-0.2-1.5,0.3
		c-0.4,0.6-0.4,1.5-0.9,1.9c-2.6,1.9-6.8,3.4-10.1,1.3c-2-1.2-4.1-1.3-6.5-1.1c-2.5,0.2-5.1,0.3-7.6,0.4c-1.2,0-2-0.4-2.5-1.5
		c-0.1-0.2-0.1-0.5-0.2-0.7c-0.4-1.5-1.5-2.5-3.3-2.8c-1.1-0.2-2.2-0.4-3.3-0.5c-2.2-0.2-3.6-1.2-4.2-2.9c-0.2-0.7-0.8-1.2-1.8-1.3
		c-0.9-0.1-2.3,0.6-2.8,1.4c-0.2,0.4-0.5,0.9-0.5,1.3c-0.1,1.6-1.2,2.5-3,3c-1.4,0.3-2.6,0.9-3.9,1.3c-0.8,0.3-1.4,0-2-0.8
		c-0.4-0.6-0.9-1.3-0.1-1.9c1.2-1,2.4-1.9,3.6-2.9c0.6-0.5,0.1-2-0.8-2.4c-0.7-0.3-1.6-0.5-2.4-0.4c-2,0.3-3.8,1-5.2,2.2
		c-1.8,1.5-4,2.7-6.5,3.2c-2.7,0.6-5.6,0.5-7.9,2.2c-0.3,0.2-1.1,0-1.7,0c-1.9-0.2-3.3,0.6-4.5,1.6c-1.5,1.4-3,2.9-3.3,4.8
		c-0.3,1.8-1.1,3-2.9,4c-1.6,0.9-3.2,2-4.5,3.2c-0.6,0.6-0.8,1.5-1,2.4c0,0,0.1,0,0.1,0l0,0.4l-0.2-0.3c0-0.1,0-0.1,0.1-0.2
		c-0.5-0.1-1-0.2-1.4-0.4c-1.5-1.1-3-2.2-4.4-3.3c-1.9-1.6-4.2-2.3-6.7-2.8c-3.4-0.6-6.7-0.6-9.9,0.9c-1,0.5-2.1,0.8-3,1.2
		c-2.3,1.1-4.6,1.8-7.1,0.5c-4.7-0.4-7.6-2.9-10.1-5.7c-1.5-1.6-2.8-3.5-4-5.3c-0.4-0.6-0.6-1.3-0.7-2c-0.1-2.3-0.1-4.6,1.8-6.7
		c0.6-0.7,0.9-1.7,1-2.6c0.1-2.4,0.8-4.5,1.7-6.8c0.8-2.2,0.6-4.6,0.7-6.9c0-0.4-0.4-0.9-0.9-1.1c-1-0.4-2.1-0.7-3.1-1l0,0
		c0.1,0.1,0.1,0.1,0.2,0.2l-0.5,0.1l0.3-0.3c-1.8-1.4-3.8-2.4-6.5-2.5c-2.5-0.1-5.1-0.3-7.6-0.8c-2.9-0.6-5.5,0.7-8.4,0.6
		c-2.2-0.1-4.5,0.3-6.8,0.3c-1.4,0-2.8-0.3-4.2-0.5c-0.7-0.1-1-0.7-0.5-1c2.6-2.1,3.8-4.5,3.5-7.6c-0.1-1.4,0.3-2.8,0.5-4.2
		c0.1-0.7,0.6-1.3,1.6-1.4c2.1-0.1,3.1-1.1,3.4-2.6c0.4-1.6,0.9-3.2,0.7-4.8c-0.2-2.3,0.7-4.1,2.5-5.7c1.1-1,2.2-2.2,3.1-3.3
		c0.5-0.6,0.7-1.3,1-1.9c0.5-1.2-1-3-2.6-3.1c-3.4-0.1-6.8-0.5-10.1,0.6c-2.7,1-5.5,1.1-8.3,1.2c-2.6,0.1-4.2,1.2-5.2,3.1
		c-0.6,1.1-1.1,2.1-1.5,3.3c-1.1,3.4-2.6,6.6-6,9c-1,2.8-3.1,2.7-6,1.8c-1.2-0.4-2.8-0.2-4.2,0.1c-2.7,0.6-5.3,1.6-8.1,2.1
		c-2.2,0.4-4.5,0.5-6.3-1.2c-1.3-1.3-3.1-2-5-2.5c-2.3-0.6-3.8-2.1-4.7-3.8c-1.2-2.4-2.7-4.6-4.8-6.6c-1-0.9-1.4-2-1.7-3.2
		c-0.4-2.1-1-4.1-1.3-6.2c-0.2-1.4-0.4-2.8-0.3-4.2c0.3-4.9,0.9-9.8,2.2-14.6c0.2-0.9,0.5-1.9,1.2-2.6c2-1.9,2.5-4.1,2.2-6.5
		c-0.4-3.3,0.5-6.5,1.8-9.6c1.2-2.8,3.4-5.2,6.9-5.7c4.1-0.6,7.6-1.9,10.5-4.1c2.2-1.7,5.1-1.9,7.6-2.8c2.1-0.7,4.5-0.3,6.7,0.4
		c1.6,0.5,3.4,0.8,5,0.2c1.9-0.7,3.6-0.4,4.5,0.9c2,2.8,5.1,2.7,8.2,2.3c1.6-0.2,3.1-1,4.6-1.5c0.4-1.3,1-2.6,1.2-4
		c0.1-1.5,1.3-2,2.6-2.3c1-0.3,2.2-0.3,3.3-0.5c4-0.6,7.9,0.3,11.9,0.1c4.5-0.2,8.4,0.6,11.5,3.5c1,1,2.6,0.8,4,0.4
		c1-0.3,2.1-0.8,3.1-1.1c1.2-0.3,2.4-0.1,3.1,0.7c1.8,1.8,3.6,3.6,5.3,5.5c0.9,1,1.1,2.1,0.5,3.3c-0.3,0.7-0.5,1.4-0.8,2
		c-0.8,1.4-0.8,2.7,0.5,3.9c1.2,3.9,3.8,7.2,5.6,10.9c0.8,1.7,2.5,3.1,4,4.5c1.3,1.3,4.1,1,5.2-0.4c2.1-2.8,3.4-5.9,3.7-9.3
		c0.1-0.5,0.1-1-0.1-1.4c-0.7-1.8-1.6-3.5-2.1-5.3c-0.5-1.8-0.5-3.7-0.8-5.5c0-0.2-0.1-0.5-0.3-0.7c-2.6-5.4-2.3-11-1.6-16.6
		c0.1-0.9,0.4-1.9,1.1-2.6c3-2.8,5.8-5.9,10.5-6.8c0.6-0.1,1.1-0.3,1.6-0.5c1.7-0.4,3-1.4,4.1-2.4c0.9-0.9,1.7-1.9,2.6-2.8
		c0.8-0.7,1.6-1.5,2.6-1.7c2-0.5,3.5-1.5,5-2.6c2.3-1.8,4.9-3.1,8.1-3.7c1.5-0.2,2.4-1.2,2.5-2.5c0-0.9,0.8-1.1,1.5-1.5
		c0.9-0.5,1.9-1,2.7-1.7c0.6-0.5,1.1-1.2,0.6-1.9c-0.8-1-1.4-1.8-0.6-3.2c1-1.7,1.4-3.5,0-5.4c-0.4-0.6-0.7-1.3-0.7-2
		c0.1-2.1,0.4-4.2,0.6-6.2c0-0.1,0.4-0.3,0.7-0.3c0.2,0,0.5,0.1,0.7,0.2c1.3,0.9,0.9,2.1,1,3.2c0,0.3,0.6,0.7,1,0.9
		c0.1,0.1,0.6-0.1,0.7-0.3c1.5-1.7,3-3.4,4.3-5.2c0.6-0.8,0.7-1.8,0.9-2.7c0.1-0.7,0-1.4,0.1-2.1c0-0.6,0.5-0.8,1.2-0.8
		c1.6,0.1,2.6-0.7,3.6-1.6c2.4-2.1,4.3-4.5,4.8-7.3c0.5-2.5,2.2-3,4.7-3.1c1.7-0.1,3.4-0.4,5-0.7c0.8-0.2,1.5-0.6,2.2-0.9
		c0.2-0.1,0.4-0.4,0.4-0.6c0-0.2-0.2-0.5-0.4-0.6c-0.5-0.2-1.1-0.3-1.6-0.4c-0.8,0-1.1-0.3-0.9-0.7c0-0.1,0.5-0.1,0.8-0.1
		c0.3,0,0.6,0,0.8,0c4.9,0.6,9.4-1.4,14.3-1.3c0.7,0,1.5-0.7,2.1-1.1c1.8-1.1,1.7-1.6-0.4-2.8c-1.6-0.9-2.5-2.3-2.1-3.4
		c0.6-1.6,1.1-3.2,2-4.6c1.5-2.6,3.7-4.7,7-5.8c1.8-0.6,3.7-1.2,5.2-2.4c1.1-0.9,2.5-1.3,3.9-1.2c3.8,0.3,7.2-1.2,10.8-1.7
		c1.3-0.2,1.5-1.1,1.9-2c0.2-0.6,1.1-1.2,1.8-1.3c2.7-0.6,5.5-1,8.3-1.5c0.2,0,0.7,0.2,0.7,0.2c-0.1,0.4-0.2,1-0.5,1.1
		c-1,0.4-2.1,0.7-3.1,1.1c-2.4,1-4.2,2.4-5.2,4.5c-0.4,0.8-0.6,1.9-0.4,2.7c0.3,1.4,1.4,2.6,2.9,3.3c0.4,0.2,1.2,0.4,1.6,0.2
		c3.4-1.2,6.6-2.8,8.8-5.3c1.3-1.5,2.8-2.2,5-1.8c4.3-1.2,8.6-2.3,12.9-3.5c1.3-0.4,2.7-0.8,4-1.1c0.7-2.5,3.7-1.7,5.5-2.7
		c0.7-0.4,1.6-0.6,2.3-0.9c0.5-0.2,0.9-0.5,1.4-0.8c0.5-0.3,0.9-1.6,0.5-1.9c-1.8-1.3-3.3-2.6-2.2-4.8c0.1-0.2-0.2-0.4-0.3-0.7
		c-0.2-0.5-1.7-1-2.2-0.6c-2.8,2-5,4.4-7.1,6.9c-0.8,1-1.5,1.2-2.7,0.9c-0.8-0.2-1.6-0.3-2.5-0.4c-0.3,0.5-0.8,0.8-1.5,0.6
		c-0.6-0.1-1.2-0.4-1.8-0.7c-0.8-0.1-1.6-0.2-2.4-0.3c-2-0.1-2.7-1.1-2.9-2.6c-3.1-0.2-4.7-1.6-5.1-4.3c-0.4-2.4-0.5-4.5,0.8-6.7
		c0.5-0.9-0.1-1.6-1.6-1.9c-0.5-0.1-1.1-0.1-1.7-0.1c-0.3,0-0.5-0.2-0.7-0.3c0.5-0.1,1-0.3,1.5-0.4c2.1-0.7,4.1-1.5,5.8-2.8
		c0.9-0.7,1.4-2.2,0.7-3.2c-0.5-0.8-1.1-1.7-2-2.2c-2.3-1.4-5.1-2.2-8-1.6c-7.5,1.6-15.3,2.8-21.8,6.6c0,0.1,0,0.2,0,0.3
		c-0.2,0-0.3,0-0.5,0.1c-0.9,0.8-1.8,1.6-2.8,2.4c0,0.1,0,0.2-0.1,0.4c-1.2,0.4-2.5,0.8-3.7,1.1c-0.7,0.4-1.3,0.9-2,1.3l-0.2,0.4
		l0.2-0.5c0.6-0.4,1.2-0.8,1.8-1.3c1.2-0.4,2.4-0.7,3.7-1.1c0.1-0.1,0.2-0.2,0.3-0.3c0.3-1.9,0.5-2.1,2.8-2.4
		c0.1-0.1,0.2-0.1,0.3-0.2c0.1,0,0.1-0.1,0.2-0.1c-0.1-1.2,0.6-2.1,1.6-2.8c2.8-2,6-3.5,9.5-4.5c2.2-0.6,4.2-1.3,5.2-3.3
		c0.2-0.4,0.6-0.8,1-1.1c1.7-1.2,3.3-2.6,5.2-3.6c1.8-0.9,3.9,0.1,5.8,0.1c7.9,0.1,15.8,1,23.6,1.9c3.4,0.4,6.7-0.9,10.1-0.4
		c0.8,0.1,1.7-0.2,2.5-0.4c0.8-0.2,1.6-0.5,2.3-0.8c2.2-1,4.2-2.3,5.7-4.1c1.2-1.4,2.9-2.1,5-2.4c1.4-0.2,2.8-0.5,4.2-0.5
		c4.2-0.1,7.5-1.9,10.7-3.8c1.7-1,2.7-2.5,1.8-4.3c-0.6-1.1-0.8-2.1-0.1-3.3c0.5-0.8,0.9-1.7,1.1-2.6c0.1-0.6,0-1.5-0.4-2
		c-1.3-1.8-3.1-3.2-6-2.9c0,0,0,0,0,0l-0.5,0.2l0.4-0.3c0.1,0,0.1,0,0.1,0c-0.1-0.7-0.2-1.4-0.4-2c-0.4-1.2-1.3-2.1-2.9-2.3
		c-0.8-0.1-1.7-0.1-2.5-0.2c-0.3,0-0.5-0.1-0.8-0.2c0.3-0.2,0.6-0.5,1-0.7c0.8-0.3,1.6-0.4,2.4-0.7c1-0.4,1.2-1.5,0.5-2.4
		c-0.8-1-1.6-1.9-3.3-1.8c-0.5,0-1.4,0.1-1.7-0.1c-2-2.2-5.1-2.8-7.8-4c-0.5-0.2-1-0.6-1.1-1c-0.6-2.5-2.9-3.9-5-5.5
		c-1-0.8-1.8-1.8-2.7-2.7c-0.9-0.9-0.9-1.8-0.1-2.5c1-0.9,2-1.7,3-2.5c0.9-0.8,1-1.7,0.3-2.5c-1.3-1.6-2.1-3.2-1.6-5.2
		c0.1-0.5-0.6-1.3-1.2-1.7c-1.1-0.8-0.3-2.3-1.8-3c-1.1-0.6-0.1-1.7-0.5-2.6c-0.4-1.1-0.2-2.3-0.4-3.4c-0.3-1.4-0.7-2.8-1.3-4.1
		c-1.4-3.1-2.1-6.3-2.6-9.5c-0.1-0.9-0.3-1.9-0.6-2.8c-0.1-0.3-0.8-0.5-1.3-0.7c-0.2-0.1-0.7,0-0.8,0.2c-2.1,2.8-4.8,5.2-6.5,8.1
		c-1.7,3-3.8,5.7-7.8,7c-1,0.3-1.7,1.2-2.7,1.7c-1.2,0.6-2.5,1.1-3.8,1.5c-1.5,0.5-2.7,0-3.9-0.8c-0.9-0.6-1.6-1.3-1.9-2.2
		c-0.5-1.2-1.5-1.9-2.8-2.5c-1.8-0.8-2-2.2-1.9-3.6c0.2-2.3,2-4.4,0.8-6.8c-0.2-0.5,0.5-1.3,0.8-1.9c1-2.2,1.9-4.4,3.5-6.3
		c0.4-0.5-0.1-1.6-0.9-1.7c-2.5-0.3-4.1-2.3-6.9-2.3c-1,0-2-0.8-3-1.2c-0.9-0.4-1.1-1-1.1-1.7c0-0.7,0.3-1.4-0.4-2
		c-1.5-1.4-2.7-3-3.4-4.8c-0.4-1.1-1.4-2-2.3-2.9c-1.5-1.6-3.2-2.6-5.8-1.7c-1,0.3-2.3,0.5-3.3,0.3c-3.3-0.6-6.8-0.5-9.6-2.4
		c-1.1-0.7-2.6-1-3.9-1.3c-3.3-0.8-7,0.9-8.2,3.6c-0.7,1.6-0.9,3.2,0.2,4.7c0.8,1.1,1,2.2,0,3.3c-1.3,1.5-3.1,2.9-3.9,4.5
		c-1,1.9,1.2,4,0.6,6.1c-0.2,0.9,0,1.9,0.4,2.8c0.7,1.7-0.4,2.6-2,3.4c-0.7,0.4-1.8,0.6-2.1,1.2c-1.6,2.9-4.7,4.6-7.1,6.9
		c-1.2,1.1-1.2,2.5,0,3.8c0.8,0.9,1.9,1.8,2.6,2.8c0.6,0.8,1.2,1.6,1.4,2.5c0.6,2.5,0.8,5.1,1.4,7.6c0.7,2.8-1.8,5.5-0.5,8.3
		c0.1,0.2-0.4,0.8-0.8,1.1c-1.1,0.7-2.5,1.2-3.5,2c-3.5,2.9-7.7,4.8-12.2,6.3c-2.1,0.7-4.2,1.4-6.3,2.1c-1.5,0.5-2.2,1.5-2.1,2.7
		c0.1,2.8,0.5,5.6-0.1,8.4c-0.4,1.8-0.7,3.7-0.7,5.6c-0.1,1.8,0.3,3.7,0.3,5.5c0,0.7-0.1,1.4-0.4,2c-0.7,1.3-1.6,2.5-2.4,3.7
		c-0.2,0.3-0.9,0.7-1.3,0.6c-2.1-0.4-3,0.9-4.4,1.7c-0.8,0.5-2.6,0.2-3-0.5c-0.4-0.6-0.6-1.3-1-1.9c-0.6-1.1-0.8-2.4-1.8-3.1
		c-2.9-2.1-3.8-5.2-5.7-7.7c-0.7-0.9-0.5-1.8,0.1-2.6c1.9-3.2,3.7-6.3,3.5-10c-0.1-1.1,0.8-2.2,1.2-3.3c0.4-1.1,0.8-2.2,1.2-3.3
		c0.2-0.5-0.6-1.7-1.1-1.7c-4.5-0.3-8.8-1.8-13.4-1.7c-1.1,0-2.2-0.4-3-1.2c-2-2.3-4.6-4.1-7.8-5.3c-2.9-1.2-5.1-2.9-6.6-5.3
		c-1.6-2.6-4.1-4.5-7.1-5.9c-2.7-1.3-5.4-2.6-8.1-3.8c-1.3-0.6-2.7-0.8-4.1-0.5c-2.4,0.5-4.6,1.4-7.2,1.1c0,0.1-0.1,0.1-0.1,0.2
		l-0.3,0.2l0.1-0.4c0.1,0,0.2,0,0.3,0c1.3-1.7,2.3-3.5,2.1-5.7c-0.3-2.5-0.2-5.1-0.3-7.7c0-0.9-0.2-1.9-0.5-2.7
		c-0.1-0.4-0.7-0.8-1.2-0.9c-1.1-0.2-2.2-0.2-3.3-0.3c-1.3-0.1-2.1-0.6-2.4-1.5c-0.2-0.7-0.4-1.4-0.2-2c0.4-1.3,1.3-2.6,1.6-4
		c1.5-5.8,4.3-11,10-14.9c1.3-0.9,2.2-2.1,3.2-3.2c3.1-3.3,5.8-6.9,11.1-8.3c2.2-1.7,5-3,5.8-5.7c0.2-0.7,0.9-1.2,1.9-1
		c1.1,0.2,2.2,0.4,3.3,0.5c2.7,0.1,5-1.6,5.1-3.7c0-1.1-0.1-2.2-0.2-3.3c-0.1,0-0.2,0-0.2,0c-0.1-0.1-0.3-0.2-0.4-0.3
		c0.2,0,0.4,0.1,0.6,0.1c0,0.1,0,0.1,0,0.2c3.8,0.2,7-0.5,8.6-3.9c0.3-0.7,1.3-0.9,2.1-0.6c1.3,0.4,2.6,0.9,3.9,1.3
		c1.4,0.4,2.8,0.4,4-0.4c4.3-3.3,8.6-6.6,12.9-10c0.3-0.3,0.5-0.9,0.5-1.3c-0.1-1,0.3-1.8,1.2-2.4c2-1.3,3.9-2.6,5.8-3.9
		c0.5-0.4,1-0.9,1.6-1.3c0,0,0.1-0.1,0.1-0.1c0.4-0.3,0.7-0.6,1.1-0.9c2.2-1.7,2.2-1.8,0.7-4.1c-0.1-0.2-0.3-0.4-0.4-0.6
		c-0.3-0.5,0-1,0.6-1.1c2.6-0.3,5.1-0.4,6.2,2.2c0.1,0.2,0.4,0.4,0.6,0.4c4.1,1.4,8.1,1.8,12.3,0.2c2.8-1.1,5.5-2.4,7.8-4.2
		c0.8-0.6,1.8-1.3,2.8-1.5c2.3-0.4,3.2-1.8,4.2-3.2c0.8-1,1.1-2.2,0.6-3.3c-0.3-0.9-0.6-1.8-1.1-2.7c-0.8-1.4-0.8-2.6-0.3-4.1
		c0.5-1.3,0.7-2.7,1-4c-0.1,0-0.1,0-0.2,0l-0.4-0.1l0.6,0.1c0,0,0,0,0,0.1c1,0.1,2.1,0.4,3.1,0.3c3.2-0.2,4.3-1.1,4.5-3.8
		c0.1-1,0.2-1.8,0.9-2.5c1.4-1.3,0.4-2.5-0.4-3.6c-2.2-0.7-3.4-2-3.3-4c0-1.6-0.8-2.5-3-2.4c-1.7,0-2.1-1-2.3-2.1
		c-1.9,0.1-3.6-0.4-5.1-1.4c0,0,0-0.1,0-0.1c-0.1,0-0.1,0-0.2,0l0.3,0.2c-0.5,0.1-1.1,0.4-1.6,0.3c-2.6,0-4.2,1-4.8,3.1
		c-0.6,2-2.2,3.8-1.4,6c0.2,0.5,0.2,0.9-0.3,1.3c-1,0.8-2,1.6-2.9,2.4c-2.7,0.2-3.7,1.8-4.6,3.5c-0.6,1-1.3,2.1-2,3
		c-0.6,0.8-1.6,1.1-2.8,1.2c0,0.1,0.1,0.1,0.1,0.2c-0.1,0.1-0.2,0.2-0.3,0.3c0.1-0.2,0.1-0.3,0.2-0.5c0,0,0.1,0,0.1,0
		c-0.4-0.8-0.7-1.6-1.9-1.9c-1-0.2-1.8,0.8-2.3,2.5c-0.3,0.9-0.3,1.8,0.1,2.7c0.5,1,0,1.8-0.7,2.6c-0.5,0.7-2.1,1.2-3,0.9
		c-0.7-0.3-1.6-0.8-1.8-1.3c-0.6-1.3-0.8-2.7-1.1-4.1c-0.4-2.7,0.2-5.1,2.9-6.9c0.9-0.6,1.2-1.5,1.4-2.5c0.6-3.2-0.7-6-2.5-8.7
		c-0.3-0.5-1.7-0.5-2.3,0c-1.7,1.6-3.5,3.1-4.3,5.2c-0.4,1.2-1.4,2-2.5,2.7c-0.2,0.1-0.5,0.3-0.8,0.3c-0.6,0-1-0.3-0.8-0.8
		c0.9-2.2,1.7-4.4,1.4-6.8c-0.2-1.3,1.1-1.3,2.1-1.7c1.6-0.6,1.7-1.9,0.4-2.7c-1.3-0.9-2.6-1.9-4.4-2c-1.5-0.1-2.6-0.7-3.8-1.4
		c-0.6-0.4-0.8-0.7-0.4-1.2c1.5-1.4,3-2.7,4.6-4.1c0.3-0.3,1-0.3,1.5-0.4c2.1-0.6,2.6-1.1,2.3-2.3c-1.3-4.4-2-8.7,0.1-13.1
		c0.3-0.6,0.3-1.4,0.1-2.1c-1.1-2.7-0.7-5.6-2.2-8.2c-0.6-1,0-1.7,1.1-2.3c2.1-1.2,4-2.6,6.1-3.8c1.5-0.9,2.2-2.1,2.4-3.6
		c0.1-0.4,0.3-0.9,0.6-1.3c0.3-0.3,1-0.7,1.3-0.6c1.3,0.4,2.6,0.9,3.8,1.5c1.7,0.8,3.3,0.5,4.8-0.3c0.9-0.5,1.9-1.1,2.7-1.7
		c3.9-3,7.8-6.1,11.7-9.2c0.8-0.6,1.4-1.5,2-2.2c0.8-1,0-3.2-1.3-3.7c-0.3-0.1-0.5-0.3-0.8-0.3c-3.5-0.2-6.3-1.7-9-3.4
		c-0.9-0.5-2-0.9-3.1-1c-2.5-0.4-5.1-0.5-7.6,0c-0.8,0.1-1.7,0.5-2.2,0.9c-1.3,1.2-2.1,2.8-4.2,3.2c-1,1.4-2.1,2.8-3.1,4.2
		c-1.5,2.2-3,4.5-4.4,6.8c-0.7,1.2-1.5,2.6-1.5,4c0,3.2-1.8,5.8-3,8.7c-0.3,0.7-0.8,1.1-1.5,1.6c-1.7,0.9-3.2,1.9-4.9,2.8
		c-1.4,0.8-1.2,1.9-1.1,3c0.1,0,0.2,0,0.2,0c0,0.2,0,0.2,0,0.3c0.1,0.1,0.2,0.1,0.3,0.2c-0.2,0.2-0.3,0.1-0.3-0.2
		c-0.1,0-0.2-0.1-0.2-0.1c0,0,0-0.1,0-0.1c-1.3,0.3-2.7,0.4-3.7,0.9c-3.7,2-5.9,4.9-6.5,8.5c-0.3,1.4-0.5,2.7-1.9,3.7
		c-0.4,0.3-0.8,0.7-1.2,1c-1.3,1.3-1.9,2.8-1.6,4.5c0.2,1.6,0.5,3.2,1.8,4.5c0.6,0.6,0.9,1.5,1.3,2.3c0.7,0.2,1.5,0.3,2.1,0.6
		c1.7,0.8,3.2,1.8,4.8,2.7c0.2,0.1,0.5,0.3,0.5,0.5c0,0.4-0.4,0.6-1.1,0.7c-0.8,0.1-1.7,0.2-2.2,0.7c-1.3,1.2-2.4,2.5-3.6,3.8
		c-0.7,0.7-0.3,1.6,1.1,2.2c0.4,0.2,0.9,0.2,1.4,0.3c0,0,0-0.1,0-0.1l0.7-0.2l-0.4,0.3c-0.1,0-0.1,0-0.2,0c0.2,0.9,0.2,1.8-0.6,2.5
		c-1.4,1.2-2.8,2.3-4.4,3.3c-1.7,1.2-3.6,2.2-6.1,2.2c-3.2,0-4.4,1.8-5.1,4c-0.5,1.6-0.6,3.2-1,4.8c-0.1,0.3-0.5,0.6-0.7,0.9
		c-0.2-0.2-0.4-0.3-0.6-0.5c-0.6-0.8-1.3-1.5-1.9-2.3c-1-1.3-1-1.9,0.1-3.1c1.5-1.7,3-3.4,4.5-5c0.4-0.5,0-1.6-0.8-1.7
		c-2.9-0.2-3.7-1.7-4-3.8c-0.2-0.2-0.5-0.4-0.7-0.6c0.2,0.2,0.5,0.4,0.7,0.6v0c0.1,0.1,0.2,0.1,0.3,0.2l-0.3-0.2
		c1.1,0.2,2.2,0.4,3.3,0.7c1.1,0.3,2.2,0.4,3.3,0c1.8-0.7,3.6-1.3,5.4-2c0.4-0.2,0.8-0.7,0.8-1.1c0-1.6-0.2-3.2-0.3-4.9
		c-0.1-1.3-0.1-1.5,1.8-1.7c2.7-0.4,2.7-1.9,2.8-3.4c-0.5,0-0.9,0-1.4,0c-3.8,0.2-6.6-0.9-7.9-4c-0.2-0.4-0.5-0.8-0.8-1.2
		c-0.4-0.4-1.8-0.6-2.3-0.3c-1,0.8-2.2,1.5-3,2.4c-2.2,2.5-4.7,4.5-8.7,4.9c-0.5,0.1-1,0.4-1.5,0.7c-0.2,0.1-0.4,0.3-0.6,0.5
		c-0.6,0.4-0.6,1.5,0,1.9c2.9,1.8,6.1,3.3,7.6,6.3l-0.3-0.2c0.1,0.1,0.2,0.1,0.2,0.2c-1.4,0.2-2.7,0.6-4.1,0.6
		c-1.5,0-2.6,0.1-3.4,1.4c-0.4,0.8-1.4,1.4-2.2,2c-0.6,0.5-1.2,0.9-1.2,1.7c0,0.7,0,1.4-0.9,1.8c-1.1,0.5-2.2,0.4-3.3,0
		c-1-0.4-2-0.8-3.1-1.2c-1.9-0.6-3.8-0.9-5.8-0.2c-0.7,0.3-1.6,0.4-2.4,0.5c-1.1,0.2-2.3,0-3.3-0.4c-1.8-0.8-3.6-1.6-4.4-3.1
		c-1.1-2.2-3.2-3.1-5.9-3.6c-1.1-0.2-2-0.9-2.4-1.9c-0.8-2.2-2.3-4.3-1.8-6.7c0.1-0.7,0-1.4-0.1-2.1c-0.2-1.6-2.3-3.2-4.1-2.9
		c-3.9,0.5-7.8,1-11.8,1.2c-1.7,0.1-2.9,1.3-3.6,2.7c-0.5,0.9,0,2.3,1.3,3.1c0.7,0.5,1.5,0.6,2.4,0.2c0.5-0.2,0.9-0.7,1.4-0.8
		c1.7-0.3,3.4-0.3,5-0.6c1.6-0.3,3.2-0.9,4.8-1.3c0.3-0.1,0.8,0.4,1.1,0.7c0.1,0.1-0.2,0.5-0.4,0.6c-1.6,0.5-3.3,0.8-4.6,1.6
		c-1.9,1.1-3.9,1.9-6.2,2.2c-1.1,0.1-2.2,0.5-3.2,0.9c-1.6,0.5-2.9,1.4-3.4,2.9c-0.8,2.2-1.5,4.5-1.8,6.8c-0.1,0.6-0.6,1.3-1.2,1.8
		c-0.6,0.4-1.6,1-2.1,0.8c-1-0.3-0.5-1.2-0.1-1.8c0.8-1.1,0.7-2.2,0-3.3c-0.9-1.5-1.7-3-2.5-4.4c-0.7-1.3-1.5-2.5-2.3-3.8
		c-0.4-0.7-2-1.4-2.8-1.2c-1.1,0.2-2.2,0.5-3.3,0.7c-8.5,1.6-16.3,0.2-23.2-4.3c-0.5-0.3-0.5-1.3-0.1-1.9c0.9-1.3,2.1-2.2,4-2.2
		c0.9,0,1.7,0,2.5,0c3.6,0,5.2-1.5,4.5-4.3c-0.3-1.3-1-2.7-1.8-3.9c-1.1-1.8-3.1-3-5.5-2.8c-3.1,0.3-5.5-0.7-7.8-2.1
		c-3.1-2-6.1-4.2-9.3-6.1c-2.2-1.3-3.9-2.7-4.3-5c-0.5-2.9-3-4.3-6-5.4c-2.7-0.9-4.9-0.7-6.8,1.2c-0.7,0.7-1.6,1.4-2.6,1.8
		c-0.7,0.3-1.6,0.3-2.4,0.4c-0.9,0-1.9-0.9-1.4-1.4c2.2-2.3,2.8-5,3.3-7.7c0-0.2-0.2-0.4-0.4-0.5c-0.2-0.1-0.5-0.3-0.7-0.2
		c-0.8,0.3-1.6,0.5-2.2,1c-2.4,1.6-4.7,3.3-7.1,5c-0.4,0.3-1.1,0.3-1.6,0.2c-0.4-0.1-0.9-0.6-1-1c-0.4-1.9-0.3-3.7,0.3-5.6
		c1.1-3.2,1.2-6.5,1-9.7c-0.1-0.7-0.3-1.4-0.7-2c-0.1-0.2-1.1-0.3-1.4-0.2c-1.3,0.7-1.7,1.8-1.8,3c-0.1,1.2-0.7,2.2-2,2.9
		c-1.7,0.8-3.4,1.7-5.1,2.5c-1.1,0.5-2.2,0.2-3.1-0.5c-0.3-0.3-0.7-0.5-1.1-0.8c0,0,0,0,0,0c-0.2,0-0.4,0-0.6,0.1
		c-0.5,0.3-0.9,0.6-1.4,0.8c-0.2,0.1-0.6,0.1-0.8,0c-0.6-0.3-0.4-0.5,0.5-0.6c0.6,0,1.1-0.1,1.7-0.2c0.2-0.1,0.3-0.2,0.5-0.3
		c0.1,0,0.1,0.1,0.2,0.1c0.2-0.7,0.5-1.3,0.7-2c0.2-0.8-0.3-1.5-1-1.7c-1.9-0.5-3.9-0.8-5.8-0.2c-4.2,1.4-8.4,2.5-13,2.7
		c-1.3,0-2.9,0.4-3.9,1.1c-2.4,1.6-5.1,1.5-7.8,1.2c-0.1,0-0.1,0.1-0.2,0.1l-0.2,0.3l0.2-0.5c0.1,0,0.1,0,0.2,0
		c0.1-0.1,0.3-0.2,0.4-0.4c0.8-0.8,0.9-1.6,0.1-2.5c-0.7-0.8-1.4-0.9-2.9-0.2c-1,0.4-1.8,1-3,1.1c-1.9,0.2-3.9,0.6-5.7,1.1
		c-2.2,0.7-3.9,1.8-4.3,3.9c-0.2,0.9-1.1,1.2-1.7,0.9c-1.2-0.7-2.3-1.3-3.5-2c-1.7-1-2.8-2.2-3.4-3.9c-0.5-1.6-1.1-3.1-1.8-4.6
		c-0.5-1.1-1.2-2-1.8-3.1c-1.9-1.7-4.4-2.8-6.8-4c-3.6-1.9-7-4-8.5-7.6c-0.2-0.4-0.6-0.8-0.9-1.2c-0.7-0.8-1.6-1.3-2.8-1.4
		c-1.1-0.1-2.3-0.1-3.4-0.1c-2.4,0.1-4.4-0.7-6.2-2c-2.6-1.8-5.1-3.6-8.5-4.6c-1.5-0.4-2.8-1.6-4-2.5c-1.4-1.1-2.5-2.4-3.4-4
		c-0.9-1.6-2.7-2.3-5-2c-1.4,0.2-2.7,0.6-4.1,0.8c-0.9,0.1-1.7-0.2-2.1-0.8c-1.3-1.8-1.2-4-2.6-5.8c-0.2-0.2,0.2-0.9,0.6-1.2
		c0.6-0.6,0.9-1.3,0.6-1.9c-0.3-0.6-0.9-1.2-1.6-1.5c-1.2-0.5-2.6-0.9-3.9-1.2c-0.8-0.2-1.7-0.2-2.5-0.3c-1.3-0.2-1.6-0.5-1.3-2
		c0.2-1.2,0.3-2.2-1.3-2.8c0,0,0,0.1,0,0.1c-0.2,0-0.4,0-0.6,0c-0.8,0.2-1.6,0.5-2.5,0.7c-0.3,0.2-0.6,0.3-0.9,0.5
		c-0.1,0-0.2,0-0.2,0c-0.1,0.4-0.1,0.8-0.3,1.2c-0.6,1-1.5,1.3-2.7,0.6c-0.4-0.2-0.5-0.8-0.7-1.2c0-0.1,0.4-0.4,0.6-0.4
		c1-0.1,2.1-0.2,3.1-0.3c0-0.1,0-0.1,0-0.2c0.4-0.1,0.8-0.2,1.1-0.3c0.8-0.4,1.5-0.7,2.5-0.7c0.2,0,0.3-0.1,0.4-0.1
		c0.1,0,0.1,0.1,0.1,0.1c-0.6-1.8-1.7-3.4-3.4-4.7c-0.9-0.7-1.9-0.9-3.1-0.6c-1.9,0.5-3.8,1-5.4,2.1c-2.5,1.6-5.2,1.7-8.1,1
		c-1.6-0.4-3.3-0.8-4.9-1.2c-2.8-0.7-5,0.3-6.9,1.8c-0.6,0.5-0.7,1.3-1.3,1.8c-0.5,0.5-1.2,1.2-1.9,1.3c-2.2,0.3-4.4,1.1-6.7,0.6
		c-3.3-0.8-6.3,0.1-8.9,1.5c-5,2.7-10.4,4.9-14.6,8.4c-0.6,0.5-1.2,1-2,1.3c-5.5,2.6-11.1,5-17.6,2c-0.2-0.1-0.5-0.2-0.8-0.3
		c-2.6-0.8-4-0.5-6,1.4c-1.3,1.2-2.3,2.7-3.8,3.8c-2.3,1.6-2.9,3.3-1.8,5.5c0.7,1.5,1,3.2,1.7,4.7c1.9,4.4,2.5,8.6-0.5,12.9
		c-0.6,0.9,0.1,2.4,1.3,3.1c1.4,0.8,2.9,1.3,4.3,2.1c0.3,0.2,0.3,0.8,0.4,1.2c0,0-0.5,0.2-0.7,0.2c-0.9,0.1-1.8,0.3-1.9,1.1
		c-0.3,1.8-0.4,3.7-0.5,5.6c0,0.3,0.7,0.8,1.2,0.9c0.7,0.1,1.4,0.1,2.1,0.1c0-0.1,0.1-0.2,0.1-0.3c0.1,0,0.2,0.1,0.3,0.1
		c0.1-0.4,0.1-0.8,0.2-1.2c0,0-0.1,0-0.1,0l-0.3-0.3l0.5,0.2c0,0,0,0.1,0,0.1c2.4-0.5,4.8-0.2,7.1,0.6c0.6,0.2,1.1,1.2,0.6,1.8
		c-0.3,0.3-0.8,0.7-1.2,0.6c-2.4-0.1-4.5-1-6.7-1.7c0,0.1,0,0.1,0,0.2c-0.1,0-0.2,0-0.4,0c-0.3,0.8-0.2,1.8-1.5,1.9
		c-1.7,0.2-3.3,0.6-4.7,1.5c-1.5,1-3.2,0.8-4.8,0.2c-1.8-0.7-3.5-1.6-5.2-2.4c-1.2-0.5-1.4-1.5-0.8-2.3c0.6-0.8,1.3-1.5,1.9-2.3
		c1.2-1.6-0.6-3.5-2.5-3.5c-2.3,0-4.5,0-6.7,0.3c-1.3,0.2-3,0.7-3.8,1.5c-1.3,1.4-2.7,1.3-4.5,1.1c-1.4-0.1-2.8,0.3-4.1,0.5
		c-4,0.5-7.1,2.8-10.8,3.9c-1.4,0.4-1.8,1.9-1,2.9c1.3,1.5,2.7,3,4,4.5c0.5,0.5,0.1,0.9-1.2,1.4c-0.5,0.2-1.3,0.3-1.4,0.6
		c-0.5,2.3-2.1,4.3-2.9,6.5c-0.3,0.8-0.1,2,0.5,2.7c2,2.4,4.4,4.4,8.3,3.8c3.3-0.5,6.2-0.2,8.8,1.6c1.4,0.9,2.9,1.1,4.7,0.4
		c2.8-1.1,5.7-2.1,8.6-3c0.7-0.2,1.6,0.1,2.5,0.2c0.2,0,0.4,0.3,0.5,0.5c0.1,0.2,0.1,0.5-0.1,0.6c-0.4,0.3-0.9,0.6-1.4,0.7
		c-1.5,0.3-2.7,0.7-2.2,2.3c0.2,0.6,0.2,1.5-0.1,2c-1.2,1.9-2.2,3.7-2.6,5.9c-0.5,2.3-4.7,4.7-7.6,4.7c-0.5,0-1.1-0.2-1.6-0.4
		c-1-0.5-1.9-1-2.7-1.6c-0.6-0.4-1.1-1.4-1.7-1.4c-0.9,0-0.8,1-1,1.6c-1.2,2.7-3.8,4-7.1,4.4c-0.5,0.1-1.1-0.2-1.5-0.5
		c-0.4-0.3-0.6-0.8-1-1.1c-1.5-1.8-3.1-2.2-4.9-1.4c-3.2,1.5-6.5,3-7.6,6.3c-0.1,0.4-0.5,0.9-1,1.1c-5,2.3-8.4,6.2-13,8.9
		c-3.2,1.9-4.1,4.3-3.2,7.4c0.3,1.1,0.6,2.3,1,3.4c0.4,1.2,0.3,2.4-0.8,3.3c-2.6,2.1-2.8,4.5-1.8,7.1c0.6,1.6,0.9,3.2,1.5,4.8
		c0.3,1,1.3,1.6,2.4,1.9c1.1,0.3,2.3,0.6,3.3,0.4c2.2-0.4,4.3-0.8,6.5-0.6c0-0.1,0-0.1,0-0.2c0.1-0.1,0.1-0.3,0.2-0.4
		c0-0.5,0.1-1,0.1-1.4c0-0.2,0-0.6,0.1-0.7c0.5-0.3,0.8,0,0.5,0.6c-0.2,0.5-0.5,1-0.7,1.5c0,0.2,0,0.4,0,0.6c-0.1,0-0.1,0-0.2,0
		c-0.2,1.1-0.6,2.2-0.6,3.3c0,1.8-1.1,3.1-2.6,4.2c-1.2,0.9-1.3,2-0.6,3.2c0.6,1,0.3,1.8-0.2,2.7c-0.4,0.6-0.9,1.1-1.4,1.7
		c-0.6,0.8-0.4,1.4,0.5,1.6c2.5,0.7,5,1.2,6.6-1.3c0.1-0.2,0.7-0.3,0.7-0.3c2.2,1.8,5.2,2.9,5.9,5.7c0.2,0.8,1.2,0.8,1.9,0.2
		c0.2-0.2,0.3-0.4,0.5-0.6c1.4-1.4,1.4-1.3,4-0.5c0.7,0.2,1.6,0.3,2.4,0.3c0.8,0,1.7-0.3,2.5-0.4c0.3,0,0.6,0,0.8,0.1
		c0.5,0.3,0.5,0.7-0.1,1.1c-2.4,1.4-3.8,3.2-5.2,5.4c-3,4.8-6.8,9.1-13,11.7c-2,0.8-3.6,2.1-5.8,2.8c-3.4,1.1-6.5,2.9-9.8,4.2
		c-2.1,0.9-3.8,2-5.1,3.6c-0.7,0.9-1.8,1-3,0.6c-2.6-0.8-5.1-0.2-7.3,1c-1.9,1-3.8,2.1-5.5,3.3c-2.9,2.1-6.1,3.4-10,3.5
		c-1.4,0.1-2.8,0.3-4.2,0.4c-2.9,0.2-4.4,1.9-6,3.5c-0.2,0.3-0.1,0.9,0.1,1.3c0.3,0.3,0.9,0.7,1.3,0.7c0.8,0,1.7-0.1,2.5-0.3
		c1.7-0.6,3.4-0.1,5.1-0.4c1.1-0.2,2.4-0.4,3.1-1c1.9-1.7,4.1-2.3,6.8-2.3c3.7-0.1,6.4-1.6,8-4.3c0-0.1-0.1-0.1-0.1-0.2l0.5-0.2
		l-0.3,0.3c0,0,0,0,0,0.1c0.7,0.9,1.4,1.9,2.1,2.8c0.5,0.7,0.5,0.7,1.4-0.6c0.3-0.4,0.5-1.1,0.9-1.1c2.5-0.3,4.8-1.4,7.3-1.1
		c1.1,0.1,2.1,0.5,3.1-0.2c1.3-1,2.9-1.4,4.5-1.9c2.5-0.9,5.6-1.3,6.7-3.8c1.9-0.9,3.8-2,5.8-2.8c0.6-0.3,1.6,0.1,2.4,0.2
		c0.4-0.6,0.7-1.4,1.3-1.5c2-0.4,3.6-1.4,5.4-2c2-0.6,3.4-1.6,4.2-3.2c0.3-0.6,1-1.1,1.7-1.5c3.8-2,7.7-4,12.1-4.9
		c3.3-0.7,5.6-1.9,7.5-4.1c0.8-0.9,2.2-1.4,3.4-2c0.9-0.5,2-0.9,3-1.4c1.6-0.8,2.1-2.2,1.3-3.6c-0.4-0.6-0.9-1.2-1.3-1.8
		c-0.6-1-0.4-1.8,0.5-2.5c1.7-1.5,3.7-2.2,6.1-1.8c1.5,0.3,2.7,0,3.9-0.8c1.7-1.2,3.7-2.1,4.2-4.2c0.3-1.1,1.7-1.8,3.2-1.9
		c1.2-0.1,2.3-0.4,2.9-1.3c2.9-4.2,8.1-5.6,12.9-7.5c1.5-0.6,3.4,0.5,3.6,2c0.1,0.7,0.1,1.4-0.1,2.1c-0.1,0.3-1,0.7-1.2,0.6
		c-3.3-1.5-6.5-1.2-9.6,0.5c-0.7,0.4-1.5,0.8-1.8,1.4c-1.6,3.4-4.7,5.8-7.5,8.4c-1,0.9-1.2,2.1,0.1,3.1c0.6,0.5,0.7,0.8-0.1,1.1
		c-1.5,0.6-3,1.3-4.5,1.9c-0.6,0.3-1,1.4-0.5,1.9c0.5,0.5,1.2,1.2,1.8,1.2c1.4,0,2.9-0.2,4.1-0.8c2.5-1.2,5.1-2,7.8-2.6
		c1.1-0.3,2.2-0.6,3.2-1c2.5-1.1,4.9-2.2,8-1.7c0.7,0.1,1.6-0.4,2.3-0.7c1.3-0.5,2.2-1.4,3.1-2.3c0.8-0.9,1.8-0.6,2.7,0.1
		c0.6,0,1.1,0,1.7,0c0.4-1,0.8-1.9-0.6-2.8c-0.8-0.5-1.4-1.4-1.8-2.2c-0.7-1.4-0.1-2.6,1.3-3.6c0.8-0.6,1.7-0.6,2,0.1
		c0.6,1.4,1.4,2.4,3.5,2c1.3-0.2,2.7-0.2,4-0.3c0,0,0-0.1,0-0.1l0.4-0.2l-0.2,0.4c0,0-0.1,0-0.1,0c0,0.7-0.1,1.3,0.1,2
		c0.7,2.6,1.9,4.9,5.4,5.8c2,0.5,3.2,1.9,4.1,3.4c0.4,0.6,0.5,1.3,0.9,2c0.6,0.8,1.4,1.4,2.6,1.6c1.1,0.2,2.3,0.3,3.4,0.3
		c2.7,0,5,0.7,7,2.2c0.6,0.4,1.4,0.7,2.1,1.1c0,0-0.1-0.1-0.1-0.1l0.4-0.2l-0.2,0.3c0,0,0,0-0.1,0c0.5,0.5,0.9,1.1,1.5,1.5
		c1.8,1.6,3.9,2.7,6.8,2c0.2-0.1,0.6,0,0.8,0.1c0.6,0.2,0.9,0.8,0.5,1.1c-1.8,1.5-1.7,2.8,0,4.2c0.8,0.7,1.3,1.6,2.2,2
		c1.3,0.6,2.4,1.1,2.3,2.5c0,0.9,0.3,1.8,0.4,2.8c0.4,2.1,1.6,4,3.3,5.6c1,0.9,2.3,1.4,3.8,1.2c1.2-0.1,2.1-1,1.9-1.9
		c-0.2-0.7-0.5-1.3-0.7-2c-0.1-0.2-0.1-0.5,0.1-0.7c0.3-0.5,0.7-0.3,1,0.3c0.4,0.9,1.1,1.7,1.2,2.6c0.1,1.6,1.3,2.5,2.4,3.6
		c0.1,0.1,0.3,0.5,0.2,0.6c-0.3,0.5-0.8,0.6-1.4,0.2c-0.5-0.3-1-0.5-1.5-0.7c-1.8-0.4-3.6,0.3-4.2,1.5c-0.7,1.3-1.3,2.6-0.9,4.1
		c0.3,1.4,0.6,2.8,0.9,4.1l-0.2-0.2c0,0.1,0,0.3,0,0.4c0.1-0.1,0.1-0.1,0.2-0.2c1,1.1,1.7,2.3,1,3.7c-1,2.2-1.2,4.5-0.8,6.9
		c0,0.2,0.3,0.6,0.5,0.5c0.5-0.1,1.2-0.1,1.4-0.4c1-1.5,1.9-3,2.8-4.5c0-0.2,0-0.4,0.1-0.7c0.1,0,0.3,0,0.4,0
		c0.8-0.9,1.9-1.1,3.2-1.1c0-0.1,0.1-0.1,0.2-0.2c0.1,0,0.1,0,0.2,0c0-0.2,0-0.4,0.2-0.5c2.3-2.6,4.6-5.1,5.9-8.2
		c0.1-0.2,0.9-0.2,1.3-0.2c0.2,0,0.5,0.3,0.5,0.5c0,0.7,0.1,1.4-0.2,2c-0.6,1.5-1.3,3-2.1,4.5c-0.6,1.2,0.2,2,0.8,2.9
		c0.1,0,0.2,0,0.4,0c0,0.1,0,0.3,0,0.4c0.7,0.7,1,1.5,1.2,2.4c0.1,0.1,0.1,0.1,0.3,0.2l0.2,0.3L237,242c0-0.1-0.1-0.2-0.1-0.3
		c-1.1-0.6-1.1-1.5-1.2-2.4c-0.1-0.1-0.1-0.2-0.2-0.3c0-0.1-0.1-0.1-0.2-0.2c-0.9-0.1-1.9-0.2-2.8-0.5c-1.2-0.4-2.5-0.5-3.7-0.5
		c0,0.1,0,0.1,0,0.1c-0.1,0-0.2,0-0.3,0c-0.8,1-2,1.1-3.2,1.1c-0.1,0.1-0.1,0.1-0.2,0.2c-0.1,0.2-0.2,0.3-0.3,0.5
		c-0.2,2,0.1,4.1-1,6c-0.4,0.7,0.5,1.7,1.6,2c0.4,0.1,0.9,0.1,1.4,0.2c0,0,0-0.1,0-0.1c0.2-0.1,0.3-0.3,0.5-0.4
		c0.1-0.3,0.3-0.6,0.5-1c0.1,0.2,0.2,0.4,0.1,0.5c-0.2,0.2-0.4,0.3-0.6,0.5c-0.1,0.2-0.2,0.4-0.3,0.6c-0.1,0-0.2,0-0.3,0
		c-0.1,0.7-0.5,1.4-0.2,1.9c0.8,1,1.4,1.9,0.9,3.2c-0.4,0.9-0.6,1.8-0.8,2.7c-0.1,0.7-0.5,1.5-0.1,2c1.3,1.6,1.1,3.6,2.2,5.2
		c0.2,0.3,0.9,0.6,1.3,0.6c0.5,0,1.1-0.3,1.3-0.7c1.1-2,2.4-4.1,2.4-6.4c-0.1,0-0.1,0-0.2,0c0-0.1,0-0.2-0.1-0.4
		c-0.2-0.1-0.3-0.2-0.5-0.3c0.2,0,0.4,0.1,0.4,0.1c0,0.1,0,0.1,0,0.2c0.1,0.1,0.2,0.1,0.3,0.2c0,0.1,0,0.1,0,0.2c0.5,0,1.1,0,1.6,0
		c0-0.1-0.1-0.1-0.1-0.2c0.1-0.1,0.2-0.2,0.4-0.3c-0.1,0.2-0.1,0.3-0.1,0.5c0,0-0.1,0-0.1,0c0.6,0.8,1.2,1.6,1.8,2.5
		c0.1,0,0.1-0.1,0.2-0.1c0,0.2,0.1,0.4,0.1,0.5c0.2,0.3,0.4,0.6,0.5,0.9c0,0.6-0.3,0.6-0.4,0c-0.1-0.2,0-0.5,0-0.7c0,0,0-0.1,0-0.1
		c-0.1-0.1-0.2-0.2-0.3-0.4c0,0,0,0,0,0c-1.3,0.6-1.5,1.6-1.3,2.8c0.2,1,0.9,1.7,1.9,2.2c0.7,0.3,1.6,0.3,2.4,0.4
		c1.1,0.2,1.4,0.8,0.8,1.4c-1.5,1.4-2.7,2.9-2.8,4.9c0,0.9-1.2,0.8-2,1.1c-1.1,0.4-1.2,0.9-0.5,1.5c1.9,1.7,1.8,2.5-0.6,3.4
		c-0.6,0.2-1.1,0.3-1,0.9c0.4,1.6,2.1,2.7,3.5,2.3c1.9-0.5,3.7-1.3,5.7-1.2c0.3,0,0.7,0.1,0.7,0.3c0,0.4,0.1,0.9-0.1,1.2
		c-0.7,0.7-1.6,1.3-2.5,1.9c-1.6,1.2-2.2,2.7-2.1,4.4c0,0.4,0.6,0.7,1,1l0,0c-0.1-0.1-0.1-0.1-0.2-0.2c0.2,0,0.2,0,0.4,0
		c0.1-0.1,0.2-0.2,0.3-0.3c0.3,0.2,0.1,0.3-0.3,0.3c-0.1,0.1-0.1,0.2-0.2,0.2c1.4,1.2,2.8,2.5,4.2,3.7c0.8,0.7,1,1.6,0.6,2.5
		c-0.3,0.8-0.9,1.5-1.3,2.2c0,0-0.1,0-0.1-0.1c0,0.1,0,0.2,0,0.2l0.2-0.1c-0.1,0.7-0.4,1.4-0.1,2.1c0.5,1.2,0.5,2.2-0.5,3.2
		c-0.2,0.2-0.2,0.4-0.3,0.6l2.4,4.1c1.6,0.6,3,1.3,4,2.5c1,1.2,2.4,1.9,4,2.5c1.3,0.4,2.6,1,3.8,1.6c0.8,0.4,1.3,1,1,1.7
		c-0.6,1.4-0.9,2.7-0.4,4.1c0.2,0.5,0.8,1,1.2,1.5l0.4-0.1l-0.3,0.2c-0.1-0.1-0.1-0.1-0.2-0.2l0,0c0.1,0.5,0.2,0.9,0.3,1.4
		c0.8,0.1,1.5,0.2,2.3,0.3c1.1,0.2,2.1,0.6,2.5,1.6c0.6,1.5,1.2,3.1,2.2,4.5c1,1.5,0.2,2.7-0.5,4c-0.2,0.4-0.6,0.8-1.1,1.1
		c-0.7,0.4-1.6,0.9-2.2,0.8c-2.4-0.6-5-0.8-6.8-2.5l0.3,0.2c-0.1-0.1-0.1-0.1-0.2-0.2c0.8,0.1,1.6,0.3,2.4,0.3
		c1.6,0,2.5-0.8,2.6-2.1c0.3-2.7-0.4-5.3-1.6-7.9c-1.2-0.5-2.4-0.9-2.8-2.2c-0.4-1.1-0.9-2.2-1.2-3.4c-0.7-2.5-2.6-4.2-5.6-4.8
		c-2.3-0.5-4.1-1.5-5.9-2.7c-1.1-0.7-2.1-1.6-3.3-2.2c-0.7-0.3-1.6-0.4-2.4-0.5c-0.7-0.1-1.8,0.7-1.7,1.2c0.3,1.4,0.8,2.7,0.7,4.1
		c-0.1,0.6,0.4,1.4,0.9,1.9c1.2,1.3,2.7,2.4,3.7,3.8c3.3,4.1,7.7,7.5,10.9,11.6c0.4,0.6,1.3,0.9,1.9,1.4l-0.2-0.1
		c0.1,0,0.1,0.1,0.2,0.1c-2.3,0.8-3.7,2.1-3.7,4.2c-0.1,3-0.2,6.1,0.1,9.1c0.3,3.8-0.7,7.4-2.3,11c-1.7,3.7-3.8,7.3-5,11.2
		c-1,3.6-2.6,7.2-5.2,10.3c-2.4,2.8-3,6-3,9.3c0,0.7,0.1,1.4,0.1,2.1c0.2,3.8-0.4,7.5-3.2,10.7c-0.9,1-1,2.2-0.4,3.4
		c1.5,2.4,1.9,4.8,1,7.5c-0.3,1.1-0.1,2.3-0.1,3.5c0,0.7,0.1,1.4,0.4,2c0.9,1.9,1.9,3.9,3.1,5.7c0.3,0.6,1.2,1,1.9,1.3
		c1.6,0.8,1.6,0.8,1.1,1.9c-0.3,0.7-0.8,1.3-1,1.9c-0.2,0.7-0.3,1.4-0.1,2.1c0.8,2,2.2,3.8,1.1,6c-0.3,0.5,0.1,1.4,0.5,2
		c1.4,2.6,2.8,5.1,4.2,7.7c0.8,1.3,1.2,2.6,1,4c-0.2,1.6,0.4,2.5,1.9,2.7c5,0.6,8.7,3.3,12.8,5.4c3.4,1.7,5.4,4,5.6,7.4
		c0.1,2.6,1.1,5,1.9,7.5c1.4,4.3,3.9,8.3,4.6,12.7c0.2,1.4,1.3,2.6,2.6,3.5c2.7,1.8,4.3,4.3,6,6.8c0.9,1.4,0.6,2.7-0.3,4
		c-0.6,1-1.7,1.1-2.9,1.1c-0.3,0-0.6,0.1-0.8,0.1c-0.8,0.2-1.2,1.2-0.9,1.7c1.4,2.1,3.3,3.9,5.9,4.9c3.5,1.3,5.9,3.6,8.6,5.6
		c1.1,0.8,1.6,2,1.5,3.2c0,1.2-0.1,2.3-0.4,3.5c-0.4,1.5,0.2,2.6,1.5,3.7c4.1,3.5,9.1,6.3,11.9,10.9c0.5,0.8,2,0.8,3,0.1
		c1.3-0.8,1.8-2.1,1.5-3.1c-0.5-1.6-1.6-3-2.9-4.2c-1.2-1.1-4.5-5.9-5-7.3c-0.4-1.1-1.1-2.2-1.4-3.3c-0.5-1.8-0.7-3.7-1.1-5.5
		c-0.5-2.1-3.2-3.2-4-5.3c-1.2-3.1-2.9-6.1-5-8.8c-2.3-3-3.8-6.3-6.6-9c-0.5-0.5-0.9-1.2-1-1.9c-0.5-3.5-1.2-7-0.1-10.4
		c0.2-0.6,0.6-0.8,1.3-0.6c1.5,0.6,3.1,1.1,4.6,1.7c1.6,0.6,2.6,1.5,3,3.1c0.6,3,1.1,6,2.4,8.9c2.1,4.4,4.9,8.5,8.5,12.1
		c0.7,0.7,1.8,1.4,2,2.2c0.6,2.2,2.5,3.6,4.4,5c1.3,0.9,2.6,1.8,3.8,2.8c0.6,0.5,0.8,1.2,0.2,1.9c-0.3,0.4-0.6,0.8-0.9,1.2
		c-0.8,1.1-0.7,2.4,0.6,3.2c1.6,1,3.2,2,4.9,2.7c2,0.8,3.1,1.8,3.3,3.7c0.1,0.8,1.1,1.6,1.8,2.2c8.7,7.5,11.1,11.3,13.7,19.7
		c0.2,0.6,0.1,1.4-0.1,2.1c-0.3,0.9-0.8,1.8-1.4,2.5c-2,2.3-1.2,4.3,0.3,6.5c1.3,1.9,2.9,3.5,5.5,4.2c2.5,0.7,4.5,2,6,3.7
		c1.6,1.9,3.8,2.7,6.4,3.2c1.1,0.2,2.3,0.3,3.3,0.6c1.1,0.3,2.2,0.6,3,1.2c3.7,2.7,7.7,4.7,12.5,5.8c2.4,0.5,4.8,1.5,7,2.6
		c2.5,1.2,5.2,1.9,7.9,2.6c9.4,2.4,9.4,2.4,18.8-0.5c2.7-0.8,5.3-0.6,7.2,0.9c4.3,3.4,9.6,5.9,13.3,9.8c1.6,1.7,4,2.7,6.6,2.9
		c3.7,0.3,7.2,1.3,10.7,2.2c4,1.1,8,2.5,12.4,2.2c0.9-0.1,1.6,0.4,1.9,1.1c0.9,2,2.9,3.5,4.5,5.1c1.8,1.8,3.8,3.5,5.5,5.4
		c1,1.1,1.7,2.4,1.1,3.9c-0.9,2.3,0.6,3.5,3.1,4.1c1.1,0.3,2.2,0.6,3.3,0.6c0.9,0,1.7,0,2.4,0.4c2,1.3,4.2,2.4,4.8,4.7
		c0.7,2.5,3.1,3.1,5.7,3.5c0.8,0.1,1.7,0,2.5-0.2c2.8-0.8,5.2,0,6.9,1.6c1.5,1.5,3.7,2.1,5.4,3.4c1.8,1.4,2.9,1.2,5.2-0.3
		c1-0.6,1.3-1.5,0.8-2.5c-0.3-0.6-0.8-1.5,0-1.9c2.2-1.2,3.5-3,5.1-4.6c0.3-0.3,1.7-0.3,2.3,0c2.4,0.9,4.2,2.5,4.5,4.8
		c0.2,1.7,0.8,3.2,2.1,4.5c1.6,1.6,1.9,3.9,3.9,5.4c0.5,0.4,0.6,1.3,0.6,1.9c0,3,0.2,6.1-0.2,9.1c-0.2,1.8-0.1,3.2,1.2,4.6
		c0.6,0.6,0.3,1.4-0.1,2c-1.7,2.2-3.3,4.4-6.4,5.5c-3.1,1.1-5,3-5.8,5.7c-0.5,1.5-1.5,2.5-3.1,3.1c-1.5,0.6-3,1.3-4.5,2
		c-0.4,0.2-0.7,0.7-0.8,1.2c-1.6,5.8-1.6,5.8-4.3,9.7c-0.3,0.4-0.8,0.8-0.9,1.2c-0.2,2.3-0.7,4.7-0.2,6.9c0.4,1.8,2.6,2.9,4.6,3.7
		c0.1,0,0.5-0.2,0.7-0.4c0.4-0.3,0.7-0.7,1-1.1c0.2,0.4,0.4,0.7,0.4,1.1c0,1.2-0.5,2.3-1.7,3.1c-1.6,1-3.3,1.8-4.8,2.8
		c-2.3,1.6-3.7,3.5-2.7,6.2c0.4,1.1,0.8,2.3,1,3.4c0.1,0.7,0,1.4-0.3,2c-0.6,1.4,0.1,2.3,1.3,2.9c1.7,0.9,3.4,1.6,5.2,2.4
		c2.1,0.9,3.9,2,4.8,3.9c0.8,1.6,1.9,2.8,3.4,3.9c0.8,0.6,1.7,1.4,1.9,2.2c1,3,3.3,5.5,4.5,8.3c1.6,3.8,4.2,7.1,6.9,10.4
		c2.8,3.5,5.4,7.1,8,10.8c0.4,0.6,0.8,1.4,0.7,2c-0.6,2.2,0.9,3.6,2.4,5c4.8,4.4,11.3,7,16.9,10.6c1.1,0.7,2.7,0.8,3.9,1.3
		c3.1,1.2,6.3,2.3,8.7,4.3c3.2,2.7,6.7,5,10.1,7.5c0.9,0.7,1.3,1.5,1.5,2.4c0.2,1.2,0.2,2.4,0.5,3.5c0.6,2.3,1.1,4.6,0.2,6.9
		c-0.3,0.8,0,1.9,0.3,2.8c1.8,4.6,1.3,9.2-0.1,13.8c-0.2,0.7-0.4,1.4-0.2,2c2,6.9,0.9,14,1.2,20.9c0.1,1.9-0.3,3.7-0.7,5.6
		c-0.5,2.3-1,4.6-1.7,6.9c-0.4,1.4-0.6,2.7,0,4.1c1,2.1,0.8,4.2-0.1,6.2c-1,2.1-1.1,4.1-0.1,6.1c1.3,2.7,0.5,5.6,1.8,8.3
		c0.6,1.2-0.1,2.8,0,4.1c0.1,1.2,0.3,2.3,0.6,3.5c0.4,1.2,0.3,2.3-0.2,3.4c-0.7,1.5-1.1,3.1-1.6,4.7c-1.5,5.2-3,10.5-4.4,15.7
		c-0.3,0.9-0.6,1.8-1.5,2.5c-1.9,1.3-1.9,3-0.8,4.4c1.9,2.4,2,5.4,3.9,7.8c1.7,2.2,1.6,4.5,0.1,6.7c-0.9,1.3-1.1,2.6-0.9,4
		c0.2,1.4,0.1,2.8,0.1,4.2c0,1.7,0.7,3.2,1.9,4.6c0.7,0.8,1.4,1.5,2.1,2.2c-3.1-0.1-3.6,0.2-4.2,2.1c-0.2,0.7-0.6,1.3-0.5,2
		c0.4,2.2,0.9,4.5,1.4,6.7c0.2,0.7,2.1,1.1,2.8,0.6c1.1-0.8,2-1.7,1.9-2.9c-0.1-1.6,0-3.2,0.3-4.8c0.2-1.4-0.6-2.7-1.6-3.8
		c1.5,0.4,2.7-0.1,4-0.6c1-0.4,1.2-0.2,1.5,0.9c0.2,0.7,0.7,1.3,0.7,2c-0.2,3-0.9,6-0.7,8.9c0.2,3-0.3,5.9-0.9,8.9
		c-0.2,0.9-0.3,1.9,0.3,2.7c2,2.7,1.3,5.3-0.2,7.9c-0.3,0.5-0.7,0.7-1.3,0.5c-0.2-0.1-0.6-0.2-0.6-0.4c-0.4-0.8-0.7-1.6-1.1-2.4
		c-2.5-0.1-4.5,1.1-5,2.9c-0.6,2.3-2.2,4.2-3.4,6.2c-0.2,0.3,0.2,0.9,0.5,1.2c0.3,0.3,1,0.5,1.4,0.4c0.8-0.2,1.4-1,2.1-1
		c1.6,0.1,3.3,0.4,4.9,0.7c0.9,0.2,1.7,1.4,1.5,2.2c-0.5,1.8-1,3.5-0.6,5.3c0.1,0,0.2,0,0.2,0c0,0.1,0.1,0.2,0.1,0.3
		c0.2,0.1,0.4,0.1,0.3,0.1c-0.1,0.3-0.2,0.2-0.3-0.1c-0.1,0-0.2-0.1-0.3-0.1c0,0,0-0.1,0-0.1c-1.6,0.2-3.1,0.4-4.3,1.4
		c-0.9,0.7-1.4,1.4-1.2,2.4c0.2,0.9,0.4,1.8,0.8,2.6c0.3,0.6,1.2,1.1,1.3,1.7c0.1,0.9-0.2,1.8,0.6,2.6c0.3,0.3,0.7,0.5,1.1,0.7v0
		l0.4-0.1l-0.2,0.3c-0.1,0-0.1-0.1-0.2-0.1c0,0.7,0,1.3-0.2,1.9c-0.4,2-0.4,2,1.7,3c1.3,0.6,2.5,1.3,3.8,2c0,0,0,0.1,0,0.2
		c0,0,0.1,0,0.1,0c1.1,1.5,1.1,1.7,0,2.7c-0.1,0-0.1,0-0.2,0c0,0.1,0,0.2,0,0.2l0.3-0.2c0,2.3,1,4.5,0.1,6.8
		c-0.3,0.9,0.6,1.6,1.9,1.7c1.2,0,1.9-0.5,2-1.7c0.2-1.7,0.1-3.5,0.9-5.1c0,0,0-0.1-0.1-0.1l-0.3-0.4l0.5,0.2
		c-0.1,0.1-0.1,0.2-0.1,0.3c0.8,0.7,1.3,1.4,1.3,2.4c0,1,0.4,1.8,1.2,2.5c0.8,0.8,1.3,1.5,0.4,2.4c-0.7,0.7-1.3,1.5-2.6,1.5
		c-0.6,0-1.2-0.2-1.7-0.1c-0.5,0.1-1,0.5-1.2,0.8c-0.3,0.5,0,0.9,0.6,1.1c0.8,0.2,1.6,0.5,2.4,0.6c2.8,0.1,3.5,2,4.6,3.5
		c-0.6,1.3,0.1,2.2,1.5,2.9c1.8,1,3.5,2.1,5.2,3.1c0.1,0,0.3,0,0.4,0c0,0.1,0.1,0.2,0.2,0.3c0.5,0.2,0.8,0.5,1.1,0.9
		c0.1,0,0.2,0.1,0.4,0.1l0.2,0.3l-0.4-0.2c0-0.1-0.1-0.2-0.2-0.3c-0.5-0.2-0.9-0.5-1.1-0.9c-0.1,0-0.2-0.1-0.4-0.2
		c-0.1-0.1-0.2-0.1-0.2-0.1c-2.4,0.2-4.7-0.1-6.8-1.2c-0.4-0.2-1-0.3-1.6-0.3c-0.2,0-0.6,0.3-0.6,0.4c0.1,0.4,0.1,1,0.5,1.2
		c3.4,2,6.9,3.8,9.8,6.4c1,1,2.8,1.5,4.4,1.9c1,0.3,2.1,0,3.2,0c0.3-0.5,0.6-1.1,0.9-1.6c0.1-0.2,0.4-0.4,0.6-0.4
		c0.7,0,0.7,0.3,0.5,0.9c-0.2,0.3-0.1,0.7-0.1,1.1c0.5,0.1,1,0.3,1.5,0.4c1.8,0.4,3.1,1,2.6,2.8c-0.2,0.5,0.1,0.9,0.8,1.1
		c2.1,0.4,3.3,1.5,4.1,3.1c0.5,0.9,1.7,1.1,2.8,1.1c1-1,1.7-2.3,3.2-2.8c0.6-0.2,1.2-0.1,1.4,0.4c0.2,0.4,0.2,0.9,0.1,1.3
		c-0.1,0.9-0.3,1.9,0.8,2.5c0.9,0.5,2,0.8,3.1,1c0.8,0.1,1.6-0.2,2.4-0.2c1.1,0,2.2,0.1,3.3,0.2c1.8,0.1,1.8,0.1,1.3-2
		c-0.1,0-0.2,0-0.2,0.1c0-0.2,0-0.2-0.1-0.3c-0.1-0.1-0.2-0.1-0.3-0.2c0.2-0.2,0.3-0.1,0.3,0.2c0.1,0,0.2,0.1,0.3,0.1
		c0,0.1,0,0.1,0,0.1c1.5-0.4,3.1-0.8,4.6-1.1c1.2-0.3,1.8-0.9,2-2c0.1-0.6,0.7-0.6,1.4-0.5c1.1,0.2,2.4,0.6,3.2,0.3
		c1.9-0.8,3.6-2,5.4-3.1c0.1-0.1,0-0.5-0.1-0.6c-0.8-0.9-2.1-0.4-3.1-0.7c-3.6-1.3-7.2-2.6-10.8-3.9c-0.5-0.2-1-0.5-1.4-0.8
		c-1.6-1.6-3.9-2.6-5.4-4.3c-0.9-1-1.3-1.8-1.6-3c-0.7-3-2.6-4.3-6.3-4.5c-1,0-2,0-3,0.1c0,0.1-0.1,0.1-0.1,0.2
		c-0.1,0-0.2,0.1-0.3,0.1c-0.1,0.6-0.2,1.4-0.6,1.6c-2.8,1.1-2.8,3.2-3,5.3c0,0.2-0.1,0.5-0.2,0.7c-0.1,0.2-0.4,0.4-0.5,0.3
		c-0.2-0.1-0.5-0.3-0.5-0.5c0-0.9-0.1-1.8,0-2.7c0.4-2.4,2-4,4.9-4.6c0-0.1,0.1-0.2,0.1-0.3c0.1,0,0.3,0,0.4,0
		c0.7-1.2,1.4-2.4,3.5-1.8c0.3,0.1,0.6,0.2,0.8,0.1c0.5-0.1,1.1-0.3,1.4-0.6c0.2-0.3,0.3-0.9,0-1.2c-1.2-1.6-2.8-2.9-3.8-4.6
		c-1-1.6-1.4-3.5-2.1-5.3c-0.7-2-0.3-3.7,1.3-5.2c0.7-0.7,1.5-1.4,2.4-2c2.2-1.4,3.2-3.2,3-5.4c-0.2-2,0.6-3.6,2.3-5
		c1.8-1.5,3.3-3.2,4.9-4.8c0.9-0.9,1.2-2.1,1-3.3c-0.1-0.7-0.2-1.4-0.4-2.1c-0.5-1.9-1.4-3.6-4.3-3.6c-1.4,0-2.7-0.5-3.9-1.3
		c-1.3-0.9-2.7-1.7-4-2.6c-2.7-2-3-4.4-0.8-6.8c0.8-0.9,1.8-1.8,3-2.4c1.7-0.8,3.6-1.3,5.4-2c0.5-0.2,1.1-0.6,1.2-0.9
		c0.3-2,2.3-3.8,1.1-6c-0.3-0.6-0.4-1.4-0.5-2.1c-0.2-2,0.3-3.6,2.1-5.1c1.1-0.9,2-2,2.9-3c0,0,0,0,0,0c-0.1-0.1-0.1-0.2-0.2-0.2
		c-0.7,0-1.4-0.1-2-0.3c-0.6-0.2-0.5-0.7,0.1-1c0.2-0.1,0.7-0.2,0.7-0.1c0.4,0.4,0.8,0.9,1.2,1.4c0.2,0,0.3,0,0.5,0
		c-0.1,0.1-0.1,0.2-0.2,0.2c0.5,0.1,1.1,0.2,1.6,0.2c2-0.1,3.3-1.3,3-2.7c-0.3-1.1-0.7-2.3-1.1-3.4c-0.2-0.6-1.4-0.9-2.2-0.7
		c-0.5,0.2-1,0.5-1.5,0.7c-2.7,1-5.3,0-5.9-2.3c-0.4-1.4-0.7-2.7-1.1-4.1c-0.1-0.4-0.4-0.9-0.5-1.3c-0.2-0.8,1.3-1.8,2.3-1.4
		c1.6,0.5,3.2,0.9,4.7,1.6c2.1,1,4.3,1.1,6.6,0.9c2.4-0.3,5.1-2.4,5-4.2c0-1.4-0.7-2.8-0.6-4.1c0-1.6,0.5-3.2,0.8-4.8
		c0-0.2-0.2-0.4-0.2-0.7c-0.2-0.4-0.4-0.9-0.5-1.3c-0.3-1.5,0.5-2.4,2.1-2.1c6.3,1.1,12.4,0.7,18.4-1.3c1.6-0.5,3.2-0.9,4.8-1.5
		c2.7-1,4.9-2.2,5.6-4.9c0.4-1.6,1.6-3,2.4-4.5c0.4-0.9,0.7-1.8,0.9-2.7c0.3-1-0.5-2.4-1.6-3c-0.7-0.4-1.5-0.6-2.3-0.9
		c-0.8-0.4-1.1-1.1-1-1.8c0-0.7,0.2-1.4,0.5-2c0.9-1.9-0.1-3.1-1.7-4.3c-1.8-1.4-4.2-2.1-5.8-3.6c-0.2,0-0.3,0-0.5,0
		c0-0.1,0-0.3-0.1-0.4c-0.1-0.1-0.3-0.2-0.4-0.3c0.1,0,0.3,0.1,0.4,0.2c0,0,0,0.1,0,0.1c0.1,0.1,0.2,0.2,0.3,0.2
		c0.1,0.1,0.2,0.1,0.2,0.2c4,0.4,8.2,0.4,11.9,2.2c0.7,0.3,1.6,0.4,2.5,0.4c1.7,0.1,3.4,0.1,5.1,0.1c4.3,0,7.7-1.2,9.9-4.4
		c1.1-1.6,1.7-3.5,3.5-4.7c2.1-1.4,3.1-3.3,3.8-5.4c0.7-2.3,1.4-4.5,2.1-6.8l0.2,0.2c0-0.1,0.1-0.2,0.1-0.2c0,0-0.1,0-0.1,0
		c-0.7-1.9-0.4-2.8,1.3-3.7c0.6-0.3,1.3-0.4,2-0.5c0.5-1.8,1.1-3.5,2.4-5c0.3-0.3,0.9-0.7,1.3-0.6c0.3,0,0.7,0.5,0.9,0.9
		c0.3,0.6,0.4,1.2,0.6,1.9c1.6-0.2,2.3-1.2,2.9-2.2c2.3-4.5,4.8-8.9,8.3-13c2.3-2.7,3.7-5.9,1.5-9.3c-0.3-0.4-0.3-0.9-0.4-1.4
		c-0.8-4.2,0.1-7.9,4.2-10.8c1.7-1.2,3.4-2.5,5-3.8c2.6-2.2,5.9-3.8,9.3-4.8c1.9-0.6,3.6-1.1,5-2.3c1.2-1,2.7-1.7,3.2-3.2
		c0.1-0.3,1-0.6,1.3-0.5c1.7,0.3,3.3,0,5-0.2c1.6-0.2,3.4,0.1,5,0.1c3.2-0.1,6.1-0.5,8.2-2.9c1-1,2.9-1.5,4.2-2.3
		c0.9-0.6,1.5-1.4,1.2-2.5c-0.3-1.2-0.2-2.3,0.6-3.4c1.7-2.4,3.2-5,5-7.3c1.5-1.9,2.2-3.7,1.9-5.9c-0.3-1.6-0.3-3.4,0.9-4.8
		c2.3-2.7,2.7-5.7,2.8-8.7c0.2-3.7,0.2-7.5,0.2-11.2c0-2.6-0.3-5.1-0.2-7.7c0-1.2,0.5-2.4,1.9-3c3.9-1.4,6.2-4,7.5-7.3
		c0.3-0.7,0.8-1.2,1.1-1.9c1.1-2,2.5-3.6,4.5-5.1c2.4-1.7,4.5-3.6,6.7-5.4c2.1-1.9,3.8-4,5-6.5c1.1-2.3,2-7.8,1.2-9.6
		C825.5,709.7,824.1,706.7,822.7,703.6z M692.5,312.9c0.1,0,0.4,0.4,0.4,0.5c-0.7,1.9-2.9,1.9-4.4,2.8c-0.4-0.5-0.7-0.7-0.7-0.8
		C688.8,313.9,690.6,313.3,692.5,312.9z M656.1,322.2l0.2-0.4l0.2,0.5L656.1,322.2z M654,308.8c1.4-0.2,2.8,0.3,4.1-0.3
		c2.8-1.2,5.4-0.3,8.1,0.4c0.3,0.1,0.4,0.7,0.5,1.1c0,0.2-0.3,0.4-0.5,0.5c-1,0.3-2.1,0.6-2.9,0.8c-2.4-1-4.6-0.7-6.9-0.7
		c-0.7,0-1.5-0.5-2.2-0.8c-0.2-0.1-0.4-0.4-0.4-0.6C653.7,309.2,653.9,308.8,654,308.8z M651.8,320.8l0.3,0.2l-0.5-0.1L651.8,320.8z
		 M631.4,302.1c0,0,0.2,0.2,0.4,0.3c0.1,0.3,0.3,0.7,0.4,1.1c-0.2-0.4-0.4-0.7-0.6-1.1C631.1,302.5,631,302.4,631.4,302.1z
		 M625.8,304.3c0.4-0.6,1-1,1.5-1.5c0.2,0.4,0.4,0.8,0.5,1.3c0.1,0.4,0.2,0.9,0.4,1.9c0,0.1-0.1,0.8-0.3,1.4c0,0.1-0.5,0.2-0.7,0.2
		C625.4,307.1,624.8,305.7,625.8,304.3z M610.1,297.4c0.8,0.2,0.7,0.3-0.1,0.3c-0.2-0.1-0.4-0.2-0.5-0.2
		C609.7,297.5,609.9,297.4,610.1,297.4z M596.6,331c0.2,0,0.5,0.1,0.7,0.2c0.1,0.1,0.1,0.4,0,0.5c-1.2,0.6-2.4,1.1-3.6,1.6
		c0,0-0.2-0.3-0.3-0.5C594.1,331.7,595.1,331,596.6,331z M581.8,350.6c0.2,0,0.4,0.1,0.6,0.2c0,0.1,0,0.4-0.1,0.4
		c-0.2,0.1-0.4,0.1-0.6,0.1c-0.2-0.1-0.3-0.2-0.5-0.4C581.4,350.8,581.6,350.7,581.8,350.6z M547.6,181.3c0.2-0.1,0.6,0,0.8,0.1
		c2.1,1.5,3.4,3.6,4.7,5.6c0.1,0.1,0,0.4-0.1,0.6c-0.2,0.1-0.5,0.4-0.7,0.3c-0.8-0.2-1.6-0.4-2.2-0.8c-1.7-1.2-2.6-2.9-3.3-4.7
		C546.7,181.8,547,181.4,547.6,181.3z M502.9,192.5c0-0.1,0.5-0.2,0.7-0.2c1.3,0.3,2.4,0.7,3,1.8c0.1,0,0.2,0,0.3-0.1
		c0.1,0.1,0.2,0.2,0.3,0.2c1.1,0.1,2.1,0.3,2.9,1c0.2,0,0.3,0,0.5,0l0.1,0.4l-0.3-0.3c-0.1-0.1-0.2-0.1-0.2-0.2
		c-1.1,0-2.1-0.3-2.9-1c-0.2,0-0.3,0-0.5-0.1c0,0-0.1-0.1-0.1-0.1c-2.3,0.7-2.8,0.7-3.8-0.5C502.6,193.4,502.8,192.9,502.9,192.5z
		 M486.6,187.6c0.2,0,0.3,0.2,0.5,0.3c-0.2,0.1-0.4,0.2-0.6,0.1C485.8,187.8,485.8,187.6,486.6,187.6z M548.6,347.5
		c0.1-0.1,0.4-0.1,0.6-0.1c0.2,0.1,0.5,0.2,0.6,0.4c0.3,0.4,0,0.7-0.7,0.6c-0.2,0-0.5-0.2-0.6-0.3
		C548.4,347.9,548.5,347.6,548.6,347.5z M542.8,388.9c0.1-0.2,0.4-0.3,0.7-0.4c1.3-0.4,2.6-1,3.9-1.2c2.8-0.3,5.6-0.4,8.4-0.5
		c1.8,0,3.3-0.5,4.5-1.5c0.4-0.3,1-0.3,1.5-0.4c0.2,0.1,0.5,0.3,0.6,0.4c1.1,1.3,0.8,2.7-0.2,3.9c-1.8,1.9-4.2,3.4-7.3,2.3
		c-3.9-1.3-7.8-0.3-11.7-0.6c-0.4,0-0.9-0.5-1-0.9C542.2,389.8,542.6,389.3,542.8,388.9z M541.5,395.4c-0.1,0.4-0.3,0.9-0.7,1.1
		c-3,1.3-5.9,2.7-9,3.8c-2.3,0.8-4.7,1.5-6.9,2.5c-2.2,1-4.7,1.5-7.5,1.6c-0.8-0.4-1.7-0.8-2.7-1.3c-0.8-0.4-0.5-2.1,0.3-2.4
		c0.2-0.1,0.4-0.4,0.7-0.4c4.1-0.3,7.5-1.9,10.8-3.7c1.3-0.7,2.6-0.8,4-0.4c1.7,0.5,3.3,0.3,4.9-0.4c1.2-0.5,2.6-0.8,3.9-1.2
		C540.2,394.5,541.6,395,541.5,395.4z M515.5,305.2c0.1-0.1,0.1-0.2,0.2-0.3c0-0.5-0.1-1,0-1.5c0-0.6,0.4-0.8,0.9-0.5
		c0.1,0.1,0.2,0.5,0.1,0.6c-0.3,0.5-0.6,0.9-1,1.3c0,0.2,0,0.3,0,0.5l-0.7,0.1L515.5,305.2z M494.4,334.3c0.2-0.1,0.5-0.1,0.8-0.1
		c0.4,0.3,1,0.5,1.1,0.8c0.4,1.1,0.4,2.2-0.6,3.1c-0.1,0.1-0.4,0.3-0.6,0.3c-0.6,0.2-1.1,0-1.4-0.5
		C492.9,336.5,493.2,335.3,494.4,334.3z M486.4,324.1l0,0.4l-0.7-0.2L486.4,324.1z M481.1,208.3c0.3-0.3,1-0.5,1.4-0.5
		c0.5,0.1,1.1,0.4,1.3,0.7c0.3,0.6,0.3,1.3,0.4,1.8c-0.4,0.7-0.9,0.9-1.5,0.5c-0.6-0.4-1.3-0.9-1.7-1.4
		C480.8,209.2,480.8,208.5,481.1,208.3z M475.4,203.8c0.1,0.2,0.2,0.3,0.2,0.5c-0.1,0.1-0.3,0.3-0.4,0.4c-0.1-0.2-0.2-0.3-0.2-0.5
		C475,204.1,475.2,203.9,475.4,203.8z M472.5,290.3c0.2,0,0.4,0.1,0.7,0.1c-0.1,0.1-0.1,0.4-0.2,0.4c-0.2,0-0.4-0.1-0.7-0.2
		C472.4,290.6,472.4,290.4,472.5,290.3z M469.3,328.9c0,0,0.2,0.2,0.3,0.3c0,0,0.1,0,0.1,0.1c1.6,0.1,3.2,0.2,4.8,0.4
		c0.5,0.1,0.6,0.6,0.1,1.1c-0.2,0.2-0.5,0.4-0.7,0.3c-1.6-0.3-3-0.9-4.2-1.8c-0.1,0-0.2,0-0.3,0
		C468.9,329.3,468.8,329.1,469.3,328.9z M467,299.1c-0.7-0.1-0.9-0.5-0.5-0.9c0.1-0.1,0.5-0.2,0.6-0.1c0.3,0.3,0.5,0.6,0.7,0.9
		C467.5,299,467.2,299.1,467,299.1z M463.1,199.1c1-0.4,2.1-0.5,3.2-0.6c0.4,0,0.8,0.4,1.2,0.7c-2,1.4-1.3,3.4-2.2,5.1
		c-0.6,1.3-2.1,1.6-3.3,0.7C459.1,202.5,459.4,200.6,463.1,199.1z M460.7,233.3c0.1-0.1,0.2-0.2,0.3-0.3c0.1-0.3,0.2-0.6,0.3-0.8
		c0.1,0.1,0.3,0.1,0.4,0.2c-0.3,0.2-0.5,0.4-0.7,0.6c-0.1,0.1-0.1,0.3-0.2,0.4c-0.6,0.6-1.2,1.1-1.9,1.7c-0.1,0.1-0.3,0.2-0.4,0.3
		c0.1-0.2,0.1-0.3,0.2-0.5C459.5,234.4,460.1,233.8,460.7,233.3z M459,210l0,0.4l-0.6-0.2L459,210z M454.9,264.2l0.2,0.5l-0.5,0
		L454.9,264.2z M452,339.2c0.6-0.9,0.7-2.1,1.9-2.7c0-0.1-0.1-0.2-0.1-0.3c0.1-0.1,0.3-0.2,0.4-0.3c-0.1,0.2-0.1,0.3-0.2,0.5
		c-0.1,0-0.1,0.1-0.1,0.1c0.3,0.8,0.5,1.6,0.7,2.4c0.1,0.2,0.1,0.5,0,0.7c-0.4,0.3-0.8,0.6-1.3,0.8c-0.2,0.1-0.5,0-0.8-0.1
		C452,340,451.7,339.6,452,339.2z M450.4,289l0.6,0.2l-0.6,0.2L450.4,289z M448,266.8c0.6-0.2,1,0.1,1.2,0.6c0,0.5-0.3,0.8-1,0.8
		c-0.5,0-0.9-0.3-1.3-0.5C447.3,267.4,447.5,267,448,266.8z M446.8,320.3c0.4,2.4-0.3,4.5-2.8,5.9c0,0.1,0,0.2,0,0.3l-0.4,0.1
		l0.2-0.2c0.1,0,0.1-0.1,0.2-0.1c-0.5-2.3,0.4-4.4,1.8-6.4c0.1-0.1,0.5-0.2,0.6-0.2C446.6,319.9,446.8,320.1,446.8,320.3z
		 M445.8,291.9c0.2,0,0.3,0.2,0.5,0.3c-0.1,0.2-0.1,0.4-0.3,0.5c-0.1,0.1-0.5,0-0.6-0.1C445,292.2,445.1,291.9,445.8,291.9z
		 M430.5,307.6c-0.5,1-1.5,1.9-2.3,2.9c-0.4,0.5-0.8,0.6-1.1,0.2c-0.1-0.2-0.1-0.4-0.1-0.6c0-0.2,0.1-0.5,0.2-0.7
		c0.6-1.3,1.5-2.4,1.1-3.9c-0.5-1.7-2.6-1.5-3.9-2.2c-0.2-0.1-0.3-0.5-0.2-0.6c0.3-0.3,0.7-0.7,1.1-0.7c0.5-0.1,1.1,0.1,1.6,0.2
		c1,0.1,2,0.3,3.1,0.4c0-0.1-0.1-0.1-0.1-0.2c0,0,0.1,0,0.1,0c-0.8-1.1-1.7-2.2-2.5-3.3c-1.2-1.7-1.1-3.6-0.2-5.4
		c0.3-0.6,1-1.2,1.7-1.4c0.6-0.1,1.7,0.3,2.1,0.7c0.9,0.8,1.6,1.8,2.3,2.7c0,0,0.1-0.1,0.1-0.1l0.2-0.4l-0.2,0.5
		c0,0-0.1-0.1-0.1-0.1c-2.2,1.7-2.2,3.3,0.1,5c0.4,0.3,0.1,0.9-0.5,1.1c-1,0.2-2.1,0.4-3.1,0.5c0.1,0.1,0.1,0.2,0.2,0.2
		c-0.1,0-0.1,0-0.2,0c0.3,0.8,0.8,1.6,0.9,2.4C431,305.8,430.9,306.8,430.5,307.6z M434.5,326.5c0,0.2-0.3,0.5-0.5,0.5
		c-0.5,0-1.3,0-1.3-0.1c-0.5-1.5-1-3-1.3-4.5c-0.1-0.3,0.5-0.8,0.7-1.1c0-0.1-0.1-0.1-0.1-0.2c0.1-0.4,0.2-0.7,0.3-1.1c0,0,0,0,0,0
		c0-0.2,0.1-0.3,0.1-0.5c-0.1,0.2-0.1,0.4-0.2,0.5c-0.1,0.4-0.1,0.8-0.2,1.2c0,0,0,0,0,0c0.8,1.3,1.6,2.6,2.3,4
		C434.6,325.6,434.5,326.1,434.5,326.5z M431.6,185.1c0.1-0.1,0.4-0.2,0.7-0.2c0.6,0.2,0.8,0.6,0.4,1.1c-0.1,0.1-0.4,0.2-0.6,0.2
		C431.5,186,431.3,185.6,431.6,185.1z M427,250.6c0.3-1,1.2-1.6,2.3-1.8c0.4-0.1,1,0.2,1.5,0.4c0.1,0.1,0.1,0.5,0,0.6
		c-1,1.4-2.3,2.4-4,3.1c0,0.1,0,0.2,0,0.3c-0.1,0-0.3,0-0.4,0.1c-0.1,0.1-0.3,0.3-0.4,0.4c0.1-0.1,0.1-0.3,0.2-0.4
		c0.1,0,0.2,0,0.2,0c0.1-0.1,0.2-0.2,0.2-0.2c0.1,0,0.1-0.1,0.2-0.1C426.8,252.2,426.8,251.4,427,250.6z M425.9,183.1
		c0.8,0,1,0.3,0.5,0.7c-0.2,0.1-0.5,0-0.8,0c-0.1-0.1-0.3-0.3-0.4-0.4C425.4,183.2,425.6,183,425.9,183.1z M422.8,268.1
		c1-0.2,2.1-0.3,3.1-0.4c0.2-0.1,0.4-0.2,0.6-0.3c0.7-0.5,1.3-1,2-1.6c0,0,0.1,0,0.1-0.1c-0.1-0.2-0.1-0.3-0.2-0.5
		c-1.5-5.7-2.3-6.2,5.5-9.9c0.3-0.2,1.1,0,1.5,0.2c0.3,0.3,0.4,0.8,0.5,1.2c0,0.2-0.1,0.5-0.3,0.6c-1.3,1.2-2.8,2.3-3.8,3.6
		c-0.9,1.1-1.3,2.5-2.1,3.8c-0.2,0.3-0.7,0.6-1.1,0.9c0,0.1,0.1,0.1,0.1,0.2c-0.7,0.5-1.3,1.1-2,1.6c-0.3,0-0.5,0.1-0.8,0.1
		c-0.9,0.4-1.9,0.9-2.8,1.3c-0.1,0-0.5-0.2-0.5-0.4C422.6,268.4,422.7,268.1,422.8,268.1z M422.5,161.6l-0.2,0.4l-0.2-0.4
		L422.5,161.6z M417.2,175.4c0.1-0.1,0.4,0,0.7-0.1c0.5,0.3,0.6,0.7,0.2,1.1c-0.1,0.1-0.6,0.2-0.7,0.1
		C416.9,176.2,416.8,175.8,417.2,175.4z M227.1,233.8l-0.4,0.1l0.2-0.3c0.1-0.1,0.2-0.2,0.2-0.3
		C227.1,233.5,227.1,233.7,227.1,233.8z M231.9,223.7c0-0.1,0-0.2,0-0.3c-0.3-0.2-0.6-0.4-0.9-0.6c-0.1-0.1,0.1-0.3,0.2-0.5
		c0.7,0.2,0.7,0.6,0.7,1.1c0.1,0,0.2,0.1,0.2,0.2c0.1,0.1,0.3,0.3,0.4,0.4C232.3,223.9,232.1,223.8,231.9,223.7z M233.2,214.7
		c0,0.1-0.2,0.1-0.4,0.1c0-0.4,0.1-0.7,0.1-1.1c0.1,0.1,0.3,0.3,0.3,0.4C233.2,214.4,233.2,214.6,233.2,214.7z M234.2,252
		c-0.5,0.3-0.9,0.2-1.3-0.2c-0.6-0.8-1.4-1.5-1.8-2.3c-0.5-1.1-0.2-2.2,1.1-2.8c0-0.1-0.1-0.2-0.1-0.3c0.1-0.1,0.1-0.1,0.2-0.2
		c-0.1-0.4-0.1-0.9,0.4-1.2c0.1,0.1,0.3,0.3,0.2,0.4c-0.2,0.3-0.4,0.5-0.7,0.8c0,0.1,0.1,0.2,0.1,0.4c0,0-0.1,0-0.1,0.1
		c0.7,1.6,1.5,3.2,2.2,4.8C234.6,251.5,234.4,251.8,234.2,252z M236.5,247.1c-0.2,0-0.5-0.3-0.5-0.4c0-0.4,0.2-0.7,0.3-1
		c0.3,0.3,0.7,0.5,1,0.8C237.4,246.9,237.1,247.2,236.5,247.1z M312.6,98.8c-0.1,0-0.3-0.3-0.3-0.5c0-0.7,0-1.3,0-1.1
		c0.1-1.3,0.1-1.8,0.2-2.2c0-0.2,0.3-0.4,0.4-0.5c0,0,0.4,0.1,0.4,0.2c0.1,1.1,0.1,2.2,0.2,3.3C313.4,98.6,313.2,98.9,312.6,98.8z
		 M324.4,95.7c-0.2,0.1-0.3,0.3-0.5,0.4c0.1-0.2,0.2-0.4,0.3-0.6l0.3-0.1L324.4,95.7z M327.6,212.6l-0.3,0.2l0.2-0.3l0.4-0.3
		L327.6,212.6z M340.5,269.7c-0.2,0-0.5-0.1-0.7-0.2c0.3-0.1,0.6-0.3,0.9-0.3c0.1,0,0.3,0.2,0.5,0.3
		C341,269.6,340.8,269.7,340.5,269.7z M342.4,90.9c-0.2,0.1-0.5,0.3-0.7,0.3c-2.8,0-5.5,0-8.3-0.1c-0.2,0.1-0.4,0.1-0.5,0.2
		c-0.6,0.5-1.2,1.1-1.8,1.6c-0.1,0-0.3,0-0.4,0.1c-0.2,0.2-0.5,0.5-0.7,0.7c-0.1,0.1-0.4-0.1-0.6-0.2c0.3-0.6,0.8-0.5,1.4-0.6
		c0.1-0.1,0.1-0.1,0.2-0.2c0.6-0.5,1.2-1.1,1.8-1.6c0.2,0,0.5,0,0.7,0c2.8-1.2,5.9-0.9,8.9-0.6C342.4,90.6,342.5,90.9,342.4,90.9z
		 M404.4,281c-0.2,0-0.4-0.2-0.6-0.4c0.2-0.4,0.2-0.8,0.5-1.1c0.5-0.5,1.3-0.7,2.1-0.3c0.2,0.1,0.4,0.3,0.3,0.5
		C406.5,280.5,405.4,281.1,404.4,281z M403.6,258.2c-0.2,0-0.5-0.2-0.6-0.3c-0.1-0.2,0-0.5,0.1-0.6c0.9-0.9,1.9-1.4,3.4-1.2
		c0.1,0,0.2,0.3,0.3,0.5C406.1,257.7,405.1,258.3,403.6,258.2z M406.7,209.8l0.2-0.5l0.2,0.5L406.7,209.8z M411.5,153.9
		c0.5,0,1,0.1,1.4,0.3c0.2,0.1,0.3,0.3,0.4,0.5c0,0.2,0,0.5-0.1,0.5c-0.4,0.1-1,0.2-1.3,0C410.9,154.7,410.7,153.9,411.5,153.9z
		 M346.4,127.9c0.2,0,0.2-0.1,0.3-0.1c0-0.1,0.1-0.2,0.1-0.3c0.4,0.1,0.2,0.2-0.1,0.3c0,0.1-0.1,0.2-0.1,0.3l-0.6,0.2L346.4,127.9z
		 M353.3,205.5c-0.2-0.1-0.3-0.2-0.5-0.4c0.2,0.1,0.5,0.1,0.7,0.2l0.1,0.3L353.3,205.5z M374.8,162.2c-0.3,0.2-0.7,0.4-1,0.5
		c0,0.1,0,0.2-0.1,0.3c0,0.1-0.1,0.2-0.3,0.3c0,0.3-0.1,0.5-0.1,0.8c-0.5-0.4-0.2-0.6,0.1-0.8c0-0.2,0-0.3,0.1-0.5
		c0.1-0.1,0.2-0.1,0.3-0.2c0.1-0.5,0-1,0.9-1.1C374.7,161.6,374.9,162.1,374.8,162.2z M367.9,183.8c-0.4,0.3-0.6,0.6-0.8,0.6
		c-2.3-0.3-3.3-1.7-3.9-3.3c-0.1-0.2,0.5-0.8,1-0.9c0.5-0.2,1.4-0.2,1.5,0C366.5,181.3,367.2,182.6,367.9,183.8z M361.7,220.4l0-0.4
		l0.7,0.3L361.7,220.4z M375,241.6c-0.1,0.1-0.4,0.2-0.6,0.2c-0.1-0.4-0.3-0.8-0.3-1.2c0-0.1,0.4-0.2,0.6-0.2
		c0.2,0.1,0.3,0.3,0.4,0.5C375.1,241.2,375.1,241.4,375,241.6z M384.1,270.5c-0.1-0.1-0.2-0.3-0.3-0.4c-0.2-0.4-0.4-0.7-0.6-1.1
		c0.2,0.3,0.5,0.7,0.7,1C384.5,270.1,384.5,270.2,384.1,270.5z M385.4,241.3c-0.4,0.1-1-0.1-1.5-0.3c-0.1,0-0.1-0.5,0.1-0.6
		c0.7-0.7,1.2-1.7,2.1-2.1c3.1-1.6,6.2-3,9.4-4.4c0.4-0.2,1.2,0,1.6,0.2c1.5,1.1,3.1,1.9,5.1,1.9c0.2,0,0.5,0.7,0.6,1
		c0,0.1-0.3,0.5-0.5,0.5c-1.9,0.2-3.9,0.4-5.8,0.5c0-0.1,0-0.2,0-0.3c-0.8,0-1.7,0-2.5,0c-2.7-0.1-4.9,0.7-6.7,2.3
		C386.8,240.5,386.1,241,385.4,241.3z M473.8,603.9c-0.2,0.2-0.4,0.4-0.6,0.5c-1.6,0.4-3.4-0.8-3.2-2.2c0-0.2,0.4-0.5,0.6-0.5
		c1.5-0.1,2.6,0.4,3.3,1.6C473.9,603.5,473.8,603.7,473.8,603.9z M569.6,615.6c-0.1,0.5-1.3,1.4-1.7,1.2c-0.5-0.2-0.9-0.5-1.2-0.8
		c-1.4-1.8-1.2-2.4,1.2-4.6c0.3-0.3,0.9-0.3,1.4-0.3c0.1,0,0.3,0.4,0.3,0.6c0.1,0.7,0.2,1.3,0.3,2.2
		C569.8,614.3,569.7,614.9,569.6,615.6z M586.4,991.9c-0.1-0.1-0.3-0.1-0.4-0.2c-0.1-0.2-0.1-0.4,0-0.6c0.2-0.5,0.5-0.4,0.5,0.3
		C586.7,991.5,586.5,991.7,586.4,991.9z M588.6,768.2c0-0.1-0.1-0.1-0.1-0.2c-2.6,0-4.3-1.3-5.6-3c-0.2-0.2,0.1-0.8,0.3-1.2
		c0-0.1,0.5-0.1,0.7,0c1.7,1.2,3.9,2.2,4.6,4.2c0.1,0,0.2,0,0.3,0c0.1,0.1,0.3,0.2,0.4,0.3C589,768.3,588.8,768.3,588.6,768.2z
		 M604.5,1018.4c0,0.1-0.1,0.2-0.1,0.3l-0.5,0.2l0.3-0.4C604.3,1018.5,604.3,1018.4,604.5,1018.4c0-0.1,0.1-0.2,0.1-0.3
		C604.9,1018.2,604.8,1018.3,604.5,1018.4z M609,1025.4c-0.5,0.2-0.9,0.4-1.4,0.5c-0.2,0-0.5-0.1-0.7-0.3c-0.4-0.5-0.2-0.9,0.5-0.9
		c0.5,0,1.1,0.1,1.6,0.2C609,1025,609,1025.3,609,1025.4z M610.5,1033.7c-0.1,0-0.1-0.2-0.2-0.4c0.2,0,0.4-0.1,0.6-0.1
		c0.1,0.1,0.1,0.3,0.2,0.4C610.9,1033.6,610.7,1033.7,610.5,1033.7z M614.7,1028.2c0,0.1-0.1,0.1-0.1,0.2c-0.1,0-0.2,0.1-0.4,0.2
		c-0.2,0.5-0.5,0.8-1.1,0.9c-0.1,0.1-0.2,0.2-0.2,0.3l-0.4,0.3l0.2-0.4c0.2,0,0.3-0.1,0.4-0.1c0.2-0.4,0.6-0.7,1.1-0.9
		c0-0.1,0.1-0.2,0.2-0.3C614.5,1028.3,614.5,1028.3,614.7,1028.2c0.1-0.1,0.1-0.2,0.2-0.4C615.2,1028.1,615.1,1028.2,614.7,1028.2z
		 M626.9,1031.8c0.6-0.3,1.1-0.2,1.4,0.3c0.1,0.1-0.1,0.4-0.3,0.5c-0.4,0.3-0.9,0.5-1.3,0.8c-0.2,0-0.5,0-0.7-0.1
		C625.5,1033.1,626,1032.3,626.9,1031.8z M621.4,1036.8c0,0.1,0.1,0.2,0.1,0.3c1.1,0.5,2.1,0.9,3.2,1.4c0.1,0,0.1,0,0.2-0.1
		c0.1,0,0.1,0,0.2-0.1c0-0.3-0.1-0.7,0-1c0.1-0.5,0.5-0.8,1.1-0.7c0.2,0,0.5,0.2,0.6,0.3c0.4,0.4,0.3,0.8-0.4,1
		c-0.4,0.1-0.9,0.3-1.3,0.4c0,0.1,0,0.2,0,0.2c-0.1,0-0.2-0.1-0.3-0.1c-0.4,0.1-0.8,0.3-1.3,0.4c-0.9,0.2-1.4-0.2-1.7-0.9
		c-0.1-0.3-0.2-0.6-0.2-0.9c-0.1,0-0.2-0.1-0.3-0.1c-0.1-0.1-0.1-0.2-0.2-0.3c-0.5,0-1.1,0-1.2-0.7c0,0,0.6-0.2,0.6-0.1
		c0.2,0.2,0.4,0.5,0.6,0.8C621.2,1036.8,621.3,1036.8,621.4,1036.8z M628.7,629.2l0.3-0.4l0.1,0.5L628.7,629.2z M641.5,859.3
		c-0.5-0.1-0.9-0.3-1.4-0.4c0.2-0.1,0.4-0.3,0.7-0.3c0.2-0.1,0.6-0.1,0.8,0c0.2,0.1,0.4,0.3,0.6,0.4
		C641.9,859.1,641.7,859.2,641.5,859.3z M680.8,642.4c-0.1-0.1-0.1-0.3-0.2-0.5c0.4-0.1,0.8-0.3,1.2-0.4c0.1,0.2,0.3,0.4,0.2,0.5
		C681.8,642.5,681.3,642.7,680.8,642.4z M714,675.4c-0.6,0.7-2,0.9-2.8,0.4c-0.8-0.4-0.8-1.1-0.5-1.7c0.2-0.5,0.7-1,1-1.4
		c0.1,0.3,0.1,0.7,0.3,1c0.3,0.7,1,1,1.9,0.8c0.4-0.1,0.7-0.2,1-0.4C714.6,674.6,714.3,675,714,675.4z M722.5,683.1
		c0-0.1,0-0.4,0.1-0.4c0.5-0.2,0.9-0.4,1.4-0.5c0.1,0,0.4,0.3,0.4,0.4c0,0.2-0.2,0.4-0.4,0.4C723.5,683.2,723,683.1,722.5,683.1z
		 M724.7,698.9c0,0-0.4,0-0.5,0c-0.4-0.5-0.8-1.1-1.3-1.7c-0.4-0.5-0.3-0.9,0.4-1.1c0.1,0,0.5,0.2,0.6,0.4c0.4,0.6,0.7,1.2,1,1.6
		C724.8,698.5,724.8,698.7,724.7,698.9z M730.5,780.2l-0.6-0.2l0.6-0.2L730.5,780.2z"/>
	<g class="st1">
		<path class="st50" d="M255.1,272.8c0,0-1,2.6-2.3,2.9c-1.2,0.4,0.6,0.8-4.6,2.4c-5.1,1.6-10.3,0.7-12.6,1.6
			c-2.4,0.9-11.4,3.7-11.4,3.7l-2.8,1.1l1.7,0.2l-4.4,1.6l2.2,0.2l-4.7,1.4l1.3,0.3L214,290l1.4,0.1l-3.3,1l1.6,0.3
			c0,0-5.9,4.3-7.5,3.7c0,0,3.2,1.2,4.2,0.4c0,0,2.4-0.3,0.2,1.3s-9.4,5.8-9.4,5.8s-1.6,1.9,0.4,1.4c2-0.5,6.8-2.8,6.8-2.8l-6.5,6.8
			c0,0-0.9,2.2,1.5,0.9c2.4-1.4,4.1-3,4.1-3s1.4-0.1-0.8,2.8c-2.2,2.9-3.6,4.7-3.6,4.7s-0.3,1.4,1.4,0.3c1.7-1.1,5.6-5.1,5.6-5.1
			s2.5-1.3,0.9,0.9c-1.6,2.2-3.1,3.9-3.1,3.9s-0.6,2.4,1.1,1.1c1.7-1.3,3.1-3.4,3.1-3.4s2.1-2.3,1.1,0.7s0.1,2.7,0.1,2.7l3.3-2.6
			l14.9-5.5l8.9-2.2c0,0,11.3,0.9,18.6-3.7c0,0,1.9-2.1,2.2,0c0.3,2.1-0.2,10.4-0.2,10.4s-1.1,8.2,6.6,7.2l2.1-0.9l2.7-0.4l2.1-1.1
			l2.8-0.5c6.9-3.5,1.4-9.7,1.4-9.7s-5.1-6.7-6-8.6c-0.9-1.9,1.9-1.3,1.9-1.3c8.7-0.3,17.5-7.4,17.5-7.4l8.6-3.1l15.4-3.8l4.2,0.3
			c0,0,1.1-0.4-1.4-2.3c-2.5-1.9,0.6-1.2,0.6-1.2s2.3,0.9,4.5,1.1s0.3-1.5,0.3-1.5s-2.2-0.5-4.7-1.5c-2.5-1,0.2-1.3,0.2-1.3
			s5.4,1.1,7.5,1.1s1-1,1-1s-2.2-0.6-5.6-1.8c-3.4-1.2-2.2-1.9-2.2-1.9s2.3,0.4,5,0.2s0.8-1.6,0.8-1.6l-9.2-2c0,0,5.3-0.8,7.2-1.5
			c1.9-0.7-0.4-1.4-0.4-1.4s-8.3,0.5-11.1,0.4c-2.8-0.1-0.6-1.2-0.6-1.2c1.3,0.1,3.2-2.7,3.2-2.7c-1,1.4-8.3,1.1-8.3,1.1l1.2-1.2
			l-3.3,1l1.2-0.9l-4,0.6l0.9-1l-4.7,1.4l1.7-1.4l-4.5,1.2l1.3-1.1l-2.9,0.7c0,0-9,2.8-11.5,3.3c-2.5,0.6-6.3,4.2-11.4,5.7
			c-5.1,1.6-3.9,0.2-5.1,0.6c-1.2,0.4-3.5-1.2-3.5-1.2"/>
		<path class="st51" d="M262.4,270.6c-1.2-3.9-5.1-5.9-5.1-5.9l-1.2-1.5l0,0l-0.1,1.9c0,0-2.6,3.9-0.9,7.7c0,0-0.5,1.3-1.1,2
			c-0.6,0.7,1.8-0.5,1.8-0.5l1.4,1.2l1.4-1.4l2.3,0.3l1.2-1.4l2,0l-0.2-1.6C264,271.4,262.5,270.9,262.4,270.6z"/>
	</g>
	<g id="clouds" class="st1">
		<path id="XMLID_3597_" class="st51" d="M1814.8,121.9c-1-6-6-11.1-12-12.2c-6-1.1-12.5,2.3-15.6,7.5c1.5-3.7-0.7-8.5-4.5-9.7
			c-3.8-1.2-8.4,1.9-9.3,5.8c-3.5-2.6-8.8-2.5-12.2,0.3c-3.2,2.6-4.4,7.4-2.9,11.3c-0.6-1-2-1.5-3-1c-1.3,0.6-1.8,2.5-0.9,3.6
			c-2.1-1.2-4.9,0.7-6.4,2.7c-1.3-3.5-4.5-6.2-8.2-6.8c-3.6-0.7-7.8,0.1-10.2,2.8c0.8-3.7-0.9-7.8-4.3-9.2c3-3.8,6.1-7.8,7.5-12.4
			c1.4-4.7,0.8-10.3-2.9-13.6c-3.6-3.3-9.3-2.5-11.3,1.9c0.6-7.1-1.7-14.5-7-19.3c-5.3-4.7-13.7-6.1-19.7-2.3
			c-6,3.8-9.3,12.7-5,18.3c-1.9-2-5.9-0.4-6,2.3c-1.6-1.7-5.3,0.4-6.3,2.5c-1.9-4.7-7.8-7.2-12.8-6.1c-5,1.1-9,5.2-10.9,10
			c-1.9,4.8-2,11.3-1.1,16.4c-1.1-2.2-4-3.2-6.2-2.2c-2.2,1-3.5,3.8-2.6,6.1c-0.5-1.8-2.3-3-4.1-2.8c-1.8,0.2-4.4,1.9-4.5,3.8
			c-0.3-4.5-4.9-7.8-9.4-7.9c-4.5,0-8.6,2.6-11.8,5.8c-3.1,3.2-5.4,7.1-8.2,10.7c-2.5,3.2-4.6,7.7-8.3,8.5c-0.4,0-0.8,0.1-1.2,0.1
			c6,3.8,27.5,4.1,34.4,2.6c5.9,1.8,12.6,1.8,18.3-0.3c2.1,1.8,5.7,1.7,7.6-0.3c6.7,1.9,14.2,1.9,20.7-0.6c25.9,5,63.9,8.9,89.3,2
			c2.6,2.1,6.3,2.9,9.6,2.1c1.5-0.4,2.9-1.1,4.4-1.3c2-0.3,4.1,0.1,6.1,0.2c2,0,4.1-0.6,5.1-2.4c4.1,2.7,9.5,3.4,14.1,1.8
			c2.5-0.9,4.8-2.5,6.5-4.5C1814.1,133.6,1815.6,126.8,1814.8,121.9z"/>
		<path id="XMLID_41_" class="st51" d="M320.8,477.6c-2.6-1.1-6.4,0-7.3,2.7c-1.2-1.2-3.8-0.7-4.6,0.8c0.5-1.5-0.4-3.2-1.9-3.7
			c-1.5-0.4-3.4,0.2-3.8,1.7c0.9-2.3,1.5-4.8,1.5-7.3c0-2.5-0.8-5-2.5-6.9c-1.7-1.8-4.3-2.9-6.7-2.2c-2.4,0.6-4.3,2.8-4,5.3
			c-1.3-1.4-3.5-1.7-5.2-0.9c-1.7,0.9-2.7,2.9-2.3,4.7c-0.4-0.6-1.2-1-1.9-0.9c-0.8,0.1-1.1,0.7-1.4,1.5c-0.1-1.5-0.3-2.9-1.1-4.2
			c-0.8-1.2-2.2-2.1-3.7-1.8c-1.4,0.3-2.6,1.7-2,3c-2.4-1.8-5.8-2.3-8.6-1.2c-2.8,1.1-4.9,3.8-5.4,6.8c-0.1-1.5-1-3-2.3-3.7
			c-1.4-0.7-3.1-1-4.4-0.2c0.2-0.9-0.1-1.8-0.7-2.4c-0.7-0.6-1.6-0.8-2.5-0.6c0.4-1.6-0.1-3.5-1.5-4.5c0.6-1.3,0.5-3-0.4-4.1
			c-0.9-1.2-2.5-2.2-4-1.9c0.2-2.4-1.2-4.9-3.4-5.9c-2.2-1.1-5.2-0.5-6.9,1.1c-0.9-4.1-5.4-6.8-9.6-6.5c-4.2,0.3-8,2.9-10.6,6.3
			c-2.5,3.3-3.9,7.4-2.2,11.2c-1.8-0.7-4,0.9-4,2.8c-0.9-0.4-2.3,1-1.9,2c-2.8-1.4-6.4-1-8.7,1.1c-2.3,2-3.1,5.5-2.2,8.4
			c-1.1-1.3-3.1-1.8-4.7-1.3c-1.6,0.5-3,2.2-3.2,3.9c-0.8-0.7-2-0.8-3-0.4c-1,0.4-1.7,1.8-1.8,2.8c-1.5-6.1-9.5-8.6-15.4-6.5
			c-5.9,2.1-10.7,7.5-14.6,12.4h6.9c9.7,2.5,19.8,3.1,29.8,2c1.2,1.2,3.5,0.9,4.8,0c0.6-0.4,1.1-1,1.7-1.2c1.2-0.4,2.4,0.3,3.5,0.8
			c2.8,1.2,6.3,0.6,8.6-1.4c4.8,4.3,12.6,5.5,18,2c0.9,1,3.5,0.7,4.8,0.5c1.4-0.3,2.7-0.8,4-0.9c1.6-0.1,3.1,0.5,4.6,0.8
			c1.5,0.3,3.3,0.3,4.4-0.7c4.9,2.7,11.5,2.5,16.5-0.1c2.6,1.1,5.6,0.9,8.2-0.3c1.4,1.4,3.9,1.7,5.4,0.5c1.1,0.9,2.9,0.9,4-0.1
			c6.6,3.5,15.5,3.1,22.1-0.4c4.2,2.5,9.9,2.9,14.5,1.2c0.8-0.3,1.7-0.8,2.3-1.5c0.7,0.3,1.5,0.5,2.6,0.1c2.7-0.9,4.9-3.1,5.5-5.9
			S323.4,478.7,320.8,477.6z"/>
	</g>
</g>
<g id="menu-expanded">
</g>
<g id="events">
</g>
<g id="tagline">
</g>
<g id="Layer_2" class="st1">
	<text transform="matrix(1 0 0 1 828.1428 157.4414)" class="st249 st250 st251">Gallery</text>
	<g id="gallery" class="st2">
		<rect x="458.4" y="230" class="st33" width="1003.2" height="527"/>
		<g>
			<rect x="314.5" y="821" class="st33" width="144" height="144"/>
			<rect x="478.4" y="821" class="st33" width="144" height="144"/>
			<rect x="642.2" y="821" class="st33" width="144" height="144"/>
			<rect x="806.1" y="821" class="st33" width="144" height="144"/>
			<rect x="969.9" y="821" class="st33" width="144" height="144"/>
			<rect x="1133.8" y="821" class="st33" width="144" height="144"/>
			<rect x="1297.6" y="821" class="st33" width="144" height="144"/>
			<rect x="1461.5" y="821" class="st33" width="144" height="144"/>
		</g>
		<polyline class="st252" points="1655.5,868 1679,891.5 1655.5,915 		"/>
		<polyline class="st252" points="264.5,868 241,891.5 264.5,915 		"/>
	</g>
</g>
<g id="sponsors">
</g>
<g id="Isolation_Mode">
</g>
</svg>
