<svg enable-background="new 0 0 1920 1080" viewBox="0 0 1920 1080" xmlns="http://www.w3.org/2000/svg"><path d="m0 730 360-33 17 33h298v30l482-9 117 9 84-63h563l-1 383h-1926z" fill="#fff"/><g fill="#e0f7fa"><path d="m377 730-71 42-255 32 260-24 85.1-50z"/><path d="m1361 709 177 95v253l13-253h369l-378-15z"/><path d="m390 814h255l96 56h542l-537 13-108-58z"/><path d="m51 888 12.1 192-.1-210z"/><path d="m95 895 15 10-2.5 166z"/><path d="m1320 1010.7 12.1 61.3-.1-67z"/><path d="m1388 1015.8 15 3.2-2.5 53z"/><path d="m667.6 730-76.6 37h-181l180 11 85-38.7z"/><path d="m1283 767 15 22h-197l204 7 97 41 49 11-49-22-92-39z"/><path d="m185 924 306 20.9 276-20.9-275 29-307-18.9z"/><path d="m1476 975h-469l502 17z"/></g></svg>