<svg viewBox="0 0 622 755" xmlns="http://www.w3.org/2000/svg"><ellipse cx="312.7" cy="556.8" fill="#ccc" rx="310.5" ry="198.2" transform="rotate(-.85 312.66 556.782) scale(1.00001)"/><ellipse cx="312.7" cy="556.8" fill="#e6e6e6" rx="253.4" ry="161.7" transform="rotate(-.85 312.66 556.782) scale(1.00001)"/><ellipse cx="312.7" cy="556.8" fill="#ccc" rx="179.7" ry="114.7" transform="rotate(-.85 312.66 556.782) scale(1.00001)"/><path d="M50.5 141.9h334.4l-44.6 458.3h-75.8z" fill="#bdbdbd"/><path d="M548.1 1L372.4 569.9l-32.1 30.3 44.6-458.3z" fill="#9e9e9e"/><path d="M384.9 141.9H50.5L214.1 1h334.4z" fill="#e0e0e0"/><g fill="gray"><path d="M242 313.7l-6.3.6L222.9 207l11-1.1z"/><path d="M241.4 315.6l-5.1-3.8 41-59.3 8.9 6.6zm191.1-36.7l-3.8.4-.9-107.6 6.7-.7z"/><path d="M432 280.8l-2.8-4 28.3-57.6 4.9 6.9z"/></g></svg>