<svg enable-background="new 0 0 1920 1080" viewBox="0 0 1920 1080" xmlns="http://www.w3.org/2000/svg"><g transform="matrix(.9999 -.01481583 .01481583 .9999 -15.3259 7.1144)"><ellipse cx="472.5" cy="1037.9" fill="#ccc" rx="310.5" ry="198.2"/><ellipse cx="472.5" cy="1037.9" fill="#e6e6e6" rx="253.4" ry="161.7"/><ellipse cx="472.5" cy="1037.9" fill="#ccc" rx="179.7" ry="114.7"/></g><path d="m210.3 623h334.4l-44.6 458.4h-75.8z" fill="#bdbdbd"/><path d="m707.9 482.1-175.7 569-32.1 30.3 44.6-458.4z" fill="#9e9e9e"/><path d="m544.7 623h-334.4l163.7-140.9h334.4z" fill="#e0e0e0"/><g fill="#808080"><path d="m401.9 794.8-6.4.6-12.8-107.3 11.1-1z"/><path d="m401.3 796.8-5.2-3.8 41.1-59.3 8.9 6.6z"/><path d="m592.4 760-3.9.4-.9-107.5 6.7-.7z"/><path d="m591.9 762-2.9-4 28.3-57.7 5 7z"/></g></svg>