<svg viewBox="0 0 622 755" xmlns="http://www.w3.org/2000/svg"><g transform="matrix(.99989996 -.0148349 .0148349 .99989996 -8.225319 4.699503)"><ellipse cx="312.7" cy="556.8" fill="#ccc" rx="310.5" ry="198.2"/><ellipse cx="312.7" cy="556.8" fill="#e6e6e6" rx="253.4" ry="161.7"/><ellipse cx="312.7" cy="556.8" fill="#ccc" rx="179.7" ry="114.7"/></g><path d="m50.5 141.9h334.4l-44.6 458.3h-75.8z" fill="#bdbdbd"/><path d="m548.1 1-175.7 568.9-32.1 30.3 44.6-458.3z" fill="#9e9e9e"/><path d="m384.9 141.9h-334.4l163.6-140.9h334.4z" fill="#e0e0e0"/><g fill="#808080"><path d="m242 313.7-6.3.6-12.8-107.3 11-1.1z"/><path d="m241.4 315.6-5.1-3.8 41-59.3 8.9 6.6zm191.1-36.7-3.8.4-.9-107.6 6.7-.7z"/><path d="m432 280.8-2.8-4 28.3-57.6 4.9 6.9z"/></g></svg>