<svg viewBox="0 0 238.44 65.14" xmlns="http://www.w3.org/2000/svg"><path d="m233.49 43.27c-3.57-1.51-8.9 0-10.05 3.7-1.6-1.7-5.31-1-6.36 1.13a4.1 4.1 0 0 0 -2.6-5.08c-2-.6-4.76.3-5.26 2.37a28.44 28.44 0 0 0 2-10.07 14.39 14.39 0 0 0 -3.43-9.5 9.69 9.69 0 0 0 -9.33-3.07c-3.33.87-5.94 3.89-5.47 7.3a6.06 6.06 0 0 0 -10.36 5.28 2.87 2.87 0 0 0 -2.7-1.26c-1 .13-1.57 1-1.9 2a11.46 11.46 0 0 0 -1.46-5.77 5.17 5.17 0 0 0 -5.06-2.55c-2 .37-3.65 2.34-2.75 4.13a12.1 12.1 0 0 0 -19.35 7.83 6.17 6.17 0 0 0 -3.21-5.15c-1.87-1-4.33-1.37-6.13-.24a3.49 3.49 0 0 0 -4.46-4.14 6 6 0 0 0 -2-6.17 5.57 5.57 0 0 0 -.57-5.72c-1.23-1.59-3.52-3-5.49-2.59a8.55 8.55 0 0 0 -4.67-8.17 9 9 0 0 0 -9.57 1.51c-1.31-5.68-7.52-9.39-13.31-9.04s-11.11 4.1-14.68 8.73-5.32 10.27-3.04 15.48a4.32 4.32 0 0 0 -5.51 3.9c-1.28-.57-3.18 1.45-2.67 2.77a11.2 11.2 0 0 0 -12 1.47 11.09 11.09 0 0 0 -3 11.67 6.34 6.34 0 0 0 -6.5-1.82 6.69 6.69 0 0 0 -4.42 5.36 4 4 0 0 0 -4.12-.56 5 5 0 0 0 -2.49 3.89c-2-8.47-13.13-11.93-21.35-9s-14.78 10.37-20.22 17.18h9.58a114.21 114.21 0 0 0 41.17 2.74c1.63 1.59 4.79 1.3 6.66 0a11.36 11.36 0 0 1 2.4-1.72c1.61-.58 3.29.47 4.87 1.14a11.64 11.64 0 0 0 11.92-1.9c6.71 5.94 17.4 7.67 24.9 2.82 1.29 1.41 4.79 1 6.67.65s3.68-1.16 5.59-1.25c2.16-.1 4.24.69 6.35 1.11s4.54.42 6.16-1c6.81 3.69 15.91 3.41 22.79-.14a13.84 13.84 0 0 0 11.32-.36 5.8 5.8 0 0 0 7.47.7 4.55 4.55 0 0 0 5.53-.07c9.17 4.8 21.38 4.28 30.53-.55a23.89 23.89 0 0 0 20 1.6 9.56 9.56 0 0 0 3.18-2 4.6 4.6 0 0 0 3.62.2 11.22 11.22 0 0 0 7.55-8.14c.74-3.81-1.2-8.12-4.77-9.63z" fill="#fff"/></svg>