<svg viewBox="0 0 172.35 47.08" xmlns="http://www.w3.org/2000/svg"><path d="M168.77 31.28c-2.58-1.09-6.43 0-7.26 2.67-1.16-1.23-3.84-.69-4.6.82A3 3 0 0 0 155 31.1c-1.47-.44-3.43.22-3.8 1.71a20.55 20.55 0 0 0 1.47-7.28 10.42 10.42 0 0 0-2.48-6.87 7 7 0 0 0-6.75-2.22 5 5 0 0 0-3.95 5.28 4.38 4.38 0 0 0-7.49 3.82 2 2 0 0 0-1.95-.91c-.75.09-1.14.74-1.37 1.46a8.35 8.35 0 0 0-1.06-4.17 3.75 3.75 0 0 0-3.62-1.84c-1.43.27-2.64 1.69-2 3a8.74 8.74 0 0 0-14 5.66 4.49 4.49 0 0 0-2.3-3.74 4.58 4.58 0 0 0-4.43-.17 2.52 2.52 0 0 0-3.22-3 4.37 4.37 0 0 0-1.48-4.47 4 4 0 0 0-.41-4.12 4.47 4.47 0 0 0-4-1.88 6.19 6.19 0 0 0-3.38-5.91 6.51 6.51 0 0 0-6.91 1.1C81 2.43 76.47-.25 72.25 0s-8 3-10.58 6.31-3.88 7.41-2.19 11.19a3.11 3.11 0 0 0-4 2.82c-.93-.41-2.31 1.05-1.94 2a8.1 8.1 0 0 0-8.7 1.07 8 8 0 0 0-2.17 8.43A4.6 4.6 0 0 0 38 30.5a4.84 4.84 0 0 0-3.19 3.88 2.92 2.92 0 0 0-2.95-.4 3.58 3.58 0 0 0-1.8 2.81c-1.48-6.12-9.49-8.62-15.43-6.53S3.93 37.78 0 42.7h6.93a82.64 82.64 0 0 0 29.76 2c1.17 1.15 3.46.94 4.81 0a8.36 8.36 0 0 1 1.73-1.25c1.17-.42 2.38.34 3.52.83a8.44 8.44 0 0 0 8.62-1.37c4.85 4.29 12.55 5.53 18 2 .93 1 3.46.74 4.81.47a28.79 28.79 0 0 1 4-.9 19.16 19.16 0 0 1 4.59.81c1.53.3 3.28.3 4.45-.73a18.29 18.29 0 0 0 16.48-.1 10 10 0 0 0 8.17-.27 4.19 4.19 0 0 0 5.41.52 3.29 3.29 0 0 0 4-.06c6.62 3.47 15.45 3.1 22.06-.4a17.27 17.27 0 0 0 14.48 1.17 7.28 7.28 0 0 0 2.3-1.45 3.35 3.35 0 0 0 2.62.14 8.11 8.11 0 0 0 5.45-5.89 6.36 6.36 0 0 0-3.42-6.94z" fill="#fff"/></svg>