<svg viewBox="0 0 365.48 66.04" xmlns="http://www.w3.org/2000/svg"><path d="M330.9 41.93a18.25 18.25 0 0 0-8.7-15.83c-5.42-3.23-13.46-2.56-18.94.58a12.33 12.33 0 0 0-4.7-13.12C294.49 10.73 289 12.08 285 15c-5.22-4.92-10.88-9.53-17.46-12.36S253.26-1 246.57 1.53 235 9.71 231.75 16s-5.14 14.11-6.75 21c-2.16-3.52-8-3.52-11.49-1.28a32.15 32.15 0 0 0-16.38-11.16c-4.1-1.18-8.6-1.52-12.58 0s-7.15 4.45-7.36 8.71c-2.86-6.48-5.79-13-10.3-18.5S156 5 148.91 4.59a15.73 15.73 0 0 0-15.62 11.54 12.87 12.87 0 0 0-14.27-5c0 .72-1.18 1-1.2 1.75A25 25 0 0 0 88.92 5C79 9.19 73.56 21.22 75.27 31.84a14.55 14.55 0 0 0-17.7-1.53c-5.3 3.6-8.68 11.07-6.25 17a30.24 30.24 0 0 0-23.2-3.15C17.75 47 10.75 52.69 0 52.69h11.68c19.92 0 37.86 8.75 46.07 9.32s16.76-.66 23.77-5c27.51 9.65 58.58 11.25 86.65 3.35 25.11 8.3 53.42 7.55 77.74-2.84 6.29 6.81 18.52 7.09 25.64 1.14 9.25 4.45 20.45 3.79 29.45-1.05a70.37 70.37 0 0 0 21.13.89c7.44-.85 6.7-5.81 27.14-5.81h16.17C342 52.69 342 39.77 330.9 41.93z" fill="#fff"/></svg>