<svg viewBox="0 0 221.16 74.83" xmlns="http://www.w3.org/2000/svg"><path d="m220.94 52.8a15.31 15.31 0 0 0 -12-12.17c-6-1.1-12.49 2.25-15.57 7.48a7.59 7.59 0 0 0 -4.47-9.73c-3.81-1.24-8.36 1.87-9.29 5.77a10.11 10.11 0 0 0 -12.16.28 10.28 10.28 0 0 0 -2.91 11.25 2.37 2.37 0 1 0 -3.92 2.65c-2.13-1.25-4.92.71-6.39 2.69a11 11 0 0 0 -8.17-6.82c-3.65-.67-7.75 0-10.22 2.83.78-3.68-.86-7.82-4.34-9.23 3-3.82 6.12-7.76 7.53-12.43s.76-10.29-2.86-13.55-9.26-2.52-11.26 1.93c.6-7.06-1.69-14.55-7-19.27s-13.64-6.07-19.63-2.29-9.28 12.71-4.97 18.32c-1.89-2-5.9-.42-6 2.3-1.61-1.74-5.25.41-6.28 2.54-1.93-4.74-7.76-7.2-12.76-6.08s-9 5.23-10.86 10-2 11.32-1.12 16.37a4.85 4.85 0 0 0 -8.88 3.85 3.94 3.94 0 0 0 -4.14-2.79c-1.8.21-4.43 1.94-4.47 3.76-.25-4.49-4.86-7.85-9.35-7.87s-8.64 2.56-11.75 5.8-5.45 7.14-8.19 10.71c-2.51 3.24-4.6 7.71-8.33 8.51l-1.18.13c6 3.81 27.48 4.07 34.44 2.6a29.85 29.85 0 0 0 18.32-.28 5.85 5.85 0 0 0 7.65-.29 32.91 32.91 0 0 0 20.67-.63c25.92 5 63.87 8.89 89.33 2a11.15 11.15 0 0 0 9.59 2.04c1.49-.38 2.89-1.08 4.41-1.33 2-.33 4.09.15 6.14.18s4.14-.63 5.15-2.41a15.71 15.71 0 0 0 20.63-2.69c3.93-2.34 5.43-9.23 4.61-14.13z" fill="#fff"/></svg>