<svg viewBox="0 0 227.59 54.16" xmlns="http://www.w3.org/2000/svg"><path d="m225.25 29c-1.86-1.37-4.38-1.35-6.66-1a29.54 29.54 0 0 0 -15.59 7.37 6.92 6.92 0 0 0 -4.94-5.28c-2.45-.64-5.27-.45-6.91 1.5 3.13-4.66 6.32-9.49 7.37-15s-.52-11.94-5.36-14.88c-4.63-2.84-10.62-1.68-15.74.13-15.92 5.65-28.78 17.66-37.42 32.16a13.47 13.47 0 0 0 -9.34-14c-5.87-1.7-14 .81-16.66 6.31a41.74 41.74 0 0 0 -27.62-.61c-7 2.32-13.48 6.53-20.78 7.83-6.56 1.16-13.28-.14-19.94-.22-15.93-.22-29.77 11.53-45.66 11.53h39.39c9.15.7 18.28 1.48 27 3.94 27.85 7.83 58.45 6.91 86.17-1.36a37.19 37.19 0 0 0 35.44 2.32l23.55 2.46c2.85.3 5.78.59 8.52-.22s5.27-3 5.57-5.86a4.94 4.94 0 0 0 -1.77-4.12 15.12 15.12 0 0 0 3.13-4.76c1.11-2.83.7-6.5-1.75-8.24z" fill="#fff"/></svg>