<svg viewBox="0 0 620.6 152.29" xmlns="http://www.w3.org/2000/svg"><path d="m523.1 135c-7.91-1.28-34.55-7.21-50.37-15.39-4.44-2.3-12-7.71-16.91-8.69-.7-.14-1.44-.24-2.21-.32a40.47 40.47 0 0 0 2.57-16.88c-.31-4.73-1.61-9.68-5.08-12.9s-8.85-3.7-12.08-.24c2.35-11.89-4.88-25-16.2-29.28s-25.08 2.12-31.25 12.56c2.18-5.65 3.78-11.9 2.1-17.73s-7.67-10.81-13.54-9.38c-1.72-3.35-3.66-6.93-7.06-8.54s-9.35-.47-9.51 3.29a9.28 9.28 0 0 0 -6.82-8.35c-3.74-.93-6.83 1.59-8.79 4.9-2.4-7.31-5.92-14.43-11.41-19.82s-13.18-8.9-20.84-8.12-14.94 6.4-16.44 14a7.29 7.29 0 0 0 -7.23.27c-2.14 1.35-1.65 3.65-1.51 6.17a36.61 36.61 0 0 0 -33.6 12.23c-8 9.54-10.37 23.58-6.18 35.33a15.55 15.55 0 0 0 -24.24 9.32 6.76 6.76 0 0 0 -6.92-4.94c-3.07.28-4.81 1-5 4.13-11.58-17.53-35.51-25.62-55.3-18.78s-32.76 28.13-31 49a32.15 32.15 0 0 0 -44.59 10.37c-2.41 3.93-3.91 9.06-1.61 13-5.1-3.39-13-2.42-17.27 2-10.56-4.29-12.38-1.59-22.78 3.09-15.59 7-30.65 7-42 7h33.82c37 0 53.61 9.63 76.69 3.65 31.76 8.79 65.05 8.17 96.74-.86 10.58 5.5 22.9 5.23 33.7.17a152.87 152.87 0 0 0 78.5-1.67c5.58 2.9 12.58 2.29 18.23-.47 18.27 6.51 38.22 6.48 57.09 2 10.45 5.21 22.55 4.62 33-.54 17.44 5.09 36 4.84 53.61.26a44.81 44.81 0 0 0 25-.25 60.51 60.51 0 0 1 12.63-2.28h101.56c-32.54-1.22-65.12-3.55-97.5-7.31z" fill="#fff"/></svg>