<svg viewBox="0 0 192.76 29.75" xmlns="http://www.w3.org/2000/svg"><path d="M191.09 22A31.07 31.07 0 0 0 175 19.2c-5.94-4.89-12.76-9.11-20.36-10.28s-15.79 1.08-20.3 7.28a16 16 0 0 0-17-3.34A58.29 58.29 0 0 0 75.69.24c-14.8 1.37-30.38 8.25-40 19.58-6.4-1.45-13-2.9-19.48-1.76-5.72 1-10.4 4-16.21 4 21.29 3.34 31 5.64 44.36 2.19a55.55 55.55 0 0 0 15.08 2.5c6.52.17 13.28.29 19.25-2.35 4.45 3.56 11.93 3.39 16.71.29 18.06 6.54 38.59 6.67 57 1.15a23.31 23.31 0 0 0 19.32-1.22C177.07 28.16 177 22 192.76 22z" fill="#fff"/></svg>