<svg viewBox="0 0 227.59 54.16" xmlns="http://www.w3.org/2000/svg"><path d="M225.25 29c-1.86-1.37-4.38-1.35-6.66-1A29.54 29.54 0 0 0 203 35.37a6.92 6.92 0 0 0-4.94-5.28c-2.45-.64-5.27-.45-6.91 1.5 3.13-4.66 6.32-9.49 7.37-15S198 4.65 193.16 1.71c-4.63-2.84-10.62-1.68-15.74.13C161.5 7.49 148.64 19.5 140 34a13.47 13.47 0 0 0-9.34-14c-5.87-1.7-14 .81-16.66 6.31a41.74 41.74 0 0 0-27.62-.61c-7 2.32-13.48 6.53-20.78 7.83-6.56 1.16-13.28-.14-19.94-.22C29.73 33.09 15.89 44.84 0 44.84h39.39c9.15.7 18.28 1.48 27 3.94 27.85 7.83 58.45 6.91 86.17-1.36A37.19 37.19 0 0 0 188 49.74l23.55 2.46c2.85.3 5.78.59 8.52-.22s5.27-3 5.57-5.86a4.94 4.94 0 0 0-1.77-4.12 15.12 15.12 0 0 0 3.13-4.76c1.11-2.83.7-6.5-1.75-8.24z" fill="#fff"/></svg>