<svg viewBox="0 0 365.48 66.04" xmlns="http://www.w3.org/2000/svg"><path d="m330.9 41.93a18.25 18.25 0 0 0 -8.7-15.83c-5.42-3.23-13.46-2.56-18.94.58a12.33 12.33 0 0 0 -4.7-13.12c-4.07-2.83-9.56-1.48-13.56 1.44-5.22-4.92-10.88-9.53-17.46-12.36s-14.28-3.64-20.97-1.11-11.57 8.18-14.82 14.47-5.14 14.11-6.75 21c-2.16-3.52-8-3.52-11.49-1.28a32.15 32.15 0 0 0 -16.38-11.16c-4.1-1.18-8.6-1.52-12.58 0s-7.15 4.45-7.36 8.71c-2.86-6.48-5.79-13-10.3-18.5s-10.89-9.77-17.98-10.18a15.73 15.73 0 0 0 -15.62 11.54 12.87 12.87 0 0 0 -14.27-5c0 .72-1.18 1-1.2 1.75a25 25 0 0 0 -28.9-7.88c-9.92 4.19-15.36 16.22-13.65 26.84a14.55 14.55 0 0 0 -17.7-1.53c-5.3 3.6-8.68 11.07-6.25 17a30.24 30.24 0 0 0 -23.2-3.15c-10.37 2.84-17.37 8.53-28.12 8.53h11.68c19.92 0 37.86 8.75 46.07 9.32s16.76-.66 23.77-5c27.51 9.65 58.58 11.25 86.65 3.35 25.11 8.3 53.42 7.55 77.74-2.84 6.29 6.81 18.52 7.09 25.64 1.14 9.25 4.45 20.45 3.79 29.45-1.05a70.37 70.37 0 0 0 21.13.89c7.44-.85 6.7-5.81 27.14-5.81h16.17c-23.44 0-23.44-12.92-34.54-10.76z" fill="#fff"/></svg>