<svg viewBox="0 0 272.2 49.19" xmlns="http://www.w3.org/2000/svg"><path d="M246.44 31.23A13.57 13.57 0 0 0 240 19.44c-4-2.41-10-1.91-14.1.43a9.17 9.17 0 0 0-3.5-9.77c-3-2.11-7.15-1.1-10.12 1.08-3.89-3.66-8.1-7.09-13-9.2s-10.61-2.76-15.59-.84S175 7.23 172.6 11.9s-3.83 10.53-5 15.64c-1.6-2.62-6-2.62-8.55-.95a24 24 0 0 0-12.2-8.31 14.73 14.73 0 0 0-9.37 0c-3 1.14-5.33 3.31-5.48 6.48-2.13-4.82-4.31-9.71-7.67-13.77s-8.12-7.28-13.38-7.59A11.71 11.71 0 0 0 99.27 12a9.58 9.58 0 0 0-10.63-3.73c0 .53-.87.77-.89 1.3a18.62 18.62 0 0 0-21.52-5.85c-7.38 3.12-11.44 12.08-10.17 20a10.83 10.83 0 0 0-13.18-1.13c-4 2.67-6.47 8.24-4.66 12.65a22.57 22.57 0 0 0-17.28-2.34C13.22 35 8 39.25 0 39.25h8.7c14.83 0 28.19 6.51 34.31 6.94s12.48-.5 17.7-3.7c20.5 7.18 43.64 8.37 64.54 2.48a82.84 82.84 0 0 0 57.89-2.11c4.69 5.08 13.8 5.28 19.1.85a24.67 24.67 0 0 0 22-.8 53 53 0 0 0 15.74.66c5.53-.63 5-4.32 20.21-4.32h12c-17.51 0-17.5-9.63-25.75-8.02z" fill="#fff"/></svg>