<svg viewBox="0 0 189 51.63" xmlns="http://www.w3.org/2000/svg"><path d="m185.07 34.3c-2.83-1.2-7 0-8 2.93-1.27-1.35-4.21-.76-5 .89a3.25 3.25 0 0 0 -2.06-4c-1.62-.48-3.77.24-4.17 1.88a22.62 22.62 0 0 0 1.61-8 11.39 11.39 0 0 0 -2.72-7.53 7.69 7.69 0 0 0 -7.4-2.44c-2.64.69-4.7 3.09-4.33 5.79a4.81 4.81 0 0 0 -8.22 4.18 2.23 2.23 0 0 0 -2.13-1c-.83.1-1.25.82-1.51 1.6a9.1 9.1 0 0 0 -1.14-4.6 4.12 4.12 0 0 0 -4-2c-1.57.29-2.89 1.85-2.18 3.27a9.58 9.58 0 0 0 -15.33 6.21 4.9 4.9 0 0 0 -2.55-4.08 5 5 0 0 0 -4.86-.19 2.76 2.76 0 0 0 -3.56-3.21 4.8 4.8 0 0 0 -1.62-4.9 4.43 4.43 0 0 0 -.45-4.53c-1-1.26-2.79-2.37-4.36-2.06a6.77 6.77 0 0 0 -3.7-6.51 7.14 7.14 0 0 0 -7.58 1.2c-1-4.53-6-7.46-10.58-7.17s-8.77 3.23-11.6 6.9-4.26 8.07-2.41 12.26a3.41 3.41 0 0 0 -4.36 3.1c-1-.46-2.53 1.14-2.13 2.19a8.86 8.86 0 0 0 -9.54 1.17 8.75 8.75 0 0 0 -2.37 9.24 5 5 0 0 0 -5.16-1.44 5.31 5.31 0 0 0 -3.5 4.25 3.22 3.22 0 0 0 -3.24-.44 4 4 0 0 0 -2 3.09c-1.59-6.72-10.38-9.46-16.92-7.17s-11.69 8.25-16 13.64h7.59a90.4 90.4 0 0 0 32.64 2.18c1.29 1.26 3.8 1 5.28 0a9.3 9.3 0 0 1 1.9-1.36c1.28-.46 2.61.37 3.86.9a9.23 9.23 0 0 0 9.45-1.54c5.31 4.71 13.76 6.06 19.74 2.23 1 1.12 3.79.81 5.28.52a30.06 30.06 0 0 1 4.43-1 20.91 20.91 0 0 1 5 .88c1.67.34 3.59.33 4.88-.79 5.4 2.92 12.61 2.7 18.07-.11a11 11 0 0 0 9-.3 4.61 4.61 0 0 0 5.93.57 3.6 3.6 0 0 0 4.38-.07c7.27 3.81 16.95 3.4 24.2-.43a18.92 18.92 0 0 0 15.87 1.27 7.52 7.52 0 0 0 2.5-1.55 3.61 3.61 0 0 0 2.87.16 8.89 8.89 0 0 0 6-6.45 7 7 0 0 0 -3.8-7.63z" fill="#fff"/></svg>