<svg viewBox="0 0 377.56 58.59" xmlns="http://www.w3.org/2000/svg"><path d="M360 47.1c-5.35-3-10.86-6-16.93-6.94s-13-.16-16.56 4.81c-8.22-5.09-19.68-5.43-28.58-1.67-1.7-5.07-9.17-7.53-13.86-5a13.14 13.14 0 0 0-23.15-9.68 5.66 5.66 0 0 0-6-2.23c-2.2.6-3.24 1.33-3.38 3.61-3.15-6.81-8.71-12.65-15.74-15.26s-15.52-1.62-21.25 3.26-8.48 13.19-5.13 19.9a23.82 23.82 0 0 0-19.5-8.52A24.43 24.43 0 0 0 171.4 40.4a10.35 10.35 0 0 0-13.62-1.74c-1.65-3.73-7.07-4.81-9.92-1.88a13.23 13.23 0 0 0-2.91-13c-3.2-3.38-7.06-4.15-11.55-2.94a21.7 21.7 0 0 0 .32-8c-.55-2.64-2.35-5.19-5-5.83s-4.1 1.11-3.95 3.79A22.2 22.2 0 0 0 85.53 13a21.57 21.57 0 0 0-.14 17 18.45 18.45 0 0 0-5.09-5.3c-3.84-2.51-9.63-2.65-12.5.92-1.93 2.4-2.09 5.85-1.16 8.79a28.61 28.61 0 0 0 4.17 8.27 7 7 0 0 0-6.33-3.08 6.63 6.63 0 0 0-5.6 3.92c-2.86-2.16-6.83-1.71-10.37-1.17-12.9 2-25.31 5.7-38.1 7.19h-.06A88.89 88.89 0 0 1 0 50.18h19.24a1029.77 1029.77 0 0 0 106.87 1.74c11.42-.41 22.83 3 33.86.06a125 125 0 0 0 81.51-.45 158.12 158.12 0 0 0 52.27 3.22c11.29-1.17 22.72 2.42 32.76-2.89a22.87 22.87 0 0 0 19.06-.86c3.89 2.54 13.41-.79 32-.79-6.57-1.87-11.64.21-17.57-3.11z" fill="#fff"/></svg>