<svg viewBox="0 0 311.91 56.36" xmlns="http://www.w3.org/2000/svg"><path d="M282.4 35.78a15.56 15.56 0 0 0-7.4-13.5c-4.62-2.76-11.48-2.19-16.16.49a10.5 10.5 0 0 0-4-11.2c-3.48-2.41-8.19-1.26-11.6 1.24-4.45-4.19-9.28-8.13-14.9-10.54s-12.16-3.17-17.87-1-9.89 7-12.65 12.33-4.42 12.1-5.82 17.96c-1.84-3-6.85-3-9.8-1.1a27.47 27.47 0 0 0-14-9.51 16.87 16.87 0 0 0-10.74 0c-3.39 1.31-6.1 3.79-6.27 7.43-2.45-5.53-4.95-11.13-8.8-15.79s-9.3-8.33-15.33-8.69a13.43 13.43 0 0 0-13.34 9.85 11 11 0 0 0-12.17-4.3c0 .62-1 .88-1 1.5a21.33 21.33 0 0 0-24.66-6.69c-8.46 3.58-13.11 13.85-11.65 22.92a12.41 12.41 0 0 0-15.11-1.31c-4.52 3.07-7.4 9.44-5.34 14.5A25.81 25.81 0 0 0 24 37.69C15.15 40.11 9.18 45 0 45h10c17 0 32.31 7.47 39.31 8s14.31-.56 20.29-4.24c23.48 8.23 50 9.6 74 2.86 21.4 7 45.51 6.38 66.26-2.51 5.38 5.82 15.81 6.06 21.89 1a28.28 28.28 0 0 0 25.17-.92 60.29 60.29 0 0 0 18 .75c6.35-.72 5.72-5 23.16-5h13.8c-20.04.06-20.03-11-29.48-9.16z" fill="#fff"/></svg>