<svg enable-background="new 0 0 1920 1080" viewBox="0 0 1920 1080" xmlns="http://www.w3.org/2000/svg"><path d="m1701.7 640.4 14.1 1-18.1-30.1-14.2-1z" fill="#ef5350"/><path d="m1736.1 643s2.2-12.3-9.3-10.8c-11.5 1.4 4 11.2-29.7 9.7-33.8-1.5-122.6-15.1-122.6-15.1s-18.9-6.4-22.7-15c0 0-12.3-2.2-12.4 8.9-.2 11.1 19.9 26.3 19.9 26.3l134.9 17.3s25.9 2.2 33.9-9.5c8-11.8 8-11.8 8-11.8z" fill="#ffcc80"/><path d="m1471.4 572.7s26.2-7.9 31.9-40.9c3.2-18.3 11.4-17.8 18.1-13.7 7 4.3 11.4 11.9 12.5 20 1.4 10.7-1.6 25.9-18.5 36-28.8 17.3-42.1 6.2-42.1 5.4z" fill="#ef5350"/><path d="m1687.2 615 160.4-91.2-26-15.8-236.8 83.7z" fill="#ef5350"/><path d="m1440.1 579.9s131.9 173.6 367.3 93.5c0 0 5-11-10.5-14.1-15.4-3.1-263.3-128.4-356.8-79.4z" fill="#ffe082"/><path d="m1740.4 679.3-40.8 47.3 10.8 2.2 64.7-45.9z" fill="#ef5350"/><path d="m1795.8 669.2 52.3-29.8-8.4-5.1-77.3 27.3z" fill="#ef5350"/><path d="m1732.7 660.1 57.7-35.8c5-3.8 11.7 1.7 8.9 7.3l-19.2 39.5z" fill="#ffcc80"/><path d="m1645.8 613.6-63.4-16.7s-18.3-2.6-30.9 11.5c-12.6 14.2 3.7 23.1 3.7 23.1l55 18.3s13.1 2.6 28.3-3.7c7.2-3 12-8.2 15.1-13 4.7-7.3 1-17.1-7.4-19.4-.2 0-.3 0-.4-.1z" fill="#ffcc80"/><g fill="#ef5350"><path d="m1618.2 708.5 14.1 1-18.1-30.1-14.1-1z"/><path d="m1463.2 580.6s-9.9-25.5-43.3-28.7c-18.5-1.8-18.6-10-15-17 3.8-7.3 10.9-12.3 19-14 10.5-2.2 26-.4 37.3 15.7 19.4 27.4 9.4 41.5 8.6 41.6z"/><path d="m1481.6 593.6s-17.6 21-4.2 51.7c7.4 17.1.2 21.1-7.6 21.3-8.3.2-16.1-3.6-21.5-9.9-7-8.1-12.9-22.6-4.3-40.3 14.6-30.2 31.8-28.3 32.3-27.6z"/></g><path d="m1654.6 708.1s2.2-12.3-9.3-10.8c-11.5 1.4 4 11.2-29.7 9.7-33.8-1.5-122.6-15.1-122.6-15.1s-18.9-6.4-22.7-15c0 0-12.3-2.2-12.4 8.9-.2 11.1 19.9 26.3 19.9 26.3l134.9 17.3s25.9 2.2 33.9-9.5c8-11.8 8-11.8 8-11.8z" fill="#ffcc80"/><path d="m1522.5 640.1-150.2 126.3 32.6 12.1 223.5-110.2z" fill="#ef5350"/><circle cx="1567.7" cy="608.2" fill="none" r="19.7" stroke="#4d4d4d" stroke-miterlimit="10" stroke-width="3.9423"/><circle cx="1567.7" cy="608.2" fill="#4d4d4d" r="5.3"/><g fill="none" stroke="#4d4d4d" stroke-miterlimit="10" stroke-width="3.9423"><path d="m1567.7 608.2-18.5-6.1"/><path d="m1567.7 608.2 14.6-12.9"/><path d="m1567.7 608.2 3.9 19.1"/><path d="m1568 607.3-4.1 27.1"/></g></svg>