<svg enable-background="new 0 0 1920 1080" viewBox="0 0 1920 1080" xmlns="http://www.w3.org/2000/svg"><path d="m950.4 925.8c0-2.5 0-5 .4-7.4 0-1.2 0-2.9 0-4.1 0-2.1.4-4.5.4-6.6 0-1.2 0-2.9 0-4.1 0-2.1.4-4.5.4-6.6 0-1.2 0-2.9 0-4.1s0-2.9 0-4.1c0-.4 0-.8-.4-1.2-1.2-.8-2.9-2.1-4.1-3.3-2.5-2.5-4.1-5.4-4.5-9.1-.4-2.9-1.2-5.8-2.1-8.7-.8-2.9-1.2-5.4-2.1-8.3-1.2-3.7-2.9-7.4-5.4-10.7-1.7-2.5-3.3-5-5-7.4 0-.4-.4-.8-.4-1.2.4-.4.8 0 .8.4 1.2.8 2.5 2.1 3.7 2.9 1.7 1.2 2.9 2.5 4.1 3.7 2.5 2.1 4.5 5 5.8 8.3.8 2.9 1.7 5.8 2.9 8.7 1.2 3.3 2.1 7 3.7 9.9 1.2 2.1 2.1 3.7 3.7 5.4 1.2 1.2 2.5 1.7 4.1 2.1 1.7 0 2.9 0 4.5-.4 1.2-.4 2.1-1.2 2.9-2.5 2.9-3.3 4.5-7.4 5.8-11.6 1.2-3.3 2.1-6.6 2.9-10.3.8-2.9 2.1-5.8 4.5-7.9 1.2-1.2 2.9-2.5 4.5-4.1 1.7-1.2 2.9-2.5 4.5-3.7.4-.4.8-.8 1.7-.8h.4v.4c0 .4-.4.8-.8 1.2-2.1 2.9-3.7 6.2-5.8 9.1-1.7 2.9-3.3 6.2-4.1 9.9-1.2 4.5-2.5 9.5-3.3 14.5-.4 1.2-.4 2.9-.8 4.1-.4 2.1-1.7 3.7-2.9 5.4-1.7 2.1-3.3 3.3-5.4 5-.4.4-.4.4-.4.8v2.1c0 1.7 0 2.9.4 4.5 0 2.1.4 4.5.4 6.6 0 1.7 0 3.3.4 5 0 2.5.4 4.5.4 7 0 1.7 0 3.3.4 5 0 2.5.4 4.5.4 7v1.7c0 1.2-.4 2.1-1.7 2.5-1.2.8-2.9 1.2-4.5 1.2-.8 0-2.1.4-2.9.4s-1.7 0-2.5 0c-1.7 0-2.9-.4-4.1-.8-.4 0-1.2-.4-1.7-.8 1.2-2.9.8-3.8.8-5z" fill="#808080"/><path d="m958 855.5c5 0 9.1 3.7 9.1 9.1 0 5-4.1 9.1-9.1 9.1s-9.1-4.1-9.1-9.1 4.1-9.1 9.1-9.1z" fill="#808080"/><path d="m964.9 841.1c.8-.8 2.1-1.2 2.9-2.1 4.5-3.3 9.1-6.6 13.2-10.3 2.5-2.1 4.1-4.1 5.4-7 .4-1.2.4-2.5.8-3.3 0-.4.4-1.2.8-1.7.4.8.4 1.7.4 2.9.8 6.2-.8 11.6-4.5 16.5-2.5 2.9-5.8 5.4-9.1 7.4-3.7 2.1-7.4 3.3-11.6 4.1-.8 0-1.2 0-2.1 0-1.2 0-1.7-.8-2.1-2.1-.4-1.2-.4-2.1-.4-3.3 0-3.7.4-7.9 1.7-11.2 1.2-3.7 3.7-6.6 6.2-9.1s5.4-5 8.3-7.4c2.9-2.5 5.4-5.8 6.6-9.5v-.4c0-.4.4-.4.4 0 1.7 1.7 2.9 3.7 3.3 6.2.4 5-1.2 9.1-4.5 12.8s-7 7.4-10.3 10.7c-1.2 1.8-3.3 4.3-5.4 6.8z" fill="#3b97d2"/><path d="m927.7 817.1c.4.4.8.8.8 1.7.4 4.5 2.9 7.9 6.6 10.7 5.4 4.1 10.3 8.3 16.1 12h.4c-.8-1.2-1.7-2.1-2.9-3.3-2.5-3.3-5.8-5.8-8.7-9.1-2.1-2.1-4.5-4.5-6.6-6.6-2.5-3.3-4.1-6.6-3.7-10.7 0-2.9 1.2-5 3.3-6.6.4-.4.4-.4.8.4.8 2.1 2.1 3.7 3.3 5.4 2.1 2.5 4.1 4.5 6.6 6.2 3.3 2.5 6.2 5.4 8.7 8.3 2.9 3.7 4.5 7.9 5 12.4.4 2.1.4 4.5 0 6.6 0 .4 0 .8-.4 1.2-.4 1.2-1.2 2.1-2.5 2.1-1.2 0-2.9-.4-4.1-.8-5.8-1.2-11.2-4.1-15.7-8.3-5.4-5-7.9-10.7-7.4-18.2 0-1.4 0-2.2.4-3.4z" fill="#4eb96f"/><path d="m953 804.3c.4.4 1.2.8 1.7 1.2 1.7 1.2 3.7 2.1 5.8 2.5 2.9.4 5-.4 7.4-2.1l.4-.4s0 0 0-.4c-.8.4-1.7.4-2.5.4-3.3 0-5.8-.8-8.3-3.3-.4-.4-.8-1.2-.8-2.1.4-2.1 1.2-4.1 2.9-5.8.8-.8.8-.8 1.7 0 .8.8 1.7 1.7 2.9 2.5 2.1 1.2 4.5 1.2 6.6 0 1.7-.8 2.9-2.1 3.7-3.7.4-.4.4-.4.8 0 2.5 4.5 2.9 9.5.4 14.1-2.1 4.5-6.2 7-11.2 7.9-1.7.4-3.7.4-5.4 0-3.3-.8-5.4-2.9-6.2-5.8-.4-1.7-.4-3.3-.4-5 0 .4 0 .4.5 0-.5.4 0 .4 0 0z" fill="#e64d3c"/><path d="m962.5 754.7c2.5.8 4.1 2.9 5.8 4.5 1.7 1.7 3.3 3.7 4.1 6.2 1.7 4.1 1.2 8.7-.8 12.4-1.2 2.1-2.5 4.1-4.1 5.8-3.7 4.5-7.9 9.1-12 13.2-2.5 2.9-4.5 5.8-5 9.5-.4 2.9 0 5.8.8 8.3v.4c-1.2-.4-2.1-.8-3.3-1.2-2.9-1.2-5.4-2.9-7.4-5.4-1.7-2.1-2.5-4.1-2.5-7 0-2.1.8-4.1 2.1-5.8 1.7-2.5 3.7-4.1 5.8-5.8 4.5-3.3 9.1-6.6 13.6-9.9 2.5-2.1 5-4.1 7-6.6 2.1-2.9 2.1-5.8.8-9.1 0 0 0-.4-.4-.8 0 .4-.4.8-.4 1.2-.8 2.5-2.1 5.4-3.7 7.4-1.7 1.7-3.3 3.3-5.4 5-4.5 3.3-9.1 6.2-14.1 8.7-.8.4-1.2.8-2.1.8 0 0-.4 0-.8 0s-.8 0-.8-.4 0-.8.4-.8c1.7-1.2 2.9-2.9 4.5-4.5 3.3-3.3 7-6.6 10.7-9.9 2.9-2.9 5-6.2 5.8-9.9.4-2.5.4-4.5-.4-7 0-.4 0-.8.4-.8 1 1.5 1.4 1.5 1.4 1.5z" fill="#f19b20"/><g fill="#2d5f73"><path d="m827.6 514.1c.2-1.9.4-4.1.7-6.7.3-2.2.6-4.8 1-7.9s.9-6.6 1.6-10.6c-1.1 2-2.1 3.9-3 5.7s-1.9 3.8-2.8 5.8c-1 2.1-2 4.4-3.1 7s-2.4 5.6-3.9 9.1c-1-.2-1.8-.4-2.4-.7s-1.2-.6-1.6-.8c-.4-.3-.8-.6-1.1-1 1.3-3.7 2.6-7.1 3.8-10.3s2.4-6.1 3.6-8.8 2.3-5.3 3.4-7.6 2.1-4.5 3.1-6.6c-1.5.3-2.9.9-4.2 1.8-1.4.9-2.6 1.9-3.6 3.2s-1.8 2.6-2.4 4.2c-.5 1.5-.7 3.1-.5 4.8-1.5-.4-2.6-1.3-3.3-2.6s-.9-2.7-.8-4.3.6-3.3 1.5-5 2.1-3.4 3.7-4.8c1.6-1.5 3.5-2.7 5.7-3.6s4.7-1.4 7.5-1.4c.9 0 1.9.1 2.8.3.8.2 1.6.4 2.5.7s1.7.8 2.5 1.5c-.1 1.3-.3 2.7-.6 4.4s-.7 3.6-1.2 5.7c-.4 2.1-.9 4.4-1.4 6.9s-.9 5.3-1.3 8.2c1-2.4 2-4.8 2.9-7.3.9-2.4 1.8-4.8 2.7-7.2s1.7-4.6 2.5-6.8 1.6-4.3 2.4-6.3c.3 0 .6 0 1 .1.3 0 .7.1 1.1.2s.9.2 1.4.4c0-.2.1-.3.1-.5 0-.1.1-.3.1-.4.9 0 1.9.1 2.8.3.8.1 1.6.4 2.5.7s1.7.8 2.4 1.5c-1 2.8-1.8 5.5-2.6 8.2-.7 2.7-1.4 5.4-2 8.1s-1.2 5.5-1.7 8.3-1.1 5.8-1.7 8.8c-.1.9 0 1.3.3 1.2s.7-.4 1.2-1 1-1.4 1.6-2.4 1.2-2 1.7-3c.6-1 1.1-1.9 1.5-2.8.4-.8.7-1.4.9-1.7.2 0 .4.1.6.1.2.1.5.2.6.4.2.2.3.5.4.9s.1.9 0 1.6c-.7 1.5-1.5 3.2-2.3 4.9-.8 1.8-1.6 3.4-2.5 4.8-.9 1.5-1.8 2.7-2.7 3.6-1 .9-1.9 1.3-2.8 1.2-1-.2-1.8-.4-2.4-.7s-1.2-.6-1.6-.8c-.4-.3-.8-.6-1.1-1 .4-3.9.9-8.1 1.5-12.6s1.3-8.9 2-13.3c-2.2 4.9-4.4 9.7-6.5 14.4-2.1 4.8-4.1 9.4-5.8 14-1-.2-1.8-.4-2.4-.7s-1.2-.6-1.6-.8c-.1-.3-.4-.6-.7-1z"/><path d="m867.1 506.8c-.1.8 0 1.2.3 1.2s.6-.2 1.1-.7c.4-.5.9-1.1 1.5-1.9.5-.8 1.1-1.6 1.6-2.4s1-1.6 1.4-2.3.7-1.2.8-1.5c.2 0 .4.1.6.1.2.1.5.2.6.4.2.2.3.5.4.9s.1.9 0 1.6c-.9 1.5-1.7 2.9-2.4 4.2s-1.5 2.5-2.2 3.5-1.5 1.8-2.3 2.4-1.6.8-2.6.7c-1.4-.3-2.5-.7-3.1-1.2-.7-.5-1.1-.8-1.3-1.1-.6.6-1.2 1-1.9 1.3s-1.3.6-1.8.7c-.7.2-1.3.3-2 .3-1.4-.2-2.4-1.1-3-2.6-.4-1.1-.7-2.5-.7-4.1s.2-3.3.5-5c.4-1.7.8-3.4 1.5-5.1.6-1.7 1.3-3.2 2-4.4.6-1.1 1.3-2 2-2.6 1.3 0 2.4.1 3.2.4s1.5.6 2 .9c.6.4 1 .8 1.3 1.3 0 0 .1-.4.2-1.2.2 0 .5 0 1 .1s1 .2 1.6.4 1.2.4 1.7.7c.6.3 1.1.7 1.5 1.1-.4 1.2-.7 2.3-1 3.3-.3 1.1-.6 2.1-.8 3.1-.3 1-.5 2.1-.8 3.2s-.5 2.2-.8 3.5zm-8.4 1.2c.6 0 1.3-.3 1.8-1 .6-.7 1.1-1.5 1.5-2.5s.8-2.1 1-3.3c.3-1.2.4-2.3.4-3.3s-.1-1.9-.4-2.6-.7-1.1-1.4-1.3c-.9 1-1.7 2.2-2.4 3.8s-1.2 3.1-1.5 4.6-.4 2.8-.3 3.9c.3 1.1.6 1.7 1.3 1.7z"/><path d="m882.4 512.8c-.9-.1-1.6-.3-2.2-.5-.6-.3-1-.6-1.4-.9-.4-.4-.7-.8-1-1.2.9-5.5 2.1-10.8 3.6-16.1-.6.1-1.2.1-1.6.2-.4 0-.7 0-1-.1-.4.9-.8 2-1.3 3.2s-1.3 2.7-2.3 4.7c-.6 0-1-.1-1.3-.3s-.5-.4-.7-.6c-.1-.3-.2-.6-.3-.9.7-1.4 1.2-2.8 1.7-4.2.4-1.4.8-2.8 1.1-4.3s.6-3 .8-4.5.4-3.2.6-5h1.3c.5 0 1 .1 1.5.2s.9.3 1.4.5c.4.2.8.5 1.1 1-.2.5-.4 1-.6 1.7-.2.5-.4 1.1-.6 1.8s-.5 1.5-.8 2.3c.4-.1.8-.2 1.3-.3s.8-.3 1.1-.4c.2 0 .5 0 1 .1s1.1.2 1.7.4 1.2.5 1.8.8 1.1.7 1.5 1.2c-.6 1.5-1.2 2.9-1.7 4.1s-.9 2.4-1.3 3.5c-.4 1.2-.8 2.3-1.1 3.5s-.7 2.5-1.1 4c-.1.9-.1 1.3.2 1.4.2.1.6-.1 1-.6s.9-1.1 1.4-1.9 1-1.7 1.5-2.5.9-1.6 1.3-2.4c.4-.7.7-1.3.8-1.6.2 0 .4.1.6.1.2.1.5.2.6.4.2.2.3.5.4.9s.1.9 0 1.6c-.9 1.5-1.7 2.9-2.4 4.2s-1.5 2.5-2.2 3.5-1.5 1.8-2.3 2.3c-.3.6-1.1.8-2.1.7z"/><path d="m893 505.5c-.1 1 .1 1.7.6 2.1s1.1.6 1.9.5c.7-.1 1.5-.3 2.4-.7.8-.4 1.5-.9 2.1-1.4.6-.6 1.2-1.2 1.7-1.7s.9-1.1 1.3-1.6.8-1.1 1.1-1.6c.3-.6.7-1.2 1-1.8.6 0 1.1.3 1.5.9s.5 1.2.3 1.9c-.7 1.2-1.5 2.4-2.4 3.6-1 1.3-2 2.4-3.1 3.4s-2.3 1.9-3.5 2.6-2.5 1.1-3.8 1.1h-1.1c-1.5-.1-2.5-.4-3.1-1.1-.6-.6-1-1.3-1.2-2.1-.4-1.6-.7-3.3-.6-5.2s.3-3.8.7-5.7 1.1-3.7 1.9-5.4 1.8-3.2 3-4.4c2.8-.3 4.9-.1 6.3.6s2.3 1.6 2.6 2.7c.3 1.2.2 2.4-.4 3.8s-1.4 2.6-2.5 3.8c-.1.1-.2.1-.4.1-.1-.1-.2-.2-.2-.4.3-1.5.4-2.6.3-3.3s-.3-1.3-.5-1.6c-.3-.4-.6-.5-1-.5-.9 1.2-1.7 2.3-2.3 3.3s-1 1.9-1.4 2.8-.6 1.7-.8 2.5c-.3 1-.4 1.8-.4 2.8z"/><path d="m916.7 495.6c-1.1 1.1-2.2 2.4-3.2 4s-1.9 3.2-2.7 4.8-1.5 3.2-2.1 4.7-1 2.8-1.3 3.8c-1-.2-1.7-.4-2.3-.7s-1-.6-1.4-.9-.7-.7-.8-1c.4-3.4.9-6.6 1.5-9.8s1.2-6.1 1.8-8.9c.4-1.7.8-3.5 1.2-5.2.4-1.8.8-3.5 1.3-5.1.4-1.6.8-3.2 1.2-4.6s.8-2.7 1.1-3.8c.9 0 1.9.1 2.8.3.8.2 1.6.4 2.5.8.9.3 1.7.8 2.3 1.5-.7 1.5-1.4 3.1-2.1 5s-1.5 3.9-2.2 6.1c-.7 2.1-1.5 4.3-2.1 6.6-.7 2.2-1.3 4.4-1.8 6.5.4-.9.9-1.9 1.6-2.9.6-1 1.3-2 2.1-2.9.8-1 1.6-1.8 2.4-2.7.9-.8 1.7-1.6 2.6-2.2.2 0 .5 0 1 .1s1.1.2 1.7.4 1.2.4 1.8.8 1.1.7 1.5 1.2c-.6 1.5-1.2 2.9-1.7 4.1s-.9 2.4-1.3 3.5-.8 2.3-1.1 3.5c-.4 1.2-.7 2.6-1.1 4.1-.1.9 0 1.3.2 1.4s.6-.1 1-.6.9-1.1 1.4-1.9 1.1-1.7 1.5-2.5c.5-.9.9-1.7 1.3-2.4s.6-1.3.8-1.6c.2 0 .4.1.6.1.2.1.5.2.6.4.2.2.3.5.4.9s.1.9 0 1.6c-.9 1.5-1.7 2.9-2.4 4.2s-1.5 2.5-2.2 3.5-1.5 1.8-2.3 2.4-1.7.8-2.6.7-1.6-.3-2.1-.6-1-.6-1.3-.9c-.4-.4-.7-.7-1-1.1.4-2.4.8-4.7 1.2-7.1.2-2.4.8-4.9 1.7-7.6z"/><path d="m957.6 472.9c2.5 0 4.4.3 5.8.9s2.4 1.4 2.9 2.5c.6 1 .8 2.2.8 3.5s-.3 2.6-.8 3.9c-1 3.1-3.1 6.7-6 10.8 1.9 2.1 3.2 3.9 3.9 5.6s.9 3.2.7 4.6-.7 2.6-1.6 3.6-2 1.9-3.2 2.5-2.6 1.2-4 1.5-2.8.5-4.1.5c-2.9 0-5.2-.3-7-1-1.8-.6-3.1-1.5-3.9-2.5-.9-1-1.3-2.2-1.5-3.6-.1-1.3 0-2.7.3-4.1.7-3.3 2.5-7 5.4-11.2-1.4-2.4-2.3-4.6-2.5-6.7-.3-2.1.1-4 1.1-5.6s2.6-2.9 4.9-3.8 5.2-1.4 8.8-1.4zm-5.2 33.3c1.6 0 3-.3 4-1s1.5-1.6 1.5-2.7-.6-2.4-1.8-3.7-3.2-2.6-6-3.9c-.4.7-.8 1.5-1.2 2.3s-.8 1.7-1.1 2.5-.4 1.6-.5 2.4.1 1.4.4 2 .8 1.1 1.6 1.5c.7.4 1.7.6 3.1.6zm3.3-15.6c.6-.7 1.1-1.5 1.7-2.4s1.1-1.7 1.5-2.6.7-1.7 1-2.5c.2-.8.2-1.5.1-2.2s-.6-1.2-1.2-1.6c-.7-.4-1.6-.7-2.9-.7-1.1 0-2.1.1-3 .4s-1.7.8-2.3 1.4-1 1.3-1.2 2.2c-.2.8-.1 1.7.2 2.6s1 1.8 2 2.7c.9 1.1 2.3 1.9 4.1 2.7z"/><path d="m979.9 502.2c1.1.3 1.9 1 2.3 2s.6 2 .4 3.1c0 .1-.1.4-.2 1-.1.5-.3 1.2-.6 1.9s-.7 1.6-1.2 2.4-1.2 1.7-2.1 2.5c-.3.3-.7.4-1.1.2s-.6-.5-.6-.9c0-.5-.1-1.1-.3-1.7s-.5-1.2-.9-1.8c-.9-1-1.3-2.1-1.3-3.2s.2-2.1.7-3.1 1.2-1.6 2.1-2.1c.9-.4 1.8-.5 2.8-.3z"/><path d="m1013.6 472.9c2.9 0 5.3.6 6.9 1.8 1.7 1.2 2.9 2.8 3.6 4.8.7 1.9 1.1 4.1 1.1 6.5s-.2 4.8-.6 7.1c-.4 2.4-.8 4.7-1.3 7-.4 2.3-1.1 4.4-2.1 6.3s-2.3 3.4-4 4.6-4 1.7-6.8 1.7c-1.9-.1-3.6-.5-5.2-1.3-1.5-.8-2.7-1.8-3.6-3.1s-1.4-2.7-1.6-4.4.1-3.4.9-5.3c1.1-.1 2 0 2.9.3.7.2 1.3.6 1.8 1.2s.7 1.5.6 2.9c0 .5.1 1 .3 1.4.3.4.6.8 1 1.2.4.3.9.6 1.5.8s1.1.3 1.7.3c1.3 0 2.4-.3 3.1-.9.8-.6 1.4-1.4 1.9-2.5.5-1 .8-2.2 1.1-3.5s.6-2.7.9-4.1c-2 1.1-4 1.6-6 1.4s-3.8-.9-5.3-2.1-2.8-2.8-3.6-4.8c-.9-2-1.2-4.3-1-6.9.2-2 .8-3.8 1.7-5.3.4-.7.8-1.3 1.4-2 .6-.6 1.3-1.2 2.1-1.7s1.8-.9 2.8-1.2c1.2 0 2.4-.2 3.8-.2zm.1 18.3c1.1 0 2-.2 2.8-.8s1.3-1.3 1.7-2.2.6-1.8.6-2.9c0-1-.2-2-.5-2.9-.4-.9-.9-1.6-1.7-2.2-.7-.6-1.7-.9-2.9-1-1.1 0-2 .3-2.8.8-.8.6-1.4 1.3-1.9 2.2-.4.9-.7 1.8-.8 2.9s.1 2 .4 2.9c.4.9 1 1.6 1.8 2.2.9.6 2 1 3.3 1z"/><path d="m1037.9 502.2c1.1.3 1.9 1 2.3 2s.6 2 .4 3.1c0 .1-.1.4-.2 1-.1.5-.3 1.2-.6 1.9s-.7 1.6-1.2 2.4c-.5.9-1.2 1.7-2.1 2.5-.3.3-.7.4-1.1.2s-.6-.5-.6-.9c0-.5-.1-1.1-.3-1.7s-.5-1.2-.9-1.8c-.9-1-1.3-2.1-1.3-3.2s.2-2.1.7-3.1 1.2-1.6 2.1-2.1c.9-.4 1.8-.5 2.8-.3z"/><path d="m1060.6 510.3c.3-4.1.7-8.4 1.3-13.1.6-4.6 1.3-9.2 2.1-13.6l-5.9-.8c.8-1 1.7-2.1 2.6-3.3s1.8-2.2 2.7-3.2c.8-1 1.8-2.1 3-3.4 1.1 0 2.2.1 3.3.3.9.2 1.9.4 2.9.8s1.9.8 2.6 1.5c-1.6 3-2.9 6.1-3.9 9.2s-1.8 6.2-2.5 9.3c-.6 3.1-1.1 6.3-1.5 9.4-.4 3.2-.8 6.3-1.1 9.4-1-.2-1.8-.4-2.5-.7s-1.3-.6-1.7-.9c-.7-.3-1.1-.6-1.4-.9z"/><path d="m1086.7 472.9c1.2 0 2.3.3 3.2.8 1 .5 1.8 1.2 2.6 2.1.7.9 1.4 2 1.9 3.2s1 2.6 1.3 4c.3 1.2.5 2.5.6 3.8s.2 2.7.1 4.1c0 1.4-.1 2.8-.3 4.1-.2 1.4-.4 2.7-.7 4-.4 1.9-1 3.6-1.8 5.3-.7 1.7-1.6 3.1-2.6 4.3s-2.2 2.2-3.4 2.9c-1.3.7-2.7 1.1-4.3 1.1-1.2 0-2.3-.2-3.3-.7s-1.9-1.1-2.6-2-1.4-1.8-1.9-3-.9-2.4-1.2-3.8c-.3-1.2-.5-2.5-.6-3.8s-.1-2.7-.1-4.1c.1-1.4.2-2.8.4-4.2s.4-2.7.8-4.1c.5-1.9 1.1-3.8 1.9-5.5s1.7-3.3 2.7-4.6 2.2-2.3 3.4-3.1 2.4-.8 3.9-.8zm3.3 20.8c.1-.9.2-1.8.3-2.7s0-1.8 0-2.6c-.1-2.1-.4-3.8-.9-5.2s-1.3-2.2-2.4-2.3c-.6 0-1.2.1-1.8.5s-1.1 1-1.6 1.7-1 1.6-1.4 2.6-.8 2.1-1.1 3.2c-.3.9-.5 1.7-.6 2.6-.2.9-.3 1.8-.4 2.7s-.2 1.8-.3 2.7 0 1.7 0 2.6c.1 1.9.4 3.5 1 4.8s1.4 2 2.5 2.2c.6.1 1.2-.1 1.8-.4.6-.4 1.1-.9 1.6-1.6s1-1.5 1.4-2.5.8-2 1.1-3.1c.2-.9.4-1.7.6-2.6 0-.8.1-1.7.2-2.6z"/></g></svg>