<svg viewBox="0 0 414.79 188.19" xmlns="http://www.w3.org/2000/svg"><path d="m178.763 176.26-19.539-1.095 5.024-89.59 19.54 1.096z" fill="#9e9e9e"/><path d="m113.398 172.626-12.01-9.673 62.334-77.388 12.009 9.673z" fill="#9e9e9e"/><path d="m130.692 102.784 34.227 1.92-3.96 70.589-34.225-1.92z" fill="#e0e0e0"/><g fill="#bdbdbd"><path d="m96.596 71.389 22.145 1.242-5.608 99.983-22.145-1.242z"/><path d="m104.265 82.077 14.744-9.371 59.301 93.299-14.744 9.37z"/><path d="m175.92 162.26 10.07 14.42-21.44-1.16z"/><path d="m163.56 175.39 12.36-13.13-9.73 13.31z"/></g><path d="m221.232 89.636 19.54 1.096-5.025 89.59-19.54-1.097z" fill="#9e9e9e"/><path d="m228.27 98.996 13.014-8.272 53.304 83.864-13.014 8.271z" fill="#9e9e9e"/><path d="m268.238 182.101-34.226-1.92 3.959-70.588 34.226 1.92z" fill="#e0e0e0"/><g fill="#bdbdbd"><path d="m303.969 184.084-22.145-1.242 5.607-99.983 22.145 1.242z"/><path d="m231.43 180.012-13.606-10.958 69.346-86.096 13.605 10.96z"/><path d="m220.6 165.59-11.61 13.21 21.43 1.23z"/><path d="m231.42 180.02-10.82-14.43 8.18 14.32z"/></g><path d="m86.57 171.1-25.26-165.02-5.4-.3 14.13 164.32z" fill="#9e9e9e"/><path d="m51.69 169.11-30.71-168.76-6.29-.35 17.76 167.94z" fill="#bdbdbd"/><path d="m182.75 42.61-145.2 10.13-37.55-27.13 173.69-13.18z" fill="#bdbdbd"/><path d="m182.75 42.61-145.2 10.13-32.83-23.19 164.72-12.48z" fill="#9e9e9e"/><path d="m31.09 56.06 38.26-31.47 5.11.29-42.24 37.04z" fill="#bdbdbd"/><path d="m68.48 69.64 38.25-31.5 5.12.29-42.25 37.06zm244.03 116.14 43.52-161.11 5.41.3-32.39 161.69z" fill="#9e9e9e"/><path d="m347.42 187.35 49.37-164.56 6.29.35-36.41 165.05z" fill="#bdbdbd"/><path d="m231.28 47.3 143.16 26.28 40.35-22.77-171.13-32.49z" fill="#bdbdbd"/><path d="m231.28 47.3 143.16 26.28 35.22-19.39-162.3-30.79z" fill="#9e9e9e"/><path d="m380.48 77.82-34.52-35.31-5.11-.29 37.85 41.42z" fill="#bdbdbd"/><path d="m341.82 86.97-34.51-35.51-5.11-.29 37.85 41.52z" fill="#9e9e9e"/></svg>