<svg viewBox="0 0 414.79 188.19" xmlns="http://www.w3.org/2000/svg"><path d="M178.763 176.26l-19.539-1.095 5.024-89.59 19.54 1.096z" fill="#9e9e9e"/><path d="M113.398 172.626l-12.01-9.673 62.334-77.388 12.009 9.673z" fill="#9e9e9e"/><path d="M130.692 102.784l34.227 1.92-3.96 70.589-34.225-1.92z" fill="#e0e0e0"/><g fill="#bdbdbd"><path d="M96.596 71.389l22.145 1.242-5.608 99.983-22.145-1.242z"/><path d="M104.265 82.077l14.744-9.371 59.301 93.299-14.744 9.37z"/><path d="M175.92 162.26l10.07 14.42-21.44-1.16z"/><path d="M163.56 175.39l12.36-13.13-9.73 13.31z"/></g><path d="M221.232 89.636l19.54 1.096-5.025 89.59-19.54-1.097z" fill="#9e9e9e"/><path d="M228.27 98.996l13.014-8.272 53.304 83.864-13.014 8.271z" fill="#9e9e9e"/><path d="M268.238 182.101l-34.226-1.92 3.959-70.588 34.226 1.92z" fill="#e0e0e0"/><path d="M303.969 184.084l-22.145-1.242 5.607-99.983 22.145 1.242z" fill="#bdbdbd"/><path d="M231.43 180.012l-13.606-10.958 69.346-86.096 13.605 10.96z" fill="#bdbdbd"/><path d="M220.6 165.59l-11.61 13.21 21.43 1.23z" fill="#bdbdbd"/><path d="M231.42 180.02l-10.82-14.43 8.18 14.32z" fill="#bdbdbd"/><path d="M86.57 171.1L61.31 6.08l-5.4-.3L70.04 170.1z" fill="#9e9e9e"/><path d="M51.69 169.11L20.98.35 14.69 0l17.76 167.94z" fill="#bdbdbd"/><path d="M182.75 42.61L37.55 52.74 0 25.61l173.69-13.18z" fill="#bdbdbd"/><path d="M182.75 42.61L37.55 52.74 4.72 29.55l164.72-12.48z" fill="#9e9e9e"/><path d="M31.09 56.06l38.26-31.47 5.11.29-42.24 37.04z" fill="#bdbdbd"/><path d="M68.48 69.64l38.25-31.5 5.12.29L69.6 75.49zm244.03 116.14l43.52-161.11 5.41.3-32.39 161.69z" fill="#9e9e9e"/><path d="M347.42 187.35l49.37-164.56 6.29.35-36.41 165.05z" fill="#bdbdbd"/><path d="M231.28 47.3l143.16 26.28 40.35-22.77-171.13-32.49z" fill="#bdbdbd"/><path d="M231.28 47.3l143.16 26.28 35.22-19.39-162.3-30.79z" fill="#9e9e9e"/><path d="M380.48 77.82l-34.52-35.31-5.11-.29 37.85 41.42z" fill="#bdbdbd"/><path d="M341.82 86.97l-34.51-35.51-5.11-.29 37.85 41.52z" fill="#9e9e9e"/></svg>