<svg viewBox="0 0 1926 943.06" xmlns="http://www.w3.org/2000/svg" xmlns:xlink="http://www.w3.org/1999/xlink"><linearGradient id="a" gradientUnits="userSpaceOnUse" x1="963" x2="963" y1="938.83" y2="160.83"><stop offset="0" stop-color="#9ccc65"/><stop offset="1" stop-color="#aed581"/></linearGradient><path d="m1358.044 176.166-19.54-1.096 5.025-89.59 19.539 1.097z" fill="#9e9e9e"/><path d="m1292.705 172.593-12.009-9.673 62.334-77.388 12.009 9.673z" fill="#9e9e9e"/><path d="m1309.962 102.888 34.226 1.92-3.959 70.589-34.226-1.92z" fill="#e0e0e0"/><g fill="#bdbdbd"><path d="m1275.875 71.484 22.146 1.242-5.608 99.983-22.145-1.242z"/><path d="m1283.505 82.037 14.743-9.37 59.301 93.298-14.744 9.371z"/><path d="m1355.2 162.26 10.06 14.42-21.43-1.16z"/><path d="m1342.84 175.39 12.36-13.13-9.73 13.31z"/></g><path d="m1400.502 89.73 19.54 1.096-5.025 89.59-19.54-1.097z" fill="#9e9e9e"/><path d="m1407.528 98.96 13.014-8.27 53.304 83.863-13.014 8.272z" fill="#9e9e9e"/><path d="m1447.519 181.997-34.227-1.92 3.96-70.59 34.225 1.92z" fill="#e0e0e0"/><g fill="#bdbdbd"><path d="m1483.26 183.99-22.146-1.242 5.607-99.983 22.146 1.242z"/><path d="m1410.727 179.97-13.606-10.96 69.347-86.095 13.605 10.959z"/><path d="m1399.88 165.59-11.62 13.21 21.43 1.23z"/><path d="m1410.69 180.02-10.81-14.43 8.18 14.32z"/></g><path d="m1265.85 171.1-25.26-165.02-5.41-.3 14.14 164.32z" fill="#9e9e9e"/><path d="m1230.96 169.11-30.7-168.76-6.3-.35 17.76 167.94z" fill="#bdbdbd"/><path d="m1362.02 42.61-145.19 10.13-37.55-27.13 173.68-13.18z" fill="#bdbdbd"/><path d="m1362.02 42.61-145.19 10.13-32.84-23.19 164.72-12.48z" fill="#9e9e9e"/><path d="m1210.37 56.06 38.25-31.47 5.12.29-42.25 37.04z" fill="#bdbdbd"/><path d="m1247.76 69.64 38.25-31.5 5.12.29-42.25 37.06zm244.03 116.14 43.52-161.11 5.4.3-32.39 161.69z" fill="#9e9e9e"/><path d="m1526.69 187.35 49.38-164.56 6.29.35-36.41 165.05z" fill="#bdbdbd"/><path d="m1410.56 47.3 143.15 26.28 40.35-22.77-171.13-32.49z" fill="#bdbdbd"/><path d="m1410.56 47.3 143.15 26.28 35.23-19.39-162.3-30.79z" fill="#9e9e9e"/><path d="m1559.75 77.82-34.51-35.31-5.12-.29 37.85 41.42z" fill="#bdbdbd"/><path d="m1521.09 86.97-34.5-35.51-5.11-.29 37.84 41.52z" fill="#9e9e9e"/><path d="m0 225.06s958-135 1926 0v718h-1926z" fill="url(#a)"/></svg>