<svg viewBox="0 0 1926 943.06" xmlns="http://www.w3.org/2000/svg" xmlns:xlink="http://www.w3.org/1999/xlink"><linearGradient id="a" gradientUnits="userSpaceOnUse" x1="963" x2="963" y1="938.83" y2="160.83"><stop offset="0" stop-color="#9ccc65"/><stop offset="1" stop-color="#aed581"/></linearGradient><path d="m1340.98 86.07h19.57v89.73h-19.57z" fill="#9e9e9e" transform="matrix(-.99843101 -.05599576 .05599576 -.99843101 2692.1 337.19)"/><path d="m1310.13 79.41h15.42v99.37h-15.42z" fill="#9e9e9e" transform="matrix(-.77879085 -.62728367 .62728367 -.77879085 2263.21 1056.26)"/><path d="m1307.97 103.68h34.28v70.7h-34.28z" fill="#e0e0e0" transform="matrix(.99843101 .05599576 -.05599576 .99843101 9.85 -73.87)"/><g fill="#bdbdbd"><path d="m1273.07 71.92h22.18v100.14h-22.18z" transform="matrix(.99843101 .05599576 -.05599576 .99843101 8.83 -71.61)"/><path d="m1311.82 68.77h17.47v110.55h-17.47z" transform="matrix(.84395364 -.53641612 .53641612 .84395364 139.5 727.68)"/><path d="m1355.2 162.26 10.06 14.42-21.43-1.16z"/><path d="m1342.84 175.39 12.36-13.13-9.73 13.31z"/></g><path d="m1397.99 90.09h19.57v89.73h-19.57z" fill="#9e9e9e" transform="matrix(.99843101 .05599576 -.05599576 .99843101 9.75 -78.5)"/><path d="m1433 87.12h15.42v99.37h-15.42z" fill="#9e9e9e" transform="matrix(.84395364 -.53641612 .53641612 .84395364 151.41 794.12)"/><path d="m1415.23 110.51h34.28v70.7h-34.28z" fill="#e0e0e0" transform="matrix(-.99843101 -.05599576 .05599576 -.99843101 2854.34 371.58)"/><path d="m1463.88 83.44h22.18v100.14h-22.18z" fill="#bdbdbd" transform="matrix(-.99843101 -.05599576 .05599576 -.99843101 2940.17 349.27)"/><path d="m1429.83 76.21h17.47v110.55h-17.47z" fill="#bdbdbd" transform="matrix(-.77879085 -.62728367 .62728367 -.77879085 2476.46 1136.23)"/><path d="m1399.88 165.59-11.62 13.21 21.43 1.23z" fill="#bdbdbd"/><path d="m1410.69 180.02-10.81-14.43 8.18 14.32z" fill="#bdbdbd"/><path d="m1265.85 171.1-25.26-165.02-5.41-.3 14.14 164.32z" fill="#9e9e9e"/><path d="m1230.96 169.11-30.7-168.76-6.3-.35 17.76 167.94z" fill="#bdbdbd"/><path d="m1362.02 42.61-145.19 10.13-37.55-27.13 173.68-13.18z" fill="#bdbdbd"/><path d="m1362.02 42.61-145.19 10.13-32.84-23.19 164.72-12.48z" fill="#9e9e9e"/><path d="m1210.37 56.06 38.25-31.47 5.12.29-42.25 37.04z" fill="#bdbdbd"/><path d="m1247.76 69.64 38.25-31.5 5.12.29-42.25 37.06z" fill="#9e9e9e"/><path d="m1491.79 185.78 43.52-161.11 5.4.3-32.39 161.69z" fill="#9e9e9e"/><path d="m1526.69 187.35 49.38-164.56 6.29.35-36.41 165.05z" fill="#bdbdbd"/><path d="m1410.56 47.3 143.15 26.28 40.35-22.77-171.13-32.49z" fill="#bdbdbd"/><path d="m1410.56 47.3 143.15 26.28 35.23-19.39-162.3-30.79z" fill="#9e9e9e"/><path d="m1559.75 77.82-34.51-35.31-5.12-.29 37.85 41.42z" fill="#bdbdbd"/><path d="m1521.09 86.97-34.5-35.51-5.11-.29 37.84 41.52z" fill="#9e9e9e"/><path d="m0 225.06s958-135 1926 0v718h-1926z" fill="url(#a)"/></svg>