<svg viewBox="0 0 414.79 188.19" xmlns="http://www.w3.org/2000/svg"><path d="m161.7 86.07h19.57v89.73h-19.57z" fill="#9e9e9e" transform="matrix(-.99843101 -.05599576 .05599576 -.99843101 335.39 271.25)"/><path d="m130.85 79.41h15.42v99.37h-15.42z" fill="#9e9e9e" transform="matrix(-.77879085 -.62728367 .62728367 -.77879085 165.49 316.55)"/><path d="m128.7 103.68h34.28v70.7h-34.28z" fill="#e0e0e0" transform="matrix(.99843101 .05599576 -.05599576 .99843101 8 -7.94)"/><g fill="#bdbdbd"><path d="m93.79 71.92h22.18v100.14h-22.18z" transform="matrix(.99843101 .05599576 -.05599576 .99843101 6.98 -5.67)"/><path d="m132.55 68.77h17.47v110.55h-17.47z" transform="matrix(.84395364 -.53641612 .53641612 .84395364 -44.49 95.14)"/><path d="m175.92 162.26 10.07 14.42-21.44-1.16z"/><path d="m163.56 175.39 12.36-13.13-9.73 13.31z"/></g><path d="m218.72 90.09h19.57v89.73h-19.57z" fill="#9e9e9e" transform="matrix(.99843101 .05599576 -.05599576 .99843101 7.9 -12.56)"/><path d="m253.72 87.12h15.42v99.37h-15.42z" fill="#9e9e9e" transform="matrix(.84395364 -.53641612 .53641612 .84395364 -32.59 161.57)"/><path d="m235.95 110.51h34.28v70.7h-34.28z" fill="#e0e0e0" transform="matrix(-.99843101 -.05599576 .05599576 -.99843101 497.63 305.65)"/><path d="m284.61 83.44h22.18v100.14h-22.18z" fill="#bdbdbd" transform="matrix(-.99843101 -.05599576 .05599576 -.99843101 583.46 283.33)"/><path d="m250.55 76.21h17.47v110.55h-17.47z" fill="#bdbdbd" transform="matrix(-.77879085 -.62728367 .62728367 -.77879085 378.75 396.53)"/><path d="m220.6 165.59-11.61 13.21 21.43 1.23z" fill="#bdbdbd"/><path d="m231.42 180.02-10.82-14.43 8.18 14.32z" fill="#bdbdbd"/><path d="m86.57 171.1-25.26-165.02-5.4-.3 14.13 164.32z" fill="#9e9e9e"/><path d="m51.69 169.11-30.71-168.76-6.29-.35 17.76 167.94z" fill="#bdbdbd"/><path d="m182.75 42.61-145.2 10.13-37.55-27.13 173.69-13.18z" fill="#bdbdbd"/><path d="m182.75 42.61-145.2 10.13-32.83-23.19 164.72-12.48z" fill="#9e9e9e"/><path d="m31.09 56.06 38.26-31.47 5.11.29-42.24 37.04z" fill="#bdbdbd"/><path d="m68.48 69.64 38.25-31.5 5.12.29-42.25 37.06z" fill="#9e9e9e"/><path d="m312.51 185.78 43.52-161.11 5.41.3-32.39 161.69z" fill="#9e9e9e"/><path d="m347.42 187.35 49.37-164.56 6.29.35-36.41 165.05z" fill="#bdbdbd"/><path d="m231.28 47.3 143.16 26.28 40.35-22.77-171.13-32.49z" fill="#bdbdbd"/><path d="m231.28 47.3 143.16 26.28 35.22-19.39-162.3-30.79z" fill="#9e9e9e"/><path d="m380.48 77.82-34.52-35.31-5.11-.29 37.85 41.42z" fill="#bdbdbd"/><path d="m341.82 86.97-34.51-35.51-5.11-.29 37.85 41.52z" fill="#9e9e9e"/></svg>