<svg enable-background="new 0 0 1920 1080" viewBox="0 0 1920 1080" xmlns="http://www.w3.org/2000/svg"><path d="m1411.9 869.5-4.5-5.7 1.7-6.4v-4l3.8-4.3 3.4-2.1h3.1l1.5 10.2-2.4 4.4v4.2 4.2l-2.5 2.6zm5.9 7.7h-3.3l-3.4 4.1-3.3 1.1h-4.8v8.4 7.3s4.4 4.5 4.1 5.8c-.4 1.3.1 5.2.1 5.2s-.4 6.1.1 7 3.8 1.7 3.8 1.7l3.5-3.9 3.9-1.7 2.4-5.7v-7.4-5.1l3.1-3.1v-5.3l-2.9-4.5zm79.2 53.4-2.6 2.9-10.4.3-7-.7-3.9-2.5h-3.3l-4-.1-4.4 2.6 2.2 4.4 4.4 2.2s3 3.1 4.4 3.5c1.3.4 4.8 3.5 4.8 3.5l6.1 2.9 6.1 5.1h6.7v-4.2l3.1-8.1v-4.5l3.4-5.1-1.5-2.2zm-171.2-29-2.2 3 1.1 3h4.1 4.2l2-3-5.7-5.3zm16.3-4.5 1.9 2.1h3.5v-2.1h-2.4zm306.6 28.2h-4.2v3.1h4.2zm-1.6 54.9c-1.6 1.4-8.1.3-8.1.3l-7.4-1.8h-6.9-4.2l-7.2-2.1h-6.4-4.2l-6.3 1.1v2.6l9.4 2.6h5.2 6.3 5.2l2.5 3.1h6.9l7 2.4 8.1-1.9 5.4-2.3c.1 0-3.7-5.4-5.3-4zm-161.6-169.9h2.1v-3.1h-2.1zm169.4 129.7h3.1v-4.2h-3.1zm15.7 28.2h5.2v-5.2h-5.2zm-15.7-58.6h-6.3v5.2h6.3zm-83.6 21h3.1v-3.1h-3.1zm50.2-845.9h-4.2v3.1h4.2zm-150.6 114h-4.2v5.2h4.2zm91-82.6h-3.1v5.2h3.1zm14.6 3.1h-5.2v5.2h5.2zm68.1-35 3.5-2.5-4.4-1.7-4.4 1.6v4.2l3.4.5zm-40.6 22.1 1.3-4.9h2.5l4.5-5.5-4.6-1.8-1.9 4.1h-5.2l-3.1 4.2-3.1 3.8 4.8 2.2zm-.3 400.8 3.4-4.7 2.2-4.7h-5.6-6.3l-4.2 4.1v5.4h3.1zm-2.1-14.6 3.1-2.9v-3.3h-6.3-6.3v3.1l6.3 3.1zm-59.6 27.1v7.3l-3.1 6.2v7.4h6.3v-6.3l5.2-4.2v-7.3-5.2l-5-.1zm17.2-67.2 1.7 4.5h5.2l2.1-4.7v-3.7l-5.6-.1zm-203.6-27.9c1.3 3.1 6 4.4 6 4.4s-3.6 5.7-3.6 8.7v8.8l1.5 4.7 1.9.9.5 5.2.9 3.9 3.1.9 1.8-1.3-1.7 6.1-4.4 5.2 1.7 6.1 5.7-1.3 1.3 3.9s-3.5 5.7-3.5 7.4.9 8.3.9 8.3l4.4 2.6 4.8 7 8.7 4.2 8.3-1.1h6l5.8-4.1 10.5-9.7 6.5-7.5 6.1-2.6 4.8-4.4-1.7-5.2s-.9-3.5.4-3.9 4.3-3.1 4.3-3.1v8.2s3.8 5.3 4.2 7.1c.4 1.7 4.5 6.5 4.5 6.5l1.8 10 2.2 10 3.5 4.4s-.4 5.2 0 7c.4 1.7 3.9 11.8 3.9 11.8l3.5 5.4 5.6 7.7v3.3l-1.9 5 .3 4.8 1.9 1.8 1.8 1.1 2.4 8.9s-5.2.9-3 3.5 4.4 4.4 4.4 4.4l8.3-1.3 7.9-1.3 1.3-7.9-.9-6.1c3.1-2.2 10.9-13.1 10.9-13.1l7.9-17 10-14.8 2.6-9.2.4-11.8 8.7-4.8 5.1-5.7s2.3.4 4.5 0 6.5-7 6.5-7l-4.8-1.3 6.1-3.9 4.8-4.8-2.6-4.4 1.3-8.3-4.4-5.2-2.2-5.3s-3.5-4-4.8-4-6.6 0-6.6 0l-4.8-5.3-1.4-5.5v-17.5l8.1-6.5-2.3-4.8.5-9.2-1.7-6.1s2.7 1.3 3.8 0 1.1-6.1 1.1-6.1 3.1-3.9 5.2-3.9 3.9-2.2 3.9-2.2l3.1-7 2.6-6.5h6.1l5.3-6.3s3.9-4.1 5.7-4.1c1.7 0 7.4-4.9 7.4-4.9l4.4-6.6 2.6-6.1 3.9-3.9-.9-3.9-2.2-5.7v-6.6l2-6 3.6-7s2.2-4.4 4-5.7c1.7-1.3 5.7-5.2 5.7-5.2l4.8-6.1s3.9-.4 5.2 0 9.2-.2 9.2-.2 5.7-2.9 7.9-2 2.6.9 5.7 3.5 8.1 10.5 8.1 10.5l-.7 7v9.2l-4.6 2.6s-6.8 7.4-7.7 8.7-4.7 6.5-6.5 7.9c-1.7 1.3-13.5 15.3-13.5 15.3s-5.2 6.5-5.7 7.9c-.4 1.3-2.6 7.9-2.6 7.9s-5.2 1.3-6.1 3.1c-.9 1.7-4.4 8.7-4.4 8.7s-4.4 3.5-4.4 5.7-.9 10.5-.4 12.2c.4 1.7 3.1 8.3 4.8 10s2.2 6.1 1.7 8.7c-.4 2.6-3.1 9.6-3.1 11.3s-.4 6.1-.4 8.7 1.3 11.8 1.3 11.8l4.8 5.2 3.5 2.2-5.2.9s-3.9.9-3.1 2.6 6.5 4.8 6.5 4.8l2.2-2.6 4.4.9 1.7 3.5 5.2-2.2.9 4.4 6.1 1.3 5.2-.9 2.6-3.9 7.4-.4 10.5-5.7 8.3-2.2 8.7-2.6 6.5-3.1 6.5 1.7 3.9-1.3 7-7.9 33.6-40.6 8.3-10.5 4.4-10.5-3.1-8.7-4.8-3.5-13.1-15.3 1.7-5.7 4.4-6.1-6.5-9.2.4-12.7-4.8-.9-.9-5.2 1.7-3.9-3.9-4.8 2.2-10.9 4.4-3.5 1.3-6.1-3.9-11.8-4.4-8.7-2.6-9.2-3.9-5.2 1.3-3.9 3.1-4.8 3.5-7.9 6.5-12.7-3.1-7s-4.4-5.2-5.7-6.1-7-2.6-7-2.6l-4.4-7-3.9-6.1 2.6-6.1 2.2-4.8 1.3-5.2s-2.2-3.9-.9-3.9 3.1-3.1 4.4-3.1 2.2-3.1 3.1-4.8.9-6.5 3.1-6.5 4.4 2.6 6.5 0c2.2-2.6 4.8-7 4.8-7s-.9-3.9 1.7-3.1 6.1 3.5 7.4 2.6.4-8.6.4-8.6l-5.7-1.6h-5.2-5.2l-3.5-3.9s-3.9-5.4-5.2-5.4-4.4-3.9-4.4-3.9l10 2.7h5.2l8.8-2.7 4.4-5.2 4.4-4.4-6.5-3.1s-3.5-2.2-4.8-2.2-4.1 0-4.1 0l.6-4.2h-3.8-4.2v-2.9l-2.6-3.2s-3.1-4.9-4.4-4.9-4.4-.9-4.8 2.6-.4 4.8-.4 7-1.7 7-1.7 7l-3.6-.9.8-3.9s1-2.8 0-2.8c-2.1 0-4.2.2-4.2.2v-2.3l2.8-4.2 1-2.7-3-5.1s-2.4-3.5-4.2-3.5c-1.7 0-5 3.1-5 3.1v2.1h-3.1v5.2h2.7l-.8 1.7-.9 3.8s-3.1 2.6-3.1 3.9 1.3 3-.4 5.2-3.9 3.9-3.9 3.9l-.4-7.9s-4.8.4-3.9-.9 2.2-5.2 2.2-5.2l1.3-3.5-4.4-3.5-2.2 3.9-1.3 5.7-3.5 4.8-1.7 4.4s-2.6 3.1-3.1 4.8c-.4 1.7-1.7 4.4-1.7 4.4l-3.9 5.7-2.6-.9 2.2-7.9 1.3-4.8 2.6-5.2 1.7-7 2.2-5.7-2.6-2.2-3.1-1.3-1.3 4.4-4.4-4.4-3.1 4.4s-4.4-3.1-2.6-.4c1.7 2.6 3.1 6.1 3.1 6.1l-3.5.9-1.7 2.2-.9 2.6-2.7-4.1-4.8-1.3-.6 2.6-5.1 2.8s1.3 3.4 0 4.3-2.6 4.8-2.6 4.8l3.9 2.4 2.5-1.4c.4.9.5 1.9.5 2.4 0 1.3-2.8 2.6-2.8 4.4v7.7l-5.3-3.3-2-3.1v-6.2l-4.5.5-.7-3.5-5.6 4.4-5-.4-1 .2v-1.2h-6.3v6.3h3.1v1l6.7 1.9-.7 4.4-5.6-.9-2.1 2.6-3-.9s-.9-4.4-2.7-3.1c-1.7 1.3-4 3.1-4 4.8s0 5.7 0 5.7-2.3 3.4-2.3 4.7-2.5-2.6-2.5-2.6l2.7-7-2.6-3.5s-3.9 2.6-4.3 3.9-1.3 8.3-1.3 8.3l-1.7-5.2-3.9-1.7 3.1-6.1s-1.7-3.9-3.1-3.9c-1.3 0-4.5-2.6-6.2-.9s-4.9 6.1-4.9 6.1v1.6l-2.2 3.2s-2.9 2.2-2.9 3.9.5 6.5.5 6.5l4.8.4 1.3-2.6 4.4 1.7-3.9 3.5-1.7 4.8-3.1-1.3s-2.6-1.7-3.9-1.3-5.8-3.5-5.8-3.5-2.4-2.2-3.8-1.3-2.6 4.4-2.6 4.4l-3.9 3.1s-.4 5.2-.4 7-.4 5.2 1.7 5.7c2.2.4 4.8-2.6 4.8-2.6l4.2-3.5 4.1-1.3.9 3.5-5 .9-2 7.9s-2.2-1.3-3.5 0-4.8 6.5-4.8 6.5l-3.9-.4-2.4-4.4-3.3-3.5v4.6l-2.9-.7-3.8-4.8.9-5.2.9-1.5-5.2 2.8.4 6.5-2.6 1.7-1.9-4.4-3.6 1.3v4.2l-1.8 4.5-2.2 3.9h6.2l3.9.3-3.9 2.9-6.5.4s-1.7 3.9-1.7 5.6-4.8 1.7-4.8 1.7l-6.5 3.1-2.2 5.7h5.1l1.8-3.1h4.4 3.1l3.7-4.6 2.7-2.3 4.8.8 4.8-1.8 4.4-3.5 3.5 2.2 5.2-2.6 4.4.9.9 2.6-5.7.9-4.8.9-1.3 6.1.4 5.2-4.4-2.6-5.7-2.4-2.2 5.5h2.8l-2.8 3.2-4.8 2.1-2.3 5.6 3.6 1.7 3.9-1.3-5.6 5.7-5.6 2.2v6l7 .6 1 2.2-4.4 1.3-6-.4-3.5 4.8-4.4 4.4-1.3 6.1h-4.2l-4.2 4.8v3.5l-1.8 2.2-2.2 4.8 4.1 3.1v4.6l-4 .1-3.1 4.8-1.7 5.7s-3 3.1-3 4.8 1.3 6.5 1.3 6.5l-1.7 3.9s-3.9.9-3.9 2.2-.4 4.8-.4 4.8-3.9 3.5-4.4 4.8c-.4 1.3-4.8 3.1-4.8 3.1l-4.4.9 1.7 3.1 3.1.4-.9 3.5-6.1 2.2s-4.4 3.5-4.4 5.2-2.2 9.2-2.2 9.2l-4.8 7-4.4 3.5 3.9 4.5 2.2 1.4h4.2l3.7-3.5 3.1-3.2 3.5-3.6 1.7 4.8-3.9 2.2s-5.2 2.2-4.8 3.9 1.3 3.9 1.3 3.9l-3.9.4-5.2.9-2.6-2.2-1.7-2.6h-4.6l-1 3.3-2.6 2.9s-6.1-2.2-7.4-1.4-3.5.8-3.5 3.9.4 5.7-.4 7c-.9 1.3-5.2.4-5.2.4l-.9 4.4-2.6 3.5-2.6 1.3s.4 2.6-.4 3.9c-.9 1.3-5.7 1.7-5.7 1.7s-3.5-2.2-4.8-.9-2.2 2.2-3.1 3.9-2.2 5.2-2.2 5.2-3.5-.9-4.8 0-3.1-1.7-4.8 1.3c-1.7 3.1-4.8 6.5-4.8 6.5s-4 .9-4.9 3.9c-.9 3.1-1 3.5-1 6.5v6.2s-2.8 4.5-1.5 7.5zm553.4 519.7v4.7l-5.3 2.6-3.1-1.1v-2.9l-14.6.8v-3l-4.9-.9-2.4 1.7-4.3 2.2-4.8-1.7-6.5 1.7-6.5.7-2 5.5h-7.3-5.1l-5.2 1.9-4.8 1-2.6-2.9h-6.6l-6-3.1v2.6l-6.3.5v2.5l-10.5.6v-3.7l-5.2.5v10l-5.2.5v7.3h-4.2v-5.1l-1.9-4.9 1.9-5.7v-2.6l-6.4 3.9-5.6-.9-4.3-3.1-6.5 3.5-7 5.2-7.8 4.4s-10-.9-11.3-.1c-1.3.9-3.9-7.4-5.2-8.7s-6.1-2.4-6.1-2.4l-6.6-1.5h-6.5l-2.6 6.1-6.7 2.7h-3l-9.5-2.1v-4.2l-4.4.9s-5.8-2.2-7.6-3.5c-1.7-1.3-4.7-2.6-4.7-2.6l-4.3-2.6-4.8-4.8-1.7-4.8 1.7-3.9-5-2.2-2.4-2.9-4.8-2.4 2.8-3.1 3.9.5v-5.2-4.2-5.9l-3.1-2.5h-3.5l-3.3-4.2 3-4.1-.4-4.3v-3.3l4.2-3v-3.1h-4.2-4.2l-4.3-3.1h-6.1s-1.7-4-3-3.6-5.7 3.1-5.7 3.1-3.5 3.5-4.8 3.2-4.4 2.6-4.4 2.6l-3.5 5.1h-4.9l-4.4-2.7-2.6-2.3-3.9 4.5 2.6 4.1 5.2 2.5.9 3.9s3.5 2.2 3.5 3.9-1.7 3.4-1.7 4.8 3.5 6.1 3.5 6.1l5.7 2.6s2.6 2.2 3.5 3.5 3.5 6 3.5 6 0 .5-.4 1.8-4.8 3.9-4.8 3.9h-5.2l-4.8-3.2-3.1 1-4.8-3h-3.9-4.3v1l7.2 3.7 6.4 1.8v5l-.8 3.3-.2 8.7v4.7h-4.2s-2.7-5.5-2.7-4.2-.9 4.2-.9 4.2h-5.8v-4.2h-2.9-2.3v-7.3l-3.5-5.2-1.8-4.1v-5.3l4.9-2.1h3.4l-3.4-3.7-4.4.7-5.2-4-4.7-5.2-4.3-4.1v-11l-3.4-4.2-7.1-2v-3.6s-3.4-7-3.2-8.3.1-15.3.1-15.3v-7s-4.7-4.4-5.5-5.7c-.9-1.3-6.5-5.7-6.5-5.7s-7.3-4.4-10-4.4c-2.6 0-5.6-4.4-5.6-4.4l-4.8-4.4-5.7-4.4-5.2-1.3-6.1-2.2-7.9-8.3-2.9-4.4-2.6-5.6v-5.7l-4.4-4.2-2.9-3.2-.8 3.2-1.7 2-3.5-2s-2.2-3.7-3-5 2.2-3.1 2.2-3.1l1.3-4.8-4.8-1.3-7.4 1.7-5.2 2.2-3.9 3.1.4 7.2.4 2.9-1.7 2.6-1.3 1.7.9 4.4 2.2 3.5.4 2.6 4.4 3.9s2.6 1.7 3.9 1.7 5.7 4.4 5.7 4.4l5.7 9.2 2.6 4.8 2.6 6.1 8.6 8.1 4.7 5.2h5l5.2-1.9 3.9 5.2-3.1 3.9 3.5 2.6 5.2 3 6.1 2.6 4.8 1.3 4.5 7.4 7.6 4.1v3.1 3.7l-5.2-1.7-2.3-3.5-5.6-1.3-3.2-1.7-3.8 2.2-.9 6.1-2.6 3.1 2.8 3.1 3.9 2.7v5.1l-1.8 5.2-3.7 6.1-6 6.5-3.6 4.4-3.8-.9-.7-3.9 4-5.8v-6.6-5.6l-4.2-6.9v-5.3l-5.2-.9-3.2-4.4-2.7-5.7s-6-2.2-7.7-3.5-4.3-3.7-4.8-5c-.4-1.3-2.6-4.6-2.6-4.6h-5.7l-6.1-3.7s-11.8-7.9-12.7-9.2-6.5-7-7.9-8.4-4.8-3.1-7-4.4-3.5-3.5-3.5-3.5 1.7-3.9 0-6.1-3.9-6.1-3.9-6.1l-3.5-5.7s-2.6-3.5-4.4-4.8c-1.7-1.3-4.4-2.6-6.1-3.5s-4.4-2.6-4.4-2.6l-6.1-.4-5.7 5.7-3.1 3.9s-3.9 1.7-5.2 1.3-4.4 4.8-4.4 4.8l-3.9 3.5-7.4 3.1-8.3 1.3-7.4-2.6-6.5-.9-3-2.6-5.3-2.6-4.8.4-7.4 4.8-4.4 5.7.4 7 2.6 6.1-2.2 5.2s-5.7 6.5-7 6.5-7.4 5.2-7.4 5.2l-7.4 3.5-3.9-1.3-4.4 5.7-1.3 4.8-3.9 6.1-5.2 5.2-5.7 10-.4 5.7 2.2 3.9 3.1 4.8-3.1 5.7-4.8 5.2-3.5 4.8-2.6 3.5-6.5.4-3.9 5.7-3.5 5.7-3.5 2.6-3.5-.4-4.4 1.7-3.9.9-8.7-1.7-6.5 1.3-4.4.9-2.6 2.2-5.7 2.2-3.1 3.5-3.5 2.2-5.7-2.6-3.5-3.1-2.2-5.7-4.8-3.1-5.2-4.8-4.4-.2-2.6 2.6h-8.4-4.7l-5.7-3.1h-5.2l-2.6-2.7 4.1-4.3-.5-9.7v-7l-4.2-6.6v-7.4l7-8.7 2.1-11.3 1.1-11.8-.9-11v-5.2l-2.7-4.8 1.5-4.8-1.1-3.5-4.1-2.7v-6.1l7.2-3.1 6.2-1.7 3.1-4.4 3.5-1.7 5.3 2 8.1.3h7.6l3.1-1.6 5.2 2 5.7 1.7 8.3.8 6.1 2.9 4.8-1.6h6.3 3.4 3.1 6.3 9.5l3.5-2.4 2.6-9.7 1.7-7 2.2-2.6-.9-13.1 1.3-4.4 2.6-2.2-2.6-2.6.9-4.5-2-6.9h-4.5l-3.9-5.4-3.1-7-2.2-7.9-2.6-2.6-5.2-4.1-5.6-2.1h-4.4l-4-3.1h-4.8l-4.8-3 .9-5.2.3-3.4h-5.2v-5.2h4l8.7-1.8 4-1.4h7.4l2 3.1h2.1 5.2 3.1 5.8l.4-3.1.4-4.9-.4-5.6h-3.1v-5.7l2.2-2.2 4.7.4 2.7 3.8 10.3 2.6h7.3v-6.8l3.1-4.7h3.8l7-3.1 3.2-3.9 3.8-5.6v-6.8l2.2-3.2 5.2-1.5h5.3l4.4-5.3 7.9-3.8 5.7-4 2.2-5.3 5-7.9 4.2-6.2v-10.5h5l1.4 4.4.9 5.7 1.8-2.6 3.1-.9 3.1-3.5-3.5-5.2.4-4.8 3.9-3.5 7.9-2.6 6.1.4 3.1.9 3.9-3.1 3.9-5.2 4.8-.9 3.9 2.6 4.4.9 1.7-5.7 3.2-3.5-1.6-9v-5.8l-.2-7.4-2.9-8.7.9-7-2.6-3.1-6.5-13.1 3.9-3.1 1.7-3.1 6.1-.4-2.2-2.6-3.9-5.7s1.3-3.9 1.3-5.2 4.4-1.3 4.4-1.3l7-3.1 4.4-2.6s3.5-1.7 3.5-3.3 2.2-5.8 2.2-5.8l3.2-1.7 3.7 3.6v7.3l-3.7 10.9 1.9 5.2 3.6 3.1 5.3 3.9-1.7 4.4 9.2 2.2h6.4l1.8 2.9 4.1 14.5-1.3 4.4-2.2 3.5.4 2.6-2.2 3.1-2.2 5.2-4.8 1.3-3.9-1.3-3.5-1.3s.4-3.9.4-6.1 2.6.4 2.6.4l3.9.9 3.1-2.6s0-2.6-.9-3.9-3.1-1.3-3.1-1.3-2.6-2.2-3.1-3.5c-.4-1.3-1.3-3.9-2.2-5.2s-3.1-2.2-3.1-2.2l-4.4.4-1.7 1.7 3.5 3.9.9 4.4.9 4.4-3.1 3.9-2.2-3.1-3.9-2.2s-.9-3.1-1.7-5.2c-.9-2.2-2.6-3.1-2.6-3.1l-3.1 3.1-.4 5.2.9 4.4.9 3.9s2.6 3.9 2.6 5.2 3.9 4.4 6.1 4.8 3.1.9 6.5.9 3.1 1.7 3.1 1.7l2.6 5.7s2.6.9 4.8.4c2.2-.4 5.2-3.1 6.5-5.2 1.3-2.2 3.5-1.7 5.7-2.6s4.8-.4 5.7-1.7 3.1-4.8 4.4-5.2 4.4 1.3 5.7 1.7 0 3.5 0 3.5l-2.2 3.5 3.1 2.2 3.9 4.8 2.6 3.5s4.8.9 5.2-.4 3.1-4.4 3.1-4.4 7.4-2.6 9.2-3.9c1.7-1.3 8.3-3.1 8.3-3.1l8.7-4.4 4.4-3.9 7.4-3.2s3.9-.9 4.4-.9 6.1 0 6.1 0l4.8 4.1 3.5 4.2 4.8 3 7.9-2.6 4.4-4.8-.4-4.8 3.9-3.5 4.8.9s5.7-.4 5.7-1.7.9-7 .9-7 0-2.2-.9-3.9 0-6.1 0-7.9.9-5.2 0-7c-.9-1.7-1.3-3.9-2.2-5.7-.9-1.7.9-7.9 1.3-9.6s2.6-3.1 2.6-6.4 2.6-5.8 2.6-5.8l2.6-5.2s6.5-4.8 7.9-6.1c1.3-1.3 4.4-2.2 4.4-2.2l5.7 3.9 3.9 6.5.9 5.1 4.4 4.4h5.6l4.8-6.1.9-7.1 1.7-7.5s-1.3-3.1-1.7-5.7.4-4.8.4-6.6c0-1.7 3.1-4.8 3.1-4.8l-1.7-2.2-2.6 4.8-5.7 1.7s-4.4-5.7-4.4-7 .9-8.3.9-8.3l-.4-5.7.9-3.5 6.1-3.5 5.2-4.8s7.4-1.3 8.7-1.7 4.4-1.9 4.4-1.9l11.5 2.9h11.1s6.5.2 6.5.2l3.9-.6 3.5-7 1.3 4.3s-.4 4.3-1.3 5.7c-.9 1.3-1.3 5.2-2.2 6.5s-4.8 6.1-4.8 6.1l-.9 4.8 1.5 5.7 2.2 6.8v7.2l-.3 4.8-1.7 5.2 1.4 5.2 1.8 5.2.9 3.9-1.3 2.6.4 4.4h3.1v6l2.2 6.5 1.6 2.6 3.1 4.2 5.6 2.6h5.3l2.6 3.6 3.5-.6 1.7-3.6 7.6 3 5.4 2.8v5.9l.5 5.1s1.6 3.7 1.6 6.8c0 2.1-2.1 0-2.1 0v3.8l4.6 2.6 1.5 6.1 2.7 3.9 1.8 1.7 1.3 3.5s2.2 2.6 3.5 3.9 3.9 0 3.9 0l2.2 2.6 2.6 4.4 3.5 2.2-3.5 3.9-3.5 4.4-3.9 1.1-4.2-2.4h-3.7l-2.2 3.9 3.1 3.5.2 3.9 2.6 3.3v3.2l1 6.1 3-.4 3.1-.4.9-2.6 2.2-.2 4.4 1.7h4.4l1.9-2.1h3.3l4.4.3 5.7 6.1 3.1 4.7-2.6 5.2-.9 4.3 1.3 3.7 5.6.7h6.1l2.2 3.9 3.5 6.6.4 5.6 2.6 1.7 3.9-2.6 3.5 3.9 6.5.4s2.6-.6 3.5-1.9 3.2-.9 3.2-.9h3.7l4.4 4.9.4 3.7 2.2 1.7 1.7-1.8 3.1-2.2 5.2 2.2 3.1 1.7 4.8 3.9 3.5.9 1.5 3.1 7.2-.3v3.8l-1.3 4.8-3.2 2.2-2.1 1.7 4 2.6-.4 3.5-2.2 2.6 2.6 3.1.6 5.2-4.3.8v5.3l-5.6 1.3-6.1-1.3-4.7 2.2-3.5 5.9-1 8.5h-5.2l-3.5 1.1-8.3 4.2-8.7 1.7-7 2.6-5.2 2.2-3.1-.9-1.3 4.4-6.5 3.5-2.2 2.6-3.1-2.6-5.7-.9-.9 1.7 3.1 1.7 3.9 1.3 3.5 2.6 3.9 2.6 2.2 3.5 2.2 3.8 5.1-.6h3.2l4.4-2.2 2.6 2.3-.4 4.6-1.4 3.8h-4.3l-2.2-2.2-4.3 2.5-4.8 2.9-5.3 2.5h-3.5l-1.7 3-3.5 1.8-3.3 2.1-5.8-4.8v-5.8l.8-1.8-1.9-3.9-6.5-2.6-3-3.9.9-3.1 3.1.7 4.5-3.7h4.6l-.9-4.4-3.5-.3-5.2-2.2-6.5 1.7-3.9-2.2-2.2-3.1 3.5-4.8-3.5-3.9-.9 1.7-4.8 1.7-4.8-.9-6.5 2.2-2.6 5.2-6.1 7-3.5 3.1-3.5 3.5-1.7 3.5 1.3 8.6-3.9 2.7-3.5 3.1-4.8 2.6-1.7 7.9.9 10-3.8 4.4-5.6 1v9l-2.4 3.1-2.5 3.1 2.7 5.2 4.5 5.7-1.8 3.9 11.9 7.4 10 1.3 11.8-.9 10.5 2.6 5.7-4.8 7.9-4.4 10.5-6.1 9.2-.2 13.1 1.2h6.5l.9 3 7 1.8 7.4 3.2 4.4 3.4h3.5l7 2.9 11.3 3.9s4.4-.5 7.4-1.8c3.1-1.3 7-.9 7-.9l9.2.9 5.2 1.7 3.5-.4 7.4-4.4 6.1-3.5 5.7-3.7h7.2 8l5.7 5.1 4.4 4.8 1.7 6 .4 8.1 1.7 3.2h3.9l2.6 1.1 3.5 3.4-1.3 5-3.5 4.1h-3l1.3 5 1.7 6 2.2 6.3.9 3.1-3.5 5.2 3.1 2.1 4.1 2.1zm-211.6-60.9-4.8-3.8s-7.9-.4-9.2 0-9.7 0-9.7 0l-9.1 4.4-5.1 2.9-1.1.9 6 5.2h4.2 5.2s5.3-1 6.6-2 7-.1 7-.1h3.9l1.3-3.3zm-503.6-470.3h-3.1v4.2h3.1zm53.4 70.1h-5.2v6.3h5.2zm19.8-26.2h4.2v-12.5h-4.2v4.2h-3.1v5.2h3.1zm-78.4-55.4h5.2v-2.1h3.2v-7.3h-11.5v7.3h3.1zm2.1 118.1h-5.2v13.6h5.2zm2.1-13v4.7l3.1 3.1h4.2v-6.3-4.1-2.1h-4.9zm4.2 20.2 3.5 6 6.9 4.4v3.5l-3.2 4.8-.3 4.8 3.8 5.2 2-3.5.7 3.5-3 6.5v1.6s-6.5.1-7.1 1.9c-.5 1.7 4.8 7.9 4.8 7.9l7.5-2.2 3.5-3.5s4.3 0 2.4 3.1-5 5.7-5 5.7.9 5.5 1.7 6.8c.9 1.3 6.5 7.6 6.5 7.6h7.5 6.3s4.1.7 4.6 2 1.4 3.8 2.2 6.8 5.2 6.9 5.2 6.9-3 4.3-2.6 6.5 0 2.7 0 7c0 4.4-2.6 8.3-2.6 8.3h-4.7-6.3-5.2l-.8 4.5-.9 5.5 5.2 3 3.1 4.6-2.2 6.4h-6.5l-4.4 4-.4 3.4 3 3h3.9l4 5.2h4.4l3.9 3.1h3.4l5.2-4.2v6.3s-6.1 2.1-7.4 2.1-5.2 0-5.2 0l-6.2 4.6s-6.6 4.7-6.1 6.4-3 6-4.8 7.8c-1.7 1.7-4.8 5.2-4.8 5.2l.4 4.3h5.7l6.9-8 6.1-.6 1.7 2.6 4.8-.5.4-3.1 3.5-2.6 5.2-2.6h4.7l6.2-.3 7-2.7 4.1 2.1 2.1-1.8 9.1-.5 10.5-1.8 8.8-3.9 6.7-2.6v-2.1-3.1l-9.2-1.7 1.4-3.9 4.9-3.5 3.2-5.2 3.9-5.2v-6.5-6.3l-5.5-2.9-6-2.2-5.2 3.5-3.9-2.2 2.6-3.9s-.4-3.5-.9-4.8c-.4-1.3-5.2-7.4-5.2-7.4l1.3-7.9s-2.6-3.5-4.4-4.8-8.7-11.3-8.7-11.3l-5.5-5.7-2.1-10.9-3.8-6.1-5.7-6.5-5.7-4.4-4.8.4-5.2-2.6 2.6-3.1 2.6-5.7 6.5-7.4 2.6-5.1 4.4-6.3.9-6.5-2.2-6.5h-7.5-7.3l-7.9 2.1h-2.6l-.5-5.8 1.7-4.1 4.8-1.8 1.8-6.1 2.6-5.6-2.6-3.9h-5.8l-5.6 2.7-5.2.3-7.5.7-3 5.5-2.2 4.3 2.6 6.4h-4.2l-3.1 4.7v6.8s1.3.3.3 2.4c-1 2.2-4.8 0-4.8 0l-3.3-2.4zm-27 137.2 10-7.4 8.6-.4 8.4-2.6 3.7-3.1 3.4-7.9-.2-16.1 1.5-12.2v-4.7l4.2-5.7v-9.9l-4.4-4.9 2.7-4.4-3-3.1-4.2-4.4s-2.7-.7-7.3 0-4.6.7-4.6.7-6.9-1.7-7.8.1c-.9 1.7-3.5 5.7-3.5 5.7s-3.9 2.2-4.4 3.9c-.4 1.7-1.8 7.4-1.8 7.4s-1.3 1.7 0 3.5 2.6 2.2 1.3 3.9-1.3 1.7-1.3 1.7l-10 2.6-7.4-3.1-2.2 8.3 3.1 3.5-3.1 1.7s-.9 3.1 0 4.4 3.5 5.7 3.5 5.7l2.6 3.1 4.8 2.2-4.8 9.6-6.5 6.5-2.7 5.7s-2.6 3.3-2.6 4.6 1.7 5.9 1.7 5.9h6.3l8 2.4zm333.3-83.7h-9.4v8.4h9.4z" fill="#9ccc65"/></svg>