<svg viewBox="0 0 185.3 69.7" xmlns="http://www.w3.org/2000/svg"><path d="M18.8 45.8l2.3 8.3h142.7l4-14.6c-.1-.1-41.6 8-149 6.3z" fill="#f7a63b"/><path d="M24.6 31.9h27v.7h-4.8v4.7h-.7v-4.7h-4.2v4.7h-.7v-4.7H37v4.7h-.7v-4.7h-4.2v4.7h-.7v-4.7h-4.2v4.7h-.7v-4.7h-2.3c-1 0-1.8.8-1.8 1.8v2.9h-.7v-2.9c.4-1.4 1.5-2.5 2.9-2.5z" fill="#524c61"/><path d="M23.3 37.3h26.9l.9-5 .1-.8H122c1.4 0 2.7.5 3.7 1.4l6.3 5.5c-46 4-114.4 3.2-114.4 3.2v-4.3z" fill="#fff"/><path d="M135.7 30.3c2.2-.2 4.9-.5 8-1 2.8-.4 6.1-.9 9.6-1.5 2.6-.4 5.4-.9 8.7-1.5 3-.5 5.4-1 6.9-1.3.4-.1.8.1 1.1.3.3.3.4.7.4 1.1l-1 5.7-.7-.1 1-5.8c0-.2 0-.4-.2-.6-.1-.1-.4-.2-.6-.2-1.4.3-3.7.7-6.6 1.2l-1.5 7.9h-.7l1.5-7.8c-3 .5-5.6 1-8 1.4l-1 7.9v.1l-.7-.1 1-7.8c-3.3.5-6.2 1-8.9 1.4l-.3 7.6v.1h-.7l.3-7.6c-3 .4-5.5.7-7.6.9-1 .1-1.7.9-1.7 1.9l.1 5.6h-.7l-.1-5.6c.1-.9 1.1-2 2.4-2.2z" fill="#524c61"/><path d="M151.9 36.1c-2.8.4-5.7.8-8.9 1.2-3 .3-6.2.7-9.6 1-.4 0-.9.1-1.3.1-46 4-114.4 3.2-114.4 3.2l1.1 4.2c107.4 1.7 148.9-6.3 148.9-6.3l2.2-8-1.2.6c-2.1.9-5 1.8-8.5 2.6-2.6.4-5.3.9-8.3 1.4z" fill="#fff"/><path d="M69.7 28.5v.1h30.1l-1.2-7.7h-22c-3.9.3-6.9 3.6-6.9 7.6z" fill="#524c61"/><path d="M81.6 7.1h-6.8c-.4 0-.7.2-.9.5l-.4.7c-.1.2 0 .4.2.4h6.8c.4 0 .7-.2.9-.5l.4-.7c.1-.2-.1-.4-.2-.4z" fill="#605d69"/><path d="M73.4 8.3l.4-.7c.2-.3.5-.5.8-.5l-.1.1-.4.7c-.1.2 0 .4.2.4h6.9c-.2.2-.5.4-.8.4h-6.8c-.2 0-.3-.2-.2-.4z" fill="#524c61"/><path d="M75.3 15.8l-2.3.3-4.9.5-20 2.1c-.5.1-.8.5-.8.9V21c0 .6.5 1 1 .9l4.8-.5L76.4 19l20.3-2.2 1.3-.1 2.2-.2c.5-.1.8-.5.8-.9v-1.4c0-.6-.5-1-1-.9l-18.7 2z" fill="#605d69"/><path d="M48 18.8v1.1c0 .6.5 1 1 .9l4.8-.5 23.3-2.5 20.3-2.2 1.3-.1 2.2-.2h.1v.3c0 .5-.4.9-.8.9l-2.2.2-1.3.1L76.4 19l-23.3 2.5-4.8.5c-.6.1-1-.4-1-.9v-1.4c-.1-.4.3-.8.7-.9z" fill="#524c61"/><path d="M68.1 14.3v2.3l4.9-.5v-1.8c0-.9-.7-1.6-1.6-1.6h-1.7c-.9 0-1.6.7-1.6 1.6z" fill="#605d69"/><path d="M69.7 12.7h1.1c-.9 0-1.6.7-1.6 1.6v2.2l-1.1.1v-2.3c0-.9.7-1.6 1.6-1.6z" fill="#524c61"/><path d="M76.2 8.7l-.9 7.1 4.6-.4-1.5-6.7z" fill="#fff"/><path d="M76.2 8.7h2.2l.2.6h-2.5z" fill="#dde8f5"/><path d="M75.3 15.8l.9-7.1h.9l-.8 7z" fill="#dde8f5"/><path d="M53.1 21.5L76.4 19l20.3-2.2 1.3-.1.6 4.1h-22c-3.9.4-6.9 3.6-6.9 7.6v.1h30.1l.5 2.9h-49z" fill="#fff"/><path d="M53.1 21.5L76.4 19l20.3-2.2 1.3-.1.2 1.4H98l-1.3.1-20.3 2.2L57 22.6c-.7.1-1.2.6-1.3 1.2l-.7 4c-.2.9.5 1.7 1.4 1.8l43.7.9.2 1h-49zm104.3 13.6c.9-.2 1.8-.4 2.7-.5 3.5-.8 6.4-1.6 8.5-2.6l1.2-.6-2.2 8s-3.8.7-12.1 1.7c.8-2.1 1.5-4.3 1.9-6z" fill="#dde8f5"/><path d="M20.6 52.2c32.6-.1 129.6-.7 132.2-4.8 1-1.6 2-3.9 2.8-6.3 8.3-1 12.1-1.7 12.1-1.7l-4 14.6H21.1l-2.3-8.3z" fill="#df8f2f"/><path d="M94 20.8l4.8 7.8h-3.1L91 20.8zm-4.6 0l4.8 7.8h-.7l-4.8-7.8zm-4.5 0l4.7 7.8h-1.4l-4.7-7.8zm-2.2 0l4.7 7.8h-2.2l-4.8-7.8zm-5.3 0h.4l4.7 7.8h-.8L77 20.9c.2-.1.3-.1.4-.1zm-2.1.3l4.6 7.5h-.8l-4.4-7.3c.2-.1.4-.1.6-.2zm-1.2.5l4.3 7H77l-3.9-6.4c.3-.3.6-.5 1-.6z" opacity=".5" fill="#fff"/><path d="M19.3 37.3c.5 2 2.2 3.4 3.7 3.4 17 .2 69.3-.5 107.4-3.8l1.7 1.5c-46 4-114.4 3.2-114.4 3.2v-4.4h1.6z" fill="#dde8f5"/><path d="M21.1 54l-2.3-8.2h2.1l2.4 8.2z" fill="#df8f2f"/><path d="M17.7 41.6h2l1.2 4.2h-2.1l2.3 8.2z" fill="#dde8f5"/><path d="M113.7 35v1.9c0 .8.6 1.4 1.4 1.4h.2c.8 0 1.4-.6 1.4-1.4V35c0-.7-.6-1.4-1.4-1.4h-.2c-.7 0-1.4.7-1.4 1.4z" fill="#5ca4aa"/><path d="M115.3 33.6c.2 0 .5.1.7.2l.7 1.4v1.6l-1.6-3.2zm-1 .3l1.9 4c-.1.1-.1.1-.2.1l-1.9-3.9.2-.2zm-.6 1.1v-.3l1.7 3.5h-.2l-1.5-3zm0 .7l1.2 2.5c-.2 0-.4-.1-.6-.2l-.6-1.3z" fill="#fff" opacity=".5"/><path d="M103.5 35v1.9c0 .8.6 1.4 1.4 1.4h.2c.8 0 1.4-.6 1.4-1.4V35c0-.7-.6-1.4-1.4-1.4h-.2c-.7 0-1.4.7-1.4 1.4z" fill="#5ca4aa"/><path d="M105.1 33.6c.2 0 .5.1.7.2l.7 1.4v1.6l-1.6-3.2zm-1 .3l1.9 4c-.1.1-.1.1-.2.1l-1.9-3.9zm-.6 1.1v-.3l1.7 3.5h-.2l-1.5-3zm0 .7l1.2 2.5c-.2 0-.4-.1-.6-.2l-.6-1.3z" fill="#fff" opacity=".5"/><path d="M93.3 35v1.9c0 .8.6 1.4 1.4 1.4h.2c.8 0 1.4-.6 1.4-1.4V35c0-.7-.6-1.4-1.4-1.4h-.2c-.7 0-1.4.7-1.4 1.4z" fill="#5ca4aa"/><path d="M94.9 33.6c.2 0 .5.1.7.2l.7 1.4v1.6l-1.6-3.2zm-1 .3l1.9 4c-.1.1-.1.1-.2.1l-1.9-3.9c.1-.1.2-.1.2-.2zm-.6 1.1v-.3l1.7 3.5h-.2l-1.5-3zm0 .7l1.2 2.5c-.2 0-.4-.1-.6-.2l-.6-1.3z" fill="#fff" opacity=".5"/><path d="M83.2 35v1.9c0 .8.6 1.4 1.4 1.4h.2c.8 0 1.4-.6 1.4-1.4V35c0-.7-.6-1.4-1.4-1.4h-.2c-.8 0-1.4.7-1.4 1.4z" fill="#5ca4aa"/><path d="M84.7 33.6c.2 0 .5.1.7.2l.7 1.4v1.6l-1.6-3.2zm-1 .3l1.9 4c-.1.1-.1.1-.2.1l-1.9-3.9c.1-.1.2-.1.2-.2zm-.5 1.1v-.3l1.7 3.5h-.2l-1.5-3zm0 .7l1.2 2.5c-.2 0-.4-.1-.6-.2l-.6-1.3z" fill="#fff" opacity=".5"/><path d="M73 35v1.9c0 .8.6 1.4 1.4 1.4h.2c.8 0 1.4-.6 1.4-1.4V35c0-.7-.6-1.4-1.4-1.4h-.2c-.8 0-1.4.7-1.4 1.4z" fill="#5ca4aa"/><path d="M74.5 33.6c.2 0 .5.1.7.2l.7 1.4v1.6l-1.6-3.2zm-1 .3l1.9 4c-.1.1-.1.1-.2.1l-1.9-3.9c.1-.1.2-.1.2-.2zM73 35v-.3l1.7 3.5h-.2l-1.5-3zm0 .7l1.2 2.5c-.2 0-.4-.1-.6-.2l-.6-1.3z" fill="#fff" opacity=".5"/><path d="M12.3 61H40c.5 0 .9-.4.9-.9s-.4-.9-.9-.9H12.3c-.5 0-.9.4-.9.9.1.5.5.9.9.9zm139.8 0h20.6c.5 0 .9-.4.9-.9s-.4-.9-.9-.9h-20.6c-.5 0-.9.4-.9.9s.4.9.9.9zm-31.9 3.5h23c.5 0 .9-.4.9-.9s-.4-.9-.9-.9h-23c-.5 0-.9.4-.9.9s.4.9.9.9zm-113-8.9h2c.5 0 .9-.4.9-.9s-.4-.9-.9-.9h-2c-.5 0-.9.4-.9.9s.4.9.9.9zm8.5 0h151.6c.5 0 .9-.4.9-.9s-.4-.9-.9-.9H15.7c-.5 0-.9.4-.9.9s.4.9.9.9zm159.9 0h5c.5 0 .9-.4.9-.9s-.4-.9-.9-.9h-5c-.5 0-.9.4-.9.9s.4.9.9.9z" fill="#5ca4aa"/></svg>