<svg viewBox="0 0 1920 414.2" xmlns="http://www.w3.org/2000/svg"><path d="M3 64.2l360-33 17 33h298v30l482-9 117 9 84-63h563l-1 383H-3z" fill="#fff"/><g fill="#e0f7fa"><path d="M380 64.2l-71 42-255 32 260-24 85.1-50zm984-21l177 95v253l13-253h369l-378-15zm-971 105h255l96 56h542l-537 13-108-58zm-339 74l12.1 192-.1-210zm44 7l15 10-2.5 166zm1225 115.7l12.1 61.3-.1-67zm68 5.1l15 3.2-2.5 53zM670.6 64.2l-76.6 37H413l180 11 85-38.7z"/><path d="M1286 101.2l15 22h-197l204 7 97 41 49 11-49-22-92-39zm-1098 157l306 20.9 276-20.9-275 29-307-18.9zm1291 51h-469l502 17z"/></g></svg>