<svg enable-background="new 0 0 1920 1080" viewBox="0 0 1920 1080" xmlns="http://www.w3.org/2000/svg"><path d="m1915 1079h-1914.5v856s1307.2 98 1919.5-344v-512" fill="#9ccc65"/><path d="m950.4 925.8c0-2.5 0-5 .4-7.4 0-1.2 0-2.9 0-4.1 0-2.1.4-4.5.4-6.6 0-1.2 0-2.9 0-4.1 0-2.1.4-4.5.4-6.6 0-1.2 0-2.9 0-4.1s0-2.9 0-4.1c0-.4 0-.8-.4-1.2-1.2-.8-2.9-2.1-4.1-3.3-2.5-2.5-4.1-5.4-4.5-9.1-.4-2.9-1.2-5.8-2.1-8.7-.8-2.9-1.2-5.4-2.1-8.3-1.2-3.7-2.9-7.4-5.4-10.7-1.7-2.5-3.3-5-5-7.4 0-.4-.4-.8-.4-1.2.4-.4.8 0 .8.4 1.2.8 2.5 2.1 3.7 2.9 1.7 1.2 2.9 2.5 4.1 3.7 2.5 2.1 4.5 5 5.8 8.3.8 2.9 1.7 5.8 2.9 8.7 1.2 3.3 2.1 7 3.7 9.9 1.2 2.1 2.1 3.7 3.7 5.4 1.2 1.2 2.5 1.7 4.1 2.1 1.7 0 2.9 0 4.5-.4 1.2-.4 2.1-1.2 2.9-2.5 2.9-3.3 4.5-7.4 5.8-11.6 1.2-3.3 2.1-6.6 2.9-10.3.8-2.9 2.1-5.8 4.5-7.9 1.2-1.2 2.9-2.5 4.5-4.1 1.7-1.2 2.9-2.5 4.5-3.7.4-.4.8-.8 1.7-.8h.4v.4c0 .4-.4.8-.8 1.2-2.1 2.9-3.7 6.2-5.8 9.1-1.7 2.9-3.3 6.2-4.1 9.9-1.2 4.5-2.5 9.5-3.3 14.5-.4 1.2-.4 2.9-.8 4.1-.4 2.1-1.7 3.7-2.9 5.4-1.7 2.1-3.3 3.3-5.4 5-.4.4-.4.4-.4.8v2.1c0 1.7 0 2.9.4 4.5 0 2.1.4 4.5.4 6.6 0 1.7 0 3.3.4 5 0 2.5.4 4.5.4 7 0 1.7 0 3.3.4 5 0 2.5.4 4.5.4 7v1.7c0 1.2-.4 2.1-1.7 2.5-1.2.8-2.9 1.2-4.5 1.2-.8 0-2.1.4-2.9.4s-1.7 0-2.5 0c-1.7 0-2.9-.4-4.1-.8-.4 0-1.2-.4-1.7-.8 1.2-2.9.8-3.8.8-5z" fill="#808080"/><path d="m958 855.5c5 0 9.1 3.7 9.1 9.1 0 5-4.1 9.1-9.1 9.1s-9.1-4.1-9.1-9.1 4.1-9.1 9.1-9.1z" fill="#808080"/><path d="m964.9 841.1c.8-.8 2.1-1.2 2.9-2.1 4.5-3.3 9.1-6.6 13.2-10.3 2.5-2.1 4.1-4.1 5.4-7 .4-1.2.4-2.5.8-3.3 0-.4.4-1.2.8-1.7.4.8.4 1.7.4 2.9.8 6.2-.8 11.6-4.5 16.5-2.5 2.9-5.8 5.4-9.1 7.4-3.7 2.1-7.4 3.3-11.6 4.1-.8 0-1.2 0-2.1 0-1.2 0-1.7-.8-2.1-2.1-.4-1.2-.4-2.1-.4-3.3 0-3.7.4-7.9 1.7-11.2 1.2-3.7 3.7-6.6 6.2-9.1s5.4-5 8.3-7.4c2.9-2.5 5.4-5.8 6.6-9.5v-.4c0-.4.4-.4.4 0 1.7 1.7 2.9 3.7 3.3 6.2.4 5-1.2 9.1-4.5 12.8s-7 7.4-10.3 10.7c-1.2 1.8-3.3 4.3-5.4 6.8z" fill="#3b97d2"/><path d="m927.7 817.1c.4.4.8.8.8 1.7.4 4.5 2.9 7.9 6.6 10.7 5.4 4.1 10.3 8.3 16.1 12h.4c-.8-1.2-1.7-2.1-2.9-3.3-2.5-3.3-5.8-5.8-8.7-9.1-2.1-2.1-4.5-4.5-6.6-6.6-2.5-3.3-4.1-6.6-3.7-10.7 0-2.9 1.2-5 3.3-6.6.4-.4.4-.4.8.4.8 2.1 2.1 3.7 3.3 5.4 2.1 2.5 4.1 4.5 6.6 6.2 3.3 2.5 6.2 5.4 8.7 8.3 2.9 3.7 4.5 7.9 5 12.4.4 2.1.4 4.5 0 6.6 0 .4 0 .8-.4 1.2-.4 1.2-1.2 2.1-2.5 2.1-1.2 0-2.9-.4-4.1-.8-5.8-1.2-11.2-4.1-15.7-8.3-5.4-5-7.9-10.7-7.4-18.2 0-1.4 0-2.2.4-3.4z" fill="#4eb96f"/><path d="m953 804.3c.4.4 1.2.8 1.7 1.2 1.7 1.2 3.7 2.1 5.8 2.5 2.9.4 5-.4 7.4-2.1l.4-.4s0 0 0-.4c-.8.4-1.7.4-2.5.4-3.3 0-5.8-.8-8.3-3.3-.4-.4-.8-1.2-.8-2.1.4-2.1 1.2-4.1 2.9-5.8.8-.8.8-.8 1.7 0 .8.8 1.7 1.7 2.9 2.5 2.1 1.2 4.5 1.2 6.6 0 1.7-.8 2.9-2.1 3.7-3.7.4-.4.4-.4.8 0 2.5 4.5 2.9 9.5.4 14.1-2.1 4.5-6.2 7-11.2 7.9-1.7.4-3.7.4-5.4 0-3.3-.8-5.4-2.9-6.2-5.8-.4-1.7-.4-3.3-.4-5 0 .4 0 .4.5 0-.5.4 0 .4 0 0z" fill="#e64d3c"/><path d="m962.5 754.7c2.5.8 4.1 2.9 5.8 4.5 1.7 1.7 3.3 3.7 4.1 6.2 1.7 4.1 1.2 8.7-.8 12.4-1.2 2.1-2.5 4.1-4.1 5.8-3.7 4.5-7.9 9.1-12 13.2-2.5 2.9-4.5 5.8-5 9.5-.4 2.9 0 5.8.8 8.3v.4c-1.2-.4-2.1-.8-3.3-1.2-2.9-1.2-5.4-2.9-7.4-5.4-1.7-2.1-2.5-4.1-2.5-7 0-2.1.8-4.1 2.1-5.8 1.7-2.5 3.7-4.1 5.8-5.8 4.5-3.3 9.1-6.6 13.6-9.9 2.5-2.1 5-4.1 7-6.6 2.1-2.9 2.1-5.8.8-9.1 0 0 0-.4-.4-.8 0 .4-.4.8-.4 1.2-.8 2.5-2.1 5.4-3.7 7.4-1.7 1.7-3.3 3.3-5.4 5-4.5 3.3-9.1 6.2-14.1 8.7-.8.4-1.2.8-2.1.8 0 0-.4 0-.8 0s-.8 0-.8-.4 0-.8.4-.8c1.7-1.2 2.9-2.9 4.5-4.5 3.3-3.3 7-6.6 10.7-9.9 2.9-2.9 5-6.2 5.8-9.9.4-2.5.4-4.5-.4-7 0-.4 0-.8.4-.8 1 1.5 1.4 1.5 1.4 1.5z" fill="#f19b20"/></svg>