<svg enable-background="new 0 0 1920 1080" viewBox="0 0 1920 1080" xmlns="http://www.w3.org/2000/svg" xmlns:xlink="http://www.w3.org/1999/xlink"><linearGradient id="a" gradientUnits="userSpaceOnUse" x1="959.75" x2="959.75" y1="1076.2721" y2="298.2722"><stop offset="0" stop-color="#9ccc65"/><stop offset="1" stop-color="#aed581"/></linearGradient><path d="m-.5 362.5s955.3-135 1920.5 0v718h-1920.5z" fill="url(#a)"/><g clip-rule="evenodd" fill-rule="evenodd"><path d="m649.5 462.6-.4.5-5.6-17.5.5-.4z" fill="#836929"/><path d="m645.9 444.4-2 .5 5.7 17.9 2-.7z" fill="#a38742"/><path d="m680.6 452.4-.4.5-5.6-17.4.5-.5z" fill="#836929"/><path d="m677 434.2-2 .6 5.7 17.8 2-.7z" fill="#a38742"/><path d="m680.1 432.2-42.2 14.1 1 3.3 42.3-14z" fill="#cdad62"/><path d="m679.5 432-42.2 14.1.6.2 42.3-14z" fill="#b2944d"/><path d="m637.9 446.3-.6-.2 1 3.3.6.2z" fill="#a98b43"/><path d="m681.5 436.4-42.3 14.1 1.1 3.3 42.2-14z" fill="#cdad62"/><path d="m680.8 436.2-42.2 14.1.6.2 42.3-14z" fill="#b2944d"/><path d="m639.2 450.5-.6-.2 1 3.3.7.2z" fill="#a98b43"/><path d="m682.9 440.8-42.3 14.1 1.1 3.3 42.2-14z" fill="#cdad62"/><path d="m682.2 440.6-42.2 14.1.6.2 42.3-14z" fill="#b2944d"/><path d="m640.6 454.9-.6-.2 1 3.3.7.2z" fill="#a98b43"/><path d="m684.3 445.2-42.3 14.1 1.1 3.2 42.2-13.9z" fill="#cdad62"/><path d="m683.6 445-42.2 14.1.6.2 42.3-14z" fill="#b2944d"/><path d="m642 459.3-.6-.2 1 3.2.7.2z" fill="#a98b43"/><path d="m694.5 463.8.5-.2-1.7-11-.5.4z" fill="#b2944d"/><path d="m687.3 461.2-.8-.3.6-.2 4.8.6-.6.2z" fill="#836929"/><path d="m689.9 452.6 1.4 8.9-4.8-.6.3 1.8 4.8.6 2.9.5 3.9.5-.2-1.8-4-.5-1.4-9z" fill="#967b33"/><path d="m694.8 461.8-.6.2 4 .5.5-.2z" fill="#a98b43"/><path d="m699 464.1-.6.2-.2-1.8.5-.2z" fill="#b2944d"/><path d="m686.5 450-42.2 14 12 1.7 42.3-14z" fill="#cdad62"/><path d="m690.7 458.7 1.6.3-39.7 13.1-1.7-.2z" fill="#836929"/><path d="m653.8 477.2.6-.2-1.7-10.9-.6.4z" fill="#b2944d"/><path d="m644.3 464 .2 1.4 12.1 1.7-.3-1.4z" fill="#a98b43"/><path d="m656.3 465.7 42.3-14 .2 1.4-42.2 14z" fill="#b2944d"/><path d="m646.7 474.7-.8-.4.6-.2 4.7.7-.5.2z" fill="#836929"/><path d="m692.3 459 .2 1-39.3 13.1-.2-1.1z" fill="#b2944d"/><path d="m649.2 466.1 1.5 8.9-4.8-.7.3 1.8 4.7.7 2.9.4 4 .6-.3-1.8-4-.6-1.4-8.9z" fill="#967b33"/><path d="m654.1 475.2-.6.2 4 .6.6-.2z" fill="#a98b43"/><path d="m658.4 477.6-.6.2-.3-1.8.6-.2z" fill="#b2944d"/><path d="m266.2 596.2-.6.7-8-25 .7-.6z" fill="#836929"/><path d="m261.1 570.1-2.9.8 8.1 25.6 2.9-1z" fill="#a38742"/><path d="m310.9 581.6-.6.7-8-25 .7-.7z" fill="#836929"/><path d="m305.8 555.5-3 .8 8.2 25.6 2.9-1z" fill="#a38742"/><path d="m310.2 552.6-60.7 20.3 1.5 4.7 60.8-20.2z" fill="#cdad62"/><path d="m309.3 552.3-60.7 20.3.9.3 60.8-20.2z" fill="#b2944d"/><path d="m249.5 572.9-.9-.3 1.5 4.7.9.3z" fill="#a98b43"/><path d="m312.1 558.6-60.7 20.3 1.5 4.7 60.8-20.2z" fill="#cdad62"/><path d="m311.2 558.3-60.7 20.3.9.3 60.8-20.2z" fill="#b2944d"/><path d="m251.4 578.9-.9-.3 1.5 4.7.9.3z" fill="#a98b43"/><path d="m314.1 564.9-60.7 20.3 1.5 4.7 60.8-20.1z" fill="#cdad62"/><path d="m313.2 564.6-60.7 20.3.9.3 60.8-20.2z" fill="#b2944d"/><path d="m253.4 585.2-.9-.3 1.5 4.7.9.3z" fill="#a98b43"/><path d="m316.2 571.2-60.8 20.3 1.5 4.7 60.8-20.1z" fill="#cdad62"/><path d="m315.2 571-60.7 20.2.9.3 60.8-20.1z" fill="#b2944d"/><path d="m255.4 591.5-.9-.3 1.5 4.7.9.3z" fill="#a98b43"/><path d="m330.8 597.9.8-.3-2.5-15.7-.7.6z" fill="#b2944d"/><path d="m320.5 594.3-1.1-.5.8-.3 6.9 1-.9.2z" fill="#836929"/><path d="m324.2 581.9 2 12.8-6.8-.9.4 2.5 6.9 1 4.1.6 5.7.8-.4-2.5-5.7-.9-2-12.8z" fill="#967b33"/><path d="m331.2 595.1-.8.2 5.7.9.9-.3z" fill="#a98b43"/><path d="m337.4 598.5-.9.2-.4-2.5.9-.3z" fill="#b2944d"/><path d="m319.4 578.1-60.7 20.2 17.3 2.4 60.8-20.1z" fill="#cdad62"/><path d="m325.4 590.7 2.3.3-57 18.9-2.5-.3z" fill="#836929"/><path d="m272.4 617.2.8-.2-2.5-15.8-.7.6z" fill="#b2944d"/><path d="m258.7 598.3.3 2 17.3 2.4-.3-2z" fill="#a98b43"/><path d="m276 600.7 60.8-20.1.3 2-60.8 20.1z" fill="#b2944d"/><path d="m262.1 613.6-1.1-.5.9-.3 6.8 1-.9.3z" fill="#836929"/><path d="m327.7 591 .2 1.6-56.4 18.7-.3-1.6z" fill="#b2944d"/><path d="m265.8 601.2 2 12.9-6.8-1 .4 2.6 6.9 1 4.1.5 5.7.9-.4-2.6-5.7-.8-2-12.9z" fill="#967b33"/><path d="m272.8 614.4-.8.3 5.7.8.9-.3z" fill="#a98b43"/><path d="m279 617.8-.9.3-.4-2.6.9-.3z" fill="#b2944d"/></g><g fill="#e0e0e0"><path d="m1338.2 309.2s-419.7 196.3-1174.7 769.3l511 1s354.9-486.6 742-766c0 0-69.6-4.6-78.3-4.3z"/><path d="m1492.5 318.5s-117 106-426 762h155s168-541 302-760c0 0-27-2-31-2z"/><path d="m1237.3 306.3s-558.3 202.2-1237.8 548.2v-103c14.7-6.4 610.3-268.7 1196.2-446.4z"/><path d="m826.1 888.1 350.7-35.2 15.7-32.4-327 21z"/><path d="m614.1 751.8-.2-189.7 26.3-11.6 20.9 169.1z"/><path d="m940.2 537-208.3-26.7 26.4-11.3 222.5 12.4z"/><path d="m1093.5 593.5 158.1 113.4 9.2-17.3-137.3-125.1z"/><path d="m1174.3 515.7 180 5.7 5-8.4-162.2-18.5z"/><path d="m1047.5 470.9-90.9-54.8 11.9-5.3 103 45.7z"/><path d="m674 1079-674 732-1-630 164-102z"/></g><path d="m605.8 405.6c0 1.2-1 2.3-2.3 2.3-1.2 0-2.3-1-2.3-2.3 0-1.2 1-2.3 2.3-2.3s2.3 1.1 2.3 2.3z" fill="#4f4f4f"/><path d="m603.6 405.6c-3.3 0-6 2.7-6 6h12.1c-.1-3.3-2.8-6-6.1-6z" fill="#737373"/><path d="m603.6 412.5h-5.7l2.8 11.6h2.9 2.9l2.8-11.6z" fill="#f5d85a"/><path d="m599.2 482.5h8.8v11.1h-8.8z" fill="#737373"/><path d="m601.3 436.8h4.5v45.8h-4.5z" fill="#737373"/><path d="m602.5 425.6h2.2v10.7h-2.2z" fill="#737373"/><path d="m599.2 477.9h8.8v5.3h-8.8z" fill="#4f4f4f"/><path d="m599.9 435.6h7.4v3.4h-7.4z" fill="#4f4f4f"/><path d="m608.4 493.2h-9.7c-1.4 0-2.6 1.1-2.6 2.6h14.9c0-1.4-1.2-2.6-2.6-2.6z" fill="#4f4f4f"/><path d="m603.6 412.5h-6.3l3.1 11.6h3.2 3.2l3.1-11.6z" fill="#fff"/><path d="m599.5 412.5 2.2 11.6h.5.5l-2.1-11.6z" fill="#737373"/><path d="m607.6 412.5-2.1 11.6h-.5-.5l2.1-11.6z" fill="#737373"/><path d="m599.9 423.7h7.4v2.1h-7.4z" fill="#4f4f4f"/><path d="m611.2 411.9c0 .5-.4 1-1 1h-13.4c-.5 0-1-.4-1-1 0-.5.4-1 1-1h13.4c.6.1 1 .5 1 1z" fill="#4f4f4f"/><path d="m201.1 524.6c0 1.8-1.4 3.2-3.2 3.2s-3.2-1.4-3.2-3.2 1.4-3.2 3.2-3.2 3.2 1.4 3.2 3.2z" fill="#4f4f4f"/><path d="m197.9 524.6c-4.7 0-8.5 3.8-8.5 8.5h17c0-4.7-3.8-8.5-8.5-8.5z" fill="#737373"/><path d="m197.9 534.2h-7.9l3.9 16.3h4 4.1l3.9-16.3z" fill="#f5d85a"/><path d="m191.8 632.6h12.3v15.5h-12.3z" fill="#737373"/><path d="m194.8 568.4h6.3v64.3h-6.3z" fill="#737373"/><path d="m196.4 552.6h3.2v15.1h-3.2z" fill="#737373"/><path d="m191.8 626.1h12.3v7.4h-12.3z" fill="#4f4f4f"/><path d="m192.7 566.6h10.5v4.8h-10.5z" fill="#4f4f4f"/><path d="m204.7 647.6h-13.6c-2 0-3.6 1.6-3.6 3.6h20.8c0-2-1.6-3.6-3.6-3.6z" fill="#4f4f4f"/><path d="m197.9 534.2h-8.8l4.3 16.3h4.5 4.6l4.3-16.3z" fill="#fff"/><path d="m192.3 534.2 2.9 16.3h.7.8l-3-16.3z" fill="#737373"/><path d="m203.6 534.2-2.9 16.3h-.8-.7l3-16.3z" fill="#737373"/><path d="m192.7 550h10.5v3h-10.5z" fill="#4f4f4f"/><path d="m208.7 533.5c0 .7-.6 1.3-1.3 1.3h-18.8c-.7 0-1.3-.6-1.3-1.3s.6-1.3 1.3-1.3h18.8c.7-.1 1.3.5 1.3 1.3z" fill="#4f4f4f"/><path d="m1358.9 670.4c0 1.7-1.4 3-3 3-1.7 0-3-1.4-3-3s1.4-3 3-3 3 1.4 3 3z" fill="#4f4f4f"/><path d="m1355.8 670.4c-4.5 0-8.1 3.6-8.1 8.1h16.3c0-4.4-3.7-8.1-8.2-8.1z" fill="#737373"/><path d="m1355.8 679.7h-7.7l3.8 15.7h3.9 3.9l3.8-15.7z" fill="#f5d85a"/><path d="m1349.9 774.2h11.8v14.9h-11.8z" fill="#737373"/><path d="m1352.8 712.6h6.1v61.8h-6.1z" fill="#737373"/><path d="m1354.3 697.4h3v14.5h-3z" fill="#737373"/><path d="m1349.9 767.9h11.8v7.1h-11.8z" fill="#4f4f4f"/><path d="m1350.8 710.9h10v4.6h-10z" fill="#4f4f4f"/><path d="m1362.3 788.6h-13.1c-1.9 0-3.4 1.5-3.4 3.4h19.9c.1-1.8-1.5-3.4-3.4-3.4z" fill="#4f4f4f"/><path d="m1355.8 679.7h-8.5l4.2 15.7h4.3 4.3l4.2-15.7z" fill="#fff"/><path d="m1350.3 679.7 2.9 15.7h.7.7l-2.9-15.7z" fill="#737373"/><path d="m1361.3 679.7-2.9 15.7h-.7-.7l2.9-15.7z" fill="#737373"/><path d="m1350.8 694.8h10v2.9h-10z" fill="#4f4f4f"/><path d="m1366.1 679c0 .7-.6 1.3-1.3 1.3h-18.1c-.7 0-1.3-.6-1.3-1.3s.6-1.3 1.3-1.3h18.1c.8 0 1.3.6 1.3 1.3z" fill="#4f4f4f"/><path d="m1265 940.3c0 2.4-1.9 4.3-4.3 4.3s-4.3-1.9-4.3-4.3 1.9-4.3 4.3-4.3 4.3 2 4.3 4.3z" fill="#4f4f4f"/><path d="m1260.8 940.3c-6.3 0-11.4 5.1-11.4 11.4h22.8c0-6.3-5.1-11.4-11.4-11.4z" fill="#737373"/><path d="m1260.8 953.3h-10.7l5.2 21.8h5.5 5.5l5.2-21.8z" fill="#f5d85a"/><path d="m1256.5 999.2h8.5v86.4h-8.5z" fill="#737373"/><path d="m1258.7 978h4.2v20.2h-4.2z" fill="#737373"/><path d="m1252.5 1076.5h16.6v9.9h-16.6z" fill="#4f4f4f"/><path d="m1253.8 996.8h14v6.5h-14z" fill="#4f4f4f"/><path d="m1260.8 953.3h-11.9l5.8 21.8h6.1 6.1l5.8-21.8z" fill="#fff"/><path d="m1253.2 953.3 3.9 21.8h1 1l-4-21.8z" fill="#737373"/><path d="m1268.4 953.3-4 21.8h-.9-1l4-21.8z" fill="#737373"/><path d="m1253.8 974.4h14v4h-14z" fill="#4f4f4f"/><path d="m1275.2 952.3c0 1-.8 1.8-1.8 1.8h-25.3c-1 0-1.8-.8-1.8-1.8s.8-1.8 1.8-1.8h25.3c1 0 1.8.8 1.8 1.8z" fill="#4f4f4f"/><path d="m1461.9 413.1c0 1.3-1 2.3-2.3 2.3s-2.3-1-2.3-2.3 1-2.3 2.3-2.3 2.3 1 2.3 2.3z" fill="#4f4f4f"/><path d="m1459.6 413.1c-3.4 0-6.1 2.7-6.1 6.1h12.2c0-3.4-2.7-6.1-6.1-6.1z" fill="#737373"/><path d="m1459.6 420h-5.8l2.9 11.8h2.9 2.9l2.9-11.8z" fill="#f5d85a"/><path d="m1455.2 491h8.9v11.2h-8.9z" fill="#737373"/><path d="m1457.3 444.7h4.6v46.4h-4.6z" fill="#737373"/><path d="m1458.5 433.3h2.3v10.9h-2.3z" fill="#737373"/><path d="m1455.2 486.3h8.9v5.3h-8.9z" fill="#4f4f4f"/><path d="m1455.8 443.5h7.5v3.5h-7.5z" fill="#4f4f4f"/><path d="m1464.5 501.9h-9.8c-1.4 0-2.6 1.2-2.6 2.6h15c0-1.5-1.2-2.6-2.6-2.6z" fill="#4f4f4f"/><path d="m1459.6 420h-6.4l3.1 11.8h3.3 3.3l3.1-11.8z" fill="#fff"/><path d="m1455.5 420 2.1 11.8h.6.5l-2.2-11.8z" fill="#737373"/><path d="m1463.7 420-2.1 11.8h-.5-.6l2.2-11.8z" fill="#737373"/><path d="m1455.8 431.4h7.5v2.2h-7.5z" fill="#4f4f4f"/><path d="m1467.4 419.5c0 .5-.4 1-1 1h-13.6c-.5 0-1-.4-1-1 0-.5.4-1 1-1h13.6c.5.1 1 .5 1 1z" fill="#4f4f4f"/><path d="m940.3 309c0 .9-.8 1.7-1.7 1.7s-1.7-.8-1.7-1.7.8-1.7 1.7-1.7 1.7.7 1.7 1.7z" fill="#4f4f4f"/><path d="m938.6 309c-2.5 0-4.5 2-4.5 4.5h9.1c-.1-2.5-2.1-4.5-4.6-4.5z" fill="#737373"/><path d="m938.6 314.1h-4.3l2.1 8.7h2.2 2.2l2-8.7z" fill="#f5d85a"/><path d="m935.3 366.7h6.6v8.3h-6.6z" fill="#737373"/><path d="m936.9 332.4h3.4v34.3h-3.4z" fill="#737373"/><path d="m937.7 324h1.7v8h-1.7z" fill="#737373"/><path d="m935.3 363.2h6.6v4h-6.6z" fill="#4f4f4f"/><path d="m935.8 331.4h5.6v2.6h-5.6z" fill="#4f4f4f"/><path d="m942.2 374.7h-7.3c-1.1 0-1.9.9-1.9 1.9h11.1c0-1.1-.8-1.9-1.9-1.9z" fill="#4f4f4f"/><path d="m938.6 314.1h-4.7l2.3 8.7h2.4 2.4l2.3-8.7z" fill="#fff"/><path d="m935.5 314.1 1.6 8.7h.4.4l-1.6-8.7z" fill="#737373"/><path d="m941.6 314.1-1.6 8.7h-.4-.4l1.6-8.7z" fill="#737373"/><path d="m935.8 322.5h5.6v1.6h-5.6z" fill="#4f4f4f"/><path d="m944.3 313.7c0 .4-.3.7-.7.7h-10.1c-.4 0-.7-.3-.7-.7s.3-.7.7-.7h10.1c.4 0 .7.4.7.7z" fill="#4f4f4f"/></svg>