<svg viewBox="0 0 1920 806" xmlns="http://www.w3.org/2000/svg"><linearGradient id="a" gradientUnits="userSpaceOnUse" x1="960.5" x2="960.5" y1="801.772" y2="23.772"><stop offset="0" stop-color="#9ccc65"/><stop offset="1" stop-color="#aed581"/></linearGradient><path d="M-2.5 88s958-135 1926 0v718H-2.5z" fill="url(#a)"/><g fill="#e0e0e0"><path d="M1334.7 35.4S914.1 233 159.1 806l511 1s356.9-488.3 744-767.6c.1 0-70.7-4.3-79.4-4zm155.8 8.6s-117 106-426 762h155s168-541 302-760c0 0-27-2-31-2zm-255.9-12.3S677 234-2.5 580V477C12.2 470.6 609.9 206.6 1193 30.6z"/><path d="M824.1 613.6l350.7-35.2 15.7-32.4-327 21zm-212-136.3l-.2-189.7 26.3-11.6 20.9 169.1zm326.1-214.8l-208.3-26.7 26.4-11.3 222.5 12.4zm153.3 56.5l158.1 113.4 9.2-17.3L1121.5 290zm80.8-77.8l180 5.7 5-8.4-162.2-18.5zm-126.8-44.8l-90.9-54.8 11.9-5.3 103 45.7z"/></g></svg>