<svg viewBox="0 0 52 52" xmlns="http://www.w3.org/2000/svg"><path d="M1.436 13.737l37.598-11.44 7.045 23.152L8.48 36.889z" fill="#80cbc4" stroke="#2d5f73" stroke-miterlimit="10" stroke-width="1.703"/><path d="M4.454 15.23l32.91-10.014 5.765 18.943-32.91 10.013z" fill="#fff"/><ellipse cx="24.7" cy="20.3" fill="#e0f2f1" rx="7.5" ry="7.5" stroke="#2d5f73" stroke-miterlimit="10" stroke-width="1.703" transform="rotate(-14.976 24.72 20.321)"/><path d="M19.8 20.2s.6-3.4 3.2-1.6l.5.4" fill="#e0f2f1"/><path d="M19.8 20.2c-.3-.5-.3-1-.1-1.6.1-.5.6-1.1 1.3-1.3s1.4 0 1.8.4c.2.2.4.4.5.6s.2.5.3.7c-.3 0-.5 0-.8-.1-.2 0-.4 0-.6-.1h-.7c-.1 0-.3.1-.6.4z" fill="#2d5f73"/><path d="M28.6 18.1s-1.8-3-3.6-.3l-.3.6" fill="#e0f2f1"/><path d="M28.6 18.1l-1.3-.5c-.4-.1-.6-.1-.7-.1s-.4.1-.7.2c-.2.1-.3.2-.5.3s-.4.2-.7.3v-.8c.1-.2.1-.5.3-.7.2-.5.8-.9 1.5-1s1.4.3 1.7.8c.2.4.4.9.4 1.5z" fill="#2d5f73"/><path d="M21 22.3l7.4-2s.5 3.6-2.7 4.9c-3 1.2-4.7-2.9-4.7-2.9z" fill="#e0f2f1" stroke="#2d5f73" stroke-miterlimit="10" stroke-width="1.703"/><path d="M11 23.9h39.5v25.8H11z" fill="#80cbc4" stroke="#466584" stroke-linecap="square" stroke-miterlimit="10" stroke-width="2"/><path d="M13.2 26.5h35v20.6h-35z" fill="#b2dfdb"/><ellipse cx="31.5" cy="37.4" fill="#e0f2f1" rx="7.5" ry="7.5" stroke="#2d5f73" stroke-miterlimit="10" stroke-width="1.703" transform="rotate(-88.6 31.536 37.358)"/><path d="M26.9 35.8s1.5-3.1 3.6-.6l.4.5" fill="#e0f2f1"/><path d="M26.9 35.8c-.1-.6 0-1.1.3-1.5.3-.5.9-.9 1.6-.9s1.3.4 1.6.9c.2.2.3.5.3.7 0 .3.1.5.1.8-.3-.1-.5-.2-.7-.3s-.4-.2-.6-.2c-.4-.1-.6-.2-.7-.2s-.4 0-.7.2z" fill="#2d5f73"/><path d="M35.8 36.3s-.8-3.4-3.4-1.3l-.4.5" fill="#e0f2f1"/><path d="M35.8 36.3l-1.1-.8c-.3-.2-.5-.3-.7-.3-.1 0-.4-.1-.7 0-.2 0-.4.1-.6.1-.2.1-.5.1-.8.1 0-.3.1-.5.2-.8.1-.2.3-.5.5-.6.4-.4 1-.7 1.8-.5.7.1 1.2.7 1.4 1.2.2.6.3 1.1 0 1.6z" fill="#2d5f73"/><path d="M27.5 38.2l7.7.2s-.6 3.6-3.9 3.9-3.8-4.1-3.8-4.1z" fill="#e0f2f1" stroke="#2d5f73" stroke-miterlimit="10" stroke-width="1.703"/></svg>