<svg viewBox="0 0 56 56" xmlns="http://www.w3.org/2000/svg"><path d="M3.8 10.9v35.9h48.4V10.9z" fill="#fff" stroke="#2d5f73" stroke-miterlimit="10" stroke-width="1.795"/><g opacity=".2"><path d="M4.4 46.3h48.1L28.2 25.2z" fill="#80cbc4"/><path d="M4.4 46.3c8.6-.2 16.6-.5 24.5-.6 3.9-.1 7.8.1 11.7.2 3.9.2 7.9.2 11.9.2l-.2.5C48.2 43 44 39.7 39.9 36.3c-2.1-1.7-4.1-3.4-6.2-5.2-2-1.7-4.1-3.5-6.2-5.2h1.3c-1.9 1.7-3.9 3.4-5.8 5.1-2 1.7-4 3.3-6 5l-6.2 5c-2.1 1.7-4.2 3.5-6.4 5.3zm-.1 0L9.8 41l5.7-5.5c1.9-1.9 3.9-3.7 5.9-5.6s4-3.7 6.1-5.5l.6-.6.6.5c2 1.8 4 3.6 6 5.3l6 5.4c4 3.6 7.9 7.3 11.9 10.9l.6.5h-.8c-4 0-8.1 0-12.2.2-3.9.3-8.1.4-12.2.4-8.2-.1-16.2-.5-23.7-.7z" fill="#2d5f73"/></g><g stroke-miterlimit="10"><path d="M3.2 9.2l24.5 23 24.5-23" fill="#466584" stroke="#466584" stroke-linecap="round" stroke-linejoin="round" stroke-width=".757"/><path d="M2.9 9.2h50.2" fill="#80cbc4" stroke="#2d5f73" stroke-width="1.795"/></g></svg>