<svg xmlns="http://www.w3.org/2000/svg" viewBox="0 0 66.1 56.24"><defs><style>.cls-1{fill:#466584;stroke:#466584;stroke-linecap:round;stroke-linejoin:round;}.cls-1,.cls-2{stroke-width:2px;}.cls-2{fill:#fff;stroke:#2d5f73;stroke-miterlimit:10;}</style></defs><title>hospitality-icon</title><g id="Layer_2" data-name="Layer 2"><g id="Layer_2-2" data-name="Layer 2"><g id="Layer_2-3" data-name="Layer 2"><path class="cls-1" d="M39.36,29.74c5-4.68,11.16-10.5,12-15.68.6-3.66,0-6.68-1.73-9s-4.44-3.63-8.2-4c-.36,0-.69-.05-1-.05A11.94,11.94,0,0,0,33,3.66,11.94,11.94,0,0,0,25.64,1c-.33,0-.66,0-1,.05-3.76.41-6.44,1.73-8.2,4s-2.33,5.31-1.74,9c.85,5.18,7,11,12,15.68,0,0,2.48,2.5,3.23,3.14A5.25,5.25,0,0,0,33,34.33a5.25,5.25,0,0,0,3.1-1.45C36.87,32.24,39.36,29.74,39.36,29.74Z"/><path class="cls-2" d="M24.24,37.81C24,37.6,21.82,36,15.85,35.57a2.24,2.24,0,0,1-.95-.45L14.69,35a4,4,0,0,1-.82-.7c-.46-.54-1-1-1.41-1.61-2.9-4-5.74-4.85-6.16-5s-1-.35-1.08-.74c0-.18-.54-4.87-.63-5.66-.24-2.26-.48-3.94-1.78-4.39a.68.68,0,0,0-.82.18,8.73,8.73,0,0,0-.55,3S1,26.12,1,28.22,4.7,38.74,6.66,40.7s11,7.09,11,7.09c.33.28,2.13,1.66,2.13,3.49v2a1.65,1.65,0,0,0,1.83,1.9h7c2.06,0,1.66-1.86,1.66-2.51V51.61c0-.67.14-1.34.22-2a7.7,7.7,0,0,0-.06-2.77C29.22,41.4,24.72,38.19,24.24,37.81Z"/><path class="cls-2" d="M64.62,20.05a8.93,8.93,0,0,0-.56-3,.66.66,0,0,0-.81-.18c-1.3.45-1.54,2.13-1.79,4.39-.08.79-.58,5.48-.63,5.66-.12.39-.51.47-1.07.74s-3.27,1-6.17,5c-.43.61-1,1.07-1.4,1.61a4.27,4.27,0,0,1-.82.7l-.22.14a2.19,2.19,0,0,1-.95.45c-6,.4-8.11,2-8.38,2.24-.49.38-5,3.59-6.2,9a7.48,7.48,0,0,0-.06,2.77c.08.66.19,1.33.22,2v1.12c0,.65-.4,2.51,1.65,2.51h7a1.65,1.65,0,0,0,1.82-1.9v-2c0-1.83,1.81-3.21,2.13-3.49,0,0,9.75-5.61,11-7.09s5.41-10.43,5.65-12.48A62.06,62.06,0,0,0,64.62,20.05Z"/></g></g></g></svg>