<svg xmlns="http://www.w3.org/2000/svg" viewBox="0 0 14.86 43.3"><defs><style>.cls-1{fill:#fff;}.cls-2{fill:#3b97d2;}.cls-3{fill:#4eb96f;}.cls-4{fill:#e64d3c;}.cls-5{fill:#f19b20;}</style></defs><title>instincts-logo-white</title><g id="Layer_2" data-name="Layer 2"><g id="Layer_2-2" data-name="Layer 2"><path id="_Path_" data-name="&lt;Path&gt;" class="cls-1" d="M5.58,41.8a10.87,10.87,0,0,1,.1-1.8V39c0-.5.1-1.1.1-1.6v-1c0-.5.1-1.1.1-1.6v-2a.37.37,0,0,0-.1-.3,7,7,0,0,1-1-.8,3.58,3.58,0,0,1-1.1-2.2,16,16,0,0,0-.5-2.1c-.2-.7-.3-1.3-.5-2a9.06,9.06,0,0,0-1.3-2.6L.18,21c0-.1-.1-.2-.1-.3s.2,0,.2.1c.3.2.6.5.9.7a9,9,0,0,1,1,.9,4.83,4.83,0,0,1,1.4,2,17.23,17.23,0,0,0,.7,2.1,17,17,0,0,0,.9,2.4,6,6,0,0,0,.9,1.3,1.91,1.91,0,0,0,1,.5,4.1,4.1,0,0,0,1.1-.1,1.34,1.34,0,0,0,.7-.6,7.39,7.39,0,0,0,1.4-2.8,18.24,18.24,0,0,0,.7-2.5,3.68,3.68,0,0,1,1.1-1.9c.3-.3.7-.6,1.1-1s.7-.6,1.1-.9a.52.52,0,0,1,.4-.2h.1v.1c0,.1-.1.2-.2.3-.5.7-.9,1.5-1.4,2.2a8.66,8.66,0,0,0-1,2.4,35.89,35.89,0,0,0-.8,3.5c-.1.3-.1.7-.2,1a3.29,3.29,0,0,1-.7,1.3,7.41,7.41,0,0,1-1.3,1.2c-.1.1-.1.1-.1.2v.5a4.1,4.1,0,0,0,.1,1.1c0,.5.1,1.1.1,1.6a4.87,4.87,0,0,0,.1,1.2c0,.6.1,1.1.1,1.7a4.87,4.87,0,0,0,.1,1.2c0,.6.1,1.1.1,1.7v.4a.55.55,0,0,1-.4.6,2,2,0,0,1-1.1.3c-.2,0-.5.1-.7.1h-.6a3,3,0,0,1-1-.2.76.76,0,0,1-.4-.2A2.29,2.29,0,0,0,5.58,41.8Z"/><path id="_Path_2" data-name="&lt;Path&gt;" class="cls-1" d="M7.43,24.8A2.16,2.16,0,0,1,9.63,27a2.2,2.2,0,1,1-2.2-2.2Z"/><path id="_Path_3" data-name="&lt;Path&gt;" class="cls-2" d="M9.11,21.3c.2-.2.5-.3.7-.5A39.19,39.19,0,0,0,13,18.3a4.31,4.31,0,0,0,1.3-1.7c.1-.3.1-.6.2-.8a.76.76,0,0,1,.2-.4,1.48,1.48,0,0,1,.1.7,5.25,5.25,0,0,1-1.1,4,9.62,9.62,0,0,1-2.2,1.8,9.38,9.38,0,0,1-2.8,1h-.5c-.3,0-.4-.2-.5-.5a2.2,2.2,0,0,1-.1-.8A8,8,0,0,1,8,18.9a5.74,5.74,0,0,1,1.5-2.2c.6-.6,1.3-1.2,2-1.8a5.33,5.33,0,0,0,1.6-2.3v-.1c0-.1.1-.1.1,0A2.75,2.75,0,0,1,14,14a4,4,0,0,1-1.1,3.1c-.8.9-1.7,1.8-2.5,2.6-.3.4-.8,1-1.3,1.6Z"/><path id="_Path_4" data-name="&lt;Path&gt;" class="cls-3" d="M.11,15.5a.52.52,0,0,1,.2.4,3.65,3.65,0,0,0,1.6,2.6c1.3,1,2.5,2,3.9,2.9h.1a5,5,0,0,0-.7-.8c-.6-.8-1.4-1.4-2.1-2.2l-1.6-1.6a3.61,3.61,0,0,1-.9-2.6,1.94,1.94,0,0,1,.8-1.6c.1-.1.1-.1.2.1a5.67,5.67,0,0,0,.8,1.3A7.52,7.52,0,0,0,4,15.5a13.36,13.36,0,0,1,2.1,2,5.63,5.63,0,0,1,1.2,3,4.3,4.3,0,0,1,0,1.6.37.37,0,0,1-.1.3.63.63,0,0,1-.6.5,3.55,3.55,0,0,1-1-.2,8.24,8.24,0,0,1-3.8-2A5.23,5.23,0,0,1,0,16.3,2.2,2.2,0,0,1,.11,15.5Z"/><path id="_Path_5" data-name="&lt;Path&gt;" class="cls-4" d="M6.21,12.4c.1.1.3.2.4.3a3.51,3.51,0,0,0,1.4.6,2.38,2.38,0,0,0,1.8-.5l.1-.1v-.1a1.27,1.27,0,0,1-.6.1,2.57,2.57,0,0,1-2-.8.76.76,0,0,1-.2-.5,2.67,2.67,0,0,1,.7-1.4c.2-.2.2-.2.4,0a4.35,4.35,0,0,0,.7.6,1.53,1.53,0,0,0,1.6,0,2,2,0,0,0,.9-.9c.1-.1.1-.1.2,0a3.44,3.44,0,0,1,.1,3.4A3.4,3.4,0,0,1,9,15a2.85,2.85,0,0,1-1.3,0,2,2,0,0,1-1.5-1.4,4.87,4.87,0,0,1-.1-1.2c0,.1,0,.1.1,0C6.11,12.5,6.21,12.5,6.21,12.4Z"/><path id="_Path_6" data-name="&lt;Path&gt;" class="cls-5" d="M8.51.4a3.81,3.81,0,0,1,1.4,1.1,4,4,0,0,1,1,1.5,3.5,3.5,0,0,1-.2,3,7.1,7.1,0,0,1-1,1.4c-.9,1.1-1.9,2.2-2.9,3.2a4.29,4.29,0,0,0-1.2,2.3,4.42,4.42,0,0,0,.2,2V15h0c-.3-.1-.5-.2-.8-.3a4.63,4.63,0,0,1-1.8-1.3,2.52,2.52,0,0,1-.6-1.7,2.39,2.39,0,0,1,.5-1.4,6.2,6.2,0,0,1,1.4-1.4l3.3-2.4a12.88,12.88,0,0,0,1.7-1.6,2.17,2.17,0,0,0,.2-2.2.31.31,0,0,0-.1-.2c0,.1-.1.2-.1.3a6.08,6.08,0,0,1-.9,1.8,15.38,15.38,0,0,1-1.3,1.2,23.94,23.94,0,0,1-3.4,2.1c-.2.1-.3.2-.5.2h-.2c-.1,0-.2,0-.2-.1s0-.2.1-.2a11.41,11.41,0,0,0,1.1-1.1c.8-.8,1.7-1.6,2.6-2.4a4.93,4.93,0,0,0,1.4-2.4A3.28,3.28,0,0,0,8.11.2c0-.1,0-.2.1-.2C8.41.4,8.51.4,8.51.4Z"/></g></g></svg>