<svg enable-background="new 0 0 1920 1080" viewBox="0 0 1920 1080" xmlns="http://www.w3.org/2000/svg"><path d="m923.3 170.8c-.1 1.9-.3 3.8-.7 5.6-.4 2.3-.9 4.6-1 6.9-.7 10.3-1.1 20.6-1.6 31-.3 6.2-.8 12.3-.5 18.5.2 5.4 1.1 10.8 1.9 16.1.4 2.8 1.1 2.9 3.4 1.3 3.7-2.6 6.2-6.1 8.3-10.1 5.9-10.7 9.1-22.4 11.5-34.3.6-2.9.9-5.8 1.3-8.8.4-3.1 2.2-5.2 4.5-5.3 3.6-.2 7 1.9 7.5 4.8 1.5 8.5.9 17.1.3 25.7-.6 9.8.3 19.3 3.2 29.5 1.2-1.6 2.4-2.5 2.9-3.8 2-5.3 4.1-10.6 5.7-16 1.5-4.8 2.7-9.7 3.8-14.6 1.5-6.9 4.2-13.1 8-19 2.5-3.9 6.2-4.1 10-3.6 3.7.5 6.1 3 6.8 6.7.6 3.1 1.5 6.2 1.6 9.3.2 8.4.1 16.8.1 25.2 2.4-5.1 4.9-10.3 7.2-15.6 1.8-4.2 3.2-8.5 4.8-12.7 1.7-4.4 3.9-8.4 7.3-11.7 6.5-6.2 17.1-3.1 19.4 5.6 1.7 6.5 1.6 13.2 1 19.9-.6 7.7-1.7 15.3-2.5 22.9-.2 2 0 4 0 6 2.2.8 3.1-.7 4.1-1.9 4.2-5 6-11 7.5-17.2 1.7-7 3.1-14 4.8-21 1-4.3 2.9-8.3 5.8-11.7 4.4-5.2 10.2-6.2 16.5-5.3 2.6.4 4.8 2 5.6 4.6.9 2.9 1.2 5.9 1.6 8.9.2 1.5-.6 3.1-2.2 2.8-.9-.2-2-1.7-2.3-2.8-.6-2.2-.4-4.5-.9-6.7-.7-2.9-2-3.1-4.8-2.1-6.5 2.3-7.7 8.1-8.4 13.6-1.3 9.9-.6 19.9 1.6 29.6.7 3 2.1 5.9 3.4 8.8.9 2 2.3 2.5 4.6 1.7 12.4-4.5 20.3-13.3 24.7-25.3 1.9-5.3 3.5-10.8 5.1-16.2.3-1.1.2-2.2.3-3.4.5-8.1 1-16.1 1.5-24.2.3-3.8.3-4.2-3.5-4.6-10.4-1-20.9-1.9-31.1 1.4-2.6.8-5 2.3-7.4 3.5-1.8.9-4 2.6-5.4.4-1.5-2.3 1.3-3.4 2.8-4.5 8.6-6.1 18.3-7.2 28.5-6.3 4.6.4 9.3.7 13.9 1.1 1.9.2 3-.2 3.2-2.5.5-5.4 1.3-10.7 1.8-16.1.2-1.8 1.3-1.9 2.6-1.9 2 0 3.9.1 5.9.1 2.1.1 3.4 2 3.3 4.7-.2 4.2-.5 8.3-.6 12.5-.1 3.8 0 4.1 3.6 3.9 8.5-.6 17.2-.9 25.6-2.3 5.4-.9 10.5-3.5 15.6-5.5 1.7-.7 3.2-2 4.6-3.3 5.5-5.1 4.1-13.6-1.9-17-4-2.3-8-4.2-12.5-5-3-.5-5.6-1.8-7.6-5.1 2.3.2 4 .1 5.6.5 4.1 1 8.5 1.6 12.3 3.3 8.1 3.5 11.2 10.5 11.5 18.9.2 5.9-3.5 9.8-8 12.5-6.9 4.2-14.2 7.6-22.6 7.8-7.7.2-15.3.3-23 .2-3.3 0-3.4 0-3.9 3.4-2.6 18.3-1.2 36.8-1.8 55.2-.1 4.1 0 8.2 0 12.7 2.8-1 4.2-3.1 5.1-5.4 2.2-5.4 4.4-10.7 6.2-16.2 1.9-6.2 3.3-12.7 5-19 2.2-8 6.7-14 14.5-17.3 6-2.6 11.8-.1 13.9 6.2 2.3 6.8.9 12.2-4.4 16.2-.8.6-1.8 1.3-2.6 1.3-1.1 0-2.1-.7-3.2-1.1.5-.7.8-1.7 1.5-2.2 4.1-3.2 5.6-10 3.3-14.6-.7-1.5-1.7-1.7-3-1-2.1 1-3.8 2.4-4.7 4.7-1.4 3.7-2 7.5-.9 11.5 2.5 9.2 4.9 18.5 7.4 27.7.2.6.5 1.1 1 2 4-1.2 8-2.1 11.8-3.6 3.4-1.3 6-3.6 6.7-7.6.2-.9 1.1-1.6 1.7-2.3.8.8 2.4 1.7 2.4 2.5 0 1.9-.3 4.1-1.3 5.6-2.2 3.4-5.7 5.3-9.5 6.4-3.5 1-7 2-10.1 2.9.2 4.3 1.1 8.4.5 12.2-1.9 11.3-8.8 15.7-19.1 15-4.9-.3-8.7-4.4-8.7-9.3.1-4 1-7.8 3.1-11.3 1.7-2.7 4.2-4.8 7.2-6 3.1-1.3 3.1-1.5 2-4.8-.4-1.1-1-2.8-1.5-3.8-2.3-4.5-3.8-9.2-4.6-14.2-.1-.9-.5-1.8-1.4-2.8-1.1 3.7-2 7.4-3.5 10.9-2.4 5.8-4.7 11.7-7.8 17.1-2.8 4.8-8 6-12.4 3.9-2.6-1.2-3.8-3.5-4.6-6.1-2.2-7.2-2.7-14.6-2.7-22.8-1.4 2.9-2.4 5.2-3.5 7.5-4.3 9.3-10.9 16.2-20.1 20.7-9.7 4.7-21.8.8-25.1-9.7-.9-3-1.7-6-2.7-9.3-.3.7-.8 1.3-1 2-1.3 5.6-4.3 10.2-7.7 14.6-2.8 3.6-6.2 5.7-11.2 4.2-3-.9-4.8-2.6-5.6-5.4-1.8-6.3-1.3-12.8-.8-19.2.8-9.2 1.7-18.3 2.5-27.5.1-1.3-.2-2.8-.5-4.1-.7-3.3-1.9-3.7-4.5-1.4-3.2 2.8-5.1 6.5-6.8 10.3-3.1 7.4-6.4 14.8-9.5 22.2-2.9 6.8-5.7 13.7-8.8 20.4-.7 1.4-2.8 3-4.3 3-1.3 0-3.5-1.8-3.9-3.2-1-3.3-1.4-6.9-1.6-10.4-.4-11.7-.6-23.4-1-35.1-.1-1.9-.4-3.7-1.4-5.9-.9 1-1.9 2-2.6 3.2-3.5 5.9-5.2 12.5-7 19.1-2.6 9.3-5.9 18.4-9.2 27.6-1.2 3.3-3.1 6.3-7.2 6.4-4.3 0-7.4-2.3-9.4-6-3.7-7.1-6.3-14.6-6.4-22.7 0-.9-.1-1.8-.2-2.6 0-.2-.3-.4-.6-.8-.6 1.6-1.2 3.1-1.7 4.5-2.5 7.3-5.8 14.3-10.3 20.5-1.6 2.3-3.9 4.3-6.3 5.8-5 3.2-11.2 1.3-13.5-4.3-1.7-4.1-2.9-8.7-3.4-13.1-.9-8.6-1.2-17.3-1.7-26 0-.5-.1-.9-.1-2.1-2.2 3.9-4.3 7.2-5.9 10.6-3.4 7.3-8.4 13.5-13.6 19.5-1.7 1.9-2.2 3.4-.7 5.9 3.3 5.5 4.4 11.7 4 18.2-.3 4.3-3.1 7.9-7.1 8.8-5.1 1.1-8.8.4-11.8-3.7-3.4-4.6-3.7-11.2.4-15.8 4.2-4.7 3.7-8.5.4-13.3-4.1-5.9-7.6-12.1-11.5-18.4-.3.9-.7 1.8-.8 2.7-.9 5.5-1.7 10.9-2.5 16.4-.7 4.1-2.4 7.7-5.1 10.8-2.4 2.9-5.7 3.4-9.2 2.2-3.7-1.2-6.1-3.5-7.2-7.1-1.3-4.5-2.9-8.9-3.3-13.5-.8-9.1-.5-18.1 1.5-27.1.7-3.2 1.8-6.6.4-10.2-2.6.7-3.7 2.8-5 4.5-6 7.3-9.9 15.8-13.1 24.6-2.5 6.9-4.6 13.9-6.9 20.8-.6 1.7-1.2 3.4-2.3 4.8-1.5 2-3.5 1.6-4.5-.7-.9-2.2-1.5-4.5-1.9-6.9-1.8-13.9-3.4-27.8-3.4-41.8 0-1.3-.3-2.6-.5-4.6-1.2.9-2.1 1.3-2.4 1.9-1.4 3.5-3.1 6.9-3.7 10.5-2 12-4.3 23.9-10.2 34.7-.7 1.3-1.5 2.5-2.4 3.6-3.7 4.4-6.5 5.4-11.6.1-3.1-3.2-4.3-7.3-4.8-11.7-1.1-9.5-.6-18.9.5-28.3.1-.5.1-.9.1-1.2-3.8 4.6-7.4 9.4-11.5 13.9-1.8 2-4.4 3.4-6.8 4.7-1 .5-2.4.1-4.4.1.8-1.2 1-1.9 1.5-2.2 9.7-6.4 16.1-15.4 20.7-25.8 1.8-4.2 5.9-5.6 9.6-2.9.9.6 1.4 2.1 1.5 3.2.3 2 .2 4 .2 6-.2 9.6-.6 19.2-.6 28.7 0 4.5.7 9 1.1 13.8 2.5-.7 3.1-2.6 3.9-4.1 4.3-8.4 6.6-17.4 8.4-26.6 1.1-5.5 1.2-11.2 4.2-16.3 2.8-4.7 9.4-7.6 15.4-4.6 1.5.8 2.7 3.4 2.9 5.4.8 7.8 1.2 15.6 1.8 23.3.1.7 0 1.5.7 2.5.9-2.1 1.7-4.2 2.6-6.3 3.4-8.3 7.5-16.3 13.2-23.3 4.3-5.2 9.6-5.9 14.9-1.9 1.4 1.1 2.4 2.8 3.1 4.5 2 4.9.8 10 .4 15-.3 3.5-.6 7-.7 10.6-.3 7.2-.4 14.4-.6 21.5 0 .4-.1.8 0 1.1.6 1.4 1.3 2.9 2 4.3 1.3-.9 2.8-1.6 3.7-2.8 1.2-1.6 2.3-3.4 2.7-5.3 1.1-5.2 1.9-10.4 2.5-15.6 1-8.8 2.2-17.5 5.2-25.8 1.7-4.9 4.6-9.2 10.1-11 5.9-2 12.8 1.8 13.8 7.9.6 3.7.2 7.3-1.7 10.6-.8 1.4-1.7 2.8-3.5 2-1.7-.8-.9-2.3-.5-3.6.6-2.5 1.3-5.1 1.7-7.6.1-.9-.2-2-.7-2.9-1.7-3.4-5-3.6-7-.4s-2.9 6.6-2.6 10.4c.7 9.4 3.9 17.9 8.7 25.9 1.3 2.3 2.8 4.5 4.6 7.3 17-18.9 25.7-40.9 28.5-65.7l.2-.7c.4-2.1.8-4.2 1.3-6.4.3-2.8.7-5.6 1-8.4.2-1.8-.1-4 2.5-4.5 2.1-.4 4.8 1.4 5.6 3.6.2.6.4 1.1.6 2zm221.6 80.2c-7.1.3-10.9 10.6-9.6 15.5.6 2.1 2.1 4 4.4 4.2 2.2.2 3.6-1.4 4.4-3.4 2.3-5.4 2.7-10.7.8-16.3zm-265.8-1.6c-.4-.1-.5-.1-.9-.1-1.2 1.8-2.6 3.6-3.7 5.6-2 3.5-1.7 7 .6 10.3 1.1 1.6 2.5 2.8 4.8 1.9s3-2.7 2.5-4.8c-1-4.4-2.2-8.7-3.3-12.9z" fill="#466584"/><path d="m922.1 170.8c-.3 4.8-1.4 9.6-1.8 14.4-.4 5.2-.6 10.3-.8 15.5-.5 10-1.4 20.2-1.2 30.2.1 4.3.6 8.6 1.2 12.9.3 2 .1 6.4 1.7 7.8 3 2.9 8.3-4 9.8-6 5.2-6.8 8.4-15.5 10.9-23.7 1.2-4.1 2.2-8.2 3.1-12.3.5-2.3 1-4.7 1.3-7.1.3-1.9.1-5 1.1-6.7 3.9-4.1 7-3.8 9.4.9.3 1.7.5 3.4.7 5.2.2 2.4.3 4.9.2 7.3 0 4.9-.5 9.8-.7 14.7-.4 9.5.8 18.8 3.3 28 .1.4.4.7.8.8 4.1.7 7.5-13 8.3-15.2 3.1-9 4.4-18.6 7.7-27.5 1.5-4 4.1-11.4 8.1-13.6 2.1-1.2 5.3-1.2 7.6-.4 3.7 1.2 4.3 4.2 5.1 7.5 2.5 10.3 1.2 21.8 1.2 32.4 0 .5.4 1 .8 1.1.5.1 1.1-.1 1.3-.5 2.4-5.2 5-10.3 7.2-15.6 2.2-5.1 3.6-10.6 6-15.6 2.1-4.5 5.5-9.9 10.6-11.2 5.3-1.3 10.5 1.7 12.5 6.6 4.2 10.8 1 24.8-.3 35.9-.3 2.6-4.2 18.6 3.3 14.5 2.8-1.5 5-6.2 6.2-8.8 2-4.3 3.1-9 4.2-13.6 2.5-10.5 3.1-27 13.9-32.8 5.6-3.1 14.1-2.7 16.4 4 .5 1.4 1 3.7.9 5.2.1.5.1 1.1.2 1.6-2-1.3-3-3-2.9-5.1-.4-1.4-.3-3.1-1.4-4.3-3.7-3.9-10.4 2.2-12.2 5.5-4 7.7-3.3 18.9-2.5 27.2.5 4.8 1.1 9.8 2.7 14.3.9 2.5 2 7 4.6 8.3s5.9-.7 8.2-1.9c3.7-1.8 7-4.1 10-6.8 6.1-5.7 9.7-13.2 12.4-21 1.6-4.7 3.6-9.7 4.1-14.6.7-6.1.7-12.3 1.1-18.4.3-5.1 3-12.1-3.6-13.1-10.3-1.4-22-2.1-32 1.4-1.9.7-3.7 1.6-5.5 2.5-.6.3-2.8 1.9-3.3 1.8-.2-.4-.4-.7-.6-1.1-.9-.8-.8-1.3.2-1.6 1.3-1.9 6.1-3.5 7.9-4.2 3.2-1.2 6.6-1.8 10-2.1 5.1-.4 10.2.2 15.2.5 2.9.2 8.9 2 11.5.2 2.2-1.5 1.7-5.4 2-7.6.3-2.6.4-5.4 1-8 .3-1.6-.2-3.3 1.9-4.3 2.5-1.3 7.6 1.8 8 3.7 1 4-4.2 16.3 2 17.5 4.5.9 10.4-.5 14.9-.9 5.2-.4 10.6-.8 15.7-2.1 7.2-1.9 18.2-5.2 21.1-13.1 2.4-6.4-1.2-12.1-6.7-15.1-4.1-2.3-8.1-3.3-12.6-4.6-1.5-.4-2.9-1.1-4-2.1-1-.9-1.2-.3.4-.3 3.3.1 7.1 1.2 10.3 2.1 5.1 1.4 9.6 3.8 12.3 8.6 2.6 4.6 4 11.7 1.3 16.5-2.5 4.4-7.7 6.9-12.1 9-6.4 3.1-12.7 4.3-19.8 4.4-5.7.1-11.5.2-17.2.2-1.9 0-4.7-.6-6 1.2-1.7 2.1-1.4 6.9-1.6 9.3-.6 6.5-.9 13.1-.9 19.7-.1 12.2-.3 24.5-.3 36.7 0 1.5-1.1 6.1.9 6.7 1.8.6 4.4-2.4 5.3-3.7 2.6-3.8 4-8.9 5.5-13.2 2.1-5.7 3.6-11.6 5.1-17.5 2.5-9.8 6.3-22.2 18-24.2 6.6-1.2 10.4 4.7 10.8 10.5.2 3-.4 6.7-2.8 8.9-.4.4-4.8 2.3-4.9 1.5 0-.1 1.8-1.9 2-2.1 2.4-3.2 5.2-13.9-.5-15.7-2.1-.7-4.8 1.5-6.1 2.9-2.5 2.8-3.4 7.5-3.2 11.2.2 4.6 2.1 9.3 3.3 13.8 1.5 5.7 2.5 12 4.7 17.6.7 1.7.9 2.4 2.4 2.8s7-1.9 8.5-2.4c2-.6 4.2-1.3 6-2.4 1.2-.8 2.3-1.7 3.1-2.9.6-.8 2.1-5 2.6-5.2 2.3-.6.3 5.3-.1 5.9-1 1.7-2.7 3-4.4 4-2.7 1.6-5.9 2.2-8.8 3.1-2.1.6-5.4.7-6.6 2.6-.7 1.1.5 5.8.6 7.3.2 3-.1 6-1.1 8.8-1.5 4.4-4.5 7.8-8.9 9.3-5.4 1.8-13.5 1.4-15.3-5.1-1.8-6.6 2.3-14.7 8-17.9 2-1.1 4.4-1.4 4.7-4 .3-3-2.6-7.1-3.7-9.8-1.9-4.5-1.9-10.2-4.7-14.1-.3-.5-.8-.6-1.3-.5-.4.1-.7.4-.8.8-1.5 4.8-2.9 9.5-4.8 14.1-2 4.9-4.3 13.2-8.9 16.4-3 2.1-7.6 2.2-10.3-.6-2-2-2.6-5.6-3.2-8.2-1.3-6-1.5-12.2-1.6-18.3 0-.5-.3-1-.8-1.1-.5-.1-1.1 0-1.3.5-5.5 11.8-11.5 23-24.3 28.2-5.3 2.1-11.6 1.9-16.4-1.4-5.8-3.9-6.8-11-8.6-17.3-.1-.5-.6-.8-1.1-.8-.4 0-.8.2-1 .6-2.2 4.1-3.1 8.6-5.7 12.6-3.3 5-11.5 13.1-16.8 5-3-4.6-2.2-12.1-1.8-17.3.4-6.4 1.1-12.8 1.7-19.2.3-3.1 3.9-19.4-2.4-19.9-2.3-.2-4.6 2.8-5.8 4.3-3.5 4.3-5.3 9.9-7.5 14.9-4.5 10.5-8.9 21.1-13.5 31.5-.5 1.1-1 3.4-1.9 4.2-4.4 4.2-5.6 1.2-6.6-1.6-1-3.2-1-7-1.1-10.4-.2-6.2-.4-12.4-.5-18.5-.1-2.5 1.3-21.5-2.9-21.7-2.2-.1-4.9 6.2-5.5 7.5-2.1 4.5-3.4 9.2-4.7 13.9-1.9 6.8-4.1 13.4-6.4 20.1-2.1 5.9-4.6 18.8-13.8 13.5-5.4-3.1-8-12.6-9.2-18.3-.7-3.2-.6-6.3-1-9.5-.2-1.5-.1-1.8-1.1-2.9-.6-.7-1.6-.3-1.9.5-2.7 6.9-5.1 13.9-9 20.4-3.6 6-12.6 16.7-19.5 8.1-4.5-5.6-4.6-15.3-5.1-22.1-.5-6.9-.8-13.8-1.2-20.7-.1-1.1-1.5-1.6-2.1-.6-2.9 5-5.4 10.2-8.3 15.2-3.3 5.6-7.7 10.1-11.5 15.2-2 2.8-1.5 4.5 0 7.5 2.9 5.9 6.3 16.6 1.1 22.2-5.7 6.3-15.2 1.6-16.7-5.7-1.4-6.8 4.5-9.5 5.6-15.4.8-4.2-1.9-7.7-4.1-11-3.5-5.3-6.7-10.8-10-16.2-.2-.3-.6-.6-1-.6-.5.1-.9.3-1.1.8-2.6 7.7-1.7 36.1-16.2 31.4-6.2-2-7.5-9.1-8.8-14.7-1.5-6.6-1.5-13.6-1-20.3.4-5.6 2.2-11 2.6-16.5.1-1.5.5-6-1.7-6.4-2.7-.4-5.8 4.6-6.9 6.2-3.2 4.3-5.9 8.9-8.2 13.7-4.6 9.9-7.2 20.5-11 30.7-.9 2.4-.5 3.6-3.3 2.9-2.5-.6-2.3-1.6-2.8-3.9-.6-3-.8-6-1.2-9-.8-6.6-1.5-13.3-1.9-19.9-.4-5.7-.1-11.5-.7-17.1-.2-1.7-.1-3-1.9-2.8-2.8.3-4 5.2-4.7 7.1-2 5.2-2.6 10.8-3.7 16.3-1.4 6.6-3.1 13.3-5.9 19.5-1.3 3-2.8 6.2-5 8.6-3.3 3.5-6.2 3.1-9.5-.4-4.9-5.3-5-13.5-5.1-20.3-.1-6.7.8-13.4 1.2-20.1.1-.9-1.3-1.6-1.9-.8-4.7 5.8-9.6 14.3-16.6 17.5-1.1.5-2.2.6-3.3.8-.8.1-.8.7.5-.2 1-.7 2-1.6 3-2.4 2.8-2.2 5.4-4.6 7.7-7.4 4-4.8 7-10.1 9.7-15.7.3-.6.6-1.5 1-2 .9-.4 1.7-.8 2.6-1.2 2.1-1.9 3.5-1.5 4.2 1.3 1.8 2.6 1.8 3.4 1.7 6.2-.1 4.4-.2 8.8-.3 13.2-.2 8-.6 16 .2 23.9.3 2.5-.7 9.2 3.6 6.6 4-2.4 5.7-9.8 7.2-13.9 2.5-7.1 4-14.5 5.2-21.9.8-4.9 1.7-10.2 5.6-13.6 1.8-1.6 4.2-2.6 6.6-2.7 4.8-.2 7 3.1 7.5 7.4.5 4.5.8 9.1 1.1 13.6.2 3.6-.1 7.5 1.4 10.8.1.3.6.6 1 .6.6 0 .9-.3 1.1-.8 2.9-7.2 5.8-14.4 9.9-21 2.1-3.5 4.5-7.5 7.7-10 5.1-3.9 11.8-1.5 14.1 4.5 2.7 7.1 0 16.6-.4 24-.2 4.2-.3 8.4-.4 12.6-.1 3.4-.9 7.7-.2 11.1 1 4.8 2.5 6.5 6.3 3.4 4.6-3.8 5-10.2 5.9-15.7 1.2-7.9 1.8-15.9 3.6-23.7 1.7-7.5 4.1-17.8 13-19.5 4.2-.8 8.6 1.2 10.5 5.1 1.1 2.3 1.2 5.4.7 7.9-.3 1.5-2.6 6.5-3.6 3.9-.4-.9 1.1-4.2 1.3-5.3.3-1.6.8-3 .5-4.6s-1.2-3.3-2.5-4.3c-3.3-2.5-6.4.3-8 3.3-2.8 5.3-2.2 11.2-1 16.8 1.4 6.8 4.2 13.3 7.8 19.3 1.2 2 3.4 8.2 6.2 7.7 1.6-.3 4.5-5.2 5.6-6.6 2.2-2.8 4.2-5.6 6.1-8.6 3.4-5.4 6.3-11 8.8-16.9 5.5-13.3 7.8-27.4 10.1-41.5.2-1.5.4-3 .6-4.5.1-1.1.1-2.3.4-3.4.7-2.2-1-1.5 2.6-2.3 2.5-.6 2.9-.6 3.7 1.8 0 0 .4 1.6.3.9.1.6-.1 1.4-.1 1.9-.8 3-.9 6.6-1.1 10.3-.1 1.5 2.2 1.5 2.3 0 .2-4.2 1.2-9.1.6-13.2-.8-5-9.2-9.8-10.8-2.9-1.1 4.9-1.1 10.1-2.2 15-.9 4.5-1.4 9-2.2 13.5-2.3 11.7-6.2 23-11.9 33.5-2.5 4.6-5.4 9.1-8.6 13.3-.9 1.2-2.5 3.8-3.9 4.8-2.4 1.8-.3 1.5-1.7.7-1.8-1.1-3.6-5.8-4.6-7.6-3.1-5.7-5.5-11.8-6.6-18.2-.6-3.6-1.1-7.3 0-10.8.4-.9.7-1.7 1.1-2.6 1.6-4 3.6-3.1 6 2.9.1 1.5-1 4.2-1.3 5.7-.6 2.3-.8 5.2 2.5 5.3 2.9 0 4.3-3.7 5-5.9 2.3-7.5-.8-16-9.1-17.4-8.1-1.4-13.9 5.4-16.5 12.2-4.7 12.8-4.3 26.6-7.4 39.7-.4 1.8-2.5 9.5-5.4 8.1-2.1-1-1.1-7.7-1-9.3.2-7 .3-14 .8-20.9.7-9 4.1-22.5-6.3-27.3-9.3-4.3-15.5 5.3-19.6 12.1-2.7 4.4-4.9 9-6.9 13.7-.6 1.4-1.7 3.2-1.9 4.7-.1.3-.2.5-.3.8-.6 1-.4 1.1.6.2-.2-3.9-.5-7.8-.8-11.7-.6-8.4.1-21-11.9-19.3-10.2 1.5-12 11.9-13.4 20.3-1.2 7.1-2.9 14.3-5.4 21-1 2.8-2.2 7.4-4.3 9.7-1.8 1.9-.6.4-1.1-.8-.7-1.8-.5-4.9-.7-6.8-.4-7.5 0-15 .2-22.5.1-5.2 1.7-12.5-.4-17.4-1.4-3.3-5.3-4.8-8.6-3.5-4.4 1.7-5.5 7.6-7.6 11.3-3.2 5.6-7.2 10.8-12.1 15-.9.8-7.9 4.6-6.6 7.3.2.4.6.5 1 .6 4.5.2 7.2-.9 10.8-4 4.8-4.2 8.6-10 12.7-15-.6-.3-1.3-.5-1.9-.8-.6 9.9-1.9 19.6-.6 29.5.8 6 3.1 12.4 8.8 15.5 11.7 6.3 18.3-21.7 19.8-28.3 1-4.2 1.7-8.5 2.4-12.8.4-2.1.9-4.1 1.7-6.2.5-1.3 2.6-5.6 2.5-5.7.8.5.3 4.8.3 5.7 0 2.5.1 5.1.2 7.6.3 5.4.7 10.8 1.3 16.2.5 4.7 1 9.5 1.7 14.2.4 2.9.7 7.6 3 9.8 3.8 3.6 6.7-2.2 7.8-5.1 3.4-9.2 5.8-18.7 9.7-27.8 1.8-4.2 3.9-8.4 6.4-12.2 1.3-2 2.7-3.8 4.1-5.7.4-.6 1.5-2.3 1.9-2.4 2.5-.8 1.4 3.8 1.3 4.8-1.8 9.7-3 19-2.1 28.9.6 6.3 1.8 15.7 6.8 20.1 3.7 3.3 9.8 4.5 13.8 1.2 6.2-5.2 6.7-14.2 7.9-21.5.3-2.3 1.2-5 1.1-7.3-.2-4.2.8-.2-.3-.9.5.3 1.7 2.8 1.9 3.1 2.5 4.1 5 8.2 7.6 12.2 1.5 2.2 3.5 4.7 3.4 7.6-.1 3-2.4 4.9-3.8 7.2-1.6 2.7-2.5 5.5-2.2 8.7.6 6 5 11.5 11.2 11.8 6.7.3 11.7-3.7 12.4-10.4.5-4.5-.2-9.6-1.8-13.8-.6-1.6-2-3.3-2.3-4.9-.9-4.1 2.1-6.3 4.4-9.1 6.4-7.9 10.8-17 15.9-25.8-.7-.2-1.4-.4-2.1-.6.6 9.9.7 20 2.1 29.8.9 6.1 2.5 15.1 9 17.7 6.3 2.5 12.3-2.3 16-7.1 5.8-7.6 8.8-16.7 12.2-25.5-.6.2-1.3.3-1.9.5 1.2 1.3.6 5.4.8 6.9.2 1.8.5 3.6.9 5.3 1.1 4.7 2.9 9.5 5.3 13.7 2.6 4.6 8.1 8.4 13.6 5.9 2.5-1.1 3.8-3.5 4.8-5.9 2.3-5.5 4.1-11.4 6-17.1 3.2-9.6 4.7-21.4 10.3-29.9 2.8-4.1.8-1.8 1.4-1.1.8 1.1.5 2.9.6 4.3.2 2.9.2 5.9.2 8.8.1 5.9.3 11.7.5 17.6.2 5.6-1.3 18 4.4 21.7 6.8 4.4 10.5-8.9 12.2-12.8 4.1-9.7 8.3-19.3 12.4-29 1.2-2.7 4.5-13 8-13.5 5.3-.8 2.2 13.6 1.9 16.5-.9 9.8-2.8 20.1-1.6 30 .8 6.7 4 12.7 11.8 11.9 6.5-.7 10.9-8.3 13.5-13.5.9-1.8 1.6-3.8 2.2-5.7.2-.7-.3-2.8-.1.4.1.9.6 2.3.9 3.1 1 3.3 1.9 6.4 4.1 9 4 4.8 10.3 7 16.3 6.4 6.9-.6 13.4-5 18.3-9.7 2.5-2.4 4.7-5.2 6.6-8.1 1.2-1.9 2.2-3.9 3.2-6 .4-.9.9-1.9 1.3-2.8.4-.8.7-1.5 1.1-2.3-1.2-.8-1.6-.6-1.3.6-.7 1.3.2 5.7.3 7.2.2 2.1.4 4.3.8 6.4.6 3.6 1.3 7.8 3.5 10.8 3.4 4.6 10.6 5 14.8 1.3 3-2.7 4.6-7 6.2-10.6 1.9-4.2 3.7-8.5 5.2-12.8.3-1 2.4-5.6 1.9-6.3-.2-.2 0 2.7 0 2.9.1 1.1.5 2.2.7 3.3.6 2.2 1.3 4.3 2.2 6.4s3.1 5 3.1 7.3c.1 3.3-6 5.1-8.2 7.8-2.3 2.8-3.6 6.4-4.1 10-.9 6.4 1.7 12.6 8.6 13.7 15.1 2.6 22.3-10.4 21.1-23.7-.4-3.8.1-3.8 3.7-4.8 2.2-.6 4.5-1.2 6.6-1.9 3-1.1 5.9-2.7 7.9-5.2 1.5-1.9 3-5.4 2.2-7.9-.4-1.2-2.2-3.3-3.6-3.2-2.4.3-3.6 6.2-4.7 7.4-1.8 2-4.6 2.8-7.2 3.6-1.5.5-6.4 2.8-7.8 1.8-1.1-.8-1.9-6.6-2.2-8-.7-2.8-1.5-5.5-2.2-8.3-1.5-5.7-4.4-12.2-3.5-18.2.4-2.6 3-11.7 7.2-7.1 1.4 1.5.5 5.7-.1 7.4-.8 2.5-2.8 3.9-4.2 6-.4.6-1.2 1.5-1 2.3.3 1.3 3.3 2 4.5 2 2.7-.1 5.5-3.3 6.9-5.4 3.3-5.1 2.8-12.8-1-17.5-4-5-10.2-4.7-15.4-1.9-6.3 3.3-10.5 9-12.6 15.7-3.2 10.1-5.1 20.4-9 30.3-1 2.6-1.9 5.9-3.6 8.2-.4.4-.8.7-1.2 1.1-1.3 1.2-1.6 1.4-.8.8-.2-.2 0-3.8 0-3.7 0-5.7.2-11.3.2-17 .1-11.5-.3-23 .5-34.5.2-3 .5-5.9.8-8.8.4-2.9.1-3.9 3-4.2 5.5-.7 11.6 0 17.2-.1 10.1-.2 18.6-2.1 27.4-7.3 5.5-3.2 10.1-7.5 10-14.3-.1-6.4-2.4-12.9-7.4-17-6.2-5.1-15.5-6.3-23.2-6.8-.4 0-.8.2-1 .6-.2.3-.2.8 0 1.1 4.2 6.1 11.3 5.8 17.6 8.9 4.4 2.2 8.4 5.4 7.7 10.8-.6 5-4.7 8-9.1 9.9-9.8 4.3-19.2 5.7-29.7 6.4-3.2.2-10.8 2.3-11.7-1.6-.9-4 .8-9 .7-13.1-.2-6.1-5.4-6.6-10.8-5.9-5.2.7-4 8.9-4.4 12.8-.3 2.3-.2 6.5-2.7 7.6-1.3.6-4.5-.4-6.1-.5-4.6-.3-9.1-.9-13.7-.9-7.3 0-14.7 1.5-21 5.3-2.4 1.5-8.5 4.8-4.7 8.2 1.3 1.1 2.5 1 4 .5 4.2-1.4 7.7-4.2 12.1-5.4 5-1.3 10.1-1.6 15.2-1.5 3.9.1 10.1-.5 13.7 1 3.1 1.3 1.2 7.8 1.1 10.7-.3 4.6-.6 9.3-.8 13.9-.6 9.4-3.9 20-8.4 28.4-3.7 6.8-9.1 12.4-16 16-2.2 1.2-4.3 2.6-6.8 1.7s-3.1-3.6-4-6.1c-1.7-4.9-2.4-10.4-2.8-15.6-.6-7.6-1.7-20.4 3.9-26.5.6-.7 1.5-1.5 2.4-1.9 2.9-1.2 4.6-.4 5.3 2 .5 1.7.1 3.5.7 5.2.5 1.5 1.6 3.5 3.4 3.7 5.5.5 2.8-8.9 2.2-11.4-3.2-12.3-19.9-7.7-25.7 0-5.2 6.9-6.1 15.9-7.9 24-1 4.3-1.9 8.7-3.2 12.9-.7 2.1-1.4 4.3-2.5 6.3-.8 1.5-2.4 5.4-4 6-2.4.9-1.5-2.7-1.4-4.3.2-2.2.5-4.5.8-6.7.6-4.8 1.2-9.5 1.6-14.3.7-7.5 1.5-16.4-1.4-23.6-4.4-10.9-17.3-9.7-23.6-1.5-4.9 6.4-6.6 14.5-9.6 21.7-1 2.3-2 4.6-3.1 6.8-.7 1.5-2.9 4.4-2.9 6-.1.3-.3.6-.4.9 1.2.7 1.6.5 1.3-.6.3-.5 0-2.3 0-2.9 0-2.9 0-5.8 0-8.7 0-9.9 1-32.3-15.4-27.6-5.7 1.7-8.5 9.2-10.5 14.2-3.4 8.5-4.6 17.7-7.5 26.4-.5 1.4-6.1 15.3-6.3 15.2-.4-.4-.7-3.8-.9-4.7-.7-3.2-1.1-6.5-1.4-9.8-.8-9.2.6-18.3.5-27.4-.1-5.2.6-13.3-5-16-5-2.4-9 .1-10.1 5.2-1.9 8.9-3 17.7-5.7 26.4-2.7 8.3-6.2 18.3-12.8 24.4-1.3 1.2-2.6 2.9-3.7 1.7-.8-.8-.8-4.7-.9-5.9-.8-5.3-1.2-10.6-1.1-16 .2-9.5.8-19 1.3-28.4.2-4.5.4-9 .7-13.5.3-4.9 1.4-9.6 1.8-14.4-.1-2-2.4-2-2.5-.5z" fill="#466584"/><path d="m1145.5 250c-2.8-1.9-7.6 3.4-8.8 5.3-2.2 3.4-3.8 8.6-2.1 12.5 1.6 3.8 6.4 5.5 9.3 2 4.2-4.9 3.8-13.4 2.1-19.1-.4-1.4-2.6-.8-2.2.6 1.1 3.9 1.5 7.7.5 11.6-.5 2.2-2.2 9.1-6.7 5.5-1.3-1-1.5-2.9-1.5-4.4 0-2.4.8-4.8 2-6.8.6-1.1 1.3-2.1 2.2-3 .4-.4 3.4-2.7 4-2.3 1.3.9 2.4-1.1 1.2-1.9z" fill="#466584"/><path d="m879.4 248.3c-.3 0-.6-.1-.9-.1-.5-.1-1 .1-1.3.5-2.5 3.7-5.8 7.5-5.1 12.2.4 2.9 2.4 7 5.7 7.5 2.8.4 5.5-1.8 5.8-4.5.2-1.9-.6-4-1.1-5.9-.8-3-1.6-6-2.4-8.9-.4-1.4-2.6-.8-2.2.6.5 2.1 5.2 14.9 2.2 15.9-1.4-.4-2.7-.7-4.1-1.1-.5-.6-.8-1.3-1.1-2.1-.6-1.6-.8-3.3-.4-5 .8-2.8 3-5.3 4.6-7.6-.4.2-.9.3-1.3.5.3 0 .6.1.9.1 1.5.3 2.1-1.9.7-2.1z" fill="#466584"/><path d="m1032.6 121.5 41 5.8 7.9 18.5z" fill="#ffab56"/><path d="m1032.3 122.6c11.3 1.6 22.7 3.2 34 4.8 2 .3 4.2.4 6.2.9 1.2.3.1-.2.1-.2.5.6.8 1.8 1.1 2.5 2.2 5.3 4.5 10.5 6.7 15.8.5-.5 1-1 1.6-1.6-16.3-8.1-32.6-16.2-48.8-24.3-1.3-.6-2.5 1.3-1.1 2 16.3 8.1 32.6 16.2 48.8 24.3 1.1.5 2-.5 1.6-1.6-2.3-5.4-4.6-10.7-6.8-16.1-1.6-3.7-3.2-3.1-7.2-3.7-11.8-1.7-23.6-3.3-35.5-5-1.5-.2-2.1 2-.7 2.2z" fill="#466584"/><path d="m1032.6 121.5 41 5.8 12.7-15.6z" fill="#ffab56"/><path d="m1032.3 122.6c11.9 1.7 23.9 3.4 35.8 5.1 3.4.5 5.3 1.6 7.5-1.1 3.9-4.6 7.6-9.4 11.4-14.1.7-.9 0-2.1-1.1-1.9-17.9 3.3-35.8 6.5-53.7 9.8-1.4.3-.8 2.5.6 2.2 17.9-3.3 35.8-6.5 53.7-9.8-.4-.6-.7-1.3-1.1-1.9-3.5 4.3-7.1 8.7-10.6 13-.6.8-1.2 1.7-1.9 2.4 0 0 1.5 0 .2-.2-2.1-.3-4.2-.6-6.2-.9-11.3-1.6-22.7-3.2-34-4.8-1.4-.2-2 2-.6 2.2z" fill="#466584"/><path d="m1032.7 330.5c-.1-6.9 2.2-15.3 7.2-22.9 2.2-3.3 2-3.3-.4-6.8-3-4.3-6.3-8.4-7.3-13.9-.9-4.8-.5-9.3 1.1-13.7 3.1-8.6 13-12.3 21.2-8.3 11.4 5.6 15.1 17.6 8.8 29.5-2.1 3.8-4.8 7.4-7.5 10.9-1.3 1.7-1.4 2.8.2 4.1 6.4 5.4 7.4 12.6 6.5 20.3-.9 7.3-8.9 14.3-16.9 14.9-9.9.7-13-2.2-12.9-14.1zm11.1-29.2c2.7-4.1 5.3-7.8 7.6-11.7 1.5-2.5 2.9-5 4-7.7.8-2.1 1.2-4.4 1.3-6.6.1-2.4-.8-4.4-3-6.1-6.5-5.1-16.2 1-17.7 8-1.9 9 .9 16.9 7.8 24.1zm-1.2 39.9c8.6.1 14-6.1 15.2-11.5 1.5-7.2.7-13.4-6-18.3-5.6 9.1-9.6 18.6-9.2 29.8z" fill="#466584"/><path d="m1033.8 330.5c.1-7.7 2.5-15 6.5-21.6 3-4.8 2-6-1.3-10.6-4.9-7.1-7.9-14.4-5.3-23.1 2.2-7.5 9.4-12.2 17.2-10.3 6.8 1.7 12.6 7.8 13.9 14.7 1.5 7.9-2.6 15-7.1 21.2-2.8 3.8-5.8 6.1-2 10 5.1 5.2 7.1 12.8 5.4 19.9-2.1 8.4-11.2 13.5-19.4 12.9-7.4-.6-7.9-7-7.9-13.1 0-1.5-2.3-1.5-2.3 0 0 4.6 0 10.8 4.4 13.7 4.2 2.8 11.2 1.9 15.5 0 13.1-5.6 16.8-23.6 6.9-34.1-2.6-2.8-1.7-4.2.3-6.9 1.3-1.8 2.6-3.5 3.8-5.4 2.2-3.5 4-7.4 4.7-11.5 1-6.7-1.2-13.3-6-18-10.4-10-26.7-6.6-30 8-1 4.6-.9 9.6.8 14.1 1.7 4.6 5.5 7.9 7.4 12.3 1.6 3.7-3.6 9.4-5 13.2-1.8 4.7-2.8 9.6-2.8 14.6 0 1.5 2.3 1.5 2.3 0z" fill="#466584"/><path d="m1044.8 301.8c5-7.6 12.5-16.2 12.9-25.8.3-6.7-5.7-11.1-12.1-9.7-6.6 1.5-10.6 7.2-11.2 13.7-.8 8.5 2.9 15.9 8.6 22 1 1.1 2.6-.5 1.6-1.6-7.2-7.7-14.1-26.1 0-31.3 4.3-1.6 9.2-.5 10.5 4.4 1.1 4-.7 8.2-2.5 11.6-2.8 5.4-6.4 10.4-9.8 15.5-.8 1.3 1.2 2.4 2 1.2z" fill="#466584"/><path d="m1042.6 342.3c16.6-.6 22.9-21.6 10-31.7-.6-.4-1.4-.5-1.8.2-5.6 9.4-9.5 19.3-9.3 30.4 0 1.5 2.3 1.5 2.3 0-.2-10.7 3.6-20.2 9-29.2-.6.1-1.2.2-1.8.2 11.2 8.8 6.5 27.3-8.4 27.9-1.4 0-1.4 2.2 0 2.2z" fill="#466584"/><path d="m902.5 326.7c2.7 1.9 4.9 3.6 7.2 4.9 1.2.7 2.7.6 4.4 1-.6-1.9-1.1-3.2-1.4-4.5-.5-2.3.8-3.7 2.6-4.5 2-.8 3.7.2 4.8 1.9 2.6 4.4-.1 10.1-5.2 10.9-3.3.5-6.1-.2-8.7-2.7-3-2.9-5.3-2.5-7.8.8-.8 1.1-2.5 2.8-3 2.6-1.9-.8-2.9-2.5-3-4.8-.1-4.4.8-8.6 2.8-12.4 2.3-4.5 4.8-8.8 7.6-13.1 5.5-8.5 9.9-17.5 12.2-27.5.9-3.8-.4-7-2.7-9.8-2.4-2.9-5.1-3.2-7.9-1-3.6 2.8-5.4 6.6-4.8 11.3.4 3.2 2.1 3.9 4.6 1.9 1.2-1 2.4-1.9 3.5-.5 1.2 1.5-.1 2.9-1.4 3.8-4.4 3.1-9.5.4-10.9-4.8-2.4-8.7 8.4-19.7 17.4-17.9 5.7 1.1 9.2 4.6 10.8 9.8 2.1 7 1.7 13.9-1.4 20.6-4.8 10.4-10 20.6-17.1 29.7-1 1.6-1.8 3.1-2.6 4.3z" fill="#466584"/><path d="m902 327.7c4 2.8 7 5.2 11.9 6 .8.1 1.7-.5 1.4-1.4-.1-.3-.8-1.9-.8-2.5-.1-.3-.2-.7-.3-1 1.7-.9 3.4-1.7 5.1-2.6 3.9 1.5-1.6 8.3-3.3 8.9-3.2 1.2-6.2-.2-8.8-2.1-1.3-.9-2.3-2.1-4-2.2-2.4-.2-3.8 1.4-5.4 3.1-.3.3-1.3 1.8-1.6 1.8-1.6-.2-2.3-3.8-2.5-4.8-.4-2.8 1-6.3 2-8.9 3.9-9.2 10.4-17.1 14.7-26.1 3-6.3 7.9-15.6 5.3-22.6-1.8-4.8-6.3-9-11.3-5.9-4.4 2.8-7.7 9.4-5.5 14.5.6 1.5 1.7 2.5 3.4 2.3.1 0 2.8-.9 2.5-1.2-.2.4-.4.8-.6 1.1-.5 2-2 2.2-4.4.6-1.9-1-3.1-3.5-3.4-5.5-1.4-8.8 9.2-17.5 17.5-15.3 6.4 1.8 9 7.7 9.7 13.8.9 7.2-1.6 13.3-4.6 19.6-4.9 10.3-11.5 19.1-17.3 28.7-.8 1.3 1.2 2.4 2 1.1 7.1-11.8 15.4-22.6 20.4-35.6 3.3-8.5 3.3-21.5-4.7-27.5-15.6-11.7-35.7 16.8-19.7 23.1 2.8 1.1 6.6.3 8.5-2.2 1.5-2 .9-5.4-2-5.3-1.5 0-1 .7-2.1.9-3 .4-4-1.9-3.3-4.6 1.4-6 8-10.8 12.2-3.2 3.5 6.3-2.4 17.6-5.3 23.4-5.5 10.9-16.2 21.8-16.4 34.6 0 2.4.6 7.1 3.8 7.5.7.1 1.1-.2 1.7-.4 1.1-.5 1.6-1.7 2.4-2.5 2.6-2.3 4.8-1.1 7.5.3 3.8 1.9 8.2 3.1 12.1.3 2.9-2.2 4.3-6.2 3-9.6-1.1-3-3.8-5-7-3.7-4.8 1.9-2.9 6.6-1.7 10.2l1.4-1.4c-4.6-.8-7.6-3.2-11.3-5.8-1.3-.7-2.4 1.2-1.2 2.1z" fill="#466584"/><path d="m1005.2 272.8c-1.7.6-3.2 1.4-4.7 1.5-.9 0-1.9-1.1-2.9-1.7.6-.6 1.1-1.4 1.9-1.9 1.6-1 3.3-1.8 4.8-2.9.8-.6 1.3-1.7 1.5-2.7.5-2.7 3-4.6 5.9-4.2 2 .2 4.1 2.8 4 5.2s-.6 4.8-.6 7.1c.1 15.9.3 31.7.4 47.6v16.6c2.5-.7 4.1-1.1 5.7-1.5.7-.1 1.7-.3 2 .1.4.6.8 2 .5 2.3-1.1 1.1-2.4 2.5-3.8 2.6-2.3.2-4.8-.2-7-1-3.6-1.2-6.8-1.7-9.7 1.4-.5.5-1.3 1.1-1.9 1-1-.1-2.1-.7-2.9-1.3-.2-.1.4-1.6.9-2.2 1.1-1 2.3-2.2 3.6-2.7 2.4-.9 2.9-2.2 2.7-4.8-.7-12.1-1.4-24.2-1.6-36.3-.1-6.7.7-13.3 1.1-20 .1-.6.1-1.4.1-2.2z" fill="#466584"/><path d="m1004.9 271.7c-2.6 1-4.3 1.7-6.8-.1.1.6.2 1.2.2 1.8 2-2.2 5.1-3 7-5.2.5-.5.7-1.2 1.1-1.7.2-.4.3-.8.4-1.1 5.6-2.1 8.2-1.6 7.6 1.5.3 1.9-.5 4.3-.6 6.2-.1 2 0 4 0 6 0 4 .1 7.9.1 11.9.1 15.5.3 30.9.3 46.4 0 .7.7 1.3 1.4 1.1.8-.2 5.9-2.4 5.9.1-.1 2.8-8.5.1-9.8-.2-2.4-.6-4.7-.9-7 .2-.9.4-4.1 4-3.6 0 .1-.8 3.5-1.9 4.3-2.7 1.4-1.5 1.3-3.5 1.2-5.5-.5-9.9-1.1-19.7-1.4-29.6-.2-9.4 1.1-18.6 1-28 0-1.5-2.3-1.5-2.3 0 .1 6.2-1 12.4-1.1 18.6-.2 7.2.2 14.5.5 21.8.2 3.5.3 7 .5 10.5.2 2.8 1.4 7.3-.1 9.9-1.7 2.9-6.3 3.3-6.7 7.4 0 .4.2.8.6 1 5.6 3.4 6.3-2.6 12.2-1.7 3.9.6 8.1 3.1 11.9 1 1.9-1 4.3-3.7 2.2-5.9-1.9-2-6.9.4-9 .9.5.4 1 .7 1.4 1.1 0-21.1-.6-42.2-.4-63.3.1-4.7 2.5-15.3-5.9-14.5-2.3.2-3.8 1.7-5.1 3.5-1.5 2.2-2.1 4-4.5 5.5-1.6.9-2.7 1.7-3.9 3.1-.5.6-.4 1.3.2 1.8 3.3 2.4 4.7 1.8 8.5.3 1.6-.4 1-2.6-.3-2.1z" fill="#466584"/><path d="m968 277.3h-10.7v-6.1c0-2.9 2.4-5.3 5.3-5.3 2.9 0 5.3 2.4 5.3 5.3v6.1z" fill="#f5faff" stroke="#466584" stroke-linejoin="round" stroke-miterlimit="10" stroke-width="2.2716"/><circle cx="962.7" cy="305.2" r="32" style="fill:#aed581;stroke:#466584;stroke-width:2.2716;stroke-linecap:round;stroke-linejoin:round;stroke-miterlimit:10"/><circle cx="962.7" cy="305.2" fill="#f5faff" r="24.5" stroke="#466584" stroke-linejoin="round" stroke-miterlimit="10" stroke-width="2.2716"/><path d="m959.5 301.9 6.4 6.5 8.2-14.6z" style="fill:#ef9a9a;stroke:#466584;stroke-width:2.2716;stroke-linecap:round;stroke-linejoin:round;stroke-miterlimit:10"/><path d="m965.9 308.4-6.4-6.5-8.2 14.7z" style="fill:#90caf9;stroke:#466584;stroke-width:2.2716;stroke-linecap:round;stroke-linejoin:round;stroke-miterlimit:10"/><path d="m1148 135.6.4-1.4m-62.2-5.5c-1.4-.2-2.8-.4-4.2-.7l.3-1.4c1.4.3 2.8.5 4.1.7zm4.3.4.1-1.4c1.4.1 2.8.1 4.2.1v1.4c-1.5.1-2.9 0-4.3-.1zm51.5 4.7c-.7-.2-1.5-.5-2.2-.8l.5-1.3c1.3.5 2.6.9 4 1.3l-.4 1.3c-.6-.1-1.2-.3-1.9-.5m-43-4.7-.1-1.4c1.4-.1 2.8-.2 4.2-.4l.2 1.4c-1.4.2-2.8.4-4.3.4zm36.9 2.4c-1.3-.6-2.7-1.2-3.9-1.8l.6-1.3c1.2.6 2.5 1.2 3.8 1.8zm-28.4-3.4-.3-1.4c1.4-.3 2.7-.6 4.1-.9l.4 1.4c-1.4.3-2.8.6-4.2.9zm20.8-.5c-1.2-.8-2.5-1.6-3.6-2.4l.8-1.1c1.1.8 2.3 1.6 3.5 2.3zm-12.5-1.7-.4-1.3c1.3-.4 2.6-.9 3.9-1.4l.5 1.3c-1.3.4-2.6.9-4 1.4zm5.6-3.4c-1.1-1-2.1-2-3-3.1l1.1-.9c.9 1 1.9 2 2.9 3zm2.4.2-.6-1.3c1.3-.6 2.5-1.3 3.7-2l.7 1.2c-1.3.8-2.6 1.4-3.8 2.1zm7.4-4.3-.8-1.2c1.2-.8 2.3-1.6 3.4-2.5l.9 1.1c-1.1.9-2.3 1.8-3.5 2.6zm-15.4-2.5c-.8-1.2-1.5-2.5-2.1-3.8l1.3-.6c.6 1.3 1.2 2.5 2 3.6zm22.1-2.9-1-1c1-1 1.9-2.1 2.7-3.1l1.1.9c-.8 1.1-1.7 2.2-2.8 3.2zm-25.7-4.9c-.4-1.4-.7-2.8-.9-4.2l1.4-.2c.2 1.3.5 2.7.9 4zm30.9-2-1.2-.7c.3-.5.5-1 .7-1.5.3-.7.6-1.5.9-2.3l1.4.4c-.3.8-.6 1.7-.9 2.5-.3.6-.6 1.1-.9 1.6zm-32.1-6.6c0-.7.1-1.3.1-2 .1-.8.2-1.6.4-2.3l1.4.3c-.2.7-.3 1.5-.4 2.2-.1.6-.1 1.2-.1 1.9zm33.2-1.8c.1-1.4.1-2.8-.1-4.1l1.4-.2c.2 1.4.2 2.9.1 4.4zm-30-6.1-1.3-.6c.3-.8.7-1.5 1.2-2.2.3-.5.7-1.1 1.1-1.6l1.1.9c-.4.5-.7 1-1 1.4-.5.7-.8 1.4-1.1 2.1zm29-1.9c-.5-1.3-1.2-2.4-2-3.5l1.1-.9c.9 1.1 1.7 2.4 2.2 3.8zm-24.1-4.5-.9-1.1c1.1-.9 2.4-1.6 3.8-2.3l.6 1.3c-1.2.6-2.4 1.3-3.5 2.1zm19.1-1.7c-1.1-.7-2.3-1.3-3.7-1.6l.4-1.4c1.5.4 2.8 1 4.1 1.8zm-11.7-1.7-.3-1.4c1.5-.3 2.9-.5 4.4-.5v1.4c-1.4.1-2.8.2-4.1.5z" fill="#466584"/><path d="m1148.3 135.7c.1-.5.3-.9.4-1.4.1-.4-.5-.5-.5-.2-.1.5-.3.9-.4 1.4-.1.4.4.6.5.2z" fill="#466584"/><path d="m1086.3 128.4c-1.4-.2-2.8-.4-4.2-.7.1.1.1.2.2.3.1-.5.2-.9.3-1.4-.1.1-.2.1-.3.2 1.4.3 2.7.5 4.1.7-.1-.1-.1-.2-.2-.3-.1.5-.1.9-.2 1.4 0 .4.5.4.6 0 .1-.5.1-.9.2-1.4 0-.1-.1-.3-.2-.3-1.4-.2-2.8-.4-4.1-.7-.1 0-.3 0-.3.2-.1.5-.2.9-.3 1.4 0 .1 0 .3.2.3 1.4.3 2.8.5 4.2.7.2.2.4-.3 0-.4z" fill="#466584"/><path d="m1090.8 129.1c0-.5.1-.9.1-1.4-.1.1-.2.2-.3.3 1.4.1 2.8.1 4.2.1-.1-.1-.2-.2-.3-.3v1.4c.1-.1.2-.2.3-.3-1.4 0-2.9-.1-4.3-.1-.4 0-.4.5 0 .6 1.4.1 2.9.1 4.3.1.2 0 .3-.1.3-.3 0-.5 0-.9 0-1.4 0-.2-.1-.3-.3-.3-1.4 0-2.8-.1-4.2-.1-.2 0-.3.1-.3.3 0 .5-.1.9-.1 1.4 0 .4.5.4.6 0z" fill="#466584"/><path d="m1142.1 133.6c-.7-.2-1.4-.5-2.2-.8.1.1.1.2.2.3.2-.4.3-.9.5-1.3-.1.1-.2.1-.3.2 1.3.5 2.6.9 4 1.3-.1-.1-.1-.2-.2-.3-.1.4-.3.9-.4 1.3.1-.1.2-.1.3-.2-.6-.1-1.3-.3-1.9-.5-.3-.1-.5.4-.2.5.6.2 1.3.4 1.9.6.1 0 .3-.1.3-.2.1-.4.3-.9.4-1.3 0-.2-.1-.3-.2-.3-1.3-.4-2.7-.9-4-1.3-.2-.1-.3.1-.3.2-.2.4-.3.9-.5 1.3-.1.2.1.3.2.3.7.3 1.4.5 2.2.8.4 0 .6-.5.2-.6z" fill="#466584"/><path d="m1099.3 129.1c0-.5-.1-.9-.1-1.4-.1.1-.2.2-.3.3 1.4-.1 2.8-.2 4.2-.4-.1-.1-.2-.2-.3-.3.1.5.1.9.2 1.4.1-.1.2-.2.3-.3-1.4.2-2.8.3-4.3.4-.4 0-.4.6 0 .6 1.4-.1 2.8-.2 4.3-.4.1 0 .3-.1.3-.3-.1-.5-.1-.9-.2-1.4 0-.1-.1-.3-.3-.3-1.4.2-2.8.3-4.2.4-.1 0-.3.1-.3.3 0 .5.1.9.1 1.4.1.4.7.4.6 0z" fill="#466584"/><path d="m1136 131.3c-1.3-.6-2.6-1.2-3.9-1.8 0 .1.1.3.1.4.2-.4.4-.8.6-1.3-.1 0-.3.1-.4.1 1.2.6 2.5 1.2 3.8 1.8 0-.1-.1-.3-.1-.4-.2.4-.4.9-.6 1.3-.1.3.3.6.5.3.2-.4.4-.9.6-1.3.1-.1.1-.3-.1-.4-1.3-.6-2.6-1.1-3.8-1.8-.1-.1-.3 0-.4.1-.2.4-.4.8-.6 1.3-.1.1 0 .3.1.4 1.3.6 2.6 1.2 3.9 1.8.4.1.7-.4.3-.5z" fill="#466584"/><path d="m1107.8 128c-.1-.5-.2-.9-.3-1.4-.1.1-.1.2-.2.3 1.4-.3 2.7-.6 4.1-.9-.1-.1-.2-.1-.3-.2.1.5.2.9.4 1.4.1-.1.1-.2.2-.3-1.4.4-2.8.7-4.2 1-.4.1-.2.6.2.5 1.4-.3 2.8-.6 4.2-1 .1 0 .2-.2.2-.3-.1-.5-.2-.9-.4-1.4 0-.2-.2-.2-.3-.2-1.4.4-2.7.7-4.1.9-.2 0-.2.2-.2.3.1.5.2.9.3 1.4-.1.4.5.2.4-.1z" fill="#466584"/><path d="m1128.4 127.4c-1.2-.8-2.4-1.5-3.6-2.4 0 .1.1.3.1.4.3-.4.6-.8.8-1.1-.1 0-.3.1-.4.1 1.1.8 2.3 1.6 3.5 2.3 0-.1-.1-.3-.1-.4-.2.4-.5.8-.7 1.2-.2.3.3.6.5.3.2-.4.5-.8.7-1.2.1-.1 0-.3-.1-.4-1.2-.7-2.3-1.5-3.5-2.3-.1-.1-.3 0-.4.1-.3.4-.6.8-.8 1.1-.1.1 0 .3.1.4 1.2.9 2.3 1.6 3.6 2.4.3.2.6-.3.3-.5z" fill="#466584"/><path d="m1116.1 125.8c-.1-.4-.3-.9-.4-1.3-.1.1-.1.2-.2.3 1.3-.4 2.6-.9 3.9-1.4-.1-.1-.2-.1-.3-.2.2.4.4.9.5 1.3.1-.1.1-.2.2-.3-1.3.5-2.7 1-4 1.5-.3.1-.2.7.2.5 1.4-.5 2.7-.9 4-1.5.1-.1.3-.2.2-.3-.2-.4-.4-.9-.5-1.3-.1-.1-.2-.3-.3-.2-1.3.5-2.6 1-3.9 1.4-.1 0-.2.2-.2.3.1.4.3.9.4 1.3 0 .4.5.3.4-.1z" fill="#466584"/><path d="m1121.6 122.3c-1.1-1-2.1-2-3-3.1v.4c.4-.3.7-.6 1.1-.9-.1 0-.3 0-.4 0 .9 1 1.9 2 2.9 3 0-.1 0-.3 0-.4-.3.3-.6.7-1 1-.2.3.2.7.4.4.3-.3.6-.7 1-1 .1-.1.1-.3 0-.4-1-.9-2-1.9-2.9-3-.1-.1-.3-.1-.4 0-.4.3-.7.6-1.1.9-.1.1-.1.3 0 .4.9 1.1 2 2.1 3 3.1.2.2.6-.2.4-.4z" fill="#466584"/><path d="m1124 122.5c-.2-.4-.4-.8-.6-1.3 0 .1-.1.3-.1.4 1.3-.6 2.5-1.3 3.7-2-.1 0-.3-.1-.4-.1.2.4.5.8.7 1.2 0-.1.1-.3.1-.4-1.2.7-2.5 1.4-3.8 2-.3.2 0 .7.3.5 1.3-.6 2.5-1.3 3.8-2 .1-.1.2-.3.1-.4-.2-.4-.5-.8-.7-1.2-.1-.1-.3-.2-.4-.1-1.2.7-2.5 1.3-3.7 2-.1.1-.2.3-.1.4.2.4.4.8.6 1.3.2.3.7.1.5-.3z" fill="#466584"/><path d="m1131.5 118.3c-.3-.4-.5-.8-.8-1.2 0 .1-.1.3-.1.4 1.2-.8 2.3-1.6 3.4-2.5-.1 0-.3 0-.4 0 .3.4.6.7.9 1.1 0-.1 0-.3 0-.4-1.1.9-2.2 1.7-3.4 2.5-.3.2 0 .7.3.5 1.2-.8 2.4-1.7 3.5-2.6.1-.1.1-.3 0-.4-.3-.4-.6-.7-.9-1.1-.1-.1-.3-.1-.4 0-1.1.9-2.2 1.7-3.3 2.4-.1.1-.2.3-.1.4.3.4.5.8.8 1.2.2.3.7 0 .5-.3z" fill="#466584"/><path d="m1116 115.8c-.8-1.2-1.5-2.5-2.1-3.8 0 .1-.1.3-.1.4.4-.2.9-.4 1.3-.6-.1 0-.3-.1-.4-.1.6 1.3 1.2 2.5 2 3.6 0-.1.1-.3.1-.4-.4.3-.8.5-1.2.8-.3.2 0 .7.3.5.4-.3.8-.5 1.2-.8.1-.1.2-.3.1-.4-.7-1.2-1.4-2.4-2-3.6-.1-.1-.3-.2-.4-.1-.4.2-.9.4-1.3.6-.1.1-.2.3-.1.4.6 1.3 1.3 2.6 2.1 3.8.2.3.7 0 .5-.3z" fill="#466584"/><path d="m1138.1 112.8c-.3-.3-.7-.7-1-1v.4c1-1 1.9-2.1 2.8-3.2-.1 0-.3.1-.4.1.4.3.7.6 1.1.9 0-.1-.1-.3-.1-.4-.9 1.1-1.8 2.2-2.8 3.2-.3.3.1.7.4.4 1-1 2-2.1 2.9-3.3.1-.1 0-.3-.1-.4-.4-.3-.7-.6-1.1-.9-.1-.1-.3 0-.4.1-.8 1.1-1.7 2.1-2.7 3.1-.1.1-.1.3 0 .4.3.3.7.7 1 1s.7-.1.4-.4z" fill="#466584"/><path d="m1112.4 108c-.4-1.4-.7-2.8-.9-4.2-.1.1-.1.2-.2.3.5-.1.9-.1 1.4-.2-.1-.1-.2-.1-.3-.2.2 1.4.5 2.7.9 4 .1-.1.1-.2.2-.3-.5.1-.9.3-1.4.4-.3.1-.2.7.2.5.5-.1.9-.3 1.4-.4.1 0 .2-.2.2-.3-.4-1.3-.7-2.7-.9-4 0-.2-.2-.2-.3-.2-.5.1-.9.1-1.4.2-.2 0-.2.2-.2.3.2 1.4.5 2.8.9 4.2 0 .4.5.2.4-.1z" fill="#466584"/><path d="m1143.3 105.9c-.4-.2-.8-.4-1.2-.7 0 .1.1.3.1.4.7-1.2 1.2-2.5 1.6-3.8-.1.1-.2.1-.3.2.5.1.9.3 1.4.4-.1-.1-.1-.2-.2-.3-.4 1.4-1 2.7-1.7 4-.2.3.3.6.5.3.7-1.3 1.3-2.7 1.7-4.1 0-.1-.1-.3-.2-.3-.5-.1-.9-.3-1.4-.4-.2 0-.3.1-.3.2-.4 1.3-.9 2.5-1.6 3.7-.1.1 0 .3.1.4.4.2.8.4 1.2.7.3-.1.6-.6.3-.7z" fill="#466584"/><path d="m1111.3 99.5c.1-1.4.2-2.9.5-4.3-.1.1-.2.1-.3.2.5.1.9.2 1.4.3-.1-.1-.1-.2-.2-.3-.3 1.4-.5 2.7-.5 4.1.1-.1.2-.2.3-.3-.5 0-.9 0-1.4 0-.4 0-.4.6 0 .6h1.4c.2 0 .3-.1.3-.3 0-1.3.2-2.7.5-4 0-.1 0-.3-.2-.3-.5-.1-.9-.2-1.4-.3-.1 0-.3 0-.3.2-.3 1.5-.5 2.9-.5 4.4-.2.3.4.3.4 0z" fill="#466584"/><path d="m1144.5 97.7c.1-1.4.1-2.7-.1-4.1-.1.1-.2.2-.3.3.5-.1.9-.1 1.4-.2-.1-.1-.2-.2-.3-.3.2 1.5.2 2.9.1 4.4.1-.1.2-.2.3-.3-.5 0-.9-.1-1.4-.1-.4 0-.4.5 0 .6.5 0 .9.1 1.4.1.2 0 .3-.1.3-.3.1-1.5.1-2.9-.1-4.4 0-.1-.1-.3-.3-.3-.5.1-.9.1-1.4.2-.1 0-.3.1-.3.3.2 1.4.2 2.7.1 4.1 0 .3.6.3.6 0z" fill="#466584"/><path d="m1114.3 91.3c-.4-.2-.9-.4-1.3-.6 0 .1.1.3.1.4.6-1.3 1.3-2.6 2.2-3.8-.1 0-.3 0-.4.1.4.3.7.6 1.1.9 0-.1 0-.2 0-.3-.8 1.1-1.5 2.3-2.1 3.5-.2.3.3.6.5.3.6-1.2 1.2-2.4 2.1-3.5.1-.1 0-.3 0-.3-.4-.3-.7-.6-1.1-.9-.2-.1-.3-.1-.4.1-.9 1.2-1.6 2.4-2.2 3.8-.1.1 0 .3.1.4.4.2.9.4 1.3.6.2-.1.4-.5.1-.7z" fill="#466584"/><path d="m1143.4 89.6c-.5-1.3-1.2-2.5-2.1-3.6v.4c.4-.3.7-.6 1.1-.9-.1 0-.3 0-.4 0 .9 1.1 1.6 2.4 2.1 3.7.1-.1.1-.2.2-.3-.4.2-.9.4-1.3.5-.3.1-.2.7.2.5s.9-.4 1.3-.5c.1-.1.3-.2.2-.3-.6-1.4-1.3-2.7-2.3-4-.1-.1-.3-.1-.4 0-.4.3-.7.6-1.1.9-.1.1-.1.3 0 .4.8 1 1.4 2.1 1.9 3.4.2.3.8.1.6-.2z" fill="#466584"/><path d="m1119.4 85.1c-.3-.4-.6-.7-.9-1.1 0 .1-.1.3-.1.4 1.2-.9 2.4-1.6 3.8-2.3-.1 0-.3-.1-.4-.1.2.4.4.9.6 1.3 0-.1.1-.3.1-.4-1.2.6-2.4 1.3-3.5 2.1-.3.2 0 .7.3.5 1.1-.8 2.2-1.5 3.5-2.1.1-.1.2-.3.1-.4-.2-.4-.4-.9-.6-1.3-.1-.1-.3-.2-.4-.1-1.3.6-2.6 1.4-3.8 2.3-.1.1-.2.3-.1.4.3.4.6.7.9 1.1.2.2.7 0 .5-.3z" fill="#466584"/><path d="m1138.3 83.3c-1.2-.7-2.4-1.3-3.7-1.6.1.1.1.2.2.3.1-.5.2-.9.4-1.4-.1.1-.2.1-.3.2 1.4.4 2.7 1 4 1.8 0-.1-.1-.3-.1-.4-.3.4-.5.8-.8 1.2-.2.3.3.6.5.3.3-.4.5-.8.8-1.2.1-.1 0-.3-.1-.4-1.3-.8-2.7-1.4-4.1-1.8-.1 0-.3.1-.3.2-.1.5-.2.9-.4 1.4 0 .1.1.3.2.3 1.3.4 2.5.9 3.6 1.6.2.1.4-.3.1-.5z" fill="#466584"/><path d="m1126.7 81.7c-.1-.5-.2-.9-.3-1.4-.1.1-.1.2-.2.3 1.4-.3 2.8-.5 4.3-.5-.1-.1-.2-.2-.3-.3v1.4c.1-.1.2-.2.3-.3-1.4 0-2.8.2-4.1.5-.4.1-.2.6.2.5 1.3-.3 2.6-.4 4-.4.2 0 .3-.1.3-.3 0-.5 0-.9 0-1.4 0-.2-.1-.3-.3-.3-1.5 0-3 .2-4.4.5-.2 0-.2.2-.2.3.1.5.2.9.3 1.4 0 .5.5.4.4 0z" fill="#466584"/><path d="m782.9 154.8c0 13.2-12.9 30-12.9 30s-12.9-17.6-12.9-30c0-7.1 5.8-12.9 12.9-12.9s12.9 5.8 12.9 12.9z" style="fill:#ef9a9a;stroke:#466584;stroke-width:2.2716;stroke-linecap:round;stroke-linejoin:round;stroke-miterlimit:10"/><ellipse cx="770" cy="154.9" rx="6.7" ry="6.7" style="fill:#f5faff;stroke:#466584;stroke-width:2.2716;stroke-linecap:round;stroke-linejoin:round;stroke-miterlimit:10" transform="matrix(.2298 -.9732 .9732 .2298 442.3307 868.756)"/><path clip-rule="evenodd" d="m953.1 140.4c12.9 0 23.3 10.4 23.3 23.3s-10.4 23.3-23.3 23.3-23.3-10.4-23.3-23.3 10.4-23.3 23.3-23.3z" fill="#39b54a" fill-rule="evenodd"/><path d="m953.1 141.5c12.1.3 22.1 9.8 22.1 22.1 0 12.1-10.1 22.1-22.1 22.1-12.1.1-22.2-10.1-22.2-22.1 0-12.3 10.1-21.7 22.2-22.1 1.5 0 1.5-2.3 0-2.3-22.2.6-33.3 28.9-15.4 43.4 17.2 13.9 43.3-1.5 39.4-23.3-2.1-11.7-12.4-19.7-24-20.1-1.5 0-1.5 2.3 0 2.3z" fill="#466584"/><path d="m953.1 140.4c6 0 11.5 2.3 15.7 6.1l-.9.3-.5.5.1.6.6.1.4.9 1-.4.2 1.1h-.3l-.8-.1-.9.1-.9 1.2-1.2.2-.2 1.1.5.1-.1.7-1.2-.2-1.1.2-.2.6.2 1.3.6.3h1.1l.7-.1.2-.6 1.2-1.5.8.2.7-.7.1.5 1.9 1.3-.2.3h-.8l.3.5.5.1.6-.3v-.7l.3-.1-.2-.2-1.2-.7-.3-.9h1l.3.3.9.8v.9l.9 1 .4-1.3.6-.4.1 1.1.6.7h.3c.3.6.5 1.3.7 2h-1.1l-1.2-.9-1.2.1v.7h-.4l-.4-.3-2.1-.5v-1.4l-2.7.2-.8.4h-1.1l-.5-.1-1.3.7v1.3l-2.6 1.9.2.8h.5l-.1.8-.4.1v2l2.3 2.6h1l.1-.2h1.8l.5-.5h1l.6.6 1.5.1-.2 2 1.7 2.9-.9 1.7.1.8.7.7v1.9l.9 1.2v1.2c-4.3 5.3-10.8 8.7-18.1 8.7-12.1 0-22-9.2-23.2-20.9 0-.2 0-.4 0-.6-.1-.6-.1-1.2-.1-1.8v-.1-.3-.3-.3-.2c0-.1 0-.3 0-.4v-.1c.2-2.6.8-5.1 1.8-7.4v1.3l1 .5v1.9l.9 1.6.8.1.1-.6-.9-1.4-.2-1.4h.5l.2 1.4 1.3 1.9-.3.6.8 1.3 2.1.5v-.3l.8.1-.1.6.6.1 1 .3 1.4 1.6 1.8.1.2 1.5-1.2.9-.1 1.3-.2.8 1.8 2.3.1.8s.6.2.7.2 1.5 1.1 1.5 1.1v4.1l.5.1-.3 1.9.8 1.1-.2 1.9 1.1 1.9 1.4 1.2h1.4l.1-.4-1-.9.1-.4.2-.5v-.5h-.7l-.4-.4.6-.6.1-.4-.7-.2v-.4l.9-.1 1.4-.7.5-.9 1.5-1.9-.3-1.5.4-.8h1.4l.9-.7.3-2.9 1-1.3.2-.8-.9-.3-.6-1h-2.1l-1.6-.6-.1-1.2-.6-1h-1.5l-.9-1.4-.8-.4v.4l-1.4.1-.5-.7-1.5-.3-1.2 1.4-1.9-.3-.1-2.1-1.4-.2.6-1.1-.2-.6-1.8 1.2-1.1-.1-.4-.9.3-.9.6-1.2 1.4-.7h2.8v.9l1 .5-.1-1.5.7-.7 1.5-1 .1-.7 1.5-1.5 1.6-.9-.1-.1 1.1-1 .4.1.2.2.4-.4.1-.1-.4-.1-.4-.1v-.4l.2-.2h.5l.2.1.2.4h.2.1l.7-.1.1-.4.4.1v.4l-.4.3.1.4 1.3.4h.3v-.6l-1.1-.5-.1-.3.9-.3v-.8l-.9-.6-.1-1.4-1.2.6h-.4l.1-1.1-1.7-.4-.7.5v1.6l-1.3.4-.5 1.1-.5.1v-1.4l-1.2-.2-.6-.4-.2-.9 2.1-1.2 1-.3.1.7h.6v-.4l.6-.1v-.1l-.3-.1-.1-.4.7-.1.4-.5.1-.1 1.6-.2.7.6-1.8 1 2.3.6.3-.8h1l.4-.7-.7-.2v-.9l-2.2-1-1.5.2-.9.4.1 1.1-.9-.1-.1-.6.9-.8-1.6-.1-.5.1-.2.5.6.1-.1.6-1 .1-.2.4h-1.5s0-.8-.1-.8 1.1 0 1.1 0l.9-.9-.5-.2-.6.6-1.1-.1-.6-.9h-1.4l-1.4 1.1h1.3l.1.4-.3.3h1.4l.2.5-1.6-.1-.1-.4-1-.2-.5-.3h-.9c4.1-2.3 8.6-3.8 13.5-3.8zm11.4 7.9.2-.3.8-.2.2.9.4.7.3.3.5.2-.5.6-.9.1h-.7l.1-.8.6-.1v-.4l-.5-.3-.4-.3v-.4zm-1.3 1.5.5-.8.6-.1.5.2-.1.5-1 .7h-.6v-.5zm-12.9 2.9h-.5v-.4l.2-.3.3.2zm1.8-.6h-.3l-.1.3-.3.2h-.4c0-.1 0-.2 0-.2h-.2v-.4h.7l.1-.4h.3l.3.1z" style="fill-rule:evenodd;clip-rule:evenodd;fill:#65c8d0;stroke:#466584;stroke-width:.7572;stroke-miterlimit:10"/><g fill="#466584"><path d="m871.7 177c-1.6 1.2-2.3 3.5-1.3 5.3.4.8 1.1 1.4 2.2 1.4 3.2 0 13.5-7.4 21.7-6.8 0 0 8-1 17.5 0s31 3.6 41.2 3.2 13.7 2.4 31.2-7.7c21.6-12.5 3.7-30-2-33.8-.5-.3-1-.5-1.4-.8-2.8-1.8-18-7.7-21.3-4.9-.5.4-1.5 2.5-1.2 3 1.8 2.7 6.2 5.8 21.2 12.9 7.6 3.6 9.5 24.1-45.8 22 0 0-34.5-2.5-41.5-1.5-6.5.9-13 1.9-20.5 7.7z" stroke="#466584" stroke-linecap="round" stroke-linejoin="round" stroke-miterlimit="10" stroke-width=".7572"/><path d="m799.2 372.1.1 1.1c0 2.4-.6 5.2-1.9 8.4-1.4 3.7-3.2 6.3-5.1 7.9-1.1.9-2.3 1.3-3.4 1.4-.6 0-1.2-.1-1.7-.4s-.8-.7-.8-1.3c.7-.8 1.1-2.7 1.1-5.9 0-1.9-.2-4.7-.5-8.3-.3-3.7-.5-6.5-.5-8.3l.1-5.5c0-.9-.2-2.1-.6-3.6s-.6-2.6-.6-3.2c0-1.2 1.3-1.7 3.9-1.7h.8c3.4 0 5.9 1.9 7.5 5.8 1.1 2.7 1.6 6.4 1.6 11.1v2.3c.1-.1 0 .1 0 .2zm-9.3 11v4.8c1.3-.8 2.4-2 3.3-3.4.9-1.5 1.6-3.1 2.1-4.8.9-3.3 1.4-6.7 1.4-10 0-3.8-.5-6.8-1.4-9-1-2.3-2.2-3.8-3.6-4.5-.9-.5-1.9-.7-3-.7 0 3 .2 7.6.6 13.7.4 6.2.6 10.8.6 13.9z"/><path d="m807.9 373.9.2 10.7v1.5 1.4h.7 1.5c1.4 0 2.1.4 2.1 1.3 0 .4-.2.8-.5 1.1s-.7.5-1.2.5h-2.2c-1.5 0-2.5 0-2.9-.1-.3 0-.5 0-.6 0-1.2 0-1.8-.4-1.8-1.1 0-.3.1-.6.3-.9s.4-.4.6-.4h1.4l.1-.7-.3-10.7.3-11.2c0-1.9-.1-3.7-.2-5.4h-1-1.2c-.5 0-.9-.1-1.2-.3s-.4-.5-.4-1.1c0-.8.8-1.2 2.5-1.2h6c1.4 0 2 .4 2 1.1 0 .3-.1.6-.4.9s-.6.4-1 .4h-2.6c.1 1.4.2 2.9.2 4.7z"/><path d="m814.9 388.6 2.1.4c.6 0 1.2-.3 1.7-.8.5-.6.8-1.3 1.1-2.1.4-1.6.7-3 .7-4.3 0-1.2-.2-2.5-.6-3.7s-.9-2.3-1.5-3.4c-.6-1-1.2-2.1-1.8-3.2-1.4-2.6-2.1-5.1-2.1-7.5 0-1.5.3-2.8.8-4 1-2.2 2.2-3.3 3.8-3.3.6 0 1.2.2 1.7.6s.8.8.8 1.2c0 .8-.4 1.2-1.2 1.2-.4 0-.7-.1-1.1-.3-1.1 0-1.8 1.2-2.2 3.6-.1.5-.1 1.1-.1 1.8s.1 1.5.4 2.5.7 1.9 1.1 2.7c.5.8.9 1.6 1.5 2.6.5.9 1 1.9 1.5 2.7 1.1 2.1 1.6 4.4 1.6 7 0 2-.5 4-1.4 5.8-.5.9-1.1 1.7-2 2.3-.8.6-1.8.9-2.9.9v.1c-1.4-.2-2.1-.8-2.3-1.9z"/><path d="m825.2 378.5v-3-1.2c0-5 .2-8.4.7-10.3.6-2.4 1.4-4.1 2.5-5 1.4-1.3 3.2-1.9 5.4-1.9.5 0 .9.1 1.2.4.3.2.4.5.4.9s-.1.7-.3.9c-.2.3-.5.4-.8.4h-2.4c-.7 0-1.3.4-1.8 1.3s-.9 2-1.1 3.3c-.4 2.4-.6 4.4-.6 6v.2l-.2 9.7c0 2.1.1 3.5.3 4.3s.5 1.4.7 1.9.5.9.8 1.2c.8.7 1.7 1.1 2.9 1.1.4 0 .8-.1 1.1-.4.4 0 .7.1 1.1.3.3.2.5.5.5.8 0 1.3-.9 2-2.8 2-.8 0-1.5-.1-2.4-.3-.8-.2-1.4-.5-1.9-.7-2.2-1.5-3.3-5.4-3.3-11.9z"/><path d="m837.8 375.3v-1.9c0-.2 0-.2-.1-.2v-.9c0-5.3.3-9 .9-11.3.5-1.9 1-3.1 1.5-3.5s.9-.7 1.4-.7c3.9 0 6.6 2 8.1 5.9.9 2.3 1.3 5.1 1.3 8.4v.4l.1 5.7c0 9.7-2.2 14.5-6.7 14.5-1.9 0-3.3-1-4.3-3.1-.9-2-1.5-3.9-1.7-5.8-.4-2.9-.5-5.4-.5-7.5zm2.9-6.9-.2 4.7c0 4.9.4 9.1 1.2 12.8.8 2.1 1.6 3.4 2.4 3.7.6 0 1.2-.2 1.6-.7.5-.5.9-1.2 1.2-2s.5-1.7.7-2.6.3-1.9.4-2.9c.2-1.8.2-3.3.2-4.6s-.1-3.2-.3-5.8-.3-4.6-.3-5.8v-.9c0-1.2-.4-2.3-1.2-3.3s-1.8-1.4-3-1.4c-1.1 0-1.9.6-2.3 1.9-.3 1.1-.5 2.4-.5 4z"/><path d="m860.2 384.6c.7-3.7 1.6-9.1 2.7-16.1s1.7-11.1 1.9-12.2h1.1c.3 0 .6.1.8.3s.4.5.4.8c0 1.9-.4 4.3-1.2 7.1-.8 2.9-1.3 4.7-1.4 5.5s-.3 2.2-.4 4c-.1 1.9-.3 3.7-.5 5.5s-.5 3.6-.8 5.5-.8 3.4-1.4 4.5-1.3 1.7-2.1 1.7l-.9-.8c0-4.1-.4-8.3-1.2-12.5-.8-4.3-1.5-7.8-2.3-10.7s-1.3-4.7-1.5-5.5c-.6-1.8-.9-3-.9-3.4s.1-.8.4-1 .5-.3.8-.3c.9 0 1.8 1.6 2.7 4.8s1.5 6.3 1.9 9.1.7 5 1 6.5.4 3 .6 4.5.3 2.4.3 2.7z"/><path d="m870.3 365.2-.3-4.2c0-2.4.7-3.6 2.1-3.6.9 0 2.1.2 3.7.6s2.3 1 2.3 1.6c0 .7-.5 1.2-1.5 1.6-1.6-.5-2.8-.8-3.8-1 0 .7.1 1.4.1 2.2l-.2 7.2s0 .3.1.8l1.8-.1c1.6 0 2.4.5 2.4 1.4 0 .4-.1.7-.4.9s-.7.4-1.1.4-.9 0-1.5-.1h-1.3c.1 1.3.1 2.6.1 3.8l-.2 9.1c0 1.9 0 2.8.1 2.8l3.7-.1c1.3 0 1.9.4 1.9 1.2 0 .5-.2.9-.7 1.1-.4.2-.9.3-1.5.3h-4.3c-.4 0-.8-.2-1.2-.5s-.6-.7-.6-1.1v-1.3-8.2z"/><path d="m883.5 373.8v5.5c0 4.4.3 8 1 10.5l-.6 1.4h-1.4l-.7-.7c0-1.5 0-3.2 0-5.1s-.1-5.9-.4-12.1-.4-10.8-.4-13.8c0-1.6.6-2.4 1.7-2.4 1.8 0 3.2.5 4.4 1.4s1.8 2.2 1.8 3.9v3.5c0 1-.2 1.9-.5 2.6-.4.8-.8 1.6-1.3 2.5s-.7 1.4-.8 1.5c.2.8.5 2.4 1 4.8 1 5.2 2.1 9 3.3 11.3.3.7.5 1.2.5 1.5 0 .4-.1.7-.3.9-.2.3-.5.4-.8.4-.7 0-1.4-.8-2-2.4s-1.2-3.4-1.6-5.4c-1.2-6-1.9-9.3-2.2-9.9h-.7zm.2-14.8-.2.7c0 1.4 0 3.4.1 6s.1 4.5.1 5.7c.8-.4 1.4-1.5 1.9-3.2s.7-3.1.7-4 0-1.6-.1-2-.2-.9-.3-1.4c-.3-1.2-1-1.8-2.2-1.8z"/><path d="m897.2 391.5c-.5 0-.9-.2-1.3-.6-.3-.4-.5-.8-.5-1.3s.2-.9.6-1.3.8-.6 1.3-.6.9.2 1.3.6.5.8.5 1.4-.2.9-.6 1.3c-.3.3-.8.5-1.3.5z"/><path d="m904.9 365.2-.3-4.3c0-2.4.7-3.6 2.1-3.6.9 0 2.1.2 3.7.6s2.3 1 2.3 1.6c0 .7-.5 1.2-1.5 1.6-1.6-.5-2.8-.8-3.8-1 0 .7.1 1.4.1 2.2l-.2 7.2s0 .3.1.8l1.8-.1c1.6 0 2.4.5 2.4 1.4 0 .4-.1.7-.4.9s-.7.4-1.1.4-.9 0-1.5-.1h-1.3c.1 1.3.1 2.6.1 3.8l-.2 9.1c0 1.9 0 2.8.1 2.8l3.7-.1c1.3 0 1.9.4 1.9 1.2 0 .5-.2.9-.7 1.1-.4.2-.9.3-1.5.3h-4.3c-.4 0-.8-.2-1.2-.5s-.6-.7-.6-1.1v-1.3l-.3-8.5z"/><path d="m920.6 362.2v-1.6c0-.9.1-1.6.4-2.1s.9-.9 1.8-1.1l.9 1.2c-.5.8-.8 1.5-.8 2.2v2.1.6c-.4 1.1-.8 2.9-1.3 5.6-.4 2.7-.7 4.6-.7 5.8s.3 2.8.9 4.8 1.2 3.9 1.8 5.8c.6 1.8.9 3.1.9 3.6 0 .6-.1 1-.4 1.2s-.6.4-.9.4-.6-.2-.9-.5-.5-.7-.7-1.3c-.2-.5-.4-1.1-.6-1.8-.2-.6-.4-1.3-.5-2.1-.1-.7-.3-1.4-.4-2s-.2-1.2-.3-1.8-.2-1-.2-1.2c-.1.5-.2 1.7-.5 3.8-.2 2-.5 3.6-.8 4.6v.6c0 1.2-.4 1.9-1.3 1.9-.4 0-.7-.1-1-.3s-.5-.5-.5-.8c0-1.5.2-3.1.7-4.9s1-3.6 1.4-5.4c.5-1.8.7-3.3.7-4.5s-.4-3.7-1.3-7.6c-.8-3.8-1.5-6-1.9-6.6v-.5c-.3-.3-.5-.7-.5-1.1 0-.8.5-1.2 1.5-1.2.7 0 1.3 1.1 1.9 3.3.5 1.9.9 3.6 1.1 5 .2 1.5.4 2.3.4 2.5 0-.2.1-.6.2-1.2s.2-1.1.2-1.4.1-.7.2-1.2c.4-1.2.5-2.1.5-2.8z"/><path d="m927.6 368.9.1-4.8c0-2.1-.1-3.6-.4-4.7.2-1.2.7-1.8 1.4-1.8h2.2c1.9 0 3.3.8 4.1 2.4.7 1.4 1 3.1 1 4.9 0 2.3-.1 3.8-.2 4.3s-.2 1-.4 1.5-.3.9-.5 1.2-.4.6-.7 1-.6.7-1 .9c-.8.5-1.8 1-3 1.4v5.4l.4 9.6c0 .4-.2.8-.5 1s-.7.4-1.2.4l-1.1-.6c-.4-1.9-.6-4.3-.6-7.4l.2-9c-.2-.4-.3-.9-.3-1.2v-.2c.4-.6.5-2.1.5-4.3zm2.5-5.7.1 9.8v.1c2-.3 3-3.1 3-8.5 0-1.6-.2-2.7-.6-3.3s-1.1-.9-2-.9c0 0-.2-.1-.5-.1z"/><path d="m942.1 362.4.1 12.1c-.2.5-.3 1-.3 1.7v1l-.2 8c0 2.3.6 3.5 1.7 3.5l2.1-.1c1.8 0 2.7.5 2.7 1.5 0 .4-.2.7-.5.9s-.7.4-1.1.4c-1.2-.4-2.7-.6-4.5-.6-.5.3-1.1.5-1.6.5s-.9-.2-1.2-.5-.4-.7-.4-1.1c0-2.5.1-6.2.3-11.3s.3-8.8.3-11.3v-.4c-.2-2.1-.3-3.7-.3-4.7 0-3.2.6-4.8 1.7-4.8.3 0 .6.1.9.4.3.2.4.5.4.9z"/><path d="m950.2 375.3v-1.9c0-.2 0-.2-.1-.2v-.9c0-5.3.3-9 .9-11.3.5-1.9 1-3.1 1.5-3.5s.9-.7 1.4-.7c3.9 0 6.6 2 8.1 5.9.9 2.3 1.3 5.1 1.3 8.4v.4l.1 5.7c0 9.7-2.2 14.5-6.7 14.5-1.9 0-3.3-1-4.3-3.1-.9-2-1.5-3.9-1.7-5.8-.3-2.9-.5-5.4-.5-7.5zm3-6.9-.2 4.7c0 4.9.4 9.1 1.2 12.8.8 2.1 1.6 3.4 2.4 3.7.6 0 1.2-.2 1.6-.7.5-.5.9-1.2 1.2-2s.5-1.7.7-2.6.3-1.9.4-2.9c.2-1.8.2-3.3.2-4.6s-.1-3.2-.3-5.8-.3-4.6-.3-5.8v-.9c0-1.2-.4-2.3-1.2-3.3s-1.8-1.4-3-1.4c-1.1 0-1.9.6-2.3 1.9-.3 1.1-.5 2.4-.5 4z"/><path d="m969.1 373.8v5.5c0 4.4.3 8 1 10.5l-.6 1.4h-1.5l-.7-.7c0-1.5 0-3.2 0-5.1s-.1-5.9-.4-12.1-.4-10.8-.4-13.8c0-1.6.6-2.4 1.7-2.4 1.8 0 3.2.5 4.4 1.4s1.8 2.2 1.8 3.9v3.5c0 1-.2 1.9-.5 2.6-.4.8-.8 1.6-1.3 2.5s-.7 1.4-.8 1.5c.2.8.5 2.4 1 4.8 1 5.2 2.1 9 3.3 11.3.3.7.5 1.2.5 1.5 0 .4-.1.7-.3.9s-.5.4-.8.4c-.7 0-1.4-.8-2-2.4s-1.2-3.4-1.6-5.4c-1.2-6-1.9-9.3-2.2-9.9h-.6zm.2-14.8-.2.7c0 1.4 0 3.4.1 6s.1 4.5.1 5.7c.8-.4 1.4-1.5 1.9-3.2s.7-3.1.7-4 0-1.6-.1-2c0-.4-.2-.9-.3-1.4-.3-1.2-1.1-1.8-2.2-1.8z"/><path d="m979.5 365.2-.3-4.3c0-2.4.7-3.6 2.1-3.6.9 0 2.1.2 3.7.6s2.3 1 2.3 1.6c0 .7-.5 1.2-1.5 1.6-1.6-.5-2.8-.8-3.8-1 0 .7.1 1.4.1 2.2l-.2 7.2s0 .3.1.8l1.8-.1c1.6 0 2.4.5 2.4 1.4 0 .4-.1.7-.4.9-.3.3-.7.4-1.1.4s-.9 0-1.5-.1h-1.2c.1 1.3.1 2.6.1 3.8l-.2 9.1c0 1.9 0 2.8.1 2.8l3.7-.1c1.3 0 1.9.4 1.9 1.2 0 .5-.2.9-.7 1.1-.4.2-.9.3-1.5.3h-4.3c-.4 0-.8-.2-1.2-.5s-.5-.7-.6-1.1v-1.3l-.3-8.5z"/><path d="m994 391.5c-.5 0-.9-.2-1.3-.6-.3-.4-.5-.8-.5-1.3s.2-.9.6-1.3.8-.6 1.3-.6.9.2 1.3.6.5.8.5 1.4-.2.9-.6 1.3c-.3.3-.8.5-1.3.5z"/><path d="m1001.7 365.2-.3-4.3c0-2.4.7-3.6 2.1-3.6.9 0 2.1.2 3.7.6s2.3 1 2.3 1.6c0 .7-.5 1.2-1.5 1.6-1.6-.5-2.8-.8-3.8-1 0 .7.1 1.4.1 2.2l-.2 7.2s0 .3.1.8l1.8-.1c1.6 0 2.4.5 2.4 1.4 0 .4-.1.7-.4.9-.3.3-.7.4-1.1.4s-.9 0-1.5-.1h-1.3c.1 1.3.1 2.6.1 3.8l-.2 9.1c0 1.9 0 2.8.1 2.8l3.7-.1c1.3 0 1.9.4 1.9 1.2 0 .5-.2.9-.7 1.1-.4.2-.9.3-1.5.3h-4.3c-.4 0-.8-.2-1.2-.5s-.5-.7-.6-1.1v-1.3l-.3-8.5z"/><path d="m1017.3 362.2v-1.6c0-.9.1-1.6.4-2.1s.9-.9 1.8-1.1l.9 1.2c-.5.8-.8 1.5-.8 2.2v2.1.6c-.4 1.1-.8 2.9-1.3 5.6-.4 2.7-.7 4.6-.7 5.8s.3 2.8.9 4.8 1.2 3.9 1.8 5.8.9 3.1.9 3.6c0 .6-.1 1-.4 1.2s-.6.4-.9.4-.6-.2-.9-.5-.5-.7-.7-1.3c-.2-.5-.4-1.1-.6-1.8s-.4-1.3-.5-2.1c-.1-.7-.3-1.4-.4-2s-.2-1.2-.3-1.8-.2-1-.2-1.2c-.1.5-.2 1.7-.5 3.8s-.5 3.6-.8 4.6v.6c0 1.2-.4 1.9-1.3 1.9-.4 0-.7-.1-1-.3s-.5-.5-.5-.8c0-1.5.2-3.1.7-4.9s1-3.6 1.4-5.4c.5-1.8.7-3.3.7-4.5s-.4-3.7-1.3-7.6c-.8-3.8-1.5-6-1.9-6.6v-.5c-.3-.3-.5-.7-.5-1.1 0-.8.5-1.2 1.5-1.2.7 0 1.3 1.1 1.9 3.3.5 1.9.9 3.6 1.1 5 .2 1.5.4 2.3.4 2.5 0-.2.1-.6.2-1.2s.2-1.1.2-1.4.1-.7.2-1.2c.5-1.2.5-2.1.5-2.8z"/><path d="m1024.4 368.9.1-4.8c0-2.1-.1-3.6-.4-4.7.2-1.2.7-1.8 1.4-1.8h2.2c1.9 0 3.3.8 4.1 2.4.7 1.4 1 3.1 1 4.9 0 2.3-.1 3.8-.2 4.3s-.2 1-.4 1.5c-.1.5-.3.9-.5 1.2s-.4.6-.7 1-.6.7-1 .9c-.8.5-1.8 1-3 1.4v5.4l.4 9.6c0 .4-.2.8-.5 1s-.7.4-1.2.4l-1.1-.6c-.4-1.9-.6-4.3-.6-7.4l.2-9c-.2-.4-.3-.9-.3-1.2v-.2c.3-.6.5-2.1.5-4.3zm2.5-5.7.1 9.8v.1c2-.3 3-3.1 3-8.5 0-1.6-.2-2.7-.6-3.3s-1.1-.9-2-.9c0 0-.2-.1-.5-.1z"/><path d="m1036.4 365.2-.3-4.3c0-2.4.7-3.6 2.1-3.6.9 0 2.1.2 3.7.6s2.3 1 2.3 1.6c0 .7-.5 1.2-1.5 1.6-1.6-.5-2.8-.8-3.8-1 0 .7.1 1.4.1 2.2l-.2 7.2s0 .3.1.8l1.8-.1c1.6 0 2.4.5 2.4 1.4 0 .4-.1.7-.4.9-.3.3-.7.4-1.1.4s-.9 0-1.5-.1h-1.3c.1 1.3.1 2.6.1 3.8l-.2 9.1c0 1.9 0 2.8.1 2.8l3.7-.1c1.3 0 1.9.4 1.9 1.2 0 .5-.2.9-.7 1.1-.4.2-.9.3-1.5.3h-4.3c-.4 0-.8-.2-1.2-.5s-.5-.7-.6-1.1v-1.3l-.3-8.5z"/><path d="m1049.5 373.8v5.5c0 4.4.3 8 1 10.5l-.6 1.4h-1.4l-.7-.7c0-1.5 0-3.2 0-5.1s-.1-5.9-.4-12.1-.4-10.8-.4-13.8c0-1.6.6-2.4 1.7-2.4 1.8 0 3.2.5 4.4 1.4s1.8 2.2 1.8 3.9v3.5c0 1-.2 1.9-.5 2.6-.4.8-.8 1.6-1.3 2.5s-.7 1.4-.8 1.5c.2.8.5 2.4 1 4.8 1 5.2 2.1 9 3.3 11.3.3.7.5 1.2.5 1.5 0 .4-.1.7-.3.9s-.5.4-.8.4c-.7 0-1.4-.8-2-2.4s-1.2-3.4-1.6-5.4c-1.2-6-1.9-9.3-2.2-9.9h-.7zm.2-14.8-.2.7c0 1.4 0 3.4.1 6s.1 4.5.1 5.7c.8-.4 1.4-1.5 1.9-3.2s.7-3.1.7-4 0-1.6-.1-2c0-.4-.2-.9-.3-1.4-.2-1.2-1-1.8-2.2-1.8z"/><path d="m1064.9 373.9.2 10.7v1.5 1.4h.7 1.5c1.4 0 2.1.4 2.1 1.3 0 .4-.2.8-.5 1.1s-.7.5-1.2.5h-2.2c-1.5 0-2.5 0-2.9-.1-.3 0-.5 0-.6 0-1.2 0-1.8-.4-1.8-1.1 0-.3.1-.6.3-.9s.4-.4.6-.4h1.4l.1-.7-.3-10.7.3-11.2c0-1.9-.1-3.7-.2-5.4h-1-1.2c-.5 0-.9-.1-1.2-.3s-.4-.5-.4-1.1c0-.8.8-1.2 2.5-1.2h6c1.4 0 2 .4 2 1.1 0 .3-.1.6-.4.9s-.6.4-1 .4h-2.6c.1 1.4.2 2.9.2 4.7z"/><path d="m1072.3 365.2-.3-4.3c0-2.4.7-3.6 2.1-3.6.9 0 2.1.2 3.7.6s2.3 1 2.3 1.6c0 .7-.5 1.2-1.5 1.6-1.6-.5-2.8-.8-3.8-1 0 .7.1 1.4.1 2.2l-.2 7.2s0 .3.1.8l1.8-.1c1.6 0 2.4.5 2.4 1.4 0 .4-.1.7-.4.9-.3.3-.7.4-1.1.4s-.9 0-1.5-.1h-1.3c.1 1.3.1 2.6.1 3.8l-.2 9.1c0 1.9 0 2.8.1 2.8l3.7-.1c1.3 0 1.9.4 1.9 1.2 0 .5-.2.9-.7 1.1-.4.2-.9.3-1.5.3h-4.3c-.4 0-.8-.2-1.2-.5s-.5-.7-.6-1.1v-1.3l-.3-8.5z"/><path d="m1082.9 370.3.3-9.4c0-1.6.6-2.8 1.8-3.7v.3c.1-.1.3-.1.4-.1.8 0 1.8 1.4 3 4.1s2.2 5.7 3.2 9 1.9 6.5 2.8 9.8 1.5 5.2 1.8 5.8c.7-7 1-15.6 1-25.6l-.1-1.4c0-1 .4-1.5 1.3-1.5.5 0 .8.2 1.1.6.2.4.4.9.4 1.4v3.8c0 4-.2 9.2-.5 15.8s-.8 10.3-1.3 11.2c-.9.3-1.6.4-1.9.4-.4 0-.6-.1-.8-.4-.2-.2-.3-.6-.5-1.1-.1-.5-.2-.8-.3-1v-.2c0-1.2-1.2-5.2-3.6-11.9s-4.2-11.3-5.2-13.8v25.4c0 .1.1.2.2.3.2.4.3.7.3 1s-.2.6-.5.9-.7.5-1.1.5c-1.1 0-1.7-1-1.7-3.1z"/><path d="m1102.9 378.5v-3-1.2c0-5 .2-8.4.7-10.3.6-2.4 1.4-4.1 2.5-5 1.4-1.3 3.2-1.9 5.4-1.9.5 0 .9.1 1.2.4.3.2.4.5.4.9s-.1.7-.3.9c-.2.3-.5.4-.8.4h-2.4c-.7 0-1.3.4-1.8 1.3s-.9 2-1.1 3.3c-.4 2.4-.6 4.4-.6 6v.2l-.2 9.7c0 2.1.1 3.5.3 4.3s.5 1.4.7 1.9.5.9.8 1.2c.8.7 1.7 1.1 2.9 1.1.4 0 .8-.1 1.1-.4.4 0 .7.1 1.1.3.3.2.5.5.5.8 0 1.3-.9 2-2.8 2-.8 0-1.5-.1-2.4-.3-.8-.2-1.4-.5-1.9-.7-2.2-1.5-3.3-5.4-3.3-11.9z"/><path d="m1116.3 365.2-.3-4.3c0-2.4.7-3.6 2.1-3.6.9 0 2.1.2 3.7.6s2.3 1 2.3 1.6c0 .7-.5 1.2-1.5 1.6-1.6-.5-2.8-.8-3.8-1 0 .7.1 1.4.1 2.2l-.2 7.2s0 .3.1.8l1.8-.1c1.6 0 2.4.5 2.4 1.4 0 .4-.1.7-.4.9-.3.3-.7.4-1.1.4s-.9 0-1.5-.1h-1.3c.1 1.3.1 2.6.1 3.8l-.2 9.1c0 1.9 0 2.8.1 2.8l3.7-.1c1.3 0 1.9.4 1.9 1.2 0 .5-.2.9-.7 1.1-.4.2-.9.3-1.5.3h-4.3c-.4 0-.8-.2-1.2-.5s-.5-.7-.6-1.1v-1.3l-.3-8.5z"/><path d="m1130.5 390.1c0 1.2-.8 1.8-2.5 1.8-.4 0-.8-.2-1.1-.5s-.6-.8-.6-1.4.2-1.1.6-1.6.9-.7 1.5-.7 1.1.2 1.5.7c.4.4.6 1 .6 1.7zm-.7-12.8v2.4c0 2.3-.3 3.4-.9 3.4-.3 0-.7-.4-.9-1.2-.3-.8-.4-1.9-.4-3.1l.2-8.3-.2-16.5c0-.5.2-1 .7-1.4.4-.4.9-.6 1.3-.6s.8.1 1 .4c.2.2.4.5.4.9 0 2.7-.2 6.7-.5 12.1-.5 5.2-.7 9.3-.7 11.9z"/></g></svg>