<svg viewBox="0 0 431 403" xmlns="http://www.w3.org/2000/svg"><path d="m196.7 355.7s-6.2-7.1 1.8-10.7 1.8 8.9 23.2-5.4 74-58 74-58 9.8-11.6 8.9-18.7c0 0 7.1-6.2 11.6.9s-2.7 25-2.7 25l-81.1 64.2s-16.1 11.6-25.9 7.1z" fill="#ffcc80"/><path d="m222.2 341.1-8.9 6.2v-26.8l8.9-6.1zm-81.2-11.6-8.8 6.2v-26.7l8.8-6.2z" fill="#ef5350"/><path d="m119.6 344.7s-6.2-7.1 1.8-10.7 1.8 8.9 23.2-5.4 74-58 74-58 9.8-11.6 8.9-18.7c0 0 7.1-6.2 11.6.9s-2.7 25-2.7 25l-81.1 64.2s-16.1 11.6-25.9 7.1-9.8-4.4-9.8-4.4z" fill="#ffcc80"/><path d="m292.2 221.5s-20.2 5.1-36.9-14.2c-9.3-10.7-14.4-7.1-17.1-1.8-2.9 5.6-2.8 12.2-.3 18 3.3 7.5 11.2 16.3 26.2 16.2 25.6-.1 29.9-12.5 29.6-13zm-151.7 85.8-140.4 3.5 10.7-20.5 187.3-38.4z" fill="#ef5350"/><path d="m308.7 217.2s-165.9 1.8-223.8 181.9c0 0 4.5 8 13.4 0s197.9-102.6 210.4-181.9z" fill="#ffe082"/><path d="m131.1 370.1 45.2 14.8-6.3 5.7-60.2-4.6zm-40.1 15.1-45.8 1.2 3.5-6.7 61.1-12.5z" fill="#ef5350"/><path d="m128.6 354.5-51.7-.7c-4.7-.5-6.9 5.7-2.9 8.3l28 18.2zm37.4-66.9 37.5-33s11.6-8 25-2.7c13.4 5.4 5.4 16.9 5.4 16.9l-31.2 31.2s-8 6.2-20.5 7.1c-5.9.4-11-1.5-14.7-3.7-5.7-3.3-6.5-11.3-1.6-15.7 0 .1 0 0 .1-.1z" fill="#ffcc80"/><path d="m300.7 223.4s-3.6-20.5 16.9-35.7c11.4-8.4 8.2-13.8 3.1-16.9-5.4-3.3-12-3.7-17.9-1.7-7.7 2.7-17.1 9.9-18.2 24.9-1.9 25.5 10.2 30.8 10.7 30.5zm-6.9 15.7s19.7 6.8 23.1 32.1c1.9 14 8.1 13.9 13.3 10.9 5.5-3.1 9-8.7 10.1-14.9 1.4-8.1-.5-19.8-13-27.9-21.4-14-31.9-5.9-31.9-5.3z" fill="#ef5350"/><path d="m288.9 259.9 142 46.5-19.7 17.8-189-14.3z" fill="#ef5350"/><circle cx="217.3" cy="257.3" fill="none" r="15" stroke="#4d4d4d" stroke-miterlimit="10" stroke-width="3"/><circle cx="217.3" cy="257.3" fill="#4d4d4d" r="4"/><path d="m217.3 257.3 10.5-10.5m-10.5 10.5-14.3-3.8m14.3 3.8 3.9 14.4m-4.4-14.9 12 17" fill="none" stroke="#4d4d4d" stroke-miterlimit="10" stroke-width="3"/><path d="m205.6 63.4h24.4v8.9h-24.4zm62 86.4s-6.6 8.1-14.8 7.4c-8.1-.7-10.3-15.5-6.6-16.3 3.7-.7 11.1-5.9 11.1-5.9z" fill="#f2d1b3"/><path d="m173 141.7s12.6 3 12.6 8.1.7 11.6-3.7 12.8-11.8-1-14-4.7 5.1-16.2 5.1-16.2z" fill="none"/><path d="m201.1 69.3s11.1 3.7 31 0 31 3.7 35.5 11.1c4.4 7.4 17 26.6 17 43.6s-17 25.9-17 25.9l-10.3-14.8s11.8-5.9 7.4-16.3c-4.4-10.3-13.3-17.7-13.3-17.7l-2.1 33.4c-.1 1.4 0 2.8.1 4.2l4.2 34.1s-45.1 18.5-75.4 1.5c0 0 6.6-60.6 0-69.5 0 0-16.3 11.8-17.7 21.4s12.6 15.5 12.6 15.5l-5.9 16.3-13.5-5.3c-10.9-4.3-17-16.1-14-27.5 0-.2.1-.3.1-.5 4.4-16.3 20.7-39.2 20.7-39.2s10.3-16.3 23.6-17 17 .8 17 .8z" fill="#26a69a"/><path d="m244.9 68.4s-19.4 17.2-15.7 56.3-1.3 36.5 23.4 39.7l.4 3.5s-.3.2-.9.4c-16.1 7-34.2-4.5-34.9-22.1-.9-23.5-.4-66.9 15-77 0 .1 10.3-1.4 12.7-.8zm-45.8.4s-10.5 12.3-14.2 30-8.9 61.2-5.9 67.9l-.4 4.5s-6.2.7-6.2-13.3-1.5-75.7 17-89.6c-.1.1 8.4.1 9.7.5z" fill="#80cbc4"/><path d="m187.8 79.6s19.9 1.5 30.3-.7 16.3 5.2 16.3 5.2 6.6 8.1 3 24.4 0 38.4 0 38.4 3 9.6-9.6 14-36.2 2.2-36.2 2.2l-15.5-.7s-7.4 0-8.1-8.9 0-49.5 0-49.5l.7-11.1c-.1 0-.1-16.2 19.1-13.3z" fill="#80cbc4"/><path d="m236.5 88.1s-9.6 2.6-7.3 21c0 0-55.7 4.4-62.8 1.5l.8-19.1s1.2-11.8 12.8-12.2c0 0 28.3 2.1 39.1-.6s18.1 8.4 17.4 9.4z" fill="#00897b"/><path d="m210 106.2h5.9v10.3h-5.9zm-31 0h5.9v10.3h-5.9z" fill="#00695c"/><path d="m227.7 271.7-1.5 13.3s20.7 3 32.5-6.6-3-14.8-3-14.8-8.9-3-18.5 3c-9.5 5.9-9.5 5.1-9.5 5.1zm-53.2-10.3s17.7-.7 14 9.6c-2.7 7.6-13.9 11.2-19.6 12.6-3.2.8-6.6.6-9.6-.6-3.6-1.5-7.4-4.6-7-11.3.8-12.5 22.2-10.3 22.2-10.3z" fill="#009688"/><path d="m179 174.2-22.2 90.9s8.9 5.9 22.2-.7l11.8-40.6s5.2-19.2 18.5-17 15.5 17 15.5 17l3 48s11.8 5.9 20.7-3v-97.5z" fill="#2d5f73"/><circle cx="220.3" cy="39.7" fill="#f2d1b3" r="28.8"/><g fill="#2d5f73"><path d="m194.5 23.5s-23.6 12.6-17.7 22.9 22.2 8.9 22.2 8.9 20.7-1.5 33.2-8.1 20.7-12.6 25.1-19.9c3.1-5.2 3.3-11 3.2-14.1-.1-1.6-.8-3.2-2-4.3-3-2.8-10-7-24.1-2.3-20 6.5-39.9 16.9-39.9 16.9z"/><path d="m191.5 39.7s-1.5-29.6 11.8-35.5 22.9-5.9 31.8 5.2l5.9 9.6m1.4 22.2s3.6 12.7-5.6 22.2c0 0 6.5-5.5 7.4-7.5.9-2.1 3.4-11.2.4-16.2z"/></g></svg>