<svg viewBox="0 0 1920 6480" xmlns="http://www.w3.org/2000/svg"><path d="M-6 0h1926v6480H-6z" fill="#b2ebf2"/><path d="M1536 944.4h-53c-.8 0-1.4-.6-1.4-1.4s.6-1.4 1.4-1.4h53c.8 0 1.4.6 1.4 1.4-.1.8-.7 1.4-1.4 1.4zm-80.7 0h-44c-.8 0-1.4-.6-1.4-1.4s.6-1.4 1.4-1.4h44c.8 0 1.4.6 1.4 1.4s-.6 1.4-1.4 1.4zm-64 0h-28.8c-.8 0-1.4-.6-1.4-1.4s.6-1.4 1.4-1.4h28.8c.8 0 1.4.6 1.4 1.4s-.7 1.4-1.4 1.4zm73.9 7.8h-30.3c-.8 0-1.4-.6-1.4-1.4s.6-1.4 1.4-1.4h30.3c.8 0 1.4.6 1.4 1.4s-.6 1.4-1.4 1.4zm84.1-16.2H1339c-.8 0-1.4-.6-1.4-1.4s.6-1.4 1.4-1.4h210.3c.8 0 1.4.6 1.4 1.4-.1.8-.7 1.4-1.4 1.4zm18.7 0h-8.8c-.8 0-1.4-.6-1.4-1.4s.6-1.4 1.4-1.4h8.8c.8 0 1.4.6 1.4 1.4-.1.8-.7 1.4-1.4 1.4zM542.6 1328.4H588c.6 0 1.2-.6 1.2-1.4s-.5-1.4-1.2-1.4h-45.4c-.6 0-1.2.6-1.2 1.4s.5 1.4 1.2 1.4zm69 0h37.7c.6 0 1.2-.6 1.2-1.4s-.5-1.4-1.2-1.4h-37.7c-.6 0-1.2.6-1.2 1.4s.5 1.4 1.2 1.4zm54.8 0H691c.6 0 1.2-.6 1.2-1.4s-.5-1.4-1.2-1.4h-24.6c-.6 0-1.2.6-1.2 1.4s.5 1.4 1.2 1.4zm-63.3 7.8h26c.6 0 1.2-.6 1.2-1.4s-.5-1.4-1.2-1.4h-26c-.6 0-1.2.6-1.2 1.4s.5 1.4 1.2 1.4zm-71.9-16.2h180c.6 0 1.2-.6 1.2-1.4s-.5-1.4-1.2-1.4h-180c-.6 0-1.2.6-1.2 1.4s.5 1.4 1.2 1.4zm-16 0h7.6c.6 0 1.2-.6 1.2-1.4s-.5-1.4-1.2-1.4h-7.6c-.6 0-1.2.6-1.2 1.4s.5 1.4 1.2 1.4zm-284.4 335.2h-28.3c-.5 0-.9-.6-.9-1.4s.4-1.4.9-1.4h28.3c.5 0 .9.6.9 1.4s-.4 1.4-.9 1.4zm-142.9 0H66.8c-.5 0-.9-.6-.9-1.4s.4-1.4.9-1.4h21.1c.5 0 .9.6.9 1.4s-.4 1.4-.9 1.4zm32.7 5.3H97c-.5 0-.9-.6-.9-1.4s.4-1.4.9-1.4h23.5c.5 0 .9.6.9 1.4s-.3 1.4-.8 1.4zm115.5-13.6h-2c-.5 0-.9-.6-.9-1.4s.4-1.4.9-1.4h2c.5 0 .9.6.9 1.4s-.4 1.4-.9 1.4zm-8.7 0h-155c-.5 0-.9-.6-.9-1.4s.4-1.4.9-1.4h155c.5 0 .9.6.9 1.4s-.4 1.4-.9 1.4zm-163.5 0h-5.1c-.5 0-.9-.6-.9-1.4s.4-1.4.9-1.4h5.1c.5 0 .9.6.9 1.4s-.4 1.4-.9 1.4z" fill="#5ca4aa"/><g fill="none" stroke="#5ca4aa" stroke-linecap="round" stroke-miterlimit="10"><path d="M761 2066h156m23 0h27m-122 13h58m-114-26h31m-82 13h9m401 1003h99m-54.5 12.5h102m-26-13h41m-143 13h14m30-26h58m-994-165h48m-89 28h60m-82-14h51m10 0h18m11 14h47" stroke-width="3"/><path d="M195.8 3686.1h45.4m-84.2 26.5h56.8m-77.7-13.2h48.3m9.5 0h17m10.5 13.2h44.5" stroke-width="2.841"/></g><path d="M285.6 4173.4H331c.6 0 1.2-.6 1.2-1.4s-.5-1.4-1.2-1.4h-45.4c-.6 0-1.2.6-1.2 1.4s.5 1.4 1.2 1.4zm69 0h37.7c.6 0 1.2-.6 1.2-1.4s-.5-1.4-1.2-1.4h-37.7c-.6 0-1.2.6-1.2 1.4s.5 1.4 1.2 1.4zm54.8 0H434c.6 0 1.2-.6 1.2-1.4s-.5-1.4-1.2-1.4h-24.6c-.6 0-1.2.6-1.2 1.4s.5 1.4 1.2 1.4zm-63.3 7.8h26c.6 0 1.2-.6 1.2-1.4s-.5-1.4-1.2-1.4h-26c-.6 0-1.2.6-1.2 1.4s.5 1.4 1.2 1.4zm-71.9-16.2h180c.6 0 1.2-.6 1.2-1.4s-.5-1.4-1.2-1.4h-180c-.6 0-1.2.6-1.2 1.4s.5 1.4 1.2 1.4zm-16 0h7.6c.6 0 1.2-.6 1.2-1.4s-.5-1.4-1.2-1.4h-7.6c-.6 0-1.2.6-1.2 1.4s.5 1.4 1.2 1.4z" fill="#5ca4aa"/><path d="M759.1 3865.6h78m-42.9 9.9h80.4m-20.5-10.2h32.3m-112.7 10.2h11m23.7-20.5h45.7" fill="none" stroke="#5ca4aa" stroke-linecap="round" stroke-miterlimit="10" stroke-width="2.365"/><path d="M1548 5069h35c.5 0 .9-.5.9-1s-.4-1-.9-1h-35c-.5 0-.9.5-.9 1s.4 1 .9 1zm53.3 0h29.1c.5 0 .9-.5.9-1s-.4-1-.9-1h-29.1c-.5 0-.9.5-.9 1s.4 1 .9 1zm42.3 0h19c.5 0 .9-.5.9-1s-.4-1-.9-1h-19c-.5 0-.9.5-.9 1s.4 1 .9 1zm-48.9 6h20c.5 0 .9-.5.9-1s-.4-1-.9-1h-20c-.5 0-.9.5-.9 1s.4 1 .9 1zm-55.5-12.4h138.9c.5 0 .9-.5.9-1 0-.6-.4-1-.9-1h-138.9c-.5 0-.9.5-.9 1s.4 1 .9 1zm-12.3 0h5.8c.5 0 .9-.5.9-1 0-.6-.4-1-.9-1h-5.8c-.5 0-.9.5-.9 1s.4 1 .9 1z" fill="#5ca4aa"/><path d="M253.4 5035.8h105m15.5 0h18.2m-82.1 8.7h39m-76.7-17.5h20.8m-55.2 8.8h6.1" fill="none" stroke="#5ca4aa" stroke-linecap="round" stroke-miterlimit="10" stroke-width="2.019"/></svg>