<svg enable-background="new 0 0 1920 1080" viewBox="0 0 1920 1080" xmlns="http://www.w3.org/2000/svg" xmlns:xlink="http://www.w3.org/1999/xlink"><linearGradient id="a" gradientUnits="userSpaceOnUse" x1="255.267" x2="231.8981" y1="616.7678" y2="605.9553"><stop offset="0"/><stop offset="1" stop-color="#1a1a1a"/></linearGradient><path d="m303.5 548.1s-7 1.1-10.5 3.9-6.3-2.4-8.3-9.1c-2-6.8-8.1-3.1-11.3 0-3.3 3-4.4 6.3-1.7 7.4 2.6 1.1 13.9 3 18.5 13.1 4.6 10 .7 23.1-.4 25.5s-4.8 13.5-.7 33.8-3.7 41.6-8.1 45.5-10.2 8.3-9.1-1.3 2-20 .9-23.1c-1.1-3-2.4-7.6-2.2-10.7.2-3 .2-5-1.7-7.8-2-2.8-5-8.5-5-8.5s1.7 7.4 3.2 9.1c2.6 3.2 1.3 5.5 1.6 9.2.3 3.4 2.6 9.9 2.8 11.7.2 1.7-.3 14.3-1.5 16.9-1.9 4.2-12 1.1-8.9 14.4.7 2.8 1.5 5.9.9 8.3-.7 2.4 2.2 3.7 2.2 6.8s-1.7 8.9 3 13.5c4.8 4.6 8.6 11.4 7.4 13.9-.1.1-.1.2-.2.3.8.3 1.7.5 2.5.5 2.3 0 2.3-5.7 2.9-8 .7-2.3-.3-2.9-.3-2.9s2.6 0 4.2-2.9 3.9-5.6 5.6-5.6c1.6 0 2.6 1 3.6-4.2s.7-2.9 4.2-9.1c3.6-6.2 11.1-38.2 11.8-45.1s7.2-34.3 8.5-58.2c1.3-24.1-13.9-37.3-13.9-37.3z" fill="#fff" stroke="#1a1a1a" stroke-width=".8793"/><path d="m216.2 715.6s4.6-2.2 5.2-3.5l-.9-1.1s2.8-.9 3.7-2.6-.7-.2 0-1.7 8.9-8.3 8.5-18.3-3.1-51.4 3.9-78.9c7-27.4 19-49.9 24.2-54.7s4.6-7 5.7-9.4 11.1-20.5 21.3-21.3c10.2-.9 15.6 2.7 17.9 3.7 6.5 3 21.6 3.5 24.2 7 0 0-4.8-1.1-7.2-.2s-15 3.7-19.2 13.5c0 0-7 1.1-10.5 3.9s-6.3-2.4-8.3-9.1c-2-6.8-8.1-3.1-11.3 0-3.3 3-4.4 6.3-1.7 7.4 2.6 1.1 13.9 3 18.5 13.1 4.6 10 .7 23.1-.4 25.5s-4.8 13.5-.7 33.8-3.7 41.6-8.1 45.5-10.2 8.3-9.1-1.3 2-20 .9-23.1c-1.1-3-2.4-7.6-2.2-10.7.2-3 .2-5-1.7-7.8-2-2.8-5-8.5-5-8.5s1.7 7.4 3.2 9.1c2.6 3.2 1.3 5.5 1.6 9.2.3 3.4 2.6 7.8 2.8 9.6.2 1.7.4 14.8-1.5 19-2 4.1-12 1.1-8.9 14.4.7 2.8 1.5 5.9.9 8.3-.7 2.4 2.2 3.7 2.2 6.8s-1.7 8.9 3 13.5c4.8 4.6 8.6 11.4 7.4 13.9-.5 1.2-3.6.3-3.6.3s-3.4-2.1-7.7-1.4c-4.4.7-6.3-.2-5.4-2.2s3.7 2.4 3.9-.9-1.5-3.3-3.7-2.8c-2.2.4-13.1.4-17.9 2.4s-5-.4-6.5 0-5.9-.2-7.4-.9c-1.6-.8-9 1.6-10.1.5z" fill="url(#a)"/><path d="m279.8 713.2s7.9-.1 9.1.9 5.4 2.4 6.1 6.9c0 0-1.7-1.6-2.5-1.7 0 0 1.4 1.4 1 2.7 0 0-3.2-3.2-5.6-2.3s-8.4-.8-10.3 1.5c.1-.1 1.3-7.7 2.2-8z"/><path d="m324.4 534.3s-5.3-1.1-9.5-.6-11.4 2.5-11.4 2.5 10-1.5 12.5-1.4 4.6.5 4.6.5z" fill="#fff"/><path d="m431.6 668.7c-.2.3-.4.1-.6.5-.1.2-.2.4-.3.7-.1.2-.3.4-.4.6s.3.6.2.9c-.1.2-.6.3-.7.6-.1.2 0 .5 0 .8-.1.2-.1.5-.2.7 0 .3-.1.5-.1.7s.2.5.2.7-.2.5-.2.7-.3.4-.4.7c0 .2.3.5.3.8 0 .2-.4.4-.4.7 0 .2-.2.4-.3.7-.1.2.1.5 0 .7s.2.6.1.8-.5.3-.6.5 0 .5-.1.7-.4.3-.5.5 0 .5-.2.7c-.1.2-.5.2-.6.4s-.3.3-.5.5c-.1.2-.1.5-.2.7s-.1.5-.2.7-.2.4-.3.6-.4.3-.5.5-.1.5-.2.7-.4.3-.5.6c-.1.2-.3.4-.4.6s.1.6 0 .8-.3.4-.4.6-.5.3-.6.5.1.6 0 .8-.3.4-.4.6-.2.4-.3.7c-.1.2-.5.3-.6.5s.1.6 0 .8-.3.4-.4.6-.5.3-.6.5-.1.5-.2.7.1.6 0 .8-.7.2-.8.3 0 .5-.1.8c-.1.2-.1.4-.2.7-.1.2-.5.3-.6.5s-.1.5-.2.7-.1.5-.2.7-.3.4-.4.6-.1.5-.1.7c-.1.2 0 .5 0 .7-.1.2-.3.4-.3.6-.1.2.1.5 0 .7s-.4.4-.4.6c-.1.2.2.5.2.8-.1.2-.2.4-.2.7 0 .2-.2.4-.2.7 0 .2-.4.4-.4.6s0 .5-.1.7c0 .2.3.5.3.8 0 .2-.1.5-.1.7s-.4.4-.4.7c0 .2.3.5.3.8 0 .2-.2.5-.2.7s-.3.5-.3.7.3.5.2.7c0 .2.1.5.1.7s-.1.5-.1.7.1.5.1.7-.4.5-.4.7v.7.7s.3.5.4.7c0 .2.2.5.2.7s-.2.5-.2.7 0 .5.1.7c0 .3.4.5.4.6.1.3.2.3.4.5.2.1.4.4.6.3.4-.1.3-.3.6-.3.4 0 0 .2.1.6.1.2.4.3.5.5s.2.4.3.7c.1.2.3.4.4.6s-.1.5 0 .8c.1.2.2.4.3.7.1.2.1.5.2.7s.2.5.3.7.3.4.4.6.3.4.4.6.3.4.4.6.4.3.5.5-.1.7.1.9.6.1.7.3.2.5.3.7.1.5.2.7.3.4.4.6.3.4.4.6.1.5.2.7.1.5.2.7.5.3.6.5 0 .6.1.8.5.2.6.4.2.4.4.6c.1.2.2.4.4.6.1.2.1.6.3.7.2.2.5.2.7.4.2.1.4.2.6.3s.4.2.6.3.4.1.7.2c.2 0 .5.1.7.1s.5-.2.8-.2c.2 0 .4.3.7.3.2 0 .5-.1.8 0 .2 0 .4.2.7.3.2 0 .5.1.7.2.2 0 .5.1.7.1s.5.2.7.2.5-.1.8 0c.2 0 .4.4.7.4.2 0 .5-.2.8-.2.2 0 .5.1.7.1h.7c.2 0 .5.3.7.4h.7c.2 0 .5.2.7.2h.7c.2 0 .5-.4.7-.4h.7c.2 0 .5-.1.7-.1h.7c.2 0 .5.2.7.1.2 0 .5-.2.7-.2h.7c.2-.1.5-.1.7-.1.2-.1.5-.1.7-.2s.4-.3.6-.4.5.1.7 0 .5-.1.7-.2.5-.2.7-.3.5-.2.7-.2c.3-.1.5-.1.7-.2.3-.1.5-.4.7-.4s.5.4.8.4c.2 0 .4-.6.7-.6.2 0 .5.1.7 0s.4-.2.7-.3c.2-.1.5 0 .8-.1.2-.1.5-.1.7-.3.2-.1.3-.4.5-.5s.3-.4.5-.5c.2-.2.5-.2.7-.4s.5-.3.6-.5.3-.5.4-.7-.1-.6-.1-.8-.2-.5-.2-.8c0-.2.3-.4.4-.7 0-.2.1-.5.1-.7.1-.2-.1-.5 0-.8.1-.2.4-.4.4-.6.1-.2-.1-.6 0-.8s.5-.3.6-.6c.1-.2.2-.5.3-.7s0-.5.1-.8c.1-.2 0-.6.1-.8s.6-.2.8-.4c.1-.2 0-.6.1-.8s.1-.4.2-.7c.1-.2.3-.4.4-.6s.4-.4.5-.6.2-.5.3-.7-.4-.6-.3-.8c0-.2.2-.5.3-.7 0-.2.4-.4.4-.7s.1-.5.1-.7c0-.3-.3-.6-.3-.8 0-.3.1-.5.1-.7 0-.3.5-.6.5-.7.1-.5-.1-.3 0 0 .1.2.1.5.2.7.1.1.6 0 .8.1s.1.6.3.7.5.1.7.2c.2 0 .4-.2.6-.3s.4-.1.5-.4c.1-.2.4-.3.5-.6 0-.2 0-.5 0-.7s-.2-.5-.2-.7 0-.5 0-.7.1-.5.1-.7-.3-.5-.3-.7.1-.5.1-.7.2-.5.2-.8c0-.2-.1-.5-.1-.7s-.1-.5-.2-.7c0-.2-.2-.5-.3-.7 0-.2.2-.5.1-.8 0-.2-.1-.5-.1-.7-.1-.2 0-.5-.1-.7s-.6-.4-.6-.6c-.1-.2 0-.5-.1-.7s-.2-.4-.3-.7c-.1-.2-.2-.4-.3-.7-.1-.2-.2-.4-.3-.6s-.2-.4-.3-.7c-.1-.2.2-.6.1-.8s-.3-.4-.4-.6-.2-.4-.3-.7c-.1-.2 0-.5-.1-.7s-.2-.4-.3-.6-.3-.4-.4-.6-.1-.5-.2-.7-.5-.3-.6-.5.1-.6 0-.8-.3-.4-.4-.6-.1-.5-.2-.7-.2-.4-.3-.6-.4-.3-.5-.5.1-.6 0-.8-.4-.3-.5-.6c-.1-.2-.1-.5-.2-.7s-.4-.3-.5-.5.1-.6 0-.8-.5-.3-.7-.5c-.1-.2-.3-.4-.5-.6-.1-.2-.3-.4-.4-.6s0-.6-.1-.8-.1-.5-.2-.7-.6-.2-.7-.4-.2-.4-.3-.6-.1-.5-.3-.7c-.1-.2-.2-.4-.3-.6s-.4-.3-.5-.5-.4-.4-.5-.5c-.2-.2-.1-.6-.2-.7-.2-.2-.2-.4-.4-.6s-.6-.1-.7-.2c-.2-.2-.3-.3-.5-.5s-.3-.3-.5-.5 0-.6-.2-.8c-.1-.2-.3-.3-.4-.5s-.5-.2-.6-.4-.3-.4-.3-.6c-.1-.2-.2-.5-.2-.7s0-.4 0-.7c0-.2-.3-.4-.3-.7 0-.2.2-.5.1-.7 0-.2-.2-.4-.3-.7 0-.2.2-.5.2-.7s-.1-.5-.1-.7-.2-.4-.3-.7c0-.2-.2-.4-.2-.7 0-.2.3-.5.3-.8 0-.2-.3-.4-.4-.6 0-.2-.2-.4-.3-.7-.1-.2.1-.5 0-.7s-.2-.5-.2-.7c-.1-.2.2-.6.1-.8s-.6-.3-.7-.4c-.1-.2 0-.7-.2-.8s-.4-.3-.7-.4c-.2-.1-.5-.1-.7-.2s-.5.1-.8.1c-.2-.1-.5 0-.7 0s-.4-.3-.7-.4c-.2 0-.5.2-.7.1-.2 0-.4-.5-.7-.5-.2 0-.5-.1-.7-.1s-.5.2-.7.2-.5-.3-.7-.3-.5.3-.7.3-.5-.3-.7-.3-.5.3-.7.3-.5-.4-.7-.4-.5.4-.7.4-.5-.2-.7-.2-.5 0-.7 0-.5 0-.7 0-.5.1-.7.2c-.2 0-.5-.1-.7-.1s-.5.1-.7.2c-.2 0-.5 0-.7 0s-.4.4-.6.4c-.2.1-.5-.1-.7 0s-.4.5-.6.5c-.2.1-.6-.2-.8-.1-.5-.1-.4.3-.6.5z" fill="#fff"/><path d="m431.6 668.7c-.2.3-.4.1-.6.5-.1.2-.2.4-.3.7-.1.2-.3.4-.4.6s.3.6.2.9c-.1.2-.6.3-.7.6-.1.2 0 .5 0 .8-.1.2-.1.5-.2.7 0 .3-.1.5-.1.7s.2.5.2.7-.2.5-.2.7-.3.4-.4.7c0 .2.3.5.3.8 0 .2-.4.4-.4.7 0 .2-.2.4-.3.7-.1.2.1.5 0 .7s.2.6.1.8-.5.3-.6.5 0 .5-.1.7-.4.3-.5.5 0 .5-.2.7c-.1.2-.5.2-.6.4s-.3.3-.5.5c-.1.2-.1.5-.2.7s-.1.5-.2.7-.2.4-.3.6-.4.3-.5.5-.1.5-.2.7-.4.3-.5.6c-.1.2-.3.4-.4.6s.1.6 0 .8-.3.4-.4.6-.5.3-.6.5.1.6 0 .8-.3.4-.4.6-.2.4-.3.7c-.1.2-.5.3-.6.5s.1.6 0 .8-.3.4-.4.6-.5.3-.6.5-.1.5-.2.7.1.6 0 .8-.7.2-.8.3 0 .5-.1.8c-.1.2-.1.4-.2.7-.1.2-.5.3-.6.5s-.1.5-.2.7-.1.5-.2.7-.3.4-.4.6-.1.5-.1.7c-.1.2 0 .5 0 .7-.1.2-.3.4-.3.6-.1.2.1.5 0 .7s-.4.4-.4.6c-.1.2.2.5.2.8-.1.2-.2.4-.2.7 0 .2-.2.4-.2.7 0 .2-.4.4-.4.6s0 .5-.1.7c0 .2.3.5.3.8 0 .2-.1.5-.1.7s-.4.4-.4.7c0 .2.3.5.3.8 0 .2-.2.5-.2.7s-.3.5-.3.7.3.5.2.7c0 .2.1.5.1.7s-.1.5-.1.7.1.5.1.7-.4.5-.4.7v.7.7s.3.5.4.7c0 .2.2.5.2.7s-.2.5-.2.7 0 .5.1.7c0 .3.4.5.4.6.1.3.2.3.4.5.2.1.4.4.6.3.4-.1.3-.3.6-.3.4 0 0 .2.1.6.1.2.4.3.5.5s.2.4.3.7c.1.2.3.4.4.6s-.1.5 0 .8c.1.2.2.4.3.7.1.2.1.5.2.7s.2.5.3.7.3.4.4.6.3.4.4.6.3.4.4.6.4.3.5.5-.1.7.1.9.6.1.7.3.2.5.3.7.1.5.2.7.3.4.4.6.3.4.4.6.1.5.2.7.1.5.2.7.5.3.6.5 0 .6.1.8.5.2.6.4.2.4.4.6c.1.2.2.4.4.6.1.2.1.6.3.7.2.2.5.2.7.4.2.1.4.2.6.3s.4.2.6.3.4.1.7.2c.2 0 .5.1.7.1s.5-.2.8-.2c.2 0 .4.3.7.3.2 0 .5-.1.8 0 .2 0 .4.2.7.3.2 0 .5.1.7.2.2 0 .5.1.7.1s.5.2.7.2.5-.1.8 0c.2 0 .4.4.7.4.2 0 .5-.2.8-.2.2 0 .5.1.7.1h.7c.2 0 .5.3.7.4h.7c.2 0 .5.2.7.2h.7c.2 0 .5-.4.7-.4h.7c.2 0 .5-.1.7-.1h.7c.2 0 .5.2.7.1.2 0 .5-.2.7-.2h.7c.2-.1.5-.1.7-.1.2-.1.5-.1.7-.2s.4-.3.6-.4.5.1.7 0 .5-.1.7-.2.5-.2.7-.3.5-.2.7-.2c.3-.1.5-.1.7-.2.3-.1.5-.4.7-.4s.5.4.8.4c.2 0 .4-.6.7-.6.2 0 .5.1.7 0s.4-.2.7-.3c.2-.1.5 0 .8-.1.2-.1.5-.1.7-.3.2-.1.3-.4.5-.5s.3-.4.5-.5c.2-.2.5-.2.7-.4s.5-.3.6-.5.3-.5.4-.7-.1-.6-.1-.8-.2-.5-.2-.8c0-.2.3-.4.4-.7 0-.2.1-.5.1-.7.1-.2-.1-.5 0-.8.1-.2.4-.4.4-.6.1-.2-.1-.6 0-.8s.5-.3.6-.6c.1-.2.2-.5.3-.7s0-.5.1-.8c.1-.2 0-.6.1-.8s.6-.2.8-.4c.1-.2 0-.6.1-.8s.1-.4.2-.7c.1-.2.3-.4.4-.6s.4-.4.5-.6.2-.5.3-.7-.4-.6-.3-.8c0-.2.2-.5.3-.7 0-.2.4-.4.4-.7s.1-.5.1-.7c0-.3-.3-.6-.3-.8 0-.3.1-.5.1-.7 0-.3.5-.6.5-.7.1-.5-.1-.3 0 0 .1.2.1.5.2.7.1.1.6 0 .8.1s.1.6.3.7.5.1.7.2c.2 0 .4-.2.6-.3s.4-.1.5-.4c.1-.2.4-.3.5-.6 0-.2 0-.5 0-.7s-.2-.5-.2-.7 0-.5 0-.7.1-.5.1-.7-.3-.5-.3-.7.1-.5.1-.7.2-.5.2-.8c0-.2-.1-.5-.1-.7s-.1-.5-.2-.7c0-.2-.2-.5-.3-.7 0-.2.2-.5.1-.8 0-.2-.1-.5-.1-.7-.1-.2 0-.5-.1-.7s-.6-.4-.6-.6c-.1-.2 0-.5-.1-.7s-.2-.4-.3-.7c-.1-.2-.2-.4-.3-.7-.1-.2-.2-.4-.3-.6s-.2-.4-.3-.7c-.1-.2.2-.6.1-.8s-.3-.4-.4-.6-.2-.4-.3-.7c-.1-.2 0-.5-.1-.7s-.2-.4-.3-.6-.3-.4-.4-.6-.1-.5-.2-.7-.5-.3-.6-.5.1-.6 0-.8-.3-.4-.4-.6-.1-.5-.2-.7-.2-.4-.3-.6-.4-.3-.5-.5.1-.6 0-.8-.4-.3-.5-.6c-.1-.2-.1-.5-.2-.7s-.4-.3-.5-.5.1-.6 0-.8-.5-.3-.7-.5c-.1-.2-.3-.4-.5-.6-.1-.2-.3-.4-.4-.6s0-.6-.1-.8-.1-.5-.2-.7-.6-.2-.7-.4-.2-.4-.3-.6-.1-.5-.3-.7c-.1-.2-.2-.4-.3-.6s-.4-.3-.5-.5-.4-.4-.5-.5c-.2-.2-.1-.6-.2-.7-.2-.2-.2-.4-.4-.6s-.6-.1-.7-.2c-.2-.2-.3-.3-.5-.5s-.3-.3-.5-.5 0-.6-.2-.8c-.1-.2-.3-.3-.4-.5s-.5-.2-.6-.4-.3-.4-.3-.6c-.1-.2-.2-.5-.2-.7s0-.4 0-.7c0-.2-.3-.4-.3-.7 0-.2.2-.5.1-.7 0-.2-.2-.4-.3-.7 0-.2.2-.5.2-.7s-.1-.5-.1-.7-.2-.4-.3-.7c0-.2-.2-.4-.2-.7 0-.2.3-.5.3-.8 0-.2-.3-.4-.4-.6 0-.2-.2-.4-.3-.7-.1-.2.1-.5 0-.7s-.2-.5-.2-.7c-.1-.2.2-.6.1-.8s-.6-.3-.7-.4c-.1-.2 0-.7-.2-.8s-.4-.3-.7-.4c-.2-.1-.5-.1-.7-.2s-.5.1-.8.1c-.2-.1-.5 0-.7 0s-.4-.3-.7-.4c-.2 0-.5.2-.7.1-.2 0-.4-.5-.7-.5-.2 0-.5-.1-.7-.1s-.5.2-.7.2-.5-.3-.7-.3-.5.3-.7.3-.5-.3-.7-.3-.5.3-.7.3-.5-.4-.7-.4-.5.4-.7.4-.5-.2-.7-.2-.5 0-.7 0-.5 0-.7 0-.5.1-.7.2c-.2 0-.5-.1-.7-.1s-.5.1-.7.2c-.2 0-.5 0-.7 0s-.4.4-.6.4c-.2.1-.5-.1-.7 0s-.4.5-.6.5c-.2.1-.6-.2-.8-.1-.5-.1-.4.3-.6.5z" style="fill:none;stroke:#000;stroke-width:.8284;stroke-linecap:round;stroke-linejoin:bevel;stroke-miterlimit:10"/><path d="m430.9 678c-.1-.1 0-.4-.1-.7 0-.2-.2-.4-.2-.7 0-.2-.1-.4-.1-.7 0-.2-.2-.4-.2-.7 0-.2.1-.5.1-.7s.1-.5.1-.7-.3-.5-.3-.7.4-.4.4-.7c0-.2.1-.5.1-.7s-.2-.5-.1-.7c0-.2-.1-.5 0-.7 0-.2.4-.4.5-.6s.1-.4.2-.7c.1-.2-.2-.6-.1-.8s.2-.4.3-.6.4-.3.5-.5-.1-.6 0-.8.3-.4.5-.6c.1-.2.3-.4.5-.5.2-.2.4-.3.6-.5s.4-.3.6-.4c.2-.2.3-.3.5-.5.2-.1.5-.2.7-.3s.3-.4.5-.6c.2-.1.5-.1.7-.2s.4-.2.7-.3c.2-.1.3-.6.5-.6.2-.1.6.3.8.2s.4-.3.6-.4.5.1.7 0c.2 0 .5-.1.7-.1s.4-.4.7-.4h.7c.2 0 .5.2.7.2h.7c.2 0 .5.1.7.1.2.1.5-.1.8-.1.2.1.3.6.5.7s.6-.1.8 0 .5.2.7.3.3.4.5.6c.2.1.2.5.4.7l.5.5c.2.2.7.1.8.3s-.1.6 0 .8.6.2.7.4 0 .5.1.8c.1.2.1.5.2.7s.3.4.4.6.5.3.6.6c.1.2-.3.6-.2.8s.1.5.1.7c.1.2.6.3.7.6.1.2-.3.6-.2.8s.4.4.4.6-.2.5-.2.8.1.5.1.7c0 .3.2.5.2.7 0 .3-.1.5-.1.7 0 .3.4.5.4.7 0 .5-.4.6-.4.6-.1.3.2.4 0 .8-.1.2-.2.4-.4.6-.1.2-.6.1-.8.3-.1.2-.1.5-.3.7s-.1.6-.3.7c-.2.2-.7 0-.9.1s-.2.6-.4.7-.4.3-.6.4-.6-.1-.8 0-.4.3-.6.4-.5 0-.7.1-.3.5-.6.6c-.2.1-.5 0-.8 0-.2 0-.5 0-.7.1-.2 0-.5.1-.7.2-.2 0-.5.1-.7.1s-.5.1-.7.1-.5-.3-.7-.3-.5.2-.7.2-.5-.4-.7-.5c-.2 0-.5.3-.8.3-.2 0-.4-.4-.7-.4-.2 0-.5-.1-.7-.2s-.6.3-.8.3c-.2-.1-.4-.3-.7-.4-.2-.1-.4-.3-.7-.3-.2-.1-.4-.2-.7-.3-.2-.1-.6.1-.8 0s-.3-.5-.5-.6-.3-.4-.5-.5c-.2-.2-.5-.1-.7-.3s-.2-.5-.3-.7c-.6-.2-.8.1-1-.2z"/><path d="m431.9 677.7c-.6-.8-.5-6.5.1-7.6s1.4-2.5 2.6-1.4 3.4 3.3 3.4 5-1.1 1.6-.9 2.6c.1 1 2.9 1.8 4.6 1.8s4.1-1 4.1-2.1c0-1.2-.8-.8-.8-2.3s1.7-5 2.8-5.6c1.2-.7 2.2 1.6 2.4 2.6s1.5 5 .2 6.7-3.7 3.7-8.8 3.7c-5 .2-8.1-1.3-9.7-3.4z" fill="#fff"/><path d="m448.4 672.8s-.8 0-1.6 1c0 0 .9.2 1.2-.1s.4-.9.4-.9z"/><path d="m434.1 672.8s.8 0 1.6 1c0 0-.9.2-1.2-.1s-.4-.9-.4-.9z"/><path d="m440.4 674.9s.6.3.6.5c0 .3.3 1.2.6 1.2s.4-1 .6-1.2c.2-.3.5-.6.5-.6s-.3-.8-1.1-.8-1.2.9-1.2.9z" fill="#4d4d4d"/><path d="m431.5 733.9s-3 4.2-.3 5.5 2.2-.4 2.2-.4 2.2 1.6 3.7.4c0 0 2.6.6 3-.2 0 0-3.2-2.1-3.2-3 0 0-.7 1-1.2 1-.4-.1-1.3-2.2-2.2-2.4-.7-.1-2.1.5-2-.9z"/><path d="m445.5 738.3s1.1 1.5 2.2 1.3c1.1-.3 1.2-1.2 2.2-1.2s1.5 1 2.3.6 1.3-2.4 2.2-2.9c.8-.5.2-1.5-.4-1.5s-1.6 1.6-2.2 1.1-1.4.8-1.9.8c-.5.1-3.7 2.2-4.4 1.8z"/><path d="m465.1 716c-.1-.3.2-.3 0-.8-.1-.2-.6-.3-.7-.6-.1-.2.4-.6.3-.9-.1-.2-.4-.4-.5-.6s-.4-.4-.5-.6 0-.5-.1-.7-.2-.4-.2-.7c-.1-.2-.2-.4-.3-.7-.1-.2-.2-.5-.2-.7-.1-.2-.1-.5-.2-.7s-.1-.5-.1-.7c-.1-.2-.2-.4-.3-.7-.1-.2-.1-.5-.2-.7s-.3-.4-.4-.6 0-.5-.1-.8c-.1-.2-.3-.4-.4-.6s-.2-.5-.3-.7-.3-.4-.4-.6 0-.5-.1-.7 0-.5-.1-.7-.2-.4-.3-.7c-.1-.2-.2-.4-.3-.7-.1-.2-.2-.4-.3-.6s-.3-.4-.4-.6-.2-.5-.3-.7c-.2-.2-.4-.3-.5-.5" style="fill:none;stroke:#000;stroke-width:.8284;stroke-linecap:round;stroke-linejoin:bevel;stroke-miterlimit:10"/><path d="m418.5 720c.2-.3.2-.2.4-.6.1-.2.1-.4.3-.7.1-.2.1-.5.2-.7s.3-.4.4-.6.2-.4.3-.7c.1-.2-.2-.5-.2-.8 0-.2 0-.4 0-.7 0-.2.4-.4.4-.7 0-.2.1-.4.2-.7 0-.2-.4-.5-.4-.8 0-.2.4-.4.5-.7 0-.2 0-.5 0-.7s.2-.5.2-.7 0-.5.1-.7c0-.2.1-.5.1-.7s.1-.5.2-.7c0-.2.1-.5.1-.7s0-.5 0-.7.4-.4.5-.6c0-.2 0-.5.1-.7 0-.2-.1-.5 0-.8.1-.2 0-.5 0-.7.1-.2.2-.5.3-.7s0-.5 0-.7c.1-.2.3-.4.3-.7.1-.2 0-.5.1-.7s.2-.4.3-.7c.1-.2 0-.5.1-.7s.2-.5.2-.7c.1-.2.1-.5.2-.7s0-.5.1-.7" style="fill:none;stroke:#000;stroke-width:.8284;stroke-linecap:round;stroke-linejoin:bevel;stroke-miterlimit:10"/><path d="m494.8 661.5s.4 0 .6.4c.1.2-.1.5 0 .8.1.2.3.4.4.6s.2.4.3.7c.1.2.1.5.2.7s0 .5.1.7.1.5.2.7.5.4.6.6c0 .2-.2.5-.1.8v.7c0 .2.1.5.1.7v.7.7c0 .2.2.5.3.7 0 .2.3.4.4.7.1.2-.1.5 0 .7s.2.5.3.7-.2.6-.1.8.2.4.3.7c.1.2.3.4.4.6s.4.3.5.5.3.4.5.6c.1.2.2.4.4.6.1.2.1.5.2.7s.5.2.6.4-.1.6 0 .8.6.2.7.4.3.4.4.6-.1.6 0 .8.1.5.2.7l.3.6c.1.2.4.3.5.5s.4.3.5.6c.1.2 0 .5.1.8.1.2.3.4.4.6s.5.3.6.5.1.5.2.7.1.5.2.7.2.4.3.7c.1.2.1.5.2.7s.5.3.6.5 0 .5.1.7.3.4.4.6 0 .5.1.7.4.4.5.6.2.5.4.6c.1.1.5.2.7.4.1.2.3.4.4.6s0 .5.1.7.2.4.2.7c.1.2 0 .5.1.7s.3.4.4.6-.1.5 0 .8c.1.2.5.3.6.6.1.2 0 .5 0 .7.1.2.3.4.4.6s-.2.6-.2.8c.1.2.4.4.4.6.1.2-.1.5 0 .7s.1.5.1.7c.1.2.2.5.2.7s.3.4.3.7c0 .2-.2.5-.1.8 0 .2.5.4.5.6s0 .5.1.7c0 .2-.2.5-.2.7v.7c0 .2.4.4.4.7 0 .2.1.5.1.7s-.3.5-.3.8v.7c0 .2.3.5.4.7 0 .2-.4.5-.4.7s.2.5.2.7.2.5.2.7.1.5 0 .7c0 .2-.4.5-.4.7s.1.5 0 .7c0 .2-.1.5-.1.7s.1.5.1.7.1.5.1.7-.2.5-.2.7 0 .5-.1.7c-.1.3-.2.4-.3.6-.2.2-.3.5-.5.6-.2 0-.4-.5-.6-.6-.3-.1-.3-.1-.7-.1-.4.1-.3.2-.5.6-.1.2 0 .5-.1.7s-.1.5-.2.7-.4.4-.5.6 0 .5-.1.7-.5.3-.6.5 0 .5-.1.8c-.1.2-.3.4-.5.6-.1.2-.2.5-.3.7s0 .6-.1.8-.4.4-.5.6-.4.3-.5.5 0 .6-.1.8c-.2.2-.3.4-.5.6s-.7.1-.8.3-.2.4-.4.6c-.1.2 0 .6-.1.8s-.3.4-.4.6 0 .5-.1.7-.6.3-.7.5 0 .5 0 .8c-.1.2-.1.5-.2.7s-.2.4-.3.6-.3.4-.4.6-.4.3-.5.5-.3.4-.4.6-.1.5-.2.7-.4.3-.5.5c-.2.2-.3.4-.4.5-.2.2-.2.5-.4.6s-.4.3-.6.4-.5 0-.7.1-.4.3-.6.3-.5.1-.7.1-.4-.1-.7 0c-.2 0-.5-.2-.8-.1-.2 0-.4.2-.7.3-.2 0-.4.4-.7.4-.2 0-.5-.3-.8-.3-.2 0-.4.5-.6.6-.2 0-.5 0-.7.1-.2 0-.5.1-.7.1s-.5 0-.7 0-.5 0-.7 0-.5.1-.7.1-.5-.1-.7 0c-.2 0-.5 0-.7 0s-.5.1-.7.1-.5.2-.7.2-.5-.1-.7-.1-.5.3-.7.3-.5-.5-.7-.5-.5.1-.7 0c-.2 0-.5.1-.7.1s-.5.3-.8.3c-.2 0-.4-.5-.7-.6-.2 0-.5.2-.8.2-.2 0-.5.1-.8 0-.2 0-.4-.4-.7-.5-.2-.1-.5.1-.8 0-.2-.1-.5-.1-.7-.2s-.4-.4-.7-.4c-.2-.1-.5 0-.8 0-.2-.1-.4-.4-.6-.5s-.5-.1-.7-.2-.6.2-.8.2c-.3-.1-.4-.5-.6-.6-.3-.1-.5 0-.8-.1s-.6.2-.7.2c-.2 0-.5-.3-.7-.3s-.5.1-.7.1-.4-.2-.7-.3c-.2-.1-.4-.2-.6-.3s-.5-.1-.7-.1c-.2-.1-.4-.3-.6-.4s-.5-.1-.7-.2-.3-.3-.5-.5c-.2-.1-.6 0-.8-.1s-.3-.4-.4-.6c-.2-.2-.2-.4-.4-.6s-.2-.4-.3-.6-.3-.3-.3-.6c-.1-.2-.1-.4-.1-.6s-.1-.5-.2-.7c0-.2 0-.5 0-.7s-.3-.4-.4-.6c0-.2-.1-.4-.2-.7-.1-.2-.1-.4-.2-.7-.1-.2-.2-.4-.3-.6s-.2-.4-.3-.6.3-.6.2-.8-.3-.4-.4-.6-.3-.4-.4-.6-.2-.4-.3-.6 0-.5-.1-.7-.3-.4-.4-.6-.4-.3-.5-.5 0-.5-.1-.8c-.1-.2-.1-.4-.2-.7-.1-.2-.3-.4-.3-.7-.1-.2-.2-.5-.2-.7-.1-.2-.4-.4-.4-.7-.1-.2.1-.5.1-.8 0-.2-.3-.5-.4-.7 0-.3-.1-.5-.1-.7 0-.3.2-.5.1-.8 0-.3.1-.5 0-.8 0-.3-.5-.5-.5-.7 0-.4.3-.7.3-.8-.1-.5-.2-.3-.4 0-.1.2-.2.5-.3.7-.1.1-.5.1-.7.4-.2.1-.3.5-.5.7-.2.1-.6-.1-.8-.1-.3 0-.4 0-.6-.1s-.5-.1-.7-.4c-.1-.2-.2-.5-.2-.7s0-.5 0-.7-.2-.5-.2-.7.1-.5.1-.7-.1-.5-.1-.7 0-.5.1-.7c0-.2.4-.4.5-.7 0-.2-.4-.5-.4-.7s0-.5 0-.7.2-.5.2-.7-.1-.5 0-.7c0-.2.4-.4.4-.7 0-.2 0-.5 0-.7s-.2-.5-.1-.8c0-.2.5-.4.5-.6.1-.2.1-.5.1-.7.1-.2-.2-.5-.1-.8.1-.2.5-.4.5-.6.1-.2 0-.5.1-.7s.4-.3.5-.6c.1-.2-.2-.6-.1-.8s.3-.4.4-.6.3-.4.4-.6.2-.4.3-.7c.1-.2 0-.5.1-.8.1-.2.1-.5.2-.7s.6-.2.7-.5c.1-.2.2-.4.3-.7.1-.2.1-.5.2-.7s.2-.5.3-.7 0-.5.1-.8c.1-.2.2-.4.3-.7.1-.2.2-.5.3-.7s.5-.3.6-.5.3-.4.4-.6-.2-.6-.1-.8.3-.4.5-.6c.1-.2.1-.5.2-.7s.5-.3.6-.5.2-.4.3-.6.3-.4.4-.6 0-.5.1-.8c.1-.2.4-.3.5-.5s0-.6.1-.8.6-.3.7-.5 0-.6.1-.8.5-.3.6-.5.2-.5.3-.7.1-.5.3-.7c.1-.2.3-.4.4-.6s.1-.5.2-.7.4-.3.6-.5c.1-.2.3-.4.5-.6.1-.2.2-.4.4-.6s.4-.3.5-.5c.2-.2.1-.6.3-.8s.3-.4.5-.6.5-.2.7-.4.4-.4.5-.6c.2-.2.1-.5.3-.7s.2-.5.3-.7.6-.2.7-.4-.1-.6 0-.8.4-.4.5-.6c0-.2 0-.4.1-.7 0-.2.3-.4.3-.7 0-.2-.2-.5-.2-.8 0-.2.1-.5.1-.7s.3-.4.4-.7c0-.2-.2-.5-.2-.8 0-.2 0-.5 0-.7s.1-.5.1-.7 0-.5 0-.7.2-.5.2-.7.1-.5.1-.7c.1-.2.1-.5.1-.7.1-.2.4-.4.5-.6s-.1-.5 0-.8c.1-.2.2-.5.3-.7.1-.3.4-.4.5-.6.1-.3 0-.7.2-.8s.5-.1.7-.2.5 0 .7-.1.4-.3.6-.3c.2-.1.5.1.7 0 .2 0 .5 0 .7-.1.2 0 .4-.3.7-.3.2 0 .5-.2.7-.2s.5-.1.7-.1.5-.1.7-.1.5.3.7.3.5 0 .7-.1c.2 0 .4-.5.7-.5.2 0 .5.1.7.1s.5-.1.7-.1.5.2.7.2.5-.1.7-.1h.7c.2 0 .5.1.7.1s.5-.1.7-.1.5-.1.7-.1.5.3.7.3h.7c.2 0 .4.3.7.3.2 0 .5-.2.7-.1.2 0 .4.4.6.4s.5-.2.8-.1c.2.1.4.3.6.4s.4.2.6.3.4.3.6.4c-.1 1.1.1 1.1.2 1.3z" fill="#fff"/><path d="m494.8 661.5s.4 0 .6.4c.1.2-.1.5 0 .8.1.2.3.4.4.6s.2.4.3.7c.1.2.1.5.2.7s0 .5.1.7.1.5.2.7.5.4.6.6c0 .2-.2.5-.1.8v.7c0 .2.1.5.1.7v.7.7c0 .2.2.5.3.7 0 .2.3.4.4.7.1.2-.1.5 0 .7s.2.5.3.7-.2.6-.1.8.2.4.3.7c.1.2.3.4.4.6s.4.3.5.5.3.4.5.6c.1.2.2.4.4.6.1.2.1.5.2.7s.5.2.6.4-.1.6 0 .8.6.2.7.4.3.4.4.6-.1.6 0 .8.1.5.2.7l.3.6c.1.2.4.3.5.5s.4.3.5.6c.1.2 0 .5.1.8.1.2.3.4.4.6s.5.3.6.5.1.5.2.7.1.5.2.7.2.4.3.7c.1.2.1.5.2.7s.5.3.6.5 0 .5.1.7.3.4.4.6 0 .5.1.7.4.4.5.6.2.5.4.6c.1.1.5.2.7.4.1.2.3.4.4.6s0 .5.1.7.2.4.2.7c.1.2 0 .5.1.7s.3.4.4.6-.1.5 0 .8c.1.2.5.3.6.6.1.2 0 .5 0 .7.1.2.3.4.4.6s-.2.6-.2.8c.1.2.4.4.4.6.1.2-.1.5 0 .7s.1.5.1.7c.1.2.2.5.2.7s.3.4.3.7c0 .2-.2.5-.1.8 0 .2.5.4.5.6s0 .5.1.7c0 .2-.2.5-.2.7v.7c0 .2.4.4.4.7 0 .2.1.5.1.7s-.3.5-.3.8v.7c0 .2.3.5.4.7 0 .2-.4.5-.4.7s.2.5.2.7.2.5.2.7.1.5 0 .7c0 .2-.4.5-.4.7s.1.5 0 .7c0 .2-.1.5-.1.7s.1.5.1.7.1.5.1.7-.2.5-.2.7 0 .5-.1.7c-.1.3-.2.4-.3.6-.2.2-.3.5-.5.6-.2 0-.4-.5-.6-.6-.3-.1-.3-.1-.7-.1-.4.1-.3.2-.5.6-.1.2 0 .5-.1.7s-.1.5-.2.7-.4.4-.5.6 0 .5-.1.7-.5.3-.6.5 0 .5-.1.8c-.1.2-.3.4-.5.6-.1.2-.2.5-.3.7s0 .6-.1.8-.4.4-.5.6-.4.3-.5.5 0 .6-.1.8c-.2.2-.3.4-.5.6s-.7.1-.8.3-.2.4-.4.6c-.1.2 0 .6-.1.8s-.3.4-.4.6 0 .5-.1.7-.6.3-.7.5 0 .5 0 .8c-.1.2-.1.5-.2.7s-.2.4-.3.6-.3.4-.4.6-.4.3-.5.5-.3.4-.4.6-.1.5-.2.7-.4.3-.5.5c-.2.2-.3.4-.4.5-.2.2-.2.5-.4.6s-.4.3-.6.4-.5 0-.7.1-.4.3-.6.3-.5.1-.7.1-.4-.1-.7 0c-.2 0-.5-.2-.8-.1-.2 0-.4.2-.7.3-.2 0-.4.4-.7.4-.2 0-.5-.3-.8-.3-.2 0-.4.5-.6.6-.2 0-.5 0-.7.1-.2 0-.5.1-.7.1s-.5 0-.7 0-.5 0-.7 0-.5.1-.7.1-.5-.1-.7 0c-.2 0-.5 0-.7 0s-.5.1-.7.1-.5.2-.7.2-.5-.1-.7-.1-.5.3-.7.3-.5-.5-.7-.5-.5.1-.7 0c-.2 0-.5.1-.7.1s-.5.3-.8.3c-.2 0-.4-.5-.7-.6-.2 0-.5.2-.8.2-.2 0-.5.1-.8 0-.2 0-.4-.4-.7-.5-.2-.1-.5.1-.8 0-.2-.1-.5-.1-.7-.2s-.4-.4-.7-.4c-.2-.1-.5 0-.8 0-.2-.1-.4-.4-.6-.5s-.5-.1-.7-.2-.6.2-.8.2c-.3-.1-.4-.5-.6-.6-.3-.1-.5 0-.8-.1s-.6.2-.7.2c-.2 0-.5-.3-.7-.3s-.5.1-.7.1-.4-.2-.7-.3c-.2-.1-.4-.2-.6-.3s-.5-.1-.7-.1c-.2-.1-.4-.3-.6-.4s-.5-.1-.7-.2-.3-.3-.5-.5c-.2-.1-.6 0-.8-.1s-.3-.4-.4-.6c-.2-.2-.2-.4-.4-.6s-.2-.4-.3-.6-.3-.3-.3-.6c-.1-.2-.1-.4-.1-.6s-.1-.5-.2-.7c0-.2 0-.5 0-.7s-.3-.4-.4-.6c0-.2-.1-.4-.2-.7-.1-.2-.1-.4-.2-.7-.1-.2-.2-.4-.3-.6s-.2-.4-.3-.6.3-.6.2-.8-.3-.4-.4-.6-.3-.4-.4-.6-.2-.4-.3-.6 0-.5-.1-.7-.3-.4-.4-.6-.4-.3-.5-.5 0-.5-.1-.8c-.1-.2-.1-.4-.2-.7-.1-.2-.3-.4-.3-.7-.1-.2-.2-.5-.2-.7-.1-.2-.4-.4-.4-.7-.1-.2.1-.5.1-.8 0-.2-.3-.5-.4-.7 0-.3-.1-.5-.1-.7 0-.3.2-.5.1-.8 0-.3.1-.5 0-.8 0-.3-.5-.5-.5-.7 0-.4.3-.7.3-.8-.1-.5-.2-.3-.4 0-.1.2-.2.5-.3.7-.1.1-.5.1-.7.4-.2.1-.3.5-.5.7-.2.1-.6-.1-.8-.1-.3 0-.4 0-.6-.1s-.5-.1-.7-.4c-.1-.2-.2-.5-.2-.7s0-.5 0-.7-.2-.5-.2-.7.1-.5.1-.7-.1-.5-.1-.7 0-.5.1-.7c0-.2.4-.4.5-.7 0-.2-.4-.5-.4-.7s0-.5 0-.7.2-.5.2-.7-.1-.5 0-.7c0-.2.4-.4.4-.7 0-.2 0-.5 0-.7s-.2-.5-.1-.8c0-.2.5-.4.5-.6.1-.2.1-.5.1-.7.1-.2-.2-.5-.1-.8.1-.2.5-.4.5-.6.1-.2 0-.5.1-.7s.4-.3.5-.6c.1-.2-.2-.6-.1-.8s.3-.4.4-.6.3-.4.4-.6.2-.4.3-.7c.1-.2 0-.5.1-.8.1-.2.1-.5.2-.7s.6-.2.7-.5c.1-.2.2-.4.3-.7.1-.2.1-.5.2-.7s.2-.5.3-.7 0-.5.1-.8c.1-.2.2-.4.3-.7.1-.2.2-.5.3-.7s.5-.3.6-.5.3-.4.4-.6-.2-.6-.1-.8.3-.4.5-.6c.1-.2.1-.5.2-.7s.5-.3.6-.5.2-.4.3-.6.3-.4.4-.6 0-.5.1-.8c.1-.2.4-.3.5-.5s0-.6.1-.8.6-.3.7-.5 0-.6.1-.8.5-.3.6-.5.2-.5.3-.7.1-.5.3-.7c.1-.2.3-.4.4-.6s.1-.5.2-.7.4-.3.6-.5c.1-.2.3-.4.5-.6.1-.2.2-.4.4-.6s.4-.3.5-.5c.2-.2.1-.6.3-.8s.3-.4.5-.6.5-.2.7-.4.4-.4.5-.6c.2-.2.1-.5.3-.7s.2-.5.3-.7.6-.2.7-.4-.1-.6 0-.8.4-.4.5-.6c0-.2 0-.4.1-.7 0-.2.3-.4.3-.7 0-.2-.2-.5-.2-.8 0-.2.1-.5.1-.7s.3-.4.4-.7c0-.2-.2-.5-.2-.8 0-.2 0-.5 0-.7s.1-.5.1-.7 0-.5 0-.7.2-.5.2-.7.1-.5.1-.7c.1-.2.1-.5.1-.7.1-.2.4-.4.5-.6s-.1-.5 0-.8c.1-.2.2-.5.3-.7.1-.3.4-.4.5-.6.1-.3 0-.7.2-.8s.5-.1.7-.2.5 0 .7-.1.4-.3.6-.3c.2-.1.5.1.7 0 .2 0 .5 0 .7-.1.2 0 .4-.3.7-.3.2 0 .5-.2.7-.2s.5-.1.7-.1.5-.1.7-.1.5.3.7.3.5 0 .7-.1c.2 0 .4-.5.7-.5.2 0 .5.1.7.1s.5-.1.7-.1.5.2.7.2.5-.1.7-.1h.7c.2 0 .5.1.7.1s.5-.1.7-.1.5-.1.7-.1.5.3.7.3h.7c.2 0 .4.3.7.3.2 0 .5-.2.7-.1.2 0 .4.4.6.4s.5-.2.8-.1c.2.1.4.3.6.4s.4.2.6.3.4.3.6.4c-.1 1.1.1 1.1.2 1.3z" style="fill:none;stroke:#000;stroke-width:.8284;stroke-linecap:round;stroke-linejoin:bevel;stroke-miterlimit:10"/><path d="m495.3 671.6c.1-.1.2-.3.3-.6 0-.2.4-.4.4-.7 0-.2.1-.5.1-.7s-.3-.5-.3-.8c0-.2.3-.5.3-.7s-.1-.5-.1-.7-.1-.5-.1-.7.1-.5.1-.7 0-.5-.1-.7c0-.2.1-.5.1-.7s-.2-.5-.2-.7-.2-.5-.3-.7c0-.2.1-.5.1-.8-.1-.2-.4-.4-.5-.6s0-.5 0-.8c-.1-.2 0-.5-.1-.8-.1-.2-.4-.4-.5-.6s-.4-.3-.5-.5-.3-.4-.4-.6-.2-.4-.4-.6-.3-.4-.4-.6c-.2-.2-.1-.6-.2-.8-.2-.2-.4-.3-.6-.5s-.4-.3-.6-.4-.6 0-.8-.1-.4-.3-.6-.4-.2-.5-.5-.7c-.2-.1-.5 0-.8-.1-.2-.1-.5 0-.7-.1s-.4-.3-.6-.4-.4-.3-.7-.3c-.2-.1-.4-.2-.7-.3-.2 0-.5 0-.7 0s-.5.1-.7 0c-.2 0-.5.2-.7.2s-.5-.3-.7-.3-.5-.2-.7-.2-.5.2-.7.2-.4.5-.6.5c-.2.1-.5 0-.7.1s-.4.1-.7.2c-.2.1-.4.3-.6.4s-.5 0-.7.2c-.2.1-.5.1-.7.3-.2.1-.3.4-.5.5-.2.2-.3.4-.5.5-.2.2-.3.4-.5.6s-.1.5-.3.7c-.1.2-.6.2-.7.4s0 .5-.1.8c-.1.2-.1.5-.2.7s-.3.4-.4.6-.5.3-.6.5.2.6.1.8-.5.4-.6.6.1.6 0 .8 0 .5-.1.8c-.1.2-.3.4-.4.7-.1.2-.3.5-.3.7-.1.3.1.5.1.8v.7.7c0 .3-.1.5-.1.7 0 .3-.3.5-.3.7 0 .3-.2.6-.2.8 0 .5.1.4.3.7.1.3.2.2.4.6.1.2 0 .5.2.7.1.2.3.4.5.6.1.2.4.3.6.5s.2.4.4.6.3.4.5.5.5.1.7.3c.2.1.4.2.6.3s.4.1.7.3c.2.1.3.4.6.5.2.1.3.5.5.6s.5.1.7.2.6-.2.8-.2c.2.1.4.5.6.5s.5-.1.7-.1.5.2.7.2h.7c.2 0 .5.3.7.3s.5-.2.7-.2.5.3.7.3.5-.4.7-.4.5.3.7.3.5-.1.7-.1.5-.3.7-.3.5-.1.7-.1.5.2.8.1c.2-.1.4-.3.7-.3.2-.1.5.1.8 0 .2-.1.3-.6.5-.7s.5.1.8 0c.2-.1.4-.3.6-.4s.4-.2.6-.3.6 0 .8-.1.2-.6.4-.7c.2-.2.4-.2.6-.4s.3-.4.5-.5c.2-.4 0-.3.2-.6z"/><path d="m494.5 671.4c.7-.9.6-7.2-.1-8.3-.7-1.2-1.6-2.7-2.9-1.5s-3.7 3.6-3.7 5.5 1.2 1.8 1 2.9-3.2 2-5.1 2-4.6-1.1-4.5-2.3c.1-1.3.8-.8.8-2.5 0-1.6-1.9-5.5-3.1-6.2-1.3-.7-2.4 1.8-2.7 2.9s-1.6 5.5-.3 7.4c1.4 1.9 4 4.1 9.7 4.1 5.7-.1 9.2-1.7 10.9-4z" fill="#fff"/><path d="m476.3 665.9s.8 0 1.8 1.1c0 0-1 .2-1.3-.1-.4-.3-.5-1-.5-1z"/><path d="m492.1 665.9s-.8 0-1.8 1.1c0 0 1 .2 1.3-.1.4-.3.5-1 .5-1z"/><path d="m485.1 668.2s-.6.3-.6.6-.3 1.3-.6 1.3-.5-1.1-.7-1.3c-.2-.3-.5-.7-.5-.7s.4-.9 1.2-.9c.8.1 1.2 1 1.2 1z" fill="#4d4d4d"/><path d="m495 733.3s3.3 4.7.3 6.1-2.5-.4-2.5-.4-2.4 1.8-4.1.5c0 0-2.9.7-3.3-.2 0 0 3.5-2.3 3.5-3.3 0 0 .8 1.1 1.3 1.1.5-.1 1.5-2.5 2.4-2.7.9-.3 2.5.4 2.4-1.1z"/><path d="m479.6 738.2s-1.2 1.7-2.4 1.4-1.3-1.3-2.4-1.3-1.6 1.1-2.5.6c-.9-.4-1.5-2.6-2.4-3.2s-.2-1.6.4-1.6 1.8 1.8 2.5 1.2 1.6.8 2.1.9c.3.1 3.8 2.3 4.7 2z"/><g style="fill:none;stroke:#000;stroke-width:.8284;stroke-linecap:round;stroke-linejoin:bevel;stroke-miterlimit:10"><path d="m458.2 713.6c.1-.3-.4-.4-.2-.8.1-.2.1-.4.2-.7.1-.2.4-.3.5-.6.1-.2-.1-.5 0-.8.1-.2.2-.4.3-.7.1-.2.3-.4.4-.6s.2-.4.3-.7c.1-.2.1-.5.2-.7s.1-.5.2-.7 0-.5.1-.7.2-.4.3-.7c.1-.2.1-.5.2-.7s.3-.4.4-.6 0-.5 0-.8c.1-.2.1-.5.2-.7s.4-.4.5-.6.1-.5.2-.7.2-.5.3-.7.3-.4.4-.6-.3-.7-.2-.9.3-.4.4-.6.4-.4.5-.6 0-.5.1-.8c.1-.2.2-.5.2-.7.1-.2.4-.4.5-.6s.4-.4.5-.6-.2-.7 0-.9c.1-.2.5-.3.7-.4.1-.2.3-.4.4-.6"/><path d="m509.5 717.8c-.2-.3-.4-.1-.6-.5-.1-.2-.2-.4-.3-.7-.1-.2-.2-.4-.4-.7-.1-.2 0-.5-.1-.8-.1-.2.1-.5 0-.8s-.5-.4-.5-.7c0-.2-.2-.4-.2-.7 0-.2.2-.5.1-.7 0-.2.2-.5.2-.7s-.6-.4-.6-.6.2-.5.2-.7-.1-.5-.2-.7c0-.2-.1-.5-.1-.7s-.3-.4-.3-.7c0-.2.4-.5.3-.8 0-.2-.5-.4-.5-.6s.3-.5.2-.8c0-.2-.5-.4-.5-.6s0-.5 0-.7-.1-.5-.2-.7c0-.2-.2-.5-.2-.7s.1-.5 0-.7c0-.2-.3-.4-.4-.6s.1-.5.1-.7c-.1-.2-.3-.4-.4-.6s-.1-.5-.1-.7c-.1-.2 0-.5 0-.7-.1-.2.2-.5.2-.8-.1-.2-.3-.4-.4-.7-.1-.2 0-.5 0-.7-.1-.2-.3-.4-.4-.6s0-.5 0-.7c-.1-.2-.3-.4-.4-.6s-.1-.5-.1-.7"/></g></svg>