<svg enable-background="new 0 0 1920 1080" viewBox="0 0 1920 1080" xmlns="http://www.w3.org/2000/svg"><path d="m1050.6 936.1v3.4h-1.8v-3.5c.7 0 1.2.1 1.8.1z" fill="#f7a63b"/><path d="m1050.2 855.6.3 62c-.6-1.2-1.1-2.5-1.5-3.8l.3-55c.3-1.1.6-2.2.9-3.2z" fill="#f7a63b"/><path d="m1050.6 936.1c-.6 0-1.2 0-1.7-.1h.9v3.4h.9z" fill="#df8f2f"/><path d="m1049.6 915.5c.3.7.6 1.4.9 2.1l-.3-62c-.3 1-.4 1.3-.7 2.4z" fill="#df8f2f"/><path d="m1052.2 942.5-1.6 3.4h-28.3v.1c-.2 0-.3 0-.5-.1 0 0 3.4-2.1 7.8-3.5h22.6z" fill="#5ca4aa"/><path d="m1102.9 943.6h-18.8c-.2 0-.4.1-.4.3l-1.4 4.4.6.2 1.3-3.9c.1-.2.2-.3.4-.3h3.8c.3 0 .5.3.4.6l-1.1 3.4.6.2 1.3-3.9c.1-.2.2-.3.4-.3h4.5c.3 0 .5.3.4.6l-1.1 3.4.6.2 1.3-3.9c.1-.2.2-.3.4-.3h4.9c.2 0 .4.2.4.4l.1 3.7h.6l-.1-4.1h.8v-.7z" fill="#fff"/><path d="m1020.9 941.4c-2.3-.2-4.4-.5-6.4-.7-3-.3-5.3-.6-7.6-.8-2.7-.2-4.9-.3-7-.3h-.6l.4.5s1.4 2.1 3.3 4.5l.5-.4c-1.2-1.6-2.2-2.9-2.7-3.8-.1-.1 0-.2.1-.2 1.7 0 3.6.1 5.7.3 0 0 .1 0 .1.1.3.5 1.6 2.2 3.2 4.3l.3-.2-.2.3.3-.2.2-.3c-1.1-1.5-2.1-2.9-2.7-3.7-.1-.1 0-.2.1-.2 1.9.2 3.9.4 6.4.7 0 0 .1 0 .1.1 1 1.5 2.1 3 3.2 4.3l.5-.4c-.9-1.2-1.8-2.4-2.6-3.6-.1-.1 0-.3.1-.2 1.7.2 3.5.4 5.4.6z" fill="#fff"/><path d="m1094.8 948.1c-1.8 0-3.9 0-6.2 0-1.7 0-3.5 0-5.4 0-1.2 0-2.5 0-3.7 0-11.7-.1-26.2-.3-39.4-.8-7-.3-12.8-.8-17.7-1.3-.2 0-.3 0-.5-.1-1.7-.2-3.2-.4-4.7-.5-2.8-.3-5.3-.6-7.6-.8-2.4-.2-4.6-.3-6.9-.3 0 0 1.7 2.5 3.9 5.4.4.3 8 5.8 48 5.8h43.2c.8-.4 1.4-.9 1.9-1.3 1.7-1.7 2.9-6 2.9-6s-3-.1-7.8-.1z" fill="#184070"/><path d="m1082.7 940.4c0 .5-.4.9-.9.9h-4.4-40.7-.5c0-1 .8-1.8 1.8-1.8h10.8 1.8 31.2c.5 0 .9.4.9.9z" fill="#184070"/><path d="m1082.1 939.5c.1.1.1.2.1.4 0 .5-.4.9-.9.9h-4.4-40.5c0 .1-.1.3-.1.5h.5 40.7 4.4c.5 0 .9-.4.9-.9-.1-.4-.3-.8-.7-.9z" fill="#1b2956"/><path d="m1083.2 933h-21.9c-3.6-3.4-6.4-7.2-8.7-11.3v-68.4c6.3 48 30.6 79.7 30.6 79.7z" fill="#fff"/><path d="m1077.4 941.3 2 6.8c-11.7-.1-26.2-.3-39.4-.8-7-.3-12.8-.8-17.7-1.3v-.1h28.3l1.6-3.4h-22.5c2.2-.7 4.7-1.2 7.1-1.2z" fill="#fff"/><path d="m1079.4 948.1-2-6.8h-2.1l2 6.8z" fill="#dde8f5"/><path d="m1077.4 941.3h-40.7c-.1 0-.1 0-.2 0l40.8.6h.2z" fill="#dde8f5"/><path d="m1050.5 917.6c.6 1.4 1.3 2.7 2 4.1 2.2 4.1 5.1 7.9 8.7 11.3 1.3 1.2 2.6 2.4 4.1 3.5 0 0-6.1-.1-14.7-.4-.6 0-1.2 0-1.7-.1-13.8-.5-33.1-1.7-44.9-4.3 0 0 13.8-53.5 48.3-82.7 0 0-.6 1.5-1.4 4.1-.2.7-.5 1.6-.7 2.5-.1.5-.3.9-.4 1.4-.2.6-.3 1.1-.5 1.7-3.3 12.7-7.3 35.5-.3 55 .5 1.4 1 2.7 1.5 3.9z" fill="#fff"/><path d="m1050.6 936.1c-.6 0-1.2 0-1.7-.1v1.3c.6 0 1.2 0 1.7.1z" fill="#df8f2f"/><path d="m1048.9 936c.6 0 1.1 0 1.7.1 8.6.3 14.7.4 14.7.4-1.4-1.1-2.8-2.3-4.1-3.5-3.6-3.4-6.4-7.2-8.7-11.3-.7-1.3-1.4-2.7-2-4.1-.6-1.2-1.1-2.5-1.5-3.8-7-19.6-3-42.3.3-55-7.7 17-14 62.4-.4 77.2z" fill="#dde8f5"/><path d="m1061.2 933h6c-3.6-3.4-6.4-7.2-8.7-11.3-.7-1.3-1.4-2.7-2-4.1-.6-1.2-1.1-2.5-1.5-3.8-1.1-3-1.9-6-2.4-9v16.9c2.2 4.1 5.1 7.9 8.6 11.3z" fill="#dde8f5"/><path d="m1052.5 872c.5-3.1 1-6 1.6-8.6-.6-3-1.1-6.1-1.5-9.2 0 0-.1.1-.1.1z" fill="#dde8f5"/><g fill="#fff"><path d="m1045.1 942.5-1.8 3.4h2.8l1.7-3.4z" opacity=".5"/><path d="m1043.1 942.5-1.8 3.4h.7l1.7-3.4z" opacity=".5"/><path d="m1038.4 942.5-1.7 3.4h1.2l1.8-3.4z" opacity=".5"/><path d="m1035.7 942.5-1.8 3.4h2.1l1.7-3.4z" opacity=".5"/><path d="m1032.7 942.5-1.8 3.4h.7l1.7-3.4z" opacity=".5"/><path d="m1030.3 942.5-1.8 3.4h.7l1.7-3.4z" opacity=".5"/><path d="m1028.1 943-1.5 2.9h1.2l1.7-3.4c-.4.1-.9.3-1.4.5z" opacity=".5"/></g><path d="m1054.5 955.5h43.2c-2 1.1-4.6 1.9-4.6 1.9h-79.5c-3.4-2.2-8.9-10-11-13.1.4.3 11.9 11.2 51.9 11.2z" fill="#1b2956"/><path d="m1067.2 942.8-5.6 2.6c-.5.3-1.1.4-1.7.4h-7.4l1.6-3.4h13c.3.1.3.4.1.4z" fill="#5ca4aa"/><path d="m1079.2 947.3c-21.3 0-56.9-1.5-56.9-1.5v.1c4.9.5 10.7 1 17.7 1.3 13.2.5 27.6.7 39.4.8z" fill="#dde8f5"/><path d="m1067.1 942.5h-.2l-.4.7.6-.3c.3-.1.3-.4 0-.4z" fill="#fff" opacity=".5"/><path d="m1064.2 942.5-1.2 2.4 2.7-1.3.6-1.1z" fill="#fff" opacity=".5"/><path d="m1061.2 942.5-1.8 3.4h.5.1l1.8-3.4z" fill="#fff" opacity=".5"/><path d="m1058.8 942.5-1.7 3.4h.6l1.8-3.4z" fill="#fff" opacity=".5"/><path d="m1056.9 942.5-1.7 3.4h1.2l1.7-3.4z" fill="#fff" opacity=".5"/><path d="m1028.1 948.7c.8 0 1.5.7 1.5 1.5s-.7 1.5-1.5 1.5-1.5-.7-1.5-1.5c0-.9.7-1.5 1.5-1.5z" fill="#5ca4aa"/><path d="m1028.1 948.7c-.3 0-.5.1-.7.2l-.7 1.1v.1c0 .2.1.4.1.6z" fill="#fff" opacity=".5"/><path d="m1028.7 948.8-1.5 2.4s.1.1.1.1l1.6-2.5c-.1.1-.1 0-.2 0z" fill="#fff" opacity=".5"/><path d="m1029.2 949.2-1.5 2.3h.2l1.4-2.2s-.1 0-.1-.1z" fill="#fff" opacity=".5"/><path d="m1029.4 949.5-1.3 2c.1 0 .3 0 .4-.1l1-1.5c0-.1 0-.2-.1-.4z" fill="#fff" opacity=".5"/><path d="m1035.8 948.7c.8 0 1.5.7 1.5 1.5s-.7 1.5-1.5 1.5-1.5-.7-1.5-1.5c.1-.9.7-1.5 1.5-1.5z" fill="#5ca4aa"/><path d="m1035.8 948.7c-.3 0-.5.1-.7.2l-.7 1.1v.1c0 .2.1.4.1.6z" fill="#fff" opacity=".5"/><path d="m1036.5 948.8-1.5 2.4s.1.1.1.1l1.6-2.5c-.1.1-.2 0-.2 0z" fill="#fff" opacity=".5"/><path d="m1037 949.2-1.5 2.3h.2l1.4-2.2c-.1 0-.1 0-.1-.1z" fill="#fff" opacity=".5"/><path d="m1037.2 949.5-1.3 2c.1 0 .3 0 .4-.1l1-1.5c-.1-.1-.1-.2-.1-.4z" fill="#fff" opacity=".5"/><path d="m1043.6 948.7c.8 0 1.5.7 1.5 1.5s-.7 1.5-1.5 1.5-1.5-.7-1.5-1.5c0-.9.7-1.5 1.5-1.5z" fill="#5ca4aa"/><path d="m1043.6 948.7c-.3 0-.5.1-.7.2l-.7 1.1v.1c0 .2.1.4.1.6z" fill="#fff" opacity=".5"/><path d="m1044.2 948.8-1.5 2.4s.1.1.1.1l1.6-2.5c-.1.1-.1 0-.2 0z" fill="#fff" opacity=".5"/><path d="m1044.7 949.2-1.5 2.3h.2l1.4-2.2s0 0-.1-.1z" fill="#fff" opacity=".5"/><path d="m1044.9 949.5-1.3 2c.1 0 .3 0 .4-.1l1-1.5c0-.1 0-.2-.1-.4z" fill="#fff" opacity=".5"/><path d="m1127.6 964.9h-27.8c-.5 0-1-.4-1-1s.4-1 1-1h27.8c.5 0 1 .4 1 1s-.4 1-1 1z" fill="#5ca4aa"/><path d="m1022.3 964.9h-32.4c-.5 0-1-.4-1-1s.4-1 1-1h32.4c.5 0 1 .4 1 1s-.4 1-1 1z" fill="#5ca4aa"/><path d="m1070.8 966.8h-21.2c-.5 0-1-.4-1-1 0-.5.4-1 1-1h21.2c.5 0 1 .4 1 1 0 .5-.4 1-1 1z" fill="#5ca4aa"/><path d="m1113.3 959h-121.3c-.5 0-1-.4-1-1 0-.5.4-1 1-1h121.3c.5 0 1 .4 1 1-.1.6-.5 1-1 1z" fill="#5ca4aa"/><path d="m1122.1 959h-2c-.5 0-1-.4-1-1 0-.5.4-1 1-1h2c.5 0 1 .4 1 1s-.5 1-1 1z" fill="#5ca4aa"/><path d="m986.3 959h-8.9c-.5 0-1-.4-1-1 0-.5.4-1 1-1h8.9c.5 0 1 .4 1 1-.1.6-.5 1-1 1z" fill="#5ca4aa"/></svg>