<svg viewBox="0 0 308.5 111.6" xmlns="http://www.w3.org/2000/svg"><path d="M190.5 38.3l-2.7 9.5-7.7-2.2 2.7-9.5c.6-2.1 2.8-3.3 4.9-2.7h.1c2.1.6 3.3 2.8 2.7 4.9z" fill="#605d69"/><path d="M187.8 33.4c-.4-.1-.7-.1-.9-.2 1.6.9 2.4 2.7 1.9 4.6l-2.7 9.5 1.7.5 2.7-9.5c.6-2.1-.6-4.3-2.7-4.9z" fill="#524c61"/><path d="M189.2 44.7c-2.7-.1-6.1-.3-10-.5 0 0-41.6-8.5-64.9-21l2.8-1.4c25.5 13.7 72.1 22.9 72.1 22.9zm80.1 2.6l-9.3 9.3s-4.6-.8-10.9-2l14.6-7.3z" fill="#fff"/><path d="M266.1 47.3l-8.8 8.8c1.7.3 2.7.5 2.7.5l9.3-9.3z" fill="#dde8f5"/><path d="M265.5 61.9l-8 17.2c-150.5 0-212.3-8-213.4-8.1-14.6-9-21.2-19.5-28.2-20.8l199.8 9.3z" fill="#fff"/><path d="M264.4 61.9l-9.2 17.2h2.3l8-17.2z" fill="#dde8f5"/><path d="M215.7 59.5L15.9 50.2c.5-.3 15-10.2 41-11h.1c44-.1 105.2 9.2 158.7 20.3z" fill="#184070"/><path d="M260 56.6s-4.6-.8-10.9-2c-5.8-1.1-13-2.5-19.3-3.9-4.9-1.1-9.4-3.5-13-7.1L187 13.8c-1.8-1.8-4.3-2.9-6.9-2.9h-20.7l.6.6c1.3 1.3 3 2 4.7 2h10.6c1.4 0 2.8.7 3.6 1.8L193.4 35c1.4 1.8 2.1 4.1 2.2 6.3l.4 3.7s-2.5-.1-6.8-.4c-2.7-.1-6.1-.3-10-.5-21.4-1.2-58.8-3.1-87.2-4.2-13.2-.5-24.4-.9-31.3-.9-1.2 0-2.5 0-3.6.1 44 0 105.2 9.2 158.7 20.4l49.8 2.3z" fill="#fff"/><path d="M212.9 43.6c3.6 3.6 5.9 7.3 10.8 8.3 4.8 1 19.6 3.4 26.6 5.2 2.4.6 4.7 1.7 6.7 3.1l1.8 1.3 6.7.3-5.6-5.3s-4.6-.8-10.9-2c-5.8-1.1-13-2.5-19.3-3.9-4.9-1.1-9.4-3.5-13-7.1l-29.8-29.8c-1.8-1.8-4.3-2.9-6.9-2.9h-6.4c2.6 0 8.3 1 10.1 2.9z" fill="#dde8f5"/><path d="M114.3 23.1c23.2 12.5 64.9 21 64.9 21-21.4-1.2-58.8-3.1-87.2-4.2 8.2-8.8 17.7-14.4 22.3-16.8z" fill="#524c61"/><path d="M117.3 24.7l-14 15.7c.7 0 1.4.1 2.1.1l13.4-15c-.5-.3-1-.6-1.5-.8zm10.3 4.5L117.1 41c1.4.1 2.8.1 4.3.2l9.6-10.7c-1.2-.4-2.3-.9-3.4-1.3zm5.2 2l-9 10.1c2.3.1 4.6.2 6.8.3l7.6-8.6-5.4-1.8zm11.8 3.9l-6.1 6.9c.8 0 1.5.1 2.3.1l5.7-6.4c-.7-.2-1.3-.4-1.9-.6zm6.7 2l-4.7 5.3c.8 0 1.5.1 2.3.1l4.3-4.9c-.7-.1-1.3-.3-1.9-.5zm3.8 1.1l-4 4.4c1.4.1 2.7.1 4 .2l3.3-3.7-3.3-.9z" opacity=".5" fill="#fff"/><path d="M264.2 64.8l1.1-2.3c.1-.3-.1-.6-.4-.6l-49.2-2.3-163.3-7.7-36.5-1.7C23 51.5 29.5 62 44.1 71c11.3 6.9 27.4 12.9 52.4 12.9H255c.2 0 .3-.1.4-.3l2.1-4.5c-75.7 0-128.9-2-163.3-4-9.6-.6-18.7-4-26.3-9.9-4.3-3.3-8.3-6.7-11.8-9.9-.3-.3-.1-.8.3-.8 62 4.9 159.3 8.2 159.3 8.2l48.1 2.3c.2 0 .3-.1.4-.2z" fill="#dde8f5"/><path d="M57 59.5s28.7 4.3 91.9 8.6c0 0-65.7-1.1-90.4-4.3zm118.5-46c1.4 0 2.8.7 3.6 1.8l1 1.3s-2.6-4.1-3.9-4.3c-1-.1-10.5-.1-15.2 0 1.1.8 2.5 1.2 3.8 1.2z" fill="#dde8f5"/><path d="M15.9 50.2l157.5 7.4c-52-3.6-100.9-9.7-129.3-17.2-17.9 2.8-27.8 9.5-28.2 9.8z" fill="#1b2956"/><path d="M269 94.1h-39.8c-.8 0-1.4-.6-1.4-1.4s.6-1.4 1.4-1.4H269c.8 0 1.4.6 1.4 1.4s-.6 1.4-1.4 1.4zm-80.3 0H72.4c-.8 0-1.4-.6-1.4-1.4s.6-1.4 1.4-1.4h116.3c.8 0 1.4.6 1.4 1.4s-.7 1.4-1.4 1.4zm11.4 6.6h-30.3c-.8 0-1.4-.6-1.4-1.4s.6-1.4 1.4-1.4h30.3c.8 0 1.4.6 1.4 1.4s-.6 1.4-1.4 1.4zm73.1-14.9H60.5c-.8 0-1.4-.6-1.4-1.4s.6-1.4 1.4-1.4h212.7c.8 0 1.4.6 1.4 1.4s-.6 1.4-1.4 1.4zm16.8 0h-7c-.8 0-1.4-.6-1.4-1.4s.6-1.4 1.4-1.4h7c.8 0 1.4.6 1.4 1.4s-.6 1.4-1.4 1.4zm-237.6 0H34.7c-.8 0-1.4-.6-1.4-1.4s.6-1.4 1.4-1.4h17.7c.8 0 1.4.6 1.4 1.4-.1.8-.7 1.4-1.4 1.4z" fill="#5ca4aa"/></svg>