<svg viewBox="0 0 1920 1080" xmlns="http://www.w3.org/2000/svg"><path d="M266.8 960.2h-28.3c-.5 0-.9-.6-.9-1.4s.4-1.4.9-1.4h28.3c.5 0 .9.6.9 1.4s-.4 1.4-.9 1.4zm-142.9 0h-21.1c-.5 0-.9-.6-.9-1.4s.4-1.4.9-1.4h21.1c.5 0 .9.6.9 1.4s-.4 1.4-.9 1.4zm32.7 5.3H133c-.5 0-.9-.6-.9-1.4s.4-1.4.9-1.4h23.5c.5 0 .9.6.9 1.4s-.3 1.4-.8 1.4zm115.5-13.6h-2c-.5 0-.9-.6-.9-1.4s.4-1.4.9-1.4h2c.5 0 .9.6.9 1.4s-.4 1.4-.9 1.4zm-8.7 0h-155c-.5 0-.9-.6-.9-1.4s.4-1.4.9-1.4h155c.5 0 .9.6.9 1.4s-.4 1.4-.9 1.4zm-163.5 0h-5.1c-.5 0-.9-.6-.9-1.4s.4-1.4.9-1.4h5.1c.5 0 .9.6.9 1.4s-.4 1.4-.9 1.4z" fill="#5ca4aa"/><path d="M1921 0H0v856s1310 98 1920-344.6V-.6" fill="#9ccc65"/><path d="M672 0L0 732V102.6L161 0zm393 1s-56.6 111.1 15 219c130 196 840 204 840 204V276s-83 10-421-34S1220 1 1220 1z" fill="#e0e0e0"/><path d="M204 937h-67l130-174h67z" fill="#ffe082"/><path d="M168 895h68m-53-20h68m-53-20h68m-54-20h68m-53-20h68m-53-20h68m-55-17h68" fill="none" stroke="#ffca28" stroke-linecap="round" stroke-miterlimit="10" stroke-width="2"/><path d="M211 922h3v32h-3zm-58 0h3v32h-3z" fill="#ffe082"/><path d="M153 915h68" fill="none" stroke="#ffca28" stroke-linecap="round" stroke-miterlimit="10" stroke-width="2"/></svg>