<svg viewBox="0 0 231.71 18.89" xmlns="http://www.w3.org/2000/svg"><g fill="#5ca4aa"><path d="m198.35 11.09h-53a1.36 1.36 0 0 1 0-2.72h53a1.36 1.36 0 1 1 0 2.72z"/><path d="m117.72 11.09h-44a1.36 1.36 0 1 1 0-2.72h44a1.36 1.36 0 0 1 0 2.72z"/><path d="m53.69 11.09h-28.75a1.36 1.36 0 0 1 0-2.72h28.75a1.36 1.36 0 0 1 0 2.72z"/><path d="m127.62 18.89h-30.32a1.36 1.36 0 0 1 0-2.72h30.32a1.36 1.36 0 0 1 0 2.72z"/><path d="m211.66 2.72h-210.3a1.36 1.36 0 0 1 0-2.72h210.3a1.36 1.36 0 1 1 0 2.72z"/><path d="m230.35 2.72h-8.85a1.36 1.36 0 0 1 0-2.72h8.85a1.36 1.36 0 1 1 0 2.72z"/></g></svg>