<svg viewBox="0 0 198.32 18.89" xmlns="http://www.w3.org/2000/svg"><g fill="#5ca4aa"><path d="m28.55 11.09h45.45a1.27 1.27 0 0 0 1.17-1.36 1.27 1.27 0 0 0 -1.17-1.36h-45.45a1.27 1.27 0 0 0 -1.16 1.36 1.27 1.27 0 0 0 1.16 1.36z"/><path d="m97.57 11.09h37.68a1.27 1.27 0 0 0 1.17-1.36 1.27 1.27 0 0 0 -1.17-1.36h-37.68a1.27 1.27 0 0 0 -1.17 1.36 1.27 1.27 0 0 0 1.17 1.36z"/><path d="m152.37 11.09h24.63a1.27 1.27 0 0 0 1.16-1.36 1.27 1.27 0 0 0 -1.16-1.36h-24.63a1.27 1.27 0 0 0 -1.16 1.36 1.27 1.27 0 0 0 1.16 1.36z"/><path d="m89.09 18.89h26a1.27 1.27 0 0 0 1.17-1.36 1.27 1.27 0 0 0 -1.26-1.36h-25.91a1.27 1.27 0 0 0 -1.16 1.36 1.27 1.27 0 0 0 1.16 1.36z"/><path d="m17.16 2.72h180a1.27 1.27 0 0 0 1.16-1.36 1.27 1.27 0 0 0 -1.16-1.36h-180a1.27 1.27 0 0 0 -1.16 1.36 1.27 1.27 0 0 0 1.16 1.36z"/><path d="m1.16 2.72h7.58a1.27 1.27 0 0 0 1.16-1.36 1.27 1.27 0 0 0 -1.16-1.36h-7.58a1.27 1.27 0 0 0 -1.16 1.36 1.27 1.27 0 0 0 1.16 1.36z"/></g></svg>