<svg viewBox="0 0 179.13 16.35" xmlns="http://www.w3.org/2000/svg"><g fill="#5ca4aa"><path d="m173 11.09h-28.3c-.51 0-.91-.61-.91-1.36s.4-1.36.91-1.36h28.3c.51 0 .91.61.91 1.36s-.45 1.36-.91 1.36z"/><path d="m30 11.09h-21.08c-.51 0-.92-.61-.92-1.36s.41-1.36.92-1.36h21.08c.51 0 .91.61.91 1.36s-.42 1.36-.91 1.36z"/><path d="m62.68 16.35h-23.54c-.51 0-.92-.61-.92-1.36s.41-1.36.92-1.36h23.54c.5 0 .91.6.91 1.36s-.41 1.36-.91 1.36z"/><path d="m178.22 2.72h-2c-.5 0-.91-.61-.91-1.36s.41-1.36.91-1.36h2c.5 0 .91.61.91 1.36s-.41 1.36-.91 1.36z"/><path d="m169.56 2.72h-155c-.5 0-.91-.61-.91-1.36s.35-1.36.86-1.36h155.05c.5 0 .91.61.91 1.36s-.41 1.36-.91 1.36z"/><path d="m6 2.72h-5.09c-.5 0-.91-.61-.91-1.36s.41-1.36.91-1.36h5.09c.51 0 .91.61.91 1.36s-.41 1.36-.91 1.36z"/></g></svg>