<svg xmlns="http://www.w3.org/2000/svg" viewBox="0 0 293.75 293.75"><defs><style>.cls-1{fill:#00897b;}</style></defs><title>instagram_logo</title><g id="Layer_2" data-name="Layer 2"><g id="Layer_1-2" data-name="Layer 1"><path class="cls-1" d="M146.88,26.46c39.21,0,43.86.15,59.35.86,14.32.65,22.09,3.05,27.27,5.06a45.53,45.53,0,0,1,16.89,11,45.64,45.64,0,0,1,11,16.89c2,5.18,4.4,13,5.05,27.28.71,15.48.86,20.13.86,59.35s-.15,43.86-.86,59.35c-.65,14.32-3,22.09-5.05,27.27a48.66,48.66,0,0,1-27.88,27.88c-5.18,2-12.95,4.4-27.27,5.05-15.49.71-20.13.86-59.35.86s-43.87-.15-59.35-.86c-14.32-.65-22.1-3-27.28-5.05a45.64,45.64,0,0,1-16.89-11,45.53,45.53,0,0,1-11-16.89c-2-5.18-4.41-12.95-5.06-27.27-.71-15.49-.86-20.14-.86-59.35s.15-43.87.86-59.35c.65-14.32,3.05-22.1,5.06-27.28a45.61,45.61,0,0,1,11-16.89,45.61,45.61,0,0,1,16.89-11c5.18-2,13-4.41,27.28-5.06,15.48-.71,20.13-.86,59.35-.86m0-26.46C107,0,102,.17,86.32.88S60,4.08,50.67,7.71a72.06,72.06,0,0,0-26,16.94,72.06,72.06,0,0,0-16.94,26C4.08,60,1.6,70.69.88,86.32S0,107,0,146.88s.17,44.89.88,60.55,3.2,26.31,6.83,35.66a72,72,0,0,0,16.94,26,71.93,71.93,0,0,0,26,16.94c9.34,3.63,20,6.12,35.65,6.83s20.67.88,60.56.88,44.89-.17,60.55-.88,26.31-3.2,35.66-6.83a75.11,75.11,0,0,0,43-43c3.63-9.35,6.12-20,6.83-35.66s.88-20.66.88-60.55-.17-44.89-.88-60.56S289.67,60,286,50.67a71.93,71.93,0,0,0-16.94-26,72,72,0,0,0-26-16.94c-9.35-3.63-20-6.11-35.66-6.83S186.77,0,146.88,0Z"/><path class="cls-1" d="M146.88,71.45a75.43,75.43,0,1,0,75.42,75.43A75.43,75.43,0,0,0,146.88,71.45Zm0,124.39a49,49,0,1,1,49-49A49,49,0,0,1,146.88,195.84Z"/><circle class="cls-1" cx="225.28" cy="68.47" r="17.63"/></g></g></svg>