<svg xmlns="http://www.w3.org/2000/svg" viewBox="0 0 335.32 237.28"><defs><style>.cls-1{fill:#00897b;}</style></defs><title>youtube_icon</title><g id="Layer_2" data-name="Layer 2"><g id="Layer_1-2" data-name="Layer 1"><path class="cls-1" d="M265.68,0h-196A69.64,69.64,0,0,0,0,69.64v98a69.64,69.64,0,0,0,69.64,69.64h196a69.64,69.64,0,0,0,69.64-69.64v-98A69.64,69.64,0,0,0,265.68,0Zm-47.1,123.41-91.69,43.73a3.69,3.69,0,0,1-5.27-3.32V73.62A3.68,3.68,0,0,1,127,70.34l91.69,46.46A3.69,3.69,0,0,1,218.58,123.41Z"/></g></g></svg>